<?xml version="1.0" encoding="utf-8" standalone="no"?>
<!DOCTYPE svg PUBLIC "-//W3C//DTD SVG 1.1//EN"
  "http://www.w3.org/Graphics/SVG/1.1/DTD/svg11.dtd">
<svg xmlns:xlink="http://www.w3.org/1999/xlink" width="460.8pt" height="345.6pt" viewBox="0 0 460.8 345.6" xmlns="http://www.w3.org/2000/svg" version="1.1">
 <metadata>
  <rdf:RDF xmlns:dc="http://purl.org/dc/elements/1.1/" xmlns:cc="http://creativecommons.org/ns#" xmlns:rdf="http://www.w3.org/1999/02/22-rdf-syntax-ns#">
   <cc:Work>
    <dc:type rdf:resource="http://purl.org/dc/dcmitype/StillImage"/>
    <dc:date>2025-06-01T22:06:17.562548</dc:date>
    <dc:format>image/svg+xml</dc:format>
    <dc:creator>
     <cc:Agent>
      <dc:title>Matplotlib v3.6.3, https://matplotlib.org/</dc:title>
     </cc:Agent>
    </dc:creator>
   </cc:Work>
  </rdf:RDF>
 </metadata>
 <defs>
  <style type="text/css">*{stroke-linejoin: round; stroke-linecap: butt}</style>
 </defs>
 <g id="figure_1">
  <g id="patch_1">
   <path d="M 0 345.6 
L 460.8 345.6 
L 460.8 0 
L 0 0 
z
" style="fill: #ffffff"/>
  </g>
  <g id="axes_1">
   <g id="patch_2">
    <path d="M 103.104 307.584 
L 369.216 307.584 
L 369.216 41.472 
L 103.104 41.472 
z
" style="fill: #ffffff"/>
   </g>
   <g id="matplotlib.axis_1">
    <g id="xtick_1">
     <g id="line2d_1">
      <defs>
       <path id="m8803809b4c" d="M 0 0 
L 0 3.5 
" style="stroke: #000000; stroke-width: 0.8"/>
      </defs>
      <g>
       <use xlink:href="#m8803809b4c" x="126.929132" y="307.584" style="stroke: #000000; stroke-width: 0.8"/>
      </g>
     </g>
     <g id="text_1">
      <!-- −4 -->
      <g transform="translate(119.558038 322.182437) scale(0.1 -0.1)">
       <defs>
        <path id="DejaVuSans-2212" d="M 678 2272 
L 4684 2272 
L 4684 1741 
L 678 1741 
L 678 2272 
z
" transform="scale(0.015625)"/>
        <path id="DejaVuSans-34" d="M 2419 4116 
L 825 1625 
L 2419 1625 
L 2419 4116 
z
M 2253 4666 
L 3047 4666 
L 3047 1625 
L 3713 1625 
L 3713 1100 
L 3047 1100 
L 3047 0 
L 2419 0 
L 2419 1100 
L 313 1100 
L 313 1709 
L 2253 4666 
z
" transform="scale(0.015625)"/>
       </defs>
       <use xlink:href="#DejaVuSans-2212"/>
       <use xlink:href="#DejaVuSans-34" x="83.789062"/>
      </g>
     </g>
    </g>
    <g id="xtick_2">
     <g id="line2d_2">
      <g>
       <use xlink:href="#m8803809b4c" x="181.544566" y="307.584" style="stroke: #000000; stroke-width: 0.8"/>
      </g>
     </g>
     <g id="text_2">
      <!-- −2 -->
      <g transform="translate(174.173472 322.182437) scale(0.1 -0.1)">
       <defs>
        <path id="DejaVuSans-32" d="M 1228 531 
L 3431 531 
L 3431 0 
L 469 0 
L 469 531 
Q 828 903 1448 1529 
Q 2069 2156 2228 2338 
Q 2531 2678 2651 2914 
Q 2772 3150 2772 3378 
Q 2772 3750 2511 3984 
Q 2250 4219 1831 4219 
Q 1534 4219 1204 4116 
Q 875 4013 500 3803 
L 500 4441 
Q 881 4594 1212 4672 
Q 1544 4750 1819 4750 
Q 2544 4750 2975 4387 
Q 3406 4025 3406 3419 
Q 3406 3131 3298 2873 
Q 3191 2616 2906 2266 
Q 2828 2175 2409 1742 
Q 1991 1309 1228 531 
z
" transform="scale(0.015625)"/>
       </defs>
       <use xlink:href="#DejaVuSans-2212"/>
       <use xlink:href="#DejaVuSans-32" x="83.789062"/>
      </g>
     </g>
    </g>
    <g id="xtick_3">
     <g id="line2d_3">
      <g>
       <use xlink:href="#m8803809b4c" x="236.16" y="307.584" style="stroke: #000000; stroke-width: 0.8"/>
      </g>
     </g>
     <g id="text_3">
      <!-- 0 -->
      <g transform="translate(232.97875 322.182437) scale(0.1 -0.1)">
       <defs>
        <path id="DejaVuSans-30" d="M 2034 4250 
Q 1547 4250 1301 3770 
Q 1056 3291 1056 2328 
Q 1056 1369 1301 889 
Q 1547 409 2034 409 
Q 2525 409 2770 889 
Q 3016 1369 3016 2328 
Q 3016 3291 2770 3770 
Q 2525 4250 2034 4250 
z
M 2034 4750 
Q 2819 4750 3233 4129 
Q 3647 3509 3647 2328 
Q 3647 1150 3233 529 
Q 2819 -91 2034 -91 
Q 1250 -91 836 529 
Q 422 1150 422 2328 
Q 422 3509 836 4129 
Q 1250 4750 2034 4750 
z
" transform="scale(0.015625)"/>
       </defs>
       <use xlink:href="#DejaVuSans-30"/>
      </g>
     </g>
    </g>
    <g id="xtick_4">
     <g id="line2d_4">
      <g>
       <use xlink:href="#m8803809b4c" x="290.775434" y="307.584" style="stroke: #000000; stroke-width: 0.8"/>
      </g>
     </g>
     <g id="text_4">
      <!-- 2 -->
      <g transform="translate(287.594184 322.182437) scale(0.1 -0.1)">
       <use xlink:href="#DejaVuSans-32"/>
      </g>
     </g>
    </g>
    <g id="xtick_5">
     <g id="line2d_5">
      <g>
       <use xlink:href="#m8803809b4c" x="345.390868" y="307.584" style="stroke: #000000; stroke-width: 0.8"/>
      </g>
     </g>
     <g id="text_5">
      <!-- 4 -->
      <g transform="translate(342.209618 322.182437) scale(0.1 -0.1)">
       <use xlink:href="#DejaVuSans-34"/>
      </g>
     </g>
    </g>
    <g id="text_6">
     <!-- 1e6 -->
     <g transform="translate(350.337875 334.860562) scale(0.1 -0.1)">
      <defs>
       <path id="DejaVuSans-31" d="M 794 531 
L 1825 531 
L 1825 4091 
L 703 3866 
L 703 4441 
L 1819 4666 
L 2450 4666 
L 2450 531 
L 3481 531 
L 3481 0 
L 794 0 
L 794 531 
z
" transform="scale(0.015625)"/>
       <path id="DejaVuSans-65" d="M 3597 1894 
L 3597 1613 
L 953 1613 
Q 991 1019 1311 708 
Q 1631 397 2203 397 
Q 2534 397 2845 478 
Q 3156 559 3463 722 
L 3463 178 
Q 3153 47 2828 -22 
Q 2503 -91 2169 -91 
Q 1331 -91 842 396 
Q 353 884 353 1716 
Q 353 2575 817 3079 
Q 1281 3584 2069 3584 
Q 2775 3584 3186 3129 
Q 3597 2675 3597 1894 
z
M 3022 2063 
Q 3016 2534 2758 2815 
Q 2500 3097 2075 3097 
Q 1594 3097 1305 2825 
Q 1016 2553 972 2059 
L 3022 2063 
z
" transform="scale(0.015625)"/>
       <path id="DejaVuSans-36" d="M 2113 2584 
Q 1688 2584 1439 2293 
Q 1191 2003 1191 1497 
Q 1191 994 1439 701 
Q 1688 409 2113 409 
Q 2538 409 2786 701 
Q 3034 994 3034 1497 
Q 3034 2003 2786 2293 
Q 2538 2584 2113 2584 
z
M 3366 4563 
L 3366 3988 
Q 3128 4100 2886 4159 
Q 2644 4219 2406 4219 
Q 1781 4219 1451 3797 
Q 1122 3375 1075 2522 
Q 1259 2794 1537 2939 
Q 1816 3084 2150 3084 
Q 2853 3084 3261 2657 
Q 3669 2231 3669 1497 
Q 3669 778 3244 343 
Q 2819 -91 2113 -91 
Q 1303 -91 875 529 
Q 447 1150 447 2328 
Q 447 3434 972 4092 
Q 1497 4750 2381 4750 
Q 2619 4750 2861 4703 
Q 3103 4656 3366 4563 
z
" transform="scale(0.015625)"/>
      </defs>
      <use xlink:href="#DejaVuSans-31"/>
      <use xlink:href="#DejaVuSans-65" x="63.623047"/>
      <use xlink:href="#DejaVuSans-36" x="125.146484"/>
     </g>
    </g>
   </g>
   <g id="matplotlib.axis_2">
    <g id="ytick_1">
     <g id="line2d_6">
      <defs>
       <path id="mbcf4abdbb1" d="M 0 0 
L -3.5 0 
" style="stroke: #000000; stroke-width: 0.8"/>
      </defs>
      <g>
       <use xlink:href="#mbcf4abdbb1" x="103.104" y="283.758868" style="stroke: #000000; stroke-width: 0.8"/>
      </g>
     </g>
     <g id="text_7">
      <!-- −4 -->
      <g transform="translate(81.361813 287.558087) scale(0.1 -0.1)">
       <use xlink:href="#DejaVuSans-2212"/>
       <use xlink:href="#DejaVuSans-34" x="83.789062"/>
      </g>
     </g>
    </g>
    <g id="ytick_2">
     <g id="line2d_7">
      <g>
       <use xlink:href="#mbcf4abdbb1" x="103.104" y="229.143434" style="stroke: #000000; stroke-width: 0.8"/>
      </g>
     </g>
     <g id="text_8">
      <!-- −2 -->
      <g transform="translate(81.361813 232.942653) scale(0.1 -0.1)">
       <use xlink:href="#DejaVuSans-2212"/>
       <use xlink:href="#DejaVuSans-32" x="83.789062"/>
      </g>
     </g>
    </g>
    <g id="ytick_3">
     <g id="line2d_8">
      <g>
       <use xlink:href="#mbcf4abdbb1" x="103.104" y="174.528" style="stroke: #000000; stroke-width: 0.8"/>
      </g>
     </g>
     <g id="text_9">
      <!-- 0 -->
      <g transform="translate(89.7415 178.327219) scale(0.1 -0.1)">
       <use xlink:href="#DejaVuSans-30"/>
      </g>
     </g>
    </g>
    <g id="ytick_4">
     <g id="line2d_9">
      <g>
       <use xlink:href="#mbcf4abdbb1" x="103.104" y="119.912566" style="stroke: #000000; stroke-width: 0.8"/>
      </g>
     </g>
     <g id="text_10">
      <!-- 2 -->
      <g transform="translate(89.7415 123.711785) scale(0.1 -0.1)">
       <use xlink:href="#DejaVuSans-32"/>
      </g>
     </g>
    </g>
    <g id="ytick_5">
     <g id="line2d_10">
      <g>
       <use xlink:href="#mbcf4abdbb1" x="103.104" y="65.297132" style="stroke: #000000; stroke-width: 0.8"/>
      </g>
     </g>
     <g id="text_11">
      <!-- 4 -->
      <g transform="translate(89.7415 69.09635) scale(0.1 -0.1)">
       <use xlink:href="#DejaVuSans-34"/>
      </g>
     </g>
    </g>
    <g id="text_12">
     <!-- 1e6 -->
     <g transform="translate(103.104 38.472) scale(0.1 -0.1)">
      <use xlink:href="#DejaVuSans-31"/>
      <use xlink:href="#DejaVuSans-65" x="63.623047"/>
      <use xlink:href="#DejaVuSans-36" x="125.146484"/>
     </g>
    </g>
   </g>
   <g id="line2d_11">
    <path d="M 135.26046 346.6 
L 135.052288 346.236323 
L 132.595813 341.944849 
L 130.1719 337.710262 
L 127.778458 333.528905 
L 125.413482 329.397282 
L 123.075053 325.312036 
L 120.761325 321.269942 
L 118.47052 317.267894 
L 116.200923 313.302898 
L 113.950877 309.372056 
L 111.718776 305.472566 
L 109.503063 301.601703 
L 107.302221 297.756822 
L 105.114773 293.93534 
L 102.939276 290.134736 
L 100.774318 286.352543 
L 98.618511 282.586338 
L 96.470492 278.833739 
L 94.328917 275.092397 
L 92.192457 271.359991 
L 90.059796 267.634223 
L 87.929628 263.912809 
L 85.800652 260.193478 
L 83.67157 256.473962 
L 81.541086 252.751995 
L 79.407896 249.025303 
L 77.270694 245.291601 
L 75.128162 241.548587 
L 72.978969 237.793936 
L 70.821767 234.025295 
L 68.65519 230.240274 
L 66.477847 226.436445 
L 64.28832 222.611331 
L 62.085161 218.762402 
L 59.866887 214.887066 
L 57.631975 210.982665 
L 55.378861 207.046463 
L 53.10593 203.075641 
L 50.811515 199.067288 
L 48.493893 195.018391 
L 46.151275 190.925827 
L 43.781804 186.786348 
L 41.383544 182.596578 
L 38.954481 178.352993 
L 36.492507 174.051913 
L 33.995417 169.689485 
L 31.4609 165.261671 
L 28.886527 160.764229 
L 26.269745 156.192698 
L 23.607861 151.542374 
L 20.898035 146.808294 
L 18.137261 141.98521 
L 15.32236 137.067564 
L 12.449956 132.04946 
L 9.516463 126.924634 
L 6.518066 121.68642 
L 3.450697 116.327712 
L 0.310013 110.840922 
L -1 108.552323 
" clip-path="url(#pe101a46d4e)" style="fill: none; stroke: #000000; stroke-width: 1.5; stroke-linecap: square"/>
   </g>
   <g id="line2d_12">
    <path d="M 165.179924 346.6 
L 164.385057 344.626025 
L 162.473209 339.878142 
L 160.599613 335.225251 
L 158.762023 330.661778 
L 156.958323 326.182467 
L 155.186514 321.782355 
L 153.444706 317.456748 
L 151.731108 313.201199 
L 150.044022 309.011488 
L 148.381832 304.883603 
L 146.742999 300.813725 
L 145.126058 296.79821 
L 143.529605 292.833578 
L 141.952299 288.916496 
L 140.392854 285.043768 
L 138.850033 281.212326 
L 137.322647 277.419213 
L 135.809547 273.66158 
L 134.309625 269.936672 
L 132.821807 266.241824 
L 131.345051 262.574447 
L 129.878344 258.932025 
L 128.420699 255.312108 
L 126.971151 251.712301 
L 125.528758 248.13026 
L 124.092594 244.563688 
L 122.661748 241.010324 
L 121.235324 237.467941 
L 119.812436 233.93434 
L 118.392206 230.407341 
L 116.973765 226.884782 
L 115.556245 223.364513 
L 114.138783 219.844386 
L 112.720514 216.322256 
L 111.300573 212.795974 
L 109.87809 209.263378 
L 108.452188 205.722292 
L 107.021983 202.170519 
L 105.58658 198.605837 
L 104.14507 195.025989 
L 102.69653 191.428684 
L 101.240019 187.811584 
L 99.774576 184.172301 
L 98.299217 180.508394 
L 96.812933 176.817354 
L 95.314685 173.096605 
L 93.803404 169.34349 
L 92.277987 165.555267 
L 90.737291 161.729101 
L 89.180132 157.86205 
L 87.60528 153.951061 
L 86.011455 149.992955 
L 84.397323 145.984419 
L 82.761491 141.921992 
L 81.1025 137.802054 
L 79.418823 133.620809 
L 77.708855 129.374273 
L 75.970908 125.058254 
L 74.203204 120.668336 
L 72.403867 116.19986 
L 70.570913 111.647899 
L 68.702241 107.00724 
L 66.795626 102.27235 
L 64.848701 97.437355 
L 62.858949 92.496003 
L 60.823688 87.441634 
L 58.740054 82.267136 
L 56.604986 76.964907 
L 54.415205 71.526803 
L 52.167194 65.944089 
L 49.857171 60.207377 
L 47.481069 54.306562 
L 45.034497 48.230744 
L 42.512716 41.968149 
L 39.910592 35.506032 
L 37.22256 28.830572 
L 34.442572 21.926749 
L 31.564044 14.77821 
L 28.579792 7.367115 
L 25.481958 -0.326048 
L 25.210575 -1 
" clip-path="url(#pe101a46d4e)" style="fill: none; stroke: #000000; stroke-width: 1.5; stroke-linecap: square"/>
   </g>
   <g id="line2d_13">
    <path d="M 186.900699 346.6 
L 186.681749 345.816499 
L 185.225778 340.606379 
L 183.806908 335.529021 
L 182.422905 330.576434 
L 181.071686 325.741165 
L 179.751306 321.016251 
L 178.459943 316.395172 
L 177.19589 311.871818 
L 175.957541 307.440449 
L 174.74339 303.095668 
L 173.552014 298.83239 
L 172.382074 294.645815 
L 171.232301 290.531409 
L 170.101495 286.484878 
L 168.988519 282.502148 
L 167.892292 278.579352 
L 166.811785 274.71281 
L 165.746017 270.899013 
L 164.694053 267.134612 
L 163.654997 263.416403 
L 162.627992 259.741315 
L 161.612213 256.106401 
L 160.606869 252.508827 
L 159.611196 248.94586 
L 158.624457 245.414864 
L 157.645939 241.913285 
L 156.674951 238.438651 
L 155.71082 234.988557 
L 154.752894 231.560664 
L 153.800533 228.152689 
L 152.853115 224.762399 
L 151.910027 221.387607 
L 150.97067 218.026163 
L 150.034452 214.675952 
L 149.100789 211.334885 
L 148.169104 208.000897 
L 147.238825 204.67194 
L 146.309383 201.345978 
L 145.380211 198.020982 
L 144.450743 194.694925 
L 143.520412 191.36578 
L 142.588648 188.031509 
L 141.654879 184.690064 
L 140.718528 181.339378 
L 139.779011 177.977362 
L 138.835736 174.601899 
L 137.888102 171.210837 
L 136.935497 167.801988 
L 135.977297 164.373116 
L 135.012863 160.921936 
L 134.04154 157.446105 
L 133.062656 153.943217 
L 132.075519 150.410795 
L 131.079413 146.846282 
L 130.073602 143.247036 
L 129.057321 139.610323 
L 128.029775 135.9333 
L 126.99014 132.213017 
L 125.937555 128.446396 
L 124.871125 124.630227 
L 123.78991 120.761154 
L 122.692929 116.835661 
L 121.57915 112.850059 
L 120.447491 108.80047 
L 119.296809 104.682813 
L 118.125903 100.492782 
L 116.933501 96.225831 
L 115.718259 91.877148 
L 114.478752 87.441634 
L 113.213468 82.913876 
L 111.920797 78.288118 
L 110.599028 73.558232 
L 109.246333 68.717678 
L 107.860759 63.759472 
L 106.440218 58.676135 
L 104.982469 53.459653 
L 103.485107 48.101416 
L 101.945544 42.592166 
L 100.360992 36.921923 
L 98.728439 31.079915 
L 97.04463 25.054489 
L 95.306037 18.833019 
L 93.508829 12.401797 
L 91.648837 5.745909 
L 89.763689 -1 
" clip-path="url(#pe101a46d4e)" style="fill: none; stroke: #000000; stroke-width: 1.5; stroke-linecap: square"/>
   </g>
   <g id="line2d_14">
    <path d="M 204.310063 346.6 
L 203.444215 341.808005 
L 202.461845 336.371122 
L 201.507504 331.089366 
L 200.579452 325.953107 
L 199.676075 320.953409 
L 198.795872 316.08197 
L 197.937447 311.331058 
L 197.099498 306.693466 
L 196.280807 302.162459 
L 195.480236 297.731735 
L 194.696717 293.39539 
L 193.92925 289.147878 
L 193.176892 284.983988 
L 192.438756 280.89881 
L 191.714006 276.887712 
L 191.00185 272.946318 
L 190.30154 269.070485 
L 189.612366 265.256288 
L 188.933656 261.499996 
L 188.264767 257.798064 
L 187.60509 254.147112 
L 186.954042 250.543914 
L 186.311064 246.985386 
L 185.675624 243.468572 
L 185.047209 239.990637 
L 184.425326 236.548855 
L 183.809501 233.1406 
L 183.199275 229.763337 
L 182.594207 226.414614 
L 181.993866 223.092055 
L 181.397836 219.793354 
L 180.80571 216.516264 
L 180.217095 213.258598 
L 179.631601 210.018213 
L 179.048852 206.793014 
L 178.468475 203.580942 
L 177.890103 200.379971 
L 177.313376 197.188102 
L 176.737936 194.00336 
L 176.163431 190.823785 
L 175.589507 187.647432 
L 175.015816 184.472363 
L 174.442006 181.296643 
L 173.867729 178.118335 
L 173.292634 174.935496 
L 172.716367 171.746173 
L 172.138572 168.548395 
L 171.55889 165.340173 
L 170.976957 162.119489 
L 170.392402 158.884296 
L 169.804848 155.63251 
L 169.213913 152.362007 
L 168.619203 149.070614 
L 168.020317 145.756103 
L 167.41684 142.416189 
L 166.808348 139.048519 
L 166.194403 135.650667 
L 165.574551 132.220127 
L 164.948324 128.754303 
L 164.315235 125.250502 
L 163.674778 121.705926 
L 163.026428 118.11766 
L 162.369633 114.482662 
L 161.703821 110.797756 
L 161.02839 107.059613 
L 160.342708 103.264741 
L 159.646114 99.409474 
L 158.93791 95.489952 
L 158.217361 91.502104 
L 157.483689 87.441634 
L 156.736074 83.303995 
L 155.973646 79.084372 
L 155.195481 74.777652 
L 154.400597 70.378405 
L 153.58795 65.880846 
L 152.756424 61.278808 
L 151.90483 56.565701 
L 151.031894 51.734477 
L 150.136251 46.777582 
L 149.216435 41.686905 
L 148.270871 36.453725 
L 147.297861 31.068646 
L 146.295573 25.521529 
L 145.262025 19.80141 
L 144.195073 13.896413 
L 143.092388 7.79365 
L 141.951435 1.479105 
L 141.503495 -1 
" clip-path="url(#pe101a46d4e)" style="fill: none; stroke: #000000; stroke-width: 1.5; stroke-linecap: square"/>
   </g>
   <g id="line2d_15">
    <path d="M 219.403877 346.6 
L 218.945418 341.777079 
L 218.408047 336.124008 
L 217.887262 330.64543 
L 217.382005 325.3302 
L 216.891297 320.168021 
L 216.414232 315.149363 
L 215.949969 310.265388 
L 215.497729 305.507886 
L 215.056785 300.869218 
L 214.62646 296.342263 
L 214.206122 291.920371 
L 213.79518 287.597324 
L 213.393081 283.367296 
L 212.999304 279.224819 
L 212.613361 275.164756 
L 212.234792 271.18227 
L 211.863164 267.272798 
L 211.498068 263.432032 
L 211.139115 259.655898 
L 210.785938 255.940533 
L 210.43819 252.28227 
L 210.095538 248.677625 
L 209.757668 245.123277 
L 209.424277 241.61606 
L 209.09508 238.152947 
L 208.769799 234.731038 
L 208.44817 231.347556 
L 208.129941 227.999826 
L 207.814865 224.685279 
L 207.502708 221.401431 
L 207.193241 218.145885 
L 206.886244 214.916317 
L 206.581502 211.710472 
L 206.278806 208.526157 
L 205.977954 205.361235 
L 205.678746 202.213618 
L 205.38099 199.08126 
L 205.084493 195.962155 
L 204.789068 192.854331 
L 204.494531 189.755842 
L 204.200698 186.664767 
L 203.90739 183.5792 
L 203.614425 180.497252 
L 203.321625 177.417041 
L 203.028812 174.33669 
L 202.735807 171.254321 
L 202.442431 168.16805 
L 202.148505 165.075987 
L 201.853846 161.976224 
L 201.558273 158.866836 
L 201.2616 155.745875 
L 200.963638 152.611362 
L 200.664197 149.461286 
L 200.363082 146.293596 
L 200.060093 143.106197 
L 199.755026 139.896944 
L 199.447673 136.663633 
L 199.137818 133.404002 
L 198.825239 130.115715 
L 198.509707 126.796362 
L 198.190984 123.443449 
L 197.868826 120.054388 
L 197.542976 116.626494 
L 197.213169 113.156968 
L 196.879127 109.642895 
L 196.54056 106.081226 
L 196.197166 102.468772 
L 195.848627 98.802191 
L 195.494609 95.07797 
L 195.13476 91.292416 
L 194.768711 87.441634 
L 194.396072 83.521516 
L 194.016428 79.527718 
L 193.629342 75.455638 
L 193.234352 71.300395 
L 192.830963 67.056804 
L 192.418652 62.719346 
L 191.996858 58.282139 
L 191.564985 53.738901 
L 191.122395 49.082916 
L 190.668403 44.306989 
L 190.202276 39.403397 
L 189.723224 34.363841 
L 189.230398 29.179384 
L 188.722882 23.840386 
L 188.199685 18.336429 
L 187.659735 12.656232 
L 187.101869 6.78756 
L 186.524822 0.717114 
L 186.361596 -1 
" clip-path="url(#pe101a46d4e)" style="fill: none; stroke: #000000; stroke-width: 1.5; stroke-linecap: square"/>
   </g>
   <g id="line2d_16">
    <path d="M 233.407148 346.6 
L 233.387818 345.362207 
L 233.296273 339.500381 
L 233.207704 333.829065 
L 233.121915 328.335828 
L 233.038729 323.009218 
L 232.95798 317.838662 
L 232.879516 312.814386 
L 232.803195 307.927334 
L 232.728885 303.169099 
L 232.656465 298.531867 
L 232.585821 294.008359 
L 232.516847 289.591784 
L 232.449444 285.275797 
L 232.383519 281.054456 
L 232.318985 276.922193 
L 232.255761 272.873777 
L 232.193769 268.904288 
L 232.132937 265.009091 
L 232.073198 261.183809 
L 232.014485 257.424308 
L 231.956739 253.726672 
L 231.899901 250.087188 
L 231.843916 246.502327 
L 231.788732 242.968733 
L 231.734298 239.483205 
L 231.680567 236.042688 
L 231.627493 232.644258 
L 231.575034 229.285114 
L 231.523145 225.962566 
L 231.471788 222.674027 
L 231.420923 219.417004 
L 231.370512 216.189088 
L 231.32052 212.98795 
L 231.27091 209.811331 
L 231.221649 206.657036 
L 231.172704 203.522928 
L 231.124041 200.406922 
L 231.075629 197.306978 
L 231.027436 194.221098 
L 230.979433 191.147317 
L 230.931588 188.083702 
L 230.883872 185.028346 
L 230.836256 181.979358 
L 230.78871 178.934867 
L 230.741205 175.893012 
L 230.693713 172.851936 
L 230.646203 169.809788 
L 230.598648 166.76471 
L 230.551018 163.71484 
L 230.503284 160.658304 
L 230.455416 157.593209 
L 230.407385 154.517645 
L 230.35916 151.429672 
L 230.31071 148.327322 
L 230.262005 145.20859 
L 230.213011 142.07143 
L 230.163698 138.913748 
L 230.11403 135.733399 
L 230.063974 132.528179 
L 230.013494 129.295817 
L 229.962553 126.033973 
L 229.911115 122.740224 
L 229.859138 119.412064 
L 229.806584 116.046889 
L 229.75341 112.641993 
L 229.699571 109.194556 
L 229.645022 105.701634 
L 229.589714 102.16015 
L 229.533598 98.566879 
L 229.47662 94.918438 
L 229.418725 91.211271 
L 229.359854 87.441634 
L 229.299946 83.605577 
L 229.238936 79.698929 
L 229.176754 75.717274 
L 229.113328 71.655934 
L 229.048579 67.509942 
L 228.982427 63.274014 
L 228.914781 58.942525 
L 228.84555 54.509474 
L 228.774633 49.968446 
L 228.701922 45.312577 
L 228.627302 40.534506 
L 228.550651 35.626329 
L 228.471835 30.579542 
L 228.390711 25.384978 
L 228.307125 20.032743 
L 228.220909 14.512132 
L 228.131882 8.811544 
L 228.039849 2.918382 
L 227.978655 -1 
" clip-path="url(#pe101a46d4e)" style="fill: none; stroke: #000000; stroke-width: 1.5; stroke-linecap: square"/>
   </g>
   <g id="line2d_17">
    <path d="M 247.239025 346.6 
L 247.256272 346.325592 
L 247.624114 340.473081 
L 247.980086 334.809403 
L 248.324963 329.322275 
L 248.659454 324.000376 
L 248.984217 318.833252 
L 249.299861 313.811233 
L 249.606947 308.925357 
L 249.906 304.167301 
L 250.197506 299.529325 
L 250.481917 295.004218 
L 250.759657 290.585251 
L 251.031122 286.26613 
L 251.296682 282.040966 
L 251.556683 277.904231 
L 251.811453 273.850736 
L 252.061298 269.875595 
L 252.306508 265.974204 
L 252.547356 262.142217 
L 252.784099 258.375524 
L 253.016984 254.670232 
L 253.246241 251.022647 
L 253.472092 247.429261 
L 253.694747 243.886731 
L 253.914406 240.391872 
L 254.131259 236.94164 
L 254.345491 233.533123 
L 254.557276 230.163528 
L 254.766784 226.830173 
L 254.974176 223.530478 
L 255.179609 220.261954 
L 255.383234 217.022197 
L 255.585197 213.80888 
L 255.78564 210.619746 
L 255.984701 207.452601 
L 256.182514 204.305307 
L 256.379211 201.175779 
L 256.574919 198.061974 
L 256.769765 194.961891 
L 256.963873 191.873562 
L 257.157363 188.795048 
L 257.350357 185.724436 
L 257.542973 182.659829 
L 257.73533 179.599349 
L 257.927545 176.541124 
L 258.119736 173.483292 
L 258.312019 170.423987 
L 258.504512 167.361343 
L 258.697332 164.293484 
L 258.890599 161.218522 
L 259.084433 158.134552 
L 259.278953 155.039646 
L 259.474284 151.931849 
L 259.67055 148.809175 
L 259.867878 145.669598 
L 260.066399 142.511052 
L 260.266245 139.331423 
L 260.467552 136.128539 
L 260.670461 132.900172 
L 260.875116 129.644025 
L 261.081666 126.357726 
L 261.290265 123.038825 
L 261.501073 119.68478 
L 261.714256 116.292952 
L 261.929986 112.860597 
L 262.148443 109.384854 
L 262.369815 105.862736 
L 262.594297 102.291119 
L 262.822097 98.666727 
L 263.05343 94.986124 
L 263.288523 91.245695 
L 263.527615 87.441634 
L 263.77096 83.569924 
L 264.018823 79.62632 
L 264.271487 75.606329 
L 264.529251 71.505188 
L 264.792434 67.317837 
L 265.061373 63.038894 
L 265.33643 58.662627 
L 265.617988 54.182916 
L 265.906459 49.59322 
L 266.202283 44.886536 
L 266.505932 40.055351 
L 266.817914 35.091596 
L 267.138773 29.986584 
L 267.4691 24.730952 
L 267.809529 19.314584 
L 268.160748 13.726535 
L 268.523504 7.954938 
L 268.898606 1.986904 
L 269.086338 -1 
" clip-path="url(#pe101a46d4e)" style="fill: none; stroke: #000000; stroke-width: 1.5; stroke-linecap: square"/>
   </g>
   <g id="line2d_18">
    <path d="M 261.773862 346.6 
L 262.044009 344.740873 
L 262.861719 339.113475 
L 263.654757 333.655869 
L 264.424685 328.357304 
L 265.172948 323.207836 
L 265.900885 318.19825 
L 266.609738 313.31999 
L 267.300665 308.565101 
L 267.974743 303.92617 
L 268.632975 299.39628 
L 269.276303 294.968965 
L 269.905605 290.638172 
L 270.521707 286.398224 
L 271.125383 282.243787 
L 271.717362 278.169842 
L 272.298333 274.171662 
L 272.868943 270.244781 
L 273.429806 266.38498 
L 273.981503 262.58826 
L 274.524584 258.850829 
L 275.059574 255.169084 
L 275.586971 251.539594 
L 276.107249 247.95909 
L 276.620864 244.424448 
L 277.128248 240.932678 
L 277.62982 237.480915 
L 278.125978 234.066408 
L 278.617107 230.686508 
L 279.103578 227.338662 
L 279.58575 224.020406 
L 280.063968 220.729353 
L 280.538571 217.463187 
L 281.009884 214.21966 
L 281.478226 210.996579 
L 281.943907 207.791807 
L 282.407232 204.603251 
L 282.868499 201.428858 
L 283.328001 198.266614 
L 283.786026 195.114531 
L 284.24286 191.970649 
L 284.698784 188.833027 
L 285.154078 185.699739 
L 285.60902 182.568871 
L 286.063889 179.438514 
L 286.51896 176.306759 
L 286.974512 173.171696 
L 287.430824 170.031405 
L 287.888176 166.883955 
L 288.346852 163.727395 
L 288.807138 160.559754 
L 289.269324 157.379032 
L 289.733707 154.183198 
L 290.200587 150.970181 
L 290.67027 147.737868 
L 291.143072 144.484096 
L 291.619313 141.206649 
L 292.099327 137.903246 
L 292.583453 134.571541 
L 293.072043 131.209112 
L 293.565462 127.813453 
L 294.064087 124.381968 
L 294.568309 120.911963 
L 295.078536 117.400633 
L 295.595192 113.845059 
L 296.118721 110.242188 
L 296.649585 106.588832 
L 297.188272 102.881646 
L 297.73529 99.117122 
L 298.291176 95.291572 
L 298.856494 91.401109 
L 299.431841 87.441634 
L 300.017844 83.408817 
L 300.615171 79.298072 
L 301.224528 75.10454 
L 301.846665 70.82306 
L 302.482379 66.448141 
L 303.13252 61.973936 
L 303.797995 57.394205 
L 304.479773 52.702277 
L 305.178892 47.891011 
L 305.896465 42.952748 
L 306.633687 37.879261 
L 307.391845 32.661696 
L 308.172326 27.290507 
L 308.976627 21.755388 
L 309.80637 16.045183 
L 310.663311 10.147802 
L 311.549359 4.050112 
L 312.283184 -1 
" clip-path="url(#pe101a46d4e)" style="fill: none; stroke: #000000; stroke-width: 1.5; stroke-linecap: square"/>
   </g>
   <g id="line2d_19">
    <path d="M 278.075378 346.6 
L 279.272851 341.564116 
L 280.520027 336.319212 
L 281.734261 331.212838 
L 282.917555 326.236587 
L 284.071769 321.382627 
L 285.19864 316.643653 
L 286.299793 312.012839 
L 287.376745 307.483797 
L 288.430922 303.050535 
L 289.46366 298.707431 
L 290.476219 294.449193 
L 291.469782 290.270837 
L 292.445468 286.16766 
L 293.404336 282.135217 
L 294.347384 278.169298 
L 295.275562 274.265913 
L 296.189772 270.421271 
L 297.090872 266.631764 
L 297.979679 262.893954 
L 298.856973 259.204557 
L 299.723502 255.560434 
L 300.579981 251.958576 
L 301.427097 248.396094 
L 302.265511 244.870209 
L 303.095858 241.378245 
L 303.918755 237.917615 
L 304.734795 234.485819 
L 305.544555 231.080432 
L 306.348596 227.699099 
L 307.147462 224.339526 
L 307.941687 220.999476 
L 308.731789 217.676761 
L 309.518279 214.369236 
L 310.301658 211.074795 
L 311.082418 207.791365 
L 311.861047 204.516899 
L 312.638026 201.249373 
L 313.413832 197.986779 
L 314.18894 194.727121 
L 314.963822 191.468413 
L 315.738951 188.208667 
L 316.514799 184.945896 
L 317.291841 181.678103 
L 318.070555 178.403281 
L 318.851421 175.119404 
L 319.634928 171.824425 
L 320.421569 168.516268 
L 321.211843 165.192826 
L 322.006263 161.851953 
L 322.805349 158.491458 
L 323.609633 155.109103 
L 324.419661 151.70259 
L 325.235994 148.269561 
L 326.05921 144.807589 
L 326.889904 141.314169 
L 327.728691 137.786711 
L 328.57621 134.222534 
L 329.433122 130.618855 
L 330.300115 126.972779 
L 331.177907 123.281293 
L 332.067245 119.54125 
L 332.968911 115.749361 
L 333.883725 111.902179 
L 334.812546 107.99609 
L 335.756279 104.027293 
L 336.715874 99.991789 
L 337.692334 95.885359 
L 338.686719 91.703546 
L 339.700151 87.441634 
L 340.733818 83.094627 
L 341.78898 78.65722 
L 342.86698 74.123773 
L 343.969245 69.488278 
L 345.0973 64.744329 
L 346.252772 59.885079 
L 347.437403 54.9032 
L 348.653062 49.790838 
L 349.901755 44.539555 
L 351.185638 39.140278 
L 352.507039 33.583227 
L 353.868467 27.857845 
L 355.272637 21.952712 
L 356.722492 15.855456 
L 358.221226 9.552643 
L 359.772314 3.029656 
L 360.730518 -1 
" clip-path="url(#pe101a46d4e)" style="fill: none; stroke: #000000; stroke-width: 1.5; stroke-linecap: square"/>
   </g>
   <g id="line2d_20">
    <path d="M 297.749809 346.6 
L 298.894805 343.322983 
L 300.606783 338.423249 
L 302.280955 333.631717 
L 303.919546 328.942016 
L 305.524648 324.348165 
L 307.098224 319.84454 
L 308.642126 315.425842 
L 310.158101 311.087074 
L 311.647799 306.823512 
L 313.112781 302.630686 
L 314.55453 298.504356 
L 315.974451 294.440498 
L 317.373882 290.43528 
L 318.7541 286.485055 
L 320.11632 282.586338 
L 321.461706 278.735799 
L 322.791375 274.930245 
L 324.106396 271.166613 
L 325.407798 267.441958 
L 326.696574 263.753443 
L 327.973679 260.098327 
L 329.24004 256.473962 
L 330.496554 252.87778 
L 331.744092 249.307285 
L 332.983503 245.760052 
L 334.215614 242.233712 
L 335.441233 238.72595 
L 336.661154 235.2345 
L 337.876153 231.757133 
L 339.086998 228.291658 
L 340.294442 224.835913 
L 341.499235 221.387759 
L 342.702116 217.945076 
L 343.903821 214.505758 
L 345.105083 211.067707 
L 346.306635 207.628826 
L 347.50921 204.18702 
L 348.713542 200.740184 
L 349.920371 197.2862 
L 351.130443 193.822936 
L 352.344512 190.348233 
L 353.56334 186.859907 
L 354.787704 183.355739 
L 356.018393 179.833469 
L 357.256211 176.290794 
L 358.501983 172.725357 
L 359.75655 169.134744 
L 361.020781 165.516476 
L 362.295567 161.868 
L 363.581826 158.186685 
L 364.88051 154.46981 
L 366.192602 150.71456 
L 367.519124 146.918012 
L 368.861137 143.077129 
L 370.219746 139.188747 
L 371.596105 135.249564 
L 372.99142 131.25613 
L 374.406952 127.204831 
L 375.844027 123.091877 
L 377.304037 118.913284 
L 378.788445 114.664859 
L 380.298798 110.342183 
L 381.836725 105.940585 
L 383.403954 101.455128 
L 385.002311 96.880578 
L 386.633739 92.211382 
L 388.300299 87.441634 
L 390.004188 82.565049 
L 391.747749 77.574923 
L 393.533484 72.464093 
L 395.364071 67.224895 
L 397.24238 61.849115 
L 399.171492 56.327935 
L 401.154722 50.651868 
L 403.19564 44.810696 
L 405.2981 38.793389 
L 407.466269 32.588021 
L 409.704662 26.181669 
L 412.018179 19.560311 
L 414.41215 12.70869 
L 416.892383 5.610184 
L 419.201996 -1 
" clip-path="url(#pe101a46d4e)" style="fill: none; stroke: #000000; stroke-width: 1.5; stroke-linecap: square"/>
   </g>
   <g id="line2d_21">
    <path d="M 323.711095 346.6 
L 323.841645 346.337157 
L 326.072077 341.846491 
L 328.266116 337.429098 
L 330.42595 333.080571 
L 332.55366 328.796724 
L 334.651224 324.573569 
L 336.720531 320.407306 
L 338.763385 316.294304 
L 340.78151 312.231089 
L 342.776561 308.214331 
L 344.750127 304.240829 
L 346.703737 300.307507 
L 348.638865 296.411396 
L 350.556934 292.549629 
L 352.459324 288.719431 
L 354.347371 284.91811 
L 356.222375 281.14305 
L 358.085601 277.391703 
L 359.938285 273.66158 
L 361.781637 269.950247 
L 363.616841 266.255318 
L 365.445063 262.574447 
L 367.267451 258.905322 
L 369.085138 255.245662 
L 370.899245 251.593209 
L 372.710887 247.94572 
L 374.521169 244.300967 
L 376.331196 240.656729 
L 378.142071 237.010783 
L 379.954899 233.360906 
L 381.770791 229.704861 
L 383.590862 226.0404 
L 385.416242 222.365251 
L 387.24807 218.677119 
L 389.087504 214.973673 
L 390.93572 211.252548 
L 392.793914 207.511331 
L 394.663311 203.747561 
L 396.545161 199.958717 
L 398.440747 196.142216 
L 400.35139 192.295402 
L 402.278448 188.415539 
L 404.223322 184.499805 
L 406.187464 180.545278 
L 408.172376 176.548933 
L 410.179618 172.507629 
L 412.210815 168.418096 
L 414.267658 164.276929 
L 416.351912 160.080571 
L 418.465428 155.825302 
L 420.610139 151.507223 
L 422.78808 147.122242 
L 425.001386 142.666056 
L 427.252309 138.134134 
L 429.543225 133.521695 
L 431.876641 128.823685 
L 434.255214 124.034757 
L 436.681762 119.149241 
L 439.159274 114.161114 
L 441.690932 109.063972 
L 444.280125 103.850991 
L 446.93047 98.514889 
L 449.645834 93.047882 
L 452.430355 87.441634 
L 455.288474 81.687208 
L 458.224961 75.775 
L 461.244948 69.694675 
L 461.8 68.577154 
" clip-path="url(#pe101a46d4e)" style="fill: none; stroke: #000000; stroke-width: 1.5; stroke-linecap: square"/>
   </g>
   <g id="line2d_22">
    <path clip-path="url(#pe101a46d4e)" style="fill: none; stroke: #000000; stroke-width: 1.5; stroke-linecap: square"/>
   </g>
   <g id="line2d_23">
    <path d="M 206.105561 346.6 
L 207.370843 346.004761 
L 208.82451 345.355253 
L 210.275991 344.740873 
L 211.725402 344.161327 
L 213.172857 343.616341 
L 214.618471 343.105657 
L 216.062359 342.629032 
L 217.504637 342.186242 
L 218.945418 341.777079 
L 220.384819 341.40135 
L 221.822954 341.058878 
L 223.259938 340.749503 
L 224.695886 340.473081 
L 226.130914 340.229481 
L 227.565137 340.018591 
L 228.998669 339.840311 
L 230.431625 339.694559 
L 231.864122 339.581267 
L 233.296273 339.500381 
L 234.728194 339.451865 
L 236.16 339.435695 
L 237.591806 339.451865 
L 239.023727 339.500381 
L 240.455878 339.581267 
L 241.888375 339.694559 
L 243.321331 339.840311 
L 244.754863 340.018591 
L 246.189086 340.229481 
L 247.624114 340.473081 
L 249.060062 340.749503 
L 250.497046 341.058878 
L 251.935181 341.40135 
L 253.374582 341.777079 
L 254.815363 342.186242 
L 256.257641 342.629032 
L 257.701529 343.105657 
L 259.147143 343.616341 
L 260.594598 344.161327 
L 262.044009 344.740873 
L 263.49549 345.355253 
L 264.949157 346.004761 
L 266.214439 346.6 
" clip-path="url(#pe101a46d4e)" style="fill: none; stroke: #000000; stroke-width: 1.5; stroke-linecap: square"/>
   </g>
   <g id="line2d_24">
    <path d="M 132.595813 341.944849 
L 134.956658 339.620147 
L 137.292752 337.369279 
L 139.604943 335.190103 
L 141.89405 333.080571 
L 144.160863 331.038731 
L 146.406149 329.062714 
L 148.630649 327.150735 
L 150.835083 325.30109 
L 153.020146 323.512149 
L 155.186514 321.782355 
L 157.334843 320.110219 
L 159.465769 318.494318 
L 161.579913 316.933292 
L 163.677874 315.425842 
L 165.760238 313.970727 
L 167.827575 312.566759 
L 169.88044 311.212805 
L 171.919373 309.907784 
L 173.944902 308.65066 
L 175.957541 307.440449 
L 177.957793 306.276208 
L 179.946148 305.157039 
L 181.923087 304.082087 
L 183.889078 303.050535 
L 185.844582 302.061609 
L 187.790048 301.114568 
L 189.725918 300.208711 
L 191.652624 299.343369 
L 193.570591 298.517911 
L 195.480236 297.731735 
L 197.381969 296.984275 
L 199.276193 296.274992 
L 201.163306 295.603381 
L 203.043697 294.968965 
L 204.917753 294.371295 
L 206.785852 293.809951 
L 208.64837 293.28454 
L 210.505678 292.794695 
L 212.358141 292.340077 
L 214.206122 291.920371 
L 216.049979 291.535288 
L 217.890067 291.184563 
L 219.726738 290.867956 
L 221.560343 290.585251 
L 223.391226 290.336254 
L 225.219735 290.120798 
L 227.04621 289.938734 
L 228.870995 289.789941 
L 230.694427 289.674317 
L 232.516847 289.591784 
L 234.338592 289.542287 
L 236.16 289.525791 
L 237.981408 289.542287 
L 239.803153 289.591784 
L 241.625573 289.674317 
L 243.449005 289.789941 
L 245.27379 289.938734 
L 247.100265 290.120798 
L 248.928774 290.336254 
L 250.759657 290.585251 
L 252.593262 290.867956 
L 254.429933 291.184563 
L 256.270021 291.535288 
L 258.113878 291.920371 
L 259.961859 292.340077 
L 261.814322 292.794695 
L 263.67163 293.28454 
L 265.534148 293.809951 
L 267.402247 294.371295 
L 269.276303 294.968965 
L 271.156694 295.603381 
L 273.043807 296.274992 
L 274.938031 296.984275 
L 276.839764 297.731735 
L 278.749409 298.517911 
L 280.667376 299.343369 
L 282.594082 300.208711 
L 284.529952 301.114568 
L 286.475418 302.061609 
L 288.430922 303.050535 
L 290.396913 304.082087 
L 292.373852 305.157039 
L 294.362207 306.276208 
L 296.362459 307.440449 
L 298.375098 308.65066 
L 300.400627 309.907784 
L 302.43956 311.212805 
L 304.492425 312.566759 
L 306.559762 313.970727 
L 308.642126 315.425842 
L 310.740087 316.933292 
L 312.854231 318.494318 
L 314.985157 320.110219 
L 317.133486 321.782355 
L 319.299854 323.512149 
L 321.484917 325.30109 
L 323.689351 327.150735 
L 325.913851 329.062714 
L 328.159137 331.038731 
L 330.42595 333.080571 
" clip-path="url(#pe101a46d4e)" style="fill: none; stroke: #000000; stroke-width: 1.5; stroke-linecap: square"/>
   </g>
   <g id="line2d_25">
    <path d="M 109.503063 301.601703 
L 112.641905 299.214176 
L 115.730109 296.911709 
L 118.769815 294.691178 
L 121.763066 292.549629 
L 124.711806 290.484265 
L 127.617893 288.492441 
L 130.483099 286.571649 
L 133.309122 284.719514 
L 136.097582 282.933784 
L 138.850033 281.212326 
L 141.567964 279.553114 
L 144.252801 277.95423 
L 146.905916 276.413849 
L 149.528625 274.930245 
L 152.122193 273.501775 
L 154.68784 272.126882 
L 157.226738 270.804087 
L 159.740018 269.531987 
L 162.228772 268.309251 
L 164.694053 267.134612 
L 167.136879 266.006872 
L 169.558235 264.924893 
L 171.959075 263.887595 
L 174.340321 262.893954 
L 176.702871 261.943 
L 179.047593 261.033815 
L 181.375334 260.165529 
L 183.686913 259.33732 
L 185.983131 258.54841 
L 188.264767 257.798064 
L 190.532582 257.085592 
L 192.787316 256.41034 
L 195.029694 255.771696 
L 197.260426 255.169084 
L 199.480205 254.601964 
L 201.689712 254.069832 
L 203.889614 253.572218 
L 206.080566 253.108684 
L 208.263214 252.678826 
L 210.43819 252.28227 
L 212.60612 251.918673 
L 214.76762 251.587721 
L 216.923299 251.289131 
L 219.073759 251.022647 
L 221.219594 250.788043 
L 223.361395 250.585119 
L 225.499747 250.413703 
L 227.63523 250.27365 
L 229.768423 250.164842 
L 231.899901 250.087188 
L 234.030236 250.040621 
L 236.16 250.025103 
L 238.289764 250.040621 
L 240.420099 250.087188 
L 242.551577 250.164842 
L 244.68477 250.27365 
L 246.820253 250.413703 
L 248.958605 250.585119 
L 251.100406 250.788043 
L 253.246241 251.022647 
L 255.396701 251.289131 
L 257.55238 251.587721 
L 259.71388 251.918673 
L 261.88181 252.28227 
L 264.056786 252.678826 
L 266.239434 253.108684 
L 268.430386 253.572218 
L 270.630288 254.069832 
L 272.839795 254.601964 
L 275.059574 255.169084 
L 277.290306 255.771696 
L 279.532684 256.41034 
L 281.787418 257.085592 
L 284.055233 257.798064 
L 286.336869 258.54841 
L 288.633087 259.33732 
L 290.944666 260.165529 
L 293.272407 261.033815 
L 295.617129 261.943 
L 297.979679 262.893954 
L 300.360925 263.887595 
L 302.761765 264.924893 
L 305.183121 266.006872 
L 307.625947 267.134612 
L 310.091228 268.309251 
L 312.579982 269.531987 
L 315.093262 270.804087 
L 317.63216 272.126882 
L 320.197807 273.501775 
L 322.791375 274.930245 
L 325.414084 276.413849 
L 328.067199 277.95423 
L 330.752036 279.553114 
L 333.469967 281.212326 
L 336.222418 282.933784 
L 339.010878 284.719514 
L 341.836901 286.571649 
L 344.702107 288.492441 
L 347.608194 290.484265 
L 350.556934 292.549629 
" clip-path="url(#pe101a46d4e)" style="fill: none; stroke: #000000; stroke-width: 1.5; stroke-linecap: square"/>
   </g>
   <g id="line2d_26">
    <path d="M 87.929628 263.912809 
L 91.877086 261.614714 
L 95.741105 259.406729 
L 99.525753 257.284937 
L 103.234862 255.245662 
L 106.872051 253.285458 
L 110.440737 251.401086 
L 113.944152 249.589502 
L 117.385358 247.847844 
L 120.767255 246.173418 
L 124.092594 244.563688 
L 127.363989 243.016264 
L 130.583925 241.528896 
L 133.754767 240.099459 
L 136.878767 238.72595 
L 139.958073 237.406481 
L 142.994736 236.139268 
L 145.990714 234.922626 
L 148.947883 233.754965 
L 151.868037 232.634784 
L 154.752894 231.560664 
L 157.604105 230.531266 
L 160.423254 229.545325 
L 163.211865 228.601645 
L 165.971404 227.699099 
L 168.703283 226.836622 
L 171.408863 226.01321 
L 174.089461 225.227914 
L 176.746348 224.479842 
L 179.380752 223.768153 
L 181.993866 223.092055 
L 184.586844 222.450803 
L 187.16081 221.843699 
L 189.716852 221.270087 
L 192.256032 220.729353 
L 194.779383 220.220923 
L 197.287916 219.744262 
L 199.782614 219.298873 
L 202.264442 218.884293 
L 204.734343 218.500094 
L 207.193241 218.145885 
L 209.642047 217.821303 
L 212.081652 217.526022 
L 214.512936 217.259742 
L 216.936766 217.022197 
L 219.353998 216.813149 
L 221.765477 216.632391 
L 224.17204 216.479743 
L 226.574519 216.355054 
L 228.973736 216.258201 
L 231.370512 216.189088 
L 233.765662 216.147648 
L 236.16 216.133839 
L 238.554338 216.147648 
L 240.949488 216.189088 
L 243.346264 216.258201 
L 245.745481 216.355054 
L 248.14796 216.479743 
L 250.554523 216.632391 
L 252.966002 216.813149 
L 255.383234 217.022197 
L 257.807064 217.259742 
L 260.238348 217.526022 
L 262.677953 217.821303 
L 265.126759 218.145885 
L 267.585657 218.500094 
L 270.055558 218.884293 
L 272.537386 219.298873 
L 275.032084 219.744262 
L 277.540617 220.220923 
L 280.063968 220.729353 
L 282.603148 221.270087 
L 285.15919 221.843699 
L 287.733156 222.450803 
L 290.326134 223.092055 
L 292.939248 223.768153 
L 295.573652 224.479842 
L 298.230539 225.227914 
L 300.911137 226.01321 
L 303.616717 226.836622 
L 306.348596 227.699099 
L 309.108135 228.601645 
L 311.896746 229.545325 
L 314.715895 230.531266 
L 317.567106 231.560664 
L 320.451963 232.634784 
L 323.372117 233.754965 
L 326.329286 234.922626 
L 329.325264 236.139268 
L 332.361927 237.406481 
L 335.441233 238.72595 
L 338.565233 240.099459 
L 341.736075 241.528896 
L 344.956011 243.016264 
L 348.227406 244.563688 
L 351.552745 246.173418 
L 354.934642 247.847844 
L 358.375848 249.589502 
L 361.879263 251.401086 
L 365.447949 253.285458 
L 369.085138 255.245662 
" clip-path="url(#pe101a46d4e)" style="fill: none; stroke: #000000; stroke-width: 1.5; stroke-linecap: square"/>
   </g>
   <g id="line2d_27">
    <path d="M 66.477847 226.436445 
L 71.30726 224.368333 
L 76.011594 222.388629 
L 80.597688 220.492924 
L 85.07193 218.677119 
L 89.440294 216.937394 
L 93.708374 215.270191 
L 97.881414 213.672189 
L 101.96434 212.140287 
L 105.961779 210.671587 
L 109.87809 209.263378 
L 113.717378 207.91312 
L 117.483517 206.618438 
L 121.180168 205.377101 
L 124.81079 204.18702 
L 128.378662 203.046232 
L 131.886891 201.952896 
L 135.338426 200.905281 
L 138.736068 199.90176 
L 142.082483 198.940806 
L 145.380211 198.020982 
L 148.631672 197.140935 
L 151.839177 196.299394 
L 155.004935 195.495165 
L 158.13106 194.727121 
L 161.219577 193.994207 
L 164.272427 193.295427 
L 167.291477 192.629846 
L 170.27852 191.996587 
L 173.235283 191.394824 
L 176.163431 190.823785 
L 179.06457 190.282744 
L 181.940253 189.77102 
L 184.791983 189.287979 
L 187.621216 188.833027 
L 190.429366 188.40561 
L 193.217806 188.005212 
L 195.987873 187.631355 
L 198.740867 187.283595 
L 201.478062 186.961525 
L 204.200698 186.664767 
L 206.909993 186.392977 
L 209.607138 186.145843 
L 212.293304 185.92308 
L 214.969643 185.724436 
L 217.637289 185.549683 
L 220.297361 185.398626 
L 222.950965 185.271094 
L 225.599195 185.166943 
L 228.243139 185.086057 
L 230.883872 185.028346 
L 233.52247 184.993744 
L 236.16 184.982215 
L 238.79753 184.993744 
L 241.436128 185.028346 
L 244.076861 185.086057 
L 246.720805 185.166943 
L 249.369035 185.271094 
L 252.022639 185.398626 
L 254.682711 185.549683 
L 257.350357 185.724436 
L 260.026696 185.92308 
L 262.712862 186.145843 
L 265.410007 186.392977 
L 268.119302 186.664767 
L 270.841938 186.961525 
L 273.579133 187.283595 
L 276.332127 187.631355 
L 279.102194 188.005212 
L 281.890634 188.40561 
L 284.698784 188.833027 
L 287.528017 189.287979 
L 290.379747 189.77102 
L 293.25543 190.282744 
L 296.156569 190.823785 
L 299.084717 191.394824 
L 302.04148 191.996587 
L 305.028523 192.629846 
L 308.047573 193.295427 
L 311.100423 193.994207 
L 314.18894 194.727121 
L 317.315065 195.495165 
L 320.480823 196.299394 
L 323.688328 197.140935 
L 326.939789 198.020982 
L 330.237517 198.940806 
L 333.583932 199.90176 
L 336.981574 200.905281 
L 340.433109 201.952896 
L 343.941338 203.046232 
L 347.50921 204.18702 
L 351.139832 205.377101 
L 354.836483 206.618438 
L 358.602622 207.91312 
L 362.44191 209.263378 
L 366.358221 210.671587 
L 370.35566 212.140287 
L 374.438586 213.672189 
L 378.611626 215.270191 
L 382.879706 216.937394 
L 387.24807 218.677119 
" clip-path="url(#pe101a46d4e)" style="fill: none; stroke: #000000; stroke-width: 1.5; stroke-linecap: square"/>
   </g>
   <g id="line2d_28">
    <path d="M 43.781804 186.786348 
L 49.62841 185.113809 
L 55.295263 183.518979 
L 60.793273 181.997482 
L 66.132536 180.545278 
L 71.322408 179.158638 
L 76.371575 177.834111 
L 81.288113 176.568503 
L 86.079545 175.35885 
L 90.752884 174.202402 
L 95.314685 173.096605 
L 99.771075 172.039079 
L 104.127797 171.027613 
L 108.390235 170.060143 
L 112.56345 169.134744 
L 116.652198 168.249622 
L 120.660962 167.403099 
L 124.59397 166.593606 
L 128.455211 165.819678 
L 132.248462 165.079943 
L 135.977297 164.373116 
L 139.645103 163.697995 
L 143.255098 163.053453 
L 146.810339 162.438435 
L 150.313737 161.851953 
L 153.768066 161.293079 
L 157.175973 160.760944 
L 160.539989 160.254737 
L 163.862534 159.773694 
L 167.14593 159.317103 
L 170.392402 158.884296 
L 173.60409 158.474649 
L 176.783053 158.087579 
L 179.931276 157.722543 
L 183.050676 157.379032 
L 186.143102 157.056577 
L 189.21035 156.754737 
L 192.254157 156.473108 
L 195.276213 156.211314 
L 198.27816 155.969009 
L 201.2616 155.745875 
L 204.228095 155.541623 
L 207.179175 155.355989 
L 210.116335 155.188734 
L 213.041047 155.039646 
L 215.954752 154.908535 
L 218.858875 154.795236 
L 221.754819 154.699606 
L 224.643971 154.621526 
L 227.527705 154.560897 
L 230.407385 154.517645 
L 233.284366 154.491715 
L 236.16 154.483075 
L 239.035634 154.491715 
L 241.912615 154.517645 
L 244.792295 154.560897 
L 247.676029 154.621526 
L 250.565181 154.699606 
L 253.461125 154.795236 
L 256.365248 154.908535 
L 259.278953 155.039646 
L 262.203665 155.188734 
L 265.140825 155.355989 
L 268.091905 155.541623 
L 271.0584 155.745875 
L 274.04184 155.969009 
L 277.043787 156.211314 
L 280.065843 156.473108 
L 283.10965 156.754737 
L 286.176898 157.056577 
L 289.269324 157.379032 
L 292.388724 157.722543 
L 295.536947 158.087579 
L 298.71591 158.474649 
L 301.927598 158.884296 
L 305.17407 159.317103 
L 308.457466 159.773694 
L 311.780011 160.254737 
L 315.144027 160.760944 
L 318.551934 161.293079 
L 322.006263 161.851953 
L 325.509661 162.438435 
L 329.064902 163.053453 
L 332.674897 163.697995 
L 336.342703 164.373116 
L 340.071538 165.079943 
L 343.864789 165.819678 
L 347.72603 166.593606 
L 351.659038 167.403099 
L 355.667802 168.249622 
L 359.75655 169.134744 
L 363.929765 170.060143 
L 368.192203 171.027613 
L 372.548925 172.039079 
L 377.005315 173.096605 
L 381.567116 174.202402 
L 386.240455 175.35885 
L 391.031887 176.568503 
L 395.948425 177.834111 
L 400.997592 179.158638 
L 406.187464 180.545278 
" clip-path="url(#pe101a46d4e)" style="fill: none; stroke: #000000; stroke-width: 1.5; stroke-linecap: square"/>
   </g>
   <g id="line2d_29">
    <path d="M 18.137261 141.98521 
L 25.236601 140.946851 
L 32.080228 139.961058 
L 38.685339 139.024501 
L 45.067691 138.134134 
L 51.241745 137.287172 
L 57.220808 136.481056 
L 63.017142 135.713439 
L 68.642069 134.982161 
L 74.106061 134.28523 
L 79.418823 133.620809 
L 84.589364 132.987202 
L 89.626059 132.382837 
L 94.536706 131.806263 
L 99.32858 131.25613 
L 104.008478 130.731187 
L 108.582759 130.230274 
L 113.05738 129.752309 
L 117.437935 129.296288 
L 121.729677 128.861274 
L 125.937555 128.446396 
L 130.066231 128.05084 
L 134.120108 127.67385 
L 138.103345 127.314716 
L 142.019885 126.972779 
L 145.873461 126.647424 
L 149.667621 126.338073 
L 153.405739 126.04419 
L 157.091027 125.765275 
L 160.72655 125.500857 
L 164.315235 125.250502 
L 167.859882 125.013802 
L 171.363177 124.790377 
L 174.827695 124.579875 
L 178.255913 124.381968 
L 181.650217 124.19635 
L 185.012908 124.02274 
L 188.34621 123.860876 
L 191.652274 123.710518 
L 194.93319 123.571443 
L 198.190984 123.443449 
L 201.427632 123.32635 
L 204.645059 123.219978 
L 207.845146 123.124182 
L 211.029735 123.038825 
L 214.200634 122.963788 
L 217.359619 122.898965 
L 220.508441 122.844266 
L 223.648827 122.799615 
L 226.782487 122.764951 
L 229.911115 122.740224 
L 233.036394 122.725402 
L 236.16 122.720464 
L 239.283606 122.725402 
L 242.408885 122.740224 
L 245.537513 122.764951 
L 248.671173 122.799615 
L 251.811559 122.844266 
L 254.960381 122.898965 
L 258.119366 122.963788 
L 261.290265 123.038825 
L 264.474854 123.124182 
L 267.674941 123.219978 
L 270.892368 123.32635 
L 274.129016 123.443449 
L 277.38681 123.571443 
L 280.667726 123.710518 
L 283.97379 123.860876 
L 287.307092 124.02274 
L 290.669783 124.19635 
L 294.064087 124.381968 
L 297.492305 124.579875 
L 300.956823 124.790377 
L 304.460118 125.013802 
L 308.004765 125.250502 
L 311.59345 125.500857 
L 315.228973 125.765275 
L 318.914261 126.04419 
L 322.652379 126.338073 
L 326.446539 126.647424 
L 330.300115 126.972779 
L 334.216655 127.314716 
L 338.199892 127.67385 
L 342.253769 128.05084 
L 346.382445 128.446396 
L 350.590323 128.861274 
L 354.882065 129.296288 
L 359.26262 129.752309 
L 363.737241 130.230274 
L 368.311522 130.731187 
L 372.99142 131.25613 
L 377.783294 131.806263 
L 382.693941 132.382837 
L 387.730636 132.987202 
L 392.901177 133.620809 
L 398.213939 134.28523 
L 403.677931 134.982161 
L 409.302858 135.713439 
L 415.099192 136.481056 
L 421.078255 137.287172 
L 427.252309 138.134134 
" clip-path="url(#pe101a46d4e)" style="fill: none; stroke: #000000; stroke-width: 1.5; stroke-linecap: square"/>
   </g>
   <g id="line2d_30">
    <path d="M -1 87.441634 
L 4.088986 87.441634 
L 12.147952 87.441634 
L 19.889645 87.441634 
L 27.336888 87.441634 
L 34.510455 87.441634 
L 41.429298 87.441634 
L 48.110747 87.441634 
L 54.570682 87.441634 
L 60.823688 87.441634 
L 66.883183 87.441634 
L 72.76154 87.441634 
L 78.470186 87.441634 
L 84.019701 87.441634 
L 89.419891 87.441634 
L 94.679863 87.441634 
L 99.808094 87.441634 
L 104.812483 87.441634 
L 109.700403 87.441634 
L 114.478752 87.441634 
L 119.15399 87.441634 
L 123.732177 87.441634 
L 128.219009 87.441634 
L 132.619849 87.441634 
L 136.939751 87.441634 
L 141.18349 87.441634 
L 145.355582 87.441634 
L 149.460305 87.441634 
L 153.501721 87.441634 
L 157.483689 87.441634 
L 161.409887 87.441634 
L 165.283821 87.441634 
L 169.108842 87.441634 
L 172.888159 87.441634 
L 176.62485 87.441634 
L 180.32187 87.441634 
L 183.982066 87.441634 
L 187.608183 87.441634 
L 191.202875 87.441634 
L 194.768711 87.441634 
L 198.308186 87.441634 
L 201.823723 87.441634 
L 205.317687 87.441634 
L 208.792385 87.441634 
L 212.250076 87.441634 
L 215.692978 87.441634 
L 219.123271 87.441634 
L 222.543103 87.441634 
L 225.954596 87.441634 
L 229.359854 87.441634 
L 232.760963 87.441634 
L 236.16 87.441634 
L 239.559037 87.441634 
L 242.960146 87.441634 
L 246.365404 87.441634 
L 249.776897 87.441634 
L 253.196729 87.441634 
L 256.627022 87.441634 
L 260.069924 87.441634 
L 263.527615 87.441634 
L 267.002313 87.441634 
L 270.496277 87.441634 
L 274.011814 87.441634 
L 277.551289 87.441634 
L 281.117125 87.441634 
L 284.711817 87.441634 
L 288.337934 87.441634 
L 291.99813 87.441634 
L 295.69515 87.441634 
L 299.431841 87.441634 
L 303.211158 87.441634 
L 307.036179 87.441634 
L 310.910113 87.441634 
L 314.836311 87.441634 
L 318.818279 87.441634 
L 322.859695 87.441634 
L 326.964418 87.441634 
L 331.13651 87.441634 
L 335.380249 87.441634 
L 339.700151 87.441634 
L 344.100991 87.441634 
L 348.587823 87.441634 
L 353.16601 87.441634 
L 357.841248 87.441634 
L 362.619597 87.441634 
L 367.507517 87.441634 
L 372.511906 87.441634 
L 377.640137 87.441634 
L 382.900109 87.441634 
L 388.300299 87.441634 
L 393.849814 87.441634 
L 399.55846 87.441634 
L 405.436817 87.441634 
L 411.496312 87.441634 
L 417.749318 87.441634 
L 424.209253 87.441634 
L 430.890702 87.441634 
L 437.809545 87.441634 
L 444.983112 87.441634 
L 452.430355 87.441634 
" clip-path="url(#pe101a46d4e)" style="fill: none; stroke: #000000; stroke-width: 1.5; stroke-linecap: square"/>
   </g>
   <g id="line2d_31">
    <path d="M -1 23.201351 
L 5.197477 24.144887 
L 13.691409 25.417935 
L 21.84373 26.620035 
L 29.679777 27.756099 
L 37.22256 28.830572 
L 44.493027 29.84749 
L 51.510296 30.810523 
L 58.291853 31.723016 
L 64.853731 32.588021 
L 71.210657 33.40833 
L 77.376191 34.186499 
L 83.362846 34.924874 
L 89.182184 35.625608 
L 94.844919 36.290683 
L 100.360992 36.921923 
L 105.739644 37.52101 
L 110.989487 38.089494 
L 116.118555 38.628809 
L 121.134362 39.140278 
L 126.043943 39.625127 
L 130.853902 40.084488 
L 135.570446 40.51941 
L 140.199423 40.930866 
L 144.746347 41.319753 
L 149.216435 41.686905 
L 153.614625 42.033093 
L 157.945603 42.359032 
L 162.213825 42.66538 
L 166.423535 42.952748 
L 170.578784 43.2217 
L 174.683448 43.472755 
L 178.74124 43.706391 
L 182.755727 43.923046 
L 186.730344 44.123123 
L 190.668403 44.306989 
L 194.573109 44.474976 
L 198.447565 44.627387 
L 202.294788 44.764493 
L 206.117717 44.886536 
L 209.919219 44.99373 
L 213.702101 45.086261 
L 217.46912 45.164289 
L 221.222985 45.227949 
L 224.96637 45.27735 
L 228.701922 45.312577 
L 232.432262 45.333689 
L 236.16 45.340722 
L 239.887738 45.333689 
L 243.618078 45.312577 
L 247.35363 45.27735 
L 251.097015 45.227949 
L 254.85088 45.164289 
L 258.617899 45.086261 
L 262.400781 44.99373 
L 266.202283 44.886536 
L 270.025212 44.764493 
L 273.872435 44.627387 
L 277.746891 44.474976 
L 281.651597 44.306989 
L 285.589656 44.123123 
L 289.564273 43.923046 
L 293.57876 43.706391 
L 297.636552 43.472755 
L 301.741216 43.2217 
L 305.896465 42.952748 
L 310.106175 42.66538 
L 314.374397 42.359032 
L 318.705375 42.033093 
L 323.103565 41.686905 
L 327.573653 41.319753 
L 332.120577 40.930866 
L 336.749554 40.51941 
L 341.466098 40.084488 
L 346.276057 39.625127 
L 351.185638 39.140278 
L 356.201445 38.628809 
L 361.330513 38.089494 
L 366.580356 37.52101 
L 371.959008 36.921923 
L 377.475081 36.290683 
L 383.137816 35.625608 
L 388.957154 34.924874 
L 394.943809 34.186499 
L 401.109343 33.40833 
L 407.466269 32.588021 
L 414.028147 31.723016 
L 420.809704 30.810523 
L 427.826973 29.84749 
L 435.09744 28.830572 
L 442.640223 27.756099 
L 450.47627 26.620035 
L 458.628591 25.417935 
L 461.8 24.942613 
" clip-path="url(#pe101a46d4e)" style="fill: none; stroke: #000000; stroke-width: 1.5; stroke-linecap: square"/>
   </g>
   <g id="line2d_32">
    <path clip-path="url(#pe101a46d4e)" style="fill: none; stroke: #000000; stroke-width: 1.5; stroke-linecap: square"/>
   </g>
   <g id="line2d_33">
    <path d="M 253.84029 -1 
L 255.112249 0.99881 
L 260.218703 2.672632 
L 264.462707 6.614297 
L 269.496574 9.477826 
L 272.330648 10.076097 
L 282.14927 14.800036 
L 286.644455 12.74883 
L 288.936639 10.447926 
L 293.098604 11.31727 
L 299.497628 19.38299 
L 302.942775 22.439407 
L 307.327475 22.754785 
L 315.299615 25.602347 
L 317.930863 25.072773 
L 325.124033 35.761583 
L 325.064699 42.178229 
L 326.288395 42.816086 
L 329.007096 42.397907 
L 331.634575 44.493985 
L 333.815557 48.259832 
L 335.925281 49.240657 
L 338.206014 49.016388 
L 342.612656 51.80156 
L 343.628742 53.506363 
L 346.752921 52.814314 
L 347.025071 50.344282 
L 351.822506 44.993534 
L 355.195327 44.51447 
L 356.735648 46.563626 
L 356.765312 50.556049 
L 359.443556 55.501692 
L 359.298282 60.150178 
L 357.833384 63.353759 
L 356.781661 69.749528 
L 355.180667 72.540919 
L 353.282741 74.43958 
L 347.951757 77.663386 
L 346.435553 80.60019 
L 344.139776 82.714087 
L 342.242155 83.092846 
L 335.711427 91.375426 
L 333.916508 96.540796 
L 334.79482 97.94544 
L 336.162564 98.444568 
L 335.795217 101.332438 
L 331.943932 103.597781 
L 329.908823 106.016602 
L 330.449267 109.4181 
L 329.736536 111.037481 
L 330.091222 112.601416 
L 333.25992 114.868979 
L 334.709301 119.159414 
L 335.888942 120.65829 
L 337.612878 128.84502 
L 341.57665 140.016536 
L 341.894957 145.354245 
L 345.18091 149.45989 
L 357.166387 158.54734 
L 360.020499 163.885879 
L 359.372769 168.267061 
L 357.892173 171.820683 
L 357.853047 173.742582 
L 353.456186 180.942857 
L 350.941778 187.943264 
L 348.052451 193.081274 
L 344.873416 197.572467 
L 343.611314 198.553095 
L 342.795417 202.512422 
L 340.926841 204.006779 
L 339.687259 210.371773 
L 338.829509 212.353864 
L 333.790246 219.198382 
L 332.442116 220.102482 
L 328.982495 224.63298 
L 326.803577 225.904031 
L 326.463967 231.435704 
L 325.857775 233.14753 
L 323.990221 234.673493 
L 322.285611 237.871183 
L 322.3761 239.42538 
L 324.885294 241.566112 
L 323.332828 245.677354 
L 321.28291 248.90328 
L 321.928506 250.530166 
L 321.140628 252.073802 
L 319.718439 252.284417 
L 318.511921 254.235175 
L 316.915782 254.575161 
L 315.162732 253.698462 
L 313.198716 255.68652 
L 314.36042 257.216091 
L 314.628532 259.084203 
L 314.313941 261.836272 
L 312.513724 265.90795 
L 312.451048 267.419927 
L 311.005703 269.193931 
L 311.318521 271.516957 
L 311.113698 275.05687 
L 312.150361 277.210064 
L 311.991243 278.760462 
L 310.947652 278.958411 
L 310.711538 280.296394 
L 310.823866 281.658505 
L 311.64054 282.725689 
L 312.462259 285.535571 
L 314.453033 288.130544 
L 315.611173 287.615406 
L 315.813859 286.570131 
L 316.775674 285.279314 
L 317.93338 284.602758 
L 322.373806 285.296798 
L 323.398571 284.647828 
L 323.474354 280.628991 
L 324.328612 278.516187 
L 325.922651 277.888527 
L 328.682276 277.96661 
L 330.292187 275.426418 
L 331.504085 274.678475 
L 336.168553 273.925117 
L 337.249409 272.965425 
L 338.369675 271.037713 
L 335.84019 268.847347 
L 334.52247 265.839579 
L 334.436409 264.907196 
L 335.096644 263.507924 
L 337.083463 262.339569 
L 342.316425 262.66 
L 343.924579 261.528469 
L 345.940945 258.407539 
L 349.487511 255.350724 
L 348.67106 254.24099 
L 349.483157 249.425295 
L 351.779835 250.135423 
L 354.593017 252.788733 
L 358.172092 253.880261 
L 359.908834 252.873005 
L 360.006305 251.469314 
L 362.30536 249.080786 
L 364.867961 248.476986 
L 372.488687 251.529388 
L 380.580126 253.466923 
L 387.152068 251.209946 
L 388.816329 249.683382 
L 387.239489 246.937858 
L 388.965998 243.07953 
L 387.504945 240.955185 
L 388.912189 239.684691 
L 391.287806 240.860563 
L 393.835921 244.247192 
L 396.325843 244.952382 
L 401.070688 247.768722 
L 404.645011 248.210409 
L 415.314972 246.219765 
L 420.193578 242.80239 
L 429.25113 239.589894 
L 436.535847 241.018053 
L 442.344211 238.882982 
L 449.010181 238.672063 
L 453.120262 236.37513 
L 458.947885 228.442739 
L 461.8 227.363054 
M 461.8 20.120513 
L 452.630974 22.08297 
L 444.229807 26.989521 
L 440.858414 27.261381 
L 437.108701 27.074139 
L 435.666758 25.353951 
L 433.044708 25.09298 
L 423.449825 27.366753 
L 420.455039 26.843033 
L 421.083292 24.218184 
L 418.545004 22.050568 
L 409.89813 22.394828 
L 407.605264 24.680676 
L 400.198357 28.043227 
L 399.203616 30.919379 
L 400.084619 33.829735 
L 398.589448 37.979337 
L 394.913419 38.701913 
L 394.485533 37.187989 
L 395.731864 33.357436 
L 398.53122 28.769233 
L 398.255706 26.421922 
L 401.303684 23.074884 
L 398.389747 21.030454 
L 389.857535 27.139665 
L 380.322978 29.608057 
L 375.589834 33.735868 
L 372.059236 40.019848 
L 366.304618 44.732624 
L 363.39521 46.291658 
L 359.100654 42.166969 
L 353.289972 41.234456 
L 344.394211 46.038846 
L 340.328873 45.650458 
L 335.494119 39.070378 
L 334.915404 32.463785 
L 338.487193 20.48395 
L 340.947554 14.82411 
L 340.979068 12.679416 
L 337.820812 10.51188 
L 337.49187 7.67202 
L 329.998764 7.622551 
L 326.679387 9.337869 
L 320.602585 9.538413 
L 318.362349 10.786597 
L 316.259505 8.777563 
L 318.48215 6.266434 
L 319.293541 4.274096 
L 320.262427 -1 
L 320.262427 -1 
" clip-path="url(#pe101a46d4e)" style="fill: none; stroke: #0000ff; stroke-width: 1.5; stroke-linecap: square"/>
   </g>
   <g id="line2d_34">
    <path d="M 109.616326 133.41126 
L 157.951738 282.17211 
L 314.368262 282.17211 
L 362.703674 133.41126 
L 236.16 41.472003 
L 109.616326 133.41126 
" clip-path="url(#pe101a46d4e)" style="fill: none; stroke: #008000; stroke-width: 1.5; stroke-linecap: square"/>
   </g>
   <g id="patch_3">
    <path d="M 103.104 307.584 
L 103.104 41.472 
" style="fill: none; stroke: #000000; stroke-width: 0.8; stroke-linejoin: miter; stroke-linecap: square"/>
   </g>
   <g id="patch_4">
    <path d="M 369.216 307.584 
L 369.216 41.472 
" style="fill: none; stroke: #000000; stroke-width: 0.8; stroke-linejoin: miter; stroke-linecap: square"/>
   </g>
   <g id="patch_5">
    <path d="M 103.104 307.584 
L 369.216 307.584 
" style="fill: none; stroke: #000000; stroke-width: 0.8; stroke-linejoin: miter; stroke-linecap: square"/>
   </g>
   <g id="patch_6">
    <path d="M 103.104 41.472 
L 369.216 41.472 
" style="fill: none; stroke: #000000; stroke-width: 0.8; stroke-linejoin: miter; stroke-linecap: square"/>
   </g>
  </g>
 </g>
 <defs>
  <clipPath id="pe101a46d4e">
   <rect x="103.104" y="41.472" width="266.112" height="266.112"/>
  </clipPath>
 </defs>
</svg>
