<?xml version="1.0" encoding="utf-8" standalone="no"?>
<!DOCTYPE svg PUBLIC "-//W3C//DTD SVG 1.1//EN"
  "http://www.w3.org/Graphics/SVG/1.1/DTD/svg11.dtd">
<svg xmlns:xlink="http://www.w3.org/1999/xlink" width="460.8pt" height="345.6pt" viewBox="0 0 460.8 345.6" xmlns="http://www.w3.org/2000/svg" version="1.1">
 <metadata>
  <rdf:RDF xmlns:dc="http://purl.org/dc/elements/1.1/" xmlns:cc="http://creativecommons.org/ns#" xmlns:rdf="http://www.w3.org/1999/02/22-rdf-syntax-ns#">
   <cc:Work>
    <dc:type rdf:resource="http://purl.org/dc/dcmitype/StillImage"/>
    <dc:date>2025-06-01T22:06:00.896415</dc:date>
    <dc:format>image/svg+xml</dc:format>
    <dc:creator>
     <cc:Agent>
      <dc:title>Matplotlib v3.6.3, https://matplotlib.org/</dc:title>
     </cc:Agent>
    </dc:creator>
   </cc:Work>
  </rdf:RDF>
 </metadata>
 <defs>
  <style type="text/css">*{stroke-linejoin: round; stroke-linecap: butt}</style>
 </defs>
 <g id="figure_1">
  <g id="patch_1">
   <path d="M 0 345.6 
L 460.8 345.6 
L 460.8 0 
L 0 0 
z
" style="fill: #ffffff"/>
  </g>
  <g id="axes_1">
   <g id="patch_2">
    <path d="M 103.104 307.584 
L 369.216 307.584 
L 369.216 41.472 
L 103.104 41.472 
z
" style="fill: #ffffff"/>
   </g>
   <g id="matplotlib.axis_1">
    <g id="xtick_1">
     <g id="line2d_1">
      <defs>
       <path id="me80274fd0c" d="M 0 0 
L 0 3.5 
" style="stroke: #000000; stroke-width: 0.8"/>
      </defs>
      <g>
       <use xlink:href="#me80274fd0c" x="126.929132" y="307.584" style="stroke: #000000; stroke-width: 0.8"/>
      </g>
     </g>
     <g id="text_1">
      <!-- −4 -->
      <g transform="translate(119.558038 322.182437) scale(0.1 -0.1)">
       <defs>
        <path id="DejaVuSans-2212" d="M 678 2272 
L 4684 2272 
L 4684 1741 
L 678 1741 
L 678 2272 
z
" transform="scale(0.015625)"/>
        <path id="DejaVuSans-34" d="M 2419 4116 
L 825 1625 
L 2419 1625 
L 2419 4116 
z
M 2253 4666 
L 3047 4666 
L 3047 1625 
L 3713 1625 
L 3713 1100 
L 3047 1100 
L 3047 0 
L 2419 0 
L 2419 1100 
L 313 1100 
L 313 1709 
L 2253 4666 
z
" transform="scale(0.015625)"/>
       </defs>
       <use xlink:href="#DejaVuSans-2212"/>
       <use xlink:href="#DejaVuSans-34" x="83.789062"/>
      </g>
     </g>
    </g>
    <g id="xtick_2">
     <g id="line2d_2">
      <g>
       <use xlink:href="#me80274fd0c" x="181.544566" y="307.584" style="stroke: #000000; stroke-width: 0.8"/>
      </g>
     </g>
     <g id="text_2">
      <!-- −2 -->
      <g transform="translate(174.173472 322.182437) scale(0.1 -0.1)">
       <defs>
        <path id="DejaVuSans-32" d="M 1228 531 
L 3431 531 
L 3431 0 
L 469 0 
L 469 531 
Q 828 903 1448 1529 
Q 2069 2156 2228 2338 
Q 2531 2678 2651 2914 
Q 2772 3150 2772 3378 
Q 2772 3750 2511 3984 
Q 2250 4219 1831 4219 
Q 1534 4219 1204 4116 
Q 875 4013 500 3803 
L 500 4441 
Q 881 4594 1212 4672 
Q 1544 4750 1819 4750 
Q 2544 4750 2975 4387 
Q 3406 4025 3406 3419 
Q 3406 3131 3298 2873 
Q 3191 2616 2906 2266 
Q 2828 2175 2409 1742 
Q 1991 1309 1228 531 
z
" transform="scale(0.015625)"/>
       </defs>
       <use xlink:href="#DejaVuSans-2212"/>
       <use xlink:href="#DejaVuSans-32" x="83.789062"/>
      </g>
     </g>
    </g>
    <g id="xtick_3">
     <g id="line2d_3">
      <g>
       <use xlink:href="#me80274fd0c" x="236.16" y="307.584" style="stroke: #000000; stroke-width: 0.8"/>
      </g>
     </g>
     <g id="text_3">
      <!-- 0 -->
      <g transform="translate(232.97875 322.182437) scale(0.1 -0.1)">
       <defs>
        <path id="DejaVuSans-30" d="M 2034 4250 
Q 1547 4250 1301 3770 
Q 1056 3291 1056 2328 
Q 1056 1369 1301 889 
Q 1547 409 2034 409 
Q 2525 409 2770 889 
Q 3016 1369 3016 2328 
Q 3016 3291 2770 3770 
Q 2525 4250 2034 4250 
z
M 2034 4750 
Q 2819 4750 3233 4129 
Q 3647 3509 3647 2328 
Q 3647 1150 3233 529 
Q 2819 -91 2034 -91 
Q 1250 -91 836 529 
Q 422 1150 422 2328 
Q 422 3509 836 4129 
Q 1250 4750 2034 4750 
z
" transform="scale(0.015625)"/>
       </defs>
       <use xlink:href="#DejaVuSans-30"/>
      </g>
     </g>
    </g>
    <g id="xtick_4">
     <g id="line2d_4">
      <g>
       <use xlink:href="#me80274fd0c" x="290.775434" y="307.584" style="stroke: #000000; stroke-width: 0.8"/>
      </g>
     </g>
     <g id="text_4">
      <!-- 2 -->
      <g transform="translate(287.594184 322.182437) scale(0.1 -0.1)">
       <use xlink:href="#DejaVuSans-32"/>
      </g>
     </g>
    </g>
    <g id="xtick_5">
     <g id="line2d_5">
      <g>
       <use xlink:href="#me80274fd0c" x="345.390868" y="307.584" style="stroke: #000000; stroke-width: 0.8"/>
      </g>
     </g>
     <g id="text_5">
      <!-- 4 -->
      <g transform="translate(342.209618 322.182437) scale(0.1 -0.1)">
       <use xlink:href="#DejaVuSans-34"/>
      </g>
     </g>
    </g>
    <g id="text_6">
     <!-- 1e6 -->
     <g transform="translate(350.337875 334.860562) scale(0.1 -0.1)">
      <defs>
       <path id="DejaVuSans-31" d="M 794 531 
L 1825 531 
L 1825 4091 
L 703 3866 
L 703 4441 
L 1819 4666 
L 2450 4666 
L 2450 531 
L 3481 531 
L 3481 0 
L 794 0 
L 794 531 
z
" transform="scale(0.015625)"/>
       <path id="DejaVuSans-65" d="M 3597 1894 
L 3597 1613 
L 953 1613 
Q 991 1019 1311 708 
Q 1631 397 2203 397 
Q 2534 397 2845 478 
Q 3156 559 3463 722 
L 3463 178 
Q 3153 47 2828 -22 
Q 2503 -91 2169 -91 
Q 1331 -91 842 396 
Q 353 884 353 1716 
Q 353 2575 817 3079 
Q 1281 3584 2069 3584 
Q 2775 3584 3186 3129 
Q 3597 2675 3597 1894 
z
M 3022 2063 
Q 3016 2534 2758 2815 
Q 2500 3097 2075 3097 
Q 1594 3097 1305 2825 
Q 1016 2553 972 2059 
L 3022 2063 
z
" transform="scale(0.015625)"/>
       <path id="DejaVuSans-36" d="M 2113 2584 
Q 1688 2584 1439 2293 
Q 1191 2003 1191 1497 
Q 1191 994 1439 701 
Q 1688 409 2113 409 
Q 2538 409 2786 701 
Q 3034 994 3034 1497 
Q 3034 2003 2786 2293 
Q 2538 2584 2113 2584 
z
M 3366 4563 
L 3366 3988 
Q 3128 4100 2886 4159 
Q 2644 4219 2406 4219 
Q 1781 4219 1451 3797 
Q 1122 3375 1075 2522 
Q 1259 2794 1537 2939 
Q 1816 3084 2150 3084 
Q 2853 3084 3261 2657 
Q 3669 2231 3669 1497 
Q 3669 778 3244 343 
Q 2819 -91 2113 -91 
Q 1303 -91 875 529 
Q 447 1150 447 2328 
Q 447 3434 972 4092 
Q 1497 4750 2381 4750 
Q 2619 4750 2861 4703 
Q 3103 4656 3366 4563 
z
" transform="scale(0.015625)"/>
      </defs>
      <use xlink:href="#DejaVuSans-31"/>
      <use xlink:href="#DejaVuSans-65" x="63.623047"/>
      <use xlink:href="#DejaVuSans-36" x="125.146484"/>
     </g>
    </g>
   </g>
   <g id="matplotlib.axis_2">
    <g id="ytick_1">
     <g id="line2d_6">
      <defs>
       <path id="mdc12f841bd" d="M 0 0 
L -3.5 0 
" style="stroke: #000000; stroke-width: 0.8"/>
      </defs>
      <g>
       <use xlink:href="#mdc12f841bd" x="103.104" y="283.758868" style="stroke: #000000; stroke-width: 0.8"/>
      </g>
     </g>
     <g id="text_7">
      <!-- −4 -->
      <g transform="translate(81.361813 287.558087) scale(0.1 -0.1)">
       <use xlink:href="#DejaVuSans-2212"/>
       <use xlink:href="#DejaVuSans-34" x="83.789062"/>
      </g>
     </g>
    </g>
    <g id="ytick_2">
     <g id="line2d_7">
      <g>
       <use xlink:href="#mdc12f841bd" x="103.104" y="229.143434" style="stroke: #000000; stroke-width: 0.8"/>
      </g>
     </g>
     <g id="text_8">
      <!-- −2 -->
      <g transform="translate(81.361813 232.942653) scale(0.1 -0.1)">
       <use xlink:href="#DejaVuSans-2212"/>
       <use xlink:href="#DejaVuSans-32" x="83.789062"/>
      </g>
     </g>
    </g>
    <g id="ytick_3">
     <g id="line2d_8">
      <g>
       <use xlink:href="#mdc12f841bd" x="103.104" y="174.528" style="stroke: #000000; stroke-width: 0.8"/>
      </g>
     </g>
     <g id="text_9">
      <!-- 0 -->
      <g transform="translate(89.7415 178.327219) scale(0.1 -0.1)">
       <use xlink:href="#DejaVuSans-30"/>
      </g>
     </g>
    </g>
    <g id="ytick_4">
     <g id="line2d_9">
      <g>
       <use xlink:href="#mdc12f841bd" x="103.104" y="119.912566" style="stroke: #000000; stroke-width: 0.8"/>
      </g>
     </g>
     <g id="text_10">
      <!-- 2 -->
      <g transform="translate(89.7415 123.711785) scale(0.1 -0.1)">
       <use xlink:href="#DejaVuSans-32"/>
      </g>
     </g>
    </g>
    <g id="ytick_5">
     <g id="line2d_10">
      <g>
       <use xlink:href="#mdc12f841bd" x="103.104" y="65.297132" style="stroke: #000000; stroke-width: 0.8"/>
      </g>
     </g>
     <g id="text_11">
      <!-- 4 -->
      <g transform="translate(89.7415 69.09635) scale(0.1 -0.1)">
       <use xlink:href="#DejaVuSans-34"/>
      </g>
     </g>
    </g>
    <g id="text_12">
     <!-- 1e6 -->
     <g transform="translate(103.104 38.472) scale(0.1 -0.1)">
      <use xlink:href="#DejaVuSans-31"/>
      <use xlink:href="#DejaVuSans-65" x="63.623047"/>
      <use xlink:href="#DejaVuSans-36" x="125.146484"/>
     </g>
    </g>
   </g>
   <g id="line2d_11">
    <path d="M -1 240.503677 
L 0.310013 238.215078 
L 3.450697 232.728288 
L 6.518066 227.36958 
L 9.516463 222.131366 
L 12.449956 217.00654 
L 15.32236 211.988436 
L 18.137261 207.07079 
L 20.898035 202.247706 
L 23.607861 197.513626 
L 26.269745 192.863302 
L 28.886527 188.291771 
L 31.4609 183.794329 
L 33.995417 179.366515 
L 36.492507 175.004087 
L 38.954481 170.703007 
L 41.383544 166.459422 
L 43.781804 162.269652 
L 46.151275 158.130173 
L 48.493893 154.037609 
L 50.811515 149.988712 
L 53.10593 145.980359 
L 55.378861 142.009537 
L 57.631975 138.073335 
L 59.866887 134.168934 
L 62.085161 130.293598 
L 64.28832 126.444669 
L 66.477847 122.619555 
L 68.65519 118.815726 
L 70.821767 115.030705 
L 72.978969 111.262064 
L 75.128162 107.507413 
L 77.270694 103.764399 
L 79.407896 100.030697 
L 81.541086 96.304005 
L 83.67157 92.582038 
L 85.800652 88.862522 
L 87.929628 85.143191 
L 90.059796 81.421777 
L 92.192457 77.696009 
L 94.328917 73.963603 
L 96.470492 70.222261 
L 98.618511 66.469662 
L 100.774318 62.703457 
L 102.939276 58.921264 
L 105.114773 55.12066 
L 107.302221 51.299178 
L 109.503063 47.454297 
L 111.718776 43.583434 
L 113.950877 39.683944 
L 116.200923 35.753102 
L 118.47052 31.788106 
L 120.761325 27.786058 
L 123.075053 23.743964 
L 125.413482 19.658718 
L 127.778458 15.527095 
L 130.1719 11.345738 
L 132.595813 7.111151 
L 135.052288 2.819677 
L 137.238703 -1 
" clip-path="url(#p0f93058cc0)" style="fill: none; stroke: #000000; stroke-width: 1.5; stroke-linecap: square"/>
   </g>
   <g id="line2d_12">
    <path d="M 26.602215 346.6 
L 28.579792 341.688885 
L 31.564044 334.27779 
L 34.442572 327.129251 
L 37.22256 320.225428 
L 39.910592 313.549968 
L 42.512716 307.087851 
L 45.034497 300.825256 
L 47.481069 294.749438 
L 49.857171 288.848623 
L 52.167194 283.111911 
L 54.415205 277.529197 
L 56.604986 272.091093 
L 58.740054 266.788864 
L 60.823688 261.614366 
L 62.858949 256.559997 
L 64.848701 251.618645 
L 66.795626 246.78365 
L 68.702241 242.04876 
L 70.570913 237.408101 
L 72.403867 232.85614 
L 74.203204 228.387664 
L 75.970908 223.997746 
L 77.708855 219.681727 
L 79.418823 215.435191 
L 81.1025 211.253946 
L 82.761491 207.134008 
L 84.397323 203.071581 
L 86.011455 199.063045 
L 87.60528 195.104939 
L 89.180132 191.19395 
L 90.737291 187.326899 
L 92.277987 183.500733 
L 93.803404 179.71251 
L 95.314685 175.959395 
L 96.812933 172.238646 
L 98.299217 168.547606 
L 99.774576 164.883699 
L 101.240019 161.244416 
L 102.69653 157.627316 
L 104.14507 154.030011 
L 105.58658 150.450163 
L 107.021983 146.885481 
L 108.452188 143.333708 
L 109.87809 139.792622 
L 111.300573 136.260026 
L 112.720514 132.733744 
L 114.138783 129.211614 
L 115.556245 125.691487 
L 116.973765 122.171218 
L 118.392206 118.648659 
L 119.812436 115.12166 
L 121.235324 111.588059 
L 122.661748 108.045676 
L 124.092594 104.492312 
L 125.528758 100.92574 
L 126.971151 97.343699 
L 128.420699 93.743892 
L 129.878344 90.123975 
L 131.345051 86.481553 
L 132.821807 82.814176 
L 134.309625 79.119328 
L 135.809547 75.39442 
L 137.322647 71.636787 
L 138.850033 67.843674 
L 140.392854 64.012232 
L 141.952299 60.139504 
L 143.529605 56.222422 
L 145.126058 52.25779 
L 146.742999 48.242275 
L 148.381832 44.172397 
L 150.044022 40.044512 
L 151.731108 35.854801 
L 153.444706 31.599252 
L 155.186514 27.273645 
L 156.958323 22.873533 
L 158.762023 18.394222 
L 160.599613 13.830749 
L 162.473209 9.177858 
L 164.385057 4.429975 
L 166.33754 -0.418824 
L 166.571565 -1 
" clip-path="url(#p0f93058cc0)" style="fill: none; stroke: #000000; stroke-width: 1.5; stroke-linecap: square"/>
   </g>
   <g id="line2d_13">
    <path d="M 90.72947 346.6 
L 91.648837 343.310091 
L 93.508829 336.654203 
L 95.306037 330.222981 
L 97.04463 324.001511 
L 98.728439 317.976085 
L 100.360992 312.134077 
L 101.945544 306.463834 
L 103.485107 300.954584 
L 104.982469 295.596347 
L 106.440218 290.379865 
L 107.860759 285.296528 
L 109.246333 280.338322 
L 110.599028 275.497768 
L 111.920797 270.767882 
L 113.213468 266.142124 
L 114.478752 261.614366 
L 115.718259 257.178852 
L 116.933501 252.830169 
L 118.125903 248.563218 
L 119.296809 244.373187 
L 120.447491 240.25553 
L 121.57915 236.205941 
L 122.692929 232.220339 
L 123.78991 228.294846 
L 124.871125 224.425773 
L 125.937555 220.609604 
L 126.99014 216.842983 
L 128.029775 213.1227 
L 129.057321 209.445677 
L 130.073602 205.808964 
L 131.079413 202.209718 
L 132.075519 198.645205 
L 133.062656 195.112783 
L 134.04154 191.609895 
L 135.012863 188.134064 
L 135.977297 184.682884 
L 136.935497 181.254012 
L 137.888102 177.845163 
L 138.835736 174.454101 
L 139.779011 171.078638 
L 140.718528 167.716622 
L 141.654879 164.365936 
L 142.588648 161.024491 
L 143.520412 157.69022 
L 144.450743 154.361075 
L 145.380211 151.035018 
L 146.309383 147.710022 
L 147.238825 144.38406 
L 148.169104 141.055103 
L 149.100789 137.721115 
L 150.034452 134.380048 
L 150.97067 131.029837 
L 151.910027 127.668393 
L 152.853115 124.293601 
L 153.800533 120.903311 
L 154.752894 117.495336 
L 155.71082 114.067443 
L 156.674951 110.617349 
L 157.645939 107.142715 
L 158.624457 103.641136 
L 159.611196 100.11014 
L 160.606869 96.547173 
L 161.612213 92.949599 
L 162.627992 89.314685 
L 163.654997 85.639597 
L 164.694053 81.921388 
L 165.746017 78.156987 
L 166.811785 74.34319 
L 167.892292 70.476648 
L 168.988519 66.553852 
L 170.101495 62.571122 
L 171.232301 58.524591 
L 172.382074 54.410185 
L 173.552014 50.22361 
L 174.74339 45.960332 
L 175.957541 41.615551 
L 177.19589 37.184182 
L 178.459943 32.660828 
L 179.751306 28.039749 
L 181.071686 23.314835 
L 182.422905 18.479566 
L 183.806908 13.526979 
L 185.225778 8.449621 
L 186.681749 3.239501 
L 187.86648 -1 
" clip-path="url(#p0f93058cc0)" style="fill: none; stroke: #000000; stroke-width: 1.5; stroke-linecap: square"/>
   </g>
   <g id="line2d_14">
    <path d="M 142.127947 346.6 
L 143.092388 341.26235 
L 144.195073 335.159587 
L 145.262025 329.25459 
L 146.295573 323.534471 
L 147.297861 317.987354 
L 148.270871 312.602275 
L 149.216435 307.369095 
L 150.136251 302.278418 
L 151.031894 297.321523 
L 151.90483 292.490299 
L 152.756424 287.777192 
L 153.58795 283.175154 
L 154.400597 278.677595 
L 155.195481 274.278348 
L 155.973646 269.971628 
L 156.736074 265.752005 
L 157.483689 261.614366 
L 158.217361 257.553896 
L 158.93791 253.566048 
L 159.646114 249.646526 
L 160.342708 245.791259 
L 161.02839 241.996387 
L 161.703821 238.258244 
L 162.369633 234.573338 
L 163.026428 230.93834 
L 163.674778 227.350074 
L 164.315235 223.805498 
L 164.948324 220.301697 
L 165.574551 216.835873 
L 166.194403 213.405333 
L 166.808348 210.007481 
L 167.41684 206.639811 
L 168.020317 203.299897 
L 168.619203 199.985386 
L 169.213913 196.693993 
L 169.804848 193.42349 
L 170.392402 190.171704 
L 170.976957 186.936511 
L 171.55889 183.715827 
L 172.138572 180.507605 
L 172.716367 177.309827 
L 173.292634 174.120504 
L 173.867729 170.937665 
L 174.442006 167.759357 
L 175.015816 164.583637 
L 175.589507 161.408568 
L 176.163431 158.232215 
L 176.737936 155.05264 
L 177.313376 151.867898 
L 177.890103 148.676029 
L 178.468475 145.475058 
L 179.048852 142.262986 
L 179.631601 139.037787 
L 180.217095 135.797402 
L 180.80571 132.539736 
L 181.397836 129.262646 
L 181.993866 125.963945 
L 182.594207 122.641386 
L 183.199275 119.292663 
L 183.809501 115.9154 
L 184.425326 112.507145 
L 185.047209 109.065363 
L 185.675624 105.587428 
L 186.311064 102.070614 
L 186.954042 98.512086 
L 187.60509 94.908888 
L 188.264767 91.257936 
L 188.933656 87.556004 
L 189.612366 83.799712 
L 190.30154 79.985515 
L 191.00185 76.109682 
L 191.714006 72.168288 
L 192.438756 68.15719 
L 193.176892 64.072012 
L 193.92925 59.908122 
L 194.696717 55.66061 
L 195.480236 51.324265 
L 196.280807 46.893541 
L 197.099498 42.362534 
L 197.937447 37.724942 
L 198.795872 32.97403 
L 199.676075 28.102591 
L 200.579452 23.102893 
L 201.507504 17.966634 
L 202.461845 12.684878 
L 203.444215 7.247995 
L 204.456494 1.645585 
" clip-path="url(#p0f93058cc0)" style="fill: none; stroke: #000000; stroke-width: 1.5; stroke-linecap: square"/>
   </g>
   <g id="line2d_15">
    <path d="M 186.690118 346.6 
L 187.101869 342.26844 
L 187.659735 336.399768 
L 188.199685 330.719571 
L 188.722882 325.215614 
L 189.230398 319.876616 
L 189.723224 314.692159 
L 190.202276 309.652603 
L 190.668403 304.749011 
L 191.122395 299.973084 
L 191.564985 295.317099 
L 191.996858 290.773861 
L 192.418652 286.336654 
L 192.830963 281.999196 
L 193.234352 277.755605 
L 193.629342 273.600362 
L 194.016428 269.528282 
L 194.396072 265.534484 
L 194.768711 261.614366 
L 195.13476 257.763584 
L 195.494609 253.97803 
L 195.848627 250.253809 
L 196.197166 246.587228 
L 196.54056 242.974774 
L 196.879127 239.413105 
L 197.213169 235.899032 
L 197.542976 232.429506 
L 197.868826 229.001612 
L 198.190984 225.612551 
L 198.509707 222.259638 
L 198.825239 218.940285 
L 199.137818 215.651998 
L 199.447673 212.392367 
L 199.755026 209.159056 
L 200.060093 205.949803 
L 200.363082 202.762404 
L 200.664197 199.594714 
L 200.963638 196.444638 
L 201.2616 193.310125 
L 201.558273 190.189164 
L 201.853846 187.079776 
L 202.148505 183.980013 
L 202.442431 180.88795 
L 202.735807 177.801679 
L 203.028812 174.71931 
L 203.321625 171.638959 
L 203.614425 168.558748 
L 203.90739 165.4768 
L 204.200698 162.391233 
L 204.494531 159.300158 
L 204.789068 156.201669 
L 205.084493 153.093845 
L 205.38099 149.97474 
L 205.678746 146.842382 
L 205.977954 143.694765 
L 206.278806 140.529843 
L 206.581502 137.345528 
L 206.886244 134.139683 
L 207.193241 130.910115 
L 207.502708 127.654569 
L 207.814865 124.370721 
L 208.129941 121.056174 
L 208.44817 117.708444 
L 208.769799 114.324962 
L 209.09508 110.903053 
L 209.424277 107.43994 
L 209.757668 103.932723 
L 210.095538 100.378375 
L 210.43819 96.77373 
L 210.785938 93.115467 
L 211.139115 89.400102 
L 211.498068 85.623968 
L 211.863164 81.783202 
L 212.234792 77.87373 
L 212.613361 73.891244 
L 212.999304 69.831181 
L 213.393081 65.688704 
L 213.79518 61.458676 
L 214.206122 57.135629 
L 214.62646 52.713737 
L 215.056785 48.186782 
L 215.497729 43.548114 
L 215.949969 38.790612 
L 216.414232 33.906637 
L 216.891297 28.887979 
L 217.382005 23.7258 
L 217.887262 18.41057 
L 218.408047 12.931992 
L 218.945418 7.278921 
" clip-path="url(#p0f93058cc0)" style="fill: none; stroke: #000000; stroke-width: 1.5; stroke-linecap: square"/>
   </g>
   <g id="line2d_16">
    <path d="M 228.032627 346.6 
L 228.039849 346.137618 
L 228.131882 340.244456 
L 228.220909 334.543868 
L 228.307125 329.023257 
L 228.390711 323.671022 
L 228.471835 318.476458 
L 228.550651 313.429671 
L 228.627302 308.521494 
L 228.701922 303.743423 
L 228.774633 299.087554 
L 228.84555 294.546526 
L 228.914781 290.113475 
L 228.982427 285.781986 
L 229.048579 281.546058 
L 229.113328 277.400066 
L 229.176754 273.338726 
L 229.238936 269.357071 
L 229.299946 265.450423 
L 229.359854 261.614366 
L 229.418725 257.844729 
L 229.47662 254.137562 
L 229.533598 250.489121 
L 229.589714 246.89585 
L 229.645022 243.354366 
L 229.699571 239.861444 
L 229.75341 236.414007 
L 229.806584 233.009111 
L 229.859138 229.643936 
L 229.911115 226.315776 
L 229.962553 223.022027 
L 230.013494 219.760183 
L 230.063974 216.527821 
L 230.11403 213.322601 
L 230.163698 210.142252 
L 230.213011 206.98457 
L 230.262005 203.84741 
L 230.31071 200.728678 
L 230.35916 197.626328 
L 230.407385 194.538355 
L 230.455416 191.462791 
L 230.503284 188.397696 
L 230.551018 185.34116 
L 230.598648 182.29129 
L 230.646203 179.246212 
L 230.693713 176.204064 
L 230.741205 173.162988 
L 230.78871 170.121133 
L 230.836256 167.076642 
L 230.883872 164.027654 
L 230.931588 160.972298 
L 230.979433 157.908683 
L 231.027436 154.834902 
L 231.075629 151.749022 
L 231.124041 148.649078 
L 231.172704 145.533072 
L 231.221649 142.398964 
L 231.27091 139.244669 
L 231.32052 136.06805 
L 231.370512 132.866912 
L 231.420923 129.638996 
L 231.471788 126.381973 
L 231.523145 123.093434 
L 231.575034 119.770886 
L 231.627493 116.411742 
L 231.680567 113.013312 
L 231.734298 109.572795 
L 231.788732 106.087267 
L 231.843916 102.553673 
L 231.899901 98.968812 
L 231.956739 95.329328 
L 232.014485 91.631692 
L 232.073198 87.872191 
L 232.132937 84.046909 
L 232.193769 80.151712 
L 232.255761 76.182223 
L 232.318985 72.133807 
L 232.383519 68.001544 
L 232.449444 63.780203 
L 232.516847 59.464216 
L 232.585821 55.047641 
L 232.656465 50.524133 
L 232.728885 45.886901 
L 232.803195 41.128666 
L 232.879516 36.241614 
L 232.95798 31.217338 
L 233.038729 26.046782 
L 233.121915 20.720172 
L 233.207704 15.226935 
L 233.296273 9.555619 
" clip-path="url(#p0f93058cc0)" style="fill: none; stroke: #000000; stroke-width: 1.5; stroke-linecap: square"/>
   </g>
   <g id="line2d_17">
    <path d="M 268.869122 346.6 
L 268.523504 341.101062 
L 268.160748 335.329465 
L 267.809529 329.741416 
L 267.4691 324.325048 
L 267.138773 319.069416 
L 266.817914 313.964404 
L 266.505932 309.000649 
L 266.202283 304.169464 
L 265.906459 299.46278 
L 265.617988 294.873084 
L 265.33643 290.393373 
L 265.061373 286.017106 
L 264.792434 281.738163 
L 264.529251 277.550812 
L 264.271487 273.449671 
L 264.018823 269.42968 
L 263.77096 265.486076 
L 263.527615 261.614366 
L 263.288523 257.810305 
L 263.05343 254.069876 
L 262.822097 250.389273 
L 262.594297 246.764881 
L 262.369815 243.193264 
L 262.148443 239.671146 
L 261.929986 236.195403 
L 261.714256 232.763048 
L 261.501073 229.37122 
L 261.290265 226.017175 
L 261.081666 222.698274 
L 260.875116 219.411975 
L 260.670461 216.155828 
L 260.467552 212.927461 
L 260.266245 209.724577 
L 260.066399 206.544948 
L 259.867878 203.386402 
L 259.67055 200.246825 
L 259.474284 197.124151 
L 259.278953 194.016354 
L 259.084433 190.921448 
L 258.890599 187.837478 
L 258.697332 184.762516 
L 258.504512 181.694657 
L 258.312019 178.632013 
L 258.119736 175.572708 
L 257.927545 172.514876 
L 257.73533 169.456651 
L 257.542973 166.396171 
L 257.350357 163.331564 
L 257.157363 160.260952 
L 256.963873 157.182438 
L 256.769765 154.094109 
L 256.574919 150.994026 
L 256.379211 147.880221 
L 256.182514 144.750693 
L 255.984701 141.603399 
L 255.78564 138.436254 
L 255.585197 135.24712 
L 255.383234 132.033803 
L 255.179609 128.794046 
L 254.974176 125.525522 
L 254.766784 122.225827 
L 254.557276 118.892472 
L 254.345491 115.522877 
L 254.131259 112.11436 
L 253.914406 108.664128 
L 253.694747 105.169269 
L 253.472092 101.626739 
L 253.246241 98.033353 
L 253.016984 94.385768 
L 252.784099 90.680476 
L 252.547356 86.913783 
L 252.306508 83.081796 
L 252.061298 79.180405 
L 251.811453 75.205264 
L 251.556683 71.151769 
L 251.296682 67.015034 
L 251.031122 62.78987 
L 250.759657 58.470749 
L 250.481917 54.051782 
L 250.197506 49.526675 
L 249.906 44.888699 
L 249.606947 40.130643 
L 249.299861 35.244767 
L 248.984217 30.222748 
L 248.659454 25.055624 
L 248.324963 19.733725 
L 247.980086 14.246597 
L 247.624114 8.582919 
" clip-path="url(#p0f93058cc0)" style="fill: none; stroke: #000000; stroke-width: 1.5; stroke-linecap: square"/>
   </g>
   <g id="line2d_18">
    <path d="M 311.780997 346.6 
L 311.549359 345.005888 
L 310.663311 338.908198 
L 309.80637 333.010817 
L 308.976627 327.300612 
L 308.172326 321.765493 
L 307.391845 316.394304 
L 306.633687 311.176739 
L 305.896465 306.103252 
L 305.178892 301.164989 
L 304.479773 296.353723 
L 303.797995 291.661795 
L 303.13252 287.082064 
L 302.482379 282.607859 
L 301.846665 278.23294 
L 301.224528 273.95146 
L 300.615171 269.757928 
L 300.017844 265.647183 
L 299.431841 261.614366 
L 298.856494 257.654891 
L 298.291176 253.764428 
L 297.73529 249.938878 
L 297.188272 246.174354 
L 296.649585 242.467168 
L 296.118721 238.813812 
L 295.595192 235.210941 
L 295.078536 231.655367 
L 294.568309 228.144037 
L 294.064087 224.674032 
L 293.565462 221.242547 
L 293.072043 217.846888 
L 292.583453 214.484459 
L 292.099327 211.152754 
L 291.619313 207.849351 
L 291.143072 204.571904 
L 290.67027 201.318132 
L 290.200587 198.085819 
L 289.733707 194.872802 
L 289.269324 191.676968 
L 288.807138 188.496246 
L 288.346852 185.328605 
L 287.888176 182.172045 
L 287.430824 179.024595 
L 286.974512 175.884304 
L 286.51896 172.749241 
L 286.063889 169.617486 
L 285.60902 166.487129 
L 285.154078 163.356261 
L 284.698784 160.222973 
L 284.24286 157.085351 
L 283.786026 153.941469 
L 283.328001 150.789386 
L 282.868499 147.627142 
L 282.407232 144.452749 
L 281.943907 141.264193 
L 281.478226 138.059421 
L 281.009884 134.83634 
L 280.538571 131.592813 
L 280.063968 128.326647 
L 279.58575 125.035594 
L 279.103578 121.717338 
L 278.617107 118.369492 
L 278.125978 114.989592 
L 277.62982 111.575085 
L 277.128248 108.123322 
L 276.620864 104.631552 
L 276.107249 101.09691 
L 275.586971 97.516406 
L 275.059574 93.886916 
L 274.524584 90.205171 
L 273.981503 86.46774 
L 273.429806 82.67102 
L 272.868943 78.811219 
L 272.298333 74.884338 
L 271.717362 70.886158 
L 271.125383 66.812213 
L 270.521707 62.657776 
L 269.905605 58.417828 
L 269.276303 54.087035 
L 268.632975 49.65972 
L 267.974743 45.12983 
L 267.300665 40.490899 
L 266.609738 35.73601 
L 265.900885 30.85775 
L 265.172948 25.848164 
L 264.424685 20.698696 
L 263.654757 15.400131 
L 262.861719 9.942525 
L 262.044009 4.315127 
" clip-path="url(#p0f93058cc0)" style="fill: none; stroke: #000000; stroke-width: 1.5; stroke-linecap: square"/>
   </g>
   <g id="line2d_19">
    <path d="M 359.908723 346.6 
L 359.772314 346.026344 
L 358.221226 339.503357 
L 356.722492 333.200544 
L 355.272637 327.103288 
L 353.868467 321.198155 
L 352.507039 315.472773 
L 351.185638 309.915722 
L 349.901755 304.516445 
L 348.653062 299.265162 
L 347.437403 294.1528 
L 346.252772 289.170921 
L 345.0973 284.311671 
L 343.969245 279.567722 
L 342.86698 274.932227 
L 341.78898 270.39878 
L 340.733818 265.961373 
L 339.700151 261.614366 
L 338.686719 257.352454 
L 337.692334 253.170641 
L 336.715874 249.064211 
L 335.756279 245.028707 
L 334.812546 241.05991 
L 333.883725 237.153821 
L 332.968911 233.306639 
L 332.067245 229.51475 
L 331.177907 225.774707 
L 330.300115 222.083221 
L 329.433122 218.437145 
L 328.57621 214.833466 
L 327.728691 211.269289 
L 326.889904 207.741831 
L 326.05921 204.248411 
L 325.235994 200.786439 
L 324.419661 197.35341 
L 323.609633 193.946897 
L 322.805349 190.564542 
L 322.006263 187.204047 
L 321.211843 183.863174 
L 320.421569 180.539732 
L 319.634928 177.231575 
L 318.851421 173.936596 
L 318.070555 170.652719 
L 317.291841 167.377897 
L 316.514799 164.110104 
L 315.738951 160.847333 
L 314.963822 157.587587 
L 314.18894 154.328879 
L 313.413832 151.069221 
L 312.638026 147.806627 
L 311.861047 144.539101 
L 311.082418 141.264635 
L 310.301658 137.981205 
L 309.518279 134.686764 
L 308.731789 131.379239 
L 307.941687 128.056524 
L 307.147462 124.716474 
L 306.348596 121.356901 
L 305.544555 117.975568 
L 304.734795 114.570181 
L 303.918755 111.138385 
L 303.095858 107.677755 
L 302.265511 104.185791 
L 301.427097 100.659906 
L 300.579981 97.097424 
L 299.723502 93.495566 
L 298.856973 89.851443 
L 297.979679 86.162046 
L 297.090872 82.424236 
L 296.189772 78.634729 
L 295.275562 74.790087 
L 294.347384 70.886702 
L 293.404336 66.920783 
L 292.445468 62.88834 
L 291.469782 58.785163 
L 290.476219 54.606807 
L 289.46366 50.348569 
L 288.430922 46.005465 
L 287.376745 41.572203 
L 286.299793 37.043161 
L 285.19864 32.412347 
L 284.071769 27.673373 
L 282.917555 22.819413 
L 281.734261 17.843162 
L 280.520027 12.736788 
L 279.272851 7.491884 
L 277.990584 2.099405 
L 277.253582 -1 
" clip-path="url(#p0f93058cc0)" style="fill: none; stroke: #000000; stroke-width: 1.5; stroke-linecap: square"/>
   </g>
   <g id="line2d_20">
    <path d="M 417.994462 346.6 
L 416.892383 343.445816 
L 414.41215 336.34731 
L 412.018179 329.495689 
L 409.704662 322.874331 
L 407.466269 316.467979 
L 405.2981 310.262611 
L 403.19564 304.245304 
L 401.154722 298.404132 
L 399.171492 292.728065 
L 397.24238 287.206885 
L 395.364071 281.831105 
L 393.533484 276.591907 
L 391.747749 271.481077 
L 390.004188 266.490951 
L 388.300299 261.614366 
L 386.633739 256.844618 
L 385.002311 252.175422 
L 383.403954 247.600872 
L 381.836725 243.115415 
L 380.298798 238.713817 
L 378.788445 234.391141 
L 377.304037 230.142716 
L 375.844027 225.964123 
L 374.406952 221.851169 
L 372.99142 217.79987 
L 371.596105 213.806436 
L 370.219746 209.867253 
L 368.861137 205.978871 
L 367.519124 202.137988 
L 366.192602 198.34144 
L 364.88051 194.58619 
L 363.581826 190.869315 
L 362.295567 187.188 
L 361.020781 183.539524 
L 359.75655 179.921256 
L 358.501983 176.330643 
L 357.256211 172.765206 
L 356.018393 169.222531 
L 354.787704 165.700261 
L 353.56334 162.196093 
L 352.344512 158.707767 
L 351.130443 155.233064 
L 349.920371 151.7698 
L 348.713542 148.315816 
L 347.50921 144.86898 
L 346.306635 141.427174 
L 345.105083 137.988293 
L 343.903821 134.550242 
L 342.702116 131.110924 
L 341.499235 127.668241 
L 340.294442 124.220087 
L 339.086998 120.764342 
L 337.876153 117.298867 
L 336.661154 113.8215 
L 335.441233 110.33005 
L 334.215614 106.822288 
L 332.983503 103.295948 
L 331.744092 99.748715 
L 330.496554 96.17822 
L 329.24004 92.582038 
L 327.973679 88.957673 
L 326.696574 85.302557 
L 325.407798 81.614042 
L 324.106396 77.889387 
L 322.791375 74.125755 
L 321.461706 70.320201 
L 320.11632 66.469662 
L 318.7541 62.570945 
L 317.373882 58.62072 
L 315.974451 54.615502 
L 314.55453 50.551644 
L 313.112781 46.425314 
L 311.647799 42.232488 
L 310.158101 37.968926 
L 308.642126 33.630158 
L 307.098224 29.21146 
L 305.524648 24.707835 
L 303.919546 20.113984 
L 302.280955 15.424283 
L 300.606783 10.632751 
L 298.894805 5.733017 
L 297.142647 0.718285 
L 296.542275 -1 
" clip-path="url(#p0f93058cc0)" style="fill: none; stroke: #000000; stroke-width: 1.5; stroke-linecap: square"/>
   </g>
   <g id="line2d_21">
    <path d="M 461.8 280.478846 
L 461.244948 279.361325 
L 458.224961 273.281 
L 455.288474 267.368792 
L 452.430355 261.614366 
L 449.645834 256.008118 
L 446.93047 250.541111 
L 444.280125 245.205009 
L 441.690932 239.992028 
L 439.159274 234.894886 
L 436.681762 229.906759 
L 434.255214 225.021243 
L 431.876641 220.232315 
L 429.543225 215.534305 
L 427.252309 210.921866 
L 425.001386 206.389944 
L 422.78808 201.933758 
L 420.610139 197.548777 
L 418.465428 193.230698 
L 416.351912 188.975429 
L 414.267658 184.779071 
L 412.210815 180.637904 
L 410.179618 176.548371 
L 408.172376 172.507067 
L 406.187464 168.510722 
L 404.223322 164.556195 
L 402.278448 160.640461 
L 400.35139 156.760598 
L 398.440747 152.913784 
L 396.545161 149.097283 
L 394.663311 145.308439 
L 392.793914 141.544669 
L 390.93572 137.803452 
L 389.087504 134.082327 
L 387.24807 130.378881 
L 385.416242 126.690749 
L 383.590862 123.0156 
L 381.770791 119.351139 
L 379.954899 115.695094 
L 378.142071 112.045217 
L 376.331196 108.399271 
L 374.521169 104.755033 
L 372.710887 101.11028 
L 370.899245 97.462791 
L 369.085138 93.810338 
L 367.267451 90.150678 
L 365.445063 86.481553 
L 363.616841 82.800682 
L 361.781637 79.105753 
L 359.938285 75.39442 
L 358.085601 71.664297 
L 356.222375 67.91295 
L 354.347371 64.13789 
L 352.459324 60.336569 
L 350.556934 56.506371 
L 348.638865 52.644604 
L 346.703737 48.748493 
L 344.750127 44.815171 
L 342.776561 40.841669 
L 340.78151 36.824911 
L 338.763385 32.761696 
L 336.720531 28.648694 
L 334.651224 24.482431 
L 332.55366 20.259276 
L 330.42595 15.975429 
L 328.266116 11.626902 
L 326.072077 7.209509 
L 323.841645 2.718843 
L 321.994563 -1 
" clip-path="url(#p0f93058cc0)" style="fill: none; stroke: #000000; stroke-width: 1.5; stroke-linecap: square"/>
   </g>
   <g id="line2d_22">
    <path clip-path="url(#p0f93058cc0)" style="fill: none; stroke: #000000; stroke-width: 1.5; stroke-linecap: square"/>
   </g>
   <g id="line2d_23">
    <path clip-path="url(#p0f93058cc0)" style="fill: none; stroke: #000000; stroke-width: 1.5; stroke-linecap: square"/>
   </g>
   <g id="line2d_24">
    <path d="M -1 325.854649 
L 5.197477 324.911113 
L 13.691409 323.638065 
L 21.84373 322.435965 
L 29.679777 321.299901 
L 37.22256 320.225428 
L 44.493027 319.20851 
L 51.510296 318.245477 
L 58.291853 317.332984 
L 64.853731 316.467979 
L 71.210657 315.64767 
L 77.376191 314.869501 
L 83.362846 314.131126 
L 89.182184 313.430392 
L 94.844919 312.765317 
L 100.360992 312.134077 
L 105.739644 311.53499 
L 110.989487 310.966506 
L 116.118555 310.427191 
L 121.134362 309.915722 
L 126.043943 309.430873 
L 130.853902 308.971512 
L 135.570446 308.53659 
L 140.199423 308.125134 
L 144.746347 307.736247 
L 149.216435 307.369095 
L 153.614625 307.022907 
L 157.945603 306.696968 
L 162.213825 306.39062 
L 166.423535 306.103252 
L 170.578784 305.8343 
L 174.683448 305.583245 
L 178.74124 305.349609 
L 182.755727 305.132954 
L 186.730344 304.932877 
L 190.668403 304.749011 
L 194.573109 304.581024 
L 198.447565 304.428613 
L 202.294788 304.291507 
L 206.117717 304.169464 
L 209.919219 304.06227 
L 213.702101 303.969739 
L 217.46912 303.891711 
L 221.222985 303.828051 
L 224.96637 303.77865 
L 228.701922 303.743423 
L 232.432262 303.722311 
L 236.16 303.715278 
L 239.887738 303.722311 
L 243.618078 303.743423 
L 247.35363 303.77865 
L 251.097015 303.828051 
L 254.85088 303.891711 
L 258.617899 303.969739 
L 262.400781 304.06227 
L 266.202283 304.169464 
L 270.025212 304.291507 
L 273.872435 304.428613 
L 277.746891 304.581024 
L 281.651597 304.749011 
L 285.589656 304.932877 
L 289.564273 305.132954 
L 293.57876 305.349609 
L 297.636552 305.583245 
L 301.741216 305.8343 
L 305.896465 306.103252 
L 310.106175 306.39062 
L 314.374397 306.696968 
L 318.705375 307.022907 
L 323.103565 307.369095 
L 327.573653 307.736247 
L 332.120577 308.125134 
L 336.749554 308.53659 
L 341.466098 308.971512 
L 346.276057 309.430873 
L 351.185638 309.915722 
L 356.201445 310.427191 
L 361.330513 310.966506 
L 366.580356 311.53499 
L 371.959008 312.134077 
L 377.475081 312.765317 
L 383.137816 313.430392 
L 388.957154 314.131126 
L 394.943809 314.869501 
L 401.109343 315.64767 
L 407.466269 316.467979 
L 414.028147 317.332984 
L 420.809704 318.245477 
L 427.826973 319.20851 
L 435.09744 320.225428 
L 442.640223 321.299901 
L 450.47627 322.435965 
L 458.628591 323.638065 
L 461.8 324.113387 
" clip-path="url(#p0f93058cc0)" style="fill: none; stroke: #000000; stroke-width: 1.5; stroke-linecap: square"/>
   </g>
   <g id="line2d_25">
    <path d="M -1 261.614366 
L 4.088986 261.614366 
L 12.147952 261.614366 
L 19.889645 261.614366 
L 27.336888 261.614366 
L 34.510455 261.614366 
L 41.429298 261.614366 
L 48.110747 261.614366 
L 54.570682 261.614366 
L 60.823688 261.614366 
L 66.883183 261.614366 
L 72.76154 261.614366 
L 78.470186 261.614366 
L 84.019701 261.614366 
L 89.419891 261.614366 
L 94.679863 261.614366 
L 99.808094 261.614366 
L 104.812483 261.614366 
L 109.700403 261.614366 
L 114.478752 261.614366 
L 119.15399 261.614366 
L 123.732177 261.614366 
L 128.219009 261.614366 
L 132.619849 261.614366 
L 136.939751 261.614366 
L 141.18349 261.614366 
L 145.355582 261.614366 
L 149.460305 261.614366 
L 153.501721 261.614366 
L 157.483689 261.614366 
L 161.409887 261.614366 
L 165.283821 261.614366 
L 169.108842 261.614366 
L 172.888159 261.614366 
L 176.62485 261.614366 
L 180.32187 261.614366 
L 183.982066 261.614366 
L 187.608183 261.614366 
L 191.202875 261.614366 
L 194.768711 261.614366 
L 198.308186 261.614366 
L 201.823723 261.614366 
L 205.317687 261.614366 
L 208.792385 261.614366 
L 212.250076 261.614366 
L 215.692978 261.614366 
L 219.123271 261.614366 
L 222.543103 261.614366 
L 225.954596 261.614366 
L 229.359854 261.614366 
L 232.760963 261.614366 
L 236.16 261.614366 
L 239.559037 261.614366 
L 242.960146 261.614366 
L 246.365404 261.614366 
L 249.776897 261.614366 
L 253.196729 261.614366 
L 256.627022 261.614366 
L 260.069924 261.614366 
L 263.527615 261.614366 
L 267.002313 261.614366 
L 270.496277 261.614366 
L 274.011814 261.614366 
L 277.551289 261.614366 
L 281.117125 261.614366 
L 284.711817 261.614366 
L 288.337934 261.614366 
L 291.99813 261.614366 
L 295.69515 261.614366 
L 299.431841 261.614366 
L 303.211158 261.614366 
L 307.036179 261.614366 
L 310.910113 261.614366 
L 314.836311 261.614366 
L 318.818279 261.614366 
L 322.859695 261.614366 
L 326.964418 261.614366 
L 331.13651 261.614366 
L 335.380249 261.614366 
L 339.700151 261.614366 
L 344.100991 261.614366 
L 348.587823 261.614366 
L 353.16601 261.614366 
L 357.841248 261.614366 
L 362.619597 261.614366 
L 367.507517 261.614366 
L 372.511906 261.614366 
L 377.640137 261.614366 
L 382.900109 261.614366 
L 388.300299 261.614366 
L 393.849814 261.614366 
L 399.55846 261.614366 
L 405.436817 261.614366 
L 411.496312 261.614366 
L 417.749318 261.614366 
L 424.209253 261.614366 
L 430.890702 261.614366 
L 437.809545 261.614366 
L 444.983112 261.614366 
L 452.430355 261.614366 
" clip-path="url(#p0f93058cc0)" style="fill: none; stroke: #000000; stroke-width: 1.5; stroke-linecap: square"/>
   </g>
   <g id="line2d_26">
    <path d="M 18.137261 207.07079 
L 25.236601 208.109149 
L 32.080228 209.094942 
L 38.685339 210.031499 
L 45.067691 210.921866 
L 51.241745 211.768828 
L 57.220808 212.574944 
L 63.017142 213.342561 
L 68.642069 214.073839 
L 74.106061 214.77077 
L 79.418823 215.435191 
L 84.589364 216.068798 
L 89.626059 216.673163 
L 94.536706 217.249737 
L 99.32858 217.79987 
L 104.008478 218.324813 
L 108.582759 218.825726 
L 113.05738 219.303691 
L 117.437935 219.759712 
L 121.729677 220.194726 
L 125.937555 220.609604 
L 130.066231 221.00516 
L 134.120108 221.38215 
L 138.103345 221.741284 
L 142.019885 222.083221 
L 145.873461 222.408576 
L 149.667621 222.717927 
L 153.405739 223.01181 
L 157.091027 223.290725 
L 160.72655 223.555143 
L 164.315235 223.805498 
L 167.859882 224.042198 
L 171.363177 224.265623 
L 174.827695 224.476125 
L 178.255913 224.674032 
L 181.650217 224.85965 
L 185.012908 225.03326 
L 188.34621 225.195124 
L 191.652274 225.345482 
L 194.93319 225.484557 
L 198.190984 225.612551 
L 201.427632 225.72965 
L 204.645059 225.836022 
L 207.845146 225.931818 
L 211.029735 226.017175 
L 214.200634 226.092212 
L 217.359619 226.157035 
L 220.508441 226.211734 
L 223.648827 226.256385 
L 226.782487 226.291049 
L 229.911115 226.315776 
L 233.036394 226.330598 
L 236.16 226.335536 
L 239.283606 226.330598 
L 242.408885 226.315776 
L 245.537513 226.291049 
L 248.671173 226.256385 
L 251.811559 226.211734 
L 254.960381 226.157035 
L 258.119366 226.092212 
L 261.290265 226.017175 
L 264.474854 225.931818 
L 267.674941 225.836022 
L 270.892368 225.72965 
L 274.129016 225.612551 
L 277.38681 225.484557 
L 280.667726 225.345482 
L 283.97379 225.195124 
L 287.307092 225.03326 
L 290.669783 224.85965 
L 294.064087 224.674032 
L 297.492305 224.476125 
L 300.956823 224.265623 
L 304.460118 224.042198 
L 308.004765 223.805498 
L 311.59345 223.555143 
L 315.228973 223.290725 
L 318.914261 223.01181 
L 322.652379 222.717927 
L 326.446539 222.408576 
L 330.300115 222.083221 
L 334.216655 221.741284 
L 338.199892 221.38215 
L 342.253769 221.00516 
L 346.382445 220.609604 
L 350.590323 220.194726 
L 354.882065 219.759712 
L 359.26262 219.303691 
L 363.737241 218.825726 
L 368.311522 218.324813 
L 372.99142 217.79987 
L 377.783294 217.249737 
L 382.693941 216.673163 
L 387.730636 216.068798 
L 392.901177 215.435191 
L 398.213939 214.77077 
L 403.677931 214.073839 
L 409.302858 213.342561 
L 415.099192 212.574944 
L 421.078255 211.768828 
L 427.252309 210.921866 
" clip-path="url(#p0f93058cc0)" style="fill: none; stroke: #000000; stroke-width: 1.5; stroke-linecap: square"/>
   </g>
   <g id="line2d_27">
    <path d="M 43.781804 162.269652 
L 49.62841 163.942191 
L 55.295263 165.537021 
L 60.793273 167.058518 
L 66.132536 168.510722 
L 71.322408 169.897362 
L 76.371575 171.221889 
L 81.288113 172.487497 
L 86.079545 173.69715 
L 90.752884 174.853598 
L 95.314685 175.959395 
L 99.771075 177.016921 
L 104.127797 178.028387 
L 108.390235 178.995857 
L 112.56345 179.921256 
L 116.652198 180.806378 
L 120.660962 181.652901 
L 124.59397 182.462394 
L 128.455211 183.236322 
L 132.248462 183.976057 
L 135.977297 184.682884 
L 139.645103 185.358005 
L 143.255098 186.002547 
L 146.810339 186.617565 
L 150.313737 187.204047 
L 153.768066 187.762921 
L 157.175973 188.295056 
L 160.539989 188.801263 
L 163.862534 189.282306 
L 167.14593 189.738897 
L 170.392402 190.171704 
L 173.60409 190.581351 
L 176.783053 190.968421 
L 179.931276 191.333457 
L 183.050676 191.676968 
L 186.143102 191.999423 
L 189.21035 192.301263 
L 192.254157 192.582892 
L 195.276213 192.844686 
L 198.27816 193.086991 
L 201.2616 193.310125 
L 204.228095 193.514377 
L 207.179175 193.700011 
L 210.116335 193.867266 
L 213.041047 194.016354 
L 215.954752 194.147465 
L 218.858875 194.260764 
L 221.754819 194.356394 
L 224.643971 194.434474 
L 227.527705 194.495103 
L 230.407385 194.538355 
L 233.284366 194.564285 
L 236.16 194.572925 
L 239.035634 194.564285 
L 241.912615 194.538355 
L 244.792295 194.495103 
L 247.676029 194.434474 
L 250.565181 194.356394 
L 253.461125 194.260764 
L 256.365248 194.147465 
L 259.278953 194.016354 
L 262.203665 193.867266 
L 265.140825 193.700011 
L 268.091905 193.514377 
L 271.0584 193.310125 
L 274.04184 193.086991 
L 277.043787 192.844686 
L 280.065843 192.582892 
L 283.10965 192.301263 
L 286.176898 191.999423 
L 289.269324 191.676968 
L 292.388724 191.333457 
L 295.536947 190.968421 
L 298.71591 190.581351 
L 301.927598 190.171704 
L 305.17407 189.738897 
L 308.457466 189.282306 
L 311.780011 188.801263 
L 315.144027 188.295056 
L 318.551934 187.762921 
L 322.006263 187.204047 
L 325.509661 186.617565 
L 329.064902 186.002547 
L 332.674897 185.358005 
L 336.342703 184.682884 
L 340.071538 183.976057 
L 343.864789 183.236322 
L 347.72603 182.462394 
L 351.659038 181.652901 
L 355.667802 180.806378 
L 359.75655 179.921256 
L 363.929765 178.995857 
L 368.192203 178.028387 
L 372.548925 177.016921 
L 377.005315 175.959395 
L 381.567116 174.853598 
L 386.240455 173.69715 
L 391.031887 172.487497 
L 395.948425 171.221889 
L 400.997592 169.897362 
L 406.187464 168.510722 
" clip-path="url(#p0f93058cc0)" style="fill: none; stroke: #000000; stroke-width: 1.5; stroke-linecap: square"/>
   </g>
   <g id="line2d_28">
    <path d="M 66.477847 122.619555 
L 71.30726 124.687667 
L 76.011594 126.667371 
L 80.597688 128.563076 
L 85.07193 130.378881 
L 89.440294 132.118606 
L 93.708374 133.785809 
L 97.881414 135.383811 
L 101.96434 136.915713 
L 105.961779 138.384413 
L 109.87809 139.792622 
L 113.717378 141.14288 
L 117.483517 142.437562 
L 121.180168 143.678899 
L 124.81079 144.86898 
L 128.378662 146.009768 
L 131.886891 147.103104 
L 135.338426 148.150719 
L 138.736068 149.15424 
L 142.082483 150.115194 
L 145.380211 151.035018 
L 148.631672 151.915065 
L 151.839177 152.756606 
L 155.004935 153.560835 
L 158.13106 154.328879 
L 161.219577 155.061793 
L 164.272427 155.760573 
L 167.291477 156.426154 
L 170.27852 157.059413 
L 173.235283 157.661176 
L 176.163431 158.232215 
L 179.06457 158.773256 
L 181.940253 159.28498 
L 184.791983 159.768021 
L 187.621216 160.222973 
L 190.429366 160.65039 
L 193.217806 161.050788 
L 195.987873 161.424645 
L 198.740867 161.772405 
L 201.478062 162.094475 
L 204.200698 162.391233 
L 206.909993 162.663023 
L 209.607138 162.910157 
L 212.293304 163.13292 
L 214.969643 163.331564 
L 217.637289 163.506317 
L 220.297361 163.657374 
L 222.950965 163.784906 
L 225.599195 163.889057 
L 228.243139 163.969943 
L 230.883872 164.027654 
L 233.52247 164.062256 
L 236.16 164.073785 
L 238.79753 164.062256 
L 241.436128 164.027654 
L 244.076861 163.969943 
L 246.720805 163.889057 
L 249.369035 163.784906 
L 252.022639 163.657374 
L 254.682711 163.506317 
L 257.350357 163.331564 
L 260.026696 163.13292 
L 262.712862 162.910157 
L 265.410007 162.663023 
L 268.119302 162.391233 
L 270.841938 162.094475 
L 273.579133 161.772405 
L 276.332127 161.424645 
L 279.102194 161.050788 
L 281.890634 160.65039 
L 284.698784 160.222973 
L 287.528017 159.768021 
L 290.379747 159.28498 
L 293.25543 158.773256 
L 296.156569 158.232215 
L 299.084717 157.661176 
L 302.04148 157.059413 
L 305.028523 156.426154 
L 308.047573 155.760573 
L 311.100423 155.061793 
L 314.18894 154.328879 
L 317.315065 153.560835 
L 320.480823 152.756606 
L 323.688328 151.915065 
L 326.939789 151.035018 
L 330.237517 150.115194 
L 333.583932 149.15424 
L 336.981574 148.150719 
L 340.433109 147.103104 
L 343.941338 146.009768 
L 347.50921 144.86898 
L 351.139832 143.678899 
L 354.836483 142.437562 
L 358.602622 141.14288 
L 362.44191 139.792622 
L 366.358221 138.384413 
L 370.35566 136.915713 
L 374.438586 135.383811 
L 378.611626 133.785809 
L 382.879706 132.118606 
L 387.24807 130.378881 
" clip-path="url(#p0f93058cc0)" style="fill: none; stroke: #000000; stroke-width: 1.5; stroke-linecap: square"/>
   </g>
   <g id="line2d_29">
    <path d="M 87.929628 85.143191 
L 91.877086 87.441286 
L 95.741105 89.649271 
L 99.525753 91.771063 
L 103.234862 93.810338 
L 106.872051 95.770542 
L 110.440737 97.654914 
L 113.944152 99.466498 
L 117.385358 101.208156 
L 120.767255 102.882582 
L 124.092594 104.492312 
L 127.363989 106.039736 
L 130.583925 107.527104 
L 133.754767 108.956541 
L 136.878767 110.33005 
L 139.958073 111.649519 
L 142.994736 112.916732 
L 145.990714 114.133374 
L 148.947883 115.301035 
L 151.868037 116.421216 
L 154.752894 117.495336 
L 157.604105 118.524734 
L 160.423254 119.510675 
L 163.211865 120.454355 
L 165.971404 121.356901 
L 168.703283 122.219378 
L 171.408863 123.04279 
L 174.089461 123.828086 
L 176.746348 124.576158 
L 179.380752 125.287847 
L 181.993866 125.963945 
L 184.586844 126.605197 
L 187.16081 127.212301 
L 189.716852 127.785913 
L 192.256032 128.326647 
L 194.779383 128.835077 
L 197.287916 129.311738 
L 199.782614 129.757127 
L 202.264442 130.171707 
L 204.734343 130.555906 
L 207.193241 130.910115 
L 209.642047 131.234697 
L 212.081652 131.529978 
L 214.512936 131.796258 
L 216.936766 132.033803 
L 219.353998 132.242851 
L 221.765477 132.423609 
L 224.17204 132.576257 
L 226.574519 132.700946 
L 228.973736 132.797799 
L 231.370512 132.866912 
L 233.765662 132.908352 
L 236.16 132.922161 
L 238.554338 132.908352 
L 240.949488 132.866912 
L 243.346264 132.797799 
L 245.745481 132.700946 
L 248.14796 132.576257 
L 250.554523 132.423609 
L 252.966002 132.242851 
L 255.383234 132.033803 
L 257.807064 131.796258 
L 260.238348 131.529978 
L 262.677953 131.234697 
L 265.126759 130.910115 
L 267.585657 130.555906 
L 270.055558 130.171707 
L 272.537386 129.757127 
L 275.032084 129.311738 
L 277.540617 128.835077 
L 280.063968 128.326647 
L 282.603148 127.785913 
L 285.15919 127.212301 
L 287.733156 126.605197 
L 290.326134 125.963945 
L 292.939248 125.287847 
L 295.573652 124.576158 
L 298.230539 123.828086 
L 300.911137 123.04279 
L 303.616717 122.219378 
L 306.348596 121.356901 
L 309.108135 120.454355 
L 311.896746 119.510675 
L 314.715895 118.524734 
L 317.567106 117.495336 
L 320.451963 116.421216 
L 323.372117 115.301035 
L 326.329286 114.133374 
L 329.325264 112.916732 
L 332.361927 111.649519 
L 335.441233 110.33005 
L 338.565233 108.956541 
L 341.736075 107.527104 
L 344.956011 106.039736 
L 348.227406 104.492312 
L 351.552745 102.882582 
L 354.934642 101.208156 
L 358.375848 99.466498 
L 361.879263 97.654914 
L 365.447949 95.770542 
L 369.085138 93.810338 
" clip-path="url(#p0f93058cc0)" style="fill: none; stroke: #000000; stroke-width: 1.5; stroke-linecap: square"/>
   </g>
   <g id="line2d_30">
    <path d="M 109.503063 47.454297 
L 112.641905 49.841824 
L 115.730109 52.144291 
L 118.769815 54.364822 
L 121.763066 56.506371 
L 124.711806 58.571735 
L 127.617893 60.563559 
L 130.483099 62.484351 
L 133.309122 64.336486 
L 136.097582 66.122216 
L 138.850033 67.843674 
L 141.567964 69.502886 
L 144.252801 71.10177 
L 146.905916 72.642151 
L 149.528625 74.125755 
L 152.122193 75.554225 
L 154.68784 76.929118 
L 157.226738 78.251913 
L 159.740018 79.524013 
L 162.228772 80.746749 
L 164.694053 81.921388 
L 167.136879 83.049128 
L 169.558235 84.131107 
L 171.959075 85.168405 
L 174.340321 86.162046 
L 176.702871 87.113 
L 179.047593 88.022185 
L 181.375334 88.890471 
L 183.686913 89.71868 
L 185.983131 90.50759 
L 188.264767 91.257936 
L 190.532582 91.970408 
L 192.787316 92.64566 
L 195.029694 93.284304 
L 197.260426 93.886916 
L 199.480205 94.454036 
L 201.689712 94.986168 
L 203.889614 95.483782 
L 206.080566 95.947316 
L 208.263214 96.377174 
L 210.43819 96.77373 
L 212.60612 97.137327 
L 214.76762 97.468279 
L 216.923299 97.766869 
L 219.073759 98.033353 
L 221.219594 98.267957 
L 223.361395 98.470881 
L 225.499747 98.642297 
L 227.63523 98.78235 
L 229.768423 98.891158 
L 231.899901 98.968812 
L 234.030236 99.015379 
L 236.16 99.030897 
L 238.289764 99.015379 
L 240.420099 98.968812 
L 242.551577 98.891158 
L 244.68477 98.78235 
L 246.820253 98.642297 
L 248.958605 98.470881 
L 251.100406 98.267957 
L 253.246241 98.033353 
L 255.396701 97.766869 
L 257.55238 97.468279 
L 259.71388 97.137327 
L 261.88181 96.77373 
L 264.056786 96.377174 
L 266.239434 95.947316 
L 268.430386 95.483782 
L 270.630288 94.986168 
L 272.839795 94.454036 
L 275.059574 93.886916 
L 277.290306 93.284304 
L 279.532684 92.64566 
L 281.787418 91.970408 
L 284.055233 91.257936 
L 286.336869 90.50759 
L 288.633087 89.71868 
L 290.944666 88.890471 
L 293.272407 88.022185 
L 295.617129 87.113 
L 297.979679 86.162046 
L 300.360925 85.168405 
L 302.761765 84.131107 
L 305.183121 83.049128 
L 307.625947 81.921388 
L 310.091228 80.746749 
L 312.579982 79.524013 
L 315.093262 78.251913 
L 317.63216 76.929118 
L 320.197807 75.554225 
L 322.791375 74.125755 
L 325.414084 72.642151 
L 328.067199 71.10177 
L 330.752036 69.502886 
L 333.469967 67.843674 
L 336.222418 66.122216 
L 339.010878 64.336486 
L 341.836901 62.484351 
L 344.702107 60.563559 
L 347.608194 58.571735 
L 350.556934 56.506371 
" clip-path="url(#p0f93058cc0)" style="fill: none; stroke: #000000; stroke-width: 1.5; stroke-linecap: square"/>
   </g>
   <g id="line2d_31">
    <path d="M 132.595813 7.111151 
L 134.956658 9.435853 
L 137.292752 11.686721 
L 139.604943 13.865897 
L 141.89405 15.975429 
L 144.160863 18.017269 
L 146.406149 19.993286 
L 148.630649 21.905265 
L 150.835083 23.75491 
L 153.020146 25.543851 
L 155.186514 27.273645 
L 157.334843 28.945781 
L 159.465769 30.561682 
L 161.579913 32.122708 
L 163.677874 33.630158 
L 165.760238 35.085273 
L 167.827575 36.489241 
L 169.88044 37.843195 
L 171.919373 39.148216 
L 173.944902 40.40534 
L 175.957541 41.615551 
L 177.957793 42.779792 
L 179.946148 43.898961 
L 181.923087 44.973913 
L 183.889078 46.005465 
L 185.844582 46.994391 
L 187.790048 47.941432 
L 189.725918 48.847289 
L 191.652624 49.712631 
L 193.570591 50.538089 
L 195.480236 51.324265 
L 197.381969 52.071725 
L 199.276193 52.781008 
L 201.163306 53.452619 
L 203.043697 54.087035 
L 204.917753 54.684705 
L 206.785852 55.246049 
L 208.64837 55.77146 
L 210.505678 56.261305 
L 212.358141 56.715923 
L 214.206122 57.135629 
L 216.049979 57.520712 
L 217.890067 57.871437 
L 219.726738 58.188044 
L 221.560343 58.470749 
L 223.391226 58.719746 
L 225.219735 58.935202 
L 227.04621 59.117266 
L 228.870995 59.266059 
L 230.694427 59.381683 
L 232.516847 59.464216 
L 234.338592 59.513713 
L 236.16 59.530209 
L 237.981408 59.513713 
L 239.803153 59.464216 
L 241.625573 59.381683 
L 243.449005 59.266059 
L 245.27379 59.117266 
L 247.100265 58.935202 
L 248.928774 58.719746 
L 250.759657 58.470749 
L 252.593262 58.188044 
L 254.429933 57.871437 
L 256.270021 57.520712 
L 258.113878 57.135629 
L 259.961859 56.715923 
L 261.814322 56.261305 
L 263.67163 55.77146 
L 265.534148 55.246049 
L 267.402247 54.684705 
L 269.276303 54.087035 
L 271.156694 53.452619 
L 273.043807 52.781008 
L 274.938031 52.071725 
L 276.839764 51.324265 
L 278.749409 50.538089 
L 280.667376 49.712631 
L 282.594082 48.847289 
L 284.529952 47.941432 
L 286.475418 46.994391 
L 288.430922 46.005465 
L 290.396913 44.973913 
L 292.373852 43.898961 
L 294.362207 42.779792 
L 296.362459 41.615551 
L 298.375098 40.40534 
L 300.400627 39.148216 
L 302.43956 37.843195 
L 304.492425 36.489241 
L 306.559762 35.085273 
L 308.642126 33.630158 
L 310.740087 32.122708 
L 312.854231 30.561682 
L 314.985157 28.945781 
L 317.133486 27.273645 
L 319.299854 25.543851 
L 321.484917 23.75491 
L 323.689351 21.905265 
L 325.913851 19.993286 
L 328.159137 18.017269 
L 330.42595 15.975429 
" clip-path="url(#p0f93058cc0)" style="fill: none; stroke: #000000; stroke-width: 1.5; stroke-linecap: square"/>
   </g>
   <g id="line2d_32">
    <path d="M 199.616332 -1 
L 200.065716 -0.734682 
L 201.532029 0.09547 
L 202.995583 0.888765 
L 204.456494 1.645585 
L 205.914876 2.366294 
L 207.370843 3.051239 
L 208.82451 3.700747 
L 210.275991 4.315127 
L 211.725402 4.894673 
L 213.172857 5.439659 
L 214.618471 5.950343 
L 216.062359 6.426968 
L 217.504637 6.869758 
L 218.945418 7.278921 
L 220.384819 7.65465 
L 221.822954 7.997122 
L 223.259938 8.306497 
L 224.695886 8.582919 
L 226.130914 8.826519 
L 227.565137 9.037409 
L 228.998669 9.215689 
L 230.431625 9.361441 
L 231.864122 9.474733 
L 233.296273 9.555619 
L 234.728194 9.604135 
L 236.16 9.620305 
L 237.591806 9.604135 
L 239.023727 9.555619 
L 240.455878 9.474733 
L 241.888375 9.361441 
L 243.321331 9.215689 
L 244.754863 9.037409 
L 246.189086 8.826519 
L 247.624114 8.582919 
L 249.060062 8.306497 
L 250.497046 7.997122 
L 251.935181 7.65465 
L 253.374582 7.278921 
L 254.815363 6.869758 
L 256.257641 6.426968 
L 257.701529 5.950343 
L 259.147143 5.439659 
L 260.594598 4.894673 
L 262.044009 4.315127 
L 263.49549 3.700747 
L 264.949157 3.051239 
L 266.405124 2.366294 
L 267.863506 1.645585 
L 269.324417 0.888765 
L 270.787971 0.09547 
L 272.254284 -0.734682 
L 272.703668 -1 
" clip-path="url(#p0f93058cc0)" style="fill: none; stroke: #000000; stroke-width: 1.5; stroke-linecap: square"/>
   </g>
   <g id="line2d_33">
    <path d="M 251.811634 -1 
L 251.511113 0.337683 
L 252.569043 3.725683 
L 252.662787 5.081354 
L 251.728931 5.27742 
L 251.711298 2.666141 
L 250.475478 1.638955 
L 250.269743 0.533958 
L 251.0187 -1 
M 241.888461 -1 
L 242.273903 0.18332 
L 243.802196 1.38384 
L 243.245688 2.296069 
L 240.892238 1.719822 
L 240.896906 -0.413114 
L 240.681145 -1 
M 238.320573 -1 
L 237.786203 0.711491 
L 239.41356 5.714685 
L 238.392124 11.302628 
L 238.8447 12.461789 
L 238.791066 13.828009 
L 240.115313 14.670844 
L 241.78363 13.774651 
L 244.218388 15.251267 
L 244.712303 16.303937 
L 245.252524 18.892828 
L 244.692371 19.234386 
L 243.930301 17.154039 
L 242.548867 15.066201 
L 239.96547 16.588812 
L 239.804896 18.901998 
L 240.43481 20.797346 
L 240.306158 22.434034 
L 239.311972 23.946028 
L 239.148742 25.68731 
L 238.835019 26.380553 
L 236.732512 28.923681 
L 236.499106 29.847233 
L 233.361446 29.386576 
L 231.788427 28.278581 
L 232.410388 27.123595 
L 232.992394 27.077746 
L 234.172922 28.640593 
L 235.39969 27.365136 
L 235.473805 26.48238 
L 236.176964 25.754881 
L 236.863448 23.541522 
L 237.996775 21.546777 
L 237.783859 20.268241 
L 238.420874 17.544874 
L 237.065657 15.790744 
L 236.867907 14.587869 
L 237.127088 10.876834 
L 236.820817 7.822125 
L 237.251338 6.524131 
L 237.145771 3.988178 
L 235.949753 1.208444 
L 236.718474 -1 
M 231.131804 -1 
L 229.051967 2.076516 
L 228.886488 3.014595 
L 229.636419 5.06014 
L 228.607433 10.587741 
L 230.469856 12.791955 
L 230.435248 13.699516 
L 231.070035 15.399466 
L 231.850845 16.08215 
L 231.349859 17.797135 
L 230.392134 18.30523 
L 228.463582 15.469042 
L 224.750615 11.23887 
L 220.341402 8.559877 
L 219.018066 9.91291 
L 219.805772 13.344026 
L 217.32726 16.292284 
L 216.703383 15.721972 
L 217.018848 13.068434 
L 216.127578 12.612085 
L 213.855006 14.179625 
L 212.40226 13.234096 
L 208.773805 14.224781 
L 208.543214 13.184138 
L 209.202101 10.95233 
L 208.597491 10.064127 
L 207.069888 10.731437 
L 206.479908 11.651889 
L 203.636566 11.643789 
L 200.411605 12.706023 
L 198.683239 13.844255 
L 197.577029 16.359239 
L 195.821196 15.813993 
L 194.641823 14.979056 
L 194.61745 13.60069 
L 193.798407 12.028728 
L 194.799855 10.450428 
L 196.647937 10.661196 
L 197.163971 9.404345 
L 196.616767 6.700642 
L 194.510739 5.003216 
L 193.548636 5.393386 
L 193.766832 6.318708 
L 192.67431 9.297917 
L 191.832229 10.718084 
L 192.480144 13.07752 
L 192.393749 14.060216 
L 191.443806 15.971278 
L 190.336054 16.059031 
L 187.960751 13.487132 
L 186.858179 14.446472 
L 183.370153 15.254967 
L 182.646056 15.642684 
L 182.980865 19.291074 
L 182.779624 20.30097 
L 181.742742 20.279977 
L 179.414051 17.823608 
L 177.988199 14.522722 
L 176.368135 14.685389 
L 175.928977 15.431393 
L 177.652784 19.577572 
L 177.668797 20.706563 
L 176.498162 20.905562 
L 174.802186 19.219322 
L 172.566905 14.61827 
L 173.140616 12.751783 
L 173.036589 9.961841 
L 174.743178 7.557222 
L 173.278482 2.603446 
L 174.359892 1.776874 
L 180.354207 10.560424 
L 182.740887 12.075658 
L 185.39785 11.887839 
L 187.302476 10.193729 
L 187.684784 9.400809 
L 187.40751 8.40982 
L 187.755444 6.562032 
L 184.869766 -1 
M 104.449988 -1 
L 104.575655 1.476564 
L 102.532797 3.466622 
L 102.255696 8.200621 
L 103.809745 9.180633 
L 108.607185 9.376538 
L 111.780131 12.200258 
L 114.986733 11.534552 
L 120.759455 5.704923 
L 121.811955 5.448953 
L 124.698488 6.560056 
L 126.546886 6.295151 
L 127.334487 5.41557 
L 129.796809 5.205243 
L 129.470245 1.516614 
L 128.691115 -1 
M 141.19641 -1 
L 141.190338 0.441231 
L 140.543135 1.091774 
L 140.095113 3.479666 
L 137.330594 7.439158 
L 140.318607 14.894453 
L 149.720868 19.632884 
L 152.1509 21.707244 
L 153.016 22.659861 
L 153.279305 24.062872 
L 152.955775 25.896092 
L 148.767693 25.408279 
L 144.939373 21.194882 
L 139.371139 18.428034 
L 138.440339 19.124688 
L 137.686316 21.002331 
L 139.135374 24.654423 
L 138.164891 25.675714 
L 137.334591 28.031252 
L 136.417264 28.581862 
L 134.519152 27.870115 
L 133.622904 23.751633 
L 132.780751 22.095144 
L 131.522834 21.514454 
L 129.994764 21.753277 
L 127.200646 23.667697 
L 126.482332 24.558159 
L 125.211831 28.849629 
L 124.359603 30.006565 
L 122.712716 29.818418 
L 121.628386 28.889581 
L 117.711688 29.260672 
L 116.335165 27.872464 
L 114.863261 23.555716 
L 112.322798 21.891243 
L 99.828 16.371643 
L 97.781572 10.379022 
L 95.222168 9.086211 
L 91.913796 5.665032 
L 90.265356 2.34286 
L 90.185416 -1 
M -1 15.302423 
L 11.405829 20.345605 
L 13.624542 19.329089 
L 14.738339 16.61754 
L 16.333449 15.637004 
L 22.546494 17.653664 
L 29.736984 23.906744 
L 31.405463 26.958439 
L 35.135209 30.146031 
L 51.511574 34.888316 
L 56.27388 42.333748 
L 55.08424 46.330234 
L 60.122645 59.497214 
L 64.715077 64.805719 
L 68.900675 73.342551 
L 69.587886 77.920257 
L 67.938036 79.755252 
L 70.233978 81.768217 
L 72.211161 81.308847 
L 74.162026 79.477777 
L 73.415723 76.882809 
L 74.561704 76.279115 
L 77.673117 76.601177 
L 79.150535 74.966785 
L 76.430721 71.582717 
L 75.543397 68.711889 
L 70.560787 62.122919 
L 69.545985 58.869539 
L 70.112505 55.603575 
L 69.647739 53.689464 
L 67.197963 49.138338 
L 67.17927 46.805828 
L 68.455853 45.807623 
L 69.082784 43.912775 
L 70.730655 43.161129 
L 75.291464 45.477236 
L 74.635891 48.40896 
L 76.671926 50.416721 
L 79.011371 51.553976 
L 79.069752 58.979435 
L 83.590749 65.462609 
L 84.569706 68.434797 
L 88.966779 75.454539 
L 89.414143 78.151484 
L 87.327699 80.673757 
L 86.364643 83.230122 
L 87.546618 85.229066 
L 88.816363 90.905749 
L 89.50636 95.232156 
L 89.259966 101.070327 
L 90.693383 102.005479 
L 93.823992 101.923107 
L 95.877174 100.294768 
L 97.808268 99.99788 
L 98.244559 98.058996 
L 97.265058 95.573683 
L 98.28578 94.136704 
L 98.328728 91.304071 
L 99.901207 90.103837 
L 101.542554 91.572561 
L 105.133989 91.406056 
L 108.073274 92.216346 
L 111.913823 94.687566 
L 116.968374 92.082091 
L 118.359381 92.451934 
L 119.943331 91.706836 
L 122.677043 89.445078 
L 124.830742 89.223625 
L 126.175083 86.654345 
L 127.510355 85.494506 
L 129.394861 86.267648 
L 131.100123 84.905878 
L 131.840037 83.460042 
L 133.363977 83.684754 
L 135.621079 82.668998 
L 137.403283 82.62897 
L 138.553865 83.058362 
L 139.596075 85.741802 
L 140.963462 86.669365 
L 140.96022 90.711789 
L 141.950797 91.649211 
L 141.338312 93.107961 
L 141.856751 94.522737 
L 146.206961 94.554807 
L 147.399683 93.261264 
L 145.895263 90.646739 
L 146.213816 89.545262 
L 149.715469 89.315869 
L 156.69049 90.342853 
L 155.851787 94.039622 
L 152.025312 96.897793 
L 152.23468 97.956552 
L 153.528592 98.732245 
L 161.160744 109.43145 
L 161.369407 111.907213 
L 160.808482 113.554659 
L 159.473514 114.234089 
L 156.429922 114.499139 
L 153.543199 112.957951 
L 151.985531 112.829751 
L 147.679044 110.346246 
L 142.830444 106.028217 
L 142.117561 104.404199 
L 137.966767 102.648464 
L 134.627083 101.895036 
L 129.61076 102.526623 
L 124.094491 99.373546 
L 121.733016 100.580173 
L 119.630717 100.604314 
L 114.432864 98.017619 
L 111.303845 98.144691 
L 111.732379 101.791472 
L 110.552211 105.029469 
L 111.077545 108.084446 
L 110.808752 109.562713 
L 116.934822 117.16683 
L 118.607657 117.866 
L 120.933416 117.69919 
L 122.227895 116.817855 
L 123.989034 117.686513 
L 126.388854 120.257584 
L 127.150027 121.891948 
L 128.332735 122.492313 
L 131.435306 123.178313 
L 133.943665 122.48607 
L 135.787742 122.700145 
L 137.761094 124.168624 
L 138.287095 125.755862 
L 136.899763 130.907114 
L 128.555608 139.879453 
L 125.264659 140.662328 
L 120.768898 139.18721 
L 116.222009 135.86879 
L 111.687196 135.2939 
L 108.574036 135.753516 
L 106.652443 134.855312 
L 96.451502 127.953142 
L 94.115973 127.394732 
L 91.004664 124.052721 
L 86.021698 120.912722 
L 85.969115 119.187242 
L 84.053622 117.418782 
L 79.659635 115.012578 
L 75.385186 114.243005 
L 71.61631 114.516921 
L 69.825736 115.981723 
L 69.054483 119.263459 
L 63.903782 120.08779 
L 61.723165 119.099462 
L 56.767722 113.410865 
L 48.509167 107.75941 
L 47.335273 105.521557 
L 47.650244 103.703197 
L 45.686412 100.565679 
L 38.560173 94.314351 
L 34.295448 92.699597 
L 23.801452 81.50378 
L 23.415579 79.327701 
L 32.450653 78.830291 
L 34.0304 76.85916 
L 32.683402 74.300928 
L 36.563911 70.665033 
L 33.278068 65.964337 
L 21.302754 61.041292 
L 10.625119 53.399017 
L 2.013899 49.409957 
L 0.127683 46.951523 
L -1 46.171476 
M 93.368007 346.6 
L 95.050647 344.561339 
L 97.13478 340.423851 
L 97.218587 334.12097 
L 101.933233 314.027489 
L 100.392061 312.915031 
L 99.11257 306.427796 
L 99.582298 302.776936 
L 100.831102 300.203038 
L 100.59789 298.345466 
L 102.014159 295.03613 
L 100.011093 292.182267 
L 100.856048 289.574896 
L 104.101574 284.747278 
L 112.789915 273.518987 
L 115.330369 272.550565 
L 118.264161 270.444926 
L 123.012982 265.579696 
L 131.919527 258.190133 
L 136.797764 254.89978 
L 143.901365 251.233599 
L 152.44627 244.101582 
L 157.284565 238.747474 
L 159.930395 234.524043 
L 165.655006 227.507632 
L 168.754758 221.490699 
L 169.193745 218.836158 
L 167.244464 217.697255 
L 166.307861 218.311065 
L 163.129131 218.95804 
L 155.509771 218.991443 
L 151.898339 220.376533 
L 148.387061 220.052464 
L 143.886556 220.711142 
L 142.391242 219.499536 
L 140.187453 215.008308 
L 141.230057 212.420411 
L 139.918995 211.315483 
L 138.602562 208.554781 
L 135.28281 204.160836 
L 131.537946 201.650407 
L 129.574744 199.565993 
L 128.796777 191.271358 
L 125.042009 186.837797 
L 126.196393 175.449682 
L 124.28966 172.426203 
L 122.949978 171.331803 
L 123.207106 166.059491 
L 121.236656 158.962041 
L 120.461098 153.392671 
L 122.164092 152.127857 
L 123.450922 152.586226 
L 126.084283 152.495309 
L 127.237185 154.052692 
L 130.764937 163.72664 
L 131.0835 167.411417 
L 134.02397 170.538521 
L 135.007063 175.882487 
L 134.060515 177.643379 
L 134.003151 180.295511 
L 134.888242 182.248742 
L 138.606875 186.184595 
L 140.089355 192.287283 
L 142.084178 195.353526 
L 143.000718 199.110469 
L 142.260337 201.025702 
L 142.060194 209.736431 
L 142.31186 211.121281 
L 144.971016 212.705027 
L 147.555272 212.570147 
L 152.10723 210.648155 
L 156.037586 210.493525 
L 159.551766 209.281495 
L 161.835231 209.391382 
L 165.651392 207.456075 
L 171.801874 206.386733 
L 175.241412 204.831463 
L 175.499773 203.498526 
L 176.770265 202.629431 
L 181.952228 201.298952 
L 183.974579 201.668759 
L 187.896978 198.932378 
L 190.185897 198.190706 
L 191.587673 196.32103 
L 193.356505 196.028206 
L 194.260287 195.143348 
L 194.235885 193.759371 
L 194.927522 191.998915 
L 197.692382 190.364898 
L 200.812462 187.206566 
L 201.003211 185.237561 
L 198.313639 181.666365 
L 194.231418 180.314637 
L 192.787189 178.370299 
L 192.435239 175.550604 
L 191.102165 174.322992 
L 185.721294 178.433332 
L 183.675358 178.727072 
L 178.262334 177.554322 
L 177.660832 175.574036 
L 178.308284 174.317316 
L 178.318842 172.883889 
L 176.661825 171.852549 
L 174.521721 172.62594 
L 174.211261 168.210973 
L 172.373904 166.275672 
L 170.782542 162.694919 
L 169.907204 158.237144 
L 171.2699 157.416446 
L 174.048099 157.200716 
L 176.591845 158.087435 
L 178.961787 165.11061 
L 181.167678 166.402913 
L 184.692361 169.856872 
L 188.517136 171.460502 
L 193.035868 169.884502 
L 194.491539 170.672816 
L 194.951633 171.666017 
L 195.024257 173.574171 
L 195.907445 174.822966 
L 200.722665 176.289962 
L 204.559712 176.78639 
L 206.714306 177.88232 
L 213.552347 177.461979 
L 215.140567 177.878769 
L 221.198683 177.837703 
L 223.631019 182.209671 
L 225.910262 183.463979 
L 226.481437 184.442735 
L 227.893118 185.483859 
L 228.895271 189.073067 
L 231.007765 191.365372 
L 231.9405 192.050532 
L 233.687616 192.228783 
L 237.765587 190.34549 
L 238.573969 191.383516 
L 238.201769 195.831742 
L 240.337977 206.262199 
L 243.555015 212.524347 
L 245.103227 217.751479 
L 247.655507 221.772831 
L 250.012572 227.295801 
L 250.4701 229.686445 
L 252.331097 231.920792 
L 254.132122 232.370835 
L 255.624762 230.780491 
L 255.854137 229.61509 
L 257.194752 228.86711 
L 260.641497 223.46344 
L 260.245397 220.2841 
L 261.630767 215.561163 
L 260.488232 208.707633 
L 261.30407 207.160904 
L 263.574961 206.187385 
L 264.508257 205.225604 
L 265.856251 205.058632 
L 267.006524 203.987073 
L 267.267302 202.391416 
L 271.958405 198.489545 
L 275.785704 193.577396 
L 277.159032 193.370448 
L 278.603895 192.056537 
L 279.44896 190.820342 
L 279.22356 188.588857 
L 281.479249 187.208679 
L 288.786024 185.881396 
L 290.557263 182.843491 
L 292.08267 182.568855 
L 293.811411 184.028635 
L 296.084986 188.412188 
L 302.231026 192.251163 
L 304.838748 197.047375 
L 305.346944 199.212953 
L 304.869404 202.04948 
L 305.715031 202.925578 
L 308.560808 203.437529 
L 313.036561 200.224627 
L 315.434741 200.21142 
L 316.845532 202.048799 
L 320.013308 208.861237 
L 323.066267 212.884731 
L 324.194957 217.547301 
L 324.178068 220.979049 
L 324.900096 222.874004 
L 324.583833 228.0367 
L 328.358933 230.167015 
L 335.366797 237.217394 
L 336.367286 240.512017 
L 338.493591 244.29979 
L 342.366934 249.100268 
L 349.538254 253.471693 
L 353.072516 254.893203 
L 355.955699 255.348924 
L 355.961354 252.965477 
L 352.475522 249.702645 
L 351.54279 248.107421 
L 349.093335 240.602303 
L 347.131583 238.541959 
L 343.514027 236.018341 
L 341.943558 235.576823 
L 338.61055 233.441078 
L 336.759641 233.400382 
L 334.356988 232.413493 
L 330.88389 225.902588 
L 327.21994 222.905131 
L 326.932278 220.430316 
L 328.078672 214.94624 
L 327.878194 210.712264 
L 329.069844 209.329322 
L 332.726667 211.966648 
L 334.922166 211.634145 
L 340.131504 214.577766 
L 344.301936 217.950177 
L 349.819104 219.74158 
L 350.871999 224.068336 
L 353.283706 224.800882 
L 359.666206 217.499994 
L 366.129356 213.179332 
L 366.46165 209.967203 
L 365.530653 205.904677 
L 363.67995 201.78541 
L 360.156577 197.719178 
L 355.818332 194.863638 
L 350.024906 192.223266 
L 346.833039 189.369192 
L 345.126976 188.662906 
L 343.896505 187.462185 
L 343.748439 184.024509 
L 347.82635 178.019577 
L 351.914069 175.223823 
L 357.018754 176.173807 
L 359.892631 175.377554 
L 360.711982 174.307743 
L 367.746535 170.957417 
L 376.119726 165.110334 
L 381.08234 163.372595 
L 384.560425 160.492512 
L 388.176924 155.995335 
L 387.905615 154.30669 
L 392.254441 150.006393 
L 393.057547 146.413959 
L 392.116445 144.025429 
L 393.666059 142.143222 
L 394.675759 137.635309 
L 396.903015 134.163552 
L 397.057894 129.015781 
L 392.775272 126.868074 
L 392.621023 124.36311 
L 390.912784 120.927844 
L 385.873513 118.436216 
L 381.654579 115.097842 
L 379.121245 114.148722 
L 376.971216 114.349961 
L 375.366512 112.926006 
L 377.376631 106.998362 
L 380.47044 103.026817 
L 383.250291 100.55938 
L 382.380484 98.775614 
L 380.345879 99.657936 
L 376.870387 100.077457 
L 374.617486 101.951658 
L 372.681613 105.054341 
L 370.828777 105.743127 
L 369.557981 104.790631 
L 368.684646 102.987383 
L 363.723337 104.181896 
L 362.624001 103.553311 
L 362.52027 101.689642 
L 363.227784 100.471114 
L 366.297825 99.058113 
L 367.416604 97.437008 
L 367.184091 96.162893 
L 370.464325 91.84562 
L 371.548059 88.340489 
L 373.993162 87.084972 
L 375.737629 86.853721 
L 376.625792 87.915819 
L 376.118275 89.895042 
L 375.096025 91.146481 
L 375.570143 92.767314 
L 376.564457 93.384736 
L 378.778232 92.532232 
L 379.158873 91.152365 
L 383.873184 86.331189 
L 389.900003 84.105694 
L 391.572432 85.361192 
L 391.554818 89.304367 
L 394.753897 89.672721 
L 400.17779 87.477706 
L 401.508577 88.316288 
L 401.669941 91.631929 
L 405.359324 94.685686 
L 405.028801 98.030859 
L 407.170448 98.90963 
L 410.611624 97.13194 
L 419.352878 89.752075 
L 419.314794 87.227827 
L 414.825656 81.964306 
L 406.440141 79.262359 
L 401.721409 79.237411 
L 399.820168 77.655919 
L 404.719752 68.945086 
L 405.785159 65.83446 
L 404.744791 62.199066 
L 408.942379 51.46559 
L 416.170658 49.0356 
L 418.45132 46.859316 
L 422.133982 41.318457 
L 424.271681 35.874291 
L 423.912231 34.155351 
L 427.749446 18.942275 
L 427.696795 5.641364 
L 429.028479 0.381016 
L 428.530176 -1 
L 428.530176 -1 
" clip-path="url(#p0f93058cc0)" style="fill: none; stroke: #0000ff; stroke-width: 1.5; stroke-linecap: square"/>
   </g>
   <g id="line2d_34">
    <path d="M 157.951738 66.88389 
L 314.368262 66.88389 
L 362.703674 215.64474 
L 236.16 307.583997 
L 109.616326 215.64474 
L 157.951738 66.88389 
" clip-path="url(#p0f93058cc0)" style="fill: none; stroke: #008000; stroke-width: 1.5; stroke-linecap: square"/>
   </g>
   <g id="patch_3">
    <path d="M 103.104 307.584 
L 103.104 41.472 
" style="fill: none; stroke: #000000; stroke-width: 0.8; stroke-linejoin: miter; stroke-linecap: square"/>
   </g>
   <g id="patch_4">
    <path d="M 369.216 307.584 
L 369.216 41.472 
" style="fill: none; stroke: #000000; stroke-width: 0.8; stroke-linejoin: miter; stroke-linecap: square"/>
   </g>
   <g id="patch_5">
    <path d="M 103.104 307.584 
L 369.216 307.584 
" style="fill: none; stroke: #000000; stroke-width: 0.8; stroke-linejoin: miter; stroke-linecap: square"/>
   </g>
   <g id="patch_6">
    <path d="M 103.104 41.472 
L 369.216 41.472 
" style="fill: none; stroke: #000000; stroke-width: 0.8; stroke-linejoin: miter; stroke-linecap: square"/>
   </g>
  </g>
 </g>
 <defs>
  <clipPath id="p0f93058cc0">
   <rect x="103.104" y="41.472" width="266.112" height="266.112"/>
  </clipPath>
 </defs>
</svg>
