<?xml version="1.0" encoding="utf-8" standalone="no"?>
<!DOCTYPE svg PUBLIC "-//W3C//DTD SVG 1.1//EN"
  "http://www.w3.org/Graphics/SVG/1.1/DTD/svg11.dtd">
<svg xmlns:xlink="http://www.w3.org/1999/xlink" width="460.8pt" height="345.6pt" viewBox="0 0 460.8 345.6" xmlns="http://www.w3.org/2000/svg" version="1.1">
 <metadata>
  <rdf:RDF xmlns:dc="http://purl.org/dc/elements/1.1/" xmlns:cc="http://creativecommons.org/ns#" xmlns:rdf="http://www.w3.org/1999/02/22-rdf-syntax-ns#">
   <cc:Work>
    <dc:type rdf:resource="http://purl.org/dc/dcmitype/StillImage"/>
    <dc:date>2025-06-01T22:06:05.106208</dc:date>
    <dc:format>image/svg+xml</dc:format>
    <dc:creator>
     <cc:Agent>
      <dc:title>Matplotlib v3.6.3, https://matplotlib.org/</dc:title>
     </cc:Agent>
    </dc:creator>
   </cc:Work>
  </rdf:RDF>
 </metadata>
 <defs>
  <style type="text/css">*{stroke-linejoin: round; stroke-linecap: butt}</style>
 </defs>
 <g id="figure_1">
  <g id="patch_1">
   <path d="M 0 345.6 
L 460.8 345.6 
L 460.8 0 
L 0 0 
z
" style="fill: #ffffff"/>
  </g>
  <g id="axes_1">
   <g id="patch_2">
    <path d="M 103.104 307.584 
L 369.216 307.584 
L 369.216 41.472 
L 103.104 41.472 
z
" style="fill: #ffffff"/>
   </g>
   <g id="matplotlib.axis_1">
    <g id="xtick_1">
     <g id="line2d_1">
      <defs>
       <path id="m238102598b" d="M 0 0 
L 0 3.5 
" style="stroke: #000000; stroke-width: 0.8"/>
      </defs>
      <g>
       <use xlink:href="#m238102598b" x="126.929132" y="307.584" style="stroke: #000000; stroke-width: 0.8"/>
      </g>
     </g>
     <g id="text_1">
      <!-- −4 -->
      <g transform="translate(119.558038 322.182437) scale(0.1 -0.1)">
       <defs>
        <path id="DejaVuSans-2212" d="M 678 2272 
L 4684 2272 
L 4684 1741 
L 678 1741 
L 678 2272 
z
" transform="scale(0.015625)"/>
        <path id="DejaVuSans-34" d="M 2419 4116 
L 825 1625 
L 2419 1625 
L 2419 4116 
z
M 2253 4666 
L 3047 4666 
L 3047 1625 
L 3713 1625 
L 3713 1100 
L 3047 1100 
L 3047 0 
L 2419 0 
L 2419 1100 
L 313 1100 
L 313 1709 
L 2253 4666 
z
" transform="scale(0.015625)"/>
       </defs>
       <use xlink:href="#DejaVuSans-2212"/>
       <use xlink:href="#DejaVuSans-34" x="83.789062"/>
      </g>
     </g>
    </g>
    <g id="xtick_2">
     <g id="line2d_2">
      <g>
       <use xlink:href="#m238102598b" x="181.544566" y="307.584" style="stroke: #000000; stroke-width: 0.8"/>
      </g>
     </g>
     <g id="text_2">
      <!-- −2 -->
      <g transform="translate(174.173472 322.182437) scale(0.1 -0.1)">
       <defs>
        <path id="DejaVuSans-32" d="M 1228 531 
L 3431 531 
L 3431 0 
L 469 0 
L 469 531 
Q 828 903 1448 1529 
Q 2069 2156 2228 2338 
Q 2531 2678 2651 2914 
Q 2772 3150 2772 3378 
Q 2772 3750 2511 3984 
Q 2250 4219 1831 4219 
Q 1534 4219 1204 4116 
Q 875 4013 500 3803 
L 500 4441 
Q 881 4594 1212 4672 
Q 1544 4750 1819 4750 
Q 2544 4750 2975 4387 
Q 3406 4025 3406 3419 
Q 3406 3131 3298 2873 
Q 3191 2616 2906 2266 
Q 2828 2175 2409 1742 
Q 1991 1309 1228 531 
z
" transform="scale(0.015625)"/>
       </defs>
       <use xlink:href="#DejaVuSans-2212"/>
       <use xlink:href="#DejaVuSans-32" x="83.789062"/>
      </g>
     </g>
    </g>
    <g id="xtick_3">
     <g id="line2d_3">
      <g>
       <use xlink:href="#m238102598b" x="236.16" y="307.584" style="stroke: #000000; stroke-width: 0.8"/>
      </g>
     </g>
     <g id="text_3">
      <!-- 0 -->
      <g transform="translate(232.97875 322.182437) scale(0.1 -0.1)">
       <defs>
        <path id="DejaVuSans-30" d="M 2034 4250 
Q 1547 4250 1301 3770 
Q 1056 3291 1056 2328 
Q 1056 1369 1301 889 
Q 1547 409 2034 409 
Q 2525 409 2770 889 
Q 3016 1369 3016 2328 
Q 3016 3291 2770 3770 
Q 2525 4250 2034 4250 
z
M 2034 4750 
Q 2819 4750 3233 4129 
Q 3647 3509 3647 2328 
Q 3647 1150 3233 529 
Q 2819 -91 2034 -91 
Q 1250 -91 836 529 
Q 422 1150 422 2328 
Q 422 3509 836 4129 
Q 1250 4750 2034 4750 
z
" transform="scale(0.015625)"/>
       </defs>
       <use xlink:href="#DejaVuSans-30"/>
      </g>
     </g>
    </g>
    <g id="xtick_4">
     <g id="line2d_4">
      <g>
       <use xlink:href="#m238102598b" x="290.775434" y="307.584" style="stroke: #000000; stroke-width: 0.8"/>
      </g>
     </g>
     <g id="text_4">
      <!-- 2 -->
      <g transform="translate(287.594184 322.182437) scale(0.1 -0.1)">
       <use xlink:href="#DejaVuSans-32"/>
      </g>
     </g>
    </g>
    <g id="xtick_5">
     <g id="line2d_5">
      <g>
       <use xlink:href="#m238102598b" x="345.390868" y="307.584" style="stroke: #000000; stroke-width: 0.8"/>
      </g>
     </g>
     <g id="text_5">
      <!-- 4 -->
      <g transform="translate(342.209618 322.182437) scale(0.1 -0.1)">
       <use xlink:href="#DejaVuSans-34"/>
      </g>
     </g>
    </g>
    <g id="text_6">
     <!-- 1e6 -->
     <g transform="translate(350.337875 334.860562) scale(0.1 -0.1)">
      <defs>
       <path id="DejaVuSans-31" d="M 794 531 
L 1825 531 
L 1825 4091 
L 703 3866 
L 703 4441 
L 1819 4666 
L 2450 4666 
L 2450 531 
L 3481 531 
L 3481 0 
L 794 0 
L 794 531 
z
" transform="scale(0.015625)"/>
       <path id="DejaVuSans-65" d="M 3597 1894 
L 3597 1613 
L 953 1613 
Q 991 1019 1311 708 
Q 1631 397 2203 397 
Q 2534 397 2845 478 
Q 3156 559 3463 722 
L 3463 178 
Q 3153 47 2828 -22 
Q 2503 -91 2169 -91 
Q 1331 -91 842 396 
Q 353 884 353 1716 
Q 353 2575 817 3079 
Q 1281 3584 2069 3584 
Q 2775 3584 3186 3129 
Q 3597 2675 3597 1894 
z
M 3022 2063 
Q 3016 2534 2758 2815 
Q 2500 3097 2075 3097 
Q 1594 3097 1305 2825 
Q 1016 2553 972 2059 
L 3022 2063 
z
" transform="scale(0.015625)"/>
       <path id="DejaVuSans-36" d="M 2113 2584 
Q 1688 2584 1439 2293 
Q 1191 2003 1191 1497 
Q 1191 994 1439 701 
Q 1688 409 2113 409 
Q 2538 409 2786 701 
Q 3034 994 3034 1497 
Q 3034 2003 2786 2293 
Q 2538 2584 2113 2584 
z
M 3366 4563 
L 3366 3988 
Q 3128 4100 2886 4159 
Q 2644 4219 2406 4219 
Q 1781 4219 1451 3797 
Q 1122 3375 1075 2522 
Q 1259 2794 1537 2939 
Q 1816 3084 2150 3084 
Q 2853 3084 3261 2657 
Q 3669 2231 3669 1497 
Q 3669 778 3244 343 
Q 2819 -91 2113 -91 
Q 1303 -91 875 529 
Q 447 1150 447 2328 
Q 447 3434 972 4092 
Q 1497 4750 2381 4750 
Q 2619 4750 2861 4703 
Q 3103 4656 3366 4563 
z
" transform="scale(0.015625)"/>
      </defs>
      <use xlink:href="#DejaVuSans-31"/>
      <use xlink:href="#DejaVuSans-65" x="63.623047"/>
      <use xlink:href="#DejaVuSans-36" x="125.146484"/>
     </g>
    </g>
   </g>
   <g id="matplotlib.axis_2">
    <g id="ytick_1">
     <g id="line2d_6">
      <defs>
       <path id="m371c860823" d="M 0 0 
L -3.5 0 
" style="stroke: #000000; stroke-width: 0.8"/>
      </defs>
      <g>
       <use xlink:href="#m371c860823" x="103.104" y="283.758868" style="stroke: #000000; stroke-width: 0.8"/>
      </g>
     </g>
     <g id="text_7">
      <!-- −4 -->
      <g transform="translate(81.361813 287.558087) scale(0.1 -0.1)">
       <use xlink:href="#DejaVuSans-2212"/>
       <use xlink:href="#DejaVuSans-34" x="83.789062"/>
      </g>
     </g>
    </g>
    <g id="ytick_2">
     <g id="line2d_7">
      <g>
       <use xlink:href="#m371c860823" x="103.104" y="229.143434" style="stroke: #000000; stroke-width: 0.8"/>
      </g>
     </g>
     <g id="text_8">
      <!-- −2 -->
      <g transform="translate(81.361813 232.942653) scale(0.1 -0.1)">
       <use xlink:href="#DejaVuSans-2212"/>
       <use xlink:href="#DejaVuSans-32" x="83.789062"/>
      </g>
     </g>
    </g>
    <g id="ytick_3">
     <g id="line2d_8">
      <g>
       <use xlink:href="#m371c860823" x="103.104" y="174.528" style="stroke: #000000; stroke-width: 0.8"/>
      </g>
     </g>
     <g id="text_9">
      <!-- 0 -->
      <g transform="translate(89.7415 178.327219) scale(0.1 -0.1)">
       <use xlink:href="#DejaVuSans-30"/>
      </g>
     </g>
    </g>
    <g id="ytick_4">
     <g id="line2d_9">
      <g>
       <use xlink:href="#m371c860823" x="103.104" y="119.912566" style="stroke: #000000; stroke-width: 0.8"/>
      </g>
     </g>
     <g id="text_10">
      <!-- 2 -->
      <g transform="translate(89.7415 123.711785) scale(0.1 -0.1)">
       <use xlink:href="#DejaVuSans-32"/>
      </g>
     </g>
    </g>
    <g id="ytick_5">
     <g id="line2d_10">
      <g>
       <use xlink:href="#m371c860823" x="103.104" y="65.297132" style="stroke: #000000; stroke-width: 0.8"/>
      </g>
     </g>
     <g id="text_11">
      <!-- 4 -->
      <g transform="translate(89.7415 69.09635) scale(0.1 -0.1)">
       <use xlink:href="#DejaVuSans-34"/>
      </g>
     </g>
    </g>
    <g id="text_12">
     <!-- 1e6 -->
     <g transform="translate(103.104 38.472) scale(0.1 -0.1)">
      <use xlink:href="#DejaVuSans-31"/>
      <use xlink:href="#DejaVuSans-65" x="63.623047"/>
      <use xlink:href="#DejaVuSans-36" x="125.146484"/>
     </g>
    </g>
   </g>
   <g id="line2d_11">
    <path d="M -1 183.879244 
L 0.088674 182.237257 
L 3.259579 177.454758 
L 6.375053 172.755863 
L 9.438385 168.135609 
L 12.452696 163.589292 
L 15.420947 159.112445 
L 18.345953 154.700821 
L 21.230397 150.350374 
L 24.07684 146.057243 
L 26.887728 141.817737 
L 29.665405 137.628322 
L 32.412119 133.485605 
L 35.130033 129.386328 
L 37.821226 125.32735 
L 40.487709 121.305643 
L 43.131422 117.318277 
L 45.754248 113.362416 
L 48.358012 109.435303 
L 50.944491 105.53426 
L 53.515419 101.656673 
L 56.072488 97.799989 
L 58.617355 93.961707 
L 61.151648 90.139373 
L 63.676969 86.330573 
L 66.194895 82.532925 
L 68.706987 78.744076 
L 71.214792 74.961694 
L 73.719845 71.183463 
L 76.223675 67.407076 
L 78.727807 63.630232 
L 81.23377 59.850628 
L 83.743093 56.065956 
L 86.257316 52.273892 
L 88.777992 48.472098 
L 91.306686 44.65821 
L 93.844986 40.829833 
L 96.394502 36.984539 
L 98.956875 33.119855 
L 101.533775 29.233261 
L 104.126909 25.32218 
L 106.738028 21.383975 
L 109.368928 17.415935 
L 112.021456 13.415275 
L 114.697517 9.379121 
L 117.399078 5.304506 
L 120.128177 1.188359 
L 121.579108 -1 
" clip-path="url(#p766ccc2925)" style="fill: none; stroke: #000000; stroke-width: 1.5; stroke-linecap: square"/>
   </g>
   <g id="line2d_12">
    <path d="M -1 338.293585 
L 1.708042 332.445996 
L 5.197477 324.911113 
L 8.564083 317.641458 
L 11.816181 310.619066 
L 14.961399 303.827465 
L 18.006745 297.25152 
L 20.958673 290.877297 
L 23.823135 284.691944 
L 26.605632 278.683582 
L 29.311257 272.841213 
L 31.944734 267.154634 
L 34.510455 261.614366 
L 37.012505 256.211584 
L 39.454695 250.938061 
L 41.840584 245.78611 
L 44.173501 240.748543 
L 46.456568 235.818621 
L 48.692712 230.990021 
L 50.884688 226.256795 
L 53.035088 221.613347 
L 55.146358 217.054393 
L 57.220808 212.574944 
L 59.260627 208.170279 
L 61.267885 203.835921 
L 63.244552 199.567622 
L 65.192498 195.361339 
L 67.113508 191.213222 
L 69.009283 187.119596 
L 70.881449 183.076947 
L 72.731566 179.081912 
L 74.561129 175.13126 
L 76.371575 171.221889 
L 78.164288 167.350808 
L 79.940604 163.515133 
L 81.701816 159.712074 
L 83.449176 155.938927 
L 85.183898 152.193069 
L 86.907165 148.471945 
L 88.620131 144.773067 
L 90.323921 141.093999 
L 92.019641 137.43236 
L 93.708374 133.785809 
L 95.391185 130.152044 
L 97.069126 126.528795 
L 98.743237 122.913818 
L 100.414547 119.304887 
L 102.08408 115.699793 
L 103.752855 112.096337 
L 105.421889 108.492323 
L 107.092199 104.885552 
L 108.764806 101.273821 
L 110.440737 97.654914 
L 112.121025 94.026596 
L 113.806717 90.38661 
L 115.498871 86.732672 
L 117.198561 83.062459 
L 118.906881 79.373612 
L 120.624947 75.663721 
L 122.353897 71.930327 
L 124.094899 68.170906 
L 125.849153 64.382872 
L 127.617893 60.563559 
L 129.402388 56.710222 
L 131.203955 52.820024 
L 133.023952 48.890028 
L 134.86379 44.917187 
L 136.724936 40.898336 
L 138.608917 36.830178 
L 140.517324 32.709273 
L 142.451823 28.532028 
L 144.414156 24.294681 
L 146.406149 19.993286 
L 148.429723 15.623698 
L 150.486898 11.181554 
L 152.579803 6.662256 
L 154.710687 2.060948 
L 156.128224 -1 
" clip-path="url(#p766ccc2925)" style="fill: none; stroke: #000000; stroke-width: 1.5; stroke-linecap: square"/>
   </g>
   <g id="line2d_13">
    <path d="M 67.06631 346.6 
L 68.907309 340.933996 
L 71.133042 334.083905 
L 73.283145 327.466583 
L 75.362652 321.066529 
L 77.376191 314.869501 
L 79.328024 308.862388 
L 81.22208 303.033094 
L 83.061991 297.370439 
L 84.851122 291.86407 
L 86.592592 286.504387 
L 88.2893 281.282464 
L 89.943946 276.189996 
L 91.559047 271.219235 
L 93.136953 266.362949 
L 94.679863 261.614366 
L 96.18984 256.967144 
L 97.668817 252.415327 
L 99.118614 247.953318 
L 100.540944 243.575844 
L 101.937423 239.277931 
L 103.309578 235.05488 
L 104.658853 230.902245 
L 105.986619 226.81581 
L 107.294175 222.791573 
L 108.582759 218.825726 
L 109.853549 214.914643 
L 111.10767 211.054861 
L 112.346198 207.243072 
L 113.570162 203.476105 
L 114.78055 199.750918 
L 115.978314 196.064586 
L 117.164368 192.414293 
L 118.339596 188.797321 
L 119.504851 185.211039 
L 120.660962 181.652901 
L 121.808732 178.120434 
L 122.948944 174.61123 
L 124.082359 171.122943 
L 125.209723 167.653279 
L 126.331767 164.19999 
L 127.449206 160.760872 
L 128.562746 157.333753 
L 129.673083 153.916493 
L 130.780904 150.506976 
L 131.886891 147.103104 
L 132.991721 143.702793 
L 134.096068 140.303968 
L 135.200605 136.904559 
L 136.306006 133.502491 
L 137.412945 130.095687 
L 138.522104 126.682054 
L 139.634165 123.259486 
L 140.749822 119.825854 
L 141.869775 116.378999 
L 142.994736 112.916732 
L 144.125428 109.436826 
L 145.26259 105.937007 
L 146.406976 102.414953 
L 147.559361 98.868283 
L 148.720538 95.294555 
L 149.891324 91.691252 
L 151.072561 88.055784 
L 152.26512 84.385472 
L 153.469901 80.677542 
L 154.68784 76.929118 
L 155.919908 73.137211 
L 157.167115 69.298707 
L 158.430518 65.41036 
L 159.711219 61.468774 
L 161.010373 57.470397 
L 162.32919 53.411501 
L 163.668943 49.288172 
L 165.030971 45.096289 
L 166.416685 40.831507 
L 167.827575 36.489241 
L 169.265218 32.064639 
L 170.731283 27.552563 
L 172.227542 22.947558 
L 173.755879 18.243829 
L 175.318298 13.435205 
L 176.916937 8.515108 
L 178.55408 3.476511 
L 180.008589 -1 
" clip-path="url(#p766ccc2925)" style="fill: none; stroke: #000000; stroke-width: 1.5; stroke-linecap: square"/>
   </g>
   <g id="line2d_14">
    <path d="M 122.646338 346.6 
L 123.157693 344.255635 
L 124.546268 337.889558 
L 125.888669 331.735173 
L 127.187939 325.778523 
L 128.44688 320.006769 
L 129.668073 314.408076 
L 130.853902 308.971512 
L 132.006573 303.686962 
L 133.128133 298.545048 
L 134.220479 293.537063 
L 135.28538 288.654906 
L 136.324483 283.891026 
L 137.339323 279.238378 
L 138.331339 274.690372 
L 139.301876 270.240835 
L 140.252198 265.88398 
L 141.18349 261.614366 
L 142.096871 257.426873 
L 142.993392 253.316674 
L 143.874047 249.279212 
L 144.739777 245.310176 
L 145.591473 241.405483 
L 146.429979 237.561257 
L 147.256099 233.773816 
L 148.070599 230.039653 
L 148.874207 226.355422 
L 149.667621 222.717927 
L 150.451508 219.12411 
L 151.226508 215.571036 
L 151.993236 212.055888 
L 152.752283 208.575953 
L 153.50422 205.128614 
L 154.249598 201.711345 
L 154.988952 198.321697 
L 155.722798 194.957296 
L 156.451642 191.615832 
L 157.175973 188.295056 
L 157.896271 184.99277 
L 158.613004 181.706826 
L 159.326634 178.435112 
L 160.037611 175.175557 
L 160.746383 171.926116 
L 161.453388 168.684771 
L 162.159064 165.449523 
L 162.863842 162.218389 
L 163.568153 158.989396 
L 164.272427 155.760573 
L 164.977093 152.529955 
L 165.682581 149.295568 
L 166.389323 146.055431 
L 167.097754 142.807548 
L 167.808315 139.549905 
L 168.521449 136.280462 
L 169.237608 132.997153 
L 169.95725 129.697873 
L 170.680843 126.380482 
L 171.408863 123.04279 
L 172.141801 119.682557 
L 172.880156 116.297486 
L 173.624445 112.885212 
L 174.375198 109.443302 
L 175.132963 105.969243 
L 175.898308 102.460435 
L 176.67182 98.914182 
L 177.45411 95.327685 
L 178.245814 91.698031 
L 179.047593 88.022185 
L 179.86014 84.296974 
L 180.684178 80.519082 
L 181.520465 76.685029 
L 182.369799 72.791165 
L 183.233016 68.833649 
L 184.111 64.808435 
L 185.004681 60.711255 
L 185.915044 56.537594 
L 186.843132 52.282675 
L 187.790048 47.941432 
L 188.756968 43.508481 
L 189.74514 38.978098 
L 190.755895 34.344178 
L 191.790654 29.60021 
L 192.850936 24.739229 
L 193.938368 19.753776 
L 195.054695 14.635851 
L 196.201793 9.376856 
L 197.381679 3.967535 
L 198.465203 -1 
" clip-path="url(#p766ccc2925)" style="fill: none; stroke: #000000; stroke-width: 1.5; stroke-linecap: square"/>
   </g>
   <g id="line2d_15">
    <path d="M 169.423596 346.6 
L 169.763019 343.953155 
L 170.533643 337.943767 
L 171.279169 332.13009 
L 172.001237 326.499343 
L 172.701357 321.03975 
L 173.380922 315.740444 
L 174.041221 310.591379 
L 174.683448 305.583245 
L 175.308709 300.707404 
L 175.918036 295.955827 
L 176.512386 291.321035 
L 177.092655 286.796051 
L 177.659678 282.374357 
L 178.214238 278.049851 
L 178.757069 273.816813 
L 179.288858 269.669873 
L 179.810255 265.603977 
L 180.32187 261.614366 
L 180.824277 257.696549 
L 181.318023 253.84628 
L 181.803622 250.059541 
L 182.281563 246.332519 
L 182.752309 242.661596 
L 183.216304 239.043325 
L 183.673968 235.474424 
L 184.125703 231.951758 
L 184.571894 228.472328 
L 185.012908 225.03326 
L 185.449101 221.631797 
L 185.880811 218.265285 
L 186.308367 214.931167 
L 186.732085 211.626976 
L 187.152272 208.350322 
L 187.569225 205.098891 
L 187.983232 201.870433 
L 188.394573 198.662759 
L 188.803523 195.473732 
L 189.21035 192.301263 
L 189.615316 189.143304 
L 190.018679 185.997845 
L 190.420693 182.862905 
L 190.821609 179.73653 
L 191.221675 176.616788 
L 191.621135 173.501762 
L 192.020235 170.389547 
L 192.419218 167.278244 
L 192.818328 164.165957 
L 193.217806 161.050788 
L 193.617899 157.930832 
L 194.018852 154.804171 
L 194.420912 151.668872 
L 194.824331 148.522979 
L 195.229362 145.364512 
L 195.636264 142.191459 
L 196.045299 139.00177 
L 196.456735 135.793354 
L 196.870847 132.564074 
L 197.287916 129.311738 
L 197.70823 126.034093 
L 198.132087 122.728822 
L 198.559793 119.393534 
L 198.991666 116.025756 
L 199.428033 112.62293 
L 199.869235 109.182398 
L 200.315627 105.701398 
L 200.767577 102.177051 
L 201.225471 98.606355 
L 201.689712 94.986168 
L 202.160721 91.313202 
L 202.638941 87.584006 
L 203.124836 83.794953 
L 203.618897 79.942222 
L 204.121641 76.021789 
L 204.633612 72.029397 
L 205.155387 67.960547 
L 205.68758 63.810468 
L 206.230838 59.574097 
L 206.785852 55.246049 
L 207.353358 50.820591 
L 207.93414 46.291606 
L 208.529036 41.652559 
L 209.138942 36.896456 
L 209.764821 32.015799 
L 210.407706 27.002536 
L 211.068706 21.848004 
L 211.749018 16.542869 
L 212.449936 11.077053 
L 213.172857 5.439659 
" clip-path="url(#p766ccc2925)" style="fill: none; stroke: #000000; stroke-width: 1.5; stroke-linecap: square"/>
   </g>
   <g id="line2d_16">
    <path d="M 211.698303 346.6 
L 211.975659 340.699327 
L 212.245382 334.961056 
L 212.506555 329.404653 
L 212.759733 324.018377 
L 213.005422 318.791396 
L 213.244095 313.713698 
L 213.476187 308.776013 
L 213.702101 303.969739 
L 213.922215 299.286886 
L 214.136877 294.720012 
L 214.346413 290.262179 
L 214.551129 285.906906 
L 214.751309 281.648128 
L 214.947221 277.480164 
L 215.139114 273.397678 
L 215.327226 269.395655 
L 215.511777 265.469369 
L 215.692978 261.614366 
L 215.871027 257.826434 
L 216.04611 254.101589 
L 216.218405 250.436053 
L 216.388081 246.826239 
L 216.555299 243.268736 
L 216.72021 239.760292 
L 216.882961 236.297805 
L 217.043692 232.878309 
L 217.202535 229.498961 
L 217.359619 226.157035 
L 217.515068 222.849909 
L 217.668999 219.575058 
L 217.821528 216.330044 
L 217.972766 213.112511 
L 218.122819 209.920174 
L 218.271792 206.750815 
L 218.419786 203.602276 
L 218.5669 200.472453 
L 218.713232 197.359287 
L 218.858875 194.260764 
L 219.003924 191.174905 
L 219.148468 188.099764 
L 219.292599 185.033419 
L 219.436405 181.973972 
L 219.579976 178.919542 
L 219.723399 175.868259 
L 219.866762 172.81826 
L 220.010151 169.767687 
L 220.153655 166.714681 
L 220.297361 163.657374 
L 220.441357 160.59389 
L 220.585733 157.522338 
L 220.730578 154.440806 
L 220.875982 151.347358 
L 221.02204 148.240027 
L 221.168844 145.116814 
L 221.31649 141.975678 
L 221.465077 138.814533 
L 221.614705 135.631241 
L 221.765477 132.423609 
L 221.917499 129.189378 
L 222.070881 125.92622 
L 222.225735 122.63173 
L 222.38218 119.303415 
L 222.540336 115.938694 
L 222.700329 112.53488 
L 222.862291 109.089176 
L 223.02636 105.598665 
L 223.192678 102.060297 
L 223.361395 98.470881 
L 223.532669 94.827067 
L 223.706666 91.125337 
L 223.883559 87.361989 
L 224.063531 83.533118 
L 224.246778 79.634604 
L 224.433502 75.662085 
L 224.623923 71.610944 
L 224.818269 67.476279 
L 225.016786 63.252881 
L 225.219735 58.935202 
L 225.427393 54.51733 
L 225.640058 49.992947 
L 225.858046 45.355295 
L 226.0817 40.59713 
L 226.311383 35.710679 
L 226.54749 30.687579 
L 226.790442 25.518825 
L 227.040698 20.194696 
L 227.298751 14.704685 
L 227.565137 9.037409 
" clip-path="url(#p766ccc2925)" style="fill: none; stroke: #000000; stroke-width: 1.5; stroke-linecap: square"/>
   </g>
   <g id="line2d_17">
    <path d="M 252.434591 346.6 
L 252.425914 346.322511 
L 252.241157 340.414505 
L 252.062446 334.699836 
L 251.889386 329.165849 
L 251.721611 323.800892 
L 251.558787 318.594212 
L 251.400601 313.535871 
L 251.246766 308.616664 
L 251.097015 303.828051 
L 250.9511 299.162094 
L 250.80879 294.611403 
L 250.669868 290.169086 
L 250.534135 285.828704 
L 250.4014 281.584232 
L 250.271489 277.430023 
L 250.144234 273.360775 
L 250.01948 269.371502 
L 249.897081 265.457509 
L 249.776897 261.614366 
L 249.658798 257.837885 
L 249.54266 254.124106 
L 249.428365 250.46927 
L 249.315801 246.86981 
L 249.204864 243.322332 
L 249.09545 239.823602 
L 248.987465 236.370534 
L 248.880815 232.960175 
L 248.775413 229.589696 
L 248.671173 226.256385 
L 248.568013 222.95763 
L 248.465856 219.690917 
L 248.364624 216.45382 
L 248.264246 213.243991 
L 248.164648 210.059154 
L 248.065764 206.897102 
L 247.967525 203.755682 
L 247.869865 200.632797 
L 247.772721 197.526397 
L 247.676029 194.434474 
L 247.579729 191.355055 
L 247.483759 188.286198 
L 247.388059 185.225989 
L 247.29257 182.172532 
L 247.197234 179.123952 
L 247.101992 176.078382 
L 247.006787 173.033964 
L 246.911559 169.988843 
L 246.816251 166.941162 
L 246.720805 163.889057 
L 246.625161 160.830656 
L 246.529262 157.764067 
L 246.433047 154.687381 
L 246.336456 151.598665 
L 246.239427 148.495953 
L 246.141898 145.377245 
L 246.043805 142.240502 
L 245.945083 139.083639 
L 245.845664 135.904519 
L 245.745481 132.700946 
L 245.644463 129.470662 
L 245.542537 126.211338 
L 245.439627 122.920567 
L 245.335655 119.595856 
L 245.230542 116.23462 
L 245.124202 112.834169 
L 245.016548 109.391706 
L 244.90749 105.904307 
L 244.79693 102.368921 
L 244.68477 98.78235 
L 244.570904 95.141239 
L 244.455222 91.442066 
L 244.337609 87.681119 
L 244.217942 83.854488 
L 244.096091 79.958042 
L 243.97192 75.987413 
L 243.845285 71.937971 
L 243.716031 67.804803 
L 243.583996 63.582686 
L 243.449005 59.266059 
L 243.310874 54.848992 
L 243.169403 50.32515 
L 243.024381 45.687754 
L 242.875581 40.929539 
L 242.722758 36.042705 
L 242.565651 31.018863 
L 242.403977 25.848975 
L 242.237431 20.523286 
L 242.065682 15.031251 
L 241.888375 9.361441 
" clip-path="url(#p766ccc2925)" style="fill: none; stroke: #000000; stroke-width: 1.5; stroke-linecap: square"/>
   </g>
   <g id="line2d_18">
    <path d="M 294.187976 346.6 
L 293.791378 343.043167 
L 293.129798 337.109877 
L 292.489602 331.368372 
L 291.869399 325.806165 
L 291.267906 320.411752 
L 290.683937 315.17451 
L 290.116398 310.084613 
L 289.564273 305.132954 
L 289.026619 300.311078 
L 288.50256 295.611124 
L 287.991278 291.025766 
L 287.492012 286.548169 
L 287.00405 282.171943 
L 286.526724 277.891107 
L 286.059408 273.700048 
L 285.601515 269.593497 
L 285.152491 265.566494 
L 284.711817 261.614366 
L 284.279 257.732701 
L 283.853574 253.917327 
L 283.435099 250.164294 
L 283.023158 246.469854 
L 282.617352 242.830445 
L 282.217305 239.242678 
L 281.822656 235.70332 
L 281.43306 232.209284 
L 281.048189 228.757615 
L 280.667726 225.345482 
L 280.291367 221.970165 
L 279.918822 218.629047 
L 279.549809 215.319604 
L 279.184057 212.0394 
L 278.821301 208.786075 
L 278.461287 205.557342 
L 278.103768 202.350977 
L 277.748501 199.164815 
L 277.395251 195.996741 
L 277.043787 192.844686 
L 276.693884 189.706623 
L 276.345318 186.580559 
L 275.997871 183.464531 
L 275.651327 180.356599 
L 275.305472 177.254846 
L 274.960094 174.157368 
L 274.614981 171.062272 
L 274.269924 167.96767 
L 273.924711 164.871678 
L 273.579133 161.772405 
L 273.232977 158.667954 
L 272.886031 155.556415 
L 272.538079 152.435861 
L 272.188905 149.304342 
L 271.838288 146.159881 
L 271.486004 143.000469 
L 271.131825 139.82406 
L 270.775517 136.628565 
L 270.416843 133.411845 
L 270.055558 130.171707 
L 269.691411 126.9059 
L 269.324142 123.612101 
L 268.953485 120.287915 
L 268.579164 116.930866 
L 268.200892 113.538387 
L 267.818372 110.107813 
L 267.431296 106.636373 
L 267.039341 103.121177 
L 266.642171 99.55921 
L 266.239434 95.947316 
L 265.830761 92.28219 
L 265.415766 88.560363 
L 264.994041 84.778186 
L 264.56516 80.931817 
L 264.128668 77.017204 
L 263.68409 73.030063 
L 263.230919 68.96586 
L 262.768619 64.819789 
L 262.296622 60.586747 
L 261.814322 56.261305 
L 261.321074 51.83768 
L 260.81619 47.3097 
L 260.298936 42.670769 
L 259.768522 37.913825 
L 259.224105 33.031294 
L 258.664777 28.015039 
L 258.089562 22.856305 
L 257.497408 17.54565 
L 256.887177 12.072882 
L 256.257641 6.426968 
" clip-path="url(#p766ccc2925)" style="fill: none; stroke: #000000; stroke-width: 1.5; stroke-linecap: square"/>
   </g>
   <g id="line2d_19">
    <path d="M 339.78141 346.6 
L 338.99945 342.672775 
L 337.759669 336.446242 
L 336.560559 330.423973 
L 335.399455 324.592583 
L 334.273904 318.939749 
L 333.181642 313.454102 
L 332.120577 308.125134 
L 331.088772 302.943116 
L 330.084428 297.89902 
L 329.105877 292.984457 
L 328.151562 288.19162 
L 327.220035 283.513225 
L 326.30994 278.942471 
L 325.42001 274.472992 
L 324.549058 270.098826 
L 323.695969 265.814372 
L 322.859695 261.614366 
L 322.039248 257.49385 
L 321.233697 253.448147 
L 320.442163 249.472839 
L 319.663812 245.563742 
L 318.897856 241.716892 
L 318.143544 237.928526 
L 317.400164 234.195061 
L 316.667036 230.513086 
L 315.943512 226.879346 
L 315.228973 223.290725 
L 314.522823 219.744243 
L 313.824494 216.237037 
L 313.133437 212.766356 
L 312.449126 209.32955 
L 311.771049 205.924059 
L 311.098716 202.547412 
L 310.431649 199.19721 
L 309.769383 195.871125 
L 309.111469 192.566894 
L 308.457466 189.282306 
L 307.806944 186.015203 
L 307.159483 182.76347 
L 306.514669 179.52503 
L 305.872094 176.297841 
L 305.231359 173.079886 
L 304.592065 169.869174 
L 303.953821 166.663729 
L 303.316234 163.461589 
L 302.678917 160.260801 
L 302.04148 157.059413 
L 301.403535 153.855474 
L 300.764692 150.647025 
L 300.124559 147.432098 
L 299.482741 144.208705 
L 298.838838 140.974843 
L 298.192446 137.728478 
L 297.543153 134.467548 
L 296.890543 131.189953 
L 296.234188 127.893553 
L 295.573652 124.576158 
L 294.90849 121.235524 
L 294.238242 117.869351 
L 293.562437 114.475268 
L 292.880589 111.050831 
L 292.192193 107.593516 
L 291.496731 104.10071 
L 290.793663 100.569701 
L 290.082426 96.99767 
L 289.362438 93.381684 
L 288.633087 89.71868 
L 287.893738 86.005459 
L 287.143723 82.23867 
L 286.382342 78.4148 
L 285.60886 74.530156 
L 284.822504 70.580854 
L 284.022458 66.562797 
L 283.20786 62.471659 
L 282.377801 58.302866 
L 281.531314 54.051571 
L 280.667376 49.712631 
L 279.784899 45.280579 
L 278.882723 40.749596 
L 277.959612 36.113475 
L 277.014248 31.365587 
L 276.045217 26.498842 
L 275.051007 21.505639 
L 274.029993 16.377819 
L 272.980429 11.10661 
L 271.900432 5.68256 
L 270.787971 0.09547 
" clip-path="url(#p766ccc2925)" style="fill: none; stroke: #000000; stroke-width: 1.5; stroke-linecap: square"/>
   </g>
   <g id="line2d_20">
    <path d="M 393.143425 346.6 
L 392.825044 345.544535 
L 390.754199 338.679474 
L 388.754638 332.050728 
L 386.821586 325.642462 
L 384.950656 319.440142 
L 383.137816 313.430392 
L 381.379346 307.600884 
L 379.671811 301.940233 
L 378.012033 296.437902 
L 376.397067 291.084124 
L 374.824175 285.86983 
L 373.290814 280.786582 
L 371.794611 275.826517 
L 370.333352 270.982295 
L 368.904967 266.247054 
L 367.507517 261.614366 
L 366.139184 257.078201 
L 364.798257 252.632895 
L 363.48313 248.273113 
L 362.192285 243.993831 
L 360.924291 239.790302 
L 359.677793 235.658036 
L 358.45151 231.592782 
L 357.244222 227.590503 
L 356.054775 223.647363 
L 354.882065 219.759712 
L 353.725043 215.924065 
L 352.582704 212.137095 
L 351.454087 208.395615 
L 350.338271 204.696572 
L 349.23437 201.03703 
L 348.141533 197.414165 
L 347.058938 193.825253 
L 345.985791 190.267661 
L 344.921323 186.738842 
L 343.864789 183.236322 
L 342.815462 179.757697 
L 341.772637 176.300626 
L 340.735623 172.86282 
L 339.703745 169.44204 
L 338.676341 166.036092 
L 337.652759 162.642815 
L 336.632359 159.260083 
L 335.614505 155.885795 
L 334.59857 152.517868 
L 333.583932 149.15424 
L 332.56997 145.792854 
L 331.556067 142.431662 
L 330.541604 139.068615 
L 329.525963 135.70166 
L 328.50852 132.328734 
L 327.48865 128.94776 
L 326.465719 125.556641 
L 325.439088 122.153255 
L 324.408107 118.735449 
L 323.372117 115.301035 
L 322.330443 111.847783 
L 321.282401 108.373414 
L 320.227285 104.875598 
L 319.164374 101.351943 
L 318.092928 97.799989 
L 317.012181 94.217202 
L 315.921344 90.600968 
L 314.819601 86.948579 
L 313.706107 83.257232 
L 312.579982 79.524013 
L 311.440311 75.74589 
L 310.286143 71.919705 
L 309.116481 68.042156 
L 307.930283 64.109791 
L 306.726459 60.118991 
L 305.503861 56.065956 
L 304.261285 51.946689 
L 302.99746 47.756981 
L 301.711046 43.492389 
L 300.400627 39.148216 
L 299.064703 34.719492 
L 297.701683 30.200943 
L 296.309879 25.58697 
L 294.887492 20.871614 
L 293.432608 16.048527 
L 291.943182 11.110929 
L 290.417029 6.051576 
L 288.851807 0.862708 
L 288.289922 -1 
" clip-path="url(#p766ccc2925)" style="fill: none; stroke: #000000; stroke-width: 1.5; stroke-linecap: square"/>
   </g>
   <g id="line2d_21">
    <path d="M 460.911989 346.6 
L 460.154187 344.8453 
L 456.80892 337.099293 
L 453.585756 329.636018 
L 450.47627 322.435965 
L 447.472754 315.481286 
L 444.568141 308.75562 
L 441.755941 302.243935 
L 439.030177 295.932395 
L 436.385338 289.808239 
L 433.816331 283.859672 
L 431.31844 278.075775 
L 428.887293 272.446423 
L 426.518824 266.962206 
L 424.209253 261.614366 
L 421.955053 256.394738 
L 419.752931 251.295697 
L 417.599806 246.310109 
L 415.492791 241.43129 
L 413.429177 236.652967 
L 411.406417 231.969241 
L 409.422113 227.374561 
L 407.474002 222.863688 
L 405.559949 218.431674 
L 403.677931 214.073839 
L 401.826033 209.785744 
L 400.002433 205.563178 
L 398.205403 201.402133 
L 396.433294 197.298793 
L 394.684534 193.249517 
L 392.957619 189.250824 
L 391.251108 185.299378 
L 389.563621 181.391981 
L 387.89383 177.525559 
L 386.240455 173.69715 
L 384.602264 169.903898 
L 382.978062 166.143038 
L 381.366694 162.411896 
L 379.767038 158.707872 
L 378.178002 155.02844 
L 376.598521 151.371133 
L 375.027556 147.733544 
L 373.464088 144.113315 
L 371.907117 140.50813 
L 370.35566 136.915713 
L 368.808747 133.333816 
L 367.265419 129.760221 
L 365.724726 126.192728 
L 364.185725 122.629152 
L 362.647476 119.067318 
L 361.109042 115.505056 
L 359.569485 111.940193 
L 358.027865 108.370551 
L 356.483235 104.793941 
L 354.934642 101.208156 
L 353.381124 97.610966 
L 351.821705 94.000113 
L 350.255397 90.373306 
L 348.681191 86.728214 
L 347.098062 83.062459 
L 345.50496 79.373612 
L 343.90081 75.659183 
L 342.284509 71.916618 
L 340.654922 68.143289 
L 339.010878 64.336486 
L 337.351169 60.49341 
L 335.674544 56.611165 
L 333.979705 52.686744 
L 332.265304 48.717027 
L 330.529936 44.698761 
L 328.772137 40.628556 
L 326.990377 36.50287 
L 325.183055 32.317992 
L 323.34849 28.070034 
L 321.484917 23.75491 
L 319.590481 19.36832 
L 317.663225 14.905734 
L 315.701081 10.362366 
L 313.701866 5.733159 
L 311.663265 1.012753 
L 310.794017 -1 
" clip-path="url(#p766ccc2925)" style="fill: none; stroke: #000000; stroke-width: 1.5; stroke-linecap: square"/>
   </g>
   <g id="line2d_22">
    <path clip-path="url(#p766ccc2925)" style="fill: none; stroke: #000000; stroke-width: 1.5; stroke-linecap: square"/>
   </g>
   <g id="line2d_23">
    <path clip-path="url(#p766ccc2925)" style="fill: none; stroke: #000000; stroke-width: 1.5; stroke-linecap: square"/>
   </g>
   <g id="line2d_24">
    <path d="M -1 325.854649 
L 5.197477 324.911113 
L 13.691409 323.638065 
L 21.84373 322.435965 
L 29.679777 321.299901 
L 37.22256 320.225428 
L 44.493027 319.20851 
L 51.510296 318.245477 
L 58.291853 317.332984 
L 64.853731 316.467979 
L 71.210657 315.64767 
L 77.376191 314.869501 
L 83.362846 314.131126 
L 89.182184 313.430392 
L 94.844919 312.765317 
L 100.360992 312.134077 
L 105.739644 311.53499 
L 110.989487 310.966506 
L 116.118555 310.427191 
L 121.134362 309.915722 
L 126.043943 309.430873 
L 130.853902 308.971512 
L 135.570446 308.53659 
L 140.199423 308.125134 
L 144.746347 307.736247 
L 149.216435 307.369095 
L 153.614625 307.022907 
L 157.945603 306.696968 
L 162.213825 306.39062 
L 166.423535 306.103252 
L 170.578784 305.8343 
L 174.683448 305.583245 
L 178.74124 305.349609 
L 182.755727 305.132954 
L 186.730344 304.932877 
L 190.668403 304.749011 
L 194.573109 304.581024 
L 198.447565 304.428613 
L 202.294788 304.291507 
L 206.117717 304.169464 
L 209.919219 304.06227 
L 213.702101 303.969739 
L 217.46912 303.891711 
L 221.222985 303.828051 
L 224.96637 303.77865 
L 228.701922 303.743423 
L 232.432262 303.722311 
L 236.16 303.715278 
L 239.887738 303.722311 
L 243.618078 303.743423 
L 247.35363 303.77865 
L 251.097015 303.828051 
L 254.85088 303.891711 
L 258.617899 303.969739 
L 262.400781 304.06227 
L 266.202283 304.169464 
L 270.025212 304.291507 
L 273.872435 304.428613 
L 277.746891 304.581024 
L 281.651597 304.749011 
L 285.589656 304.932877 
L 289.564273 305.132954 
L 293.57876 305.349609 
L 297.636552 305.583245 
L 301.741216 305.8343 
L 305.896465 306.103252 
L 310.106175 306.39062 
L 314.374397 306.696968 
L 318.705375 307.022907 
L 323.103565 307.369095 
L 327.573653 307.736247 
L 332.120577 308.125134 
L 336.749554 308.53659 
L 341.466098 308.971512 
L 346.276057 309.430873 
L 351.185638 309.915722 
L 356.201445 310.427191 
L 361.330513 310.966506 
L 366.580356 311.53499 
L 371.959008 312.134077 
L 377.475081 312.765317 
L 383.137816 313.430392 
L 388.957154 314.131126 
L 394.943809 314.869501 
L 401.109343 315.64767 
L 407.466269 316.467979 
L 414.028147 317.332984 
L 420.809704 318.245477 
L 427.826973 319.20851 
L 435.09744 320.225428 
L 442.640223 321.299901 
L 450.47627 322.435965 
" clip-path="url(#p766ccc2925)" style="fill: none; stroke: #000000; stroke-width: 1.5; stroke-linecap: square"/>
   </g>
   <g id="line2d_25">
    <path d="M -1 261.614366 
L 4.088986 261.614366 
L 12.147952 261.614366 
L 19.889645 261.614366 
L 27.336888 261.614366 
L 34.510455 261.614366 
L 41.429298 261.614366 
L 48.110747 261.614366 
L 54.570682 261.614366 
L 60.823688 261.614366 
L 66.883183 261.614366 
L 72.76154 261.614366 
L 78.470186 261.614366 
L 84.019701 261.614366 
L 89.419891 261.614366 
L 94.679863 261.614366 
L 99.808094 261.614366 
L 104.812483 261.614366 
L 109.700403 261.614366 
L 114.478752 261.614366 
L 119.15399 261.614366 
L 123.732177 261.614366 
L 128.219009 261.614366 
L 132.619849 261.614366 
L 136.939751 261.614366 
L 141.18349 261.614366 
L 145.355582 261.614366 
L 149.460305 261.614366 
L 153.501721 261.614366 
L 157.483689 261.614366 
L 161.409887 261.614366 
L 165.283821 261.614366 
L 169.108842 261.614366 
L 172.888159 261.614366 
L 176.62485 261.614366 
L 180.32187 261.614366 
L 183.982066 261.614366 
L 187.608183 261.614366 
L 191.202875 261.614366 
L 194.768711 261.614366 
L 198.308186 261.614366 
L 201.823723 261.614366 
L 205.317687 261.614366 
L 208.792385 261.614366 
L 212.250076 261.614366 
L 215.692978 261.614366 
L 219.123271 261.614366 
L 222.543103 261.614366 
L 225.954596 261.614366 
L 229.359854 261.614366 
L 232.760963 261.614366 
L 236.16 261.614366 
L 239.559037 261.614366 
L 242.960146 261.614366 
L 246.365404 261.614366 
L 249.776897 261.614366 
L 253.196729 261.614366 
L 256.627022 261.614366 
L 260.069924 261.614366 
L 263.527615 261.614366 
L 267.002313 261.614366 
L 270.496277 261.614366 
L 274.011814 261.614366 
L 277.551289 261.614366 
L 281.117125 261.614366 
L 284.711817 261.614366 
L 288.337934 261.614366 
L 291.99813 261.614366 
L 295.69515 261.614366 
L 299.431841 261.614366 
L 303.211158 261.614366 
L 307.036179 261.614366 
L 310.910113 261.614366 
L 314.836311 261.614366 
L 318.818279 261.614366 
L 322.859695 261.614366 
L 326.964418 261.614366 
L 331.13651 261.614366 
L 335.380249 261.614366 
L 339.700151 261.614366 
L 344.100991 261.614366 
L 348.587823 261.614366 
L 353.16601 261.614366 
L 357.841248 261.614366 
L 362.619597 261.614366 
L 367.507517 261.614366 
L 372.511906 261.614366 
L 377.640137 261.614366 
L 382.900109 261.614366 
L 388.300299 261.614366 
L 393.849814 261.614366 
L 399.55846 261.614366 
L 405.436817 261.614366 
L 411.496312 261.614366 
L 417.749318 261.614366 
L 424.209253 261.614366 
" clip-path="url(#p766ccc2925)" style="fill: none; stroke: #000000; stroke-width: 1.5; stroke-linecap: square"/>
   </g>
   <g id="line2d_26">
    <path d="M -1 204.19626 
L 3.094393 204.821406 
L 10.763399 205.976213 
L 18.137261 207.07079 
L 25.236601 208.109149 
L 32.080228 209.094942 
L 38.685339 210.031499 
L 45.067691 210.921866 
L 51.241745 211.768828 
L 57.220808 212.574944 
L 63.017142 213.342561 
L 68.642069 214.073839 
L 74.106061 214.77077 
L 79.418823 215.435191 
L 84.589364 216.068798 
L 89.626059 216.673163 
L 94.536706 217.249737 
L 99.32858 217.79987 
L 104.008478 218.324813 
L 108.582759 218.825726 
L 113.05738 219.303691 
L 117.437935 219.759712 
L 121.729677 220.194726 
L 125.937555 220.609604 
L 130.066231 221.00516 
L 134.120108 221.38215 
L 138.103345 221.741284 
L 142.019885 222.083221 
L 145.873461 222.408576 
L 149.667621 222.717927 
L 153.405739 223.01181 
L 157.091027 223.290725 
L 160.72655 223.555143 
L 164.315235 223.805498 
L 167.859882 224.042198 
L 171.363177 224.265623 
L 174.827695 224.476125 
L 178.255913 224.674032 
L 181.650217 224.85965 
L 185.012908 225.03326 
L 188.34621 225.195124 
L 191.652274 225.345482 
L 194.93319 225.484557 
L 198.190984 225.612551 
L 201.427632 225.72965 
L 204.645059 225.836022 
L 207.845146 225.931818 
L 211.029735 226.017175 
L 214.200634 226.092212 
L 217.359619 226.157035 
L 220.508441 226.211734 
L 223.648827 226.256385 
L 226.782487 226.291049 
L 229.911115 226.315776 
L 233.036394 226.330598 
L 236.16 226.335536 
L 239.283606 226.330598 
L 242.408885 226.315776 
L 245.537513 226.291049 
L 248.671173 226.256385 
L 251.811559 226.211734 
L 254.960381 226.157035 
L 258.119366 226.092212 
L 261.290265 226.017175 
L 264.474854 225.931818 
L 267.674941 225.836022 
L 270.892368 225.72965 
L 274.129016 225.612551 
L 277.38681 225.484557 
L 280.667726 225.345482 
L 283.97379 225.195124 
L 287.307092 225.03326 
L 290.669783 224.85965 
L 294.064087 224.674032 
L 297.492305 224.476125 
L 300.956823 224.265623 
L 304.460118 224.042198 
L 308.004765 223.805498 
L 311.59345 223.555143 
L 315.228973 223.290725 
L 318.914261 223.01181 
L 322.652379 222.717927 
L 326.446539 222.408576 
L 330.300115 222.083221 
L 334.216655 221.741284 
L 338.199892 221.38215 
L 342.253769 221.00516 
L 346.382445 220.609604 
L 350.590323 220.194726 
L 354.882065 219.759712 
L 359.26262 219.303691 
L 363.737241 218.825726 
L 368.311522 218.324813 
L 372.99142 217.79987 
L 377.783294 217.249737 
L 382.693941 216.673163 
L 387.730636 216.068798 
L 392.901177 215.435191 
L 398.213939 214.77077 
L 403.677931 214.073839 
" clip-path="url(#p766ccc2925)" style="fill: none; stroke: #000000; stroke-width: 1.5; stroke-linecap: square"/>
   </g>
   <g id="line2d_27">
    <path d="M 18.345953 154.700821 
L 25.040244 156.73612 
L 31.501086 158.672015 
L 37.743632 160.514649 
L 43.781804 162.269652 
L 49.62841 163.942191 
L 55.295263 165.537021 
L 60.793273 167.058518 
L 66.132536 168.510722 
L 71.322408 169.897362 
L 76.371575 171.221889 
L 81.288113 172.487497 
L 86.079545 173.69715 
L 90.752884 174.853598 
L 95.314685 175.959395 
L 99.771075 177.016921 
L 104.127797 178.028387 
L 108.390235 178.995857 
L 112.56345 179.921256 
L 116.652198 180.806378 
L 120.660962 181.652901 
L 124.59397 182.462394 
L 128.455211 183.236322 
L 132.248462 183.976057 
L 135.977297 184.682884 
L 139.645103 185.358005 
L 143.255098 186.002547 
L 146.810339 186.617565 
L 150.313737 187.204047 
L 153.768066 187.762921 
L 157.175973 188.295056 
L 160.539989 188.801263 
L 163.862534 189.282306 
L 167.14593 189.738897 
L 170.392402 190.171704 
L 173.60409 190.581351 
L 176.783053 190.968421 
L 179.931276 191.333457 
L 183.050676 191.676968 
L 186.143102 191.999423 
L 189.21035 192.301263 
L 192.254157 192.582892 
L 195.276213 192.844686 
L 198.27816 193.086991 
L 201.2616 193.310125 
L 204.228095 193.514377 
L 207.179175 193.700011 
L 210.116335 193.867266 
L 213.041047 194.016354 
L 215.954752 194.147465 
L 218.858875 194.260764 
L 221.754819 194.356394 
L 224.643971 194.434474 
L 227.527705 194.495103 
L 230.407385 194.538355 
L 233.284366 194.564285 
L 236.16 194.572925 
L 239.035634 194.564285 
L 241.912615 194.538355 
L 244.792295 194.495103 
L 247.676029 194.434474 
L 250.565181 194.356394 
L 253.461125 194.260764 
L 256.365248 194.147465 
L 259.278953 194.016354 
L 262.203665 193.867266 
L 265.140825 193.700011 
L 268.091905 193.514377 
L 271.0584 193.310125 
L 274.04184 193.086991 
L 277.043787 192.844686 
L 280.065843 192.582892 
L 283.10965 192.301263 
L 286.176898 191.999423 
L 289.269324 191.676968 
L 292.388724 191.333457 
L 295.536947 190.968421 
L 298.71591 190.581351 
L 301.927598 190.171704 
L 305.17407 189.738897 
L 308.457466 189.282306 
L 311.780011 188.801263 
L 315.144027 188.295056 
L 318.551934 187.762921 
L 322.006263 187.204047 
L 325.509661 186.617565 
L 329.064902 186.002547 
L 332.674897 185.358005 
L 336.342703 184.682884 
L 340.071538 183.976057 
L 343.864789 183.236322 
L 347.72603 182.462394 
L 351.659038 181.652901 
L 355.667802 180.806378 
L 359.75655 179.921256 
L 363.929765 178.995857 
L 368.192203 178.028387 
L 372.548925 177.016921 
L 377.005315 175.959395 
L 381.567116 174.853598 
L 386.240455 173.69715 
" clip-path="url(#p766ccc2925)" style="fill: none; stroke: #000000; stroke-width: 1.5; stroke-linecap: square"/>
   </g>
   <g id="line2d_28">
    <path d="M 45.754248 113.362416 
L 51.163017 115.835459 
L 56.413899 118.198765 
L 61.516019 120.458292 
L 66.477847 122.619555 
L 71.30726 124.687667 
L 76.011594 126.667371 
L 80.597688 128.563076 
L 85.07193 130.378881 
L 89.440294 132.118606 
L 93.708374 133.785809 
L 97.881414 135.383811 
L 101.96434 136.915713 
L 105.961779 138.384413 
L 109.87809 139.792622 
L 113.717378 141.14288 
L 117.483517 142.437562 
L 121.180168 143.678899 
L 124.81079 144.86898 
L 128.378662 146.009768 
L 131.886891 147.103104 
L 135.338426 148.150719 
L 138.736068 149.15424 
L 142.082483 150.115194 
L 145.380211 151.035018 
L 148.631672 151.915065 
L 151.839177 152.756606 
L 155.004935 153.560835 
L 158.13106 154.328879 
L 161.219577 155.061793 
L 164.272427 155.760573 
L 167.291477 156.426154 
L 170.27852 157.059413 
L 173.235283 157.661176 
L 176.163431 158.232215 
L 179.06457 158.773256 
L 181.940253 159.28498 
L 184.791983 159.768021 
L 187.621216 160.222973 
L 190.429366 160.65039 
L 193.217806 161.050788 
L 195.987873 161.424645 
L 198.740867 161.772405 
L 201.478062 162.094475 
L 204.200698 162.391233 
L 206.909993 162.663023 
L 209.607138 162.910157 
L 212.293304 163.13292 
L 214.969643 163.331564 
L 217.637289 163.506317 
L 220.297361 163.657374 
L 222.950965 163.784906 
L 225.599195 163.889057 
L 228.243139 163.969943 
L 230.883872 164.027654 
L 233.52247 164.062256 
L 236.16 164.073785 
L 238.79753 164.062256 
L 241.436128 164.027654 
L 244.076861 163.969943 
L 246.720805 163.889057 
L 249.369035 163.784906 
L 252.022639 163.657374 
L 254.682711 163.506317 
L 257.350357 163.331564 
L 260.026696 163.13292 
L 262.712862 162.910157 
L 265.410007 162.663023 
L 268.119302 162.391233 
L 270.841938 162.094475 
L 273.579133 161.772405 
L 276.332127 161.424645 
L 279.102194 161.050788 
L 281.890634 160.65039 
L 284.698784 160.222973 
L 287.528017 159.768021 
L 290.379747 159.28498 
L 293.25543 158.773256 
L 296.156569 158.232215 
L 299.084717 157.661176 
L 302.04148 157.059413 
L 305.028523 156.426154 
L 308.047573 155.760573 
L 311.100423 155.061793 
L 314.18894 154.328879 
L 317.315065 153.560835 
L 320.480823 152.756606 
L 323.688328 151.915065 
L 326.939789 151.035018 
L 330.237517 150.115194 
L 333.583932 149.15424 
L 336.981574 148.150719 
L 340.433109 147.103104 
L 343.941338 146.009768 
L 347.50921 144.86898 
L 351.139832 143.678899 
L 354.836483 142.437562 
L 358.602622 141.14288 
L 362.44191 139.792622 
L 366.358221 138.384413 
L 370.35566 136.915713 
" clip-path="url(#p766ccc2925)" style="fill: none; stroke: #000000; stroke-width: 1.5; stroke-linecap: square"/>
   </g>
   <g id="line2d_29">
    <path d="M 71.214792 74.961694 
L 75.542043 77.664998 
L 79.766847 80.259667 
L 83.894412 82.750807 
L 87.929628 85.143191 
L 91.877086 87.441286 
L 95.741105 89.649271 
L 99.525753 91.771063 
L 103.234862 93.810338 
L 106.872051 95.770542 
L 110.440737 97.654914 
L 113.944152 99.466498 
L 117.385358 101.208156 
L 120.767255 102.882582 
L 124.092594 104.492312 
L 127.363989 106.039736 
L 130.583925 107.527104 
L 133.754767 108.956541 
L 136.878767 110.33005 
L 139.958073 111.649519 
L 142.994736 112.916732 
L 145.990714 114.133374 
L 148.947883 115.301035 
L 151.868037 116.421216 
L 154.752894 117.495336 
L 157.604105 118.524734 
L 160.423254 119.510675 
L 163.211865 120.454355 
L 165.971404 121.356901 
L 168.703283 122.219378 
L 171.408863 123.04279 
L 174.089461 123.828086 
L 176.746348 124.576158 
L 179.380752 125.287847 
L 181.993866 125.963945 
L 184.586844 126.605197 
L 187.16081 127.212301 
L 189.716852 127.785913 
L 192.256032 128.326647 
L 194.779383 128.835077 
L 197.287916 129.311738 
L 199.782614 129.757127 
L 202.264442 130.171707 
L 204.734343 130.555906 
L 207.193241 130.910115 
L 209.642047 131.234697 
L 212.081652 131.529978 
L 214.512936 131.796258 
L 216.936766 132.033803 
L 219.353998 132.242851 
L 221.765477 132.423609 
L 224.17204 132.576257 
L 226.574519 132.700946 
L 228.973736 132.797799 
L 231.370512 132.866912 
L 233.765662 132.908352 
L 236.16 132.922161 
L 238.554338 132.908352 
L 240.949488 132.866912 
L 243.346264 132.797799 
L 245.745481 132.700946 
L 248.14796 132.576257 
L 250.554523 132.423609 
L 252.966002 132.242851 
L 255.383234 132.033803 
L 257.807064 131.796258 
L 260.238348 131.529978 
L 262.677953 131.234697 
L 265.126759 130.910115 
L 267.585657 130.555906 
L 270.055558 130.171707 
L 272.537386 129.757127 
L 275.032084 129.311738 
L 277.540617 128.835077 
L 280.063968 128.326647 
L 282.603148 127.785913 
L 285.15919 127.212301 
L 287.733156 126.605197 
L 290.326134 125.963945 
L 292.939248 125.287847 
L 295.573652 124.576158 
L 298.230539 123.828086 
L 300.911137 123.04279 
L 303.616717 122.219378 
L 306.348596 121.356901 
L 309.108135 120.454355 
L 311.896746 119.510675 
L 314.715895 118.524734 
L 317.567106 117.495336 
L 320.451963 116.421216 
L 323.372117 115.301035 
L 326.329286 114.133374 
L 329.325264 112.916732 
L 332.361927 111.649519 
L 335.441233 110.33005 
L 338.565233 108.956541 
L 341.736075 107.527104 
L 344.956011 106.039736 
L 348.227406 104.492312 
L 351.552745 102.882582 
L 354.934642 101.208156 
" clip-path="url(#p766ccc2925)" style="fill: none; stroke: #000000; stroke-width: 1.5; stroke-linecap: square"/>
   </g>
   <g id="line2d_30">
    <path d="M 96.394502 36.984539 
L 99.759608 39.74734 
L 103.064343 42.410655 
L 106.311331 44.978406 
L 109.503063 47.454297 
L 112.641905 49.841824 
L 115.730109 52.144291 
L 118.769815 54.364822 
L 121.763066 56.506371 
L 124.711806 58.571735 
L 127.617893 60.563559 
L 130.483099 62.484351 
L 133.309122 64.336486 
L 136.097582 66.122216 
L 138.850033 67.843674 
L 141.567964 69.502886 
L 144.252801 71.10177 
L 146.905916 72.642151 
L 149.528625 74.125755 
L 152.122193 75.554225 
L 154.68784 76.929118 
L 157.226738 78.251913 
L 159.740018 79.524013 
L 162.228772 80.746749 
L 164.694053 81.921388 
L 167.136879 83.049128 
L 169.558235 84.131107 
L 171.959075 85.168405 
L 174.340321 86.162046 
L 176.702871 87.113 
L 179.047593 88.022185 
L 181.375334 88.890471 
L 183.686913 89.71868 
L 185.983131 90.50759 
L 188.264767 91.257936 
L 190.532582 91.970408 
L 192.787316 92.64566 
L 195.029694 93.284304 
L 197.260426 93.886916 
L 199.480205 94.454036 
L 201.689712 94.986168 
L 203.889614 95.483782 
L 206.080566 95.947316 
L 208.263214 96.377174 
L 210.43819 96.77373 
L 212.60612 97.137327 
L 214.76762 97.468279 
L 216.923299 97.766869 
L 219.073759 98.033353 
L 221.219594 98.267957 
L 223.361395 98.470881 
L 225.499747 98.642297 
L 227.63523 98.78235 
L 229.768423 98.891158 
L 231.899901 98.968812 
L 234.030236 99.015379 
L 236.16 99.030897 
L 238.289764 99.015379 
L 240.420099 98.968812 
L 242.551577 98.891158 
L 244.68477 98.78235 
L 246.820253 98.642297 
L 248.958605 98.470881 
L 251.100406 98.267957 
L 253.246241 98.033353 
L 255.396701 97.766869 
L 257.55238 97.468279 
L 259.71388 97.137327 
L 261.88181 96.77373 
L 264.056786 96.377174 
L 266.239434 95.947316 
L 268.430386 95.483782 
L 270.630288 94.986168 
L 272.839795 94.454036 
L 275.059574 93.886916 
L 277.290306 93.284304 
L 279.532684 92.64566 
L 281.787418 91.970408 
L 284.055233 91.257936 
L 286.336869 90.50759 
L 288.633087 89.71868 
L 290.944666 88.890471 
L 293.272407 88.022185 
L 295.617129 87.113 
L 297.979679 86.162046 
L 300.360925 85.168405 
L 302.761765 84.131107 
L 305.183121 83.049128 
L 307.625947 81.921388 
L 310.091228 80.746749 
L 312.579982 79.524013 
L 315.093262 78.251913 
L 317.63216 76.929118 
L 320.197807 75.554225 
L 322.791375 74.125755 
L 325.414084 72.642151 
L 328.067199 71.10177 
L 330.752036 69.502886 
L 333.469967 67.843674 
L 336.222418 66.122216 
L 339.010878 64.336486 
" clip-path="url(#p766ccc2925)" style="fill: none; stroke: #000000; stroke-width: 1.5; stroke-linecap: square"/>
   </g>
   <g id="line2d_31">
    <path d="M 124.729125 -1 
L 125.355857 -0.328937 
L 127.796337 2.231162 
L 130.209343 4.710371 
L 132.595813 7.111151 
L 134.956658 9.435853 
L 137.292752 11.686721 
L 139.604943 13.865897 
L 141.89405 15.975429 
L 144.160863 18.017269 
L 146.406149 19.993286 
L 148.630649 21.905265 
L 150.835083 23.75491 
L 153.020146 25.543851 
L 155.186514 27.273645 
L 157.334843 28.945781 
L 159.465769 30.561682 
L 161.579913 32.122708 
L 163.677874 33.630158 
L 165.760238 35.085273 
L 167.827575 36.489241 
L 169.88044 37.843195 
L 171.919373 39.148216 
L 173.944902 40.40534 
L 175.957541 41.615551 
L 177.957793 42.779792 
L 179.946148 43.898961 
L 181.923087 44.973913 
L 183.889078 46.005465 
L 185.844582 46.994391 
L 187.790048 47.941432 
L 189.725918 48.847289 
L 191.652624 49.712631 
L 193.570591 50.538089 
L 195.480236 51.324265 
L 197.381969 52.071725 
L 199.276193 52.781008 
L 201.163306 53.452619 
L 203.043697 54.087035 
L 204.917753 54.684705 
L 206.785852 55.246049 
L 208.64837 55.77146 
L 210.505678 56.261305 
L 212.358141 56.715923 
L 214.206122 57.135629 
L 216.049979 57.520712 
L 217.890067 57.871437 
L 219.726738 58.188044 
L 221.560343 58.470749 
L 223.391226 58.719746 
L 225.219735 58.935202 
L 227.04621 59.117266 
L 228.870995 59.266059 
L 230.694427 59.381683 
L 232.516847 59.464216 
L 234.338592 59.513713 
L 236.16 59.530209 
L 237.981408 59.513713 
L 239.803153 59.464216 
L 241.625573 59.381683 
L 243.449005 59.266059 
L 245.27379 59.117266 
L 247.100265 58.935202 
L 248.928774 58.719746 
L 250.759657 58.470749 
L 252.593262 58.188044 
L 254.429933 57.871437 
L 256.270021 57.520712 
L 258.113878 57.135629 
L 259.961859 56.715923 
L 261.814322 56.261305 
L 263.67163 55.77146 
L 265.534148 55.246049 
L 267.402247 54.684705 
L 269.276303 54.087035 
L 271.156694 53.452619 
L 273.043807 52.781008 
L 274.938031 52.071725 
L 276.839764 51.324265 
L 278.749409 50.538089 
L 280.667376 49.712631 
L 282.594082 48.847289 
L 284.529952 47.941432 
L 286.475418 46.994391 
L 288.430922 46.005465 
L 290.396913 44.973913 
L 292.373852 43.898961 
L 294.362207 42.779792 
L 296.362459 41.615551 
L 298.375098 40.40534 
L 300.400627 39.148216 
L 302.43956 37.843195 
L 304.492425 36.489241 
L 306.559762 35.085273 
L 308.642126 33.630158 
L 310.740087 32.122708 
L 312.854231 30.561682 
L 314.985157 28.945781 
L 317.133486 27.273645 
L 319.299854 25.543851 
L 321.484917 23.75491 
" clip-path="url(#p766ccc2925)" style="fill: none; stroke: #000000; stroke-width: 1.5; stroke-linecap: square"/>
   </g>
   <g id="line2d_32">
    <path d="M 199.616332 -1 
L 200.065716 -0.734682 
L 201.532029 0.09547 
L 202.995583 0.888765 
L 204.456494 1.645585 
L 205.914876 2.366294 
L 207.370843 3.051239 
L 208.82451 3.700747 
L 210.275991 4.315127 
L 211.725402 4.894673 
L 213.172857 5.439659 
L 214.618471 5.950343 
L 216.062359 6.426968 
L 217.504637 6.869758 
L 218.945418 7.278921 
L 220.384819 7.65465 
L 221.822954 7.997122 
L 223.259938 8.306497 
L 224.695886 8.582919 
L 226.130914 8.826519 
L 227.565137 9.037409 
L 228.998669 9.215689 
L 230.431625 9.361441 
L 231.864122 9.474733 
L 233.296273 9.555619 
L 234.728194 9.604135 
L 236.16 9.620305 
L 237.591806 9.604135 
L 239.023727 9.555619 
L 240.455878 9.474733 
L 241.888375 9.361441 
L 243.321331 9.215689 
L 244.754863 9.037409 
L 246.189086 8.826519 
L 247.624114 8.582919 
L 249.060062 8.306497 
L 250.497046 7.997122 
L 251.935181 7.65465 
L 253.374582 7.278921 
L 254.815363 6.869758 
L 256.257641 6.426968 
L 257.701529 5.950343 
L 259.147143 5.439659 
L 260.594598 4.894673 
L 262.044009 4.315127 
L 263.49549 3.700747 
L 264.949157 3.051239 
L 266.405124 2.366294 
L 267.863506 1.645585 
L 269.324417 0.888765 
L 270.787971 0.09547 
L 272.254284 -0.734682 
L 272.703668 -1 
" clip-path="url(#p766ccc2925)" style="fill: none; stroke: #000000; stroke-width: 1.5; stroke-linecap: square"/>
   </g>
   <g id="line2d_33">
    <path d="M 292.449876 -1 
L 292.448171 -0.98032 
L 292.872656 0.028011 
L 292.614396 1.838827 
L 289.037272 1.4226 
L 285.469231 5.377689 
L 282.351283 7.248576 
L 280.591578 7.494164 
L 280.425752 6.534709 
L 281.676891 4.534728 
L 281.694695 3.012645 
L 279.611731 1.883453 
L 274.90497 3.897724 
L 273.622604 3.347053 
L 271.122245 3.702525 
L 268.539819 2.580252 
L 266.964391 3.315126 
L 266.269869 5.790019 
L 265.572544 6.510979 
L 264.4605 4.191867 
L 263.617192 4.586671 
L 263.362349 5.215359 
L 263.526086 6.557028 
L 262.783728 7.676672 
L 261.401093 6.304997 
L 259.672475 2.866751 
L 258.887518 3.797118 
L 258.331935 6.667577 
L 257.579162 7.006338 
L 256.379247 5.464653 
L 254.776995 6.729916 
L 249.321907 14.597057 
L 247.09728 15.004117 
L 244.989312 14.060919 
L 242.91377 11.921824 
L 239.83821 11.398159 
L 237.279287 8.973545 
L 234.69198 9.677894 
L 228.659587 6.262558 
L 225.789556 6.342974 
L 224.118894 3.233319 
L 222.206984 3.10193 
L 218.502703 -0.618588 
L 216.525147 1.580648 
L 213.963103 1.362178 
L 212.131932 3.018369 
L 210.331533 3.022253 
L 208.908378 4.757618 
L 208.110385 7.103629 
L 206.979335 8.391785 
L 203.710558 8.234088 
L 202.840798 8.765328 
L 202.169802 10.086859 
L 204.7924 15.672717 
L 205.261297 18.358817 
L 208.137661 21.34289 
L 208.256666 24.115118 
L 207.910032 25.069689 
L 206.850473 25.411577 
L 204.540235 24.442582 
L 204.153474 23.410473 
L 204.594699 22.340478 
L 203.687774 21.255349 
L 196.699021 23.165664 
L 198.948628 25.811636 
L 198.884037 27.022341 
L 198.489919 27.581627 
L 198.75047 29.655093 
L 199.56292 30.45753 
L 204.581229 32.719305 
L 207.479446 31.945954 
L 208.170749 32.545148 
L 207.524993 34.938631 
L 207.554604 37.800304 
L 206.844649 38.579181 
L 204.693726 38.155667 
L 203.097843 39.538084 
L 200.947359 37.890627 
L 197.738349 42.057684 
L 197.605815 43.030329 
L 196.826907 43.443295 
L 196.7543 44.422276 
L 197.093614 46.424352 
L 198.059386 47.539567 
L 197.545645 49.996912 
L 198.837155 53.011808 
L 199.776476 53.909853 
L 201.589 53.794989 
L 202.795765 54.500761 
L 203.05505 55.532493 
L 202.736306 56.807297 
L 202.746525 58.966443 
L 204.127259 59.692404 
L 204.896873 59.448895 
L 207.327373 61.118401 
L 209.076611 61.33079 
L 210.798636 62.965812 
L 210.165143 65.600405 
L 209.420781 66.975748 
L 207.066448 69.383114 
L 205.238282 69.925558 
L 202.448249 71.69867 
L 200.437318 71.748346 
L 197.915874 73.466138 
L 198.205244 74.628971 
L 199.472976 74.657587 
L 200.860115 73.461515 
L 202.135328 73.806523 
L 204.397254 72.953506 
L 206.808199 72.757871 
L 209.776151 70.354961 
L 212.149707 69.305354 
L 212.178268 68.269453 
L 212.786923 67.785975 
L 215.198761 66.231354 
L 216.810582 65.793272 
L 217.588214 63.997346 
L 218.492666 63.58718 
L 218.360243 62.381345 
L 217.718829 61.927293 
L 217.793528 60.497442 
L 220.222249 58.635707 
L 220.34681 57.648568 
L 222.165719 54.968009 
L 222.877666 55.733736 
L 222.935021 56.944301 
L 221.722296 59.450226 
L 222.003853 60.824439 
L 222.71013 62.033374 
L 224.655674 61.077205 
L 226.507364 59.04757 
L 228.195012 58.947143 
L 228.848391 57.506572 
L 228.51479 56.13812 
L 229.069664 55.232187 
L 230.336308 55.23171 
L 231.339624 55.536063 
L 233.483745 57.761013 
L 234.505767 57.855291 
L 236.103873 59.258438 
L 238.820958 59.106514 
L 242.364494 60.585817 
L 243.624307 60.12766 
L 245.092345 62.160227 
L 247.234975 63.494817 
L 248.554555 65.221455 
L 250.278326 65.847822 
L 252.726619 64.496157 
L 256.014549 67.000565 
L 256.413075 69.209494 
L 260.625833 73.901196 
L 261.7095 74.152849 
L 262.186596 75.771792 
L 261.933336 76.983883 
L 263.190843 77.908181 
L 263.669838 78.788512 
L 263.724417 79.809346 
L 264.832567 81.672644 
L 267.045424 82.527354 
L 268.899099 85.59187 
L 270.142735 86.401917 
L 270.541081 87.228342 
L 270.012679 88.265279 
L 270.556349 90.263634 
L 271.16268 91.048346 
L 273.670827 91.103393 
L 275.486459 92.136752 
L 276.90031 92.062818 
L 278.752014 93.776113 
L 281.662686 94.547983 
L 283.969731 96.702465 
L 284.250334 97.682497 
L 283.030874 98.786966 
L 279.831931 99.060594 
L 279.738537 100.797804 
L 281.961229 105.931106 
L 282.626136 113.369053 
L 282.477519 118.35185 
L 283.953012 121.7042 
L 284.27204 126.602137 
L 285.569838 127.564657 
L 286.756493 130.725661 
L 289.434536 133.026035 
L 290.816326 133.296758 
L 290.869217 134.817201 
L 291.608654 135.852901 
L 293.493661 138.235595 
L 296.265454 140.384327 
L 297.250484 141.82393 
L 298.80525 142.749562 
L 300.909858 142.65664 
L 302.346765 143.293397 
L 303.930309 143.242765 
L 307.490518 144.828469 
L 310.973241 149.592767 
L 313.400824 151.774907 
L 315.05978 154.328647 
L 321.449466 157.583378 
L 321.578199 158.724755 
L 320.719483 160.496096 
L 321.26854 162.217076 
L 325.852306 162.925319 
L 329.474594 164.362988 
L 330.505274 165.238933 
L 332.095742 168.472758 
L 336.864251 170.428122 
L 338.403122 168.800482 
L 336.461745 167.594293 
L 330.941815 161.404828 
L 328.736213 160.441866 
L 325.215471 157.038506 
L 322.233254 154.901253 
L 319.364096 153.642675 
L 316.693373 149.436028 
L 317.73881 147.705199 
L 319.152664 147.285084 
L 321.528037 148.032276 
L 327.85365 154.780138 
L 331.411802 156.882921 
L 332.98128 156.895756 
L 335.276271 158.944941 
L 338.885621 159.706237 
L 340.400443 162.900604 
L 345.615849 164.247449 
L 357.150006 170.233135 
L 360.799418 173.77221 
L 361.852971 179.493848 
L 364.262038 180.907359 
L 370.602958 182.424193 
L 373.444816 183.80395 
L 379.656561 183.742762 
L 385.872845 185.318098 
L 393.017742 186.089751 
L 396.804517 185.859128 
L 411.841117 186.879729 
L 417.076642 184.368354 
L 419.120355 182.205634 
L 425.516175 181.770308 
L 440.017112 186.04306 
L 447.643685 187.537027 
L 455.222929 186.653894 
L 461.8 186.729993 
M 461.8 173.950957 
L 459.792735 173.628578 
L 461.603333 171.196462 
L 461.4553 169.57477 
L 459.072549 165.587539 
L 460.098103 160.746721 
L 457.350449 153.205292 
L 459.125316 147.812331 
L 455.432011 146.220752 
L 449.618179 147.70718 
L 438.096879 153.284247 
L 436.011671 155.359096 
L 437.46491 159.260635 
L 437.175301 163.825934 
L 436.100231 166.318778 
L 432.648909 168.188914 
L 429.800922 168.300253 
L 419.486254 173.433216 
L 413.223527 172.573633 
L 409.754866 173.261059 
L 407.418853 172.13645 
L 394.999962 164.657009 
L 392.748572 161.999008 
L 389.837347 154.534523 
L 389.028483 147.282369 
L 386.488776 144.922597 
L 385.747796 142.349207 
L 386.68667 138.771643 
L 392.860594 132.374864 
L 394.067537 129.628511 
L 396.780803 127.942668 
L 400.028869 126.096319 
L 403.354498 125.569448 
L 408.050777 122.866531 
L 412.595602 123.465202 
L 417.497384 121.342127 
L 418.470307 118.71139 
L 418.333712 116.190747 
L 419.273792 115.047401 
L 431.116349 108.781888 
L 441.02777 106.274423 
L 444.320142 106.524076 
L 448.378261 102.430815 
L 451.787836 101.623448 
L 461.317959 102.40535 
L 461.8 102.805692 
M 403.364499 -1 
L 403.651831 0.382524 
L 402.131612 4.656674 
L 401.061887 5.997429 
L 398.652626 6.851503 
L 387.105221 7.723159 
L 384.469364 3.706178 
L 382.60137 3.443036 
L 381.403799 0.48072 
L 380.382991 -0.277417 
L 369.592706 8.223916 
L 367.43875 8.668432 
L 361.45065 11.958562 
L 356.205778 12.350362 
L 350.507989 15.046806 
L 347.243719 18.716484 
L 345.22386 19.760979 
L 344.722611 18.92322 
L 340.490709 15.953147 
L 338.583151 16.142074 
L 337.559289 17.206855 
L 335.730263 17.55984 
L 334.856963 16.558637 
L 333.440093 13.968201 
L 332.751376 11.410498 
L 331.760456 4.647824 
L 332.184554 3.452465 
L 332.2337 -1 
M 175.427252 13.0998 
L 180.008565 -1 
M 137.482044 -1 
L 137.161007 -0.418938 
L 135.602143 0.275444 
L 135.247483 1.555341 
L 134.088799 2.029826 
L 129.431924 0.508925 
L 124.969288 0.93437 
L 119.818974 0.270701 
L 118.949178 0.991366 
L 116.768947 0.872259 
L 113.280113 0.278171 
L 110.48044 -1 
M 106.691184 -1 
L 106.139801 -0.701862 
L 102.150318 -1 
M 101.966954 -1 
L 98.95376 0.798384 
L 95.779583 4.495485 
L 91.333486 13.842899 
L 90.169954 18.070915 
L 88.011061 21.479372 
L 89.562115 23.903012 
L 95.760426 24.47908 
L 99.397222 22.00407 
L 104.778411 23.290347 
L 106.383133 21.179921 
L 108.619432 21.096417 
L 110.283461 21.287405 
L 113.884693 24.002754 
L 115.126517 22.598745 
L 115.257165 20.577619 
L 115.997714 19.607268 
L 117.574848 18.967569 
L 119.867757 19.623405 
L 120.869161 21.207666 
L 122.242132 19.971047 
L 122.541207 16.327734 
L 123.54553 15.131976 
L 124.648693 15.173868 
L 125.079827 14.025858 
L 122.609101 10.251275 
L 124.174759 9.073426 
L 127.041066 8.847945 
L 130.409349 6.688326 
L 131.656959 6.629809 
L 135.340358 9.932867 
L 136.690756 9.713762 
L 139.579882 12.633409 
L 143.892072 14.058741 
L 147.96025 19.871369 
L 156.657984 19.324698 
L 163.271604 20.448348 
L 165.786972 19.957512 
L 166.643764 20.312773 
L 169.243311 24.467203 
L 170.795732 24.094016 
L 171.086927 20.727173 
L 170.40091 19.350983 
L 171.163823 16.914225 
L 171.132803 15.527253 
L 169.708674 12.541775 
L 170.112252 11.534296 
L 173.06199 13.308638 
L 175.427252 13.0998 
L 175.427252 13.0998 
" clip-path="url(#p766ccc2925)" style="fill: none; stroke: #0000ff; stroke-width: 1.5; stroke-linecap: square"/>
   </g>
   <g id="line2d_34">
    <path d="M 109.616326 215.64474 
L 157.951738 66.88389 
L 314.368262 66.88389 
L 362.703674 215.64474 
L 236.16 307.583997 
L 109.616326 215.64474 
" clip-path="url(#p766ccc2925)" style="fill: none; stroke: #008000; stroke-width: 1.5; stroke-linecap: square"/>
   </g>
   <g id="patch_3">
    <path d="M 103.104 307.584 
L 103.104 41.472 
" style="fill: none; stroke: #000000; stroke-width: 0.8; stroke-linejoin: miter; stroke-linecap: square"/>
   </g>
   <g id="patch_4">
    <path d="M 369.216 307.584 
L 369.216 41.472 
" style="fill: none; stroke: #000000; stroke-width: 0.8; stroke-linejoin: miter; stroke-linecap: square"/>
   </g>
   <g id="patch_5">
    <path d="M 103.104 307.584 
L 369.216 307.584 
" style="fill: none; stroke: #000000; stroke-width: 0.8; stroke-linejoin: miter; stroke-linecap: square"/>
   </g>
   <g id="patch_6">
    <path d="M 103.104 41.472 
L 369.216 41.472 
" style="fill: none; stroke: #000000; stroke-width: 0.8; stroke-linejoin: miter; stroke-linecap: square"/>
   </g>
  </g>
 </g>
 <defs>
  <clipPath id="p766ccc2925">
   <rect x="103.104" y="41.472" width="266.112" height="266.112"/>
  </clipPath>
 </defs>
</svg>
