<?xml version="1.0" encoding="utf-8" standalone="no"?>
<!DOCTYPE svg PUBLIC "-//W3C//DTD SVG 1.1//EN"
  "http://www.w3.org/Graphics/SVG/1.1/DTD/svg11.dtd">
<svg xmlns:xlink="http://www.w3.org/1999/xlink" width="460.8pt" height="345.6pt" viewBox="0 0 460.8 345.6" xmlns="http://www.w3.org/2000/svg" version="1.1">
 <metadata>
  <rdf:RDF xmlns:dc="http://purl.org/dc/elements/1.1/" xmlns:cc="http://creativecommons.org/ns#" xmlns:rdf="http://www.w3.org/1999/02/22-rdf-syntax-ns#">
   <cc:Work>
    <dc:type rdf:resource="http://purl.org/dc/dcmitype/StillImage"/>
    <dc:date>2025-06-01T22:06:07.496201</dc:date>
    <dc:format>image/svg+xml</dc:format>
    <dc:creator>
     <cc:Agent>
      <dc:title>Matplotlib v3.6.3, https://matplotlib.org/</dc:title>
     </cc:Agent>
    </dc:creator>
   </cc:Work>
  </rdf:RDF>
 </metadata>
 <defs>
  <style type="text/css">*{stroke-linejoin: round; stroke-linecap: butt}</style>
 </defs>
 <g id="figure_1">
  <g id="patch_1">
   <path d="M 0 345.6 
L 460.8 345.6 
L 460.8 0 
L 0 0 
z
" style="fill: #ffffff"/>
  </g>
  <g id="axes_1">
   <g id="patch_2">
    <path d="M 103.104 307.584 
L 369.216 307.584 
L 369.216 41.472 
L 103.104 41.472 
z
" style="fill: #ffffff"/>
   </g>
   <g id="matplotlib.axis_1">
    <g id="xtick_1">
     <g id="line2d_1">
      <defs>
       <path id="mcb1bfe085b" d="M 0 0 
L 0 3.5 
" style="stroke: #000000; stroke-width: 0.8"/>
      </defs>
      <g>
       <use xlink:href="#mcb1bfe085b" x="126.929132" y="307.584" style="stroke: #000000; stroke-width: 0.8"/>
      </g>
     </g>
     <g id="text_1">
      <!-- −4 -->
      <g transform="translate(119.558038 322.182437) scale(0.1 -0.1)">
       <defs>
        <path id="DejaVuSans-2212" d="M 678 2272 
L 4684 2272 
L 4684 1741 
L 678 1741 
L 678 2272 
z
" transform="scale(0.015625)"/>
        <path id="DejaVuSans-34" d="M 2419 4116 
L 825 1625 
L 2419 1625 
L 2419 4116 
z
M 2253 4666 
L 3047 4666 
L 3047 1625 
L 3713 1625 
L 3713 1100 
L 3047 1100 
L 3047 0 
L 2419 0 
L 2419 1100 
L 313 1100 
L 313 1709 
L 2253 4666 
z
" transform="scale(0.015625)"/>
       </defs>
       <use xlink:href="#DejaVuSans-2212"/>
       <use xlink:href="#DejaVuSans-34" x="83.789062"/>
      </g>
     </g>
    </g>
    <g id="xtick_2">
     <g id="line2d_2">
      <g>
       <use xlink:href="#mcb1bfe085b" x="181.544566" y="307.584" style="stroke: #000000; stroke-width: 0.8"/>
      </g>
     </g>
     <g id="text_2">
      <!-- −2 -->
      <g transform="translate(174.173472 322.182437) scale(0.1 -0.1)">
       <defs>
        <path id="DejaVuSans-32" d="M 1228 531 
L 3431 531 
L 3431 0 
L 469 0 
L 469 531 
Q 828 903 1448 1529 
Q 2069 2156 2228 2338 
Q 2531 2678 2651 2914 
Q 2772 3150 2772 3378 
Q 2772 3750 2511 3984 
Q 2250 4219 1831 4219 
Q 1534 4219 1204 4116 
Q 875 4013 500 3803 
L 500 4441 
Q 881 4594 1212 4672 
Q 1544 4750 1819 4750 
Q 2544 4750 2975 4387 
Q 3406 4025 3406 3419 
Q 3406 3131 3298 2873 
Q 3191 2616 2906 2266 
Q 2828 2175 2409 1742 
Q 1991 1309 1228 531 
z
" transform="scale(0.015625)"/>
       </defs>
       <use xlink:href="#DejaVuSans-2212"/>
       <use xlink:href="#DejaVuSans-32" x="83.789062"/>
      </g>
     </g>
    </g>
    <g id="xtick_3">
     <g id="line2d_3">
      <g>
       <use xlink:href="#mcb1bfe085b" x="236.16" y="307.584" style="stroke: #000000; stroke-width: 0.8"/>
      </g>
     </g>
     <g id="text_3">
      <!-- 0 -->
      <g transform="translate(232.97875 322.182437) scale(0.1 -0.1)">
       <defs>
        <path id="DejaVuSans-30" d="M 2034 4250 
Q 1547 4250 1301 3770 
Q 1056 3291 1056 2328 
Q 1056 1369 1301 889 
Q 1547 409 2034 409 
Q 2525 409 2770 889 
Q 3016 1369 3016 2328 
Q 3016 3291 2770 3770 
Q 2525 4250 2034 4250 
z
M 2034 4750 
Q 2819 4750 3233 4129 
Q 3647 3509 3647 2328 
Q 3647 1150 3233 529 
Q 2819 -91 2034 -91 
Q 1250 -91 836 529 
Q 422 1150 422 2328 
Q 422 3509 836 4129 
Q 1250 4750 2034 4750 
z
" transform="scale(0.015625)"/>
       </defs>
       <use xlink:href="#DejaVuSans-30"/>
      </g>
     </g>
    </g>
    <g id="xtick_4">
     <g id="line2d_4">
      <g>
       <use xlink:href="#mcb1bfe085b" x="290.775434" y="307.584" style="stroke: #000000; stroke-width: 0.8"/>
      </g>
     </g>
     <g id="text_4">
      <!-- 2 -->
      <g transform="translate(287.594184 322.182437) scale(0.1 -0.1)">
       <use xlink:href="#DejaVuSans-32"/>
      </g>
     </g>
    </g>
    <g id="xtick_5">
     <g id="line2d_5">
      <g>
       <use xlink:href="#mcb1bfe085b" x="345.390868" y="307.584" style="stroke: #000000; stroke-width: 0.8"/>
      </g>
     </g>
     <g id="text_5">
      <!-- 4 -->
      <g transform="translate(342.209618 322.182437) scale(0.1 -0.1)">
       <use xlink:href="#DejaVuSans-34"/>
      </g>
     </g>
    </g>
    <g id="text_6">
     <!-- 1e6 -->
     <g transform="translate(350.337875 334.860562) scale(0.1 -0.1)">
      <defs>
       <path id="DejaVuSans-31" d="M 794 531 
L 1825 531 
L 1825 4091 
L 703 3866 
L 703 4441 
L 1819 4666 
L 2450 4666 
L 2450 531 
L 3481 531 
L 3481 0 
L 794 0 
L 794 531 
z
" transform="scale(0.015625)"/>
       <path id="DejaVuSans-65" d="M 3597 1894 
L 3597 1613 
L 953 1613 
Q 991 1019 1311 708 
Q 1631 397 2203 397 
Q 2534 397 2845 478 
Q 3156 559 3463 722 
L 3463 178 
Q 3153 47 2828 -22 
Q 2503 -91 2169 -91 
Q 1331 -91 842 396 
Q 353 884 353 1716 
Q 353 2575 817 3079 
Q 1281 3584 2069 3584 
Q 2775 3584 3186 3129 
Q 3597 2675 3597 1894 
z
M 3022 2063 
Q 3016 2534 2758 2815 
Q 2500 3097 2075 3097 
Q 1594 3097 1305 2825 
Q 1016 2553 972 2059 
L 3022 2063 
z
" transform="scale(0.015625)"/>
       <path id="DejaVuSans-36" d="M 2113 2584 
Q 1688 2584 1439 2293 
Q 1191 2003 1191 1497 
Q 1191 994 1439 701 
Q 1688 409 2113 409 
Q 2538 409 2786 701 
Q 3034 994 3034 1497 
Q 3034 2003 2786 2293 
Q 2538 2584 2113 2584 
z
M 3366 4563 
L 3366 3988 
Q 3128 4100 2886 4159 
Q 2644 4219 2406 4219 
Q 1781 4219 1451 3797 
Q 1122 3375 1075 2522 
Q 1259 2794 1537 2939 
Q 1816 3084 2150 3084 
Q 2853 3084 3261 2657 
Q 3669 2231 3669 1497 
Q 3669 778 3244 343 
Q 2819 -91 2113 -91 
Q 1303 -91 875 529 
Q 447 1150 447 2328 
Q 447 3434 972 4092 
Q 1497 4750 2381 4750 
Q 2619 4750 2861 4703 
Q 3103 4656 3366 4563 
z
" transform="scale(0.015625)"/>
      </defs>
      <use xlink:href="#DejaVuSans-31"/>
      <use xlink:href="#DejaVuSans-65" x="63.623047"/>
      <use xlink:href="#DejaVuSans-36" x="125.146484"/>
     </g>
    </g>
   </g>
   <g id="matplotlib.axis_2">
    <g id="ytick_1">
     <g id="line2d_6">
      <defs>
       <path id="m07baa89aca" d="M 0 0 
L -3.5 0 
" style="stroke: #000000; stroke-width: 0.8"/>
      </defs>
      <g>
       <use xlink:href="#m07baa89aca" x="103.104" y="283.758868" style="stroke: #000000; stroke-width: 0.8"/>
      </g>
     </g>
     <g id="text_7">
      <!-- −4 -->
      <g transform="translate(81.361813 287.558087) scale(0.1 -0.1)">
       <use xlink:href="#DejaVuSans-2212"/>
       <use xlink:href="#DejaVuSans-34" x="83.789062"/>
      </g>
     </g>
    </g>
    <g id="ytick_2">
     <g id="line2d_7">
      <g>
       <use xlink:href="#m07baa89aca" x="103.104" y="229.143434" style="stroke: #000000; stroke-width: 0.8"/>
      </g>
     </g>
     <g id="text_8">
      <!-- −2 -->
      <g transform="translate(81.361813 232.942653) scale(0.1 -0.1)">
       <use xlink:href="#DejaVuSans-2212"/>
       <use xlink:href="#DejaVuSans-32" x="83.789062"/>
      </g>
     </g>
    </g>
    <g id="ytick_3">
     <g id="line2d_8">
      <g>
       <use xlink:href="#m07baa89aca" x="103.104" y="174.528" style="stroke: #000000; stroke-width: 0.8"/>
      </g>
     </g>
     <g id="text_9">
      <!-- 0 -->
      <g transform="translate(89.7415 178.327219) scale(0.1 -0.1)">
       <use xlink:href="#DejaVuSans-30"/>
      </g>
     </g>
    </g>
    <g id="ytick_4">
     <g id="line2d_9">
      <g>
       <use xlink:href="#m07baa89aca" x="103.104" y="119.912566" style="stroke: #000000; stroke-width: 0.8"/>
      </g>
     </g>
     <g id="text_10">
      <!-- 2 -->
      <g transform="translate(89.7415 123.711785) scale(0.1 -0.1)">
       <use xlink:href="#DejaVuSans-32"/>
      </g>
     </g>
    </g>
    <g id="ytick_5">
     <g id="line2d_10">
      <g>
       <use xlink:href="#m07baa89aca" x="103.104" y="65.297132" style="stroke: #000000; stroke-width: 0.8"/>
      </g>
     </g>
     <g id="text_11">
      <!-- 4 -->
      <g transform="translate(89.7415 69.09635) scale(0.1 -0.1)">
       <use xlink:href="#DejaVuSans-34"/>
      </g>
     </g>
    </g>
    <g id="text_12">
     <!-- 1e6 -->
     <g transform="translate(103.104 38.472) scale(0.1 -0.1)">
      <use xlink:href="#DejaVuSans-31"/>
      <use xlink:href="#DejaVuSans-65" x="63.623047"/>
      <use xlink:href="#DejaVuSans-36" x="125.146484"/>
     </g>
    </g>
   </g>
   <g id="line2d_11">
    <path d="M -1 157.555348 
L 0.944365 154.838588 
L 4.189365 150.304518 
L 7.385858 145.838225 
L 10.536828 141.435538 
L 13.645123 137.09248 
L 16.713459 132.805254 
L 19.744436 128.570227 
L 22.740547 124.383917 
L 25.704185 120.242979 
L 28.637653 116.144197 
L 31.54317 112.08447 
L 34.422879 108.060802 
L 37.278855 104.070296 
L 40.113109 100.11014 
L 42.927597 96.177603 
L 45.724222 92.270024 
L 48.504842 88.384808 
L 51.271275 84.519416 
L 54.025302 80.671357 
L 56.768674 76.838186 
L 59.503115 73.017494 
L 62.230328 69.206901 
L 64.951996 65.404055 
L 67.669792 61.606621 
L 70.385375 57.812278 
L 73.100402 54.018712 
L 75.816528 50.22361 
L 78.53541 46.424658 
L 81.258711 42.619531 
L 83.988108 38.805888 
L 86.725288 34.981368 
L 89.471962 31.143583 
L 92.229862 27.290113 
L 95.000748 23.418498 
L 97.786413 19.526234 
L 100.588687 15.610762 
L 103.409443 11.669466 
L 106.2506 7.699665 
L 109.114132 3.698601 
L 112.00207 -0.336565 
L 112.476886 -1 
" clip-path="url(#pc824b5c6b2)" style="fill: none; stroke: #000000; stroke-width: 1.5; stroke-linecap: square"/>
   </g>
   <g id="line2d_12">
    <path d="M -1 303.672767 
L 1.456483 298.72698 
L 4.761997 292.071787 
L 7.96603 285.620909 
L 11.075052 279.361325 
L 14.095039 273.281 
L 17.031526 267.368792 
L 19.889645 261.614366 
L 22.674166 256.008118 
L 25.38953 250.541111 
L 28.039875 245.205009 
L 30.629068 239.992028 
L 33.160726 234.894886 
L 35.638238 229.906759 
L 38.064786 225.021243 
L 40.443359 220.232315 
L 42.776775 215.534305 
L 45.067691 210.921866 
L 47.318614 206.389944 
L 49.53192 201.933758 
L 51.709861 197.548777 
L 53.854572 193.230698 
L 55.968088 188.975429 
L 58.052342 184.779071 
L 60.109185 180.637904 
L 62.140382 176.548371 
L 64.147624 172.507067 
L 66.132536 168.510722 
L 68.096678 164.556195 
L 70.041552 160.640461 
L 71.96861 156.760598 
L 73.879253 152.913784 
L 75.774839 149.097283 
L 77.656689 145.308439 
L 79.526086 141.544669 
L 81.38428 137.803452 
L 83.232496 134.082327 
L 85.07193 130.378881 
L 86.903758 126.690749 
L 88.729138 123.0156 
L 90.549209 119.351139 
L 92.365101 115.695094 
L 94.177929 112.045217 
L 95.988804 108.399271 
L 97.798831 104.755033 
L 99.609113 101.11028 
L 101.420755 97.462791 
L 103.234862 93.810338 
L 105.052549 90.150678 
L 106.874937 86.481553 
L 108.703159 82.800682 
L 110.538363 79.105753 
L 112.381715 75.39442 
L 114.234399 71.664297 
L 116.097625 67.91295 
L 117.972629 64.13789 
L 119.860676 60.336569 
L 121.763066 56.506371 
L 123.681135 52.644604 
L 125.616263 48.748493 
L 127.569873 44.815171 
L 129.543439 40.841669 
L 131.53849 36.824911 
L 133.556615 32.761696 
L 135.599469 28.648694 
L 137.668776 24.482431 
L 139.76634 20.259276 
L 141.89405 15.975429 
L 144.053884 11.626902 
L 146.247923 7.209509 
L 148.478355 2.718843 
L 150.325437 -1 
" clip-path="url(#pc824b5c6b2)" style="fill: none; stroke: #000000; stroke-width: 1.5; stroke-linecap: square"/>
   </g>
   <g id="line2d_13">
    <path d="M 54.325538 346.6 
L 55.427617 343.445816 
L 57.90785 336.34731 
L 60.301821 329.495689 
L 62.615338 322.874331 
L 64.853731 316.467979 
L 67.0219 310.262611 
L 69.12436 304.245304 
L 71.165278 298.404132 
L 73.148508 292.728065 
L 75.07762 287.206885 
L 76.955929 281.831105 
L 78.786516 276.591907 
L 80.572251 271.481077 
L 82.315812 266.490951 
L 84.019701 261.614366 
L 85.686261 256.844618 
L 87.317689 252.175422 
L 88.916046 247.600872 
L 90.483275 243.115415 
L 92.021202 238.713817 
L 93.531555 234.391141 
L 95.015963 230.142716 
L 96.475973 225.964123 
L 97.913048 221.851169 
L 99.32858 217.79987 
L 100.723895 213.806436 
L 102.100254 209.867253 
L 103.458863 205.978871 
L 104.800876 202.137988 
L 106.127398 198.34144 
L 107.43949 194.58619 
L 108.738174 190.869315 
L 110.024433 187.188 
L 111.299219 183.539524 
L 112.56345 179.921256 
L 113.818017 176.330643 
L 115.063789 172.765206 
L 116.301607 169.222531 
L 117.532296 165.700261 
L 118.75666 162.196093 
L 119.975488 158.707767 
L 121.189557 155.233064 
L 122.399629 151.7698 
L 123.606458 148.315816 
L 124.81079 144.86898 
L 126.013365 141.427174 
L 127.214917 137.988293 
L 128.416179 134.550242 
L 129.617884 131.110924 
L 130.820765 127.668241 
L 132.025558 124.220087 
L 133.233002 120.764342 
L 134.443847 117.298867 
L 135.658846 113.8215 
L 136.878767 110.33005 
L 138.104386 106.822288 
L 139.336497 103.295948 
L 140.575908 99.748715 
L 141.823446 96.17822 
L 143.07996 92.582038 
L 144.346321 88.957673 
L 145.623426 85.302557 
L 146.912202 81.614042 
L 148.213604 77.889387 
L 149.528625 74.125755 
L 150.858294 70.320201 
L 152.20368 66.469662 
L 153.5659 62.570945 
L 154.946118 58.62072 
L 156.345549 54.615502 
L 157.76547 50.551644 
L 159.207219 46.425314 
L 160.672201 42.232488 
L 162.161899 37.968926 
L 163.677874 33.630158 
L 165.221776 29.21146 
L 166.795352 24.707835 
L 168.400454 20.113984 
L 170.039045 15.424283 
L 171.713217 10.632751 
L 173.425195 5.733017 
L 175.177353 0.718285 
L 175.777725 -1 
" clip-path="url(#pc824b5c6b2)" style="fill: none; stroke: #000000; stroke-width: 1.5; stroke-linecap: square"/>
   </g>
   <g id="line2d_14">
    <path d="M 112.411277 346.6 
L 112.547686 346.026344 
L 114.098774 339.503357 
L 115.597508 333.200544 
L 117.047363 327.103288 
L 118.451533 321.198155 
L 119.812961 315.472773 
L 121.134362 309.915722 
L 122.418245 304.516445 
L 123.666938 299.265162 
L 124.882597 294.1528 
L 126.067228 289.170921 
L 127.2227 284.311671 
L 128.350755 279.567722 
L 129.45302 274.932227 
L 130.53102 270.39878 
L 131.586182 265.961373 
L 132.619849 261.614366 
L 133.633281 257.352454 
L 134.627666 253.170641 
L 135.604126 249.064211 
L 136.563721 245.028707 
L 137.507454 241.05991 
L 138.436275 237.153821 
L 139.351089 233.306639 
L 140.252755 229.51475 
L 141.142093 225.774707 
L 142.019885 222.083221 
L 142.886878 218.437145 
L 143.74379 214.833466 
L 144.591309 211.269289 
L 145.430096 207.741831 
L 146.26079 204.248411 
L 147.084006 200.786439 
L 147.900339 197.35341 
L 148.710367 193.946897 
L 149.514651 190.564542 
L 150.313737 187.204047 
L 151.108157 183.863174 
L 151.898431 180.539732 
L 152.685072 177.231575 
L 153.468579 173.936596 
L 154.249445 170.652719 
L 155.028159 167.377897 
L 155.805201 164.110104 
L 156.581049 160.847333 
L 157.356178 157.587587 
L 158.13106 154.328879 
L 158.906168 151.069221 
L 159.681974 147.806627 
L 160.458953 144.539101 
L 161.237582 141.264635 
L 162.018342 137.981205 
L 162.801721 134.686764 
L 163.588211 131.379239 
L 164.378313 128.056524 
L 165.172538 124.716474 
L 165.971404 121.356901 
L 166.775445 117.975568 
L 167.585205 114.570181 
L 168.401245 111.138385 
L 169.224142 107.677755 
L 170.054489 104.185791 
L 170.892903 100.659906 
L 171.740019 97.097424 
L 172.596498 93.495566 
L 173.463027 89.851443 
L 174.340321 86.162046 
L 175.229128 82.424236 
L 176.130228 78.634729 
L 177.044438 74.790087 
L 177.972616 70.886702 
L 178.915664 66.920783 
L 179.874532 62.88834 
L 180.850218 58.785163 
L 181.843781 54.606807 
L 182.85634 50.348569 
L 183.889078 46.005465 
L 184.943255 41.572203 
L 186.020207 37.043161 
L 187.12136 32.412347 
L 188.248231 27.673373 
L 189.402445 22.819413 
L 190.585739 17.843162 
L 191.799973 12.736788 
L 193.047149 7.491884 
L 194.329416 2.099405 
L 195.066418 -1 
" clip-path="url(#pc824b5c6b2)" style="fill: none; stroke: #000000; stroke-width: 1.5; stroke-linecap: square"/>
   </g>
   <g id="line2d_15">
    <path d="M 160.539003 346.6 
L 160.770641 345.005888 
L 161.656689 338.908198 
L 162.51363 333.010817 
L 163.343373 327.300612 
L 164.147674 321.765493 
L 164.928155 316.394304 
L 165.686313 311.176739 
L 166.423535 306.103252 
L 167.141108 301.164989 
L 167.840227 296.353723 
L 168.522005 291.661795 
L 169.18748 287.082064 
L 169.837621 282.607859 
L 170.473335 278.23294 
L 171.095472 273.95146 
L 171.704829 269.757928 
L 172.302156 265.647183 
L 172.888159 261.614366 
L 173.463506 257.654891 
L 174.028824 253.764428 
L 174.58471 249.938878 
L 175.131728 246.174354 
L 175.670415 242.467168 
L 176.201279 238.813812 
L 176.724808 235.210941 
L 177.241464 231.655367 
L 177.751691 228.144037 
L 178.255913 224.674032 
L 178.754538 221.242547 
L 179.247957 217.846888 
L 179.736547 214.484459 
L 180.220673 211.152754 
L 180.700687 207.849351 
L 181.176928 204.571904 
L 181.64973 201.318132 
L 182.119413 198.085819 
L 182.586293 194.872802 
L 183.050676 191.676968 
L 183.512862 188.496246 
L 183.973148 185.328605 
L 184.431824 182.172045 
L 184.889176 179.024595 
L 185.345488 175.884304 
L 185.80104 172.749241 
L 186.256111 169.617486 
L 186.71098 166.487129 
L 187.165922 163.356261 
L 187.621216 160.222973 
L 188.07714 157.085351 
L 188.533974 153.941469 
L 188.991999 150.789386 
L 189.451501 147.627142 
L 189.912768 144.452749 
L 190.376093 141.264193 
L 190.841774 138.059421 
L 191.310116 134.83634 
L 191.781429 131.592813 
L 192.256032 128.326647 
L 192.73425 125.035594 
L 193.216422 121.717338 
L 193.702893 118.369492 
L 194.194022 114.989592 
L 194.69018 111.575085 
L 195.191752 108.123322 
L 195.699136 104.631552 
L 196.212751 101.09691 
L 196.733029 97.516406 
L 197.260426 93.886916 
L 197.795416 90.205171 
L 198.338497 86.46774 
L 198.890194 82.67102 
L 199.451057 78.811219 
L 200.021667 74.884338 
L 200.602638 70.886158 
L 201.194617 66.812213 
L 201.798293 62.657776 
L 202.414395 58.417828 
L 203.043697 54.087035 
L 203.687025 49.65972 
L 204.345257 45.12983 
L 205.019335 40.490899 
L 205.710262 35.73601 
L 206.419115 30.85775 
L 207.147052 25.848164 
L 207.895315 20.698696 
L 208.665243 15.400131 
L 209.458281 9.942525 
L 210.275991 4.315127 
" clip-path="url(#pc824b5c6b2)" style="fill: none; stroke: #000000; stroke-width: 1.5; stroke-linecap: square"/>
   </g>
   <g id="line2d_16">
    <path d="M 203.450878 346.6 
L 203.796496 341.101062 
L 204.159252 335.329465 
L 204.510471 329.741416 
L 204.8509 324.325048 
L 205.181227 319.069416 
L 205.502086 313.964404 
L 205.814068 309.000649 
L 206.117717 304.169464 
L 206.413541 299.46278 
L 206.702012 294.873084 
L 206.98357 290.393373 
L 207.258627 286.017106 
L 207.527566 281.738163 
L 207.790749 277.550812 
L 208.048513 273.449671 
L 208.301177 269.42968 
L 208.54904 265.486076 
L 208.792385 261.614366 
L 209.031477 257.810305 
L 209.26657 254.069876 
L 209.497903 250.389273 
L 209.725703 246.764881 
L 209.950185 243.193264 
L 210.171557 239.671146 
L 210.390014 236.195403 
L 210.605744 232.763048 
L 210.818927 229.37122 
L 211.029735 226.017175 
L 211.238334 222.698274 
L 211.444884 219.411975 
L 211.649539 216.155828 
L 211.852448 212.927461 
L 212.053755 209.724577 
L 212.253601 206.544948 
L 212.452122 203.386402 
L 212.64945 200.246825 
L 212.845716 197.124151 
L 213.041047 194.016354 
L 213.235567 190.921448 
L 213.429401 187.837478 
L 213.622668 184.762516 
L 213.815488 181.694657 
L 214.007981 178.632013 
L 214.200264 175.572708 
L 214.392455 172.514876 
L 214.58467 169.456651 
L 214.777027 166.396171 
L 214.969643 163.331564 
L 215.162637 160.260952 
L 215.356127 157.182438 
L 215.550235 154.094109 
L 215.745081 150.994026 
L 215.940789 147.880221 
L 216.137486 144.750693 
L 216.335299 141.603399 
L 216.53436 138.436254 
L 216.734803 135.24712 
L 216.936766 132.033803 
L 217.140391 128.794046 
L 217.345824 125.525522 
L 217.553216 122.225827 
L 217.762724 118.892472 
L 217.974509 115.522877 
L 218.188741 112.11436 
L 218.405594 108.664128 
L 218.625253 105.169269 
L 218.847908 101.626739 
L 219.073759 98.033353 
L 219.303016 94.385768 
L 219.535901 90.680476 
L 219.772644 86.913783 
L 220.013492 83.081796 
L 220.258702 79.180405 
L 220.508547 75.205264 
L 220.763317 71.151769 
L 221.023318 67.015034 
L 221.288878 62.78987 
L 221.560343 58.470749 
L 221.838083 54.051782 
L 222.122494 49.526675 
L 222.414 44.888699 
L 222.713053 40.130643 
L 223.020139 35.244767 
L 223.335783 30.222748 
L 223.660546 25.055624 
L 223.995037 19.733725 
L 224.339914 14.246597 
L 224.695886 8.582919 
" clip-path="url(#pc824b5c6b2)" style="fill: none; stroke: #000000; stroke-width: 1.5; stroke-linecap: square"/>
   </g>
   <g id="line2d_17">
    <path d="M 244.287373 346.6 
L 244.280151 346.137618 
L 244.188118 340.244456 
L 244.099091 334.543868 
L 244.012875 329.023257 
L 243.929289 323.671022 
L 243.848165 318.476458 
L 243.769349 313.429671 
L 243.692698 308.521494 
L 243.618078 303.743423 
L 243.545367 299.087554 
L 243.47445 294.546526 
L 243.405219 290.113475 
L 243.337573 285.781986 
L 243.271421 281.546058 
L 243.206672 277.400066 
L 243.143246 273.338726 
L 243.081064 269.357071 
L 243.020054 265.450423 
L 242.960146 261.614366 
L 242.901275 257.844729 
L 242.84338 254.137562 
L 242.786402 250.489121 
L 242.730286 246.89585 
L 242.674978 243.354366 
L 242.620429 239.861444 
L 242.56659 236.414007 
L 242.513416 233.009111 
L 242.460862 229.643936 
L 242.408885 226.315776 
L 242.357447 223.022027 
L 242.306506 219.760183 
L 242.256026 216.527821 
L 242.20597 213.322601 
L 242.156302 210.142252 
L 242.106989 206.98457 
L 242.057995 203.84741 
L 242.00929 200.728678 
L 241.96084 197.626328 
L 241.912615 194.538355 
L 241.864584 191.462791 
L 241.816716 188.397696 
L 241.768982 185.34116 
L 241.721352 182.29129 
L 241.673797 179.246212 
L 241.626287 176.204064 
L 241.578795 173.162988 
L 241.53129 170.121133 
L 241.483744 167.076642 
L 241.436128 164.027654 
L 241.388412 160.972298 
L 241.340567 157.908683 
L 241.292564 154.834902 
L 241.244371 151.749022 
L 241.195959 148.649078 
L 241.147296 145.533072 
L 241.098351 142.398964 
L 241.04909 139.244669 
L 240.99948 136.06805 
L 240.949488 132.866912 
L 240.899077 129.638996 
L 240.848212 126.381973 
L 240.796855 123.093434 
L 240.744966 119.770886 
L 240.692507 116.411742 
L 240.639433 113.013312 
L 240.585702 109.572795 
L 240.531268 106.087267 
L 240.476084 102.553673 
L 240.420099 98.968812 
L 240.363261 95.329328 
L 240.305515 91.631692 
L 240.246802 87.872191 
L 240.187063 84.046909 
L 240.126231 80.151712 
L 240.064239 76.182223 
L 240.001015 72.133807 
L 239.936481 68.001544 
L 239.870556 63.780203 
L 239.803153 59.464216 
L 239.734179 55.047641 
L 239.663535 50.524133 
L 239.591115 45.886901 
L 239.516805 41.128666 
L 239.440484 36.241614 
L 239.36202 31.217338 
L 239.281271 26.046782 
L 239.198085 20.720172 
L 239.112296 15.226935 
L 239.023727 9.555619 
" clip-path="url(#pc824b5c6b2)" style="fill: none; stroke: #000000; stroke-width: 1.5; stroke-linecap: square"/>
   </g>
   <g id="line2d_18">
    <path d="M 285.629882 346.6 
L 285.218131 342.26844 
L 284.660265 336.399768 
L 284.120315 330.719571 
L 283.597118 325.215614 
L 283.089602 319.876616 
L 282.596776 314.692159 
L 282.117724 309.652603 
L 281.651597 304.749011 
L 281.197605 299.973084 
L 280.755015 295.317099 
L 280.323142 290.773861 
L 279.901348 286.336654 
L 279.489037 281.999196 
L 279.085648 277.755605 
L 278.690658 273.600362 
L 278.303572 269.528282 
L 277.923928 265.534484 
L 277.551289 261.614366 
L 277.18524 257.763584 
L 276.825391 253.97803 
L 276.471373 250.253809 
L 276.122834 246.587228 
L 275.77944 242.974774 
L 275.440873 239.413105 
L 275.106831 235.899032 
L 274.777024 232.429506 
L 274.451174 229.001612 
L 274.129016 225.612551 
L 273.810293 222.259638 
L 273.494761 218.940285 
L 273.182182 215.651998 
L 272.872327 212.392367 
L 272.564974 209.159056 
L 272.259907 205.949803 
L 271.956918 202.762404 
L 271.655803 199.594714 
L 271.356362 196.444638 
L 271.0584 193.310125 
L 270.761727 190.189164 
L 270.466154 187.079776 
L 270.171495 183.980013 
L 269.877569 180.88795 
L 269.584193 177.801679 
L 269.291188 174.71931 
L 268.998375 171.638959 
L 268.705575 168.558748 
L 268.41261 165.4768 
L 268.119302 162.391233 
L 267.825469 159.300158 
L 267.530932 156.201669 
L 267.235507 153.093845 
L 266.93901 149.97474 
L 266.641254 146.842382 
L 266.342046 143.694765 
L 266.041194 140.529843 
L 265.738498 137.345528 
L 265.433756 134.139683 
L 265.126759 130.910115 
L 264.817292 127.654569 
L 264.505135 124.370721 
L 264.190059 121.056174 
L 263.87183 117.708444 
L 263.550201 114.324962 
L 263.22492 110.903053 
L 262.895723 107.43994 
L 262.562332 103.932723 
L 262.224462 100.378375 
L 261.88181 96.77373 
L 261.534062 93.115467 
L 261.180885 89.400102 
L 260.821932 85.623968 
L 260.456836 81.783202 
L 260.085208 77.87373 
L 259.706639 73.891244 
L 259.320696 69.831181 
L 258.926919 65.688704 
L 258.52482 61.458676 
L 258.113878 57.135629 
L 257.69354 52.713737 
L 257.263215 48.186782 
L 256.822271 43.548114 
L 256.370031 38.790612 
L 255.905768 33.906637 
L 255.428703 28.887979 
L 254.937995 23.7258 
L 254.432738 18.41057 
L 253.911953 12.931992 
L 253.374582 7.278921 
" clip-path="url(#pc824b5c6b2)" style="fill: none; stroke: #000000; stroke-width: 1.5; stroke-linecap: square"/>
   </g>
   <g id="line2d_19">
    <path d="M 330.192053 346.6 
L 329.227612 341.26235 
L 328.124927 335.159587 
L 327.057975 329.25459 
L 326.024427 323.534471 
L 325.022139 317.987354 
L 324.049129 312.602275 
L 323.103565 307.369095 
L 322.183749 302.278418 
L 321.288106 297.321523 
L 320.41517 292.490299 
L 319.563576 287.777192 
L 318.73205 283.175154 
L 317.919403 278.677595 
L 317.124519 274.278348 
L 316.346354 269.971628 
L 315.583926 265.752005 
L 314.836311 261.614366 
L 314.102639 257.553896 
L 313.38209 253.566048 
L 312.673886 249.646526 
L 311.977292 245.791259 
L 311.29161 241.996387 
L 310.616179 238.258244 
L 309.950367 234.573338 
L 309.293572 230.93834 
L 308.645222 227.350074 
L 308.004765 223.805498 
L 307.371676 220.301697 
L 306.745449 216.835873 
L 306.125597 213.405333 
L 305.511652 210.007481 
L 304.90316 206.639811 
L 304.299683 203.299897 
L 303.700797 199.985386 
L 303.106087 196.693993 
L 302.515152 193.42349 
L 301.927598 190.171704 
L 301.343043 186.936511 
L 300.76111 183.715827 
L 300.181428 180.507605 
L 299.603633 177.309827 
L 299.027366 174.120504 
L 298.452271 170.937665 
L 297.877994 167.759357 
L 297.304184 164.583637 
L 296.730493 161.408568 
L 296.156569 158.232215 
L 295.582064 155.05264 
L 295.006624 151.867898 
L 294.429897 148.676029 
L 293.851525 145.475058 
L 293.271148 142.262986 
L 292.688399 139.037787 
L 292.102905 135.797402 
L 291.51429 132.539736 
L 290.922164 129.262646 
L 290.326134 125.963945 
L 289.725793 122.641386 
L 289.120725 119.292663 
L 288.510499 115.9154 
L 287.894674 112.507145 
L 287.272791 109.065363 
L 286.644376 105.587428 
L 286.008936 102.070614 
L 285.365958 98.512086 
L 284.71491 94.908888 
L 284.055233 91.257936 
L 283.386344 87.556004 
L 282.707634 83.799712 
L 282.01846 79.985515 
L 281.31815 76.109682 
L 280.605994 72.168288 
L 279.881244 68.15719 
L 279.143108 64.072012 
L 278.39075 59.908122 
L 277.623283 55.66061 
L 276.839764 51.324265 
L 276.039193 46.893541 
L 275.220502 42.362534 
L 274.382553 37.724942 
L 273.524128 32.97403 
L 272.643925 28.102591 
L 271.740548 23.102893 
L 270.812496 17.966634 
L 269.858155 12.684878 
L 268.875785 7.247995 
L 267.863506 1.645585 
" clip-path="url(#pc824b5c6b2)" style="fill: none; stroke: #000000; stroke-width: 1.5; stroke-linecap: square"/>
   </g>
   <g id="line2d_20">
    <path d="M 381.59053 346.6 
L 380.671163 343.310091 
L 378.811171 336.654203 
L 377.013963 330.222981 
L 375.27537 324.001511 
L 373.591561 317.976085 
L 371.959008 312.134077 
L 370.374456 306.463834 
L 368.834893 300.954584 
L 367.337531 295.596347 
L 365.879782 290.379865 
L 364.459241 285.296528 
L 363.073667 280.338322 
L 361.720972 275.497768 
L 360.399203 270.767882 
L 359.106532 266.142124 
L 357.841248 261.614366 
L 356.601741 257.178852 
L 355.386499 252.830169 
L 354.194097 248.563218 
L 353.023191 244.373187 
L 351.872509 240.25553 
L 350.74085 236.205941 
L 349.627071 232.220339 
L 348.53009 228.294846 
L 347.448875 224.425773 
L 346.382445 220.609604 
L 345.32986 216.842983 
L 344.290225 213.1227 
L 343.262679 209.445677 
L 342.246398 205.808964 
L 341.240587 202.209718 
L 340.244481 198.645205 
L 339.257344 195.112783 
L 338.27846 191.609895 
L 337.307137 188.134064 
L 336.342703 184.682884 
L 335.384503 181.254012 
L 334.431898 177.845163 
L 333.484264 174.454101 
L 332.540989 171.078638 
L 331.601472 167.716622 
L 330.665121 164.365936 
L 329.731352 161.024491 
L 328.799588 157.69022 
L 327.869257 154.361075 
L 326.939789 151.035018 
L 326.010617 147.710022 
L 325.081175 144.38406 
L 324.150896 141.055103 
L 323.219211 137.721115 
L 322.285548 134.380048 
L 321.34933 131.029837 
L 320.409973 127.668393 
L 319.466885 124.293601 
L 318.519467 120.903311 
L 317.567106 117.495336 
L 316.60918 114.067443 
L 315.645049 110.617349 
L 314.674061 107.142715 
L 313.695543 103.641136 
L 312.708804 100.11014 
L 311.713131 96.547173 
L 310.707787 92.949599 
L 309.692008 89.314685 
L 308.665003 85.639597 
L 307.625947 81.921388 
L 306.573983 78.156987 
L 305.508215 74.34319 
L 304.427708 70.476648 
L 303.331481 66.553852 
L 302.218505 62.571122 
L 301.087699 58.524591 
L 299.937926 54.410185 
L 298.767986 50.22361 
L 297.57661 45.960332 
L 296.362459 41.615551 
L 295.12411 37.184182 
L 293.860057 32.660828 
L 292.568694 28.039749 
L 291.248314 23.314835 
L 289.897095 18.479566 
L 288.513092 13.526979 
L 287.094222 8.449621 
L 285.638251 3.239501 
L 284.45352 -1 
" clip-path="url(#pc824b5c6b2)" style="fill: none; stroke: #000000; stroke-width: 1.5; stroke-linecap: square"/>
   </g>
   <g id="line2d_21">
    <path d="M 445.717785 346.6 
L 443.740208 341.688885 
L 440.755956 334.27779 
L 437.877428 327.129251 
L 435.09744 320.225428 
L 432.409408 313.549968 
L 429.807284 307.087851 
L 427.285503 300.825256 
L 424.838931 294.749438 
L 422.462829 288.848623 
L 420.152806 283.111911 
L 417.904795 277.529197 
L 415.715014 272.091093 
L 413.579946 266.788864 
L 411.496312 261.614366 
L 409.461051 256.559997 
L 407.471299 251.618645 
L 405.524374 246.78365 
L 403.617759 242.04876 
L 401.749087 237.408101 
L 399.916133 232.85614 
L 398.116796 228.387664 
L 396.349092 223.997746 
L 394.611145 219.681727 
L 392.901177 215.435191 
L 391.2175 211.253946 
L 389.558509 207.134008 
L 387.922677 203.071581 
L 386.308545 199.063045 
L 384.71472 195.104939 
L 383.139868 191.19395 
L 381.582709 187.326899 
L 380.042013 183.500733 
L 378.516596 179.71251 
L 377.005315 175.959395 
L 375.507067 172.238646 
L 374.020783 168.547606 
L 372.545424 164.883699 
L 371.079981 161.244416 
L 369.62347 157.627316 
L 368.17493 154.030011 
L 366.73342 150.450163 
L 365.298017 146.885481 
L 363.867812 143.333708 
L 362.44191 139.792622 
L 361.019427 136.260026 
L 359.599486 132.733744 
L 358.181217 129.211614 
L 356.763755 125.691487 
L 355.346235 122.171218 
L 353.927794 118.648659 
L 352.507564 115.12166 
L 351.084676 111.588059 
L 349.658252 108.045676 
L 348.227406 104.492312 
L 346.791242 100.92574 
L 345.348849 97.343699 
L 343.899301 93.743892 
L 342.441656 90.123975 
L 340.974949 86.481553 
L 339.498193 82.814176 
L 338.010375 79.119328 
L 336.510453 75.39442 
L 334.997353 71.636787 
L 333.469967 67.843674 
L 331.927146 64.012232 
L 330.367701 60.139504 
L 328.790395 56.222422 
L 327.193942 52.25779 
L 325.577001 48.242275 
L 323.938168 44.172397 
L 322.275978 40.044512 
L 320.588892 35.854801 
L 318.875294 31.599252 
L 317.133486 27.273645 
L 315.361677 22.873533 
L 313.557977 18.394222 
L 311.720387 13.830749 
L 309.846791 9.177858 
L 307.934943 4.429975 
L 305.98246 -0.418824 
L 305.748435 -1 
" clip-path="url(#pc824b5c6b2)" style="fill: none; stroke: #000000; stroke-width: 1.5; stroke-linecap: square"/>
   </g>
   <g id="line2d_22">
    <path clip-path="url(#pc824b5c6b2)" style="fill: none; stroke: #000000; stroke-width: 1.5; stroke-linecap: square"/>
   </g>
   <g id="line2d_23">
    <path clip-path="url(#pc824b5c6b2)" style="fill: none; stroke: #000000; stroke-width: 1.5; stroke-linecap: square"/>
   </g>
   <g id="line2d_24">
    <path d="M -1 325.854649 
L 5.197477 324.911113 
L 13.691409 323.638065 
L 21.84373 322.435965 
L 29.679777 321.299901 
L 37.22256 320.225428 
L 44.493027 319.20851 
L 51.510296 318.245477 
L 58.291853 317.332984 
L 64.853731 316.467979 
L 71.210657 315.64767 
L 77.376191 314.869501 
L 83.362846 314.131126 
L 89.182184 313.430392 
L 94.844919 312.765317 
L 100.360992 312.134077 
L 105.739644 311.53499 
L 110.989487 310.966506 
L 116.118555 310.427191 
L 121.134362 309.915722 
L 126.043943 309.430873 
L 130.853902 308.971512 
L 135.570446 308.53659 
L 140.199423 308.125134 
L 144.746347 307.736247 
L 149.216435 307.369095 
L 153.614625 307.022907 
L 157.945603 306.696968 
L 162.213825 306.39062 
L 166.423535 306.103252 
L 170.578784 305.8343 
L 174.683448 305.583245 
L 178.74124 305.349609 
L 182.755727 305.132954 
L 186.730344 304.932877 
L 190.668403 304.749011 
L 194.573109 304.581024 
L 198.447565 304.428613 
L 202.294788 304.291507 
L 206.117717 304.169464 
L 209.919219 304.06227 
L 213.702101 303.969739 
L 217.46912 303.891711 
L 221.222985 303.828051 
L 224.96637 303.77865 
L 228.701922 303.743423 
L 232.432262 303.722311 
L 236.16 303.715278 
L 239.887738 303.722311 
L 243.618078 303.743423 
L 247.35363 303.77865 
L 251.097015 303.828051 
L 254.85088 303.891711 
L 258.617899 303.969739 
L 262.400781 304.06227 
L 266.202283 304.169464 
L 270.025212 304.291507 
L 273.872435 304.428613 
L 277.746891 304.581024 
L 281.651597 304.749011 
L 285.589656 304.932877 
L 289.564273 305.132954 
L 293.57876 305.349609 
L 297.636552 305.583245 
L 301.741216 305.8343 
L 305.896465 306.103252 
L 310.106175 306.39062 
L 314.374397 306.696968 
L 318.705375 307.022907 
L 323.103565 307.369095 
L 327.573653 307.736247 
L 332.120577 308.125134 
L 336.749554 308.53659 
L 341.466098 308.971512 
L 346.276057 309.430873 
L 351.185638 309.915722 
L 356.201445 310.427191 
L 361.330513 310.966506 
L 366.580356 311.53499 
L 371.959008 312.134077 
L 377.475081 312.765317 
L 383.137816 313.430392 
L 388.957154 314.131126 
L 394.943809 314.869501 
L 401.109343 315.64767 
L 407.466269 316.467979 
L 414.028147 317.332984 
L 420.809704 318.245477 
L 427.826973 319.20851 
L 435.09744 320.225428 
" clip-path="url(#pc824b5c6b2)" style="fill: none; stroke: #000000; stroke-width: 1.5; stroke-linecap: square"/>
   </g>
   <g id="line2d_25">
    <path d="M -1 261.614366 
L 4.088986 261.614366 
L 12.147952 261.614366 
L 19.889645 261.614366 
L 27.336888 261.614366 
L 34.510455 261.614366 
L 41.429298 261.614366 
L 48.110747 261.614366 
L 54.570682 261.614366 
L 60.823688 261.614366 
L 66.883183 261.614366 
L 72.76154 261.614366 
L 78.470186 261.614366 
L 84.019701 261.614366 
L 89.419891 261.614366 
L 94.679863 261.614366 
L 99.808094 261.614366 
L 104.812483 261.614366 
L 109.700403 261.614366 
L 114.478752 261.614366 
L 119.15399 261.614366 
L 123.732177 261.614366 
L 128.219009 261.614366 
L 132.619849 261.614366 
L 136.939751 261.614366 
L 141.18349 261.614366 
L 145.355582 261.614366 
L 149.460305 261.614366 
L 153.501721 261.614366 
L 157.483689 261.614366 
L 161.409887 261.614366 
L 165.283821 261.614366 
L 169.108842 261.614366 
L 172.888159 261.614366 
L 176.62485 261.614366 
L 180.32187 261.614366 
L 183.982066 261.614366 
L 187.608183 261.614366 
L 191.202875 261.614366 
L 194.768711 261.614366 
L 198.308186 261.614366 
L 201.823723 261.614366 
L 205.317687 261.614366 
L 208.792385 261.614366 
L 212.250076 261.614366 
L 215.692978 261.614366 
L 219.123271 261.614366 
L 222.543103 261.614366 
L 225.954596 261.614366 
L 229.359854 261.614366 
L 232.760963 261.614366 
L 236.16 261.614366 
L 239.559037 261.614366 
L 242.960146 261.614366 
L 246.365404 261.614366 
L 249.776897 261.614366 
L 253.196729 261.614366 
L 256.627022 261.614366 
L 260.069924 261.614366 
L 263.527615 261.614366 
L 267.002313 261.614366 
L 270.496277 261.614366 
L 274.011814 261.614366 
L 277.551289 261.614366 
L 281.117125 261.614366 
L 284.711817 261.614366 
L 288.337934 261.614366 
L 291.99813 261.614366 
L 295.69515 261.614366 
L 299.431841 261.614366 
L 303.211158 261.614366 
L 307.036179 261.614366 
L 310.910113 261.614366 
L 314.836311 261.614366 
L 318.818279 261.614366 
L 322.859695 261.614366 
L 326.964418 261.614366 
L 331.13651 261.614366 
L 335.380249 261.614366 
L 339.700151 261.614366 
L 344.100991 261.614366 
L 348.587823 261.614366 
L 353.16601 261.614366 
L 357.841248 261.614366 
L 362.619597 261.614366 
L 367.507517 261.614366 
L 372.511906 261.614366 
L 377.640137 261.614366 
L 382.900109 261.614366 
L 388.300299 261.614366 
L 393.849814 261.614366 
L 399.55846 261.614366 
L 405.436817 261.614366 
L 411.496312 261.614366 
" clip-path="url(#pc824b5c6b2)" style="fill: none; stroke: #000000; stroke-width: 1.5; stroke-linecap: square"/>
   </g>
   <g id="line2d_26">
    <path d="M -1 204.19626 
L 3.094393 204.821406 
L 10.763399 205.976213 
L 18.137261 207.07079 
L 25.236601 208.109149 
L 32.080228 209.094942 
L 38.685339 210.031499 
L 45.067691 210.921866 
L 51.241745 211.768828 
L 57.220808 212.574944 
L 63.017142 213.342561 
L 68.642069 214.073839 
L 74.106061 214.77077 
L 79.418823 215.435191 
L 84.589364 216.068798 
L 89.626059 216.673163 
L 94.536706 217.249737 
L 99.32858 217.79987 
L 104.008478 218.324813 
L 108.582759 218.825726 
L 113.05738 219.303691 
L 117.437935 219.759712 
L 121.729677 220.194726 
L 125.937555 220.609604 
L 130.066231 221.00516 
L 134.120108 221.38215 
L 138.103345 221.741284 
L 142.019885 222.083221 
L 145.873461 222.408576 
L 149.667621 222.717927 
L 153.405739 223.01181 
L 157.091027 223.290725 
L 160.72655 223.555143 
L 164.315235 223.805498 
L 167.859882 224.042198 
L 171.363177 224.265623 
L 174.827695 224.476125 
L 178.255913 224.674032 
L 181.650217 224.85965 
L 185.012908 225.03326 
L 188.34621 225.195124 
L 191.652274 225.345482 
L 194.93319 225.484557 
L 198.190984 225.612551 
L 201.427632 225.72965 
L 204.645059 225.836022 
L 207.845146 225.931818 
L 211.029735 226.017175 
L 214.200634 226.092212 
L 217.359619 226.157035 
L 220.508441 226.211734 
L 223.648827 226.256385 
L 226.782487 226.291049 
L 229.911115 226.315776 
L 233.036394 226.330598 
L 236.16 226.335536 
L 239.283606 226.330598 
L 242.408885 226.315776 
L 245.537513 226.291049 
L 248.671173 226.256385 
L 251.811559 226.211734 
L 254.960381 226.157035 
L 258.119366 226.092212 
L 261.290265 226.017175 
L 264.474854 225.931818 
L 267.674941 225.836022 
L 270.892368 225.72965 
L 274.129016 225.612551 
L 277.38681 225.484557 
L 280.667726 225.345482 
L 283.97379 225.195124 
L 287.307092 225.03326 
L 290.669783 224.85965 
L 294.064087 224.674032 
L 297.492305 224.476125 
L 300.956823 224.265623 
L 304.460118 224.042198 
L 308.004765 223.805498 
L 311.59345 223.555143 
L 315.228973 223.290725 
L 318.914261 223.01181 
L 322.652379 222.717927 
L 326.446539 222.408576 
L 330.300115 222.083221 
L 334.216655 221.741284 
L 338.199892 221.38215 
L 342.253769 221.00516 
L 346.382445 220.609604 
L 350.590323 220.194726 
L 354.882065 219.759712 
L 359.26262 219.303691 
L 363.737241 218.825726 
L 368.311522 218.324813 
L 372.99142 217.79987 
L 377.783294 217.249737 
L 382.693941 216.673163 
L 387.730636 216.068798 
L 392.901177 215.435191 
" clip-path="url(#pc824b5c6b2)" style="fill: none; stroke: #000000; stroke-width: 1.5; stroke-linecap: square"/>
   </g>
   <g id="line2d_27">
    <path d="M 4.189365 150.304518 
L 11.401683 152.559404 
L 18.345953 154.700821 
L 25.040244 156.73612 
L 31.501086 158.672015 
L 37.743632 160.514649 
L 43.781804 162.269652 
L 49.62841 163.942191 
L 55.295263 165.537021 
L 60.793273 167.058518 
L 66.132536 168.510722 
L 71.322408 169.897362 
L 76.371575 171.221889 
L 81.288113 172.487497 
L 86.079545 173.69715 
L 90.752884 174.853598 
L 95.314685 175.959395 
L 99.771075 177.016921 
L 104.127797 178.028387 
L 108.390235 178.995857 
L 112.56345 179.921256 
L 116.652198 180.806378 
L 120.660962 181.652901 
L 124.59397 182.462394 
L 128.455211 183.236322 
L 132.248462 183.976057 
L 135.977297 184.682884 
L 139.645103 185.358005 
L 143.255098 186.002547 
L 146.810339 186.617565 
L 150.313737 187.204047 
L 153.768066 187.762921 
L 157.175973 188.295056 
L 160.539989 188.801263 
L 163.862534 189.282306 
L 167.14593 189.738897 
L 170.392402 190.171704 
L 173.60409 190.581351 
L 176.783053 190.968421 
L 179.931276 191.333457 
L 183.050676 191.676968 
L 186.143102 191.999423 
L 189.21035 192.301263 
L 192.254157 192.582892 
L 195.276213 192.844686 
L 198.27816 193.086991 
L 201.2616 193.310125 
L 204.228095 193.514377 
L 207.179175 193.700011 
L 210.116335 193.867266 
L 213.041047 194.016354 
L 215.954752 194.147465 
L 218.858875 194.260764 
L 221.754819 194.356394 
L 224.643971 194.434474 
L 227.527705 194.495103 
L 230.407385 194.538355 
L 233.284366 194.564285 
L 236.16 194.572925 
L 239.035634 194.564285 
L 241.912615 194.538355 
L 244.792295 194.495103 
L 247.676029 194.434474 
L 250.565181 194.356394 
L 253.461125 194.260764 
L 256.365248 194.147465 
L 259.278953 194.016354 
L 262.203665 193.867266 
L 265.140825 193.700011 
L 268.091905 193.514377 
L 271.0584 193.310125 
L 274.04184 193.086991 
L 277.043787 192.844686 
L 280.065843 192.582892 
L 283.10965 192.301263 
L 286.176898 191.999423 
L 289.269324 191.676968 
L 292.388724 191.333457 
L 295.536947 190.968421 
L 298.71591 190.581351 
L 301.927598 190.171704 
L 305.17407 189.738897 
L 308.457466 189.282306 
L 311.780011 188.801263 
L 315.144027 188.295056 
L 318.551934 187.762921 
L 322.006263 187.204047 
L 325.509661 186.617565 
L 329.064902 186.002547 
L 332.674897 185.358005 
L 336.342703 184.682884 
L 340.071538 183.976057 
L 343.864789 183.236322 
L 347.72603 182.462394 
L 351.659038 181.652901 
L 355.667802 180.806378 
L 359.75655 179.921256 
L 363.929765 178.995857 
L 368.192203 178.028387 
L 372.548925 177.016921 
L 377.005315 175.959395 
" clip-path="url(#pc824b5c6b2)" style="fill: none; stroke: #000000; stroke-width: 1.5; stroke-linecap: square"/>
   </g>
   <g id="line2d_28">
    <path d="M 34.422879 108.060802 
L 40.177747 110.773191 
L 45.754248 113.362416 
L 51.163017 115.835459 
L 56.413899 118.198765 
L 61.516019 120.458292 
L 66.477847 122.619555 
L 71.30726 124.687667 
L 76.011594 126.667371 
L 80.597688 128.563076 
L 85.07193 130.378881 
L 89.440294 132.118606 
L 93.708374 133.785809 
L 97.881414 135.383811 
L 101.96434 136.915713 
L 105.961779 138.384413 
L 109.87809 139.792622 
L 113.717378 141.14288 
L 117.483517 142.437562 
L 121.180168 143.678899 
L 124.81079 144.86898 
L 128.378662 146.009768 
L 131.886891 147.103104 
L 135.338426 148.150719 
L 138.736068 149.15424 
L 142.082483 150.115194 
L 145.380211 151.035018 
L 148.631672 151.915065 
L 151.839177 152.756606 
L 155.004935 153.560835 
L 158.13106 154.328879 
L 161.219577 155.061793 
L 164.272427 155.760573 
L 167.291477 156.426154 
L 170.27852 157.059413 
L 173.235283 157.661176 
L 176.163431 158.232215 
L 179.06457 158.773256 
L 181.940253 159.28498 
L 184.791983 159.768021 
L 187.621216 160.222973 
L 190.429366 160.65039 
L 193.217806 161.050788 
L 195.987873 161.424645 
L 198.740867 161.772405 
L 201.478062 162.094475 
L 204.200698 162.391233 
L 206.909993 162.663023 
L 209.607138 162.910157 
L 212.293304 163.13292 
L 214.969643 163.331564 
L 217.637289 163.506317 
L 220.297361 163.657374 
L 222.950965 163.784906 
L 225.599195 163.889057 
L 228.243139 163.969943 
L 230.883872 164.027654 
L 233.52247 164.062256 
L 236.16 164.073785 
L 238.79753 164.062256 
L 241.436128 164.027654 
L 244.076861 163.969943 
L 246.720805 163.889057 
L 249.369035 163.784906 
L 252.022639 163.657374 
L 254.682711 163.506317 
L 257.350357 163.331564 
L 260.026696 163.13292 
L 262.712862 162.910157 
L 265.410007 162.663023 
L 268.119302 162.391233 
L 270.841938 162.094475 
L 273.579133 161.772405 
L 276.332127 161.424645 
L 279.102194 161.050788 
L 281.890634 160.65039 
L 284.698784 160.222973 
L 287.528017 159.768021 
L 290.379747 159.28498 
L 293.25543 158.773256 
L 296.156569 158.232215 
L 299.084717 157.661176 
L 302.04148 157.059413 
L 305.028523 156.426154 
L 308.047573 155.760573 
L 311.100423 155.061793 
L 314.18894 154.328879 
L 317.315065 153.560835 
L 320.480823 152.756606 
L 323.688328 151.915065 
L 326.939789 151.035018 
L 330.237517 150.115194 
L 333.583932 149.15424 
L 336.981574 148.150719 
L 340.433109 147.103104 
L 343.941338 146.009768 
L 347.50921 144.86898 
L 351.139832 143.678899 
L 354.836483 142.437562 
L 358.602622 141.14288 
L 362.44191 139.792622 
" clip-path="url(#pc824b5c6b2)" style="fill: none; stroke: #000000; stroke-width: 1.5; stroke-linecap: square"/>
   </g>
   <g id="line2d_29">
    <path d="M 62.230328 69.206901 
L 66.779533 72.144283 
L 71.214792 74.961694 
L 75.542043 77.664998 
L 79.766847 80.259667 
L 83.894412 82.750807 
L 87.929628 85.143191 
L 91.877086 87.441286 
L 95.741105 89.649271 
L 99.525753 91.771063 
L 103.234862 93.810338 
L 106.872051 95.770542 
L 110.440737 97.654914 
L 113.944152 99.466498 
L 117.385358 101.208156 
L 120.767255 102.882582 
L 124.092594 104.492312 
L 127.363989 106.039736 
L 130.583925 107.527104 
L 133.754767 108.956541 
L 136.878767 110.33005 
L 139.958073 111.649519 
L 142.994736 112.916732 
L 145.990714 114.133374 
L 148.947883 115.301035 
L 151.868037 116.421216 
L 154.752894 117.495336 
L 157.604105 118.524734 
L 160.423254 119.510675 
L 163.211865 120.454355 
L 165.971404 121.356901 
L 168.703283 122.219378 
L 171.408863 123.04279 
L 174.089461 123.828086 
L 176.746348 124.576158 
L 179.380752 125.287847 
L 181.993866 125.963945 
L 184.586844 126.605197 
L 187.16081 127.212301 
L 189.716852 127.785913 
L 192.256032 128.326647 
L 194.779383 128.835077 
L 197.287916 129.311738 
L 199.782614 129.757127 
L 202.264442 130.171707 
L 204.734343 130.555906 
L 207.193241 130.910115 
L 209.642047 131.234697 
L 212.081652 131.529978 
L 214.512936 131.796258 
L 216.936766 132.033803 
L 219.353998 132.242851 
L 221.765477 132.423609 
L 224.17204 132.576257 
L 226.574519 132.700946 
L 228.973736 132.797799 
L 231.370512 132.866912 
L 233.765662 132.908352 
L 236.16 132.922161 
L 238.554338 132.908352 
L 240.949488 132.866912 
L 243.346264 132.797799 
L 245.745481 132.700946 
L 248.14796 132.576257 
L 250.554523 132.423609 
L 252.966002 132.242851 
L 255.383234 132.033803 
L 257.807064 131.796258 
L 260.238348 131.529978 
L 262.677953 131.234697 
L 265.126759 130.910115 
L 267.585657 130.555906 
L 270.055558 130.171707 
L 272.537386 129.757127 
L 275.032084 129.311738 
L 277.540617 128.835077 
L 280.063968 128.326647 
L 282.603148 127.785913 
L 285.15919 127.212301 
L 287.733156 126.605197 
L 290.326134 125.963945 
L 292.939248 125.287847 
L 295.573652 124.576158 
L 298.230539 123.828086 
L 300.911137 123.04279 
L 303.616717 122.219378 
L 306.348596 121.356901 
L 309.108135 120.454355 
L 311.896746 119.510675 
L 314.715895 118.524734 
L 317.567106 117.495336 
L 320.451963 116.421216 
L 323.372117 115.301035 
L 326.329286 114.133374 
L 329.325264 112.916732 
L 332.361927 111.649519 
L 335.441233 110.33005 
L 338.565233 108.956541 
L 341.736075 107.527104 
L 344.956011 106.039736 
L 348.227406 104.492312 
" clip-path="url(#pc824b5c6b2)" style="fill: none; stroke: #000000; stroke-width: 1.5; stroke-linecap: square"/>
   </g>
   <g id="line2d_30">
    <path d="M 89.471962 31.143583 
L 92.96626 34.118091 
L 96.394502 36.984539 
L 99.759608 39.74734 
L 103.064343 42.410655 
L 106.311331 44.978406 
L 109.503063 47.454297 
L 112.641905 49.841824 
L 115.730109 52.144291 
L 118.769815 54.364822 
L 121.763066 56.506371 
L 124.711806 58.571735 
L 127.617893 60.563559 
L 130.483099 62.484351 
L 133.309122 64.336486 
L 136.097582 66.122216 
L 138.850033 67.843674 
L 141.567964 69.502886 
L 144.252801 71.10177 
L 146.905916 72.642151 
L 149.528625 74.125755 
L 152.122193 75.554225 
L 154.68784 76.929118 
L 157.226738 78.251913 
L 159.740018 79.524013 
L 162.228772 80.746749 
L 164.694053 81.921388 
L 167.136879 83.049128 
L 169.558235 84.131107 
L 171.959075 85.168405 
L 174.340321 86.162046 
L 176.702871 87.113 
L 179.047593 88.022185 
L 181.375334 88.890471 
L 183.686913 89.71868 
L 185.983131 90.50759 
L 188.264767 91.257936 
L 190.532582 91.970408 
L 192.787316 92.64566 
L 195.029694 93.284304 
L 197.260426 93.886916 
L 199.480205 94.454036 
L 201.689712 94.986168 
L 203.889614 95.483782 
L 206.080566 95.947316 
L 208.263214 96.377174 
L 210.43819 96.77373 
L 212.60612 97.137327 
L 214.76762 97.468279 
L 216.923299 97.766869 
L 219.073759 98.033353 
L 221.219594 98.267957 
L 223.361395 98.470881 
L 225.499747 98.642297 
L 227.63523 98.78235 
L 229.768423 98.891158 
L 231.899901 98.968812 
L 234.030236 99.015379 
L 236.16 99.030897 
L 238.289764 99.015379 
L 240.420099 98.968812 
L 242.551577 98.891158 
L 244.68477 98.78235 
L 246.820253 98.642297 
L 248.958605 98.470881 
L 251.100406 98.267957 
L 253.246241 98.033353 
L 255.396701 97.766869 
L 257.55238 97.468279 
L 259.71388 97.137327 
L 261.88181 96.77373 
L 264.056786 96.377174 
L 266.239434 95.947316 
L 268.430386 95.483782 
L 270.630288 94.986168 
L 272.839795 94.454036 
L 275.059574 93.886916 
L 277.290306 93.284304 
L 279.532684 92.64566 
L 281.787418 91.970408 
L 284.055233 91.257936 
L 286.336869 90.50759 
L 288.633087 89.71868 
L 290.944666 88.890471 
L 293.272407 88.022185 
L 295.617129 87.113 
L 297.979679 86.162046 
L 300.360925 85.168405 
L 302.761765 84.131107 
L 305.183121 83.049128 
L 307.625947 81.921388 
L 310.091228 80.746749 
L 312.579982 79.524013 
L 315.093262 78.251913 
L 317.63216 76.929118 
L 320.197807 75.554225 
L 322.791375 74.125755 
L 325.414084 72.642151 
L 328.067199 71.10177 
L 330.752036 69.502886 
L 333.469967 67.843674 
" clip-path="url(#pc824b5c6b2)" style="fill: none; stroke: #000000; stroke-width: 1.5; stroke-linecap: square"/>
   </g>
   <g id="line2d_31">
    <path d="M 124.729125 -1 
L 125.355857 -0.328937 
L 127.796337 2.231162 
L 130.209343 4.710371 
L 132.595813 7.111151 
L 134.956658 9.435853 
L 137.292752 11.686721 
L 139.604943 13.865897 
L 141.89405 15.975429 
L 144.160863 18.017269 
L 146.406149 19.993286 
L 148.630649 21.905265 
L 150.835083 23.75491 
L 153.020146 25.543851 
L 155.186514 27.273645 
L 157.334843 28.945781 
L 159.465769 30.561682 
L 161.579913 32.122708 
L 163.677874 33.630158 
L 165.760238 35.085273 
L 167.827575 36.489241 
L 169.88044 37.843195 
L 171.919373 39.148216 
L 173.944902 40.40534 
L 175.957541 41.615551 
L 177.957793 42.779792 
L 179.946148 43.898961 
L 181.923087 44.973913 
L 183.889078 46.005465 
L 185.844582 46.994391 
L 187.790048 47.941432 
L 189.725918 48.847289 
L 191.652624 49.712631 
L 193.570591 50.538089 
L 195.480236 51.324265 
L 197.381969 52.071725 
L 199.276193 52.781008 
L 201.163306 53.452619 
L 203.043697 54.087035 
L 204.917753 54.684705 
L 206.785852 55.246049 
L 208.64837 55.77146 
L 210.505678 56.261305 
L 212.358141 56.715923 
L 214.206122 57.135629 
L 216.049979 57.520712 
L 217.890067 57.871437 
L 219.726738 58.188044 
L 221.560343 58.470749 
L 223.391226 58.719746 
L 225.219735 58.935202 
L 227.04621 59.117266 
L 228.870995 59.266059 
L 230.694427 59.381683 
L 232.516847 59.464216 
L 234.338592 59.513713 
L 236.16 59.530209 
L 237.981408 59.513713 
L 239.803153 59.464216 
L 241.625573 59.381683 
L 243.449005 59.266059 
L 245.27379 59.117266 
L 247.100265 58.935202 
L 248.928774 58.719746 
L 250.759657 58.470749 
L 252.593262 58.188044 
L 254.429933 57.871437 
L 256.270021 57.520712 
L 258.113878 57.135629 
L 259.961859 56.715923 
L 261.814322 56.261305 
L 263.67163 55.77146 
L 265.534148 55.246049 
L 267.402247 54.684705 
L 269.276303 54.087035 
L 271.156694 53.452619 
L 273.043807 52.781008 
L 274.938031 52.071725 
L 276.839764 51.324265 
L 278.749409 50.538089 
L 280.667376 49.712631 
L 282.594082 48.847289 
L 284.529952 47.941432 
L 286.475418 46.994391 
L 288.430922 46.005465 
L 290.396913 44.973913 
L 292.373852 43.898961 
L 294.362207 42.779792 
L 296.362459 41.615551 
L 298.375098 40.40534 
L 300.400627 39.148216 
L 302.43956 37.843195 
L 304.492425 36.489241 
L 306.559762 35.085273 
L 308.642126 33.630158 
L 310.740087 32.122708 
L 312.854231 30.561682 
L 314.985157 28.945781 
L 317.133486 27.273645 
" clip-path="url(#pc824b5c6b2)" style="fill: none; stroke: #000000; stroke-width: 1.5; stroke-linecap: square"/>
   </g>
   <g id="line2d_32">
    <path d="M 199.616332 -1 
L 200.065716 -0.734682 
L 201.532029 0.09547 
L 202.995583 0.888765 
L 204.456494 1.645585 
L 205.914876 2.366294 
L 207.370843 3.051239 
L 208.82451 3.700747 
L 210.275991 4.315127 
L 211.725402 4.894673 
L 213.172857 5.439659 
L 214.618471 5.950343 
L 216.062359 6.426968 
L 217.504637 6.869758 
L 218.945418 7.278921 
L 220.384819 7.65465 
L 221.822954 7.997122 
L 223.259938 8.306497 
L 224.695886 8.582919 
L 226.130914 8.826519 
L 227.565137 9.037409 
L 228.998669 9.215689 
L 230.431625 9.361441 
L 231.864122 9.474733 
L 233.296273 9.555619 
L 234.728194 9.604135 
L 236.16 9.620305 
L 237.591806 9.604135 
L 239.023727 9.555619 
L 240.455878 9.474733 
L 241.888375 9.361441 
L 243.321331 9.215689 
L 244.754863 9.037409 
L 246.189086 8.826519 
L 247.624114 8.582919 
L 249.060062 8.306497 
L 250.497046 7.997122 
L 251.935181 7.65465 
L 253.374582 7.278921 
L 254.815363 6.869758 
L 256.257641 6.426968 
L 257.701529 5.950343 
L 259.147143 5.439659 
L 260.594598 4.894673 
L 262.044009 4.315127 
L 263.49549 3.700747 
L 264.949157 3.051239 
L 266.405124 2.366294 
L 267.863506 1.645585 
L 269.324417 0.888765 
L 270.787971 0.09547 
L 272.254284 -0.734682 
L 272.703668 -1 
" clip-path="url(#pc824b5c6b2)" style="fill: none; stroke: #000000; stroke-width: 1.5; stroke-linecap: square"/>
   </g>
   <g id="line2d_33">
    <path d="M 200.916235 -1 
L 201.261945 0.754395 
L 203.294919 4.024934 
L 203.283762 5.363917 
L 202.88284 6.949717 
L 203.658406 8.844698 
L 203.22696 10.192104 
L 202.100376 11.212874 
L 200.176582 11.654934 
L 199.660037 12.633885 
L 199.732028 14.558855 
L 199.319322 15.122058 
L 198.281451 14.509539 
L 198.209135 13.571931 
L 199.211059 11.025532 
L 199.061061 9.817873 
L 197.96034 8.031244 
L 196.131225 7.193008 
L 195.457721 8.063063 
L 195.780932 10.534372 
L 192.225596 7.909044 
L 190.407842 7.447726 
L 186.144847 2.636022 
L 185.767876 0.740517 
L 185.133631 -0.058366 
L 185.260837 -1 
M 182.120416 -1 
L 182.106342 -0.937345 
L 181.740694 -1 
M 180.301447 -1 
L 180.078187 -0.813232 
L 179.80732 0.317984 
L 178.721026 1.050579 
L 177.911318 -1 
M 100.963727 -1 
L 101.52099 3.194571 
L 102.733461 5.267864 
L 101.949603 7.398632 
L 100.551093 7.960088 
L 101.410293 10.840536 
L 101.274748 12.362908 
L 100.455411 13.296462 
L 100.296307 16.662901 
L 102.452539 20.923065 
L 102.224885 26.366566 
L 103.129371 28.938184 
L 102.938231 30.230474 
L 101.380606 30.30928 
L 100.377187 32.818242 
L 100.492576 34.386685 
L 103.641075 38.081834 
L 105.042769 41.521925 
L 106.830452 43.415838 
L 107.674854 47.364593 
L 110.48796 51.828774 
L 111.461461 56.555116 
L 111.022222 57.726894 
L 108.74775 57.140209 
L 104.709557 53.28285 
L 103.178027 54.657096 
L 101.720965 61.9594 
L 96.393813 69.388967 
L 91.972144 73.746992 
L 91.059222 78.595839 
L 87.2526 83.555435 
L 88.180508 85.939476 
L 87.051433 90.257061 
L 88.674546 95.321439 
L 90.270028 97.01661 
L 89.054926 98.516199 
L 89.154318 100.256839 
L 89.621448 104.408219 
L 91.41614 109.113978 
L 91.488573 111.402288 
L 92.699123 113.698965 
L 95.384102 115.479355 
L 96.626596 117.326399 
L 98.560809 118.627217 
L 101.494216 123.032178 
L 101.872427 130.1596 
L 102.975394 133.977443 
L 102.935882 137.528909 
L 107.493912 144.81139 
L 106.821796 145.939314 
L 104.640691 147.028366 
L 103.996082 148.972248 
L 108.339912 152.406379 
L 111.035553 155.801617 
L 111.471062 157.168753 
L 110.871016 160.960912 
L 114.224597 165.17767 
L 116.73513 164.493576 
L 115.690242 162.446136 
L 114.468148 153.972081 
L 112.952578 151.847757 
L 111.750719 146.684629 
L 110.190082 142.877721 
L 108.086922 139.84941 
L 108.255383 134.190244 
L 110.578714 133.368106 
L 112.327448 133.983158 
L 114.210056 136.274649 
L 115.879291 146.289929 
L 117.893302 150.247785 
L 119.352772 151.159347 
L 120.155086 154.222091 
L 122.927827 156.818295 
L 122.284802 160.345744 
L 125.98784 164.062684 
L 131.900284 174.163162 
L 132.747104 178.520766 
L 130.359327 183.642936 
L 131.442142 185.671671 
L 135.387195 189.0492 
L 136.719366 191.069208 
L 141.106112 192.909522 
L 144.463713 195.914359 
L 148.620513 198.411384 
L 151.025576 199.203443 
L 159.057971 203.483719 
L 162.832945 202.880534 
L 164.740944 201.845687 
L 168.00572 202.928319 
L 172.939438 208.565876 
L 175.629679 210.857253 
L 178.996602 211.569508 
L 185.049139 214.221057 
L 186.95636 214.183877 
L 192.769787 221.622312 
L 193.144553 225.844911 
L 194.09409 226.37804 
L 196.058852 226.32492 
L 198.132722 227.946585 
L 200.035306 230.678963 
L 201.648934 231.507868 
L 203.259315 231.516519 
L 206.665191 233.735877 
L 207.568934 234.985768 
L 209.665325 234.702583 
L 209.560944 233.029141 
L 212.147059 229.805919 
L 214.296819 229.737659 
L 215.563071 231.171966 
L 216.116248 233.803503 
L 218.564788 237.303965 
L 219.149663 240.525025 
L 218.644609 242.741994 
L 218.892765 247.422197 
L 218.205743 249.501745 
L 217.152908 250.926844 
L 213.761519 253.377133 
L 213.05192 255.768485 
L 211.610088 257.519796 
L 210.202513 257.823873 
L 206.075816 265.2129 
L 205.229034 270.147864 
L 206.152089 271.494695 
L 207.371996 271.94423 
L 207.452429 274.817912 
L 204.422231 277.284508 
L 202.919989 279.918024 
L 203.833721 283.539914 
L 203.392869 285.365949 
L 203.91941 287.079312 
L 207.121557 289.370337 
L 209.080927 294.155094 
L 210.393776 295.786341 
L 213.366969 305.509447 
L 219.26295 319.466095 
L 220.73004 326.862715 
L 224.850145 332.054961 
L 238.580942 342.521413 
L 240.954327 346.6 
M 387.643999 346.6 
L 385.541904 341.207986 
L 383.99108 332.352038 
L 386.723359 331.340468 
L 389.122373 325.086187 
L 389.710977 320.660083 
L 393.761828 316.982794 
L 397.610845 310.337252 
L 398.100237 303.780721 
L 395.637074 297.405287 
L 391.160641 289.913562 
L 388.745615 287.469249 
L 384.318148 286.995652 
L 376.06787 283.852833 
L 371.389282 280.267534 
L 361.522274 274.765026 
L 354.818953 274.855842 
L 350.207476 274.077921 
L 345.974894 272.276209 
L 343.654498 272.729556 
L 341.689905 272.303981 
L 338.383957 269.422798 
L 333.473084 266.842683 
L 325.32941 264.326933 
L 323.218762 264.578397 
L 322.288899 267.118217 
L 320.872973 268.521581 
L 315.189111 269.458913 
L 312.668629 267.583399 
L 309.300703 263.776223 
L 314.114069 257.204908 
L 313.350966 254.439771 
L 311.527209 254.042704 
L 306.824788 245.057437 
L 305.178416 244.381834 
L 300.416443 240.79644 
L 296.123753 239.475698 
L 292.426943 238.931306 
L 288.249846 239.469072 
L 285.769293 239.153593 
L 280.199085 235.275407 
L 279.444819 233.779442 
L 276.850147 231.762301 
L 275.003235 230.967448 
L 271.629294 230.521866 
L 271.605228 228.199062 
L 269.747893 226.846809 
L 267.292044 226.431431 
L 265.471731 224.963679 
L 264.722084 223.566177 
L 261.240331 223.921073 
L 258.657919 225.806106 
L 257.225706 225.726804 
L 255.508946 225.387436 
L 254.506768 224.417512 
L 253.264799 224.107684 
L 249.257375 224.620767 
L 247.729541 224.139873 
L 247.527179 222.823737 
L 245.909613 221.526851 
L 241.771273 221.053336 
L 241.039211 222.073921 
L 237.859727 223.315854 
L 237.844553 224.815563 
L 238.823015 226.494692 
L 238.782543 228.744598 
L 236.939744 228.918464 
L 236.439627 228.015535 
L 236.436908 225.924 
L 237.118116 223.586622 
L 236.571352 222.292588 
L 237.572387 220.744256 
L 235.734209 219.438046 
L 232.243124 222.032461 
L 227.380911 222.654464 
L 225.302379 224.652443 
L 224.170056 228.130043 
L 221.371674 230.649853 
L 219.781094 231.446425 
L 216.499232 228.523768 
L 212.649409 227.501502 
L 207.270245 229.954243 
L 204.418498 229.394671 
L 200.420546 224.684472 
L 199.457386 220.448295 
L 200.863456 213.652667 
L 201.981033 210.726347 
L 201.820534 209.551963 
L 199.631041 208.022847 
L 199.203802 206.459689 
L 194.355547 205.556802 
L 192.257562 206.092916 
L 188.145741 205.470153 
L 186.649717 205.889888 
L 185.103298 204.512409 
L 186.546754 203.41378 
L 187.019821 202.440405 
L 187.470522 199.665456 
L 189.386164 197.07096 
L 190.853229 192.180824 
L 193.148169 189.52216 
L 192.424222 187.788438 
L 189.961377 187.276812 
L 183.867501 187.778607 
L 182.332398 188.521395 
L 181.533851 191.249128 
L 179.801943 193.98505 
L 178.471608 195.286757 
L 176.350426 195.678643 
L 175.088751 195.095934 
L 168.435076 196.018475 
L 165.736546 193.907221 
L 163.705708 193.495946 
L 162.974897 192.113188 
L 159.562521 183.337473 
L 159.494042 180.749096 
L 161.19661 174.521848 
L 163.946005 169.19151 
L 163.615128 166.618987 
L 164.346922 164.560788 
L 166.403825 162.477427 
L 172.218958 160.600692 
L 173.922203 159.274257 
L 178.079101 159.290165 
L 179.751654 160.200098 
L 182.773937 160.242587 
L 184.417217 162.222865 
L 187.120172 162.640028 
L 188.422472 161.414906 
L 189.254213 159.885237 
L 190.004433 159.542808 
L 196.290853 159.977086 
L 200.286683 161.787334 
L 201.224374 162.942273 
L 203.67376 162.005731 
L 204.898743 162.611512 
L 207.32371 165.781941 
L 207.412482 167.55751 
L 207.015652 168.657755 
L 207.815282 172.236144 
L 211.72537 177.991265 
L 213.159508 177.036684 
L 214.242605 173.634072 
L 211.768639 164.455559 
L 211.276073 160.134431 
L 213.636928 156.375787 
L 216.541669 154.424302 
L 218.711578 152.04996 
L 221.186328 151.17382 
L 222.335867 149.862265 
L 224.744431 148.424465 
L 226.403726 146.713893 
L 226.712346 145.650138 
L 226.523096 143.381985 
L 225.594925 141.151678 
L 225.803168 139.433141 
L 228.392586 138.451408 
L 229.165426 135.46897 
L 231.147258 133.584923 
L 231.35673 130.553063 
L 233.698455 128.985001 
L 239.316916 127.711404 
L 239.318124 126.225497 
L 238.75164 124.755742 
L 238.915553 123.534997 
L 240.542664 120.350892 
L 241.991138 119.984614 
L 242.96757 118.840229 
L 244.138862 118.235819 
L 246.275961 117.689265 
L 247.536291 116.764562 
L 247.994395 115.752 
L 250.003754 115.212544 
L 250.611324 116.679763 
L 249.612268 118.190922 
L 249.602846 119.570109 
L 251.742567 120.233975 
L 254.658859 117.201329 
L 259.542086 114.590639 
L 260.189441 113.406789 
L 259.011296 112.594398 
L 257.481881 112.849427 
L 254.494427 112.314058 
L 252.413016 110.08026 
L 251.936691 109.175735 
L 251.52627 104.917539 
L 252.670183 103.84583 
L 252.822211 102.313092 
L 252.148822 101.359994 
L 249.781588 101.122384 
L 248.187945 101.555175 
L 243.862244 104.080414 
L 243.29713 102.660775 
L 245.394467 101.215183 
L 247.444264 98.223534 
L 248.252662 97.768689 
L 261.467394 95.83218 
L 264.400687 91.839878 
L 268.180999 89.867311 
L 269.926216 87.714551 
L 270.256612 86.054175 
L 269.329746 84.515857 
L 269.430592 82.388341 
L 266.46546 81.137006 
L 264.826134 79.321425 
L 264.56441 78.006566 
L 262.807088 78.045409 
L 259.226365 76.447548 
L 259.065853 75.2742 
L 256.816605 74.203692 
L 256.250123 73.447882 
L 256.06166 71.844416 
L 256.335714 70.577086 
L 255.191138 67.37745 
L 250.054385 58.060157 
L 249.025716 57.847819 
L 248.181471 59.697142 
L 247.711216 63.079871 
L 246.680076 64.016248 
L 246.171868 65.31714 
L 245.225599 66.102523 
L 243.850886 65.720378 
L 240.807764 63.582534 
L 240.930193 62.214766 
L 240.531802 61.234888 
L 240.311004 59.611932 
L 240.495577 58.510218 
L 240.21954 57.075744 
L 240.58975 56.09499 
L 237.247076 54.490936 
L 236.742423 53.628948 
L 236.520904 52.039191 
L 233.548457 48.773885 
L 231.415889 49.335921 
L 227.364607 47.700804 
L 225.789397 48.19266 
L 225.393317 49.22821 
L 226.015698 51.683105 
L 226.0056 53.600588 
L 225.508724 54.5226 
L 226.216011 59.98267 
L 224.880058 62.347651 
L 224.270395 64.873745 
L 226.437208 67.537391 
L 226.823395 68.56106 
L 227.419076 71.009514 
L 227.337741 74.715237 
L 225.489227 77.821159 
L 221.574802 80.214841 
L 221.112227 80.907624 
L 221.242488 82.13076 
L 221.708528 82.609014 
L 222.060542 87.529902 
L 222.700348 89.645743 
L 221.672761 92.158035 
L 220.040224 93.380147 
L 219.369621 93.448485 
L 218.488287 92.550879 
L 215.065425 86.411401 
L 215.590101 82.837642 
L 215.140708 81.56874 
L 215.744956 79.356941 
L 215.695822 78.343971 
L 209.601944 75.680824 
L 208.749018 74.465479 
L 205.56434 72.066073 
L 203.557827 68.516945 
L 200.41639 65.733832 
L 197.710229 65.25376 
L 196.476867 64.259818 
L 196.605126 63.39526 
L 196.046051 58.32021 
L 195.16552 56.847055 
L 194.290146 56.591075 
L 193.349166 55.243786 
L 193.384249 53.927159 
L 193.846207 51.230856 
L 194.614111 49.183454 
L 196.992171 44.527717 
L 197.66146 44.246564 
L 200.673867 40.306768 
L 203.956271 39.817122 
L 204.138183 37.314225 
L 205.344544 37.124833 
L 205.465793 35.998352 
L 206.265266 35.544803 
L 208.207761 36.479138 
L 209.277157 35.993371 
L 209.808503 34.494869 
L 211.24833 32.48938 
L 211.001128 31.012781 
L 208.22308 29.779175 
L 207.7471 28.567565 
L 208.917217 28.207902 
L 210.246999 30.496976 
L 210.910941 30.725376 
L 213.735776 27.642086 
L 213.31987 26.458184 
L 214.174203 25.518668 
L 216.18067 27.248171 
L 218.081335 27.341859 
L 219.471554 26.270688 
L 221.480043 24.167813 
L 221.894301 22.219189 
L 220.67752 19.081255 
L 220.58646 17.900085 
L 221.087986 16.6277 
L 222.330431 15.874694 
L 222.010642 13.836068 
L 222.1842 12.687046 
L 221.402962 12.288823 
L 220.203671 9.48227 
L 217.003856 7.751697 
L 216.499987 8.630379 
L 216.361387 10.542504 
L 216.792939 11.539254 
L 216.799505 12.906189 
L 215.587628 14.412565 
L 215.107732 16.572231 
L 213.854755 18.928272 
L 213.771227 20.128814 
L 212.814586 20.882921 
L 211.94701 19.905981 
L 211.285563 18.184576 
L 211.151141 16.541374 
L 212.339568 14.510978 
L 212.330175 12.402792 
L 211.36365 10.091734 
L 210.500509 9.2789 
L 209.897983 10.056869 
L 209.549475 11.682019 
L 208.497645 11.266145 
L 208.442859 6.48865 
L 207.206439 5.989299 
L 206.587138 4.557217 
L 206.999691 3.367027 
L 208.111734 1.965032 
L 207.295308 -1 
M 427.32003 -1 
L 425.249278 1.660015 
L 425.652061 3.527428 
L 432.152056 1.407781 
L 435.747592 -1 
M 458.002625 -1 
L 461.8 3.826242 
M 461.8 8.322483 
L 459.444094 10.828393 
L 455.561793 13.096891 
L 431.620442 31.893853 
L 429.455552 32.497322 
L 427.148686 34.538004 
L 426.299264 37.288479 
L 423.851002 40.351927 
L 424.725903 42.251684 
L 427.528753 42.721265 
L 429.617569 45.390438 
L 433.042505 47.190903 
L 435.370949 53.001801 
L 435.650808 57.058635 
L 437.509012 58.785926 
L 440.039436 58.397966 
L 446.608094 62.435923 
L 456.894439 55.344048 
L 461.8 55.210026 
M 461.8 77.209161 
L 460.962901 78.228915 
L 458.962972 83.004063 
L 460.104652 90.698576 
L 461.8 91.608962 
M 461.8 102.577684 
L 458.876005 107.382223 
L 450.451642 114.352902 
L 449.565366 121.013315 
L 447.145685 123.252645 
L 446.343131 125.407216 
L 447.249336 133.078284 
L 445.508741 135.524937 
L 444.046081 141.02057 
L 444.123396 145.311974 
L 442.504326 148.255182 
L 443.240943 150.48277 
L 444.940346 151.729256 
L 447.755817 153.172141 
L 449.92294 153.196862 
L 452.500611 155.146957 
L 452.756718 156.994352 
L 460.380493 164.865792 
L 461.8 172.883737 
M 461.8 177.393234 
L 460.867301 179.701068 
L 461.8 180.865531 
L 461.8 180.865531 
" clip-path="url(#pc824b5c6b2)" style="fill: none; stroke: #0000ff; stroke-width: 1.5; stroke-linecap: square"/>
   </g>
   <g id="line2d_34">
    <path d="M 314.368262 66.88389 
L 157.951738 66.88389 
L 109.616326 215.64474 
L 236.16 307.583997 
L 362.703674 215.64474 
L 314.368262 66.88389 
" clip-path="url(#pc824b5c6b2)" style="fill: none; stroke: #008000; stroke-width: 1.5; stroke-linecap: square"/>
   </g>
   <g id="patch_3">
    <path d="M 103.104 307.584 
L 103.104 41.472 
" style="fill: none; stroke: #000000; stroke-width: 0.8; stroke-linejoin: miter; stroke-linecap: square"/>
   </g>
   <g id="patch_4">
    <path d="M 369.216 307.584 
L 369.216 41.472 
" style="fill: none; stroke: #000000; stroke-width: 0.8; stroke-linejoin: miter; stroke-linecap: square"/>
   </g>
   <g id="patch_5">
    <path d="M 103.104 307.584 
L 369.216 307.584 
" style="fill: none; stroke: #000000; stroke-width: 0.8; stroke-linejoin: miter; stroke-linecap: square"/>
   </g>
   <g id="patch_6">
    <path d="M 103.104 41.472 
L 369.216 41.472 
" style="fill: none; stroke: #000000; stroke-width: 0.8; stroke-linejoin: miter; stroke-linecap: square"/>
   </g>
  </g>
 </g>
 <defs>
  <clipPath id="pc824b5c6b2">
   <rect x="103.104" y="41.472" width="266.112" height="266.112"/>
  </clipPath>
 </defs>
</svg>
