<?xml version="1.0" encoding="utf-8" standalone="no"?>
<!DOCTYPE svg PUBLIC "-//W3C//DTD SVG 1.1//EN"
  "http://www.w3.org/Graphics/SVG/1.1/DTD/svg11.dtd">
<svg xmlns:xlink="http://www.w3.org/1999/xlink" width="460.8pt" height="345.6pt" viewBox="0 0 460.8 345.6" xmlns="http://www.w3.org/2000/svg" version="1.1">
 <metadata>
  <rdf:RDF xmlns:dc="http://purl.org/dc/elements/1.1/" xmlns:cc="http://creativecommons.org/ns#" xmlns:rdf="http://www.w3.org/1999/02/22-rdf-syntax-ns#">
   <cc:Work>
    <dc:type rdf:resource="http://purl.org/dc/dcmitype/StillImage"/>
    <dc:date>2025-06-01T22:05:55.973040</dc:date>
    <dc:format>image/svg+xml</dc:format>
    <dc:creator>
     <cc:Agent>
      <dc:title>Matplotlib v3.6.3, https://matplotlib.org/</dc:title>
     </cc:Agent>
    </dc:creator>
   </cc:Work>
  </rdf:RDF>
 </metadata>
 <defs>
  <style type="text/css">*{stroke-linejoin: round; stroke-linecap: butt}</style>
 </defs>
 <g id="figure_1">
  <g id="patch_1">
   <path d="M 0 345.6 
L 460.8 345.6 
L 460.8 0 
L 0 0 
z
" style="fill: #ffffff"/>
  </g>
  <g id="axes_1">
   <g id="patch_2">
    <path d="M 103.104 307.584 
L 369.216 307.584 
L 369.216 41.472 
L 103.104 41.472 
z
" style="fill: #ffffff"/>
   </g>
   <g id="matplotlib.axis_1">
    <g id="xtick_1">
     <g id="line2d_1">
      <defs>
       <path id="me55248b341" d="M 0 0 
L 0 3.5 
" style="stroke: #000000; stroke-width: 0.8"/>
      </defs>
      <g>
       <use xlink:href="#me55248b341" x="126.929132" y="307.584" style="stroke: #000000; stroke-width: 0.8"/>
      </g>
     </g>
     <g id="text_1">
      <!-- −4 -->
      <g transform="translate(119.558038 322.182437) scale(0.1 -0.1)">
       <defs>
        <path id="DejaVuSans-2212" d="M 678 2272 
L 4684 2272 
L 4684 1741 
L 678 1741 
L 678 2272 
z
" transform="scale(0.015625)"/>
        <path id="DejaVuSans-34" d="M 2419 4116 
L 825 1625 
L 2419 1625 
L 2419 4116 
z
M 2253 4666 
L 3047 4666 
L 3047 1625 
L 3713 1625 
L 3713 1100 
L 3047 1100 
L 3047 0 
L 2419 0 
L 2419 1100 
L 313 1100 
L 313 1709 
L 2253 4666 
z
" transform="scale(0.015625)"/>
       </defs>
       <use xlink:href="#DejaVuSans-2212"/>
       <use xlink:href="#DejaVuSans-34" x="83.789062"/>
      </g>
     </g>
    </g>
    <g id="xtick_2">
     <g id="line2d_2">
      <g>
       <use xlink:href="#me55248b341" x="181.544566" y="307.584" style="stroke: #000000; stroke-width: 0.8"/>
      </g>
     </g>
     <g id="text_2">
      <!-- −2 -->
      <g transform="translate(174.173472 322.182437) scale(0.1 -0.1)">
       <defs>
        <path id="DejaVuSans-32" d="M 1228 531 
L 3431 531 
L 3431 0 
L 469 0 
L 469 531 
Q 828 903 1448 1529 
Q 2069 2156 2228 2338 
Q 2531 2678 2651 2914 
Q 2772 3150 2772 3378 
Q 2772 3750 2511 3984 
Q 2250 4219 1831 4219 
Q 1534 4219 1204 4116 
Q 875 4013 500 3803 
L 500 4441 
Q 881 4594 1212 4672 
Q 1544 4750 1819 4750 
Q 2544 4750 2975 4387 
Q 3406 4025 3406 3419 
Q 3406 3131 3298 2873 
Q 3191 2616 2906 2266 
Q 2828 2175 2409 1742 
Q 1991 1309 1228 531 
z
" transform="scale(0.015625)"/>
       </defs>
       <use xlink:href="#DejaVuSans-2212"/>
       <use xlink:href="#DejaVuSans-32" x="83.789062"/>
      </g>
     </g>
    </g>
    <g id="xtick_3">
     <g id="line2d_3">
      <g>
       <use xlink:href="#me55248b341" x="236.16" y="307.584" style="stroke: #000000; stroke-width: 0.8"/>
      </g>
     </g>
     <g id="text_3">
      <!-- 0 -->
      <g transform="translate(232.97875 322.182437) scale(0.1 -0.1)">
       <defs>
        <path id="DejaVuSans-30" d="M 2034 4250 
Q 1547 4250 1301 3770 
Q 1056 3291 1056 2328 
Q 1056 1369 1301 889 
Q 1547 409 2034 409 
Q 2525 409 2770 889 
Q 3016 1369 3016 2328 
Q 3016 3291 2770 3770 
Q 2525 4250 2034 4250 
z
M 2034 4750 
Q 2819 4750 3233 4129 
Q 3647 3509 3647 2328 
Q 3647 1150 3233 529 
Q 2819 -91 2034 -91 
Q 1250 -91 836 529 
Q 422 1150 422 2328 
Q 422 3509 836 4129 
Q 1250 4750 2034 4750 
z
" transform="scale(0.015625)"/>
       </defs>
       <use xlink:href="#DejaVuSans-30"/>
      </g>
     </g>
    </g>
    <g id="xtick_4">
     <g id="line2d_4">
      <g>
       <use xlink:href="#me55248b341" x="290.775434" y="307.584" style="stroke: #000000; stroke-width: 0.8"/>
      </g>
     </g>
     <g id="text_4">
      <!-- 2 -->
      <g transform="translate(287.594184 322.182437) scale(0.1 -0.1)">
       <use xlink:href="#DejaVuSans-32"/>
      </g>
     </g>
    </g>
    <g id="xtick_5">
     <g id="line2d_5">
      <g>
       <use xlink:href="#me55248b341" x="345.390868" y="307.584" style="stroke: #000000; stroke-width: 0.8"/>
      </g>
     </g>
     <g id="text_5">
      <!-- 4 -->
      <g transform="translate(342.209618 322.182437) scale(0.1 -0.1)">
       <use xlink:href="#DejaVuSans-34"/>
      </g>
     </g>
    </g>
    <g id="text_6">
     <!-- 1e6 -->
     <g transform="translate(350.337875 334.860562) scale(0.1 -0.1)">
      <defs>
       <path id="DejaVuSans-31" d="M 794 531 
L 1825 531 
L 1825 4091 
L 703 3866 
L 703 4441 
L 1819 4666 
L 2450 4666 
L 2450 531 
L 3481 531 
L 3481 0 
L 794 0 
L 794 531 
z
" transform="scale(0.015625)"/>
       <path id="DejaVuSans-65" d="M 3597 1894 
L 3597 1613 
L 953 1613 
Q 991 1019 1311 708 
Q 1631 397 2203 397 
Q 2534 397 2845 478 
Q 3156 559 3463 722 
L 3463 178 
Q 3153 47 2828 -22 
Q 2503 -91 2169 -91 
Q 1331 -91 842 396 
Q 353 884 353 1716 
Q 353 2575 817 3079 
Q 1281 3584 2069 3584 
Q 2775 3584 3186 3129 
Q 3597 2675 3597 1894 
z
M 3022 2063 
Q 3016 2534 2758 2815 
Q 2500 3097 2075 3097 
Q 1594 3097 1305 2825 
Q 1016 2553 972 2059 
L 3022 2063 
z
" transform="scale(0.015625)"/>
       <path id="DejaVuSans-36" d="M 2113 2584 
Q 1688 2584 1439 2293 
Q 1191 2003 1191 1497 
Q 1191 994 1439 701 
Q 1688 409 2113 409 
Q 2538 409 2786 701 
Q 3034 994 3034 1497 
Q 3034 2003 2786 2293 
Q 2538 2584 2113 2584 
z
M 3366 4563 
L 3366 3988 
Q 3128 4100 2886 4159 
Q 2644 4219 2406 4219 
Q 1781 4219 1451 3797 
Q 1122 3375 1075 2522 
Q 1259 2794 1537 2939 
Q 1816 3084 2150 3084 
Q 2853 3084 3261 2657 
Q 3669 2231 3669 1497 
Q 3669 778 3244 343 
Q 2819 -91 2113 -91 
Q 1303 -91 875 529 
Q 447 1150 447 2328 
Q 447 3434 972 4092 
Q 1497 4750 2381 4750 
Q 2619 4750 2861 4703 
Q 3103 4656 3366 4563 
z
" transform="scale(0.015625)"/>
      </defs>
      <use xlink:href="#DejaVuSans-31"/>
      <use xlink:href="#DejaVuSans-65" x="63.623047"/>
      <use xlink:href="#DejaVuSans-36" x="125.146484"/>
     </g>
    </g>
   </g>
   <g id="matplotlib.axis_2">
    <g id="ytick_1">
     <g id="line2d_6">
      <defs>
       <path id="m074b25182d" d="M 0 0 
L -3.5 0 
" style="stroke: #000000; stroke-width: 0.8"/>
      </defs>
      <g>
       <use xlink:href="#m074b25182d" x="103.104" y="283.758868" style="stroke: #000000; stroke-width: 0.8"/>
      </g>
     </g>
     <g id="text_7">
      <!-- −4 -->
      <g transform="translate(81.361813 287.558087) scale(0.1 -0.1)">
       <use xlink:href="#DejaVuSans-2212"/>
       <use xlink:href="#DejaVuSans-34" x="83.789062"/>
      </g>
     </g>
    </g>
    <g id="ytick_2">
     <g id="line2d_7">
      <g>
       <use xlink:href="#m074b25182d" x="103.104" y="229.143434" style="stroke: #000000; stroke-width: 0.8"/>
      </g>
     </g>
     <g id="text_8">
      <!-- −2 -->
      <g transform="translate(81.361813 232.942653) scale(0.1 -0.1)">
       <use xlink:href="#DejaVuSans-2212"/>
       <use xlink:href="#DejaVuSans-32" x="83.789062"/>
      </g>
     </g>
    </g>
    <g id="ytick_3">
     <g id="line2d_8">
      <g>
       <use xlink:href="#m074b25182d" x="103.104" y="174.528" style="stroke: #000000; stroke-width: 0.8"/>
      </g>
     </g>
     <g id="text_9">
      <!-- 0 -->
      <g transform="translate(89.7415 178.327219) scale(0.1 -0.1)">
       <use xlink:href="#DejaVuSans-30"/>
      </g>
     </g>
    </g>
    <g id="ytick_4">
     <g id="line2d_9">
      <g>
       <use xlink:href="#m074b25182d" x="103.104" y="119.912566" style="stroke: #000000; stroke-width: 0.8"/>
      </g>
     </g>
     <g id="text_10">
      <!-- 2 -->
      <g transform="translate(89.7415 123.711785) scale(0.1 -0.1)">
       <use xlink:href="#DejaVuSans-32"/>
      </g>
     </g>
    </g>
    <g id="ytick_5">
     <g id="line2d_10">
      <g>
       <use xlink:href="#m074b25182d" x="103.104" y="65.297132" style="stroke: #000000; stroke-width: 0.8"/>
      </g>
     </g>
     <g id="text_11">
      <!-- 4 -->
      <g transform="translate(89.7415 69.09635) scale(0.1 -0.1)">
       <use xlink:href="#DejaVuSans-34"/>
      </g>
     </g>
    </g>
    <g id="text_12">
     <!-- 1e6 -->
     <g transform="translate(103.104 38.472) scale(0.1 -0.1)">
      <use xlink:href="#DejaVuSans-31"/>
      <use xlink:href="#DejaVuSans-65" x="63.623047"/>
      <use xlink:href="#DejaVuSans-36" x="125.146484"/>
     </g>
    </g>
   </g>
   <g id="line2d_11">
    <path d="M -1 271.162732 
L 0.894633 267.607868 
L 4.088986 261.614366 
L 7.197757 255.781439 
L 10.226161 250.099303 
L 13.17905 244.558855 
L 16.060948 239.151606 
L 18.876079 233.86963 
L 21.628394 228.705514 
L 24.321595 223.652314 
L 26.959156 218.703509 
L 29.544342 213.852975 
L 32.080228 209.094942 
L 34.569712 204.423971 
L 37.015533 199.834923 
L 39.420283 195.322939 
L 41.786415 190.88341 
L 44.116262 186.511964 
L 46.412039 182.204442 
L 48.675857 177.956884 
L 50.909731 173.76551 
L 53.115585 169.626708 
L 55.295263 165.537021 
L 57.450533 161.493129 
L 59.583096 157.491844 
L 61.694586 153.530095 
L 63.786584 149.60492 
L 65.860616 145.713455 
L 67.918159 141.852925 
L 69.96065 138.020639 
L 71.989484 134.213977 
L 74.006022 130.430386 
L 76.011594 126.667371 
L 78.007501 122.922489 
L 79.995021 119.193344 
L 81.97541 115.477578 
L 83.949908 111.772866 
L 85.919739 108.076911 
L 87.886115 104.387437 
L 89.850242 100.702183 
L 91.813318 97.018901 
L 93.776541 93.335346 
L 95.741105 89.649271 
L 97.708213 85.958425 
L 99.67907 82.260544 
L 101.654891 78.553349 
L 103.636905 74.834535 
L 105.626354 71.10177 
L 107.6245 67.352688 
L 109.632625 63.584882 
L 111.652038 59.795895 
L 113.684077 55.983221 
L 115.730109 52.144291 
L 117.79154 48.276467 
L 119.869816 44.377039 
L 121.966425 40.443211 
L 124.082908 36.472096 
L 126.220855 32.460707 
L 128.38192 28.405943 
L 130.567816 24.304588 
L 132.780332 20.153288 
L 135.021328 15.94855 
L 137.292752 11.686721 
L 139.596641 7.36398 
L 141.935129 2.976319 
L 144.054385 -1 
" clip-path="url(#p524c2b8a45)" style="fill: none; stroke: #000000; stroke-width: 1.5; stroke-linecap: square"/>
   </g>
   <g id="line2d_12">
    <path d="M 40.870051 346.6 
L 41.001984 346.248421 
L 43.770607 338.870491 
L 46.440471 331.755737 
L 49.018311 324.886212 
L 51.510296 318.245477 
L 53.92209 311.818437 
L 56.258904 305.591207 
L 58.525541 299.550989 
L 60.726435 293.685964 
L 62.865691 287.985195 
L 64.947112 282.438544 
L 66.974232 277.0366 
L 68.950336 271.770604 
L 70.878486 266.632398 
L 72.76154 261.614366 
L 74.602169 256.709387 
L 76.402878 251.910792 
L 78.166012 247.212326 
L 79.893777 242.608112 
L 81.58825 238.092617 
L 83.251386 233.66063 
L 84.885033 229.307225 
L 86.490939 225.027749 
L 88.070757 220.817789 
L 89.626059 216.673163 
L 91.158337 212.589891 
L 92.669011 208.564189 
L 94.159438 204.592443 
L 95.630912 200.671204 
L 97.084672 196.79717 
L 98.521907 192.967173 
L 99.943757 189.178173 
L 101.351322 185.427241 
L 102.745661 181.711555 
L 104.127797 178.028387 
L 105.498721 174.375096 
L 106.859396 170.74912 
L 108.210754 167.147969 
L 109.553708 163.569215 
L 110.889146 160.010489 
L 112.217939 156.469473 
L 113.540939 152.943892 
L 114.858986 149.431511 
L 116.172907 145.930126 
L 117.483517 142.437562 
L 118.791626 138.951665 
L 120.098035 135.470297 
L 121.403543 131.99133 
L 122.708945 128.512645 
L 124.015038 125.032121 
L 125.322618 121.547634 
L 126.632486 118.057048 
L 127.945449 114.558216 
L 129.26232 111.048966 
L 130.583925 107.527104 
L 131.911098 103.990404 
L 133.244688 100.436602 
L 134.585562 96.863392 
L 135.934602 93.268419 
L 137.292715 89.649271 
L 138.660826 86.003475 
L 140.039892 82.328489 
L 141.430894 78.621695 
L 142.834847 74.880387 
L 144.252801 71.10177 
L 145.685844 67.282945 
L 147.135105 63.4209 
L 148.601759 59.512504 
L 150.087033 55.554492 
L 151.592205 51.543453 
L 153.118614 47.475821 
L 154.667663 43.347856 
L 156.240826 39.155633 
L 157.839651 34.895025 
L 159.465769 30.561682 
L 161.120904 26.151017 
L 162.806875 21.658179 
L 164.525608 17.078034 
L 166.279147 12.405139 
L 168.069661 7.633709 
L 169.89946 2.757594 
L 171.309524 -1 
" clip-path="url(#p524c2b8a45)" style="fill: none; stroke: #000000; stroke-width: 1.5; stroke-linecap: square"/>
   </g>
   <g id="line2d_13">
    <path d="M 101.788943 346.6 
L 103.156405 341.303851 
L 104.826772 334.834558 
L 106.441761 328.579745 
L 108.005016 322.525292 
L 109.519894 316.658206 
L 110.989487 310.966506 
L 112.416653 305.439127 
L 113.804035 300.065828 
L 115.154085 294.837114 
L 116.469082 289.744163 
L 117.751143 284.778772 
L 119.002243 279.93329 
L 120.224226 275.200579 
L 121.418815 270.57396 
L 122.587627 266.047178 
L 123.732177 261.614366 
L 124.853887 257.270007 
L 125.954099 253.008911 
L 127.034077 248.826182 
L 128.095014 244.717198 
L 129.138039 240.677587 
L 130.164222 236.703205 
L 131.174577 232.79012 
L 132.170071 228.934596 
L 133.151623 225.133071 
L 134.120108 221.38215 
L 135.076365 217.678589 
L 136.021196 214.019281 
L 136.95537 210.401246 
L 137.879626 206.821623 
L 138.794677 203.277654 
L 139.701207 199.766681 
L 140.599882 196.286136 
L 141.491342 192.833531 
L 142.376212 189.40645 
L 143.255098 186.002547 
L 144.12859 182.619532 
L 144.997265 179.255172 
L 145.861689 175.907278 
L 146.722416 172.573703 
L 147.57999 169.252338 
L 148.434949 165.941102 
L 149.287824 162.637939 
L 150.139139 159.340815 
L 150.989417 156.047707 
L 151.839177 152.756606 
L 152.688938 149.465504 
L 153.539216 146.172397 
L 154.390531 142.875273 
L 155.243405 139.572111 
L 156.098364 136.260876 
L 156.955938 132.939512 
L 157.816664 129.605939 
L 158.681088 126.258046 
L 159.549763 122.893688 
L 160.423254 119.510675 
L 161.302139 116.106774 
L 162.187008 112.679696 
L 163.078468 109.227094 
L 163.977142 105.746552 
L 164.883672 102.235583 
L 165.798721 98.691617 
L 166.722977 95.111997 
L 167.65715 91.493967 
L 168.601979 87.834663 
L 169.558235 84.131107 
L 170.526719 80.380192 
L 171.508269 76.578672 
L 172.503761 72.723154 
L 173.514115 68.810075 
L 174.540296 64.8357 
L 175.583319 60.796096 
L 176.644254 56.68712 
L 177.72423 52.504399 
L 178.82444 48.243311 
L 179.946148 43.898961 
L 181.090695 39.466158 
L 182.259504 34.939387 
L 183.454091 30.312779 
L 184.676071 25.580079 
L 185.927168 20.73461 
L 187.209226 15.769232 
L 188.524218 10.676295 
L 189.874265 5.447595 
L 191.261643 0.074312 
L 191.53903 -1 
" clip-path="url(#p524c2b8a45)" style="fill: none; stroke: #000000; stroke-width: 1.5; stroke-linecap: square"/>
   </g>
   <g id="line2d_14">
    <path d="M 151.450478 346.6 
L 151.513913 346.210286 
L 152.522952 340.011221 
L 153.498518 334.017797 
L 154.442815 328.216472 
L 155.357872 322.594785 
L 156.245559 317.141248 
L 157.107603 311.845249 
L 157.945603 306.696968 
L 158.76104 301.6873 
L 159.555292 296.807788 
L 160.329638 292.050564 
L 161.085273 287.408294 
L 161.823311 282.874133 
L 162.544793 278.441679 
L 163.250697 274.104935 
L 163.941937 269.858274 
L 164.619375 265.69641 
L 165.283821 261.614366 
L 165.936037 257.607449 
L 166.576747 253.671229 
L 167.206631 249.801514 
L 167.826336 245.994333 
L 168.436476 242.245917 
L 169.037633 238.552684 
L 169.630364 234.911221 
L 170.215198 231.318274 
L 170.79264 227.770734 
L 171.363177 224.265623 
L 171.927272 220.800086 
L 172.485372 217.371379 
L 173.037907 213.976862 
L 173.585291 210.613987 
L 174.127925 207.280292 
L 174.666198 203.973395 
L 175.200486 200.69098 
L 175.731154 197.430799 
L 176.25856 194.19066 
L 176.783053 190.968421 
L 177.304973 187.761986 
L 177.824655 184.5693 
L 178.342429 181.38834 
L 178.858618 178.217114 
L 179.373543 175.053652 
L 179.887522 171.896006 
L 180.400869 168.74224 
L 180.913898 165.590428 
L 181.426921 162.438648 
L 181.940253 159.28498 
L 182.454205 156.127497 
L 182.969092 152.964266 
L 183.485233 149.793336 
L 184.002948 146.612739 
L 184.52256 143.420484 
L 185.044398 140.214551 
L 185.568798 136.992883 
L 186.096099 133.753387 
L 186.626651 130.493923 
L 187.16081 127.212301 
L 187.698941 123.906273 
L 188.241421 120.573528 
L 188.788637 117.211686 
L 189.34099 113.818285 
L 189.898894 110.390784 
L 190.462778 106.926543 
L 191.033087 103.422823 
L 191.610288 99.876773 
L 192.194862 96.285421 
L 192.787316 92.64566 
L 193.388178 88.954241 
L 193.998003 85.207759 
L 194.617373 81.402637 
L 195.246901 77.535111 
L 195.887231 73.60122 
L 196.539045 69.596778 
L 197.203062 65.517363 
L 197.880045 61.358292 
L 198.570803 57.114599 
L 199.276193 52.781008 
L 199.997131 48.351903 
L 200.734589 43.821303 
L 201.489608 39.182818 
L 202.263299 34.429619 
L 203.056853 29.55439 
L 203.871548 24.549282 
L 204.708757 19.405859 
L 205.569958 14.115039 
L 206.456746 8.667027 
L 207.370843 3.051239 
" clip-path="url(#p524c2b8a45)" style="fill: none; stroke: #000000; stroke-width: 1.5; stroke-linecap: square"/>
   </g>
   <g id="line2d_15">
    <path d="M 195.1221 346.6 
L 195.514585 341.62276 
L 195.973127 335.807824 
L 196.417023 330.178629 
L 196.84722 324.723145 
L 197.264594 319.430276 
L 197.669953 314.289775 
L 198.064046 309.292153 
L 198.447565 304.428613 
L 198.821155 299.690983 
L 199.185416 295.071658 
L 199.540908 290.563548 
L 199.888151 286.160035 
L 200.227634 281.854927 
L 200.559815 277.642425 
L 200.885123 273.517086 
L 201.20396 269.473795 
L 201.516708 265.507735 
L 201.823723 261.614366 
L 202.125345 257.789398 
L 202.421892 254.028774 
L 202.713669 250.328648 
L 203.000963 246.68537 
L 203.284048 243.095471 
L 203.563185 239.555644 
L 203.838621 236.062737 
L 204.110596 232.613735 
L 204.379335 229.205753 
L 204.645059 225.836022 
L 204.907975 222.501883 
L 205.168288 219.200774 
L 205.42619 215.930225 
L 205.681871 212.687846 
L 205.935513 209.471325 
L 206.187293 206.278415 
L 206.437383 203.106934 
L 206.685951 199.954752 
L 206.933162 196.81979 
L 207.179175 193.700011 
L 207.424148 190.593418 
L 207.668237 187.498046 
L 207.911593 184.411957 
L 208.154368 181.333237 
L 208.396712 178.25999 
L 208.638773 175.190333 
L 208.880699 172.122392 
L 209.122636 169.054296 
L 209.364733 165.984177 
L 209.607138 162.910157 
L 209.849999 159.830353 
L 210.093466 156.742866 
L 210.33769 153.645778 
L 210.582824 150.537147 
L 210.829023 147.415003 
L 211.076446 144.277343 
L 211.325254 141.122124 
L 211.575611 137.947257 
L 211.827686 134.750607 
L 212.081652 131.529978 
L 212.337687 128.283116 
L 212.595973 125.007695 
L 212.856701 121.701312 
L 213.120066 118.361484 
L 213.386272 114.985632 
L 213.65553 111.571081 
L 213.928059 108.115042 
L 214.204089 104.614609 
L 214.483859 101.066748 
L 214.76762 97.468279 
L 215.055634 93.815872 
L 215.348177 90.106027 
L 215.64554 86.335064 
L 215.948029 82.499104 
L 216.255965 78.594051 
L 216.569692 74.615577 
L 216.889569 70.559097 
L 217.215982 66.419747 
L 217.549336 62.19236 
L 217.890067 57.871437 
L 218.238636 53.451115 
L 218.595536 48.925136 
L 218.961296 44.286806 
L 219.336481 39.528955 
L 219.721698 34.643886 
L 220.117599 29.623329 
L 220.524886 24.458378 
L 220.944317 19.139425 
L 221.376711 13.656087 
L 221.822954 7.997122 
" clip-path="url(#p524c2b8a45)" style="fill: none; stroke: #000000; stroke-width: 1.5; stroke-linecap: square"/>
   </g>
   <g id="line2d_16">
    <path d="M 236.16 346.6 
L 236.16 346.076141 
L 236.16 340.187914 
L 236.16 334.492006 
L 236.16 328.975841 
L 236.16 323.627834 
L 236.16 318.437299 
L 236.16 313.394353 
L 236.16 308.489843 
L 236.16 303.715278 
L 236.16 299.062763 
L 236.16 294.524949 
L 236.16 290.094978 
L 236.16 285.766447 
L 236.16 281.533361 
L 236.16 277.390101 
L 236.16 273.331391 
L 236.16 269.352271 
L 236.16 265.448065 
L 236.16 261.614366 
L 236.16 257.847005 
L 236.16 254.142038 
L 236.16 250.495725 
L 236.16 246.904513 
L 236.16 243.365023 
L 236.16 239.874033 
L 236.16 236.42847 
L 236.16 233.025392 
L 236.16 229.661982 
L 236.16 226.335536 
L 236.16 223.043454 
L 236.16 219.78323 
L 236.16 216.552444 
L 236.16 213.348758 
L 236.16 210.169903 
L 236.16 207.013676 
L 236.16 203.877934 
L 236.16 200.760585 
L 236.16 197.659583 
L 236.16 194.572925 
L 236.16 191.498644 
L 236.16 188.434802 
L 236.16 185.379488 
L 236.16 182.330813 
L 236.16 179.286902 
L 236.16 176.245893 
L 236.16 173.20593 
L 236.16 170.165162 
L 236.16 167.121734 
L 236.16 164.073785 
L 236.16 161.019442 
L 236.16 157.956818 
L 236.16 154.884005 
L 236.16 151.79907 
L 236.16 148.700048 
L 236.16 145.584942 
L 236.16 142.451712 
L 236.16 139.298273 
L 236.16 136.122488 
L 236.16 132.922161 
L 236.16 129.695035 
L 236.16 126.438779 
L 236.16 123.150984 
L 236.16 119.829158 
L 236.16 116.470711 
L 236.16 113.072955 
L 236.16 109.633087 
L 236.16 106.148183 
L 236.16 102.615187 
L 236.16 99.030897 
L 236.16 95.391955 
L 236.16 91.694833 
L 236.16 87.935814 
L 236.16 84.110983 
L 236.16 80.216202 
L 236.16 76.247094 
L 236.16 72.199022 
L 236.16 68.067062 
L 236.16 63.845982 
L 236.16 59.530209 
L 236.16 55.113799 
L 236.16 50.590404 
L 236.16 45.953228 
L 236.16 41.194989 
L 236.16 36.307866 
L 236.16 31.283447 
L 236.16 26.112671 
L 236.16 20.785755 
L 236.16 15.29212 
L 236.16 9.620305 
" clip-path="url(#p524c2b8a45)" style="fill: none; stroke: #000000; stroke-width: 1.5; stroke-linecap: square"/>
   </g>
   <g id="line2d_17">
    <path d="M 277.1979 346.6 
L 276.805415 341.62276 
L 276.346873 335.807824 
L 275.902977 330.178629 
L 275.47278 324.723145 
L 275.055406 319.430276 
L 274.650047 314.289775 
L 274.255954 309.292153 
L 273.872435 304.428613 
L 273.498845 299.690983 
L 273.134584 295.071658 
L 272.779092 290.563548 
L 272.431849 286.160035 
L 272.092366 281.854927 
L 271.760185 277.642425 
L 271.434877 273.517086 
L 271.11604 269.473795 
L 270.803292 265.507735 
L 270.496277 261.614366 
L 270.194655 257.789398 
L 269.898108 254.028774 
L 269.606331 250.328648 
L 269.319037 246.68537 
L 269.035952 243.095471 
L 268.756815 239.555644 
L 268.481379 236.062737 
L 268.209404 232.613735 
L 267.940665 229.205753 
L 267.674941 225.836022 
L 267.412025 222.501883 
L 267.151712 219.200774 
L 266.89381 215.930225 
L 266.638129 212.687846 
L 266.384487 209.471325 
L 266.132707 206.278415 
L 265.882617 203.106934 
L 265.634049 199.954752 
L 265.386838 196.81979 
L 265.140825 193.700011 
L 264.895852 190.593418 
L 264.651763 187.498046 
L 264.408407 184.411957 
L 264.165632 181.333237 
L 263.923288 178.25999 
L 263.681227 175.190333 
L 263.439301 172.122392 
L 263.197364 169.054296 
L 262.955267 165.984177 
L 262.712862 162.910157 
L 262.470001 159.830353 
L 262.226534 156.742866 
L 261.98231 153.645778 
L 261.737176 150.537147 
L 261.490977 147.415003 
L 261.243554 144.277343 
L 260.994746 141.122124 
L 260.744389 137.947257 
L 260.492314 134.750607 
L 260.238348 131.529978 
L 259.982313 128.283116 
L 259.724027 125.007695 
L 259.463299 121.701312 
L 259.199934 118.361484 
L 258.933728 114.985632 
L 258.66447 111.571081 
L 258.391941 108.115042 
L 258.115911 104.614609 
L 257.836141 101.066748 
L 257.55238 97.468279 
L 257.264366 93.815872 
L 256.971823 90.106027 
L 256.67446 86.335064 
L 256.371971 82.499104 
L 256.064035 78.594051 
L 255.750308 74.615577 
L 255.430431 70.559097 
L 255.104018 66.419747 
L 254.770664 62.19236 
L 254.429933 57.871437 
L 254.081364 53.451115 
L 253.724464 48.925136 
L 253.358704 44.286806 
L 252.983519 39.528955 
L 252.598302 34.643886 
L 252.202401 29.623329 
L 251.795114 24.458378 
L 251.375683 19.139425 
L 250.943289 13.656087 
L 250.497046 7.997122 
" clip-path="url(#p524c2b8a45)" style="fill: none; stroke: #000000; stroke-width: 1.5; stroke-linecap: square"/>
   </g>
   <g id="line2d_18">
    <path d="M 320.869522 346.6 
L 320.806087 346.210286 
L 319.797048 340.011221 
L 318.821482 334.017797 
L 317.877185 328.216472 
L 316.962128 322.594785 
L 316.074441 317.141248 
L 315.212397 311.845249 
L 314.374397 306.696968 
L 313.55896 301.6873 
L 312.764708 296.807788 
L 311.990362 292.050564 
L 311.234727 287.408294 
L 310.496689 282.874133 
L 309.775207 278.441679 
L 309.069303 274.104935 
L 308.378063 269.858274 
L 307.700625 265.69641 
L 307.036179 261.614366 
L 306.383963 257.607449 
L 305.743253 253.671229 
L 305.113369 249.801514 
L 304.493664 245.994333 
L 303.883524 242.245917 
L 303.282367 238.552684 
L 302.689636 234.911221 
L 302.104802 231.318274 
L 301.52736 227.770734 
L 300.956823 224.265623 
L 300.392728 220.800086 
L 299.834628 217.371379 
L 299.282093 213.976862 
L 298.734709 210.613987 
L 298.192075 207.280292 
L 297.653802 203.973395 
L 297.119514 200.69098 
L 296.588846 197.430799 
L 296.06144 194.19066 
L 295.536947 190.968421 
L 295.015027 187.761986 
L 294.495345 184.5693 
L 293.977571 181.38834 
L 293.461382 178.217114 
L 292.946457 175.053652 
L 292.432478 171.896006 
L 291.919131 168.74224 
L 291.406102 165.590428 
L 290.893079 162.438648 
L 290.379747 159.28498 
L 289.865795 156.127497 
L 289.350908 152.964266 
L 288.834767 149.793336 
L 288.317052 146.612739 
L 287.79744 143.420484 
L 287.275602 140.214551 
L 286.751202 136.992883 
L 286.223901 133.753387 
L 285.693349 130.493923 
L 285.15919 127.212301 
L 284.621059 123.906273 
L 284.078579 120.573528 
L 283.531363 117.211686 
L 282.97901 113.818285 
L 282.421106 110.390784 
L 281.857222 106.926543 
L 281.286913 103.422823 
L 280.709712 99.876773 
L 280.125138 96.285421 
L 279.532684 92.64566 
L 278.931822 88.954241 
L 278.321997 85.207759 
L 277.702627 81.402637 
L 277.073099 77.535111 
L 276.432769 73.60122 
L 275.780955 69.596778 
L 275.116938 65.517363 
L 274.439955 61.358292 
L 273.749197 57.114599 
L 273.043807 52.781008 
L 272.322869 48.351903 
L 271.585411 43.821303 
L 270.830392 39.182818 
L 270.056701 34.429619 
L 269.263147 29.55439 
L 268.448452 24.549282 
L 267.611243 19.405859 
L 266.750042 14.115039 
L 265.863254 8.667027 
L 264.949157 3.051239 
" clip-path="url(#p524c2b8a45)" style="fill: none; stroke: #000000; stroke-width: 1.5; stroke-linecap: square"/>
   </g>
   <g id="line2d_19">
    <path d="M 370.531057 346.6 
L 369.163595 341.303851 
L 367.493228 334.834558 
L 365.878239 328.579745 
L 364.314984 322.525292 
L 362.800106 316.658206 
L 361.330513 310.966506 
L 359.903347 305.439127 
L 358.515965 300.065828 
L 357.165915 294.837114 
L 355.850918 289.744163 
L 354.568857 284.778772 
L 353.317757 279.93329 
L 352.095774 275.200579 
L 350.901185 270.57396 
L 349.732373 266.047178 
L 348.587823 261.614366 
L 347.466113 257.270007 
L 346.365901 253.008911 
L 345.285923 248.826182 
L 344.224986 244.717198 
L 343.181961 240.677587 
L 342.155778 236.703205 
L 341.145423 232.79012 
L 340.149929 228.934596 
L 339.168377 225.133071 
L 338.199892 221.38215 
L 337.243635 217.678589 
L 336.298804 214.019281 
L 335.36463 210.401246 
L 334.440374 206.821623 
L 333.525323 203.277654 
L 332.618793 199.766681 
L 331.720118 196.286136 
L 330.828658 192.833531 
L 329.943788 189.40645 
L 329.064902 186.002547 
L 328.19141 182.619532 
L 327.322735 179.255172 
L 326.458311 175.907278 
L 325.597584 172.573703 
L 324.74001 169.252338 
L 323.885051 165.941102 
L 323.032176 162.637939 
L 322.180861 159.340815 
L 321.330583 156.047707 
L 320.480823 152.756606 
L 319.631062 149.465504 
L 318.780784 146.172397 
L 317.929469 142.875273 
L 317.076595 139.572111 
L 316.221636 136.260876 
L 315.364062 132.939512 
L 314.503336 129.605939 
L 313.638912 126.258046 
L 312.770237 122.893688 
L 311.896746 119.510675 
L 311.017861 116.106774 
L 310.132992 112.679696 
L 309.241532 109.227094 
L 308.342858 105.746552 
L 307.436328 102.235583 
L 306.521279 98.691617 
L 305.597023 95.111997 
L 304.66285 91.493967 
L 303.718021 87.834663 
L 302.761765 84.131107 
L 301.793281 80.380192 
L 300.811731 76.578672 
L 299.816239 72.723154 
L 298.805885 68.810075 
L 297.779704 64.8357 
L 296.736681 60.796096 
L 295.675746 56.68712 
L 294.59577 52.504399 
L 293.49556 48.243311 
L 292.373852 43.898961 
L 291.229305 39.466158 
L 290.060496 34.939387 
L 288.865909 30.312779 
L 287.643929 25.580079 
L 286.392832 20.73461 
L 285.110774 15.769232 
L 283.795782 10.676295 
L 282.445735 5.447595 
L 281.058357 0.074312 
L 280.78097 -1 
" clip-path="url(#p524c2b8a45)" style="fill: none; stroke: #000000; stroke-width: 1.5; stroke-linecap: square"/>
   </g>
   <g id="line2d_20">
    <path d="M 431.449949 346.6 
L 431.318016 346.248421 
L 428.549393 338.870491 
L 425.879529 331.755737 
L 423.301689 324.886212 
L 420.809704 318.245477 
L 418.39791 311.818437 
L 416.061096 305.591207 
L 413.794459 299.550989 
L 411.593565 293.685964 
L 409.454309 287.985195 
L 407.372888 282.438544 
L 405.345768 277.0366 
L 403.369664 271.770604 
L 401.441514 266.632398 
L 399.55846 261.614366 
L 397.717831 256.709387 
L 395.917122 251.910792 
L 394.153988 247.212326 
L 392.426223 242.608112 
L 390.73175 238.092617 
L 389.068614 233.66063 
L 387.434967 229.307225 
L 385.829061 225.027749 
L 384.249243 220.817789 
L 382.693941 216.673163 
L 381.161663 212.589891 
L 379.650989 208.564189 
L 378.160562 204.592443 
L 376.689088 200.671204 
L 375.235328 196.79717 
L 373.798093 192.967173 
L 372.376243 189.178173 
L 370.968678 185.427241 
L 369.574339 181.711555 
L 368.192203 178.028387 
L 366.821279 174.375096 
L 365.460604 170.74912 
L 364.109246 167.147969 
L 362.766292 163.569215 
L 361.430854 160.010489 
L 360.102061 156.469473 
L 358.779061 152.943892 
L 357.461014 149.431511 
L 356.147093 145.930126 
L 354.836483 142.437562 
L 353.528374 138.951665 
L 352.221965 135.470297 
L 350.916457 131.99133 
L 349.611055 128.512645 
L 348.304962 125.032121 
L 346.997382 121.547634 
L 345.687514 118.057048 
L 344.374551 114.558216 
L 343.05768 111.048966 
L 341.736075 107.527104 
L 340.408902 103.990404 
L 339.075312 100.436602 
L 337.734438 96.863392 
L 336.385398 93.268419 
L 335.027285 89.649271 
L 333.659174 86.003475 
L 332.280108 82.328489 
L 330.889106 78.621695 
L 329.485153 74.880387 
L 328.067199 71.10177 
L 326.634156 67.282945 
L 325.184895 63.4209 
L 323.718241 59.512504 
L 322.232967 55.554492 
L 320.727795 51.543453 
L 319.201386 47.475821 
L 317.652337 43.347856 
L 316.079174 39.155633 
L 314.480349 34.895025 
L 312.854231 30.561682 
L 311.199096 26.151017 
L 309.513125 21.658179 
L 307.794392 17.078034 
L 306.040853 12.405139 
L 304.250339 7.633709 
L 302.42054 2.757594 
L 301.010476 -1 
" clip-path="url(#p524c2b8a45)" style="fill: none; stroke: #000000; stroke-width: 1.5; stroke-linecap: square"/>
   </g>
   <g id="line2d_21">
    <path d="M 461.8 249.547979 
L 459.14095 244.558855 
L 456.259052 239.151606 
L 453.443921 233.86963 
L 450.691606 228.705514 
L 447.998405 223.652314 
L 445.360844 218.703509 
L 442.775658 213.852975 
L 440.239772 209.094942 
L 437.750288 204.423971 
L 435.304467 199.834923 
L 432.899717 195.322939 
L 430.533585 190.88341 
L 428.203738 186.511964 
L 425.907961 182.204442 
L 423.644143 177.956884 
L 421.410269 173.76551 
L 419.204415 169.626708 
L 417.024737 165.537021 
L 414.869467 161.493129 
L 412.736904 157.491844 
L 410.625414 153.530095 
L 408.533416 149.60492 
L 406.459384 145.713455 
L 404.401841 141.852925 
L 402.35935 138.020639 
L 400.330516 134.213977 
L 398.313978 130.430386 
L 396.308406 126.667371 
L 394.312499 122.922489 
L 392.324979 119.193344 
L 390.34459 115.477578 
L 388.370092 111.772866 
L 386.400261 108.076911 
L 384.433885 104.387437 
L 382.469758 100.702183 
L 380.506682 97.018901 
L 378.543459 93.335346 
L 376.578895 89.649271 
L 374.611787 85.958425 
L 372.64093 82.260544 
L 370.665109 78.553349 
L 368.683095 74.834535 
L 366.693646 71.10177 
L 364.6955 67.352688 
L 362.687375 63.584882 
L 360.667962 59.795895 
L 358.635923 55.983221 
L 356.589891 52.144291 
L 354.52846 48.276467 
L 352.450184 44.377039 
L 350.353575 40.443211 
L 348.237092 36.472096 
L 346.099145 32.460707 
L 343.93808 28.405943 
L 341.752184 24.304588 
L 339.539668 20.153288 
L 337.298672 15.94855 
L 335.027248 11.686721 
L 332.723359 7.36398 
L 330.384871 2.976319 
L 328.265615 -1 
" clip-path="url(#p524c2b8a45)" style="fill: none; stroke: #000000; stroke-width: 1.5; stroke-linecap: square"/>
   </g>
   <g id="line2d_22">
    <path clip-path="url(#p524c2b8a45)" style="fill: none; stroke: #000000; stroke-width: 1.5; stroke-linecap: square"/>
   </g>
   <g id="line2d_23">
    <path clip-path="url(#p524c2b8a45)" style="fill: none; stroke: #000000; stroke-width: 1.5; stroke-linecap: square"/>
   </g>
   <g id="line2d_24">
    <path d="M -1 325.854649 
L 5.197477 324.911113 
L 13.691409 323.638065 
L 21.84373 322.435965 
L 29.679777 321.299901 
L 37.22256 320.225428 
L 44.493027 319.20851 
L 51.510296 318.245477 
L 58.291853 317.332984 
L 64.853731 316.467979 
L 71.210657 315.64767 
L 77.376191 314.869501 
L 83.362846 314.131126 
L 89.182184 313.430392 
L 94.844919 312.765317 
L 100.360992 312.134077 
L 105.739644 311.53499 
L 110.989487 310.966506 
L 116.118555 310.427191 
L 121.134362 309.915722 
L 126.043943 309.430873 
L 130.853902 308.971512 
L 135.570446 308.53659 
L 140.199423 308.125134 
L 144.746347 307.736247 
L 149.216435 307.369095 
L 153.614625 307.022907 
L 157.945603 306.696968 
L 162.213825 306.39062 
L 166.423535 306.103252 
L 170.578784 305.8343 
L 174.683448 305.583245 
L 178.74124 305.349609 
L 182.755727 305.132954 
L 186.730344 304.932877 
L 190.668403 304.749011 
L 194.573109 304.581024 
L 198.447565 304.428613 
L 202.294788 304.291507 
L 206.117717 304.169464 
L 209.919219 304.06227 
L 213.702101 303.969739 
L 217.46912 303.891711 
L 221.222985 303.828051 
L 224.96637 303.77865 
L 228.701922 303.743423 
L 232.432262 303.722311 
L 236.16 303.715278 
L 239.887738 303.722311 
L 243.618078 303.743423 
L 247.35363 303.77865 
L 251.097015 303.828051 
L 254.85088 303.891711 
L 258.617899 303.969739 
L 262.400781 304.06227 
L 266.202283 304.169464 
L 270.025212 304.291507 
L 273.872435 304.428613 
L 277.746891 304.581024 
L 281.651597 304.749011 
L 285.589656 304.932877 
L 289.564273 305.132954 
L 293.57876 305.349609 
L 297.636552 305.583245 
L 301.741216 305.8343 
L 305.896465 306.103252 
L 310.106175 306.39062 
L 314.374397 306.696968 
L 318.705375 307.022907 
L 323.103565 307.369095 
L 327.573653 307.736247 
L 332.120577 308.125134 
L 336.749554 308.53659 
L 341.466098 308.971512 
L 346.276057 309.430873 
L 351.185638 309.915722 
L 356.201445 310.427191 
L 361.330513 310.966506 
L 366.580356 311.53499 
L 371.959008 312.134077 
L 377.475081 312.765317 
L 383.137816 313.430392 
L 388.957154 314.131126 
L 394.943809 314.869501 
L 401.109343 315.64767 
L 407.466269 316.467979 
L 414.028147 317.332984 
L 420.809704 318.245477 
L 427.826973 319.20851 
L 435.09744 320.225428 
L 442.640223 321.299901 
L 450.47627 322.435965 
L 458.628591 323.638065 
L 461.8 324.113387 
" clip-path="url(#p524c2b8a45)" style="fill: none; stroke: #000000; stroke-width: 1.5; stroke-linecap: square"/>
   </g>
   <g id="line2d_25">
    <path d="M 4.088986 261.614366 
L 12.147952 261.614366 
L 19.889645 261.614366 
L 27.336888 261.614366 
L 34.510455 261.614366 
L 41.429298 261.614366 
L 48.110747 261.614366 
L 54.570682 261.614366 
L 60.823688 261.614366 
L 66.883183 261.614366 
L 72.76154 261.614366 
L 78.470186 261.614366 
L 84.019701 261.614366 
L 89.419891 261.614366 
L 94.679863 261.614366 
L 99.808094 261.614366 
L 104.812483 261.614366 
L 109.700403 261.614366 
L 114.478752 261.614366 
L 119.15399 261.614366 
L 123.732177 261.614366 
L 128.219009 261.614366 
L 132.619849 261.614366 
L 136.939751 261.614366 
L 141.18349 261.614366 
L 145.355582 261.614366 
L 149.460305 261.614366 
L 153.501721 261.614366 
L 157.483689 261.614366 
L 161.409887 261.614366 
L 165.283821 261.614366 
L 169.108842 261.614366 
L 172.888159 261.614366 
L 176.62485 261.614366 
L 180.32187 261.614366 
L 183.982066 261.614366 
L 187.608183 261.614366 
L 191.202875 261.614366 
L 194.768711 261.614366 
L 198.308186 261.614366 
L 201.823723 261.614366 
L 205.317687 261.614366 
L 208.792385 261.614366 
L 212.250076 261.614366 
L 215.692978 261.614366 
L 219.123271 261.614366 
L 222.543103 261.614366 
L 225.954596 261.614366 
L 229.359854 261.614366 
L 232.760963 261.614366 
L 236.16 261.614366 
L 239.559037 261.614366 
L 242.960146 261.614366 
L 246.365404 261.614366 
L 249.776897 261.614366 
L 253.196729 261.614366 
L 256.627022 261.614366 
L 260.069924 261.614366 
L 263.527615 261.614366 
L 267.002313 261.614366 
L 270.496277 261.614366 
L 274.011814 261.614366 
L 277.551289 261.614366 
L 281.117125 261.614366 
L 284.711817 261.614366 
L 288.337934 261.614366 
L 291.99813 261.614366 
L 295.69515 261.614366 
L 299.431841 261.614366 
L 303.211158 261.614366 
L 307.036179 261.614366 
L 310.910113 261.614366 
L 314.836311 261.614366 
L 318.818279 261.614366 
L 322.859695 261.614366 
L 326.964418 261.614366 
L 331.13651 261.614366 
L 335.380249 261.614366 
L 339.700151 261.614366 
L 344.100991 261.614366 
L 348.587823 261.614366 
L 353.16601 261.614366 
L 357.841248 261.614366 
L 362.619597 261.614366 
L 367.507517 261.614366 
L 372.511906 261.614366 
L 377.640137 261.614366 
L 382.900109 261.614366 
L 388.300299 261.614366 
L 393.849814 261.614366 
L 399.55846 261.614366 
L 405.436817 261.614366 
L 411.496312 261.614366 
L 417.749318 261.614366 
L 424.209253 261.614366 
L 430.890702 261.614366 
L 437.809545 261.614366 
L 444.983112 261.614366 
L 452.430355 261.614366 
L 460.172048 261.614366 
L 461.8 261.614366 
" clip-path="url(#p524c2b8a45)" style="fill: none; stroke: #000000; stroke-width: 1.5; stroke-linecap: square"/>
   </g>
   <g id="line2d_26">
    <path d="M 32.080228 209.094942 
L 38.685339 210.031499 
L 45.067691 210.921866 
L 51.241745 211.768828 
L 57.220808 212.574944 
L 63.017142 213.342561 
L 68.642069 214.073839 
L 74.106061 214.77077 
L 79.418823 215.435191 
L 84.589364 216.068798 
L 89.626059 216.673163 
L 94.536706 217.249737 
L 99.32858 217.79987 
L 104.008478 218.324813 
L 108.582759 218.825726 
L 113.05738 219.303691 
L 117.437935 219.759712 
L 121.729677 220.194726 
L 125.937555 220.609604 
L 130.066231 221.00516 
L 134.120108 221.38215 
L 138.103345 221.741284 
L 142.019885 222.083221 
L 145.873461 222.408576 
L 149.667621 222.717927 
L 153.405739 223.01181 
L 157.091027 223.290725 
L 160.72655 223.555143 
L 164.315235 223.805498 
L 167.859882 224.042198 
L 171.363177 224.265623 
L 174.827695 224.476125 
L 178.255913 224.674032 
L 181.650217 224.85965 
L 185.012908 225.03326 
L 188.34621 225.195124 
L 191.652274 225.345482 
L 194.93319 225.484557 
L 198.190984 225.612551 
L 201.427632 225.72965 
L 204.645059 225.836022 
L 207.845146 225.931818 
L 211.029735 226.017175 
L 214.200634 226.092212 
L 217.359619 226.157035 
L 220.508441 226.211734 
L 223.648827 226.256385 
L 226.782487 226.291049 
L 229.911115 226.315776 
L 233.036394 226.330598 
L 236.16 226.335536 
L 239.283606 226.330598 
L 242.408885 226.315776 
L 245.537513 226.291049 
L 248.671173 226.256385 
L 251.811559 226.211734 
L 254.960381 226.157035 
L 258.119366 226.092212 
L 261.290265 226.017175 
L 264.474854 225.931818 
L 267.674941 225.836022 
L 270.892368 225.72965 
L 274.129016 225.612551 
L 277.38681 225.484557 
L 280.667726 225.345482 
L 283.97379 225.195124 
L 287.307092 225.03326 
L 290.669783 224.85965 
L 294.064087 224.674032 
L 297.492305 224.476125 
L 300.956823 224.265623 
L 304.460118 224.042198 
L 308.004765 223.805498 
L 311.59345 223.555143 
L 315.228973 223.290725 
L 318.914261 223.01181 
L 322.652379 222.717927 
L 326.446539 222.408576 
L 330.300115 222.083221 
L 334.216655 221.741284 
L 338.199892 221.38215 
L 342.253769 221.00516 
L 346.382445 220.609604 
L 350.590323 220.194726 
L 354.882065 219.759712 
L 359.26262 219.303691 
L 363.737241 218.825726 
L 368.311522 218.324813 
L 372.99142 217.79987 
L 377.783294 217.249737 
L 382.693941 216.673163 
L 387.730636 216.068798 
L 392.901177 215.435191 
L 398.213939 214.77077 
L 403.677931 214.073839 
L 409.302858 213.342561 
L 415.099192 212.574944 
L 421.078255 211.768828 
L 427.252309 210.921866 
L 433.634661 210.031499 
L 440.239772 209.094942 
" clip-path="url(#p524c2b8a45)" style="fill: none; stroke: #000000; stroke-width: 1.5; stroke-linecap: square"/>
   </g>
   <g id="line2d_27">
    <path d="M 55.295263 165.537021 
L 60.793273 167.058518 
L 66.132536 168.510722 
L 71.322408 169.897362 
L 76.371575 171.221889 
L 81.288113 172.487497 
L 86.079545 173.69715 
L 90.752884 174.853598 
L 95.314685 175.959395 
L 99.771075 177.016921 
L 104.127797 178.028387 
L 108.390235 178.995857 
L 112.56345 179.921256 
L 116.652198 180.806378 
L 120.660962 181.652901 
L 124.59397 182.462394 
L 128.455211 183.236322 
L 132.248462 183.976057 
L 135.977297 184.682884 
L 139.645103 185.358005 
L 143.255098 186.002547 
L 146.810339 186.617565 
L 150.313737 187.204047 
L 153.768066 187.762921 
L 157.175973 188.295056 
L 160.539989 188.801263 
L 163.862534 189.282306 
L 167.14593 189.738897 
L 170.392402 190.171704 
L 173.60409 190.581351 
L 176.783053 190.968421 
L 179.931276 191.333457 
L 183.050676 191.676968 
L 186.143102 191.999423 
L 189.21035 192.301263 
L 192.254157 192.582892 
L 195.276213 192.844686 
L 198.27816 193.086991 
L 201.2616 193.310125 
L 204.228095 193.514377 
L 207.179175 193.700011 
L 210.116335 193.867266 
L 213.041047 194.016354 
L 215.954752 194.147465 
L 218.858875 194.260764 
L 221.754819 194.356394 
L 224.643971 194.434474 
L 227.527705 194.495103 
L 230.407385 194.538355 
L 233.284366 194.564285 
L 236.16 194.572925 
L 239.035634 194.564285 
L 241.912615 194.538355 
L 244.792295 194.495103 
L 247.676029 194.434474 
L 250.565181 194.356394 
L 253.461125 194.260764 
L 256.365248 194.147465 
L 259.278953 194.016354 
L 262.203665 193.867266 
L 265.140825 193.700011 
L 268.091905 193.514377 
L 271.0584 193.310125 
L 274.04184 193.086991 
L 277.043787 192.844686 
L 280.065843 192.582892 
L 283.10965 192.301263 
L 286.176898 191.999423 
L 289.269324 191.676968 
L 292.388724 191.333457 
L 295.536947 190.968421 
L 298.71591 190.581351 
L 301.927598 190.171704 
L 305.17407 189.738897 
L 308.457466 189.282306 
L 311.780011 188.801263 
L 315.144027 188.295056 
L 318.551934 187.762921 
L 322.006263 187.204047 
L 325.509661 186.617565 
L 329.064902 186.002547 
L 332.674897 185.358005 
L 336.342703 184.682884 
L 340.071538 183.976057 
L 343.864789 183.236322 
L 347.72603 182.462394 
L 351.659038 181.652901 
L 355.667802 180.806378 
L 359.75655 179.921256 
L 363.929765 178.995857 
L 368.192203 178.028387 
L 372.548925 177.016921 
L 377.005315 175.959395 
L 381.567116 174.853598 
L 386.240455 173.69715 
L 391.031887 172.487497 
L 395.948425 171.221889 
L 400.997592 169.897362 
L 406.187464 168.510722 
L 411.526727 167.058518 
L 417.024737 165.537021 
" clip-path="url(#p524c2b8a45)" style="fill: none; stroke: #000000; stroke-width: 1.5; stroke-linecap: square"/>
   </g>
   <g id="line2d_28">
    <path d="M 76.011594 126.667371 
L 80.597688 128.563076 
L 85.07193 130.378881 
L 89.440294 132.118606 
L 93.708374 133.785809 
L 97.881414 135.383811 
L 101.96434 136.915713 
L 105.961779 138.384413 
L 109.87809 139.792622 
L 113.717378 141.14288 
L 117.483517 142.437562 
L 121.180168 143.678899 
L 124.81079 144.86898 
L 128.378662 146.009768 
L 131.886891 147.103104 
L 135.338426 148.150719 
L 138.736068 149.15424 
L 142.082483 150.115194 
L 145.380211 151.035018 
L 148.631672 151.915065 
L 151.839177 152.756606 
L 155.004935 153.560835 
L 158.13106 154.328879 
L 161.219577 155.061793 
L 164.272427 155.760573 
L 167.291477 156.426154 
L 170.27852 157.059413 
L 173.235283 157.661176 
L 176.163431 158.232215 
L 179.06457 158.773256 
L 181.940253 159.28498 
L 184.791983 159.768021 
L 187.621216 160.222973 
L 190.429366 160.65039 
L 193.217806 161.050788 
L 195.987873 161.424645 
L 198.740867 161.772405 
L 201.478062 162.094475 
L 204.200698 162.391233 
L 206.909993 162.663023 
L 209.607138 162.910157 
L 212.293304 163.13292 
L 214.969643 163.331564 
L 217.637289 163.506317 
L 220.297361 163.657374 
L 222.950965 163.784906 
L 225.599195 163.889057 
L 228.243139 163.969943 
L 230.883872 164.027654 
L 233.52247 164.062256 
L 236.16 164.073785 
L 238.79753 164.062256 
L 241.436128 164.027654 
L 244.076861 163.969943 
L 246.720805 163.889057 
L 249.369035 163.784906 
L 252.022639 163.657374 
L 254.682711 163.506317 
L 257.350357 163.331564 
L 260.026696 163.13292 
L 262.712862 162.910157 
L 265.410007 162.663023 
L 268.119302 162.391233 
L 270.841938 162.094475 
L 273.579133 161.772405 
L 276.332127 161.424645 
L 279.102194 161.050788 
L 281.890634 160.65039 
L 284.698784 160.222973 
L 287.528017 159.768021 
L 290.379747 159.28498 
L 293.25543 158.773256 
L 296.156569 158.232215 
L 299.084717 157.661176 
L 302.04148 157.059413 
L 305.028523 156.426154 
L 308.047573 155.760573 
L 311.100423 155.061793 
L 314.18894 154.328879 
L 317.315065 153.560835 
L 320.480823 152.756606 
L 323.688328 151.915065 
L 326.939789 151.035018 
L 330.237517 150.115194 
L 333.583932 149.15424 
L 336.981574 148.150719 
L 340.433109 147.103104 
L 343.941338 146.009768 
L 347.50921 144.86898 
L 351.139832 143.678899 
L 354.836483 142.437562 
L 358.602622 141.14288 
L 362.44191 139.792622 
L 366.358221 138.384413 
L 370.35566 136.915713 
L 374.438586 135.383811 
L 378.611626 133.785809 
L 382.879706 132.118606 
L 387.24807 130.378881 
L 391.722312 128.563076 
L 396.308406 126.667371 
" clip-path="url(#p524c2b8a45)" style="fill: none; stroke: #000000; stroke-width: 1.5; stroke-linecap: square"/>
   </g>
   <g id="line2d_29">
    <path d="M 95.741105 89.649271 
L 99.525753 91.771063 
L 103.234862 93.810338 
L 106.872051 95.770542 
L 110.440737 97.654914 
L 113.944152 99.466498 
L 117.385358 101.208156 
L 120.767255 102.882582 
L 124.092594 104.492312 
L 127.363989 106.039736 
L 130.583925 107.527104 
L 133.754767 108.956541 
L 136.878767 110.33005 
L 139.958073 111.649519 
L 142.994736 112.916732 
L 145.990714 114.133374 
L 148.947883 115.301035 
L 151.868037 116.421216 
L 154.752894 117.495336 
L 157.604105 118.524734 
L 160.423254 119.510675 
L 163.211865 120.454355 
L 165.971404 121.356901 
L 168.703283 122.219378 
L 171.408863 123.04279 
L 174.089461 123.828086 
L 176.746348 124.576158 
L 179.380752 125.287847 
L 181.993866 125.963945 
L 184.586844 126.605197 
L 187.16081 127.212301 
L 189.716852 127.785913 
L 192.256032 128.326647 
L 194.779383 128.835077 
L 197.287916 129.311738 
L 199.782614 129.757127 
L 202.264442 130.171707 
L 204.734343 130.555906 
L 207.193241 130.910115 
L 209.642047 131.234697 
L 212.081652 131.529978 
L 214.512936 131.796258 
L 216.936766 132.033803 
L 219.353998 132.242851 
L 221.765477 132.423609 
L 224.17204 132.576257 
L 226.574519 132.700946 
L 228.973736 132.797799 
L 231.370512 132.866912 
L 233.765662 132.908352 
L 236.16 132.922161 
L 238.554338 132.908352 
L 240.949488 132.866912 
L 243.346264 132.797799 
L 245.745481 132.700946 
L 248.14796 132.576257 
L 250.554523 132.423609 
L 252.966002 132.242851 
L 255.383234 132.033803 
L 257.807064 131.796258 
L 260.238348 131.529978 
L 262.677953 131.234697 
L 265.126759 130.910115 
L 267.585657 130.555906 
L 270.055558 130.171707 
L 272.537386 129.757127 
L 275.032084 129.311738 
L 277.540617 128.835077 
L 280.063968 128.326647 
L 282.603148 127.785913 
L 285.15919 127.212301 
L 287.733156 126.605197 
L 290.326134 125.963945 
L 292.939248 125.287847 
L 295.573652 124.576158 
L 298.230539 123.828086 
L 300.911137 123.04279 
L 303.616717 122.219378 
L 306.348596 121.356901 
L 309.108135 120.454355 
L 311.896746 119.510675 
L 314.715895 118.524734 
L 317.567106 117.495336 
L 320.451963 116.421216 
L 323.372117 115.301035 
L 326.329286 114.133374 
L 329.325264 112.916732 
L 332.361927 111.649519 
L 335.441233 110.33005 
L 338.565233 108.956541 
L 341.736075 107.527104 
L 344.956011 106.039736 
L 348.227406 104.492312 
L 351.552745 102.882582 
L 354.934642 101.208156 
L 358.375848 99.466498 
L 361.879263 97.654914 
L 365.447949 95.770542 
L 369.085138 93.810338 
L 372.794247 91.771063 
L 376.578895 89.649271 
" clip-path="url(#p524c2b8a45)" style="fill: none; stroke: #000000; stroke-width: 1.5; stroke-linecap: square"/>
   </g>
   <g id="line2d_30">
    <path d="M 115.730109 52.144291 
L 118.769815 54.364822 
L 121.763066 56.506371 
L 124.711806 58.571735 
L 127.617893 60.563559 
L 130.483099 62.484351 
L 133.309122 64.336486 
L 136.097582 66.122216 
L 138.850033 67.843674 
L 141.567964 69.502886 
L 144.252801 71.10177 
L 146.905916 72.642151 
L 149.528625 74.125755 
L 152.122193 75.554225 
L 154.68784 76.929118 
L 157.226738 78.251913 
L 159.740018 79.524013 
L 162.228772 80.746749 
L 164.694053 81.921388 
L 167.136879 83.049128 
L 169.558235 84.131107 
L 171.959075 85.168405 
L 174.340321 86.162046 
L 176.702871 87.113 
L 179.047593 88.022185 
L 181.375334 88.890471 
L 183.686913 89.71868 
L 185.983131 90.50759 
L 188.264767 91.257936 
L 190.532582 91.970408 
L 192.787316 92.64566 
L 195.029694 93.284304 
L 197.260426 93.886916 
L 199.480205 94.454036 
L 201.689712 94.986168 
L 203.889614 95.483782 
L 206.080566 95.947316 
L 208.263214 96.377174 
L 210.43819 96.77373 
L 212.60612 97.137327 
L 214.76762 97.468279 
L 216.923299 97.766869 
L 219.073759 98.033353 
L 221.219594 98.267957 
L 223.361395 98.470881 
L 225.499747 98.642297 
L 227.63523 98.78235 
L 229.768423 98.891158 
L 231.899901 98.968812 
L 234.030236 99.015379 
L 236.16 99.030897 
L 238.289764 99.015379 
L 240.420099 98.968812 
L 242.551577 98.891158 
L 244.68477 98.78235 
L 246.820253 98.642297 
L 248.958605 98.470881 
L 251.100406 98.267957 
L 253.246241 98.033353 
L 255.396701 97.766869 
L 257.55238 97.468279 
L 259.71388 97.137327 
L 261.88181 96.77373 
L 264.056786 96.377174 
L 266.239434 95.947316 
L 268.430386 95.483782 
L 270.630288 94.986168 
L 272.839795 94.454036 
L 275.059574 93.886916 
L 277.290306 93.284304 
L 279.532684 92.64566 
L 281.787418 91.970408 
L 284.055233 91.257936 
L 286.336869 90.50759 
L 288.633087 89.71868 
L 290.944666 88.890471 
L 293.272407 88.022185 
L 295.617129 87.113 
L 297.979679 86.162046 
L 300.360925 85.168405 
L 302.761765 84.131107 
L 305.183121 83.049128 
L 307.625947 81.921388 
L 310.091228 80.746749 
L 312.579982 79.524013 
L 315.093262 78.251913 
L 317.63216 76.929118 
L 320.197807 75.554225 
L 322.791375 74.125755 
L 325.414084 72.642151 
L 328.067199 71.10177 
L 330.752036 69.502886 
L 333.469967 67.843674 
L 336.222418 66.122216 
L 339.010878 64.336486 
L 341.836901 62.484351 
L 344.702107 60.563559 
L 347.608194 58.571735 
L 350.556934 56.506371 
L 353.550185 54.364822 
L 356.589891 52.144291 
" clip-path="url(#p524c2b8a45)" style="fill: none; stroke: #000000; stroke-width: 1.5; stroke-linecap: square"/>
   </g>
   <g id="line2d_31">
    <path d="M 137.292752 11.686721 
L 139.604943 13.865897 
L 141.89405 15.975429 
L 144.160863 18.017269 
L 146.406149 19.993286 
L 148.630649 21.905265 
L 150.835083 23.75491 
L 153.020146 25.543851 
L 155.186514 27.273645 
L 157.334843 28.945781 
L 159.465769 30.561682 
L 161.579913 32.122708 
L 163.677874 33.630158 
L 165.760238 35.085273 
L 167.827575 36.489241 
L 169.88044 37.843195 
L 171.919373 39.148216 
L 173.944902 40.40534 
L 175.957541 41.615551 
L 177.957793 42.779792 
L 179.946148 43.898961 
L 181.923087 44.973913 
L 183.889078 46.005465 
L 185.844582 46.994391 
L 187.790048 47.941432 
L 189.725918 48.847289 
L 191.652624 49.712631 
L 193.570591 50.538089 
L 195.480236 51.324265 
L 197.381969 52.071725 
L 199.276193 52.781008 
L 201.163306 53.452619 
L 203.043697 54.087035 
L 204.917753 54.684705 
L 206.785852 55.246049 
L 208.64837 55.77146 
L 210.505678 56.261305 
L 212.358141 56.715923 
L 214.206122 57.135629 
L 216.049979 57.520712 
L 217.890067 57.871437 
L 219.726738 58.188044 
L 221.560343 58.470749 
L 223.391226 58.719746 
L 225.219735 58.935202 
L 227.04621 59.117266 
L 228.870995 59.266059 
L 230.694427 59.381683 
L 232.516847 59.464216 
L 234.338592 59.513713 
L 236.16 59.530209 
L 237.981408 59.513713 
L 239.803153 59.464216 
L 241.625573 59.381683 
L 243.449005 59.266059 
L 245.27379 59.117266 
L 247.100265 58.935202 
L 248.928774 58.719746 
L 250.759657 58.470749 
L 252.593262 58.188044 
L 254.429933 57.871437 
L 256.270021 57.520712 
L 258.113878 57.135629 
L 259.961859 56.715923 
L 261.814322 56.261305 
L 263.67163 55.77146 
L 265.534148 55.246049 
L 267.402247 54.684705 
L 269.276303 54.087035 
L 271.156694 53.452619 
L 273.043807 52.781008 
L 274.938031 52.071725 
L 276.839764 51.324265 
L 278.749409 50.538089 
L 280.667376 49.712631 
L 282.594082 48.847289 
L 284.529952 47.941432 
L 286.475418 46.994391 
L 288.430922 46.005465 
L 290.396913 44.973913 
L 292.373852 43.898961 
L 294.362207 42.779792 
L 296.362459 41.615551 
L 298.375098 40.40534 
L 300.400627 39.148216 
L 302.43956 37.843195 
L 304.492425 36.489241 
L 306.559762 35.085273 
L 308.642126 33.630158 
L 310.740087 32.122708 
L 312.854231 30.561682 
L 314.985157 28.945781 
L 317.133486 27.273645 
L 319.299854 25.543851 
L 321.484917 23.75491 
L 323.689351 21.905265 
L 325.913851 19.993286 
L 328.159137 18.017269 
L 330.42595 15.975429 
L 332.715057 13.865897 
L 335.027248 11.686721 
" clip-path="url(#p524c2b8a45)" style="fill: none; stroke: #000000; stroke-width: 1.5; stroke-linecap: square"/>
   </g>
   <g id="line2d_32">
    <path d="M 199.616332 -1 
L 200.065716 -0.734682 
L 201.532029 0.09547 
L 202.995583 0.888765 
L 204.456494 1.645585 
L 205.914876 2.366294 
L 207.370843 3.051239 
L 208.82451 3.700747 
L 210.275991 4.315127 
L 211.725402 4.894673 
L 213.172857 5.439659 
L 214.618471 5.950343 
L 216.062359 6.426968 
L 217.504637 6.869758 
L 218.945418 7.278921 
L 220.384819 7.65465 
L 221.822954 7.997122 
L 223.259938 8.306497 
L 224.695886 8.582919 
L 226.130914 8.826519 
L 227.565137 9.037409 
L 228.998669 9.215689 
L 230.431625 9.361441 
L 231.864122 9.474733 
L 233.296273 9.555619 
L 234.728194 9.604135 
L 236.16 9.620305 
L 237.591806 9.604135 
L 239.023727 9.555619 
L 240.455878 9.474733 
L 241.888375 9.361441 
L 243.321331 9.215689 
L 244.754863 9.037409 
L 246.189086 8.826519 
L 247.624114 8.582919 
L 249.060062 8.306497 
L 250.497046 7.997122 
L 251.935181 7.65465 
L 253.374582 7.278921 
L 254.815363 6.869758 
L 256.257641 6.426968 
L 257.701529 5.950343 
L 259.147143 5.439659 
L 260.594598 4.894673 
L 262.044009 4.315127 
L 263.49549 3.700747 
L 264.949157 3.051239 
L 266.405124 2.366294 
L 267.863506 1.645585 
L 269.324417 0.888765 
L 270.787971 0.09547 
L 272.254284 -0.734682 
L 272.703668 -1 
" clip-path="url(#p524c2b8a45)" style="fill: none; stroke: #000000; stroke-width: 1.5; stroke-linecap: square"/>
   </g>
   <g id="line2d_33">
    <path d="M 47.728651 346.6 
L 51.559709 338.606548 
L 55.880375 336.290451 
L 63.52463 328.052273 
L 67.43371 322.785536 
L 74.638 317.492758 
L 83.220158 309.371699 
L 87.960386 302.433185 
L 89.577105 296.32577 
L 89.911147 289.328091 
L 89.058053 287.132168 
L 84.788293 287.191635 
L 77.936703 284.851301 
L 75.132021 281.460897 
L 67.288307 276.21952 
L 58.45512 276.877797 
L 52.691877 276.342494 
L 48.093207 274.484319 
L 44.202273 275.229633 
L 41.554108 274.85298 
L 38.980221 271.425392 
L 33.384706 268.351947 
L 21.62855 265.278947 
L 17.439069 265.677439 
L 12.941512 269.248712 
L 8.621186 271.318366 
L -1 272.651957 
M -1 259.835243 
L 7.616205 255.285654 
L 9.181082 251.326729 
L 5.8821 250.626973 
L 6.4161 237.280791 
L 3.709988 236.025788 
L -1 231.310236 
M -1 12.146227 
L -0.878388 12.225981 
L 1.333226 10.563827 
L 1.979185 7.633918 
L 4.215169 6.663793 
L 13.000497 6.898465 
L 17.112198 9.715209 
L 21.034042 10.619409 
L 24.606499 12.482368 
L 30.203538 16.35042 
L 34.16143 17.939978 
L 36.415799 17.813232 
L 41.31203 21.199079 
L 40.800565 23.857984 
L 36.860487 23.494238 
L 35.135921 24.905838 
L 38.856875 29.644606 
L 48.324578 31.852387 
L 60.323124 37.672255 
L 62.726265 37.588946 
L 61.519622 34.830426 
L 58.50641 32.472641 
L 53.570643 26.675484 
L 52.136359 20.649929 
L 52.25351 18.867665 
L 56.296917 13.961186 
L 59.60945 15.106578 
L 61.567513 13.940319 
L 61.391579 11.768472 
L 57.289678 6.957536 
L 53.764858 4.184477 
L 44.571943 -1 
M 53.427503 -1 
L 56.153425 -0.476363 
L 58.197567 0.748175 
L 82.547037 23.31764 
L 90.613305 24.617625 
L 97.592055 28.879341 
L 101.73852 29.714186 
L 103.567607 28.818926 
L 103.68905 26.12784 
L 105.605304 24.518555 
L 102.894288 18.850144 
L 102.328954 14.705752 
L 103.122533 13.196795 
L 100.782131 10.310198 
L 97.356441 2.825388 
L 98.192471 1.577311 
L 97.067754 -1 
M 305.011356 -1 
L 304.987425 -0.762203 
L 303.089112 4.397135 
L 302.824344 5.58282 
L 305.079902 7.415858 
L 305.51034 8.310566 
L 304.797375 9.636783 
L 301.906885 11.06699 
L 299.220412 10.819623 
L 298.299748 12.916834 
L 298.422373 13.907931 
L 301.72217 14.348181 
L 302.344214 15.030541 
L 301.698231 16.588927 
L 299.725578 17.594608 
L 295.963319 17.440985 
L 295.344429 15.634721 
L 293.8583 14.084608 
L 293.626471 10.603643 
L 290.294513 9.450026 
L 290.487557 7.663799 
L 298.58575 5.4282 
L 300.925274 3.267543 
L 302.564217 -0.365646 
L 302.621084 -1 
M 269.832288 -1 
L 269.686846 -0.223834 
L 267.044554 0.421017 
L 266.308865 3.608054 
L 264.090369 4.802488 
L 262.235388 9.583639 
L 262.157941 11.343955 
L 261.007561 12.959793 
L 260.962769 15.240715 
L 259.616253 17.503319 
L 258.517333 22.344052 
L 257.19234 24.798008 
L 257.064625 26.182686 
L 257.240573 26.978584 
L 256.280827 30.227362 
L 256.492565 32.588738 
L 255.178954 34.335697 
L 254.943103 36.884845 
L 253.951499 37.290269 
L 252.992495 39.20194 
L 252.641909 41.052286 
L 245.736668 49.246186 
L 245.198728 51.855333 
L 245.210857 55.400185 
L 246.127865 56.212443 
L 246.063539 58.255369 
L 246.515912 58.80108 
L 246.116026 60.349584 
L 246.772933 63.424253 
L 246.449455 64.760015 
L 248.95886 66.845881 
L 250.314948 67.123635 
L 252.504104 65.240923 
L 253.715217 63.059417 
L 255.312152 61.202445 
L 256.123972 60.984281 
L 256.857131 61.785457 
L 257.630001 64.618779 
L 258.532938 65.744194 
L 258.733561 67.168343 
L 259.535829 69.00725 
L 261.000723 70.964762 
L 261.034087 73.364046 
L 262.558518 75.982501 
L 263.3981 75.453291 
L 265.058806 72.282865 
L 267.161122 71.552343 
L 268.055421 68.900314 
L 267.983914 61.486588 
L 268.272007 60.541993 
L 269.761429 58.890273 
L 270.359837 57.281845 
L 270.322221 56.174969 
L 271.189052 54.060367 
L 269.63559 52.336336 
L 267.45903 51.111862 
L 266.741337 47.287354 
L 267.052965 43.181691 
L 268.478116 39.225352 
L 271.143638 35.019027 
L 272.18147 31.813801 
L 272.293718 30.73268 
L 271.742755 30.286341 
L 271.394275 29.243938 
L 272.451376 24.463893 
L 274.447611 22.909649 
L 275.646629 22.46276 
L 277.853264 22.955403 
L 278.139234 24.841076 
L 277.168161 27.026669 
L 276.125352 31.597949 
L 273.421556 37.500865 
L 272.979122 39.484585 
L 273.217571 40.76151 
L 273.866494 41.641974 
L 273.863497 42.582569 
L 274.652802 44.297611 
L 275.114652 48.923536 
L 279.498982 50.493873 
L 285.988379 44.625974 
L 288.159788 43.521289 
L 289.046958 43.248469 
L 289.838932 43.831562 
L 290.528349 45.248598 
L 288.137158 48.944841 
L 284.357018 49.98785 
L 280.571755 53.342929 
L 280.448684 54.549681 
L 280.904801 56.276285 
L 283.128522 57.1468 
L 283.118183 58.574514 
L 283.746568 60.656448 
L 283.557111 61.750272 
L 282.382132 62.912161 
L 280.248603 61.26967 
L 279.191643 61.01354 
L 278.40924 61.710064 
L 277.854746 63.079879 
L 277.451477 66.378744 
L 277.509021 67.443163 
L 278.703594 70.863745 
L 278.809724 72.173005 
L 278.042237 73.303987 
L 277.223239 73.583526 
L 275.779394 76.653973 
L 274.696966 76.861628 
L 272.48317 75.514681 
L 270.907265 76.392499 
L 264.577861 81.821813 
L 261.877916 80.025051 
L 260.651239 80.990369 
L 258.533745 81.327033 
L 256.984206 80.684861 
L 255.154764 77.981877 
L 255.116534 77.070927 
L 255.520122 75.986012 
L 256.845134 73.581873 
L 256.849233 72.289716 
L 256.145166 71.694497 
L 255.664347 70.442929 
L 253.861734 71.16253 
L 252.435343 72.750836 
L 251.963044 73.766665 
L 252.080244 74.878599 
L 252.532642 76.908466 
L 253.298657 77.748519 
L 253.414746 79.763902 
L 254.242349 82.305541 
L 253.882806 83.469136 
L 253.369684 84.162447 
L 250.731609 84.659846 
L 247.564028 86.293753 
L 246.992633 87.211699 
L 247.650928 88.389935 
L 247.778595 89.864518 
L 245.339808 90.439352 
L 244.156441 92.924612 
L 241.524541 94.944508 
L 240.244393 95.350143 
L 239.46116 96.507165 
L 239.080517 98.763974 
L 234.824014 101.378624 
L 233.490639 100.894354 
L 232.696008 101.809086 
L 232.780994 102.881829 
L 232.113128 103.776932 
L 230.812727 103.83256 
L 228.861578 103.064778 
L 226.310569 103.591415 
L 225.897196 104.631526 
L 227.844884 106.651542 
L 229.813144 107.422122 
L 231.12647 108.721339 
L 232.474792 111.505359 
L 233.335556 112.00445 
L 233.917036 114.839633 
L 233.519047 115.745067 
L 232.886204 120.517789 
L 232.166287 121.853273 
L 230.85513 122.094934 
L 229.568194 121.599602 
L 219.519847 120.524023 
L 218.828581 119.890969 
L 217.684984 119.881597 
L 216.687503 120.85037 
L 215.173677 121.291765 
L 214.849705 122.607498 
L 215.441931 124.033545 
L 215.212632 126.218906 
L 215.574627 128.502427 
L 214.515903 132.282452 
L 213.428323 134.397592 
L 213.41813 135.966806 
L 214.181392 136.73019 
L 214.711753 141.112841 
L 219.094566 141.298341 
L 221.676043 144.905398 
L 225.441326 143.114863 
L 229.764335 143.034409 
L 231.461891 142.491332 
L 231.739098 141.693553 
L 232.601696 140.878251 
L 233.586846 140.613313 
L 234.913592 138.26518 
L 235.807225 137.595673 
L 236.060408 136.475484 
L 235.346881 134.722159 
L 237.894978 130.428732 
L 243.496453 126.795375 
L 243.676717 125.525991 
L 243.226763 123.915026 
L 243.294404 122.877783 
L 245.02887 121.361667 
L 248.145642 121.323867 
L 249.316845 122.054869 
L 251.014262 122.018348 
L 256.348097 117.260145 
L 259.82988 118.811608 
L 260.705949 121.365674 
L 266.260846 125.921106 
L 269.418326 126.69025 
L 273.668277 129.463413 
L 275.477079 131.708151 
L 275.525219 133.472158 
L 277.043462 133.590849 
L 277.602678 132.442956 
L 277.673574 130.509185 
L 276.487755 129.380185 
L 276.69204 128.506047 
L 277.952412 127.221281 
L 277.919296 125.577328 
L 275.719837 124.968648 
L 274.400226 123.785338 
L 270.445467 122.534768 
L 269.030243 121.256786 
L 268.136302 119.233932 
L 267.359933 118.436222 
L 265.123039 117.210177 
L 264.37215 116.000286 
L 264.440921 114.860965 
L 264.025656 113.566891 
L 264.285663 112.359917 
L 266.458843 111.276867 
L 267.216595 113.166296 
L 268.545313 113.207498 
L 269.70507 112.621461 
L 272.267041 116.647308 
L 276.165632 117.958842 
L 277.601268 119.144582 
L 281.905631 120.937899 
L 283.106262 122.295312 
L 283.210235 124.853291 
L 283.783825 126.851364 
L 285.032312 127.454912 
L 287.764174 130.252961 
L 289.766462 132.565739 
L 291.982382 136.310466 
L 293.015052 136.209881 
L 294.44178 134.632755 
L 294.742322 132.574166 
L 295.544277 131.403417 
L 294.943688 129.941655 
L 293.446481 128.873511 
L 293.333664 127.434575 
L 292.186682 125.631998 
L 292.426522 124.039298 
L 293.812957 124.075888 
L 295.482312 121.99012 
L 297.294503 120.848692 
L 300.36407 120.237919 
L 301.892514 115.487782 
L 302.82268 114.873059 
L 303.354362 113.384039 
L 303.828406 110.120618 
L 304.946513 108.556473 
L 304.496102 105.931354 
L 304.709823 104.243836 
L 306.176579 103.460629 
L 306.520857 101.340827 
L 306.254356 99.835876 
L 307.272439 98.887414 
L 308.134738 96.537541 
L 309.20936 95.173915 
L 310.143302 94.594613 
L 312.176878 95.65344 
L 313.543038 95.249233 
L 315.660893 98.098369 
L 316.823431 98.00509 
L 317.185722 99.514844 
L 318.296157 100.133743 
L 321.362113 96.771955 
L 321.50059 94.874906 
L 318.995595 94.191766 
L 318.617706 93.144826 
L 320.971484 90.109654 
L 326.77125 84.851344 
L 328.294841 88.350097 
L 326.999895 93.761539 
L 327.777044 94.379868 
L 329.240909 93.878369 
L 342.285172 95.622371 
L 344.086524 97.436742 
L 344.649968 99.26572 
L 343.87179 100.969276 
L 341.313931 103.743728 
L 337.847883 104.872639 
L 336.456835 106.018929 
L 331.471244 107.448095 
L 325.298699 107.832654 
L 323.872959 107.152477 
L 319.980036 108.887519 
L 317.315656 110.701917 
L 314.368465 114.563447 
L 309.390853 115.950087 
L 308.571122 118.271312 
L 307.353734 119.586034 
L 303.221825 120.963213 
L 301.588691 122.871297 
L 303.467697 125.053131 
L 304.296426 127.891321 
L 305.986801 129.66486 
L 306.518251 130.81921 
L 313.73035 132.704474 
L 315.110891 132.257179 
L 316.495827 130.801093 
L 316.879948 129.408324 
L 318.464144 128.993001 
L 321.396097 129.437684 
L 322.77718 130.190343 
L 323.916578 129.921519 
L 326.489051 128.524748 
L 327.935151 126.409643 
L 329.424494 125.38033 
L 331.7571 125.219586 
L 333.077655 126.110549 
L 334.973169 131.066215 
L 333.62819 143.164429 
L 331.585643 145.600298 
L 327.522021 146.85987 
L 322.654726 146.708369 
L 319.396763 148.565239 
L 317.655044 150.417063 
L 316.030071 150.682995 
L 306.937941 150.54969 
L 305.433284 151.213382 
L 302.357099 150.340652 
L 298.551521 150.437434 
L 297.812886 149.339726 
L 296.177959 149.02504 
L 293.192968 149.361854 
L 291.003008 150.650104 
L 289.49209 152.335162 
L 289.290445 153.936977 
L 290.203838 156.251158 
L 288.363799 158.678247 
L 287.115123 158.872455 
L 283.141418 157.27105 
L 278.193255 156.926038 
L 277.040512 156.0701 
L 276.546591 154.937769 
L 274.85427 153.878652 
L 270.57285 152.947936 
L 268.775224 153.541092 
L 262.490995 151.25141 
L 261.767048 150.282154 
L 264.082114 146.943176 
L 263.942366 145.372028 
L 262.817462 144.546042 
L 262.820054 141.282259 
L 260.558808 140.119788 
L 256.138054 141.987764 
L 251.638089 142.014714 
L 248.784159 143.019572 
L 247.788808 142.518449 
L 246.047973 142.571919 
L 239.64842 143.901739 
L 237.49721 144.738847 
L 236.370648 145.76444 
L 233.902871 146.475252 
L 231.681906 148.295293 
L 228.198229 147.803848 
L 224.789421 147.879192 
L 222.834361 146.154497 
L 221.782605 145.76448 
L 218.475093 151.37623 
L 213.937219 153.61088 
L 212.131648 155.337513 
L 210.292142 159.512847 
L 210.747868 161.850795 
L 210.305974 163.085582 
L 208.596184 165.10307 
L 205.226209 167.656487 
L 200.706593 168.956129 
L 198.397836 172.309787 
L 196.93499 172.865654 
L 195.999068 173.834449 
L 193.86569 178.362474 
L 192.493065 179.286825 
L 190.195649 182.050934 
L 188.806216 184.555217 
L 187.237574 185.874104 
L 186.758696 187.365562 
L 186.963134 188.50714 
L 187.504672 190.013062 
L 188.273309 190.524349 
L 188.548165 192.234973 
L 188.034996 193.364072 
L 188.162565 199.501702 
L 185.245361 206.376749 
L 183.492601 208.301566 
L 183.420191 209.771637 
L 184.225392 211.409254 
L 184.518505 213.539605 
L 183.586442 216.169286 
L 184.45748 217.598828 
L 186.059549 218.696995 
L 189.863254 222.989772 
L 190.25788 224.281715 
L 191.826236 225.541612 
L 193.807 229.034275 
L 194.594041 232.969038 
L 202.777767 239.34695 
L 206.523861 243.159064 
L 210.432078 245.251665 
L 212.15293 245.168339 
L 217.149919 243.137101 
L 221.994293 242.619473 
L 228.798735 243.784615 
L 230.500145 243.660954 
L 237.663567 240.69246 
L 239.399574 240.381488 
L 240.686655 239.294926 
L 248.549294 238.350888 
L 251.365416 239.21013 
L 253.656015 241.914713 
L 253.974884 243.557293 
L 255.433403 245.467158 
L 257.220737 245.698293 
L 261.016751 244.898263 
L 264.863853 244.933914 
L 268.853029 248.88397 
L 269.222029 250.895215 
L 268.681253 257.961219 
L 267.797931 263.604744 
L 267.0641 264.542673 
L 267.529575 266.735638 
L 269.697918 270.485881 
L 277.593474 279.190574 
L 280.280104 283.406169 
L 281.379641 287.505732 
L 286.330137 298.222775 
L 285.463938 299.951919 
L 285.700414 301.587205 
L 289.155296 309.290393 
L 289.403543 315.96403 
L 286.309345 321.090261 
L 284.999885 326.336983 
L 283.793126 336.844377 
L 284.498899 346.6 
M 435.761962 346.6 
L 434.550335 344.712635 
L 424.512738 321.080086 
L 421.481783 319.210714 
L 414.625295 311.009895 
L 412.393941 306.811407 
L 412.004599 304.079167 
L 410.272825 301.854038 
L 409.526592 298.295517 
L 404.86513 294.64452 
L 403.946979 291.826768 
L 404.299981 286.833527 
L 406.59423 274.950489 
L 409.118512 274.016649 
L 411.313405 271.755086 
L 413.778191 266.250391 
L 420.156271 257.456508 
L 424.542846 253.272781 
L 432.371346 248.238425 
L 439.847775 238.128152 
L 442.996734 230.312525 
L 443.421678 224.21274 
L 446.632774 213.405896 
L 446.027882 204.44947 
L 444.000073 200.846582 
L 439.18932 200.216691 
L 438.133083 201.378007 
L 433.17618 203.450973 
L 420.637885 206.29925 
L 416.343627 209.1481 
L 410.86177 209.897994 
L 405.079515 212.009796 
L 402.038284 211.105554 
L 395.511515 206.893272 
L 394.780945 203.787872 
L 392.255661 203.050556 
L 388.497457 200.604141 
L 381.299479 197.26732 
L 375.335659 196.090246 
L 371.792685 194.754723 
L 365.370504 187.177441 
L 358.852871 184.554931 
L 352.735226 173.94252 
L 349.204254 172.150602 
L 347.398215 171.79876 
L 344.480147 167.221456 
L 338.77933 162.260239 
L 335.046275 158.134353 
L 335.635292 156.289452 
L 336.884833 156.018081 
L 338.900944 154.612115 
L 340.730655 155.29458 
L 349.526214 161.637089 
L 352.104124 164.667484 
L 356.807264 165.983931 
L 361.257441 170.321988 
L 361.499446 172.37086 
L 363.209911 174.827167 
L 365.4123 176.23542 
L 372.016491 178.281433 
L 378.043121 183.564147 
L 382.614033 185.768804 
L 386.564347 189.204027 
L 387.142129 191.469675 
L 393.702663 200.647589 
L 395.126435 202.035129 
L 399.885343 202.828693 
L 403.26828 201.774193 
L 408.009076 197.938861 
L 413.646473 196.196853 
L 417.921095 193.313883 
L 421.644991 192.434635 
L 426.032169 188.360337 
L 435.634543 183.936176 
L 440.314012 180.105788 
L 439.365885 178.294502 
L 440.814755 176.459325 
L 449.452559 171.52141 
L 454.026206 170.652055 
L 459.111273 164.312515 
L 461.8 162.55387 
M 461.8 132.964601 
L 460.897977 132.816845 
L 450.320701 135.138588 
L 445.045167 134.124729 
L 441.097949 131.044824 
L 437.10214 130.860352 
L 431.450623 140.598638 
L 428.053129 142.674383 
L 417.57063 145.698474 
L 414.656273 143.954239 
L 414.483711 142.044719 
L 413.11429 140.450317 
L 409.512943 140.649116 
L 406.941905 143.163895 
L 402.428568 138.681772 
L 398.03184 138.092769 
L 392.692888 135.649297 
L 387.743341 131.848117 
L 388.859818 129.933095 
L 392.441024 127.417384 
L 396.791378 126.149029 
L 406.729175 131.469827 
L 411.420795 130.952871 
L 420.678504 131.644852 
L 429.119851 129.958219 
L 435.887682 123.71604 
L 439.625164 123.160999 
L 441.681004 123.871346 
L 444.035031 126.091378 
L 447.318956 126.706383 
L 459.577248 123.435507 
L 461.8 122.585763 
L 461.8 122.585763 
" clip-path="url(#p524c2b8a45)" style="fill: none; stroke: #0000ff; stroke-width: 1.5; stroke-linecap: square"/>
   </g>
   <g id="line2d_34">
    <path d="M 362.703674 215.64474 
L 314.368262 66.88389 
L 157.951738 66.88389 
L 109.616326 215.64474 
L 236.16 307.583997 
L 362.703674 215.64474 
" clip-path="url(#p524c2b8a45)" style="fill: none; stroke: #008000; stroke-width: 1.5; stroke-linecap: square"/>
   </g>
   <g id="patch_3">
    <path d="M 103.104 307.584 
L 103.104 41.472 
" style="fill: none; stroke: #000000; stroke-width: 0.8; stroke-linejoin: miter; stroke-linecap: square"/>
   </g>
   <g id="patch_4">
    <path d="M 369.216 307.584 
L 369.216 41.472 
" style="fill: none; stroke: #000000; stroke-width: 0.8; stroke-linejoin: miter; stroke-linecap: square"/>
   </g>
   <g id="patch_5">
    <path d="M 103.104 307.584 
L 369.216 307.584 
" style="fill: none; stroke: #000000; stroke-width: 0.8; stroke-linejoin: miter; stroke-linecap: square"/>
   </g>
   <g id="patch_6">
    <path d="M 103.104 41.472 
L 369.216 41.472 
" style="fill: none; stroke: #000000; stroke-width: 0.8; stroke-linejoin: miter; stroke-linecap: square"/>
   </g>
  </g>
 </g>
 <defs>
  <clipPath id="p524c2b8a45">
   <rect x="103.104" y="41.472" width="266.112" height="266.112"/>
  </clipPath>
 </defs>
</svg>
