<?xml version="1.0" encoding="utf-8" standalone="no"?>
<!DOCTYPE svg PUBLIC "-//W3C//DTD SVG 1.1//EN"
  "http://www.w3.org/Graphics/SVG/1.1/DTD/svg11.dtd">
<svg xmlns:xlink="http://www.w3.org/1999/xlink" width="460.8pt" height="345.6pt" viewBox="0 0 460.8 345.6" xmlns="http://www.w3.org/2000/svg" version="1.1">
 <metadata>
  <rdf:RDF xmlns:dc="http://purl.org/dc/elements/1.1/" xmlns:cc="http://creativecommons.org/ns#" xmlns:rdf="http://www.w3.org/1999/02/22-rdf-syntax-ns#">
   <cc:Work>
    <dc:type rdf:resource="http://purl.org/dc/dcmitype/StillImage"/>
    <dc:date>2025-06-01T22:06:12.461192</dc:date>
    <dc:format>image/svg+xml</dc:format>
    <dc:creator>
     <cc:Agent>
      <dc:title>Matplotlib v3.6.3, https://matplotlib.org/</dc:title>
     </cc:Agent>
    </dc:creator>
   </cc:Work>
  </rdf:RDF>
 </metadata>
 <defs>
  <style type="text/css">*{stroke-linejoin: round; stroke-linecap: butt}</style>
 </defs>
 <g id="figure_1">
  <g id="patch_1">
   <path d="M 0 345.6 
L 460.8 345.6 
L 460.8 0 
L 0 0 
z
" style="fill: #ffffff"/>
  </g>
  <g id="axes_1">
   <g id="patch_2">
    <path d="M 103.104 307.584 
L 369.216 307.584 
L 369.216 41.472 
L 103.104 41.472 
z
" style="fill: #ffffff"/>
   </g>
   <g id="matplotlib.axis_1">
    <g id="xtick_1">
     <g id="line2d_1">
      <defs>
       <path id="m49b4f37f2f" d="M 0 0 
L 0 3.5 
" style="stroke: #000000; stroke-width: 0.8"/>
      </defs>
      <g>
       <use xlink:href="#m49b4f37f2f" x="126.929132" y="307.584" style="stroke: #000000; stroke-width: 0.8"/>
      </g>
     </g>
     <g id="text_1">
      <!-- −4 -->
      <g transform="translate(119.558038 322.182437) scale(0.1 -0.1)">
       <defs>
        <path id="DejaVuSans-2212" d="M 678 2272 
L 4684 2272 
L 4684 1741 
L 678 1741 
L 678 2272 
z
" transform="scale(0.015625)"/>
        <path id="DejaVuSans-34" d="M 2419 4116 
L 825 1625 
L 2419 1625 
L 2419 4116 
z
M 2253 4666 
L 3047 4666 
L 3047 1625 
L 3713 1625 
L 3713 1100 
L 3047 1100 
L 3047 0 
L 2419 0 
L 2419 1100 
L 313 1100 
L 313 1709 
L 2253 4666 
z
" transform="scale(0.015625)"/>
       </defs>
       <use xlink:href="#DejaVuSans-2212"/>
       <use xlink:href="#DejaVuSans-34" x="83.789062"/>
      </g>
     </g>
    </g>
    <g id="xtick_2">
     <g id="line2d_2">
      <g>
       <use xlink:href="#m49b4f37f2f" x="181.544566" y="307.584" style="stroke: #000000; stroke-width: 0.8"/>
      </g>
     </g>
     <g id="text_2">
      <!-- −2 -->
      <g transform="translate(174.173472 322.182437) scale(0.1 -0.1)">
       <defs>
        <path id="DejaVuSans-32" d="M 1228 531 
L 3431 531 
L 3431 0 
L 469 0 
L 469 531 
Q 828 903 1448 1529 
Q 2069 2156 2228 2338 
Q 2531 2678 2651 2914 
Q 2772 3150 2772 3378 
Q 2772 3750 2511 3984 
Q 2250 4219 1831 4219 
Q 1534 4219 1204 4116 
Q 875 4013 500 3803 
L 500 4441 
Q 881 4594 1212 4672 
Q 1544 4750 1819 4750 
Q 2544 4750 2975 4387 
Q 3406 4025 3406 3419 
Q 3406 3131 3298 2873 
Q 3191 2616 2906 2266 
Q 2828 2175 2409 1742 
Q 1991 1309 1228 531 
z
" transform="scale(0.015625)"/>
       </defs>
       <use xlink:href="#DejaVuSans-2212"/>
       <use xlink:href="#DejaVuSans-32" x="83.789062"/>
      </g>
     </g>
    </g>
    <g id="xtick_3">
     <g id="line2d_3">
      <g>
       <use xlink:href="#m49b4f37f2f" x="236.16" y="307.584" style="stroke: #000000; stroke-width: 0.8"/>
      </g>
     </g>
     <g id="text_3">
      <!-- 0 -->
      <g transform="translate(232.97875 322.182437) scale(0.1 -0.1)">
       <defs>
        <path id="DejaVuSans-30" d="M 2034 4250 
Q 1547 4250 1301 3770 
Q 1056 3291 1056 2328 
Q 1056 1369 1301 889 
Q 1547 409 2034 409 
Q 2525 409 2770 889 
Q 3016 1369 3016 2328 
Q 3016 3291 2770 3770 
Q 2525 4250 2034 4250 
z
M 2034 4750 
Q 2819 4750 3233 4129 
Q 3647 3509 3647 2328 
Q 3647 1150 3233 529 
Q 2819 -91 2034 -91 
Q 1250 -91 836 529 
Q 422 1150 422 2328 
Q 422 3509 836 4129 
Q 1250 4750 2034 4750 
z
" transform="scale(0.015625)"/>
       </defs>
       <use xlink:href="#DejaVuSans-30"/>
      </g>
     </g>
    </g>
    <g id="xtick_4">
     <g id="line2d_4">
      <g>
       <use xlink:href="#m49b4f37f2f" x="290.775434" y="307.584" style="stroke: #000000; stroke-width: 0.8"/>
      </g>
     </g>
     <g id="text_4">
      <!-- 2 -->
      <g transform="translate(287.594184 322.182437) scale(0.1 -0.1)">
       <use xlink:href="#DejaVuSans-32"/>
      </g>
     </g>
    </g>
    <g id="xtick_5">
     <g id="line2d_5">
      <g>
       <use xlink:href="#m49b4f37f2f" x="345.390868" y="307.584" style="stroke: #000000; stroke-width: 0.8"/>
      </g>
     </g>
     <g id="text_5">
      <!-- 4 -->
      <g transform="translate(342.209618 322.182437) scale(0.1 -0.1)">
       <use xlink:href="#DejaVuSans-34"/>
      </g>
     </g>
    </g>
    <g id="text_6">
     <!-- 1e6 -->
     <g transform="translate(350.337875 334.860562) scale(0.1 -0.1)">
      <defs>
       <path id="DejaVuSans-31" d="M 794 531 
L 1825 531 
L 1825 4091 
L 703 3866 
L 703 4441 
L 1819 4666 
L 2450 4666 
L 2450 531 
L 3481 531 
L 3481 0 
L 794 0 
L 794 531 
z
" transform="scale(0.015625)"/>
       <path id="DejaVuSans-65" d="M 3597 1894 
L 3597 1613 
L 953 1613 
Q 991 1019 1311 708 
Q 1631 397 2203 397 
Q 2534 397 2845 478 
Q 3156 559 3463 722 
L 3463 178 
Q 3153 47 2828 -22 
Q 2503 -91 2169 -91 
Q 1331 -91 842 396 
Q 353 884 353 1716 
Q 353 2575 817 3079 
Q 1281 3584 2069 3584 
Q 2775 3584 3186 3129 
Q 3597 2675 3597 1894 
z
M 3022 2063 
Q 3016 2534 2758 2815 
Q 2500 3097 2075 3097 
Q 1594 3097 1305 2825 
Q 1016 2553 972 2059 
L 3022 2063 
z
" transform="scale(0.015625)"/>
       <path id="DejaVuSans-36" d="M 2113 2584 
Q 1688 2584 1439 2293 
Q 1191 2003 1191 1497 
Q 1191 994 1439 701 
Q 1688 409 2113 409 
Q 2538 409 2786 701 
Q 3034 994 3034 1497 
Q 3034 2003 2786 2293 
Q 2538 2584 2113 2584 
z
M 3366 4563 
L 3366 3988 
Q 3128 4100 2886 4159 
Q 2644 4219 2406 4219 
Q 1781 4219 1451 3797 
Q 1122 3375 1075 2522 
Q 1259 2794 1537 2939 
Q 1816 3084 2150 3084 
Q 2853 3084 3261 2657 
Q 3669 2231 3669 1497 
Q 3669 778 3244 343 
Q 2819 -91 2113 -91 
Q 1303 -91 875 529 
Q 447 1150 447 2328 
Q 447 3434 972 4092 
Q 1497 4750 2381 4750 
Q 2619 4750 2861 4703 
Q 3103 4656 3366 4563 
z
" transform="scale(0.015625)"/>
      </defs>
      <use xlink:href="#DejaVuSans-31"/>
      <use xlink:href="#DejaVuSans-65" x="63.623047"/>
      <use xlink:href="#DejaVuSans-36" x="125.146484"/>
     </g>
    </g>
   </g>
   <g id="matplotlib.axis_2">
    <g id="ytick_1">
     <g id="line2d_6">
      <defs>
       <path id="m1cd08fc3fc" d="M 0 0 
L -3.5 0 
" style="stroke: #000000; stroke-width: 0.8"/>
      </defs>
      <g>
       <use xlink:href="#m1cd08fc3fc" x="103.104" y="283.758868" style="stroke: #000000; stroke-width: 0.8"/>
      </g>
     </g>
     <g id="text_7">
      <!-- −4 -->
      <g transform="translate(81.361813 287.558087) scale(0.1 -0.1)">
       <use xlink:href="#DejaVuSans-2212"/>
       <use xlink:href="#DejaVuSans-34" x="83.789062"/>
      </g>
     </g>
    </g>
    <g id="ytick_2">
     <g id="line2d_7">
      <g>
       <use xlink:href="#m1cd08fc3fc" x="103.104" y="229.143434" style="stroke: #000000; stroke-width: 0.8"/>
      </g>
     </g>
     <g id="text_8">
      <!-- −2 -->
      <g transform="translate(81.361813 232.942653) scale(0.1 -0.1)">
       <use xlink:href="#DejaVuSans-2212"/>
       <use xlink:href="#DejaVuSans-32" x="83.789062"/>
      </g>
     </g>
    </g>
    <g id="ytick_3">
     <g id="line2d_8">
      <g>
       <use xlink:href="#m1cd08fc3fc" x="103.104" y="174.528" style="stroke: #000000; stroke-width: 0.8"/>
      </g>
     </g>
     <g id="text_9">
      <!-- 0 -->
      <g transform="translate(89.7415 178.327219) scale(0.1 -0.1)">
       <use xlink:href="#DejaVuSans-30"/>
      </g>
     </g>
    </g>
    <g id="ytick_4">
     <g id="line2d_9">
      <g>
       <use xlink:href="#m1cd08fc3fc" x="103.104" y="119.912566" style="stroke: #000000; stroke-width: 0.8"/>
      </g>
     </g>
     <g id="text_10">
      <!-- 2 -->
      <g transform="translate(89.7415 123.711785) scale(0.1 -0.1)">
       <use xlink:href="#DejaVuSans-32"/>
      </g>
     </g>
    </g>
    <g id="ytick_5">
     <g id="line2d_10">
      <g>
       <use xlink:href="#m1cd08fc3fc" x="103.104" y="65.297132" style="stroke: #000000; stroke-width: 0.8"/>
      </g>
     </g>
     <g id="text_11">
      <!-- 4 -->
      <g transform="translate(89.7415 69.09635) scale(0.1 -0.1)">
       <use xlink:href="#DejaVuSans-34"/>
      </g>
     </g>
    </g>
    <g id="text_12">
     <!-- 1e6 -->
     <g transform="translate(103.104 38.472) scale(0.1 -0.1)">
      <use xlink:href="#DejaVuSans-31"/>
      <use xlink:href="#DejaVuSans-65" x="63.623047"/>
      <use xlink:href="#DejaVuSans-36" x="125.146484"/>
     </g>
    </g>
   </g>
   <g id="line2d_11">
    <path d="M 110.003452 346.6 
L 109.114132 345.357399 
L 106.2506 341.356335 
L 103.409443 337.386534 
L 100.588687 333.445238 
L 97.786413 329.529766 
L 95.000748 325.637502 
L 92.229862 321.765887 
L 89.471962 317.912417 
L 86.725288 314.074632 
L 83.988108 310.250112 
L 81.258711 306.436469 
L 78.53541 302.631342 
L 75.816528 298.83239 
L 73.100402 295.037288 
L 70.385375 291.243722 
L 67.669792 287.449379 
L 64.951996 283.651945 
L 62.230328 279.849099 
L 59.503115 276.038506 
L 56.768674 272.217814 
L 54.025302 268.384643 
L 51.271275 264.536584 
L 48.504842 260.671192 
L 45.724222 256.785976 
L 42.927597 252.878397 
L 40.113109 248.94586 
L 37.278855 244.985704 
L 34.422879 240.995198 
L 31.54317 236.97153 
L 28.637653 232.911803 
L 25.704185 228.813021 
L 22.740547 224.672083 
L 19.744436 220.485773 
L 16.713459 216.250746 
L 13.645123 211.96352 
L 10.536828 207.620462 
L 7.385858 203.217775 
L 4.189365 198.751482 
L 0.944365 194.217412 
L -1 191.500652 
" clip-path="url(#pc0f9db187e)" style="fill: none; stroke: #000000; stroke-width: 1.5; stroke-linecap: square"/>
   </g>
   <g id="line2d_12">
    <path d="M 148.608905 346.6 
L 148.478355 346.337157 
L 146.247923 341.846491 
L 144.053884 337.429098 
L 141.89405 333.080571 
L 139.76634 328.796724 
L 137.668776 324.573569 
L 135.599469 320.407306 
L 133.556615 316.294304 
L 131.53849 312.231089 
L 129.543439 308.214331 
L 127.569873 304.240829 
L 125.616263 300.307507 
L 123.681135 296.411396 
L 121.763066 292.549629 
L 119.860676 288.719431 
L 117.972629 284.91811 
L 116.097625 281.14305 
L 114.234399 277.391703 
L 112.381715 273.66158 
L 110.538363 269.950247 
L 108.703159 266.255318 
L 106.874937 262.574447 
L 105.052549 258.905322 
L 103.234862 255.245662 
L 101.420755 251.593209 
L 99.609113 247.94572 
L 97.798831 244.300967 
L 95.988804 240.656729 
L 94.177929 237.010783 
L 92.365101 233.360906 
L 90.549209 229.704861 
L 88.729138 226.0404 
L 86.903758 222.365251 
L 85.07193 218.677119 
L 83.232496 214.973673 
L 81.38428 211.252548 
L 79.526086 207.511331 
L 77.656689 203.747561 
L 75.774839 199.958717 
L 73.879253 196.142216 
L 71.96861 192.295402 
L 70.041552 188.415539 
L 68.096678 184.499805 
L 66.132536 180.545278 
L 64.147624 176.548933 
L 62.140382 172.507629 
L 60.109185 168.418096 
L 58.052342 164.276929 
L 55.968088 160.080571 
L 53.854572 155.825302 
L 51.709861 151.507223 
L 49.53192 147.122242 
L 47.318614 142.666056 
L 45.067691 138.134134 
L 42.776775 133.521695 
L 40.443359 128.823685 
L 38.064786 124.034757 
L 35.638238 119.149241 
L 33.160726 114.161114 
L 30.629068 109.063972 
L 28.039875 103.850991 
L 25.38953 98.514889 
L 22.674166 93.047882 
L 19.889645 87.441634 
L 17.031526 81.687208 
L 14.095039 75.775 
L 11.075052 69.694675 
L 7.96603 63.435091 
L 4.761997 56.984213 
L 1.456483 50.32902 
L -1 45.383233 
" clip-path="url(#pc0f9db187e)" style="fill: none; stroke: #000000; stroke-width: 1.5; stroke-linecap: square"/>
   </g>
   <g id="line2d_13">
    <path d="M 174.570191 346.6 
L 173.425195 343.322983 
L 171.713217 338.423249 
L 170.039045 333.631717 
L 168.400454 328.942016 
L 166.795352 324.348165 
L 165.221776 319.84454 
L 163.677874 315.425842 
L 162.161899 311.087074 
L 160.672201 306.823512 
L 159.207219 302.630686 
L 157.76547 298.504356 
L 156.345549 294.440498 
L 154.946118 290.43528 
L 153.5659 286.485055 
L 152.20368 282.586338 
L 150.858294 278.735799 
L 149.528625 274.930245 
L 148.213604 271.166613 
L 146.912202 267.441958 
L 145.623426 263.753443 
L 144.346321 260.098327 
L 143.07996 256.473962 
L 141.823446 252.87778 
L 140.575908 249.307285 
L 139.336497 245.760052 
L 138.104386 242.233712 
L 136.878767 238.72595 
L 135.658846 235.2345 
L 134.443847 231.757133 
L 133.233002 228.291658 
L 132.025558 224.835913 
L 130.820765 221.387759 
L 129.617884 217.945076 
L 128.416179 214.505758 
L 127.214917 211.067707 
L 126.013365 207.628826 
L 124.81079 204.18702 
L 123.606458 200.740184 
L 122.399629 197.2862 
L 121.189557 193.822936 
L 119.975488 190.348233 
L 118.75666 186.859907 
L 117.532296 183.355739 
L 116.301607 179.833469 
L 115.063789 176.290794 
L 113.818017 172.725357 
L 112.56345 169.134744 
L 111.299219 165.516476 
L 110.024433 161.868 
L 108.738174 158.186685 
L 107.43949 154.46981 
L 106.127398 150.71456 
L 104.800876 146.918012 
L 103.458863 143.077129 
L 102.100254 139.188747 
L 100.723895 135.249564 
L 99.32858 131.25613 
L 97.913048 127.204831 
L 96.475973 123.091877 
L 95.015963 118.913284 
L 93.531555 114.664859 
L 92.021202 110.342183 
L 90.483275 105.940585 
L 88.916046 101.455128 
L 87.317689 96.880578 
L 85.686261 92.211382 
L 84.019701 87.441634 
L 82.315812 82.565049 
L 80.572251 77.574923 
L 78.786516 72.464093 
L 76.955929 67.224895 
L 75.07762 61.849115 
L 73.148508 56.327935 
L 71.165278 50.651868 
L 69.12436 44.810696 
L 67.0219 38.793389 
L 64.853731 32.588021 
L 62.615338 26.181669 
L 60.301821 19.560311 
L 57.90785 12.70869 
L 55.427617 5.610184 
L 53.118004 -1 
" clip-path="url(#pc0f9db187e)" style="fill: none; stroke: #000000; stroke-width: 1.5; stroke-linecap: square"/>
   </g>
   <g id="line2d_14">
    <path d="M 194.244622 346.6 
L 193.047149 341.564116 
L 191.799973 336.319212 
L 190.585739 331.212838 
L 189.402445 326.236587 
L 188.248231 321.382627 
L 187.12136 316.643653 
L 186.020207 312.012839 
L 184.943255 307.483797 
L 183.889078 303.050535 
L 182.85634 298.707431 
L 181.843781 294.449193 
L 180.850218 290.270837 
L 179.874532 286.16766 
L 178.915664 282.135217 
L 177.972616 278.169298 
L 177.044438 274.265913 
L 176.130228 270.421271 
L 175.229128 266.631764 
L 174.340321 262.893954 
L 173.463027 259.204557 
L 172.596498 255.560434 
L 171.740019 251.958576 
L 170.892903 248.396094 
L 170.054489 244.870209 
L 169.224142 241.378245 
L 168.401245 237.917615 
L 167.585205 234.485819 
L 166.775445 231.080432 
L 165.971404 227.699099 
L 165.172538 224.339526 
L 164.378313 220.999476 
L 163.588211 217.676761 
L 162.801721 214.369236 
L 162.018342 211.074795 
L 161.237582 207.791365 
L 160.458953 204.516899 
L 159.681974 201.249373 
L 158.906168 197.986779 
L 158.13106 194.727121 
L 157.356178 191.468413 
L 156.581049 188.208667 
L 155.805201 184.945896 
L 155.028159 181.678103 
L 154.249445 178.403281 
L 153.468579 175.119404 
L 152.685072 171.824425 
L 151.898431 168.516268 
L 151.108157 165.192826 
L 150.313737 161.851953 
L 149.514651 158.491458 
L 148.710367 155.109103 
L 147.900339 151.70259 
L 147.084006 148.269561 
L 146.26079 144.807589 
L 145.430096 141.314169 
L 144.591309 137.786711 
L 143.74379 134.222534 
L 142.886878 130.618855 
L 142.019885 126.972779 
L 141.142093 123.281293 
L 140.252755 119.54125 
L 139.351089 115.749361 
L 138.436275 111.902179 
L 137.507454 107.99609 
L 136.563721 104.027293 
L 135.604126 99.991789 
L 134.627666 95.885359 
L 133.633281 91.703546 
L 132.619849 87.441634 
L 131.586182 83.094627 
L 130.53102 78.65722 
L 129.45302 74.123773 
L 128.350755 69.488278 
L 127.2227 64.744329 
L 126.067228 59.885079 
L 124.882597 54.9032 
L 123.666938 49.790838 
L 122.418245 44.539555 
L 121.134362 39.140278 
L 119.812961 33.583227 
L 118.451533 27.857845 
L 117.047363 21.952712 
L 115.597508 15.855456 
L 114.098774 9.552643 
L 112.547686 3.029656 
L 111.589482 -1 
" clip-path="url(#pc0f9db187e)" style="fill: none; stroke: #000000; stroke-width: 1.5; stroke-linecap: square"/>
   </g>
   <g id="line2d_15">
    <path d="M 210.546138 346.6 
L 210.275991 344.740873 
L 209.458281 339.113475 
L 208.665243 333.655869 
L 207.895315 328.357304 
L 207.147052 323.207836 
L 206.419115 318.19825 
L 205.710262 313.31999 
L 205.019335 308.565101 
L 204.345257 303.92617 
L 203.687025 299.39628 
L 203.043697 294.968965 
L 202.414395 290.638172 
L 201.798293 286.398224 
L 201.194617 282.243787 
L 200.602638 278.169842 
L 200.021667 274.171662 
L 199.451057 270.244781 
L 198.890194 266.38498 
L 198.338497 262.58826 
L 197.795416 258.850829 
L 197.260426 255.169084 
L 196.733029 251.539594 
L 196.212751 247.95909 
L 195.699136 244.424448 
L 195.191752 240.932678 
L 194.69018 237.480915 
L 194.194022 234.066408 
L 193.702893 230.686508 
L 193.216422 227.338662 
L 192.73425 224.020406 
L 192.256032 220.729353 
L 191.781429 217.463187 
L 191.310116 214.21966 
L 190.841774 210.996579 
L 190.376093 207.791807 
L 189.912768 204.603251 
L 189.451501 201.428858 
L 188.991999 198.266614 
L 188.533974 195.114531 
L 188.07714 191.970649 
L 187.621216 188.833027 
L 187.165922 185.699739 
L 186.71098 182.568871 
L 186.256111 179.438514 
L 185.80104 176.306759 
L 185.345488 173.171696 
L 184.889176 170.031405 
L 184.431824 166.883955 
L 183.973148 163.727395 
L 183.512862 160.559754 
L 183.050676 157.379032 
L 182.586293 154.183198 
L 182.119413 150.970181 
L 181.64973 147.737868 
L 181.176928 144.484096 
L 180.700687 141.206649 
L 180.220673 137.903246 
L 179.736547 134.571541 
L 179.247957 131.209112 
L 178.754538 127.813453 
L 178.255913 124.381968 
L 177.751691 120.911963 
L 177.241464 117.400633 
L 176.724808 113.845059 
L 176.201279 110.242188 
L 175.670415 106.588832 
L 175.131728 102.881646 
L 174.58471 99.117122 
L 174.028824 95.291572 
L 173.463506 91.401109 
L 172.888159 87.441634 
L 172.302156 83.408817 
L 171.704829 79.298072 
L 171.095472 75.10454 
L 170.473335 70.82306 
L 169.837621 66.448141 
L 169.18748 61.973936 
L 168.522005 57.394205 
L 167.840227 52.702277 
L 167.141108 47.891011 
L 166.423535 42.952748 
L 165.686313 37.879261 
L 164.928155 32.661696 
L 164.147674 27.290507 
L 163.343373 21.755388 
L 162.51363 16.045183 
L 161.656689 10.147802 
L 160.770641 4.050112 
L 160.036816 -1 
" clip-path="url(#pc0f9db187e)" style="fill: none; stroke: #000000; stroke-width: 1.5; stroke-linecap: square"/>
   </g>
   <g id="line2d_16">
    <path d="M 225.080975 346.6 
L 225.063728 346.325592 
L 224.695886 340.473081 
L 224.339914 334.809403 
L 223.995037 329.322275 
L 223.660546 324.000376 
L 223.335783 318.833252 
L 223.020139 313.811233 
L 222.713053 308.925357 
L 222.414 304.167301 
L 222.122494 299.529325 
L 221.838083 295.004218 
L 221.560343 290.585251 
L 221.288878 286.26613 
L 221.023318 282.040966 
L 220.763317 277.904231 
L 220.508547 273.850736 
L 220.258702 269.875595 
L 220.013492 265.974204 
L 219.772644 262.142217 
L 219.535901 258.375524 
L 219.303016 254.670232 
L 219.073759 251.022647 
L 218.847908 247.429261 
L 218.625253 243.886731 
L 218.405594 240.391872 
L 218.188741 236.94164 
L 217.974509 233.533123 
L 217.762724 230.163528 
L 217.553216 226.830173 
L 217.345824 223.530478 
L 217.140391 220.261954 
L 216.936766 217.022197 
L 216.734803 213.80888 
L 216.53436 210.619746 
L 216.335299 207.452601 
L 216.137486 204.305307 
L 215.940789 201.175779 
L 215.745081 198.061974 
L 215.550235 194.961891 
L 215.356127 191.873562 
L 215.162637 188.795048 
L 214.969643 185.724436 
L 214.777027 182.659829 
L 214.58467 179.599349 
L 214.392455 176.541124 
L 214.200264 173.483292 
L 214.007981 170.423987 
L 213.815488 167.361343 
L 213.622668 164.293484 
L 213.429401 161.218522 
L 213.235567 158.134552 
L 213.041047 155.039646 
L 212.845716 151.931849 
L 212.64945 148.809175 
L 212.452122 145.669598 
L 212.253601 142.511052 
L 212.053755 139.331423 
L 211.852448 136.128539 
L 211.649539 132.900172 
L 211.444884 129.644025 
L 211.238334 126.357726 
L 211.029735 123.038825 
L 210.818927 119.68478 
L 210.605744 116.292952 
L 210.390014 112.860597 
L 210.171557 109.384854 
L 209.950185 105.862736 
L 209.725703 102.291119 
L 209.497903 98.666727 
L 209.26657 94.986124 
L 209.031477 91.245695 
L 208.792385 87.441634 
L 208.54904 83.569924 
L 208.301177 79.62632 
L 208.048513 75.606329 
L 207.790749 71.505188 
L 207.527566 67.317837 
L 207.258627 63.038894 
L 206.98357 58.662627 
L 206.702012 54.182916 
L 206.413541 49.59322 
L 206.117717 44.886536 
L 205.814068 40.055351 
L 205.502086 35.091596 
L 205.181227 29.986584 
L 204.8509 24.730952 
L 204.510471 19.314584 
L 204.159252 13.726535 
L 203.796496 7.954938 
L 203.421394 1.986904 
L 203.233662 -1 
" clip-path="url(#pc0f9db187e)" style="fill: none; stroke: #000000; stroke-width: 1.5; stroke-linecap: square"/>
   </g>
   <g id="line2d_17">
    <path d="M 238.912852 346.6 
L 238.932182 345.362207 
L 239.023727 339.500381 
L 239.112296 333.829065 
L 239.198085 328.335828 
L 239.281271 323.009218 
L 239.36202 317.838662 
L 239.440484 312.814386 
L 239.516805 307.927334 
L 239.591115 303.169099 
L 239.663535 298.531867 
L 239.734179 294.008359 
L 239.803153 289.591784 
L 239.870556 285.275797 
L 239.936481 281.054456 
L 240.001015 276.922193 
L 240.064239 272.873777 
L 240.126231 268.904288 
L 240.187063 265.009091 
L 240.246802 261.183809 
L 240.305515 257.424308 
L 240.363261 253.726672 
L 240.420099 250.087188 
L 240.476084 246.502327 
L 240.531268 242.968733 
L 240.585702 239.483205 
L 240.639433 236.042688 
L 240.692507 232.644258 
L 240.744966 229.285114 
L 240.796855 225.962566 
L 240.848212 222.674027 
L 240.899077 219.417004 
L 240.949488 216.189088 
L 240.99948 212.98795 
L 241.04909 209.811331 
L 241.098351 206.657036 
L 241.147296 203.522928 
L 241.195959 200.406922 
L 241.244371 197.306978 
L 241.292564 194.221098 
L 241.340567 191.147317 
L 241.388412 188.083702 
L 241.436128 185.028346 
L 241.483744 181.979358 
L 241.53129 178.934867 
L 241.578795 175.893012 
L 241.626287 172.851936 
L 241.673797 169.809788 
L 241.721352 166.76471 
L 241.768982 163.71484 
L 241.816716 160.658304 
L 241.864584 157.593209 
L 241.912615 154.517645 
L 241.96084 151.429672 
L 242.00929 148.327322 
L 242.057995 145.20859 
L 242.106989 142.07143 
L 242.156302 138.913748 
L 242.20597 135.733399 
L 242.256026 132.528179 
L 242.306506 129.295817 
L 242.357447 126.033973 
L 242.408885 122.740224 
L 242.460862 119.412064 
L 242.513416 116.046889 
L 242.56659 112.641993 
L 242.620429 109.194556 
L 242.674978 105.701634 
L 242.730286 102.16015 
L 242.786402 98.566879 
L 242.84338 94.918438 
L 242.901275 91.211271 
L 242.960146 87.441634 
L 243.020054 83.605577 
L 243.081064 79.698929 
L 243.143246 75.717274 
L 243.206672 71.655934 
L 243.271421 67.509942 
L 243.337573 63.274014 
L 243.405219 58.942525 
L 243.47445 54.509474 
L 243.545367 49.968446 
L 243.618078 45.312577 
L 243.692698 40.534506 
L 243.769349 35.626329 
L 243.848165 30.579542 
L 243.929289 25.384978 
L 244.012875 20.032743 
L 244.099091 14.512132 
L 244.188118 8.811544 
L 244.280151 2.918382 
L 244.341345 -1 
" clip-path="url(#pc0f9db187e)" style="fill: none; stroke: #000000; stroke-width: 1.5; stroke-linecap: square"/>
   </g>
   <g id="line2d_18">
    <path d="M 252.916123 346.6 
L 253.374582 341.777079 
L 253.911953 336.124008 
L 254.432738 330.64543 
L 254.937995 325.3302 
L 255.428703 320.168021 
L 255.905768 315.149363 
L 256.370031 310.265388 
L 256.822271 305.507886 
L 257.263215 300.869218 
L 257.69354 296.342263 
L 258.113878 291.920371 
L 258.52482 287.597324 
L 258.926919 283.367296 
L 259.320696 279.224819 
L 259.706639 275.164756 
L 260.085208 271.18227 
L 260.456836 267.272798 
L 260.821932 263.432032 
L 261.180885 259.655898 
L 261.534062 255.940533 
L 261.88181 252.28227 
L 262.224462 248.677625 
L 262.562332 245.123277 
L 262.895723 241.61606 
L 263.22492 238.152947 
L 263.550201 234.731038 
L 263.87183 231.347556 
L 264.190059 227.999826 
L 264.505135 224.685279 
L 264.817292 221.401431 
L 265.126759 218.145885 
L 265.433756 214.916317 
L 265.738498 211.710472 
L 266.041194 208.526157 
L 266.342046 205.361235 
L 266.641254 202.213618 
L 266.93901 199.08126 
L 267.235507 195.962155 
L 267.530932 192.854331 
L 267.825469 189.755842 
L 268.119302 186.664767 
L 268.41261 183.5792 
L 268.705575 180.497252 
L 268.998375 177.417041 
L 269.291188 174.33669 
L 269.584193 171.254321 
L 269.877569 168.16805 
L 270.171495 165.075987 
L 270.466154 161.976224 
L 270.761727 158.866836 
L 271.0584 155.745875 
L 271.356362 152.611362 
L 271.655803 149.461286 
L 271.956918 146.293596 
L 272.259907 143.106197 
L 272.564974 139.896944 
L 272.872327 136.663633 
L 273.182182 133.404002 
L 273.494761 130.115715 
L 273.810293 126.796362 
L 274.129016 123.443449 
L 274.451174 120.054388 
L 274.777024 116.626494 
L 275.106831 113.156968 
L 275.440873 109.642895 
L 275.77944 106.081226 
L 276.122834 102.468772 
L 276.471373 98.802191 
L 276.825391 95.07797 
L 277.18524 91.292416 
L 277.551289 87.441634 
L 277.923928 83.521516 
L 278.303572 79.527718 
L 278.690658 75.455638 
L 279.085648 71.300395 
L 279.489037 67.056804 
L 279.901348 62.719346 
L 280.323142 58.282139 
L 280.755015 53.738901 
L 281.197605 49.082916 
L 281.651597 44.306989 
L 282.117724 39.403397 
L 282.596776 34.363841 
L 283.089602 29.179384 
L 283.597118 23.840386 
L 284.120315 18.336429 
L 284.660265 12.656232 
L 285.218131 6.78756 
L 285.795178 0.717114 
L 285.958404 -1 
" clip-path="url(#pc0f9db187e)" style="fill: none; stroke: #000000; stroke-width: 1.5; stroke-linecap: square"/>
   </g>
   <g id="line2d_19">
    <path d="M 268.009937 346.6 
L 268.875785 341.808005 
L 269.858155 336.371122 
L 270.812496 331.089366 
L 271.740548 325.953107 
L 272.643925 320.953409 
L 273.524128 316.08197 
L 274.382553 311.331058 
L 275.220502 306.693466 
L 276.039193 302.162459 
L 276.839764 297.731735 
L 277.623283 293.39539 
L 278.39075 289.147878 
L 279.143108 284.983988 
L 279.881244 280.89881 
L 280.605994 276.887712 
L 281.31815 272.946318 
L 282.01846 269.070485 
L 282.707634 265.256288 
L 283.386344 261.499996 
L 284.055233 257.798064 
L 284.71491 254.147112 
L 285.365958 250.543914 
L 286.008936 246.985386 
L 286.644376 243.468572 
L 287.272791 239.990637 
L 287.894674 236.548855 
L 288.510499 233.1406 
L 289.120725 229.763337 
L 289.725793 226.414614 
L 290.326134 223.092055 
L 290.922164 219.793354 
L 291.51429 216.516264 
L 292.102905 213.258598 
L 292.688399 210.018213 
L 293.271148 206.793014 
L 293.851525 203.580942 
L 294.429897 200.379971 
L 295.006624 197.188102 
L 295.582064 194.00336 
L 296.156569 190.823785 
L 296.730493 187.647432 
L 297.304184 184.472363 
L 297.877994 181.296643 
L 298.452271 178.118335 
L 299.027366 174.935496 
L 299.603633 171.746173 
L 300.181428 168.548395 
L 300.76111 165.340173 
L 301.343043 162.119489 
L 301.927598 158.884296 
L 302.515152 155.63251 
L 303.106087 152.362007 
L 303.700797 149.070614 
L 304.299683 145.756103 
L 304.90316 142.416189 
L 305.511652 139.048519 
L 306.125597 135.650667 
L 306.745449 132.220127 
L 307.371676 128.754303 
L 308.004765 125.250502 
L 308.645222 121.705926 
L 309.293572 118.11766 
L 309.950367 114.482662 
L 310.616179 110.797756 
L 311.29161 107.059613 
L 311.977292 103.264741 
L 312.673886 99.409474 
L 313.38209 95.489952 
L 314.102639 91.502104 
L 314.836311 87.441634 
L 315.583926 83.303995 
L 316.346354 79.084372 
L 317.124519 74.777652 
L 317.919403 70.378405 
L 318.73205 65.880846 
L 319.563576 61.278808 
L 320.41517 56.565701 
L 321.288106 51.734477 
L 322.183749 46.777582 
L 323.103565 41.686905 
L 324.049129 36.453725 
L 325.022139 31.068646 
L 326.024427 25.521529 
L 327.057975 19.80141 
L 328.124927 13.896413 
L 329.227612 7.79365 
L 330.368565 1.479105 
L 330.816505 -1 
" clip-path="url(#pc0f9db187e)" style="fill: none; stroke: #000000; stroke-width: 1.5; stroke-linecap: square"/>
   </g>
   <g id="line2d_20">
    <path d="M 285.419301 346.6 
L 285.638251 345.816499 
L 287.094222 340.606379 
L 288.513092 335.529021 
L 289.897095 330.576434 
L 291.248314 325.741165 
L 292.568694 321.016251 
L 293.860057 316.395172 
L 295.12411 311.871818 
L 296.362459 307.440449 
L 297.57661 303.095668 
L 298.767986 298.83239 
L 299.937926 294.645815 
L 301.087699 290.531409 
L 302.218505 286.484878 
L 303.331481 282.502148 
L 304.427708 278.579352 
L 305.508215 274.71281 
L 306.573983 270.899013 
L 307.625947 267.134612 
L 308.665003 263.416403 
L 309.692008 259.741315 
L 310.707787 256.106401 
L 311.713131 252.508827 
L 312.708804 248.94586 
L 313.695543 245.414864 
L 314.674061 241.913285 
L 315.645049 238.438651 
L 316.60918 234.988557 
L 317.567106 231.560664 
L 318.519467 228.152689 
L 319.466885 224.762399 
L 320.409973 221.387607 
L 321.34933 218.026163 
L 322.285548 214.675952 
L 323.219211 211.334885 
L 324.150896 208.000897 
L 325.081175 204.67194 
L 326.010617 201.345978 
L 326.939789 198.020982 
L 327.869257 194.694925 
L 328.799588 191.36578 
L 329.731352 188.031509 
L 330.665121 184.690064 
L 331.601472 181.339378 
L 332.540989 177.977362 
L 333.484264 174.601899 
L 334.431898 171.210837 
L 335.384503 167.801988 
L 336.342703 164.373116 
L 337.307137 160.921936 
L 338.27846 157.446105 
L 339.257344 153.943217 
L 340.244481 150.410795 
L 341.240587 146.846282 
L 342.246398 143.247036 
L 343.262679 139.610323 
L 344.290225 135.9333 
L 345.32986 132.213017 
L 346.382445 128.446396 
L 347.448875 124.630227 
L 348.53009 120.761154 
L 349.627071 116.835661 
L 350.74085 112.850059 
L 351.872509 108.80047 
L 353.023191 104.682813 
L 354.194097 100.492782 
L 355.386499 96.225831 
L 356.601741 91.877148 
L 357.841248 87.441634 
L 359.106532 82.913876 
L 360.399203 78.288118 
L 361.720972 73.558232 
L 363.073667 68.717678 
L 364.459241 63.759472 
L 365.879782 58.676135 
L 367.337531 53.459653 
L 368.834893 48.101416 
L 370.374456 42.592166 
L 371.959008 36.921923 
L 373.591561 31.079915 
L 375.27537 25.054489 
L 377.013963 18.833019 
L 378.811171 12.401797 
L 380.671163 5.745909 
L 382.556311 -1 
" clip-path="url(#pc0f9db187e)" style="fill: none; stroke: #000000; stroke-width: 1.5; stroke-linecap: square"/>
   </g>
   <g id="line2d_21">
    <path d="M 307.140076 346.6 
L 307.934943 344.626025 
L 309.846791 339.878142 
L 311.720387 335.225251 
L 313.557977 330.661778 
L 315.361677 326.182467 
L 317.133486 321.782355 
L 318.875294 317.456748 
L 320.588892 313.201199 
L 322.275978 309.011488 
L 323.938168 304.883603 
L 325.577001 300.813725 
L 327.193942 296.79821 
L 328.790395 292.833578 
L 330.367701 288.916496 
L 331.927146 285.043768 
L 333.469967 281.212326 
L 334.997353 277.419213 
L 336.510453 273.66158 
L 338.010375 269.936672 
L 339.498193 266.241824 
L 340.974949 262.574447 
L 342.441656 258.932025 
L 343.899301 255.312108 
L 345.348849 251.712301 
L 346.791242 248.13026 
L 348.227406 244.563688 
L 349.658252 241.010324 
L 351.084676 237.467941 
L 352.507564 233.93434 
L 353.927794 230.407341 
L 355.346235 226.884782 
L 356.763755 223.364513 
L 358.181217 219.844386 
L 359.599486 216.322256 
L 361.019427 212.795974 
L 362.44191 209.263378 
L 363.867812 205.722292 
L 365.298017 202.170519 
L 366.73342 198.605837 
L 368.17493 195.025989 
L 369.62347 191.428684 
L 371.079981 187.811584 
L 372.545424 184.172301 
L 374.020783 180.508394 
L 375.507067 176.817354 
L 377.005315 173.096605 
L 378.516596 169.34349 
L 380.042013 165.555267 
L 381.582709 161.729101 
L 383.139868 157.86205 
L 384.71472 153.951061 
L 386.308545 149.992955 
L 387.922677 145.984419 
L 389.558509 141.921992 
L 391.2175 137.802054 
L 392.901177 133.620809 
L 394.611145 129.374273 
L 396.349092 125.058254 
L 398.116796 120.668336 
L 399.916133 116.19986 
L 401.749087 111.647899 
L 403.617759 107.00724 
L 405.524374 102.27235 
L 407.471299 97.437355 
L 409.461051 92.496003 
L 411.496312 87.441634 
L 413.579946 82.267136 
L 415.715014 76.964907 
L 417.904795 71.526803 
L 420.152806 65.944089 
L 422.462829 60.207377 
L 424.838931 54.306562 
L 427.285503 48.230744 
L 429.807284 41.968149 
L 432.409408 35.506032 
L 435.09744 28.830572 
L 437.877428 21.926749 
L 440.755956 14.77821 
L 443.740208 7.367115 
L 446.838042 -0.326048 
L 447.109425 -1 
" clip-path="url(#pc0f9db187e)" style="fill: none; stroke: #000000; stroke-width: 1.5; stroke-linecap: square"/>
   </g>
   <g id="line2d_22">
    <path clip-path="url(#pc0f9db187e)" style="fill: none; stroke: #000000; stroke-width: 1.5; stroke-linecap: square"/>
   </g>
   <g id="line2d_23">
    <path d="M 206.105561 346.6 
L 207.370843 346.004761 
L 208.82451 345.355253 
L 210.275991 344.740873 
L 211.725402 344.161327 
L 213.172857 343.616341 
L 214.618471 343.105657 
L 216.062359 342.629032 
L 217.504637 342.186242 
L 218.945418 341.777079 
L 220.384819 341.40135 
L 221.822954 341.058878 
L 223.259938 340.749503 
L 224.695886 340.473081 
L 226.130914 340.229481 
L 227.565137 340.018591 
L 228.998669 339.840311 
L 230.431625 339.694559 
L 231.864122 339.581267 
L 233.296273 339.500381 
L 234.728194 339.451865 
L 236.16 339.435695 
L 237.591806 339.451865 
L 239.023727 339.500381 
L 240.455878 339.581267 
L 241.888375 339.694559 
L 243.321331 339.840311 
L 244.754863 340.018591 
L 246.189086 340.229481 
L 247.624114 340.473081 
L 249.060062 340.749503 
L 250.497046 341.058878 
L 251.935181 341.40135 
L 253.374582 341.777079 
L 254.815363 342.186242 
L 256.257641 342.629032 
L 257.701529 343.105657 
L 259.147143 343.616341 
L 260.594598 344.161327 
L 262.044009 344.740873 
L 263.49549 345.355253 
L 264.949157 346.004761 
L 266.214439 346.6 
" clip-path="url(#pc0f9db187e)" style="fill: none; stroke: #000000; stroke-width: 1.5; stroke-linecap: square"/>
   </g>
   <g id="line2d_24">
    <path d="M 128.015171 346.6 
L 130.209343 344.345629 
L 132.595813 341.944849 
L 134.956658 339.620147 
L 137.292752 337.369279 
L 139.604943 335.190103 
L 141.89405 333.080571 
L 144.160863 331.038731 
L 146.406149 329.062714 
L 148.630649 327.150735 
L 150.835083 325.30109 
L 153.020146 323.512149 
L 155.186514 321.782355 
L 157.334843 320.110219 
L 159.465769 318.494318 
L 161.579913 316.933292 
L 163.677874 315.425842 
L 165.760238 313.970727 
L 167.827575 312.566759 
L 169.88044 311.212805 
L 171.919373 309.907784 
L 173.944902 308.65066 
L 175.957541 307.440449 
L 177.957793 306.276208 
L 179.946148 305.157039 
L 181.923087 304.082087 
L 183.889078 303.050535 
L 185.844582 302.061609 
L 187.790048 301.114568 
L 189.725918 300.208711 
L 191.652624 299.343369 
L 193.570591 298.517911 
L 195.480236 297.731735 
L 197.381969 296.984275 
L 199.276193 296.274992 
L 201.163306 295.603381 
L 203.043697 294.968965 
L 204.917753 294.371295 
L 206.785852 293.809951 
L 208.64837 293.28454 
L 210.505678 292.794695 
L 212.358141 292.340077 
L 214.206122 291.920371 
L 216.049979 291.535288 
L 217.890067 291.184563 
L 219.726738 290.867956 
L 221.560343 290.585251 
L 223.391226 290.336254 
L 225.219735 290.120798 
L 227.04621 289.938734 
L 228.870995 289.789941 
L 230.694427 289.674317 
L 232.516847 289.591784 
L 234.338592 289.542287 
L 236.16 289.525791 
L 237.981408 289.542287 
L 239.803153 289.591784 
L 241.625573 289.674317 
L 243.449005 289.789941 
L 245.27379 289.938734 
L 247.100265 290.120798 
L 248.928774 290.336254 
L 250.759657 290.585251 
L 252.593262 290.867956 
L 254.429933 291.184563 
L 256.270021 291.535288 
L 258.113878 291.920371 
L 259.961859 292.340077 
L 261.814322 292.794695 
L 263.67163 293.28454 
L 265.534148 293.809951 
L 267.402247 294.371295 
L 269.276303 294.968965 
L 271.156694 295.603381 
L 273.043807 296.274992 
L 274.938031 296.984275 
L 276.839764 297.731735 
L 278.749409 298.517911 
L 280.667376 299.343369 
L 282.594082 300.208711 
L 284.529952 301.114568 
L 286.475418 302.061609 
L 288.430922 303.050535 
L 290.396913 304.082087 
L 292.373852 305.157039 
L 294.362207 306.276208 
L 296.362459 307.440449 
L 298.375098 308.65066 
L 300.400627 309.907784 
L 302.43956 311.212805 
L 304.492425 312.566759 
L 306.559762 313.970727 
L 308.642126 315.425842 
L 310.740087 316.933292 
L 312.854231 318.494318 
L 314.985157 320.110219 
L 317.133486 321.782355 
" clip-path="url(#pc0f9db187e)" style="fill: none; stroke: #000000; stroke-width: 1.5; stroke-linecap: square"/>
   </g>
   <g id="line2d_25">
    <path d="M 89.471962 317.912417 
L 92.96626 314.937909 
L 96.394502 312.071461 
L 99.759608 309.30866 
L 103.064343 306.645345 
L 106.311331 304.077594 
L 109.503063 301.601703 
L 112.641905 299.214176 
L 115.730109 296.911709 
L 118.769815 294.691178 
L 121.763066 292.549629 
L 124.711806 290.484265 
L 127.617893 288.492441 
L 130.483099 286.571649 
L 133.309122 284.719514 
L 136.097582 282.933784 
L 138.850033 281.212326 
L 141.567964 279.553114 
L 144.252801 277.95423 
L 146.905916 276.413849 
L 149.528625 274.930245 
L 152.122193 273.501775 
L 154.68784 272.126882 
L 157.226738 270.804087 
L 159.740018 269.531987 
L 162.228772 268.309251 
L 164.694053 267.134612 
L 167.136879 266.006872 
L 169.558235 264.924893 
L 171.959075 263.887595 
L 174.340321 262.893954 
L 176.702871 261.943 
L 179.047593 261.033815 
L 181.375334 260.165529 
L 183.686913 259.33732 
L 185.983131 258.54841 
L 188.264767 257.798064 
L 190.532582 257.085592 
L 192.787316 256.41034 
L 195.029694 255.771696 
L 197.260426 255.169084 
L 199.480205 254.601964 
L 201.689712 254.069832 
L 203.889614 253.572218 
L 206.080566 253.108684 
L 208.263214 252.678826 
L 210.43819 252.28227 
L 212.60612 251.918673 
L 214.76762 251.587721 
L 216.923299 251.289131 
L 219.073759 251.022647 
L 221.219594 250.788043 
L 223.361395 250.585119 
L 225.499747 250.413703 
L 227.63523 250.27365 
L 229.768423 250.164842 
L 231.899901 250.087188 
L 234.030236 250.040621 
L 236.16 250.025103 
L 238.289764 250.040621 
L 240.420099 250.087188 
L 242.551577 250.164842 
L 244.68477 250.27365 
L 246.820253 250.413703 
L 248.958605 250.585119 
L 251.100406 250.788043 
L 253.246241 251.022647 
L 255.396701 251.289131 
L 257.55238 251.587721 
L 259.71388 251.918673 
L 261.88181 252.28227 
L 264.056786 252.678826 
L 266.239434 253.108684 
L 268.430386 253.572218 
L 270.630288 254.069832 
L 272.839795 254.601964 
L 275.059574 255.169084 
L 277.290306 255.771696 
L 279.532684 256.41034 
L 281.787418 257.085592 
L 284.055233 257.798064 
L 286.336869 258.54841 
L 288.633087 259.33732 
L 290.944666 260.165529 
L 293.272407 261.033815 
L 295.617129 261.943 
L 297.979679 262.893954 
L 300.360925 263.887595 
L 302.761765 264.924893 
L 305.183121 266.006872 
L 307.625947 267.134612 
L 310.091228 268.309251 
L 312.579982 269.531987 
L 315.093262 270.804087 
L 317.63216 272.126882 
L 320.197807 273.501775 
L 322.791375 274.930245 
L 325.414084 276.413849 
L 328.067199 277.95423 
L 330.752036 279.553114 
L 333.469967 281.212326 
" clip-path="url(#pc0f9db187e)" style="fill: none; stroke: #000000; stroke-width: 1.5; stroke-linecap: square"/>
   </g>
   <g id="line2d_26">
    <path d="M 62.230328 279.849099 
L 66.779533 276.911717 
L 71.214792 274.094306 
L 75.542043 271.391002 
L 79.766847 268.796333 
L 83.894412 266.305193 
L 87.929628 263.912809 
L 91.877086 261.614714 
L 95.741105 259.406729 
L 99.525753 257.284937 
L 103.234862 255.245662 
L 106.872051 253.285458 
L 110.440737 251.401086 
L 113.944152 249.589502 
L 117.385358 247.847844 
L 120.767255 246.173418 
L 124.092594 244.563688 
L 127.363989 243.016264 
L 130.583925 241.528896 
L 133.754767 240.099459 
L 136.878767 238.72595 
L 139.958073 237.406481 
L 142.994736 236.139268 
L 145.990714 234.922626 
L 148.947883 233.754965 
L 151.868037 232.634784 
L 154.752894 231.560664 
L 157.604105 230.531266 
L 160.423254 229.545325 
L 163.211865 228.601645 
L 165.971404 227.699099 
L 168.703283 226.836622 
L 171.408863 226.01321 
L 174.089461 225.227914 
L 176.746348 224.479842 
L 179.380752 223.768153 
L 181.993866 223.092055 
L 184.586844 222.450803 
L 187.16081 221.843699 
L 189.716852 221.270087 
L 192.256032 220.729353 
L 194.779383 220.220923 
L 197.287916 219.744262 
L 199.782614 219.298873 
L 202.264442 218.884293 
L 204.734343 218.500094 
L 207.193241 218.145885 
L 209.642047 217.821303 
L 212.081652 217.526022 
L 214.512936 217.259742 
L 216.936766 217.022197 
L 219.353998 216.813149 
L 221.765477 216.632391 
L 224.17204 216.479743 
L 226.574519 216.355054 
L 228.973736 216.258201 
L 231.370512 216.189088 
L 233.765662 216.147648 
L 236.16 216.133839 
L 238.554338 216.147648 
L 240.949488 216.189088 
L 243.346264 216.258201 
L 245.745481 216.355054 
L 248.14796 216.479743 
L 250.554523 216.632391 
L 252.966002 216.813149 
L 255.383234 217.022197 
L 257.807064 217.259742 
L 260.238348 217.526022 
L 262.677953 217.821303 
L 265.126759 218.145885 
L 267.585657 218.500094 
L 270.055558 218.884293 
L 272.537386 219.298873 
L 275.032084 219.744262 
L 277.540617 220.220923 
L 280.063968 220.729353 
L 282.603148 221.270087 
L 285.15919 221.843699 
L 287.733156 222.450803 
L 290.326134 223.092055 
L 292.939248 223.768153 
L 295.573652 224.479842 
L 298.230539 225.227914 
L 300.911137 226.01321 
L 303.616717 226.836622 
L 306.348596 227.699099 
L 309.108135 228.601645 
L 311.896746 229.545325 
L 314.715895 230.531266 
L 317.567106 231.560664 
L 320.451963 232.634784 
L 323.372117 233.754965 
L 326.329286 234.922626 
L 329.325264 236.139268 
L 332.361927 237.406481 
L 335.441233 238.72595 
L 338.565233 240.099459 
L 341.736075 241.528896 
L 344.956011 243.016264 
L 348.227406 244.563688 
" clip-path="url(#pc0f9db187e)" style="fill: none; stroke: #000000; stroke-width: 1.5; stroke-linecap: square"/>
   </g>
   <g id="line2d_27">
    <path d="M 34.422879 240.995198 
L 40.177747 238.282809 
L 45.754248 235.693584 
L 51.163017 233.220541 
L 56.413899 230.857235 
L 61.516019 228.597708 
L 66.477847 226.436445 
L 71.30726 224.368333 
L 76.011594 222.388629 
L 80.597688 220.492924 
L 85.07193 218.677119 
L 89.440294 216.937394 
L 93.708374 215.270191 
L 97.881414 213.672189 
L 101.96434 212.140287 
L 105.961779 210.671587 
L 109.87809 209.263378 
L 113.717378 207.91312 
L 117.483517 206.618438 
L 121.180168 205.377101 
L 124.81079 204.18702 
L 128.378662 203.046232 
L 131.886891 201.952896 
L 135.338426 200.905281 
L 138.736068 199.90176 
L 142.082483 198.940806 
L 145.380211 198.020982 
L 148.631672 197.140935 
L 151.839177 196.299394 
L 155.004935 195.495165 
L 158.13106 194.727121 
L 161.219577 193.994207 
L 164.272427 193.295427 
L 167.291477 192.629846 
L 170.27852 191.996587 
L 173.235283 191.394824 
L 176.163431 190.823785 
L 179.06457 190.282744 
L 181.940253 189.77102 
L 184.791983 189.287979 
L 187.621216 188.833027 
L 190.429366 188.40561 
L 193.217806 188.005212 
L 195.987873 187.631355 
L 198.740867 187.283595 
L 201.478062 186.961525 
L 204.200698 186.664767 
L 206.909993 186.392977 
L 209.607138 186.145843 
L 212.293304 185.92308 
L 214.969643 185.724436 
L 217.637289 185.549683 
L 220.297361 185.398626 
L 222.950965 185.271094 
L 225.599195 185.166943 
L 228.243139 185.086057 
L 230.883872 185.028346 
L 233.52247 184.993744 
L 236.16 184.982215 
L 238.79753 184.993744 
L 241.436128 185.028346 
L 244.076861 185.086057 
L 246.720805 185.166943 
L 249.369035 185.271094 
L 252.022639 185.398626 
L 254.682711 185.549683 
L 257.350357 185.724436 
L 260.026696 185.92308 
L 262.712862 186.145843 
L 265.410007 186.392977 
L 268.119302 186.664767 
L 270.841938 186.961525 
L 273.579133 187.283595 
L 276.332127 187.631355 
L 279.102194 188.005212 
L 281.890634 188.40561 
L 284.698784 188.833027 
L 287.528017 189.287979 
L 290.379747 189.77102 
L 293.25543 190.282744 
L 296.156569 190.823785 
L 299.084717 191.394824 
L 302.04148 191.996587 
L 305.028523 192.629846 
L 308.047573 193.295427 
L 311.100423 193.994207 
L 314.18894 194.727121 
L 317.315065 195.495165 
L 320.480823 196.299394 
L 323.688328 197.140935 
L 326.939789 198.020982 
L 330.237517 198.940806 
L 333.583932 199.90176 
L 336.981574 200.905281 
L 340.433109 201.952896 
L 343.941338 203.046232 
L 347.50921 204.18702 
L 351.139832 205.377101 
L 354.836483 206.618438 
L 358.602622 207.91312 
L 362.44191 209.263378 
" clip-path="url(#pc0f9db187e)" style="fill: none; stroke: #000000; stroke-width: 1.5; stroke-linecap: square"/>
   </g>
   <g id="line2d_28">
    <path d="M 4.189365 198.751482 
L 11.401683 196.496596 
L 18.345953 194.355179 
L 25.040244 192.31988 
L 31.501086 190.383985 
L 37.743632 188.541351 
L 43.781804 186.786348 
L 49.62841 185.113809 
L 55.295263 183.518979 
L 60.793273 181.997482 
L 66.132536 180.545278 
L 71.322408 179.158638 
L 76.371575 177.834111 
L 81.288113 176.568503 
L 86.079545 175.35885 
L 90.752884 174.202402 
L 95.314685 173.096605 
L 99.771075 172.039079 
L 104.127797 171.027613 
L 108.390235 170.060143 
L 112.56345 169.134744 
L 116.652198 168.249622 
L 120.660962 167.403099 
L 124.59397 166.593606 
L 128.455211 165.819678 
L 132.248462 165.079943 
L 135.977297 164.373116 
L 139.645103 163.697995 
L 143.255098 163.053453 
L 146.810339 162.438435 
L 150.313737 161.851953 
L 153.768066 161.293079 
L 157.175973 160.760944 
L 160.539989 160.254737 
L 163.862534 159.773694 
L 167.14593 159.317103 
L 170.392402 158.884296 
L 173.60409 158.474649 
L 176.783053 158.087579 
L 179.931276 157.722543 
L 183.050676 157.379032 
L 186.143102 157.056577 
L 189.21035 156.754737 
L 192.254157 156.473108 
L 195.276213 156.211314 
L 198.27816 155.969009 
L 201.2616 155.745875 
L 204.228095 155.541623 
L 207.179175 155.355989 
L 210.116335 155.188734 
L 213.041047 155.039646 
L 215.954752 154.908535 
L 218.858875 154.795236 
L 221.754819 154.699606 
L 224.643971 154.621526 
L 227.527705 154.560897 
L 230.407385 154.517645 
L 233.284366 154.491715 
L 236.16 154.483075 
L 239.035634 154.491715 
L 241.912615 154.517645 
L 244.792295 154.560897 
L 247.676029 154.621526 
L 250.565181 154.699606 
L 253.461125 154.795236 
L 256.365248 154.908535 
L 259.278953 155.039646 
L 262.203665 155.188734 
L 265.140825 155.355989 
L 268.091905 155.541623 
L 271.0584 155.745875 
L 274.04184 155.969009 
L 277.043787 156.211314 
L 280.065843 156.473108 
L 283.10965 156.754737 
L 286.176898 157.056577 
L 289.269324 157.379032 
L 292.388724 157.722543 
L 295.536947 158.087579 
L 298.71591 158.474649 
L 301.927598 158.884296 
L 305.17407 159.317103 
L 308.457466 159.773694 
L 311.780011 160.254737 
L 315.144027 160.760944 
L 318.551934 161.293079 
L 322.006263 161.851953 
L 325.509661 162.438435 
L 329.064902 163.053453 
L 332.674897 163.697995 
L 336.342703 164.373116 
L 340.071538 165.079943 
L 343.864789 165.819678 
L 347.72603 166.593606 
L 351.659038 167.403099 
L 355.667802 168.249622 
L 359.75655 169.134744 
L 363.929765 170.060143 
L 368.192203 171.027613 
L 372.548925 172.039079 
L 377.005315 173.096605 
" clip-path="url(#pc0f9db187e)" style="fill: none; stroke: #000000; stroke-width: 1.5; stroke-linecap: square"/>
   </g>
   <g id="line2d_29">
    <path d="M -1 144.85974 
L 3.094393 144.234594 
L 10.763399 143.079787 
L 18.137261 141.98521 
L 25.236601 140.946851 
L 32.080228 139.961058 
L 38.685339 139.024501 
L 45.067691 138.134134 
L 51.241745 137.287172 
L 57.220808 136.481056 
L 63.017142 135.713439 
L 68.642069 134.982161 
L 74.106061 134.28523 
L 79.418823 133.620809 
L 84.589364 132.987202 
L 89.626059 132.382837 
L 94.536706 131.806263 
L 99.32858 131.25613 
L 104.008478 130.731187 
L 108.582759 130.230274 
L 113.05738 129.752309 
L 117.437935 129.296288 
L 121.729677 128.861274 
L 125.937555 128.446396 
L 130.066231 128.05084 
L 134.120108 127.67385 
L 138.103345 127.314716 
L 142.019885 126.972779 
L 145.873461 126.647424 
L 149.667621 126.338073 
L 153.405739 126.04419 
L 157.091027 125.765275 
L 160.72655 125.500857 
L 164.315235 125.250502 
L 167.859882 125.013802 
L 171.363177 124.790377 
L 174.827695 124.579875 
L 178.255913 124.381968 
L 181.650217 124.19635 
L 185.012908 124.02274 
L 188.34621 123.860876 
L 191.652274 123.710518 
L 194.93319 123.571443 
L 198.190984 123.443449 
L 201.427632 123.32635 
L 204.645059 123.219978 
L 207.845146 123.124182 
L 211.029735 123.038825 
L 214.200634 122.963788 
L 217.359619 122.898965 
L 220.508441 122.844266 
L 223.648827 122.799615 
L 226.782487 122.764951 
L 229.911115 122.740224 
L 233.036394 122.725402 
L 236.16 122.720464 
L 239.283606 122.725402 
L 242.408885 122.740224 
L 245.537513 122.764951 
L 248.671173 122.799615 
L 251.811559 122.844266 
L 254.960381 122.898965 
L 258.119366 122.963788 
L 261.290265 123.038825 
L 264.474854 123.124182 
L 267.674941 123.219978 
L 270.892368 123.32635 
L 274.129016 123.443449 
L 277.38681 123.571443 
L 280.667726 123.710518 
L 283.97379 123.860876 
L 287.307092 124.02274 
L 290.669783 124.19635 
L 294.064087 124.381968 
L 297.492305 124.579875 
L 300.956823 124.790377 
L 304.460118 125.013802 
L 308.004765 125.250502 
L 311.59345 125.500857 
L 315.228973 125.765275 
L 318.914261 126.04419 
L 322.652379 126.338073 
L 326.446539 126.647424 
L 330.300115 126.972779 
L 334.216655 127.314716 
L 338.199892 127.67385 
L 342.253769 128.05084 
L 346.382445 128.446396 
L 350.590323 128.861274 
L 354.882065 129.296288 
L 359.26262 129.752309 
L 363.737241 130.230274 
L 368.311522 130.731187 
L 372.99142 131.25613 
L 377.783294 131.806263 
L 382.693941 132.382837 
L 387.730636 132.987202 
L 392.901177 133.620809 
" clip-path="url(#pc0f9db187e)" style="fill: none; stroke: #000000; stroke-width: 1.5; stroke-linecap: square"/>
   </g>
   <g id="line2d_30">
    <path d="M -1 87.441634 
L 4.088986 87.441634 
L 12.147952 87.441634 
L 19.889645 87.441634 
L 27.336888 87.441634 
L 34.510455 87.441634 
L 41.429298 87.441634 
L 48.110747 87.441634 
L 54.570682 87.441634 
L 60.823688 87.441634 
L 66.883183 87.441634 
L 72.76154 87.441634 
L 78.470186 87.441634 
L 84.019701 87.441634 
L 89.419891 87.441634 
L 94.679863 87.441634 
L 99.808094 87.441634 
L 104.812483 87.441634 
L 109.700403 87.441634 
L 114.478752 87.441634 
L 119.15399 87.441634 
L 123.732177 87.441634 
L 128.219009 87.441634 
L 132.619849 87.441634 
L 136.939751 87.441634 
L 141.18349 87.441634 
L 145.355582 87.441634 
L 149.460305 87.441634 
L 153.501721 87.441634 
L 157.483689 87.441634 
L 161.409887 87.441634 
L 165.283821 87.441634 
L 169.108842 87.441634 
L 172.888159 87.441634 
L 176.62485 87.441634 
L 180.32187 87.441634 
L 183.982066 87.441634 
L 187.608183 87.441634 
L 191.202875 87.441634 
L 194.768711 87.441634 
L 198.308186 87.441634 
L 201.823723 87.441634 
L 205.317687 87.441634 
L 208.792385 87.441634 
L 212.250076 87.441634 
L 215.692978 87.441634 
L 219.123271 87.441634 
L 222.543103 87.441634 
L 225.954596 87.441634 
L 229.359854 87.441634 
L 232.760963 87.441634 
L 236.16 87.441634 
L 239.559037 87.441634 
L 242.960146 87.441634 
L 246.365404 87.441634 
L 249.776897 87.441634 
L 253.196729 87.441634 
L 256.627022 87.441634 
L 260.069924 87.441634 
L 263.527615 87.441634 
L 267.002313 87.441634 
L 270.496277 87.441634 
L 274.011814 87.441634 
L 277.551289 87.441634 
L 281.117125 87.441634 
L 284.711817 87.441634 
L 288.337934 87.441634 
L 291.99813 87.441634 
L 295.69515 87.441634 
L 299.431841 87.441634 
L 303.211158 87.441634 
L 307.036179 87.441634 
L 310.910113 87.441634 
L 314.836311 87.441634 
L 318.818279 87.441634 
L 322.859695 87.441634 
L 326.964418 87.441634 
L 331.13651 87.441634 
L 335.380249 87.441634 
L 339.700151 87.441634 
L 344.100991 87.441634 
L 348.587823 87.441634 
L 353.16601 87.441634 
L 357.841248 87.441634 
L 362.619597 87.441634 
L 367.507517 87.441634 
L 372.511906 87.441634 
L 377.640137 87.441634 
L 382.900109 87.441634 
L 388.300299 87.441634 
L 393.849814 87.441634 
L 399.55846 87.441634 
L 405.436817 87.441634 
L 411.496312 87.441634 
" clip-path="url(#pc0f9db187e)" style="fill: none; stroke: #000000; stroke-width: 1.5; stroke-linecap: square"/>
   </g>
   <g id="line2d_31">
    <path d="M -1 23.201351 
L 5.197477 24.144887 
L 13.691409 25.417935 
L 21.84373 26.620035 
L 29.679777 27.756099 
L 37.22256 28.830572 
L 44.493027 29.84749 
L 51.510296 30.810523 
L 58.291853 31.723016 
L 64.853731 32.588021 
L 71.210657 33.40833 
L 77.376191 34.186499 
L 83.362846 34.924874 
L 89.182184 35.625608 
L 94.844919 36.290683 
L 100.360992 36.921923 
L 105.739644 37.52101 
L 110.989487 38.089494 
L 116.118555 38.628809 
L 121.134362 39.140278 
L 126.043943 39.625127 
L 130.853902 40.084488 
L 135.570446 40.51941 
L 140.199423 40.930866 
L 144.746347 41.319753 
L 149.216435 41.686905 
L 153.614625 42.033093 
L 157.945603 42.359032 
L 162.213825 42.66538 
L 166.423535 42.952748 
L 170.578784 43.2217 
L 174.683448 43.472755 
L 178.74124 43.706391 
L 182.755727 43.923046 
L 186.730344 44.123123 
L 190.668403 44.306989 
L 194.573109 44.474976 
L 198.447565 44.627387 
L 202.294788 44.764493 
L 206.117717 44.886536 
L 209.919219 44.99373 
L 213.702101 45.086261 
L 217.46912 45.164289 
L 221.222985 45.227949 
L 224.96637 45.27735 
L 228.701922 45.312577 
L 232.432262 45.333689 
L 236.16 45.340722 
L 239.887738 45.333689 
L 243.618078 45.312577 
L 247.35363 45.27735 
L 251.097015 45.227949 
L 254.85088 45.164289 
L 258.617899 45.086261 
L 262.400781 44.99373 
L 266.202283 44.886536 
L 270.025212 44.764493 
L 273.872435 44.627387 
L 277.746891 44.474976 
L 281.651597 44.306989 
L 285.589656 44.123123 
L 289.564273 43.923046 
L 293.57876 43.706391 
L 297.636552 43.472755 
L 301.741216 43.2217 
L 305.896465 42.952748 
L 310.106175 42.66538 
L 314.374397 42.359032 
L 318.705375 42.033093 
L 323.103565 41.686905 
L 327.573653 41.319753 
L 332.120577 40.930866 
L 336.749554 40.51941 
L 341.466098 40.084488 
L 346.276057 39.625127 
L 351.185638 39.140278 
L 356.201445 38.628809 
L 361.330513 38.089494 
L 366.580356 37.52101 
L 371.959008 36.921923 
L 377.475081 36.290683 
L 383.137816 35.625608 
L 388.957154 34.924874 
L 394.943809 34.186499 
L 401.109343 33.40833 
L 407.466269 32.588021 
L 414.028147 31.723016 
L 420.809704 30.810523 
L 427.826973 29.84749 
L 435.09744 28.830572 
" clip-path="url(#pc0f9db187e)" style="fill: none; stroke: #000000; stroke-width: 1.5; stroke-linecap: square"/>
   </g>
   <g id="line2d_32">
    <path clip-path="url(#pc0f9db187e)" style="fill: none; stroke: #000000; stroke-width: 1.5; stroke-linecap: square"/>
   </g>
   <g id="line2d_33">
    <path d="M 356.113944 132.840297 
L 354.233331 133.778496 
L 351.703525 137.012938 
L 345.769064 151.543985 
L 342.310528 155.770792 
L 341.060793 156.374423 
L 339.055334 156.54918 
L 336.192435 154.747483 
L 335.654643 153.063634 
L 332.472278 151.637033 
L 326.802894 147.093629 
L 325.369934 145.355485 
L 324.516878 143.434598 
L 326.641823 141.147694 
L 326.808057 139.467837 
L 328.977276 138.560986 
L 330.944725 136.47156 
L 329.755043 135.225006 
L 324.90368 134.823461 
L 323.584182 133.729016 
L 318.081229 131.806505 
L 316.210703 132.349602 
L 315.315499 133.48623 
L 309.956568 133.734809 
L 308.398242 134.354844 
L 305.501566 137.352283 
L 303.352166 140.569188 
L 301.294191 141.522771 
L 299.606915 141.58337 
L 297.088073 138.594468 
L 295.726602 137.679466 
L 290.374164 139.628183 
L 288.786096 141.480912 
L 287.137055 141.983938 
L 286.326666 143.875397 
L 283.537196 146.431728 
L 281.865661 146.832706 
L 279.787629 146.39162 
L 278.418451 147.896748 
L 278.434575 149.602424 
L 275.802131 153.32579 
L 274.41383 154.598433 
L 272.790159 155.216432 
L 267.912398 155.896602 
L 264.054971 157.402627 
L 260.501837 157.606087 
L 254.968337 160.793162 
L 252.476598 163.734518 
L 251.129364 167.717071 
L 253.130567 173.307775 
L 252.436717 174.182299 
L 251.909655 176.113033 
L 252.634362 177.79214 
L 252.821132 179.77452 
L 254.602111 183.503996 
L 254.746908 187.021348 
L 256.245644 190.943682 
L 255.849383 195.857453 
L 253.920384 197.449694 
L 254.139781 198.891477 
L 255.208323 199.155233 
L 257.907117 201.407889 
L 261.068216 201.693624 
L 265.455581 199.957895 
L 266.456876 198.95556 
L 269.739441 198.972279 
L 276.119322 200.026945 
L 277.2758 199.265129 
L 278.665985 197.458823 
L 284.029996 195.976818 
L 287.357848 196.597564 
L 292.193636 195.656593 
L 299.207109 196.545127 
L 303.546774 199.345645 
L 305.767053 200.280586 
L 307.013179 203.833418 
L 308.053016 204.744925 
L 308.914955 208.928909 
L 310.217053 209.784305 
L 312.277582 208.263306 
L 315.036739 207.63644 
L 316.294019 211.123379 
L 317.786438 212.777125 
L 317.440493 213.923523 
L 318.438691 215.469729 
L 319.626389 216.341359 
L 320.298574 219.712097 
L 319.601967 221.167953 
L 319.626169 222.343714 
L 321.681481 225.817649 
L 323.967547 227.751757 
L 326.629091 228.918873 
L 328.979234 231.294085 
L 330.561112 231.328333 
L 333.098372 230.224684 
L 334.963025 230.742348 
L 336.433928 234.056182 
L 337.352232 234.977669 
L 340.341978 235.071572 
L 344.383892 234.104483 
L 350.398315 235.893691 
L 351.667386 235.735104 
L 352.08608 234.036038 
L 355.279807 229.892812 
L 364.349457 222.595311 
L 368.978337 221.088411 
L 372.324292 218.112987 
L 373.296579 216.281951 
L 379.259279 209.789818 
L 379.860282 203.307346 
L 381.101792 199.908161 
L 381.287078 196.187822 
L 380.578711 194.114172 
L 376.186966 187.715378 
L 375.633191 185.559762 
L 376.518177 184.171724 
L 371.823342 180.24579 
L 372.128968 178.516558 
L 370.053258 171.96036 
L 367.437955 170.074281 
L 366.55007 168.323194 
L 363.214411 166.540664 
L 362.526309 164.842016 
L 362.050315 162.871998 
L 363.234746 160.296677 
L 362.114638 155.113777 
L 362.397637 149.309893 
L 358.945336 147.100717 
L 357.122283 145.089056 
L 357.735968 139.795342 
L 356.113944 132.840297 
M 294.758234 346.6 
L 292.542825 343.970941 
L 291.84941 344.06987 
L 290.449019 341.584029 
L 282.342974 333.649066 
L 280.259435 330.832161 
L 280.188363 329.747563 
L 280.955315 328.548874 
L 281.161053 327.528405 
L 280.308772 324.368994 
L 279.856572 324.594974 
L 279.192275 326.321034 
L 279.153301 329.444184 
L 278.215233 330.176677 
L 277.538343 329.17254 
L 271.943639 327.415371 
L 270.375414 328.627866 
L 269.466849 330.779474 
L 267.680332 329.864134 
L 266.028406 328.02061 
L 266.23034 326.701706 
L 265.836447 325.463408 
L 264.943863 324.915455 
L 263.781041 325.959538 
L 258.157588 324.020364 
L 256.313158 324.835663 
L 251.828911 324.39715 
L 250.684227 323.8431 
L 249.966161 321.927917 
L 248.547124 320.599325 
L 247.34614 321.048733 
L 246.530491 320.452409 
L 246.428994 319.380351 
L 245.171134 317.32414 
L 241.101145 318.02602 
L 240.529542 318.729026 
L 240.53429 319.642816 
L 240.170865 320.536601 
L 237.784264 321.80366 
L 235.64371 319.969297 
L 227.722679 317.745938 
L 225.38338 318.80367 
L 222.799346 322.829795 
L 220.605793 322.073787 
L 216.660784 323.814741 
L 209.511525 325.299928 
L 206.383276 327.578872 
L 205.597496 326.451982 
L 204.485256 326.360284 
L 203.838998 329.444901 
L 201.195696 332.250365 
L 197.511564 333.993852 
L 195.271451 336.380758 
L 195.003318 338.853015 
L 194.534089 339.769476 
L 191.390556 344.041593 
L 190.768638 346.6 
M 76.622113 -1 
L 83.826036 9.197008 
L 89.789077 20.350549 
L 96.543504 28.694944 
L 103.111781 38.98634 
L 104.844653 43.070505 
L 108.758856 47.012799 
L 111.8185 48.017715 
L 113.662959 45.755622 
L 113.6407 43.935997 
L 115.536599 42.975828 
L 119.340904 34.777049 
L 117.696683 29.230728 
L 118.464371 21.13691 
L 114.118389 7.600123 
L 115.003352 4.771493 
L 118.682223 3.65098 
L 119.998876 2.044865 
L 122.298902 2.227565 
L 123.959816 0.484643 
L 123.942126 -1 
M 179.403255 -1 
L 180.115933 1.130633 
L 180.685505 5.183491 
L 179.959593 9.978781 
L 180.994038 11.727845 
L 184.504738 13.411814 
L 190.196557 9.339476 
L 193.063213 10.030187 
L 194.517541 13.455807 
L 197.303908 24.860714 
L 200.08888 31.358986 
L 200.659854 38.02067 
L 200.205679 42.584045 
L 200.69418 45.145243 
L 199.747894 51.584149 
L 203.125576 54.569797 
L 208.56944 63.216888 
L 208.964374 66.83019 
L 210.233097 70.888056 
L 212.731154 75.828776 
L 217.729538 80.154569 
L 220.190827 81.514622 
L 222.271897 81.967646 
L 222.707093 79.819449 
L 220.648498 76.716364 
L 220.211023 75.175742 
L 219.623763 67.667532 
L 218.397799 65.428582 
L 215.823124 62.511736 
L 214.560378 61.918267 
L 212.019452 59.302443 
L 210.38636 59.098854 
L 208.377466 57.769069 
L 206.115543 49.714078 
L 202.992564 45.505752 
L 203.045205 42.279108 
L 204.982428 35.157341 
L 205.421008 29.227129 
L 206.86734 27.498224 
L 210.12091 31.921863 
L 212.344628 31.875983 
L 216.772317 36.724715 
L 219.920166 41.673636 
L 224.402085 44.63257 
L 224.365238 49.868656 
L 226.227655 50.978409 
L 233.210644 43.262725 
L 239.579173 39.011321 
L 240.748886 35.154241 
L 241.167302 29.89431 
L 240.849151 24.155179 
L 239.048715 17.826821 
L 236.039364 12.682791 
L 231.416228 7.167251 
L 229.12187 1.73464 
L 227.622829 0.05872 
L 227.215716 -1 
L 227.215716 -1 
" clip-path="url(#pc0f9db187e)" style="fill: none; stroke: #0000ff; stroke-width: 1.5; stroke-linecap: square"/>
   </g>
   <g id="line2d_34">
    <path d="M 362.703674 133.41126 
L 314.368262 282.17211 
L 157.951738 282.17211 
L 109.616326 133.41126 
L 236.16 41.472003 
L 362.703674 133.41126 
" clip-path="url(#pc0f9db187e)" style="fill: none; stroke: #008000; stroke-width: 1.5; stroke-linecap: square"/>
   </g>
   <g id="patch_3">
    <path d="M 103.104 307.584 
L 103.104 41.472 
" style="fill: none; stroke: #000000; stroke-width: 0.8; stroke-linejoin: miter; stroke-linecap: square"/>
   </g>
   <g id="patch_4">
    <path d="M 369.216 307.584 
L 369.216 41.472 
" style="fill: none; stroke: #000000; stroke-width: 0.8; stroke-linejoin: miter; stroke-linecap: square"/>
   </g>
   <g id="patch_5">
    <path d="M 103.104 307.584 
L 369.216 307.584 
" style="fill: none; stroke: #000000; stroke-width: 0.8; stroke-linejoin: miter; stroke-linecap: square"/>
   </g>
   <g id="patch_6">
    <path d="M 103.104 41.472 
L 369.216 41.472 
" style="fill: none; stroke: #000000; stroke-width: 0.8; stroke-linejoin: miter; stroke-linecap: square"/>
   </g>
  </g>
 </g>
 <defs>
  <clipPath id="pc0f9db187e">
   <rect x="103.104" y="41.472" width="266.112" height="266.112"/>
  </clipPath>
 </defs>
</svg>
