<?xml version="1.0" encoding="utf-8" standalone="no"?>
<!DOCTYPE svg PUBLIC "-//W3C//DTD SVG 1.1//EN"
  "http://www.w3.org/Graphics/SVG/1.1/DTD/svg11.dtd">
<svg xmlns:xlink="http://www.w3.org/1999/xlink" width="460.8pt" height="345.6pt" viewBox="0 0 460.8 345.6" xmlns="http://www.w3.org/2000/svg" version="1.1">
 <metadata>
  <rdf:RDF xmlns:dc="http://purl.org/dc/elements/1.1/" xmlns:cc="http://creativecommons.org/ns#" xmlns:rdf="http://www.w3.org/1999/02/22-rdf-syntax-ns#">
   <cc:Work>
    <dc:type rdf:resource="http://purl.org/dc/dcmitype/StillImage"/>
    <dc:date>2025-06-01T22:06:14.994132</dc:date>
    <dc:format>image/svg+xml</dc:format>
    <dc:creator>
     <cc:Agent>
      <dc:title>Matplotlib v3.6.3, https://matplotlib.org/</dc:title>
     </cc:Agent>
    </dc:creator>
   </cc:Work>
  </rdf:RDF>
 </metadata>
 <defs>
  <style type="text/css">*{stroke-linejoin: round; stroke-linecap: butt}</style>
 </defs>
 <g id="figure_1">
  <g id="patch_1">
   <path d="M 0 345.6 
L 460.8 345.6 
L 460.8 0 
L 0 0 
z
" style="fill: #ffffff"/>
  </g>
  <g id="axes_1">
   <g id="patch_2">
    <path d="M 103.104 307.584 
L 369.216 307.584 
L 369.216 41.472 
L 103.104 41.472 
z
" style="fill: #ffffff"/>
   </g>
   <g id="matplotlib.axis_1">
    <g id="xtick_1">
     <g id="line2d_1">
      <defs>
       <path id="mc0c31a96d3" d="M 0 0 
L 0 3.5 
" style="stroke: #000000; stroke-width: 0.8"/>
      </defs>
      <g>
       <use xlink:href="#mc0c31a96d3" x="126.929132" y="307.584" style="stroke: #000000; stroke-width: 0.8"/>
      </g>
     </g>
     <g id="text_1">
      <!-- −4 -->
      <g transform="translate(119.558038 322.182437) scale(0.1 -0.1)">
       <defs>
        <path id="DejaVuSans-2212" d="M 678 2272 
L 4684 2272 
L 4684 1741 
L 678 1741 
L 678 2272 
z
" transform="scale(0.015625)"/>
        <path id="DejaVuSans-34" d="M 2419 4116 
L 825 1625 
L 2419 1625 
L 2419 4116 
z
M 2253 4666 
L 3047 4666 
L 3047 1625 
L 3713 1625 
L 3713 1100 
L 3047 1100 
L 3047 0 
L 2419 0 
L 2419 1100 
L 313 1100 
L 313 1709 
L 2253 4666 
z
" transform="scale(0.015625)"/>
       </defs>
       <use xlink:href="#DejaVuSans-2212"/>
       <use xlink:href="#DejaVuSans-34" x="83.789062"/>
      </g>
     </g>
    </g>
    <g id="xtick_2">
     <g id="line2d_2">
      <g>
       <use xlink:href="#mc0c31a96d3" x="181.544566" y="307.584" style="stroke: #000000; stroke-width: 0.8"/>
      </g>
     </g>
     <g id="text_2">
      <!-- −2 -->
      <g transform="translate(174.173472 322.182437) scale(0.1 -0.1)">
       <defs>
        <path id="DejaVuSans-32" d="M 1228 531 
L 3431 531 
L 3431 0 
L 469 0 
L 469 531 
Q 828 903 1448 1529 
Q 2069 2156 2228 2338 
Q 2531 2678 2651 2914 
Q 2772 3150 2772 3378 
Q 2772 3750 2511 3984 
Q 2250 4219 1831 4219 
Q 1534 4219 1204 4116 
Q 875 4013 500 3803 
L 500 4441 
Q 881 4594 1212 4672 
Q 1544 4750 1819 4750 
Q 2544 4750 2975 4387 
Q 3406 4025 3406 3419 
Q 3406 3131 3298 2873 
Q 3191 2616 2906 2266 
Q 2828 2175 2409 1742 
Q 1991 1309 1228 531 
z
" transform="scale(0.015625)"/>
       </defs>
       <use xlink:href="#DejaVuSans-2212"/>
       <use xlink:href="#DejaVuSans-32" x="83.789062"/>
      </g>
     </g>
    </g>
    <g id="xtick_3">
     <g id="line2d_3">
      <g>
       <use xlink:href="#mc0c31a96d3" x="236.16" y="307.584" style="stroke: #000000; stroke-width: 0.8"/>
      </g>
     </g>
     <g id="text_3">
      <!-- 0 -->
      <g transform="translate(232.97875 322.182437) scale(0.1 -0.1)">
       <defs>
        <path id="DejaVuSans-30" d="M 2034 4250 
Q 1547 4250 1301 3770 
Q 1056 3291 1056 2328 
Q 1056 1369 1301 889 
Q 1547 409 2034 409 
Q 2525 409 2770 889 
Q 3016 1369 3016 2328 
Q 3016 3291 2770 3770 
Q 2525 4250 2034 4250 
z
M 2034 4750 
Q 2819 4750 3233 4129 
Q 3647 3509 3647 2328 
Q 3647 1150 3233 529 
Q 2819 -91 2034 -91 
Q 1250 -91 836 529 
Q 422 1150 422 2328 
Q 422 3509 836 4129 
Q 1250 4750 2034 4750 
z
" transform="scale(0.015625)"/>
       </defs>
       <use xlink:href="#DejaVuSans-30"/>
      </g>
     </g>
    </g>
    <g id="xtick_4">
     <g id="line2d_4">
      <g>
       <use xlink:href="#mc0c31a96d3" x="290.775434" y="307.584" style="stroke: #000000; stroke-width: 0.8"/>
      </g>
     </g>
     <g id="text_4">
      <!-- 2 -->
      <g transform="translate(287.594184 322.182437) scale(0.1 -0.1)">
       <use xlink:href="#DejaVuSans-32"/>
      </g>
     </g>
    </g>
    <g id="xtick_5">
     <g id="line2d_5">
      <g>
       <use xlink:href="#mc0c31a96d3" x="345.390868" y="307.584" style="stroke: #000000; stroke-width: 0.8"/>
      </g>
     </g>
     <g id="text_5">
      <!-- 4 -->
      <g transform="translate(342.209618 322.182437) scale(0.1 -0.1)">
       <use xlink:href="#DejaVuSans-34"/>
      </g>
     </g>
    </g>
    <g id="text_6">
     <!-- 1e6 -->
     <g transform="translate(350.337875 334.860562) scale(0.1 -0.1)">
      <defs>
       <path id="DejaVuSans-31" d="M 794 531 
L 1825 531 
L 1825 4091 
L 703 3866 
L 703 4441 
L 1819 4666 
L 2450 4666 
L 2450 531 
L 3481 531 
L 3481 0 
L 794 0 
L 794 531 
z
" transform="scale(0.015625)"/>
       <path id="DejaVuSans-65" d="M 3597 1894 
L 3597 1613 
L 953 1613 
Q 991 1019 1311 708 
Q 1631 397 2203 397 
Q 2534 397 2845 478 
Q 3156 559 3463 722 
L 3463 178 
Q 3153 47 2828 -22 
Q 2503 -91 2169 -91 
Q 1331 -91 842 396 
Q 353 884 353 1716 
Q 353 2575 817 3079 
Q 1281 3584 2069 3584 
Q 2775 3584 3186 3129 
Q 3597 2675 3597 1894 
z
M 3022 2063 
Q 3016 2534 2758 2815 
Q 2500 3097 2075 3097 
Q 1594 3097 1305 2825 
Q 1016 2553 972 2059 
L 3022 2063 
z
" transform="scale(0.015625)"/>
       <path id="DejaVuSans-36" d="M 2113 2584 
Q 1688 2584 1439 2293 
Q 1191 2003 1191 1497 
Q 1191 994 1439 701 
Q 1688 409 2113 409 
Q 2538 409 2786 701 
Q 3034 994 3034 1497 
Q 3034 2003 2786 2293 
Q 2538 2584 2113 2584 
z
M 3366 4563 
L 3366 3988 
Q 3128 4100 2886 4159 
Q 2644 4219 2406 4219 
Q 1781 4219 1451 3797 
Q 1122 3375 1075 2522 
Q 1259 2794 1537 2939 
Q 1816 3084 2150 3084 
Q 2853 3084 3261 2657 
Q 3669 2231 3669 1497 
Q 3669 778 3244 343 
Q 2819 -91 2113 -91 
Q 1303 -91 875 529 
Q 447 1150 447 2328 
Q 447 3434 972 4092 
Q 1497 4750 2381 4750 
Q 2619 4750 2861 4703 
Q 3103 4656 3366 4563 
z
" transform="scale(0.015625)"/>
      </defs>
      <use xlink:href="#DejaVuSans-31"/>
      <use xlink:href="#DejaVuSans-65" x="63.623047"/>
      <use xlink:href="#DejaVuSans-36" x="125.146484"/>
     </g>
    </g>
   </g>
   <g id="matplotlib.axis_2">
    <g id="ytick_1">
     <g id="line2d_6">
      <defs>
       <path id="m14b6731611" d="M 0 0 
L -3.5 0 
" style="stroke: #000000; stroke-width: 0.8"/>
      </defs>
      <g>
       <use xlink:href="#m14b6731611" x="103.104" y="283.758868" style="stroke: #000000; stroke-width: 0.8"/>
      </g>
     </g>
     <g id="text_7">
      <!-- −4 -->
      <g transform="translate(81.361813 287.558087) scale(0.1 -0.1)">
       <use xlink:href="#DejaVuSans-2212"/>
       <use xlink:href="#DejaVuSans-34" x="83.789062"/>
      </g>
     </g>
    </g>
    <g id="ytick_2">
     <g id="line2d_7">
      <g>
       <use xlink:href="#m14b6731611" x="103.104" y="229.143434" style="stroke: #000000; stroke-width: 0.8"/>
      </g>
     </g>
     <g id="text_8">
      <!-- −2 -->
      <g transform="translate(81.361813 232.942653) scale(0.1 -0.1)">
       <use xlink:href="#DejaVuSans-2212"/>
       <use xlink:href="#DejaVuSans-32" x="83.789062"/>
      </g>
     </g>
    </g>
    <g id="ytick_3">
     <g id="line2d_8">
      <g>
       <use xlink:href="#m14b6731611" x="103.104" y="174.528" style="stroke: #000000; stroke-width: 0.8"/>
      </g>
     </g>
     <g id="text_9">
      <!-- 0 -->
      <g transform="translate(89.7415 178.327219) scale(0.1 -0.1)">
       <use xlink:href="#DejaVuSans-30"/>
      </g>
     </g>
    </g>
    <g id="ytick_4">
     <g id="line2d_9">
      <g>
       <use xlink:href="#m14b6731611" x="103.104" y="119.912566" style="stroke: #000000; stroke-width: 0.8"/>
      </g>
     </g>
     <g id="text_10">
      <!-- 2 -->
      <g transform="translate(89.7415 123.711785) scale(0.1 -0.1)">
       <use xlink:href="#DejaVuSans-32"/>
      </g>
     </g>
    </g>
    <g id="ytick_5">
     <g id="line2d_10">
      <g>
       <use xlink:href="#m14b6731611" x="103.104" y="65.297132" style="stroke: #000000; stroke-width: 0.8"/>
      </g>
     </g>
     <g id="text_11">
      <!-- 4 -->
      <g transform="translate(89.7415 69.09635) scale(0.1 -0.1)">
       <use xlink:href="#DejaVuSans-34"/>
      </g>
     </g>
    </g>
    <g id="text_12">
     <!-- 1e6 -->
     <g transform="translate(103.104 38.472) scale(0.1 -0.1)">
      <use xlink:href="#DejaVuSans-31"/>
      <use xlink:href="#DejaVuSans-65" x="63.623047"/>
      <use xlink:href="#DejaVuSans-36" x="125.146484"/>
     </g>
    </g>
   </g>
   <g id="line2d_11">
    <path d="M 142.212443 346.6 
L 141.935129 346.079681 
L 139.596641 341.69202 
L 137.292752 337.369279 
L 135.021328 333.10745 
L 132.780332 328.902712 
L 130.567816 324.751412 
L 128.38192 320.650057 
L 126.220855 316.595293 
L 124.082908 312.583904 
L 121.966425 308.612789 
L 119.869816 304.678961 
L 117.79154 300.779533 
L 115.730109 296.911709 
L 113.684077 293.072779 
L 111.652038 289.260105 
L 109.632625 285.471118 
L 107.6245 281.703312 
L 105.626354 277.95423 
L 103.636905 274.221465 
L 101.654891 270.502651 
L 99.67907 266.795456 
L 97.708213 263.097575 
L 95.741105 259.406729 
L 93.776541 255.720654 
L 91.813318 252.037099 
L 89.850242 248.353817 
L 87.886115 244.668563 
L 85.919739 240.979089 
L 83.949908 237.283134 
L 81.97541 233.578422 
L 79.995021 229.862656 
L 78.007501 226.133511 
L 76.011594 222.388629 
L 74.006022 218.625614 
L 71.989484 214.842023 
L 69.96065 211.035361 
L 67.918159 207.203075 
L 65.860616 203.342545 
L 63.786584 199.45108 
L 61.694586 195.525905 
L 59.583096 191.564156 
L 57.450533 187.562871 
L 55.295263 183.518979 
L 53.115585 179.429292 
L 50.909731 175.29049 
L 48.675857 171.099116 
L 46.412039 166.851558 
L 44.116262 162.544036 
L 41.786415 158.17259 
L 39.420283 153.733061 
L 37.015533 149.221077 
L 34.569712 144.632029 
L 32.080228 139.961058 
L 29.544342 135.203025 
L 26.959156 130.352491 
L 24.321595 125.403686 
L 21.628394 120.350486 
L 18.876079 115.18637 
L 16.060948 109.904394 
L 13.17905 104.497145 
L 10.226161 98.956697 
L 7.197757 93.274561 
L 4.088986 87.441634 
L 0.894633 81.448132 
L -1 77.893268 
" clip-path="url(#p6cfe9f0db4)" style="fill: none; stroke: #000000; stroke-width: 1.5; stroke-linecap: square"/>
   </g>
   <g id="line2d_12">
    <path d="M 170.012635 346.6 
L 169.89946 346.298406 
L 168.069661 341.422291 
L 166.279147 336.650861 
L 164.525608 331.977966 
L 162.806875 327.397821 
L 161.120904 322.904983 
L 159.465769 318.494318 
L 157.839651 314.160975 
L 156.240826 309.900367 
L 154.667663 305.708144 
L 153.118614 301.580179 
L 151.592205 297.512547 
L 150.087033 293.501508 
L 148.601759 289.543496 
L 147.135105 285.6351 
L 145.685844 281.773055 
L 144.252801 277.95423 
L 142.834847 274.175613 
L 141.430894 270.434305 
L 140.039892 266.727511 
L 138.660826 263.052525 
L 137.292715 259.406729 
L 135.934602 255.787581 
L 134.585562 252.192608 
L 133.244688 248.619398 
L 131.911098 245.065596 
L 130.583925 241.528896 
L 129.26232 238.007034 
L 127.945449 234.497784 
L 126.632486 230.998952 
L 125.322618 227.508366 
L 124.015038 224.023879 
L 122.708945 220.543355 
L 121.403543 217.06467 
L 120.098035 213.585703 
L 118.791626 210.104335 
L 117.483517 206.618438 
L 116.172907 203.125874 
L 114.858986 199.624489 
L 113.540939 196.112108 
L 112.217939 192.586527 
L 110.889146 189.045511 
L 109.553708 185.486785 
L 108.210754 181.908031 
L 106.859396 178.30688 
L 105.498721 174.680904 
L 104.127797 171.027613 
L 102.745661 167.344445 
L 101.351322 163.628759 
L 99.943757 159.877827 
L 98.521907 156.088827 
L 97.084672 152.25883 
L 95.630912 148.384796 
L 94.159438 144.463557 
L 92.669011 140.491811 
L 91.158337 136.466109 
L 89.626059 132.382837 
L 88.070757 128.238211 
L 86.490939 124.028251 
L 84.885033 119.748775 
L 83.251386 115.39537 
L 81.58825 110.963383 
L 79.893777 106.447888 
L 78.166012 101.843674 
L 76.402878 97.145208 
L 74.602169 92.346613 
L 72.76154 87.441634 
L 70.878486 82.423602 
L 68.950336 77.285396 
L 66.974232 72.0194 
L 64.947112 66.617456 
L 62.865691 61.070805 
L 60.726435 55.370036 
L 58.525541 49.505011 
L 56.258904 43.464793 
L 53.92209 37.237563 
L 51.510296 30.810523 
L 49.018311 24.169788 
L 46.440471 17.300263 
L 43.770607 10.185509 
L 41.001984 2.807579 
L 39.573162 -1 
" clip-path="url(#p6cfe9f0db4)" style="fill: none; stroke: #000000; stroke-width: 1.5; stroke-linecap: square"/>
   </g>
   <g id="line2d_13">
    <path d="M 190.646693 346.6 
L 189.874265 343.608405 
L 188.524218 338.379705 
L 187.209226 333.286768 
L 185.927168 328.32139 
L 184.676071 323.475921 
L 183.454091 318.743221 
L 182.259504 314.116613 
L 181.090695 309.589842 
L 179.946148 305.157039 
L 178.82444 300.812689 
L 177.72423 296.551601 
L 176.644254 292.36888 
L 175.583319 288.259904 
L 174.540296 284.2203 
L 173.514115 280.245925 
L 172.503761 276.332846 
L 171.508269 272.477328 
L 170.526719 268.675808 
L 169.558235 264.924893 
L 168.601979 261.221337 
L 167.65715 257.562033 
L 166.722977 253.944003 
L 165.798721 250.364383 
L 164.883672 246.820417 
L 163.977142 243.309448 
L 163.078468 239.828906 
L 162.187008 236.376304 
L 161.302139 232.949226 
L 160.423254 229.545325 
L 159.549763 226.162312 
L 158.681088 222.797954 
L 157.816664 219.450061 
L 156.955938 216.116488 
L 156.098364 212.795124 
L 155.243405 209.483889 
L 154.390531 206.180727 
L 153.539216 202.883603 
L 152.688938 199.590496 
L 151.839177 196.299394 
L 150.989417 193.008293 
L 150.139139 189.715185 
L 149.287824 186.418061 
L 148.434949 183.114898 
L 147.57999 179.803662 
L 146.722416 176.482297 
L 145.861689 173.148722 
L 144.997265 169.800828 
L 144.12859 166.436468 
L 143.255098 163.053453 
L 142.376212 159.64955 
L 141.491342 156.222469 
L 140.599882 152.769864 
L 139.701207 149.289319 
L 138.794677 145.778346 
L 137.879626 142.234377 
L 136.95537 138.654754 
L 136.021196 135.036719 
L 135.076365 131.377411 
L 134.120108 127.67385 
L 133.151623 123.922929 
L 132.170071 120.121404 
L 131.174577 116.26588 
L 130.164222 112.352795 
L 129.138039 108.378413 
L 128.095014 104.338802 
L 127.034077 100.229818 
L 125.954099 96.047089 
L 124.853887 91.785993 
L 123.732177 87.441634 
L 122.587627 83.008822 
L 121.418815 78.48204 
L 120.224226 73.855421 
L 119.002243 69.12271 
L 117.751143 64.277228 
L 116.469082 59.311837 
L 115.154085 54.218886 
L 113.804035 48.990172 
L 112.416653 43.616873 
L 110.989487 38.089494 
L 109.519894 32.397794 
L 108.005016 26.530708 
L 106.441761 20.476255 
L 104.826772 14.221442 
L 103.156405 7.752149 
L 101.426689 1.053 
L 100.896606 -1 
" clip-path="url(#p6cfe9f0db4)" style="fill: none; stroke: #000000; stroke-width: 1.5; stroke-linecap: square"/>
   </g>
   <g id="line2d_14">
    <path d="M 207.467731 346.6 
L 207.370843 346.004761 
L 206.456746 340.388973 
L 205.569958 334.940961 
L 204.708757 329.650141 
L 203.871548 324.506718 
L 203.056853 319.50161 
L 202.263299 314.626381 
L 201.489608 309.873182 
L 200.734589 305.234697 
L 199.997131 300.704097 
L 199.276193 296.274992 
L 198.570803 291.941401 
L 197.880045 287.697708 
L 197.203062 283.538637 
L 196.539045 279.459222 
L 195.887231 275.45478 
L 195.246901 271.520889 
L 194.617373 267.653363 
L 193.998003 263.848241 
L 193.388178 260.101759 
L 192.787316 256.41034 
L 192.194862 252.770579 
L 191.610288 249.179227 
L 191.033087 245.633177 
L 190.462778 242.129457 
L 189.898894 238.665216 
L 189.34099 235.237715 
L 188.788637 231.844314 
L 188.241421 228.482472 
L 187.698941 225.149727 
L 187.16081 221.843699 
L 186.626651 218.562077 
L 186.096099 215.302613 
L 185.568798 212.063117 
L 185.044398 208.841449 
L 184.52256 205.635516 
L 184.002948 202.443261 
L 183.485233 199.262664 
L 182.969092 196.091734 
L 182.454205 192.928503 
L 181.940253 189.77102 
L 181.426921 186.617352 
L 180.913898 183.465572 
L 180.400869 180.31376 
L 179.887522 177.159994 
L 179.373543 174.002348 
L 178.858618 170.838886 
L 178.342429 167.66766 
L 177.824655 164.4867 
L 177.304973 161.294014 
L 176.783053 158.087579 
L 176.25856 154.86534 
L 175.731154 151.625201 
L 175.200486 148.36502 
L 174.666198 145.082605 
L 174.127925 141.775708 
L 173.585291 138.442013 
L 173.037907 135.079138 
L 172.485372 131.684621 
L 171.927272 128.255914 
L 171.363177 124.790377 
L 170.79264 121.285266 
L 170.215198 117.737726 
L 169.630364 114.144779 
L 169.037633 110.503316 
L 168.436476 106.810083 
L 167.826336 103.061667 
L 167.206631 99.254486 
L 166.576747 95.384771 
L 165.936037 91.448551 
L 165.283821 87.441634 
L 164.619375 83.35959 
L 163.941937 79.197726 
L 163.250697 74.951065 
L 162.544793 70.614321 
L 161.823311 66.181867 
L 161.085273 61.647706 
L 160.329638 57.005436 
L 159.555292 52.248212 
L 158.76104 47.3687 
L 157.945603 42.359032 
L 157.107603 37.210751 
L 156.245559 31.914752 
L 155.357872 26.461215 
L 154.442815 20.839528 
L 153.498518 15.038203 
L 152.522952 9.044779 
L 151.513913 2.845714 
L 150.887936 -1 
" clip-path="url(#p6cfe9f0db4)" style="fill: none; stroke: #000000; stroke-width: 1.5; stroke-linecap: square"/>
   </g>
   <g id="line2d_15">
    <path d="M 222.259904 346.6 
L 221.822954 341.058878 
L 221.376711 335.399913 
L 220.944317 329.916575 
L 220.524886 324.597622 
L 220.117599 319.432671 
L 219.721698 314.412114 
L 219.336481 309.527045 
L 218.961296 304.769194 
L 218.595536 300.130864 
L 218.238636 295.604885 
L 217.890067 291.184563 
L 217.549336 286.86364 
L 217.215982 282.636253 
L 216.889569 278.496903 
L 216.569692 274.440423 
L 216.255965 270.461949 
L 215.948029 266.556896 
L 215.64554 262.720936 
L 215.348177 258.949973 
L 215.055634 255.240128 
L 214.76762 251.587721 
L 214.483859 247.989252 
L 214.204089 244.441391 
L 213.928059 240.940958 
L 213.65553 237.484919 
L 213.386272 234.070368 
L 213.120066 230.694516 
L 212.856701 227.354688 
L 212.595973 224.048305 
L 212.337687 220.772884 
L 212.081652 217.526022 
L 211.827686 214.305393 
L 211.575611 211.108743 
L 211.325254 207.933876 
L 211.076446 204.778657 
L 210.829023 201.640997 
L 210.582824 198.518853 
L 210.33769 195.410222 
L 210.093466 192.313134 
L 209.849999 189.225647 
L 209.607138 186.145843 
L 209.364733 183.071823 
L 209.122636 180.001704 
L 208.880699 176.933608 
L 208.638773 173.865667 
L 208.396712 170.79601 
L 208.154368 167.722763 
L 207.911593 164.644043 
L 207.668237 161.557954 
L 207.424148 158.462582 
L 207.179175 155.355989 
L 206.933162 152.23621 
L 206.685951 149.101248 
L 206.437383 145.949066 
L 206.187293 142.777585 
L 205.935513 139.584675 
L 205.681871 136.368154 
L 205.42619 133.125775 
L 205.168288 129.855226 
L 204.907975 126.554117 
L 204.645059 123.219978 
L 204.379335 119.850247 
L 204.110596 116.442265 
L 203.838621 112.993263 
L 203.563185 109.500356 
L 203.284048 105.960529 
L 203.000963 102.37063 
L 202.713669 98.727352 
L 202.421892 95.027226 
L 202.125345 91.266602 
L 201.823723 87.441634 
L 201.516708 83.548265 
L 201.20396 79.582205 
L 200.885123 75.538914 
L 200.559815 71.413575 
L 200.227634 67.201073 
L 199.888151 62.895965 
L 199.540908 58.492452 
L 199.185416 53.984342 
L 198.821155 49.365017 
L 198.447565 44.627387 
L 198.064046 39.763847 
L 197.669953 34.766225 
L 197.264594 29.625724 
L 196.84722 24.332855 
L 196.417023 18.877371 
L 195.973127 13.248176 
L 195.514585 7.43324 
L 195.040365 1.419492 
L 194.849573 -1 
" clip-path="url(#p6cfe9f0db4)" style="fill: none; stroke: #000000; stroke-width: 1.5; stroke-linecap: square"/>
   </g>
   <g id="line2d_16">
    <path d="M 236.16 346.6 
L 236.16 345.298133 
L 236.16 339.435695 
L 236.16 333.76388 
L 236.16 328.270245 
L 236.16 322.943329 
L 236.16 317.772553 
L 236.16 312.748134 
L 236.16 307.861011 
L 236.16 303.102772 
L 236.16 298.465596 
L 236.16 293.942201 
L 236.16 289.525791 
L 236.16 285.210018 
L 236.16 280.988938 
L 236.16 276.856978 
L 236.16 272.808906 
L 236.16 268.839798 
L 236.16 264.945017 
L 236.16 261.120186 
L 236.16 257.361167 
L 236.16 253.664045 
L 236.16 250.025103 
L 236.16 246.440813 
L 236.16 242.907817 
L 236.16 239.422913 
L 236.16 235.983045 
L 236.16 232.585289 
L 236.16 229.226842 
L 236.16 225.905016 
L 236.16 222.617221 
L 236.16 219.360965 
L 236.16 216.133839 
L 236.16 212.933512 
L 236.16 209.757727 
L 236.16 206.604288 
L 236.16 203.471058 
L 236.16 200.355952 
L 236.16 197.25693 
L 236.16 194.171995 
L 236.16 191.099182 
L 236.16 188.036558 
L 236.16 184.982215 
L 236.16 181.934266 
L 236.16 178.890838 
L 236.16 175.85007 
L 236.16 172.810107 
L 236.16 169.769098 
L 236.16 166.725187 
L 236.16 163.676512 
L 236.16 160.621198 
L 236.16 157.557356 
L 236.16 154.483075 
L 236.16 151.396417 
L 236.16 148.295415 
L 236.16 145.178066 
L 236.16 142.042324 
L 236.16 138.886097 
L 236.16 135.707242 
L 236.16 132.503556 
L 236.16 129.27277 
L 236.16 126.012546 
L 236.16 122.720464 
L 236.16 119.394018 
L 236.16 116.030608 
L 236.16 112.62753 
L 236.16 109.181967 
L 236.16 105.690977 
L 236.16 102.151487 
L 236.16 98.560275 
L 236.16 94.913962 
L 236.16 91.208995 
L 236.16 87.441634 
L 236.16 83.607935 
L 236.16 79.703729 
L 236.16 75.724609 
L 236.16 71.665899 
L 236.16 67.522639 
L 236.16 63.289553 
L 236.16 58.961022 
L 236.16 54.531051 
L 236.16 49.993237 
L 236.16 45.340722 
L 236.16 40.566157 
L 236.16 35.661647 
L 236.16 30.618701 
L 236.16 25.428166 
L 236.16 20.080159 
L 236.16 14.563994 
L 236.16 8.868086 
L 236.16 2.979859 
L 236.16 -1 
" clip-path="url(#p6cfe9f0db4)" style="fill: none; stroke: #000000; stroke-width: 1.5; stroke-linecap: square"/>
   </g>
   <g id="line2d_17">
    <path d="M 250.060096 346.6 
L 250.497046 341.058878 
L 250.943289 335.399913 
L 251.375683 329.916575 
L 251.795114 324.597622 
L 252.202401 319.432671 
L 252.598302 314.412114 
L 252.983519 309.527045 
L 253.358704 304.769194 
L 253.724464 300.130864 
L 254.081364 295.604885 
L 254.429933 291.184563 
L 254.770664 286.86364 
L 255.104018 282.636253 
L 255.430431 278.496903 
L 255.750308 274.440423 
L 256.064035 270.461949 
L 256.371971 266.556896 
L 256.67446 262.720936 
L 256.971823 258.949973 
L 257.264366 255.240128 
L 257.55238 251.587721 
L 257.836141 247.989252 
L 258.115911 244.441391 
L 258.391941 240.940958 
L 258.66447 237.484919 
L 258.933728 234.070368 
L 259.199934 230.694516 
L 259.463299 227.354688 
L 259.724027 224.048305 
L 259.982313 220.772884 
L 260.238348 217.526022 
L 260.492314 214.305393 
L 260.744389 211.108743 
L 260.994746 207.933876 
L 261.243554 204.778657 
L 261.490977 201.640997 
L 261.737176 198.518853 
L 261.98231 195.410222 
L 262.226534 192.313134 
L 262.470001 189.225647 
L 262.712862 186.145843 
L 262.955267 183.071823 
L 263.197364 180.001704 
L 263.439301 176.933608 
L 263.681227 173.865667 
L 263.923288 170.79601 
L 264.165632 167.722763 
L 264.408407 164.644043 
L 264.651763 161.557954 
L 264.895852 158.462582 
L 265.140825 155.355989 
L 265.386838 152.23621 
L 265.634049 149.101248 
L 265.882617 145.949066 
L 266.132707 142.777585 
L 266.384487 139.584675 
L 266.638129 136.368154 
L 266.89381 133.125775 
L 267.151712 129.855226 
L 267.412025 126.554117 
L 267.674941 123.219978 
L 267.940665 119.850247 
L 268.209404 116.442265 
L 268.481379 112.993263 
L 268.756815 109.500356 
L 269.035952 105.960529 
L 269.319037 102.37063 
L 269.606331 98.727352 
L 269.898108 95.027226 
L 270.194655 91.266602 
L 270.496277 87.441634 
L 270.803292 83.548265 
L 271.11604 79.582205 
L 271.434877 75.538914 
L 271.760185 71.413575 
L 272.092366 67.201073 
L 272.431849 62.895965 
L 272.779092 58.492452 
L 273.134584 53.984342 
L 273.498845 49.365017 
L 273.872435 44.627387 
L 274.255954 39.763847 
L 274.650047 34.766225 
L 275.055406 29.625724 
L 275.47278 24.332855 
L 275.902977 18.877371 
L 276.346873 13.248176 
L 276.805415 7.43324 
L 277.279635 1.419492 
L 277.470427 -1 
" clip-path="url(#p6cfe9f0db4)" style="fill: none; stroke: #000000; stroke-width: 1.5; stroke-linecap: square"/>
   </g>
   <g id="line2d_18">
    <path d="M 264.852269 346.6 
L 264.949157 346.004761 
L 265.863254 340.388973 
L 266.750042 334.940961 
L 267.611243 329.650141 
L 268.448452 324.506718 
L 269.263147 319.50161 
L 270.056701 314.626381 
L 270.830392 309.873182 
L 271.585411 305.234697 
L 272.322869 300.704097 
L 273.043807 296.274992 
L 273.749197 291.941401 
L 274.439955 287.697708 
L 275.116938 283.538637 
L 275.780955 279.459222 
L 276.432769 275.45478 
L 277.073099 271.520889 
L 277.702627 267.653363 
L 278.321997 263.848241 
L 278.931822 260.101759 
L 279.532684 256.41034 
L 280.125138 252.770579 
L 280.709712 249.179227 
L 281.286913 245.633177 
L 281.857222 242.129457 
L 282.421106 238.665216 
L 282.97901 235.237715 
L 283.531363 231.844314 
L 284.078579 228.482472 
L 284.621059 225.149727 
L 285.15919 221.843699 
L 285.693349 218.562077 
L 286.223901 215.302613 
L 286.751202 212.063117 
L 287.275602 208.841449 
L 287.79744 205.635516 
L 288.317052 202.443261 
L 288.834767 199.262664 
L 289.350908 196.091734 
L 289.865795 192.928503 
L 290.379747 189.77102 
L 290.893079 186.617352 
L 291.406102 183.465572 
L 291.919131 180.31376 
L 292.432478 177.159994 
L 292.946457 174.002348 
L 293.461382 170.838886 
L 293.977571 167.66766 
L 294.495345 164.4867 
L 295.015027 161.294014 
L 295.536947 158.087579 
L 296.06144 154.86534 
L 296.588846 151.625201 
L 297.119514 148.36502 
L 297.653802 145.082605 
L 298.192075 141.775708 
L 298.734709 138.442013 
L 299.282093 135.079138 
L 299.834628 131.684621 
L 300.392728 128.255914 
L 300.956823 124.790377 
L 301.52736 121.285266 
L 302.104802 117.737726 
L 302.689636 114.144779 
L 303.282367 110.503316 
L 303.883524 106.810083 
L 304.493664 103.061667 
L 305.113369 99.254486 
L 305.743253 95.384771 
L 306.383963 91.448551 
L 307.036179 87.441634 
L 307.700625 83.35959 
L 308.378063 79.197726 
L 309.069303 74.951065 
L 309.775207 70.614321 
L 310.496689 66.181867 
L 311.234727 61.647706 
L 311.990362 57.005436 
L 312.764708 52.248212 
L 313.55896 47.3687 
L 314.374397 42.359032 
L 315.212397 37.210751 
L 316.074441 31.914752 
L 316.962128 26.461215 
L 317.877185 20.839528 
L 318.821482 15.038203 
L 319.797048 9.044779 
L 320.806087 2.845714 
L 321.432064 -1 
" clip-path="url(#p6cfe9f0db4)" style="fill: none; stroke: #000000; stroke-width: 1.5; stroke-linecap: square"/>
   </g>
   <g id="line2d_19">
    <path d="M 281.673307 346.6 
L 282.445735 343.608405 
L 283.795782 338.379705 
L 285.110774 333.286768 
L 286.392832 328.32139 
L 287.643929 323.475921 
L 288.865909 318.743221 
L 290.060496 314.116613 
L 291.229305 309.589842 
L 292.373852 305.157039 
L 293.49556 300.812689 
L 294.59577 296.551601 
L 295.675746 292.36888 
L 296.736681 288.259904 
L 297.779704 284.2203 
L 298.805885 280.245925 
L 299.816239 276.332846 
L 300.811731 272.477328 
L 301.793281 268.675808 
L 302.761765 264.924893 
L 303.718021 261.221337 
L 304.66285 257.562033 
L 305.597023 253.944003 
L 306.521279 250.364383 
L 307.436328 246.820417 
L 308.342858 243.309448 
L 309.241532 239.828906 
L 310.132992 236.376304 
L 311.017861 232.949226 
L 311.896746 229.545325 
L 312.770237 226.162312 
L 313.638912 222.797954 
L 314.503336 219.450061 
L 315.364062 216.116488 
L 316.221636 212.795124 
L 317.076595 209.483889 
L 317.929469 206.180727 
L 318.780784 202.883603 
L 319.631062 199.590496 
L 320.480823 196.299394 
L 321.330583 193.008293 
L 322.180861 189.715185 
L 323.032176 186.418061 
L 323.885051 183.114898 
L 324.74001 179.803662 
L 325.597584 176.482297 
L 326.458311 173.148722 
L 327.322735 169.800828 
L 328.19141 166.436468 
L 329.064902 163.053453 
L 329.943788 159.64955 
L 330.828658 156.222469 
L 331.720118 152.769864 
L 332.618793 149.289319 
L 333.525323 145.778346 
L 334.440374 142.234377 
L 335.36463 138.654754 
L 336.298804 135.036719 
L 337.243635 131.377411 
L 338.199892 127.67385 
L 339.168377 123.922929 
L 340.149929 120.121404 
L 341.145423 116.26588 
L 342.155778 112.352795 
L 343.181961 108.378413 
L 344.224986 104.338802 
L 345.285923 100.229818 
L 346.365901 96.047089 
L 347.466113 91.785993 
L 348.587823 87.441634 
L 349.732373 83.008822 
L 350.901185 78.48204 
L 352.095774 73.855421 
L 353.317757 69.12271 
L 354.568857 64.277228 
L 355.850918 59.311837 
L 357.165915 54.218886 
L 358.515965 48.990172 
L 359.903347 43.616873 
L 361.330513 38.089494 
L 362.800106 32.397794 
L 364.314984 26.530708 
L 365.878239 20.476255 
L 367.493228 14.221442 
L 369.163595 7.752149 
L 370.893311 1.053 
L 371.423394 -1 
" clip-path="url(#p6cfe9f0db4)" style="fill: none; stroke: #000000; stroke-width: 1.5; stroke-linecap: square"/>
   </g>
   <g id="line2d_20">
    <path d="M 302.307365 346.6 
L 302.42054 346.298406 
L 304.250339 341.422291 
L 306.040853 336.650861 
L 307.794392 331.977966 
L 309.513125 327.397821 
L 311.199096 322.904983 
L 312.854231 318.494318 
L 314.480349 314.160975 
L 316.079174 309.900367 
L 317.652337 305.708144 
L 319.201386 301.580179 
L 320.727795 297.512547 
L 322.232967 293.501508 
L 323.718241 289.543496 
L 325.184895 285.6351 
L 326.634156 281.773055 
L 328.067199 277.95423 
L 329.485153 274.175613 
L 330.889106 270.434305 
L 332.280108 266.727511 
L 333.659174 263.052525 
L 335.027285 259.406729 
L 336.385398 255.787581 
L 337.734438 252.192608 
L 339.075312 248.619398 
L 340.408902 245.065596 
L 341.736075 241.528896 
L 343.05768 238.007034 
L 344.374551 234.497784 
L 345.687514 230.998952 
L 346.997382 227.508366 
L 348.304962 224.023879 
L 349.611055 220.543355 
L 350.916457 217.06467 
L 352.221965 213.585703 
L 353.528374 210.104335 
L 354.836483 206.618438 
L 356.147093 203.125874 
L 357.461014 199.624489 
L 358.779061 196.112108 
L 360.102061 192.586527 
L 361.430854 189.045511 
L 362.766292 185.486785 
L 364.109246 181.908031 
L 365.460604 178.30688 
L 366.821279 174.680904 
L 368.192203 171.027613 
L 369.574339 167.344445 
L 370.968678 163.628759 
L 372.376243 159.877827 
L 373.798093 156.088827 
L 375.235328 152.25883 
L 376.689088 148.384796 
L 378.160562 144.463557 
L 379.650989 140.491811 
L 381.161663 136.466109 
L 382.693941 132.382837 
L 384.249243 128.238211 
L 385.829061 124.028251 
L 387.434967 119.748775 
L 389.068614 115.39537 
L 390.73175 110.963383 
L 392.426223 106.447888 
L 394.153988 101.843674 
L 395.917122 97.145208 
L 397.717831 92.346613 
L 399.55846 87.441634 
L 401.441514 82.423602 
L 403.369664 77.285396 
L 405.345768 72.0194 
L 407.372888 66.617456 
L 409.454309 61.070805 
L 411.593565 55.370036 
L 413.794459 49.505011 
L 416.061096 43.464793 
L 418.39791 37.237563 
L 420.809704 30.810523 
L 423.301689 24.169788 
L 425.879529 17.300263 
L 428.549393 10.185509 
L 431.318016 2.807579 
L 432.746838 -1 
" clip-path="url(#p6cfe9f0db4)" style="fill: none; stroke: #000000; stroke-width: 1.5; stroke-linecap: square"/>
   </g>
   <g id="line2d_21">
    <path d="M 330.107557 346.6 
L 330.384871 346.079681 
L 332.723359 341.69202 
L 335.027248 337.369279 
L 337.298672 333.10745 
L 339.539668 328.902712 
L 341.752184 324.751412 
L 343.93808 320.650057 
L 346.099145 316.595293 
L 348.237092 312.583904 
L 350.353575 308.612789 
L 352.450184 304.678961 
L 354.52846 300.779533 
L 356.589891 296.911709 
L 358.635923 293.072779 
L 360.667962 289.260105 
L 362.687375 285.471118 
L 364.6955 281.703312 
L 366.693646 277.95423 
L 368.683095 274.221465 
L 370.665109 270.502651 
L 372.64093 266.795456 
L 374.611787 263.097575 
L 376.578895 259.406729 
L 378.543459 255.720654 
L 380.506682 252.037099 
L 382.469758 248.353817 
L 384.433885 244.668563 
L 386.400261 240.979089 
L 388.370092 237.283134 
L 390.34459 233.578422 
L 392.324979 229.862656 
L 394.312499 226.133511 
L 396.308406 222.388629 
L 398.313978 218.625614 
L 400.330516 214.842023 
L 402.35935 211.035361 
L 404.401841 207.203075 
L 406.459384 203.342545 
L 408.533416 199.45108 
L 410.625414 195.525905 
L 412.736904 191.564156 
L 414.869467 187.562871 
L 417.024737 183.518979 
L 419.204415 179.429292 
L 421.410269 175.29049 
L 423.644143 171.099116 
L 425.907961 166.851558 
L 428.203738 162.544036 
L 430.533585 158.17259 
L 432.899717 153.733061 
L 435.304467 149.221077 
L 437.750288 144.632029 
L 440.239772 139.961058 
L 442.775658 135.203025 
L 445.360844 130.352491 
L 447.998405 125.403686 
L 450.691606 120.350486 
L 453.443921 115.18637 
L 456.259052 109.904394 
L 459.14095 104.497145 
L 461.8 99.508021 
" clip-path="url(#p6cfe9f0db4)" style="fill: none; stroke: #000000; stroke-width: 1.5; stroke-linecap: square"/>
   </g>
   <g id="line2d_22">
    <path clip-path="url(#p6cfe9f0db4)" style="fill: none; stroke: #000000; stroke-width: 1.5; stroke-linecap: square"/>
   </g>
   <g id="line2d_23">
    <path d="M 206.105561 346.6 
L 207.370843 346.004761 
L 208.82451 345.355253 
L 210.275991 344.740873 
L 211.725402 344.161327 
L 213.172857 343.616341 
L 214.618471 343.105657 
L 216.062359 342.629032 
L 217.504637 342.186242 
L 218.945418 341.777079 
L 220.384819 341.40135 
L 221.822954 341.058878 
L 223.259938 340.749503 
L 224.695886 340.473081 
L 226.130914 340.229481 
L 227.565137 340.018591 
L 228.998669 339.840311 
L 230.431625 339.694559 
L 231.864122 339.581267 
L 233.296273 339.500381 
L 234.728194 339.451865 
L 236.16 339.435695 
L 237.591806 339.451865 
L 239.023727 339.500381 
L 240.455878 339.581267 
L 241.888375 339.694559 
L 243.321331 339.840311 
L 244.754863 340.018591 
L 246.189086 340.229481 
L 247.624114 340.473081 
L 249.060062 340.749503 
L 250.497046 341.058878 
L 251.935181 341.40135 
L 253.374582 341.777079 
L 254.815363 342.186242 
L 256.257641 342.629032 
L 257.701529 343.105657 
L 259.147143 343.616341 
L 260.594598 344.161327 
L 262.044009 344.740873 
L 263.49549 345.355253 
L 264.949157 346.004761 
L 266.214439 346.6 
" clip-path="url(#p6cfe9f0db4)" style="fill: none; stroke: #000000; stroke-width: 1.5; stroke-linecap: square"/>
   </g>
   <g id="line2d_24">
    <path d="M 137.292752 337.369279 
L 139.604943 335.190103 
L 141.89405 333.080571 
L 144.160863 331.038731 
L 146.406149 329.062714 
L 148.630649 327.150735 
L 150.835083 325.30109 
L 153.020146 323.512149 
L 155.186514 321.782355 
L 157.334843 320.110219 
L 159.465769 318.494318 
L 161.579913 316.933292 
L 163.677874 315.425842 
L 165.760238 313.970727 
L 167.827575 312.566759 
L 169.88044 311.212805 
L 171.919373 309.907784 
L 173.944902 308.65066 
L 175.957541 307.440449 
L 177.957793 306.276208 
L 179.946148 305.157039 
L 181.923087 304.082087 
L 183.889078 303.050535 
L 185.844582 302.061609 
L 187.790048 301.114568 
L 189.725918 300.208711 
L 191.652624 299.343369 
L 193.570591 298.517911 
L 195.480236 297.731735 
L 197.381969 296.984275 
L 199.276193 296.274992 
L 201.163306 295.603381 
L 203.043697 294.968965 
L 204.917753 294.371295 
L 206.785852 293.809951 
L 208.64837 293.28454 
L 210.505678 292.794695 
L 212.358141 292.340077 
L 214.206122 291.920371 
L 216.049979 291.535288 
L 217.890067 291.184563 
L 219.726738 290.867956 
L 221.560343 290.585251 
L 223.391226 290.336254 
L 225.219735 290.120798 
L 227.04621 289.938734 
L 228.870995 289.789941 
L 230.694427 289.674317 
L 232.516847 289.591784 
L 234.338592 289.542287 
L 236.16 289.525791 
L 237.981408 289.542287 
L 239.803153 289.591784 
L 241.625573 289.674317 
L 243.449005 289.789941 
L 245.27379 289.938734 
L 247.100265 290.120798 
L 248.928774 290.336254 
L 250.759657 290.585251 
L 252.593262 290.867956 
L 254.429933 291.184563 
L 256.270021 291.535288 
L 258.113878 291.920371 
L 259.961859 292.340077 
L 261.814322 292.794695 
L 263.67163 293.28454 
L 265.534148 293.809951 
L 267.402247 294.371295 
L 269.276303 294.968965 
L 271.156694 295.603381 
L 273.043807 296.274992 
L 274.938031 296.984275 
L 276.839764 297.731735 
L 278.749409 298.517911 
L 280.667376 299.343369 
L 282.594082 300.208711 
L 284.529952 301.114568 
L 286.475418 302.061609 
L 288.430922 303.050535 
L 290.396913 304.082087 
L 292.373852 305.157039 
L 294.362207 306.276208 
L 296.362459 307.440449 
L 298.375098 308.65066 
L 300.400627 309.907784 
L 302.43956 311.212805 
L 304.492425 312.566759 
L 306.559762 313.970727 
L 308.642126 315.425842 
L 310.740087 316.933292 
L 312.854231 318.494318 
L 314.985157 320.110219 
L 317.133486 321.782355 
L 319.299854 323.512149 
L 321.484917 325.30109 
L 323.689351 327.150735 
L 325.913851 329.062714 
L 328.159137 331.038731 
L 330.42595 333.080571 
L 332.715057 335.190103 
L 335.027248 337.369279 
" clip-path="url(#p6cfe9f0db4)" style="fill: none; stroke: #000000; stroke-width: 1.5; stroke-linecap: square"/>
   </g>
   <g id="line2d_25">
    <path d="M 115.730109 296.911709 
L 118.769815 294.691178 
L 121.763066 292.549629 
L 124.711806 290.484265 
L 127.617893 288.492441 
L 130.483099 286.571649 
L 133.309122 284.719514 
L 136.097582 282.933784 
L 138.850033 281.212326 
L 141.567964 279.553114 
L 144.252801 277.95423 
L 146.905916 276.413849 
L 149.528625 274.930245 
L 152.122193 273.501775 
L 154.68784 272.126882 
L 157.226738 270.804087 
L 159.740018 269.531987 
L 162.228772 268.309251 
L 164.694053 267.134612 
L 167.136879 266.006872 
L 169.558235 264.924893 
L 171.959075 263.887595 
L 174.340321 262.893954 
L 176.702871 261.943 
L 179.047593 261.033815 
L 181.375334 260.165529 
L 183.686913 259.33732 
L 185.983131 258.54841 
L 188.264767 257.798064 
L 190.532582 257.085592 
L 192.787316 256.41034 
L 195.029694 255.771696 
L 197.260426 255.169084 
L 199.480205 254.601964 
L 201.689712 254.069832 
L 203.889614 253.572218 
L 206.080566 253.108684 
L 208.263214 252.678826 
L 210.43819 252.28227 
L 212.60612 251.918673 
L 214.76762 251.587721 
L 216.923299 251.289131 
L 219.073759 251.022647 
L 221.219594 250.788043 
L 223.361395 250.585119 
L 225.499747 250.413703 
L 227.63523 250.27365 
L 229.768423 250.164842 
L 231.899901 250.087188 
L 234.030236 250.040621 
L 236.16 250.025103 
L 238.289764 250.040621 
L 240.420099 250.087188 
L 242.551577 250.164842 
L 244.68477 250.27365 
L 246.820253 250.413703 
L 248.958605 250.585119 
L 251.100406 250.788043 
L 253.246241 251.022647 
L 255.396701 251.289131 
L 257.55238 251.587721 
L 259.71388 251.918673 
L 261.88181 252.28227 
L 264.056786 252.678826 
L 266.239434 253.108684 
L 268.430386 253.572218 
L 270.630288 254.069832 
L 272.839795 254.601964 
L 275.059574 255.169084 
L 277.290306 255.771696 
L 279.532684 256.41034 
L 281.787418 257.085592 
L 284.055233 257.798064 
L 286.336869 258.54841 
L 288.633087 259.33732 
L 290.944666 260.165529 
L 293.272407 261.033815 
L 295.617129 261.943 
L 297.979679 262.893954 
L 300.360925 263.887595 
L 302.761765 264.924893 
L 305.183121 266.006872 
L 307.625947 267.134612 
L 310.091228 268.309251 
L 312.579982 269.531987 
L 315.093262 270.804087 
L 317.63216 272.126882 
L 320.197807 273.501775 
L 322.791375 274.930245 
L 325.414084 276.413849 
L 328.067199 277.95423 
L 330.752036 279.553114 
L 333.469967 281.212326 
L 336.222418 282.933784 
L 339.010878 284.719514 
L 341.836901 286.571649 
L 344.702107 288.492441 
L 347.608194 290.484265 
L 350.556934 292.549629 
L 353.550185 294.691178 
L 356.589891 296.911709 
" clip-path="url(#p6cfe9f0db4)" style="fill: none; stroke: #000000; stroke-width: 1.5; stroke-linecap: square"/>
   </g>
   <g id="line2d_26">
    <path d="M 95.741105 259.406729 
L 99.525753 257.284937 
L 103.234862 255.245662 
L 106.872051 253.285458 
L 110.440737 251.401086 
L 113.944152 249.589502 
L 117.385358 247.847844 
L 120.767255 246.173418 
L 124.092594 244.563688 
L 127.363989 243.016264 
L 130.583925 241.528896 
L 133.754767 240.099459 
L 136.878767 238.72595 
L 139.958073 237.406481 
L 142.994736 236.139268 
L 145.990714 234.922626 
L 148.947883 233.754965 
L 151.868037 232.634784 
L 154.752894 231.560664 
L 157.604105 230.531266 
L 160.423254 229.545325 
L 163.211865 228.601645 
L 165.971404 227.699099 
L 168.703283 226.836622 
L 171.408863 226.01321 
L 174.089461 225.227914 
L 176.746348 224.479842 
L 179.380752 223.768153 
L 181.993866 223.092055 
L 184.586844 222.450803 
L 187.16081 221.843699 
L 189.716852 221.270087 
L 192.256032 220.729353 
L 194.779383 220.220923 
L 197.287916 219.744262 
L 199.782614 219.298873 
L 202.264442 218.884293 
L 204.734343 218.500094 
L 207.193241 218.145885 
L 209.642047 217.821303 
L 212.081652 217.526022 
L 214.512936 217.259742 
L 216.936766 217.022197 
L 219.353998 216.813149 
L 221.765477 216.632391 
L 224.17204 216.479743 
L 226.574519 216.355054 
L 228.973736 216.258201 
L 231.370512 216.189088 
L 233.765662 216.147648 
L 236.16 216.133839 
L 238.554338 216.147648 
L 240.949488 216.189088 
L 243.346264 216.258201 
L 245.745481 216.355054 
L 248.14796 216.479743 
L 250.554523 216.632391 
L 252.966002 216.813149 
L 255.383234 217.022197 
L 257.807064 217.259742 
L 260.238348 217.526022 
L 262.677953 217.821303 
L 265.126759 218.145885 
L 267.585657 218.500094 
L 270.055558 218.884293 
L 272.537386 219.298873 
L 275.032084 219.744262 
L 277.540617 220.220923 
L 280.063968 220.729353 
L 282.603148 221.270087 
L 285.15919 221.843699 
L 287.733156 222.450803 
L 290.326134 223.092055 
L 292.939248 223.768153 
L 295.573652 224.479842 
L 298.230539 225.227914 
L 300.911137 226.01321 
L 303.616717 226.836622 
L 306.348596 227.699099 
L 309.108135 228.601645 
L 311.896746 229.545325 
L 314.715895 230.531266 
L 317.567106 231.560664 
L 320.451963 232.634784 
L 323.372117 233.754965 
L 326.329286 234.922626 
L 329.325264 236.139268 
L 332.361927 237.406481 
L 335.441233 238.72595 
L 338.565233 240.099459 
L 341.736075 241.528896 
L 344.956011 243.016264 
L 348.227406 244.563688 
L 351.552745 246.173418 
L 354.934642 247.847844 
L 358.375848 249.589502 
L 361.879263 251.401086 
L 365.447949 253.285458 
L 369.085138 255.245662 
L 372.794247 257.284937 
L 376.578895 259.406729 
" clip-path="url(#p6cfe9f0db4)" style="fill: none; stroke: #000000; stroke-width: 1.5; stroke-linecap: square"/>
   </g>
   <g id="line2d_27">
    <path d="M 76.011594 222.388629 
L 80.597688 220.492924 
L 85.07193 218.677119 
L 89.440294 216.937394 
L 93.708374 215.270191 
L 97.881414 213.672189 
L 101.96434 212.140287 
L 105.961779 210.671587 
L 109.87809 209.263378 
L 113.717378 207.91312 
L 117.483517 206.618438 
L 121.180168 205.377101 
L 124.81079 204.18702 
L 128.378662 203.046232 
L 131.886891 201.952896 
L 135.338426 200.905281 
L 138.736068 199.90176 
L 142.082483 198.940806 
L 145.380211 198.020982 
L 148.631672 197.140935 
L 151.839177 196.299394 
L 155.004935 195.495165 
L 158.13106 194.727121 
L 161.219577 193.994207 
L 164.272427 193.295427 
L 167.291477 192.629846 
L 170.27852 191.996587 
L 173.235283 191.394824 
L 176.163431 190.823785 
L 179.06457 190.282744 
L 181.940253 189.77102 
L 184.791983 189.287979 
L 187.621216 188.833027 
L 190.429366 188.40561 
L 193.217806 188.005212 
L 195.987873 187.631355 
L 198.740867 187.283595 
L 201.478062 186.961525 
L 204.200698 186.664767 
L 206.909993 186.392977 
L 209.607138 186.145843 
L 212.293304 185.92308 
L 214.969643 185.724436 
L 217.637289 185.549683 
L 220.297361 185.398626 
L 222.950965 185.271094 
L 225.599195 185.166943 
L 228.243139 185.086057 
L 230.883872 185.028346 
L 233.52247 184.993744 
L 236.16 184.982215 
L 238.79753 184.993744 
L 241.436128 185.028346 
L 244.076861 185.086057 
L 246.720805 185.166943 
L 249.369035 185.271094 
L 252.022639 185.398626 
L 254.682711 185.549683 
L 257.350357 185.724436 
L 260.026696 185.92308 
L 262.712862 186.145843 
L 265.410007 186.392977 
L 268.119302 186.664767 
L 270.841938 186.961525 
L 273.579133 187.283595 
L 276.332127 187.631355 
L 279.102194 188.005212 
L 281.890634 188.40561 
L 284.698784 188.833027 
L 287.528017 189.287979 
L 290.379747 189.77102 
L 293.25543 190.282744 
L 296.156569 190.823785 
L 299.084717 191.394824 
L 302.04148 191.996587 
L 305.028523 192.629846 
L 308.047573 193.295427 
L 311.100423 193.994207 
L 314.18894 194.727121 
L 317.315065 195.495165 
L 320.480823 196.299394 
L 323.688328 197.140935 
L 326.939789 198.020982 
L 330.237517 198.940806 
L 333.583932 199.90176 
L 336.981574 200.905281 
L 340.433109 201.952896 
L 343.941338 203.046232 
L 347.50921 204.18702 
L 351.139832 205.377101 
L 354.836483 206.618438 
L 358.602622 207.91312 
L 362.44191 209.263378 
L 366.358221 210.671587 
L 370.35566 212.140287 
L 374.438586 213.672189 
L 378.611626 215.270191 
L 382.879706 216.937394 
L 387.24807 218.677119 
L 391.722312 220.492924 
L 396.308406 222.388629 
" clip-path="url(#p6cfe9f0db4)" style="fill: none; stroke: #000000; stroke-width: 1.5; stroke-linecap: square"/>
   </g>
   <g id="line2d_28">
    <path d="M 55.295263 183.518979 
L 60.793273 181.997482 
L 66.132536 180.545278 
L 71.322408 179.158638 
L 76.371575 177.834111 
L 81.288113 176.568503 
L 86.079545 175.35885 
L 90.752884 174.202402 
L 95.314685 173.096605 
L 99.771075 172.039079 
L 104.127797 171.027613 
L 108.390235 170.060143 
L 112.56345 169.134744 
L 116.652198 168.249622 
L 120.660962 167.403099 
L 124.59397 166.593606 
L 128.455211 165.819678 
L 132.248462 165.079943 
L 135.977297 164.373116 
L 139.645103 163.697995 
L 143.255098 163.053453 
L 146.810339 162.438435 
L 150.313737 161.851953 
L 153.768066 161.293079 
L 157.175973 160.760944 
L 160.539989 160.254737 
L 163.862534 159.773694 
L 167.14593 159.317103 
L 170.392402 158.884296 
L 173.60409 158.474649 
L 176.783053 158.087579 
L 179.931276 157.722543 
L 183.050676 157.379032 
L 186.143102 157.056577 
L 189.21035 156.754737 
L 192.254157 156.473108 
L 195.276213 156.211314 
L 198.27816 155.969009 
L 201.2616 155.745875 
L 204.228095 155.541623 
L 207.179175 155.355989 
L 210.116335 155.188734 
L 213.041047 155.039646 
L 215.954752 154.908535 
L 218.858875 154.795236 
L 221.754819 154.699606 
L 224.643971 154.621526 
L 227.527705 154.560897 
L 230.407385 154.517645 
L 233.284366 154.491715 
L 236.16 154.483075 
L 239.035634 154.491715 
L 241.912615 154.517645 
L 244.792295 154.560897 
L 247.676029 154.621526 
L 250.565181 154.699606 
L 253.461125 154.795236 
L 256.365248 154.908535 
L 259.278953 155.039646 
L 262.203665 155.188734 
L 265.140825 155.355989 
L 268.091905 155.541623 
L 271.0584 155.745875 
L 274.04184 155.969009 
L 277.043787 156.211314 
L 280.065843 156.473108 
L 283.10965 156.754737 
L 286.176898 157.056577 
L 289.269324 157.379032 
L 292.388724 157.722543 
L 295.536947 158.087579 
L 298.71591 158.474649 
L 301.927598 158.884296 
L 305.17407 159.317103 
L 308.457466 159.773694 
L 311.780011 160.254737 
L 315.144027 160.760944 
L 318.551934 161.293079 
L 322.006263 161.851953 
L 325.509661 162.438435 
L 329.064902 163.053453 
L 332.674897 163.697995 
L 336.342703 164.373116 
L 340.071538 165.079943 
L 343.864789 165.819678 
L 347.72603 166.593606 
L 351.659038 167.403099 
L 355.667802 168.249622 
L 359.75655 169.134744 
L 363.929765 170.060143 
L 368.192203 171.027613 
L 372.548925 172.039079 
L 377.005315 173.096605 
L 381.567116 174.202402 
L 386.240455 175.35885 
L 391.031887 176.568503 
L 395.948425 177.834111 
L 400.997592 179.158638 
L 406.187464 180.545278 
L 411.526727 181.997482 
L 417.024737 183.518979 
" clip-path="url(#p6cfe9f0db4)" style="fill: none; stroke: #000000; stroke-width: 1.5; stroke-linecap: square"/>
   </g>
   <g id="line2d_29">
    <path d="M 32.080228 139.961058 
L 38.685339 139.024501 
L 45.067691 138.134134 
L 51.241745 137.287172 
L 57.220808 136.481056 
L 63.017142 135.713439 
L 68.642069 134.982161 
L 74.106061 134.28523 
L 79.418823 133.620809 
L 84.589364 132.987202 
L 89.626059 132.382837 
L 94.536706 131.806263 
L 99.32858 131.25613 
L 104.008478 130.731187 
L 108.582759 130.230274 
L 113.05738 129.752309 
L 117.437935 129.296288 
L 121.729677 128.861274 
L 125.937555 128.446396 
L 130.066231 128.05084 
L 134.120108 127.67385 
L 138.103345 127.314716 
L 142.019885 126.972779 
L 145.873461 126.647424 
L 149.667621 126.338073 
L 153.405739 126.04419 
L 157.091027 125.765275 
L 160.72655 125.500857 
L 164.315235 125.250502 
L 167.859882 125.013802 
L 171.363177 124.790377 
L 174.827695 124.579875 
L 178.255913 124.381968 
L 181.650217 124.19635 
L 185.012908 124.02274 
L 188.34621 123.860876 
L 191.652274 123.710518 
L 194.93319 123.571443 
L 198.190984 123.443449 
L 201.427632 123.32635 
L 204.645059 123.219978 
L 207.845146 123.124182 
L 211.029735 123.038825 
L 214.200634 122.963788 
L 217.359619 122.898965 
L 220.508441 122.844266 
L 223.648827 122.799615 
L 226.782487 122.764951 
L 229.911115 122.740224 
L 233.036394 122.725402 
L 236.16 122.720464 
L 239.283606 122.725402 
L 242.408885 122.740224 
L 245.537513 122.764951 
L 248.671173 122.799615 
L 251.811559 122.844266 
L 254.960381 122.898965 
L 258.119366 122.963788 
L 261.290265 123.038825 
L 264.474854 123.124182 
L 267.674941 123.219978 
L 270.892368 123.32635 
L 274.129016 123.443449 
L 277.38681 123.571443 
L 280.667726 123.710518 
L 283.97379 123.860876 
L 287.307092 124.02274 
L 290.669783 124.19635 
L 294.064087 124.381968 
L 297.492305 124.579875 
L 300.956823 124.790377 
L 304.460118 125.013802 
L 308.004765 125.250502 
L 311.59345 125.500857 
L 315.228973 125.765275 
L 318.914261 126.04419 
L 322.652379 126.338073 
L 326.446539 126.647424 
L 330.300115 126.972779 
L 334.216655 127.314716 
L 338.199892 127.67385 
L 342.253769 128.05084 
L 346.382445 128.446396 
L 350.590323 128.861274 
L 354.882065 129.296288 
L 359.26262 129.752309 
L 363.737241 130.230274 
L 368.311522 130.731187 
L 372.99142 131.25613 
L 377.783294 131.806263 
L 382.693941 132.382837 
L 387.730636 132.987202 
L 392.901177 133.620809 
L 398.213939 134.28523 
L 403.677931 134.982161 
L 409.302858 135.713439 
L 415.099192 136.481056 
L 421.078255 137.287172 
L 427.252309 138.134134 
L 433.634661 139.024501 
L 440.239772 139.961058 
" clip-path="url(#p6cfe9f0db4)" style="fill: none; stroke: #000000; stroke-width: 1.5; stroke-linecap: square"/>
   </g>
   <g id="line2d_30">
    <path d="M 4.088986 87.441634 
L 12.147952 87.441634 
L 19.889645 87.441634 
L 27.336888 87.441634 
L 34.510455 87.441634 
L 41.429298 87.441634 
L 48.110747 87.441634 
L 54.570682 87.441634 
L 60.823688 87.441634 
L 66.883183 87.441634 
L 72.76154 87.441634 
L 78.470186 87.441634 
L 84.019701 87.441634 
L 89.419891 87.441634 
L 94.679863 87.441634 
L 99.808094 87.441634 
L 104.812483 87.441634 
L 109.700403 87.441634 
L 114.478752 87.441634 
L 119.15399 87.441634 
L 123.732177 87.441634 
L 128.219009 87.441634 
L 132.619849 87.441634 
L 136.939751 87.441634 
L 141.18349 87.441634 
L 145.355582 87.441634 
L 149.460305 87.441634 
L 153.501721 87.441634 
L 157.483689 87.441634 
L 161.409887 87.441634 
L 165.283821 87.441634 
L 169.108842 87.441634 
L 172.888159 87.441634 
L 176.62485 87.441634 
L 180.32187 87.441634 
L 183.982066 87.441634 
L 187.608183 87.441634 
L 191.202875 87.441634 
L 194.768711 87.441634 
L 198.308186 87.441634 
L 201.823723 87.441634 
L 205.317687 87.441634 
L 208.792385 87.441634 
L 212.250076 87.441634 
L 215.692978 87.441634 
L 219.123271 87.441634 
L 222.543103 87.441634 
L 225.954596 87.441634 
L 229.359854 87.441634 
L 232.760963 87.441634 
L 236.16 87.441634 
L 239.559037 87.441634 
L 242.960146 87.441634 
L 246.365404 87.441634 
L 249.776897 87.441634 
L 253.196729 87.441634 
L 256.627022 87.441634 
L 260.069924 87.441634 
L 263.527615 87.441634 
L 267.002313 87.441634 
L 270.496277 87.441634 
L 274.011814 87.441634 
L 277.551289 87.441634 
L 281.117125 87.441634 
L 284.711817 87.441634 
L 288.337934 87.441634 
L 291.99813 87.441634 
L 295.69515 87.441634 
L 299.431841 87.441634 
L 303.211158 87.441634 
L 307.036179 87.441634 
L 310.910113 87.441634 
L 314.836311 87.441634 
L 318.818279 87.441634 
L 322.859695 87.441634 
L 326.964418 87.441634 
L 331.13651 87.441634 
L 335.380249 87.441634 
L 339.700151 87.441634 
L 344.100991 87.441634 
L 348.587823 87.441634 
L 353.16601 87.441634 
L 357.841248 87.441634 
L 362.619597 87.441634 
L 367.507517 87.441634 
L 372.511906 87.441634 
L 377.640137 87.441634 
L 382.900109 87.441634 
L 388.300299 87.441634 
L 393.849814 87.441634 
L 399.55846 87.441634 
L 405.436817 87.441634 
L 411.496312 87.441634 
L 417.749318 87.441634 
L 424.209253 87.441634 
L 430.890702 87.441634 
L 437.809545 87.441634 
L 444.983112 87.441634 
L 452.430355 87.441634 
L 460.172048 87.441634 
L 461.8 87.441634 
" clip-path="url(#p6cfe9f0db4)" style="fill: none; stroke: #000000; stroke-width: 1.5; stroke-linecap: square"/>
   </g>
   <g id="line2d_31">
    <path d="M -1 23.201351 
L 5.197477 24.144887 
L 13.691409 25.417935 
L 21.84373 26.620035 
L 29.679777 27.756099 
L 37.22256 28.830572 
L 44.493027 29.84749 
L 51.510296 30.810523 
L 58.291853 31.723016 
L 64.853731 32.588021 
L 71.210657 33.40833 
L 77.376191 34.186499 
L 83.362846 34.924874 
L 89.182184 35.625608 
L 94.844919 36.290683 
L 100.360992 36.921923 
L 105.739644 37.52101 
L 110.989487 38.089494 
L 116.118555 38.628809 
L 121.134362 39.140278 
L 126.043943 39.625127 
L 130.853902 40.084488 
L 135.570446 40.51941 
L 140.199423 40.930866 
L 144.746347 41.319753 
L 149.216435 41.686905 
L 153.614625 42.033093 
L 157.945603 42.359032 
L 162.213825 42.66538 
L 166.423535 42.952748 
L 170.578784 43.2217 
L 174.683448 43.472755 
L 178.74124 43.706391 
L 182.755727 43.923046 
L 186.730344 44.123123 
L 190.668403 44.306989 
L 194.573109 44.474976 
L 198.447565 44.627387 
L 202.294788 44.764493 
L 206.117717 44.886536 
L 209.919219 44.99373 
L 213.702101 45.086261 
L 217.46912 45.164289 
L 221.222985 45.227949 
L 224.96637 45.27735 
L 228.701922 45.312577 
L 232.432262 45.333689 
L 236.16 45.340722 
L 239.887738 45.333689 
L 243.618078 45.312577 
L 247.35363 45.27735 
L 251.097015 45.227949 
L 254.85088 45.164289 
L 258.617899 45.086261 
L 262.400781 44.99373 
L 266.202283 44.886536 
L 270.025212 44.764493 
L 273.872435 44.627387 
L 277.746891 44.474976 
L 281.651597 44.306989 
L 285.589656 44.123123 
L 289.564273 43.923046 
L 293.57876 43.706391 
L 297.636552 43.472755 
L 301.741216 43.2217 
L 305.896465 42.952748 
L 310.106175 42.66538 
L 314.374397 42.359032 
L 318.705375 42.033093 
L 323.103565 41.686905 
L 327.573653 41.319753 
L 332.120577 40.930866 
L 336.749554 40.51941 
L 341.466098 40.084488 
L 346.276057 39.625127 
L 351.185638 39.140278 
L 356.201445 38.628809 
L 361.330513 38.089494 
L 366.580356 37.52101 
L 371.959008 36.921923 
L 377.475081 36.290683 
L 383.137816 35.625608 
L 388.957154 34.924874 
L 394.943809 34.186499 
L 401.109343 33.40833 
L 407.466269 32.588021 
L 414.028147 31.723016 
L 420.809704 30.810523 
L 427.826973 29.84749 
L 435.09744 28.830572 
L 442.640223 27.756099 
L 450.47627 26.620035 
L 458.628591 25.417935 
L 461.8 24.942613 
" clip-path="url(#p6cfe9f0db4)" style="fill: none; stroke: #000000; stroke-width: 1.5; stroke-linecap: square"/>
   </g>
   <g id="line2d_32">
    <path clip-path="url(#p6cfe9f0db4)" style="fill: none; stroke: #000000; stroke-width: 1.5; stroke-linecap: square"/>
   </g>
   <g id="line2d_33">
    <path d="M 102.928508 134.393951 
L 101.669716 135.748752 
L 101.273232 139.512812 
L 105.022928 155.198317 
L 104.374927 160.451997 
L 103.507246 161.5042 
L 101.54476 162.459053 
L 97.212392 161.863837 
L 95.4121 160.42958 
L 90.763839 160.28553 
L 80.41554 157.921058 
L 77.186289 156.665416 
L 74.500582 154.95157 
L 75.427461 151.671626 
L 74.275479 149.800854 
L 76.370104 148.04881 
L 77.223162 145.141073 
L 74.68657 144.194278 
L 67.839 145.392022 
L 65.05895 144.62564 
L 55.259648 144.354749 
L 52.869032 145.669481 
L 52.52563 147.342722 
L 44.066794 149.755875 
L 42.041986 151.158866 
L 40.056627 156.105731 
L 39.566682 161.077657 
L 36.889294 163.29699 
L 33.883409 164.259519 
L 25.890191 161.817478 
L 22.192214 161.357756 
L 13.424735 166.920232 
L 12.23508 170.349983 
L 9.255682 172.063725 
L 9.779408 175.128421 
L 6.718751 180.483538 
L 3.409705 182.241497 
L -1 183.013583 
M -1 268.334392 
L -0.06693 268.591481 
L 5.740769 275.264477 
L 3.097594 280.326766 
L 5.649493 281.710422 
L 8.656138 280.275325 
L 18.057593 278.633981 
L 25.516197 274.135891 
L 32.732485 265.855626 
L 33.606918 263.345883 
L 40.182506 259.025873 
L 53.149773 252.320167 
L 54.3804 250.146727 
L 54.922178 246.60994 
L 62.40281 239.229294 
L 68.257962 236.503861 
L 74.632329 230.885014 
L 85.145093 225.534667 
L 92.995929 224.627445 
L 96.436106 223.714198 
L 100.644808 226.042441 
L 102.527441 226.050877 
L 106.60581 229.177776 
L 108.647704 228.902174 
L 109.754027 225.918629 
L 112.198878 223.257369 
L 115.900086 225.377951 
L 118.499692 225.693812 
L 118.936378 226.938407 
L 120.933263 227.511537 
L 122.63267 227.365413 
L 125.451784 229.691524 
L 125.756566 231.426299 
L 126.537238 232.38263 
L 130.571322 233.671859 
L 133.727975 233.518427 
L 136.639762 232.490858 
L 139.924449 232.656022 
L 141.178578 231.558723 
L 142.491996 228.945227 
L 144.186212 228.07451 
L 147.102971 229.59088 
L 148.26491 229.664228 
L 150.413301 227.759491 
L 152.654493 224.469159 
L 157.470286 222.088339 
L 158.185354 221.222959 
L 157.603978 219.767923 
L 157.544451 214.989094 
L 159.519807 205.011164 
L 161.519186 201.691153 
L 162.057314 198.048878 
L 161.768475 196.329131 
L 162.168865 189.223579 
L 159.561195 184.423923 
L 158.715568 181.526016 
L 157.109162 178.795776 
L 155.728247 177.564833 
L 149.981325 174.482786 
L 148.571221 173.066906 
L 148.4569 171.699748 
L 143.382136 170.386792 
L 142.704663 168.932412 
L 137.82832 164.482153 
L 134.905296 163.861184 
L 133.285838 162.73722 
L 129.725993 162.412231 
L 128.220094 161.225773 
L 126.712404 159.723392 
L 126.19243 157.142162 
L 122.259958 153.043206 
L 119.063131 147.875506 
L 114.686564 146.900449 
L 111.772823 145.596622 
L 108.999609 140.545767 
L 102.928508 134.393951 
M 219.131952 346.6 
L 219.051489 346.412248 
L 217.438239 345.82631 
L 216.500056 346.500641 
L 213.735499 346.352268 
L 213.462396 346.6 
M 211.545067 346.6 
L 211.069813 346.11192 
L 208.50647 346.336863 
L 206.879561 344.53639 
L 202.685055 343.013057 
L 198.998451 344.883467 
L 198.12982 344.219206 
L 197.591125 342.104196 
L 196.612741 343.145762 
L 196.917389 343.889061 
L 196.163526 345.289535 
L 194.499977 345.587668 
L 193.77136 346.6 
M 192.678363 346.6 
L 192.469073 346.331162 
L 192.286638 345.0634 
L 188.929893 346.6 
M 188.677023 346.6 
L 187.3656 346.274439 
L 187.071403 344.997586 
L 185.826391 346.352823 
L 181.78213 346.141898 
L 181.947562 344.581341 
L 181.44265 344.106796 
L 176.987451 346.176956 
L 176.822992 346.6 
L 176.822992 346.6 
" clip-path="url(#p6cfe9f0db4)" style="fill: none; stroke: #0000ff; stroke-width: 1.5; stroke-linecap: square"/>
   </g>
   <g id="line2d_34">
    <path d="M 109.616326 133.41126 
L 157.951738 282.17211 
L 314.368262 282.17211 
L 362.703674 133.41126 
L 236.16 41.472003 
L 109.616326 133.41126 
" clip-path="url(#p6cfe9f0db4)" style="fill: none; stroke: #008000; stroke-width: 1.5; stroke-linecap: square"/>
   </g>
   <g id="patch_3">
    <path d="M 103.104 307.584 
L 103.104 41.472 
" style="fill: none; stroke: #000000; stroke-width: 0.8; stroke-linejoin: miter; stroke-linecap: square"/>
   </g>
   <g id="patch_4">
    <path d="M 369.216 307.584 
L 369.216 41.472 
" style="fill: none; stroke: #000000; stroke-width: 0.8; stroke-linejoin: miter; stroke-linecap: square"/>
   </g>
   <g id="patch_5">
    <path d="M 103.104 307.584 
L 369.216 307.584 
" style="fill: none; stroke: #000000; stroke-width: 0.8; stroke-linejoin: miter; stroke-linecap: square"/>
   </g>
   <g id="patch_6">
    <path d="M 103.104 41.472 
L 369.216 41.472 
" style="fill: none; stroke: #000000; stroke-width: 0.8; stroke-linejoin: miter; stroke-linecap: square"/>
   </g>
  </g>
 </g>
 <defs>
  <clipPath id="p6cfe9f0db4">
   <rect x="103.104" y="41.472" width="266.112" height="266.112"/>
  </clipPath>
 </defs>
</svg>
