<?xml version="1.0" encoding="utf-8" standalone="no"?>
<!DOCTYPE svg PUBLIC "-//W3C//DTD SVG 1.1//EN"
  "http://www.w3.org/Graphics/SVG/1.1/DTD/svg11.dtd">
<svg xmlns:xlink="http://www.w3.org/1999/xlink" width="460.8pt" height="345.6pt" viewBox="0 0 460.8 345.6" xmlns="http://www.w3.org/2000/svg" version="1.1">
 <metadata>
  <rdf:RDF xmlns:dc="http://purl.org/dc/elements/1.1/" xmlns:cc="http://creativecommons.org/ns#" xmlns:rdf="http://www.w3.org/1999/02/22-rdf-syntax-ns#">
   <cc:Work>
    <dc:type rdf:resource="http://purl.org/dc/dcmitype/StillImage"/>
    <dc:date>2025-06-01T22:06:10.121956</dc:date>
    <dc:format>image/svg+xml</dc:format>
    <dc:creator>
     <cc:Agent>
      <dc:title>Matplotlib v3.6.3, https://matplotlib.org/</dc:title>
     </cc:Agent>
    </dc:creator>
   </cc:Work>
  </rdf:RDF>
 </metadata>
 <defs>
  <style type="text/css">*{stroke-linejoin: round; stroke-linecap: butt}</style>
 </defs>
 <g id="figure_1">
  <g id="patch_1">
   <path d="M 0 345.6 
L 460.8 345.6 
L 460.8 0 
L 0 0 
z
" style="fill: #ffffff"/>
  </g>
  <g id="axes_1">
   <g id="patch_2">
    <path d="M 103.104 307.584 
L 369.216 307.584 
L 369.216 41.472 
L 103.104 41.472 
z
" style="fill: #ffffff"/>
   </g>
   <g id="matplotlib.axis_1">
    <g id="xtick_1">
     <g id="line2d_1">
      <defs>
       <path id="ma1ebc358be" d="M 0 0 
L 0 3.5 
" style="stroke: #000000; stroke-width: 0.8"/>
      </defs>
      <g>
       <use xlink:href="#ma1ebc358be" x="126.929132" y="307.584" style="stroke: #000000; stroke-width: 0.8"/>
      </g>
     </g>
     <g id="text_1">
      <!-- −4 -->
      <g transform="translate(119.558038 322.182437) scale(0.1 -0.1)">
       <defs>
        <path id="DejaVuSans-2212" d="M 678 2272 
L 4684 2272 
L 4684 1741 
L 678 1741 
L 678 2272 
z
" transform="scale(0.015625)"/>
        <path id="DejaVuSans-34" d="M 2419 4116 
L 825 1625 
L 2419 1625 
L 2419 4116 
z
M 2253 4666 
L 3047 4666 
L 3047 1625 
L 3713 1625 
L 3713 1100 
L 3047 1100 
L 3047 0 
L 2419 0 
L 2419 1100 
L 313 1100 
L 313 1709 
L 2253 4666 
z
" transform="scale(0.015625)"/>
       </defs>
       <use xlink:href="#DejaVuSans-2212"/>
       <use xlink:href="#DejaVuSans-34" x="83.789062"/>
      </g>
     </g>
    </g>
    <g id="xtick_2">
     <g id="line2d_2">
      <g>
       <use xlink:href="#ma1ebc358be" x="181.544566" y="307.584" style="stroke: #000000; stroke-width: 0.8"/>
      </g>
     </g>
     <g id="text_2">
      <!-- −2 -->
      <g transform="translate(174.173472 322.182437) scale(0.1 -0.1)">
       <defs>
        <path id="DejaVuSans-32" d="M 1228 531 
L 3431 531 
L 3431 0 
L 469 0 
L 469 531 
Q 828 903 1448 1529 
Q 2069 2156 2228 2338 
Q 2531 2678 2651 2914 
Q 2772 3150 2772 3378 
Q 2772 3750 2511 3984 
Q 2250 4219 1831 4219 
Q 1534 4219 1204 4116 
Q 875 4013 500 3803 
L 500 4441 
Q 881 4594 1212 4672 
Q 1544 4750 1819 4750 
Q 2544 4750 2975 4387 
Q 3406 4025 3406 3419 
Q 3406 3131 3298 2873 
Q 3191 2616 2906 2266 
Q 2828 2175 2409 1742 
Q 1991 1309 1228 531 
z
" transform="scale(0.015625)"/>
       </defs>
       <use xlink:href="#DejaVuSans-2212"/>
       <use xlink:href="#DejaVuSans-32" x="83.789062"/>
      </g>
     </g>
    </g>
    <g id="xtick_3">
     <g id="line2d_3">
      <g>
       <use xlink:href="#ma1ebc358be" x="236.16" y="307.584" style="stroke: #000000; stroke-width: 0.8"/>
      </g>
     </g>
     <g id="text_3">
      <!-- 0 -->
      <g transform="translate(232.97875 322.182437) scale(0.1 -0.1)">
       <defs>
        <path id="DejaVuSans-30" d="M 2034 4250 
Q 1547 4250 1301 3770 
Q 1056 3291 1056 2328 
Q 1056 1369 1301 889 
Q 1547 409 2034 409 
Q 2525 409 2770 889 
Q 3016 1369 3016 2328 
Q 3016 3291 2770 3770 
Q 2525 4250 2034 4250 
z
M 2034 4750 
Q 2819 4750 3233 4129 
Q 3647 3509 3647 2328 
Q 3647 1150 3233 529 
Q 2819 -91 2034 -91 
Q 1250 -91 836 529 
Q 422 1150 422 2328 
Q 422 3509 836 4129 
Q 1250 4750 2034 4750 
z
" transform="scale(0.015625)"/>
       </defs>
       <use xlink:href="#DejaVuSans-30"/>
      </g>
     </g>
    </g>
    <g id="xtick_4">
     <g id="line2d_4">
      <g>
       <use xlink:href="#ma1ebc358be" x="290.775434" y="307.584" style="stroke: #000000; stroke-width: 0.8"/>
      </g>
     </g>
     <g id="text_4">
      <!-- 2 -->
      <g transform="translate(287.594184 322.182437) scale(0.1 -0.1)">
       <use xlink:href="#DejaVuSans-32"/>
      </g>
     </g>
    </g>
    <g id="xtick_5">
     <g id="line2d_5">
      <g>
       <use xlink:href="#ma1ebc358be" x="345.390868" y="307.584" style="stroke: #000000; stroke-width: 0.8"/>
      </g>
     </g>
     <g id="text_5">
      <!-- 4 -->
      <g transform="translate(342.209618 322.182437) scale(0.1 -0.1)">
       <use xlink:href="#DejaVuSans-34"/>
      </g>
     </g>
    </g>
    <g id="text_6">
     <!-- 1e6 -->
     <g transform="translate(350.337875 334.860562) scale(0.1 -0.1)">
      <defs>
       <path id="DejaVuSans-31" d="M 794 531 
L 1825 531 
L 1825 4091 
L 703 3866 
L 703 4441 
L 1819 4666 
L 2450 4666 
L 2450 531 
L 3481 531 
L 3481 0 
L 794 0 
L 794 531 
z
" transform="scale(0.015625)"/>
       <path id="DejaVuSans-65" d="M 3597 1894 
L 3597 1613 
L 953 1613 
Q 991 1019 1311 708 
Q 1631 397 2203 397 
Q 2534 397 2845 478 
Q 3156 559 3463 722 
L 3463 178 
Q 3153 47 2828 -22 
Q 2503 -91 2169 -91 
Q 1331 -91 842 396 
Q 353 884 353 1716 
Q 353 2575 817 3079 
Q 1281 3584 2069 3584 
Q 2775 3584 3186 3129 
Q 3597 2675 3597 1894 
z
M 3022 2063 
Q 3016 2534 2758 2815 
Q 2500 3097 2075 3097 
Q 1594 3097 1305 2825 
Q 1016 2553 972 2059 
L 3022 2063 
z
" transform="scale(0.015625)"/>
       <path id="DejaVuSans-36" d="M 2113 2584 
Q 1688 2584 1439 2293 
Q 1191 2003 1191 1497 
Q 1191 994 1439 701 
Q 1688 409 2113 409 
Q 2538 409 2786 701 
Q 3034 994 3034 1497 
Q 3034 2003 2786 2293 
Q 2538 2584 2113 2584 
z
M 3366 4563 
L 3366 3988 
Q 3128 4100 2886 4159 
Q 2644 4219 2406 4219 
Q 1781 4219 1451 3797 
Q 1122 3375 1075 2522 
Q 1259 2794 1537 2939 
Q 1816 3084 2150 3084 
Q 2853 3084 3261 2657 
Q 3669 2231 3669 1497 
Q 3669 778 3244 343 
Q 2819 -91 2113 -91 
Q 1303 -91 875 529 
Q 447 1150 447 2328 
Q 447 3434 972 4092 
Q 1497 4750 2381 4750 
Q 2619 4750 2861 4703 
Q 3103 4656 3366 4563 
z
" transform="scale(0.015625)"/>
      </defs>
      <use xlink:href="#DejaVuSans-31"/>
      <use xlink:href="#DejaVuSans-65" x="63.623047"/>
      <use xlink:href="#DejaVuSans-36" x="125.146484"/>
     </g>
    </g>
   </g>
   <g id="matplotlib.axis_2">
    <g id="ytick_1">
     <g id="line2d_6">
      <defs>
       <path id="m8cedde7f52" d="M 0 0 
L -3.5 0 
" style="stroke: #000000; stroke-width: 0.8"/>
      </defs>
      <g>
       <use xlink:href="#m8cedde7f52" x="103.104" y="283.758868" style="stroke: #000000; stroke-width: 0.8"/>
      </g>
     </g>
     <g id="text_7">
      <!-- −4 -->
      <g transform="translate(81.361813 287.558087) scale(0.1 -0.1)">
       <use xlink:href="#DejaVuSans-2212"/>
       <use xlink:href="#DejaVuSans-34" x="83.789062"/>
      </g>
     </g>
    </g>
    <g id="ytick_2">
     <g id="line2d_7">
      <g>
       <use xlink:href="#m8cedde7f52" x="103.104" y="229.143434" style="stroke: #000000; stroke-width: 0.8"/>
      </g>
     </g>
     <g id="text_8">
      <!-- −2 -->
      <g transform="translate(81.361813 232.942653) scale(0.1 -0.1)">
       <use xlink:href="#DejaVuSans-2212"/>
       <use xlink:href="#DejaVuSans-32" x="83.789062"/>
      </g>
     </g>
    </g>
    <g id="ytick_3">
     <g id="line2d_8">
      <g>
       <use xlink:href="#m8cedde7f52" x="103.104" y="174.528" style="stroke: #000000; stroke-width: 0.8"/>
      </g>
     </g>
     <g id="text_9">
      <!-- 0 -->
      <g transform="translate(89.7415 178.327219) scale(0.1 -0.1)">
       <use xlink:href="#DejaVuSans-30"/>
      </g>
     </g>
    </g>
    <g id="ytick_4">
     <g id="line2d_9">
      <g>
       <use xlink:href="#m8cedde7f52" x="103.104" y="119.912566" style="stroke: #000000; stroke-width: 0.8"/>
      </g>
     </g>
     <g id="text_10">
      <!-- 2 -->
      <g transform="translate(89.7415 123.711785) scale(0.1 -0.1)">
       <use xlink:href="#DejaVuSans-32"/>
      </g>
     </g>
    </g>
    <g id="ytick_5">
     <g id="line2d_10">
      <g>
       <use xlink:href="#m8cedde7f52" x="103.104" y="65.297132" style="stroke: #000000; stroke-width: 0.8"/>
      </g>
     </g>
     <g id="text_11">
      <!-- 4 -->
      <g transform="translate(89.7415 69.09635) scale(0.1 -0.1)">
       <use xlink:href="#DejaVuSans-34"/>
      </g>
     </g>
    </g>
    <g id="text_12">
     <!-- 1e6 -->
     <g transform="translate(103.104 38.472) scale(0.1 -0.1)">
      <use xlink:href="#DejaVuSans-31"/>
      <use xlink:href="#DejaVuSans-65" x="63.623047"/>
      <use xlink:href="#DejaVuSans-36" x="125.146484"/>
     </g>
    </g>
   </g>
   <g id="line2d_11">
    <path d="M 119.287702 346.6 
L 117.399078 343.751494 
L 114.697517 339.676879 
L 112.021456 335.640725 
L 109.368928 331.640065 
L 106.738028 327.672025 
L 104.126909 323.73382 
L 101.533775 319.822739 
L 98.956875 315.936145 
L 96.394502 312.071461 
L 93.844986 308.226167 
L 91.306686 304.39779 
L 88.777992 300.583902 
L 86.257316 296.782108 
L 83.743093 292.990044 
L 81.23377 289.205372 
L 78.727807 285.425768 
L 76.223675 281.648924 
L 73.719845 277.872537 
L 71.214792 274.094306 
L 68.706987 270.311924 
L 66.194895 266.523075 
L 63.676969 262.725427 
L 61.151648 258.916627 
L 58.617355 255.094293 
L 56.072488 251.256011 
L 53.515419 247.399327 
L 50.944491 243.52174 
L 48.358012 239.620697 
L 45.754248 235.693584 
L 43.131422 231.737723 
L 40.487709 227.750357 
L 37.821226 223.72865 
L 35.130033 219.669672 
L 32.412119 215.570395 
L 29.665405 211.427678 
L 26.887728 207.238263 
L 24.07684 202.998757 
L 21.230397 198.705626 
L 18.345953 194.355179 
L 15.420947 189.943555 
L 12.452696 185.466708 
L 9.438385 180.920391 
L 6.375053 176.300137 
L 3.259579 171.601242 
L 0.088674 166.818743 
L -1 165.176756 
" clip-path="url(#p9b873b799f)" style="fill: none; stroke: #000000; stroke-width: 1.5; stroke-linecap: square"/>
   </g>
   <g id="line2d_12">
    <path d="M 154.527737 346.6 
L 152.579803 342.393744 
L 150.486898 337.874446 
L 148.429723 333.432302 
L 146.406149 329.062714 
L 144.414156 324.761319 
L 142.451823 320.523972 
L 140.517324 316.346727 
L 138.608917 312.225822 
L 136.724936 308.157664 
L 134.86379 304.138813 
L 133.023952 300.165972 
L 131.203955 296.235976 
L 129.402388 292.345778 
L 127.617893 288.492441 
L 125.849153 284.673128 
L 124.094899 280.885094 
L 122.353897 277.125673 
L 120.624947 273.392279 
L 118.906881 269.682388 
L 117.198561 265.993541 
L 115.498871 262.323328 
L 113.806717 258.66939 
L 112.121025 255.029404 
L 110.440737 251.401086 
L 108.764806 247.782179 
L 107.092199 244.170448 
L 105.421889 240.563677 
L 103.752855 236.959663 
L 102.08408 233.356207 
L 100.414547 229.751113 
L 98.743237 226.142182 
L 97.069126 222.527205 
L 95.391185 218.903956 
L 93.708374 215.270191 
L 92.019641 211.62364 
L 90.323921 207.962001 
L 88.620131 204.282933 
L 86.907165 200.584055 
L 85.183898 196.862931 
L 83.449176 193.117073 
L 81.701816 189.343926 
L 79.940604 185.540867 
L 78.164288 181.705192 
L 76.371575 177.834111 
L 74.561129 173.92474 
L 72.731566 169.974088 
L 70.881449 165.979053 
L 69.009283 161.936404 
L 67.113508 157.842778 
L 65.192498 153.694661 
L 63.244552 149.488378 
L 61.267885 145.220079 
L 59.260627 140.885721 
L 57.220808 136.481056 
L 55.146358 132.001607 
L 53.035088 127.442653 
L 50.884688 122.799205 
L 48.692712 118.065979 
L 46.456568 113.237379 
L 44.173501 108.307457 
L 41.840584 103.26989 
L 39.454695 98.117939 
L 37.012505 92.844416 
L 34.510455 87.441634 
L 31.944734 81.901366 
L 29.311257 76.214787 
L 26.605632 70.372418 
L 23.823135 64.364056 
L 20.958673 58.178703 
L 18.006745 51.80448 
L 14.961399 45.228535 
L 11.816181 38.436934 
L 8.564083 31.414542 
L 5.197477 24.144887 
L 1.708042 16.610004 
L -1 10.762415 
" clip-path="url(#p9b873b799f)" style="fill: none; stroke: #000000; stroke-width: 1.5; stroke-linecap: square"/>
   </g>
   <g id="line2d_13">
    <path d="M 178.885664 346.6 
L 178.55408 345.579489 
L 176.916937 340.540892 
L 175.318298 335.620795 
L 173.755879 330.812171 
L 172.227542 326.108442 
L 170.731283 321.503437 
L 169.265218 316.991361 
L 167.827575 312.566759 
L 166.416685 308.224493 
L 165.030971 303.959711 
L 163.668943 299.767828 
L 162.32919 295.644499 
L 161.010373 291.585603 
L 159.711219 287.587226 
L 158.430518 283.64564 
L 157.167115 279.757293 
L 155.919908 275.918789 
L 154.68784 272.126882 
L 153.469901 268.378458 
L 152.26512 264.670528 
L 151.072561 261.000216 
L 149.891324 257.364748 
L 148.720538 253.761445 
L 147.559361 250.187717 
L 146.406976 246.641047 
L 145.26259 243.118993 
L 144.125428 239.619174 
L 142.994736 236.139268 
L 141.869775 232.677001 
L 140.749822 229.230146 
L 139.634165 225.796514 
L 138.522104 222.373946 
L 137.412945 218.960313 
L 136.306006 215.553509 
L 135.200605 212.151441 
L 134.096068 208.752032 
L 132.991721 205.353207 
L 131.886891 201.952896 
L 130.780904 198.549024 
L 129.673083 195.139507 
L 128.562746 191.722247 
L 127.449206 188.295128 
L 126.331767 184.85601 
L 125.209723 181.402721 
L 124.082359 177.933057 
L 122.948944 174.44477 
L 121.808732 170.935566 
L 120.660962 167.403099 
L 119.504851 163.844961 
L 118.339596 160.258679 
L 117.164368 156.641707 
L 115.978314 152.991414 
L 114.78055 149.305082 
L 113.570162 145.579895 
L 112.346198 141.812928 
L 111.10767 138.001139 
L 109.853549 134.141357 
L 108.582759 130.230274 
L 107.294175 126.264427 
L 105.986619 122.24019 
L 104.658853 118.153755 
L 103.309578 114.00112 
L 101.937423 109.778069 
L 100.540944 105.480156 
L 99.118614 101.102682 
L 97.668817 96.640673 
L 96.18984 92.088856 
L 94.679863 87.441634 
L 93.136953 82.693051 
L 91.559047 77.836765 
L 89.943946 72.866004 
L 88.2893 67.773536 
L 86.592592 62.551613 
L 84.851122 57.19193 
L 83.061991 51.685561 
L 81.22208 46.022906 
L 79.328024 40.193612 
L 77.376191 34.186499 
L 75.362652 27.989471 
L 73.283145 21.589417 
L 71.133042 14.972095 
L 68.907309 8.122004 
L 66.600453 1.022242 
L 65.943385 -1 
" clip-path="url(#p9b873b799f)" style="fill: none; stroke: #000000; stroke-width: 1.5; stroke-linecap: square"/>
   </g>
   <g id="line2d_14">
    <path d="M 197.711377 346.6 
L 197.381679 345.088465 
L 196.201793 339.679144 
L 195.054695 334.420149 
L 193.938368 329.302224 
L 192.850936 324.316771 
L 191.790654 319.45579 
L 190.755895 314.711822 
L 189.74514 310.077902 
L 188.756968 305.547519 
L 187.790048 301.114568 
L 186.843132 296.773325 
L 185.915044 292.518406 
L 185.004681 288.344745 
L 184.111 284.247565 
L 183.233016 280.222351 
L 182.369799 276.264835 
L 181.520465 272.370971 
L 180.684178 268.536918 
L 179.86014 264.759026 
L 179.047593 261.033815 
L 178.245814 257.357969 
L 177.45411 253.728315 
L 176.67182 250.141818 
L 175.898308 246.595565 
L 175.132963 243.086757 
L 174.375198 239.612698 
L 173.624445 236.170788 
L 172.880156 232.758514 
L 172.141801 229.373443 
L 171.408863 226.01321 
L 170.680843 222.675518 
L 169.95725 219.358127 
L 169.237608 216.058847 
L 168.521449 212.775538 
L 167.808315 209.506095 
L 167.097754 206.248452 
L 166.389323 203.000569 
L 165.682581 199.760432 
L 164.977093 196.526045 
L 164.272427 193.295427 
L 163.568153 190.066604 
L 162.863842 186.837611 
L 162.159064 183.606477 
L 161.453388 180.371229 
L 160.746383 177.129884 
L 160.037611 173.880443 
L 159.326634 170.620888 
L 158.613004 167.349174 
L 157.896271 164.06323 
L 157.175973 160.760944 
L 156.451642 157.440168 
L 155.722798 154.098704 
L 154.988952 150.734303 
L 154.249598 147.344655 
L 153.50422 143.927386 
L 152.752283 140.480047 
L 151.993236 137.000112 
L 151.226508 133.484964 
L 150.451508 129.93189 
L 149.667621 126.338073 
L 148.874207 122.700578 
L 148.070599 119.016347 
L 147.256099 115.282184 
L 146.429979 111.494743 
L 145.591473 107.650517 
L 144.739777 103.745824 
L 143.874047 99.776788 
L 142.993392 95.739326 
L 142.096871 91.629127 
L 141.18349 87.441634 
L 140.252198 83.17202 
L 139.301876 78.815165 
L 138.331339 74.365628 
L 137.339323 69.817622 
L 136.324483 65.164974 
L 135.28538 60.401094 
L 134.220479 55.518937 
L 133.128133 50.510952 
L 132.006573 45.369038 
L 130.853902 40.084488 
L 129.668073 34.647924 
L 128.44688 29.049231 
L 127.187939 23.277477 
L 125.888669 17.320827 
L 124.546268 11.166442 
L 123.157693 4.800365 
L 121.892511 -1 
" clip-path="url(#p9b873b799f)" style="fill: none; stroke: #000000; stroke-width: 1.5; stroke-linecap: square"/>
   </g>
   <g id="line2d_15">
    <path d="M 213.555471 346.6 
L 213.172857 343.616341 
L 212.449936 337.978947 
L 211.749018 332.513131 
L 211.068706 327.207996 
L 210.407706 322.053464 
L 209.764821 317.040201 
L 209.138942 312.159544 
L 208.529036 307.403441 
L 207.93414 302.764394 
L 207.353358 298.235409 
L 206.785852 293.809951 
L 206.230838 289.481903 
L 205.68758 285.245532 
L 205.155387 281.095453 
L 204.633612 277.026603 
L 204.121641 273.034211 
L 203.618897 269.113778 
L 203.124836 265.261047 
L 202.638941 261.471994 
L 202.160721 257.742798 
L 201.689712 254.069832 
L 201.225471 250.449645 
L 200.767577 246.878949 
L 200.315627 243.354602 
L 199.869235 239.873602 
L 199.428033 236.43307 
L 198.991666 233.030244 
L 198.559793 229.662466 
L 198.132087 226.327178 
L 197.70823 223.021907 
L 197.287916 219.744262 
L 196.870847 216.491926 
L 196.456735 213.262646 
L 196.045299 210.05423 
L 195.636264 206.864541 
L 195.229362 203.691488 
L 194.824331 200.533021 
L 194.420912 197.387128 
L 194.018852 194.251829 
L 193.617899 191.125168 
L 193.217806 188.005212 
L 192.818328 184.890043 
L 192.419218 181.777756 
L 192.020235 178.666453 
L 191.621135 175.554238 
L 191.221675 172.439212 
L 190.821609 169.31947 
L 190.420693 166.193095 
L 190.018679 163.058155 
L 189.615316 159.912696 
L 189.21035 156.754737 
L 188.803523 153.582268 
L 188.394573 150.393241 
L 187.983232 147.185567 
L 187.569225 143.957109 
L 187.152272 140.705678 
L 186.732085 137.429024 
L 186.308367 134.124833 
L 185.880811 130.790715 
L 185.449101 127.424203 
L 185.012908 124.02274 
L 184.571894 120.583672 
L 184.125703 117.104242 
L 183.673968 113.581576 
L 183.216304 110.012675 
L 182.752309 106.394404 
L 182.281563 102.723481 
L 181.803622 98.996459 
L 181.318023 95.20972 
L 180.824277 91.359451 
L 180.32187 87.441634 
L 179.810255 83.452023 
L 179.288858 79.386127 
L 178.757069 75.239187 
L 178.214238 71.006149 
L 177.659678 66.681643 
L 177.092655 62.259949 
L 176.512386 57.734965 
L 175.918036 53.100173 
L 175.308709 48.348596 
L 174.683448 43.472755 
L 174.041221 38.464621 
L 173.380922 33.315556 
L 172.701357 28.01625 
L 172.001237 22.556657 
L 171.279169 16.92591 
L 170.533643 11.112233 
L 169.763019 5.102845 
L 168.98041 -1 
" clip-path="url(#p9b873b799f)" style="fill: none; stroke: #000000; stroke-width: 1.5; stroke-linecap: square"/>
   </g>
   <g id="line2d_16">
    <path d="M 227.87449 346.6 
L 227.840435 345.875484 
L 227.565137 340.018591 
L 227.298751 334.351315 
L 227.040698 328.861304 
L 226.790442 323.537175 
L 226.54749 318.368421 
L 226.311383 313.345321 
L 226.0817 308.45887 
L 225.858046 303.700705 
L 225.640058 299.063053 
L 225.427393 294.53867 
L 225.219735 290.120798 
L 225.016786 285.803119 
L 224.818269 281.579721 
L 224.623923 277.445056 
L 224.433502 273.393915 
L 224.246778 269.421396 
L 224.063531 265.522882 
L 223.883559 261.694011 
L 223.706666 257.930663 
L 223.532669 254.228933 
L 223.361395 250.585119 
L 223.192678 246.995703 
L 223.02636 243.457335 
L 222.862291 239.966824 
L 222.700329 236.52112 
L 222.540336 233.117306 
L 222.38218 229.752585 
L 222.225735 226.42427 
L 222.070881 223.12978 
L 221.917499 219.866622 
L 221.765477 216.632391 
L 221.614705 213.424759 
L 221.465077 210.241467 
L 221.31649 207.080322 
L 221.168844 203.939186 
L 221.02204 200.815973 
L 220.875982 197.708642 
L 220.730578 194.615194 
L 220.585733 191.533662 
L 220.441357 188.46211 
L 220.297361 185.398626 
L 220.153655 182.341319 
L 220.010151 179.288313 
L 219.866762 176.23774 
L 219.723399 173.187741 
L 219.579976 170.136458 
L 219.436405 167.082028 
L 219.292599 164.022581 
L 219.148468 160.956236 
L 219.003924 157.881095 
L 218.858875 154.795236 
L 218.713232 151.696713 
L 218.5669 148.583547 
L 218.419786 145.453724 
L 218.271792 142.305185 
L 218.122819 139.135826 
L 217.972766 135.943489 
L 217.821528 132.725956 
L 217.668999 129.480942 
L 217.515068 126.206091 
L 217.359619 122.898965 
L 217.202535 119.557039 
L 217.043692 116.177691 
L 216.882961 112.758195 
L 216.72021 109.295708 
L 216.555299 105.787264 
L 216.388081 102.229761 
L 216.218405 98.619947 
L 216.04611 94.954411 
L 215.871027 91.229566 
L 215.692978 87.441634 
L 215.511777 83.586631 
L 215.327226 79.660345 
L 215.139114 75.658322 
L 214.947221 71.575836 
L 214.751309 67.407872 
L 214.551129 63.149094 
L 214.346413 58.793821 
L 214.136877 54.335988 
L 213.922215 49.769114 
L 213.702101 45.086261 
L 213.476187 40.279987 
L 213.244095 35.342302 
L 213.005422 30.264604 
L 212.759733 25.037623 
L 212.506555 19.651347 
L 212.245382 14.094944 
L 211.975659 8.356673 
L 211.696789 2.423782 
L 211.535857 -1 
" clip-path="url(#p9b873b799f)" style="fill: none; stroke: #000000; stroke-width: 1.5; stroke-linecap: square"/>
   </g>
   <g id="line2d_17">
    <path d="M 241.672426 346.6 
L 241.705119 345.554545 
L 241.888375 339.694559 
L 242.065682 334.024749 
L 242.237431 328.532714 
L 242.403977 323.207025 
L 242.565651 318.037137 
L 242.722758 313.013295 
L 242.875581 308.126461 
L 243.024381 303.368246 
L 243.169403 298.73085 
L 243.310874 294.207008 
L 243.449005 289.789941 
L 243.583996 285.473314 
L 243.716031 281.251197 
L 243.845285 277.118029 
L 243.97192 273.068587 
L 244.096091 269.097958 
L 244.217942 265.201512 
L 244.337609 261.374881 
L 244.455222 257.613934 
L 244.570904 253.914761 
L 244.68477 250.27365 
L 244.79693 246.687079 
L 244.90749 243.151693 
L 245.016548 239.664294 
L 245.124202 236.221831 
L 245.230542 232.82138 
L 245.335655 229.460144 
L 245.439627 226.135433 
L 245.542537 222.844662 
L 245.644463 219.585338 
L 245.745481 216.355054 
L 245.845664 213.151481 
L 245.945083 209.972361 
L 246.043805 206.815498 
L 246.141898 203.678755 
L 246.239427 200.560047 
L 246.336456 197.457335 
L 246.433047 194.368619 
L 246.529262 191.291933 
L 246.625161 188.225344 
L 246.720805 185.166943 
L 246.816251 182.114838 
L 246.911559 179.067157 
L 247.006787 176.022036 
L 247.101992 172.977618 
L 247.197234 169.932048 
L 247.29257 166.883468 
L 247.388059 163.830011 
L 247.483759 160.769802 
L 247.579729 157.700945 
L 247.676029 154.621526 
L 247.772721 151.529603 
L 247.869865 148.423203 
L 247.967525 145.300318 
L 248.065764 142.158898 
L 248.164648 138.996846 
L 248.264246 135.812009 
L 248.364624 132.60218 
L 248.465856 129.365083 
L 248.568013 126.09837 
L 248.671173 122.799615 
L 248.775413 119.466304 
L 248.880815 116.095825 
L 248.987465 112.685466 
L 249.09545 109.232398 
L 249.204864 105.733668 
L 249.315801 102.18619 
L 249.428365 98.58673 
L 249.54266 94.931894 
L 249.658798 91.218115 
L 249.776897 87.441634 
L 249.897081 83.598491 
L 250.01948 79.684498 
L 250.144234 75.695225 
L 250.271489 71.625977 
L 250.4014 67.471768 
L 250.534135 63.227296 
L 250.669868 58.886914 
L 250.80879 54.444597 
L 250.9511 49.893906 
L 251.097015 45.227949 
L 251.246766 40.439336 
L 251.400601 35.520129 
L 251.558787 30.461788 
L 251.721611 25.255108 
L 251.889386 19.890151 
L 252.062446 14.356164 
L 252.241157 8.641495 
L 252.425914 2.733489 
L 252.542668 -1 
" clip-path="url(#p9b873b799f)" style="fill: none; stroke: #000000; stroke-width: 1.5; stroke-linecap: square"/>
   </g>
   <g id="line2d_18">
    <path d="M 255.814866 346.6 
L 256.257641 342.629032 
L 256.887177 336.983118 
L 257.497408 331.51035 
L 258.089562 326.199695 
L 258.664777 321.040961 
L 259.224105 316.024706 
L 259.768522 311.142175 
L 260.298936 306.385231 
L 260.81619 301.7463 
L 261.321074 297.21832 
L 261.814322 292.794695 
L 262.296622 288.469253 
L 262.768619 284.236211 
L 263.230919 280.09014 
L 263.68409 276.025937 
L 264.128668 272.038796 
L 264.56516 268.124183 
L 264.994041 264.277814 
L 265.415766 260.495637 
L 265.830761 256.77381 
L 266.239434 253.108684 
L 266.642171 249.49679 
L 267.039341 245.934823 
L 267.431296 242.419627 
L 267.818372 238.948187 
L 268.200892 235.517613 
L 268.579164 232.125134 
L 268.953485 228.768085 
L 269.324142 225.443899 
L 269.691411 222.1501 
L 270.055558 218.884293 
L 270.416843 215.644155 
L 270.775517 212.427435 
L 271.131825 209.23194 
L 271.486004 206.055531 
L 271.838288 202.896119 
L 272.188905 199.751658 
L 272.538079 196.620139 
L 272.886031 193.499585 
L 273.232977 190.388046 
L 273.579133 187.283595 
L 273.924711 184.184322 
L 274.269924 181.08833 
L 274.614981 177.993728 
L 274.960094 174.898632 
L 275.305472 171.801154 
L 275.651327 168.699401 
L 275.997871 165.591469 
L 276.345318 162.475441 
L 276.693884 159.349377 
L 277.043787 156.211314 
L 277.395251 153.059259 
L 277.748501 149.891185 
L 278.103768 146.705023 
L 278.461287 143.498658 
L 278.821301 140.269925 
L 279.184057 137.0166 
L 279.549809 133.736396 
L 279.918822 130.426953 
L 280.291367 127.085835 
L 280.667726 123.710518 
L 281.048189 120.298385 
L 281.43306 116.846716 
L 281.822656 113.35268 
L 282.217305 109.813322 
L 282.617352 106.225555 
L 283.023158 102.586146 
L 283.435099 98.891706 
L 283.853574 95.138673 
L 284.279 91.323299 
L 284.711817 87.441634 
L 285.152491 83.489506 
L 285.601515 79.462503 
L 286.059408 75.355952 
L 286.526724 71.164893 
L 287.00405 66.884057 
L 287.492012 62.507831 
L 287.991278 58.030234 
L 288.50256 53.444876 
L 289.026619 48.744922 
L 289.564273 43.923046 
L 290.116398 38.971387 
L 290.683937 33.88149 
L 291.267906 28.644248 
L 291.869399 23.249835 
L 292.489602 17.687628 
L 293.129798 11.946123 
L 293.791378 6.012833 
L 294.475856 -0.125817 
L 294.57333 -1 
" clip-path="url(#p9b873b799f)" style="fill: none; stroke: #000000; stroke-width: 1.5; stroke-linecap: square"/>
   </g>
   <g id="line2d_19">
    <path d="M 271.257983 346.6 
L 271.900432 343.37344 
L 272.980429 337.94939 
L 274.029993 332.678181 
L 275.051007 327.550361 
L 276.045217 322.557158 
L 277.014248 317.690413 
L 277.959612 312.942525 
L 278.882723 308.306404 
L 279.784899 303.775421 
L 280.667376 299.343369 
L 281.531314 295.004429 
L 282.377801 290.753134 
L 283.20786 286.584341 
L 284.022458 282.493203 
L 284.822504 278.475146 
L 285.60886 274.525844 
L 286.382342 270.6412 
L 287.143723 266.81733 
L 287.893738 263.050541 
L 288.633087 259.33732 
L 289.362438 255.674316 
L 290.082426 252.05833 
L 290.793663 248.486299 
L 291.496731 244.95529 
L 292.192193 241.462484 
L 292.880589 238.005169 
L 293.562437 234.580732 
L 294.238242 231.186649 
L 294.90849 227.820476 
L 295.573652 224.479842 
L 296.234188 221.162447 
L 296.890543 217.866047 
L 297.543153 214.588452 
L 298.192446 211.327522 
L 298.838838 208.081157 
L 299.482741 204.847295 
L 300.124559 201.623902 
L 300.764692 198.408975 
L 301.403535 195.200526 
L 302.04148 191.996587 
L 302.678917 188.795199 
L 303.316234 185.594411 
L 303.953821 182.392271 
L 304.592065 179.186826 
L 305.231359 175.976114 
L 305.872094 172.758159 
L 306.514669 169.53097 
L 307.159483 166.29253 
L 307.806944 163.040797 
L 308.457466 159.773694 
L 309.111469 156.489106 
L 309.769383 153.184875 
L 310.431649 149.85879 
L 311.098716 146.508588 
L 311.771049 143.131941 
L 312.449126 139.72645 
L 313.133437 136.289644 
L 313.824494 132.818963 
L 314.522823 129.311757 
L 315.228973 125.765275 
L 315.943512 122.176654 
L 316.667036 118.542914 
L 317.400164 114.860939 
L 318.143544 111.127474 
L 318.897856 107.339108 
L 319.663812 103.492258 
L 320.442163 99.583161 
L 321.233697 95.607853 
L 322.039248 91.56215 
L 322.859695 87.441634 
L 323.695969 83.241628 
L 324.549058 78.957174 
L 325.42001 74.583008 
L 326.30994 70.113529 
L 327.220035 65.542775 
L 328.151562 60.86438 
L 329.105877 56.071543 
L 330.084428 51.15698 
L 331.088772 46.112884 
L 332.120577 40.930866 
L 333.181642 35.601898 
L 334.273904 30.116251 
L 335.399455 24.463417 
L 336.560559 18.632027 
L 337.759669 12.609758 
L 338.99945 6.383225 
L 340.282803 -0.062137 
L 340.469544 -1 
" clip-path="url(#p9b873b799f)" style="fill: none; stroke: #000000; stroke-width: 1.5; stroke-linecap: square"/>
   </g>
   <g id="line2d_20">
    <path d="M 289.332424 346.6 
L 290.417029 343.004424 
L 291.943182 337.945071 
L 293.432608 333.007473 
L 294.887492 328.184386 
L 296.309879 323.46903 
L 297.701683 318.855057 
L 299.064703 314.336508 
L 300.400627 309.907784 
L 301.711046 305.563611 
L 302.99746 301.299019 
L 304.261285 297.109311 
L 305.503861 292.990044 
L 306.726459 288.937009 
L 307.930283 284.946209 
L 309.116481 281.013844 
L 310.286143 277.136295 
L 311.440311 273.31011 
L 312.579982 269.531987 
L 313.706107 265.798768 
L 314.819601 262.107421 
L 315.921344 258.455032 
L 317.012181 254.838798 
L 318.092928 251.256011 
L 319.164374 247.704057 
L 320.227285 244.180402 
L 321.282401 240.682586 
L 322.330443 237.208217 
L 323.372117 233.754965 
L 324.408107 230.320551 
L 325.439088 226.902745 
L 326.465719 223.499359 
L 327.48865 220.10824 
L 328.50852 216.727266 
L 329.525963 213.35434 
L 330.541604 209.987385 
L 331.556067 206.624338 
L 332.56997 203.263146 
L 333.583932 199.90176 
L 334.59857 196.538132 
L 335.614505 193.170205 
L 336.632359 189.795917 
L 337.652759 186.413185 
L 338.676341 183.019908 
L 339.703745 179.61396 
L 340.735623 176.19318 
L 341.772637 172.755374 
L 342.815462 169.298303 
L 343.864789 165.819678 
L 344.921323 162.317158 
L 345.985791 158.788339 
L 347.058938 155.230747 
L 348.141533 151.641835 
L 349.23437 148.01897 
L 350.338271 144.359428 
L 351.454087 140.660385 
L 352.582704 136.918905 
L 353.725043 133.131935 
L 354.882065 129.296288 
L 356.054775 125.408637 
L 357.244222 121.465497 
L 358.45151 117.463218 
L 359.677793 113.397964 
L 360.924291 109.265698 
L 362.192285 105.062169 
L 363.48313 100.782887 
L 364.798257 96.423105 
L 366.139184 91.977799 
L 367.507517 87.441634 
L 368.904967 82.808946 
L 370.333352 78.073705 
L 371.794611 73.229483 
L 373.290814 68.269418 
L 374.824175 63.18617 
L 376.397067 57.971876 
L 378.012033 52.618098 
L 379.671811 47.115767 
L 381.379346 41.455116 
L 383.137816 35.625608 
L 384.950656 29.615858 
L 386.821586 23.413538 
L 388.754638 17.005272 
L 390.754199 10.376526 
L 392.825044 3.511465 
L 394.185927 -1 
" clip-path="url(#p9b873b799f)" style="fill: none; stroke: #000000; stroke-width: 1.5; stroke-linecap: square"/>
   </g>
   <g id="line2d_21">
    <path d="M 312.28656 346.6 
L 313.701866 343.322841 
L 315.701081 338.693634 
L 317.663225 334.150266 
L 319.590481 329.68768 
L 321.484917 325.30109 
L 323.34849 320.985966 
L 325.183055 316.738008 
L 326.990377 312.55313 
L 328.772137 308.427444 
L 330.529936 304.357239 
L 332.265304 300.338973 
L 333.979705 296.369256 
L 335.674544 292.444835 
L 337.351169 288.56259 
L 339.010878 284.719514 
L 340.654922 280.912711 
L 342.284509 277.139382 
L 343.90081 273.396817 
L 345.50496 269.682388 
L 347.098062 265.993541 
L 348.681191 262.327786 
L 350.255397 258.682694 
L 351.821705 255.055887 
L 353.381124 251.445034 
L 354.934642 247.847844 
L 356.483235 244.262059 
L 358.027865 240.685449 
L 359.569485 237.115807 
L 361.109042 233.550944 
L 362.647476 229.988682 
L 364.185725 226.426848 
L 365.724726 222.863272 
L 367.265419 219.295779 
L 368.808747 215.722184 
L 370.35566 212.140287 
L 371.907117 208.54787 
L 373.464088 204.942685 
L 375.027556 201.322456 
L 376.598521 197.684867 
L 378.178002 194.02756 
L 379.767038 190.348128 
L 381.366694 186.644104 
L 382.978062 182.912962 
L 384.602264 179.152102 
L 386.240455 175.35885 
L 387.89383 171.530441 
L 389.563621 167.664019 
L 391.251108 163.756622 
L 392.957619 159.805176 
L 394.684534 155.806483 
L 396.433294 151.757207 
L 398.205403 147.653867 
L 400.002433 143.492822 
L 401.826033 139.270256 
L 403.677931 134.982161 
L 405.559949 130.624326 
L 407.474002 126.192312 
L 409.422113 121.681439 
L 411.406417 117.086759 
L 413.429177 112.403033 
L 415.492791 107.62471 
L 417.599806 102.745891 
L 419.752931 97.760303 
L 421.955053 92.661262 
L 424.209253 87.441634 
L 426.518824 82.093794 
L 428.887293 76.609577 
L 431.31844 70.980225 
L 433.816331 65.196328 
L 436.385338 59.247761 
L 439.030177 53.123605 
L 441.755941 46.812065 
L 444.568141 40.30038 
L 447.472754 33.574714 
L 450.47627 26.620035 
L 453.585756 19.419982 
L 456.80892 11.956707 
L 460.154187 4.2107 
L 461.8 0.3998 
" clip-path="url(#p9b873b799f)" style="fill: none; stroke: #000000; stroke-width: 1.5; stroke-linecap: square"/>
   </g>
   <g id="line2d_22">
    <path clip-path="url(#p9b873b799f)" style="fill: none; stroke: #000000; stroke-width: 1.5; stroke-linecap: square"/>
   </g>
   <g id="line2d_23">
    <path d="M 206.105561 346.6 
L 207.370843 346.004761 
L 208.82451 345.355253 
L 210.275991 344.740873 
L 211.725402 344.161327 
L 213.172857 343.616341 
L 214.618471 343.105657 
L 216.062359 342.629032 
L 217.504637 342.186242 
L 218.945418 341.777079 
L 220.384819 341.40135 
L 221.822954 341.058878 
L 223.259938 340.749503 
L 224.695886 340.473081 
L 226.130914 340.229481 
L 227.565137 340.018591 
L 228.998669 339.840311 
L 230.431625 339.694559 
L 231.864122 339.581267 
L 233.296273 339.500381 
L 234.728194 339.451865 
L 236.16 339.435695 
L 237.591806 339.451865 
L 239.023727 339.500381 
L 240.455878 339.581267 
L 241.888375 339.694559 
L 243.321331 339.840311 
L 244.754863 340.018591 
L 246.189086 340.229481 
L 247.624114 340.473081 
L 249.060062 340.749503 
L 250.497046 341.058878 
L 251.935181 341.40135 
L 253.374582 341.777079 
L 254.815363 342.186242 
L 256.257641 342.629032 
L 257.701529 343.105657 
L 259.147143 343.616341 
L 260.594598 344.161327 
L 262.044009 344.740873 
L 263.49549 345.355253 
L 264.949157 346.004761 
L 266.214439 346.6 
" clip-path="url(#p9b873b799f)" style="fill: none; stroke: #000000; stroke-width: 1.5; stroke-linecap: square"/>
   </g>
   <g id="line2d_24">
    <path d="M 128.015171 346.6 
L 130.209343 344.345629 
L 132.595813 341.944849 
L 134.956658 339.620147 
L 137.292752 337.369279 
L 139.604943 335.190103 
L 141.89405 333.080571 
L 144.160863 331.038731 
L 146.406149 329.062714 
L 148.630649 327.150735 
L 150.835083 325.30109 
L 153.020146 323.512149 
L 155.186514 321.782355 
L 157.334843 320.110219 
L 159.465769 318.494318 
L 161.579913 316.933292 
L 163.677874 315.425842 
L 165.760238 313.970727 
L 167.827575 312.566759 
L 169.88044 311.212805 
L 171.919373 309.907784 
L 173.944902 308.65066 
L 175.957541 307.440449 
L 177.957793 306.276208 
L 179.946148 305.157039 
L 181.923087 304.082087 
L 183.889078 303.050535 
L 185.844582 302.061609 
L 187.790048 301.114568 
L 189.725918 300.208711 
L 191.652624 299.343369 
L 193.570591 298.517911 
L 195.480236 297.731735 
L 197.381969 296.984275 
L 199.276193 296.274992 
L 201.163306 295.603381 
L 203.043697 294.968965 
L 204.917753 294.371295 
L 206.785852 293.809951 
L 208.64837 293.28454 
L 210.505678 292.794695 
L 212.358141 292.340077 
L 214.206122 291.920371 
L 216.049979 291.535288 
L 217.890067 291.184563 
L 219.726738 290.867956 
L 221.560343 290.585251 
L 223.391226 290.336254 
L 225.219735 290.120798 
L 227.04621 289.938734 
L 228.870995 289.789941 
L 230.694427 289.674317 
L 232.516847 289.591784 
L 234.338592 289.542287 
L 236.16 289.525791 
L 237.981408 289.542287 
L 239.803153 289.591784 
L 241.625573 289.674317 
L 243.449005 289.789941 
L 245.27379 289.938734 
L 247.100265 290.120798 
L 248.928774 290.336254 
L 250.759657 290.585251 
L 252.593262 290.867956 
L 254.429933 291.184563 
L 256.270021 291.535288 
L 258.113878 291.920371 
L 259.961859 292.340077 
L 261.814322 292.794695 
L 263.67163 293.28454 
L 265.534148 293.809951 
L 267.402247 294.371295 
L 269.276303 294.968965 
L 271.156694 295.603381 
L 273.043807 296.274992 
L 274.938031 296.984275 
L 276.839764 297.731735 
L 278.749409 298.517911 
L 280.667376 299.343369 
L 282.594082 300.208711 
L 284.529952 301.114568 
L 286.475418 302.061609 
L 288.430922 303.050535 
L 290.396913 304.082087 
L 292.373852 305.157039 
L 294.362207 306.276208 
L 296.362459 307.440449 
L 298.375098 308.65066 
L 300.400627 309.907784 
L 302.43956 311.212805 
L 304.492425 312.566759 
L 306.559762 313.970727 
L 308.642126 315.425842 
L 310.740087 316.933292 
L 312.854231 318.494318 
L 314.985157 320.110219 
L 317.133486 321.782355 
L 319.299854 323.512149 
L 321.484917 325.30109 
" clip-path="url(#p9b873b799f)" style="fill: none; stroke: #000000; stroke-width: 1.5; stroke-linecap: square"/>
   </g>
   <g id="line2d_25">
    <path d="M 96.394502 312.071461 
L 99.759608 309.30866 
L 103.064343 306.645345 
L 106.311331 304.077594 
L 109.503063 301.601703 
L 112.641905 299.214176 
L 115.730109 296.911709 
L 118.769815 294.691178 
L 121.763066 292.549629 
L 124.711806 290.484265 
L 127.617893 288.492441 
L 130.483099 286.571649 
L 133.309122 284.719514 
L 136.097582 282.933784 
L 138.850033 281.212326 
L 141.567964 279.553114 
L 144.252801 277.95423 
L 146.905916 276.413849 
L 149.528625 274.930245 
L 152.122193 273.501775 
L 154.68784 272.126882 
L 157.226738 270.804087 
L 159.740018 269.531987 
L 162.228772 268.309251 
L 164.694053 267.134612 
L 167.136879 266.006872 
L 169.558235 264.924893 
L 171.959075 263.887595 
L 174.340321 262.893954 
L 176.702871 261.943 
L 179.047593 261.033815 
L 181.375334 260.165529 
L 183.686913 259.33732 
L 185.983131 258.54841 
L 188.264767 257.798064 
L 190.532582 257.085592 
L 192.787316 256.41034 
L 195.029694 255.771696 
L 197.260426 255.169084 
L 199.480205 254.601964 
L 201.689712 254.069832 
L 203.889614 253.572218 
L 206.080566 253.108684 
L 208.263214 252.678826 
L 210.43819 252.28227 
L 212.60612 251.918673 
L 214.76762 251.587721 
L 216.923299 251.289131 
L 219.073759 251.022647 
L 221.219594 250.788043 
L 223.361395 250.585119 
L 225.499747 250.413703 
L 227.63523 250.27365 
L 229.768423 250.164842 
L 231.899901 250.087188 
L 234.030236 250.040621 
L 236.16 250.025103 
L 238.289764 250.040621 
L 240.420099 250.087188 
L 242.551577 250.164842 
L 244.68477 250.27365 
L 246.820253 250.413703 
L 248.958605 250.585119 
L 251.100406 250.788043 
L 253.246241 251.022647 
L 255.396701 251.289131 
L 257.55238 251.587721 
L 259.71388 251.918673 
L 261.88181 252.28227 
L 264.056786 252.678826 
L 266.239434 253.108684 
L 268.430386 253.572218 
L 270.630288 254.069832 
L 272.839795 254.601964 
L 275.059574 255.169084 
L 277.290306 255.771696 
L 279.532684 256.41034 
L 281.787418 257.085592 
L 284.055233 257.798064 
L 286.336869 258.54841 
L 288.633087 259.33732 
L 290.944666 260.165529 
L 293.272407 261.033815 
L 295.617129 261.943 
L 297.979679 262.893954 
L 300.360925 263.887595 
L 302.761765 264.924893 
L 305.183121 266.006872 
L 307.625947 267.134612 
L 310.091228 268.309251 
L 312.579982 269.531987 
L 315.093262 270.804087 
L 317.63216 272.126882 
L 320.197807 273.501775 
L 322.791375 274.930245 
L 325.414084 276.413849 
L 328.067199 277.95423 
L 330.752036 279.553114 
L 333.469967 281.212326 
L 336.222418 282.933784 
L 339.010878 284.719514 
" clip-path="url(#p9b873b799f)" style="fill: none; stroke: #000000; stroke-width: 1.5; stroke-linecap: square"/>
   </g>
   <g id="line2d_26">
    <path d="M 71.214792 274.094306 
L 75.542043 271.391002 
L 79.766847 268.796333 
L 83.894412 266.305193 
L 87.929628 263.912809 
L 91.877086 261.614714 
L 95.741105 259.406729 
L 99.525753 257.284937 
L 103.234862 255.245662 
L 106.872051 253.285458 
L 110.440737 251.401086 
L 113.944152 249.589502 
L 117.385358 247.847844 
L 120.767255 246.173418 
L 124.092594 244.563688 
L 127.363989 243.016264 
L 130.583925 241.528896 
L 133.754767 240.099459 
L 136.878767 238.72595 
L 139.958073 237.406481 
L 142.994736 236.139268 
L 145.990714 234.922626 
L 148.947883 233.754965 
L 151.868037 232.634784 
L 154.752894 231.560664 
L 157.604105 230.531266 
L 160.423254 229.545325 
L 163.211865 228.601645 
L 165.971404 227.699099 
L 168.703283 226.836622 
L 171.408863 226.01321 
L 174.089461 225.227914 
L 176.746348 224.479842 
L 179.380752 223.768153 
L 181.993866 223.092055 
L 184.586844 222.450803 
L 187.16081 221.843699 
L 189.716852 221.270087 
L 192.256032 220.729353 
L 194.779383 220.220923 
L 197.287916 219.744262 
L 199.782614 219.298873 
L 202.264442 218.884293 
L 204.734343 218.500094 
L 207.193241 218.145885 
L 209.642047 217.821303 
L 212.081652 217.526022 
L 214.512936 217.259742 
L 216.936766 217.022197 
L 219.353998 216.813149 
L 221.765477 216.632391 
L 224.17204 216.479743 
L 226.574519 216.355054 
L 228.973736 216.258201 
L 231.370512 216.189088 
L 233.765662 216.147648 
L 236.16 216.133839 
L 238.554338 216.147648 
L 240.949488 216.189088 
L 243.346264 216.258201 
L 245.745481 216.355054 
L 248.14796 216.479743 
L 250.554523 216.632391 
L 252.966002 216.813149 
L 255.383234 217.022197 
L 257.807064 217.259742 
L 260.238348 217.526022 
L 262.677953 217.821303 
L 265.126759 218.145885 
L 267.585657 218.500094 
L 270.055558 218.884293 
L 272.537386 219.298873 
L 275.032084 219.744262 
L 277.540617 220.220923 
L 280.063968 220.729353 
L 282.603148 221.270087 
L 285.15919 221.843699 
L 287.733156 222.450803 
L 290.326134 223.092055 
L 292.939248 223.768153 
L 295.573652 224.479842 
L 298.230539 225.227914 
L 300.911137 226.01321 
L 303.616717 226.836622 
L 306.348596 227.699099 
L 309.108135 228.601645 
L 311.896746 229.545325 
L 314.715895 230.531266 
L 317.567106 231.560664 
L 320.451963 232.634784 
L 323.372117 233.754965 
L 326.329286 234.922626 
L 329.325264 236.139268 
L 332.361927 237.406481 
L 335.441233 238.72595 
L 338.565233 240.099459 
L 341.736075 241.528896 
L 344.956011 243.016264 
L 348.227406 244.563688 
L 351.552745 246.173418 
L 354.934642 247.847844 
" clip-path="url(#p9b873b799f)" style="fill: none; stroke: #000000; stroke-width: 1.5; stroke-linecap: square"/>
   </g>
   <g id="line2d_27">
    <path d="M 45.754248 235.693584 
L 51.163017 233.220541 
L 56.413899 230.857235 
L 61.516019 228.597708 
L 66.477847 226.436445 
L 71.30726 224.368333 
L 76.011594 222.388629 
L 80.597688 220.492924 
L 85.07193 218.677119 
L 89.440294 216.937394 
L 93.708374 215.270191 
L 97.881414 213.672189 
L 101.96434 212.140287 
L 105.961779 210.671587 
L 109.87809 209.263378 
L 113.717378 207.91312 
L 117.483517 206.618438 
L 121.180168 205.377101 
L 124.81079 204.18702 
L 128.378662 203.046232 
L 131.886891 201.952896 
L 135.338426 200.905281 
L 138.736068 199.90176 
L 142.082483 198.940806 
L 145.380211 198.020982 
L 148.631672 197.140935 
L 151.839177 196.299394 
L 155.004935 195.495165 
L 158.13106 194.727121 
L 161.219577 193.994207 
L 164.272427 193.295427 
L 167.291477 192.629846 
L 170.27852 191.996587 
L 173.235283 191.394824 
L 176.163431 190.823785 
L 179.06457 190.282744 
L 181.940253 189.77102 
L 184.791983 189.287979 
L 187.621216 188.833027 
L 190.429366 188.40561 
L 193.217806 188.005212 
L 195.987873 187.631355 
L 198.740867 187.283595 
L 201.478062 186.961525 
L 204.200698 186.664767 
L 206.909993 186.392977 
L 209.607138 186.145843 
L 212.293304 185.92308 
L 214.969643 185.724436 
L 217.637289 185.549683 
L 220.297361 185.398626 
L 222.950965 185.271094 
L 225.599195 185.166943 
L 228.243139 185.086057 
L 230.883872 185.028346 
L 233.52247 184.993744 
L 236.16 184.982215 
L 238.79753 184.993744 
L 241.436128 185.028346 
L 244.076861 185.086057 
L 246.720805 185.166943 
L 249.369035 185.271094 
L 252.022639 185.398626 
L 254.682711 185.549683 
L 257.350357 185.724436 
L 260.026696 185.92308 
L 262.712862 186.145843 
L 265.410007 186.392977 
L 268.119302 186.664767 
L 270.841938 186.961525 
L 273.579133 187.283595 
L 276.332127 187.631355 
L 279.102194 188.005212 
L 281.890634 188.40561 
L 284.698784 188.833027 
L 287.528017 189.287979 
L 290.379747 189.77102 
L 293.25543 190.282744 
L 296.156569 190.823785 
L 299.084717 191.394824 
L 302.04148 191.996587 
L 305.028523 192.629846 
L 308.047573 193.295427 
L 311.100423 193.994207 
L 314.18894 194.727121 
L 317.315065 195.495165 
L 320.480823 196.299394 
L 323.688328 197.140935 
L 326.939789 198.020982 
L 330.237517 198.940806 
L 333.583932 199.90176 
L 336.981574 200.905281 
L 340.433109 201.952896 
L 343.941338 203.046232 
L 347.50921 204.18702 
L 351.139832 205.377101 
L 354.836483 206.618438 
L 358.602622 207.91312 
L 362.44191 209.263378 
L 366.358221 210.671587 
L 370.35566 212.140287 
" clip-path="url(#p9b873b799f)" style="fill: none; stroke: #000000; stroke-width: 1.5; stroke-linecap: square"/>
   </g>
   <g id="line2d_28">
    <path d="M 18.345953 194.355179 
L 25.040244 192.31988 
L 31.501086 190.383985 
L 37.743632 188.541351 
L 43.781804 186.786348 
L 49.62841 185.113809 
L 55.295263 183.518979 
L 60.793273 181.997482 
L 66.132536 180.545278 
L 71.322408 179.158638 
L 76.371575 177.834111 
L 81.288113 176.568503 
L 86.079545 175.35885 
L 90.752884 174.202402 
L 95.314685 173.096605 
L 99.771075 172.039079 
L 104.127797 171.027613 
L 108.390235 170.060143 
L 112.56345 169.134744 
L 116.652198 168.249622 
L 120.660962 167.403099 
L 124.59397 166.593606 
L 128.455211 165.819678 
L 132.248462 165.079943 
L 135.977297 164.373116 
L 139.645103 163.697995 
L 143.255098 163.053453 
L 146.810339 162.438435 
L 150.313737 161.851953 
L 153.768066 161.293079 
L 157.175973 160.760944 
L 160.539989 160.254737 
L 163.862534 159.773694 
L 167.14593 159.317103 
L 170.392402 158.884296 
L 173.60409 158.474649 
L 176.783053 158.087579 
L 179.931276 157.722543 
L 183.050676 157.379032 
L 186.143102 157.056577 
L 189.21035 156.754737 
L 192.254157 156.473108 
L 195.276213 156.211314 
L 198.27816 155.969009 
L 201.2616 155.745875 
L 204.228095 155.541623 
L 207.179175 155.355989 
L 210.116335 155.188734 
L 213.041047 155.039646 
L 215.954752 154.908535 
L 218.858875 154.795236 
L 221.754819 154.699606 
L 224.643971 154.621526 
L 227.527705 154.560897 
L 230.407385 154.517645 
L 233.284366 154.491715 
L 236.16 154.483075 
L 239.035634 154.491715 
L 241.912615 154.517645 
L 244.792295 154.560897 
L 247.676029 154.621526 
L 250.565181 154.699606 
L 253.461125 154.795236 
L 256.365248 154.908535 
L 259.278953 155.039646 
L 262.203665 155.188734 
L 265.140825 155.355989 
L 268.091905 155.541623 
L 271.0584 155.745875 
L 274.04184 155.969009 
L 277.043787 156.211314 
L 280.065843 156.473108 
L 283.10965 156.754737 
L 286.176898 157.056577 
L 289.269324 157.379032 
L 292.388724 157.722543 
L 295.536947 158.087579 
L 298.71591 158.474649 
L 301.927598 158.884296 
L 305.17407 159.317103 
L 308.457466 159.773694 
L 311.780011 160.254737 
L 315.144027 160.760944 
L 318.551934 161.293079 
L 322.006263 161.851953 
L 325.509661 162.438435 
L 329.064902 163.053453 
L 332.674897 163.697995 
L 336.342703 164.373116 
L 340.071538 165.079943 
L 343.864789 165.819678 
L 347.72603 166.593606 
L 351.659038 167.403099 
L 355.667802 168.249622 
L 359.75655 169.134744 
L 363.929765 170.060143 
L 368.192203 171.027613 
L 372.548925 172.039079 
L 377.005315 173.096605 
L 381.567116 174.202402 
L 386.240455 175.35885 
" clip-path="url(#p9b873b799f)" style="fill: none; stroke: #000000; stroke-width: 1.5; stroke-linecap: square"/>
   </g>
   <g id="line2d_29">
    <path d="M -1 144.85974 
L 3.094393 144.234594 
L 10.763399 143.079787 
L 18.137261 141.98521 
L 25.236601 140.946851 
L 32.080228 139.961058 
L 38.685339 139.024501 
L 45.067691 138.134134 
L 51.241745 137.287172 
L 57.220808 136.481056 
L 63.017142 135.713439 
L 68.642069 134.982161 
L 74.106061 134.28523 
L 79.418823 133.620809 
L 84.589364 132.987202 
L 89.626059 132.382837 
L 94.536706 131.806263 
L 99.32858 131.25613 
L 104.008478 130.731187 
L 108.582759 130.230274 
L 113.05738 129.752309 
L 117.437935 129.296288 
L 121.729677 128.861274 
L 125.937555 128.446396 
L 130.066231 128.05084 
L 134.120108 127.67385 
L 138.103345 127.314716 
L 142.019885 126.972779 
L 145.873461 126.647424 
L 149.667621 126.338073 
L 153.405739 126.04419 
L 157.091027 125.765275 
L 160.72655 125.500857 
L 164.315235 125.250502 
L 167.859882 125.013802 
L 171.363177 124.790377 
L 174.827695 124.579875 
L 178.255913 124.381968 
L 181.650217 124.19635 
L 185.012908 124.02274 
L 188.34621 123.860876 
L 191.652274 123.710518 
L 194.93319 123.571443 
L 198.190984 123.443449 
L 201.427632 123.32635 
L 204.645059 123.219978 
L 207.845146 123.124182 
L 211.029735 123.038825 
L 214.200634 122.963788 
L 217.359619 122.898965 
L 220.508441 122.844266 
L 223.648827 122.799615 
L 226.782487 122.764951 
L 229.911115 122.740224 
L 233.036394 122.725402 
L 236.16 122.720464 
L 239.283606 122.725402 
L 242.408885 122.740224 
L 245.537513 122.764951 
L 248.671173 122.799615 
L 251.811559 122.844266 
L 254.960381 122.898965 
L 258.119366 122.963788 
L 261.290265 123.038825 
L 264.474854 123.124182 
L 267.674941 123.219978 
L 270.892368 123.32635 
L 274.129016 123.443449 
L 277.38681 123.571443 
L 280.667726 123.710518 
L 283.97379 123.860876 
L 287.307092 124.02274 
L 290.669783 124.19635 
L 294.064087 124.381968 
L 297.492305 124.579875 
L 300.956823 124.790377 
L 304.460118 125.013802 
L 308.004765 125.250502 
L 311.59345 125.500857 
L 315.228973 125.765275 
L 318.914261 126.04419 
L 322.652379 126.338073 
L 326.446539 126.647424 
L 330.300115 126.972779 
L 334.216655 127.314716 
L 338.199892 127.67385 
L 342.253769 128.05084 
L 346.382445 128.446396 
L 350.590323 128.861274 
L 354.882065 129.296288 
L 359.26262 129.752309 
L 363.737241 130.230274 
L 368.311522 130.731187 
L 372.99142 131.25613 
L 377.783294 131.806263 
L 382.693941 132.382837 
L 387.730636 132.987202 
L 392.901177 133.620809 
L 398.213939 134.28523 
L 403.677931 134.982161 
" clip-path="url(#p9b873b799f)" style="fill: none; stroke: #000000; stroke-width: 1.5; stroke-linecap: square"/>
   </g>
   <g id="line2d_30">
    <path d="M -1 87.441634 
L 4.088986 87.441634 
L 12.147952 87.441634 
L 19.889645 87.441634 
L 27.336888 87.441634 
L 34.510455 87.441634 
L 41.429298 87.441634 
L 48.110747 87.441634 
L 54.570682 87.441634 
L 60.823688 87.441634 
L 66.883183 87.441634 
L 72.76154 87.441634 
L 78.470186 87.441634 
L 84.019701 87.441634 
L 89.419891 87.441634 
L 94.679863 87.441634 
L 99.808094 87.441634 
L 104.812483 87.441634 
L 109.700403 87.441634 
L 114.478752 87.441634 
L 119.15399 87.441634 
L 123.732177 87.441634 
L 128.219009 87.441634 
L 132.619849 87.441634 
L 136.939751 87.441634 
L 141.18349 87.441634 
L 145.355582 87.441634 
L 149.460305 87.441634 
L 153.501721 87.441634 
L 157.483689 87.441634 
L 161.409887 87.441634 
L 165.283821 87.441634 
L 169.108842 87.441634 
L 172.888159 87.441634 
L 176.62485 87.441634 
L 180.32187 87.441634 
L 183.982066 87.441634 
L 187.608183 87.441634 
L 191.202875 87.441634 
L 194.768711 87.441634 
L 198.308186 87.441634 
L 201.823723 87.441634 
L 205.317687 87.441634 
L 208.792385 87.441634 
L 212.250076 87.441634 
L 215.692978 87.441634 
L 219.123271 87.441634 
L 222.543103 87.441634 
L 225.954596 87.441634 
L 229.359854 87.441634 
L 232.760963 87.441634 
L 236.16 87.441634 
L 239.559037 87.441634 
L 242.960146 87.441634 
L 246.365404 87.441634 
L 249.776897 87.441634 
L 253.196729 87.441634 
L 256.627022 87.441634 
L 260.069924 87.441634 
L 263.527615 87.441634 
L 267.002313 87.441634 
L 270.496277 87.441634 
L 274.011814 87.441634 
L 277.551289 87.441634 
L 281.117125 87.441634 
L 284.711817 87.441634 
L 288.337934 87.441634 
L 291.99813 87.441634 
L 295.69515 87.441634 
L 299.431841 87.441634 
L 303.211158 87.441634 
L 307.036179 87.441634 
L 310.910113 87.441634 
L 314.836311 87.441634 
L 318.818279 87.441634 
L 322.859695 87.441634 
L 326.964418 87.441634 
L 331.13651 87.441634 
L 335.380249 87.441634 
L 339.700151 87.441634 
L 344.100991 87.441634 
L 348.587823 87.441634 
L 353.16601 87.441634 
L 357.841248 87.441634 
L 362.619597 87.441634 
L 367.507517 87.441634 
L 372.511906 87.441634 
L 377.640137 87.441634 
L 382.900109 87.441634 
L 388.300299 87.441634 
L 393.849814 87.441634 
L 399.55846 87.441634 
L 405.436817 87.441634 
L 411.496312 87.441634 
L 417.749318 87.441634 
L 424.209253 87.441634 
" clip-path="url(#p9b873b799f)" style="fill: none; stroke: #000000; stroke-width: 1.5; stroke-linecap: square"/>
   </g>
   <g id="line2d_31">
    <path d="M -1 23.201351 
L 5.197477 24.144887 
L 13.691409 25.417935 
L 21.84373 26.620035 
L 29.679777 27.756099 
L 37.22256 28.830572 
L 44.493027 29.84749 
L 51.510296 30.810523 
L 58.291853 31.723016 
L 64.853731 32.588021 
L 71.210657 33.40833 
L 77.376191 34.186499 
L 83.362846 34.924874 
L 89.182184 35.625608 
L 94.844919 36.290683 
L 100.360992 36.921923 
L 105.739644 37.52101 
L 110.989487 38.089494 
L 116.118555 38.628809 
L 121.134362 39.140278 
L 126.043943 39.625127 
L 130.853902 40.084488 
L 135.570446 40.51941 
L 140.199423 40.930866 
L 144.746347 41.319753 
L 149.216435 41.686905 
L 153.614625 42.033093 
L 157.945603 42.359032 
L 162.213825 42.66538 
L 166.423535 42.952748 
L 170.578784 43.2217 
L 174.683448 43.472755 
L 178.74124 43.706391 
L 182.755727 43.923046 
L 186.730344 44.123123 
L 190.668403 44.306989 
L 194.573109 44.474976 
L 198.447565 44.627387 
L 202.294788 44.764493 
L 206.117717 44.886536 
L 209.919219 44.99373 
L 213.702101 45.086261 
L 217.46912 45.164289 
L 221.222985 45.227949 
L 224.96637 45.27735 
L 228.701922 45.312577 
L 232.432262 45.333689 
L 236.16 45.340722 
L 239.887738 45.333689 
L 243.618078 45.312577 
L 247.35363 45.27735 
L 251.097015 45.227949 
L 254.85088 45.164289 
L 258.617899 45.086261 
L 262.400781 44.99373 
L 266.202283 44.886536 
L 270.025212 44.764493 
L 273.872435 44.627387 
L 277.746891 44.474976 
L 281.651597 44.306989 
L 285.589656 44.123123 
L 289.564273 43.923046 
L 293.57876 43.706391 
L 297.636552 43.472755 
L 301.741216 43.2217 
L 305.896465 42.952748 
L 310.106175 42.66538 
L 314.374397 42.359032 
L 318.705375 42.033093 
L 323.103565 41.686905 
L 327.573653 41.319753 
L 332.120577 40.930866 
L 336.749554 40.51941 
L 341.466098 40.084488 
L 346.276057 39.625127 
L 351.185638 39.140278 
L 356.201445 38.628809 
L 361.330513 38.089494 
L 366.580356 37.52101 
L 371.959008 36.921923 
L 377.475081 36.290683 
L 383.137816 35.625608 
L 388.957154 34.924874 
L 394.943809 34.186499 
L 401.109343 33.40833 
L 407.466269 32.588021 
L 414.028147 31.723016 
L 420.809704 30.810523 
L 427.826973 29.84749 
L 435.09744 28.830572 
L 442.640223 27.756099 
L 450.47627 26.620035 
" clip-path="url(#p9b873b799f)" style="fill: none; stroke: #000000; stroke-width: 1.5; stroke-linecap: square"/>
   </g>
   <g id="line2d_32">
    <path clip-path="url(#p9b873b799f)" style="fill: none; stroke: #000000; stroke-width: 1.5; stroke-linecap: square"/>
   </g>
   <g id="line2d_33">
    <path d="M 287.718249 346.6 
L 272.831929 334.279635 
L 269.622265 330.350198 
L 269.769337 327.748043 
L 268.499091 326.271784 
L 267.35247 323.635707 
L 264.728154 322.236034 
L 261.512568 322.091851 
L 259.304408 323.34897 
L 258.604595 324.369827 
L 258.694901 325.687818 
L 257.988786 326.779951 
L 255.907832 325.648376 
L 255.702497 328.164197 
L 254.963641 328.786314 
L 254.004233 329.014213 
L 253.494873 328.244239 
L 253.394639 326.811255 
L 252.671554 326.258456 
L 251.528654 328.029219 
L 248.729445 329.363312 
L 246.993429 329.350271 
L 245.445255 331.008158 
L 242.018423 333.266914 
L 241.711674 334.498231 
L 241.562387 336.947234 
L 240.458229 338.32724 
L 238.954346 337.928581 
L 238.87635 336.813475 
L 238.242701 335.782665 
L 237.500715 337.162832 
L 236.432213 336.394973 
L 236.5119 335.20829 
L 234.6855 333.276876 
L 233.947802 331.074108 
L 233.187771 331.012789 
L 232.199505 332.334696 
L 232.159626 333.812138 
L 231.340111 335.94878 
L 229.268913 338.35189 
L 218.206088 345.245836 
L 214.460513 345.343814 
L 210.590995 344.57143 
L 208.422272 346.6 
M -1 42.695488 
L 15.91677 51.278158 
L 28.371633 58.734776 
L 38.726868 62.775939 
L 42.275488 62.830196 
L 50.965764 60.062687 
L 60.226042 59.806399 
L 73.784964 62.425244 
L 76.795305 62.414038 
L 87.882167 58.64874 
L 90.717739 58.378689 
L 92.410149 56.865101 
L 105.023428 56.413909 
L 109.795142 58.033355 
L 114.200052 62.185173 
L 115.184923 64.519916 
L 117.897568 67.26036 
L 120.547176 67.705999 
L 125.72982 66.920958 
L 131.056447 67.256141 
L 137.115529 72.548978 
L 137.934422 75.039227 
L 138.414548 83.346194 
L 138.231636 89.622192 
L 137.492897 90.643841 
L 138.398519 92.978257 
L 141.49368 96.808598 
L 151.20382 104.893876 
L 154.343331 108.542867 
L 155.745828 112.028022 
L 161.111819 120.34675 
L 160.384597 121.760029 
L 160.678339 122.985005 
L 164.08261 128.293267 
L 164.499988 132.902421 
L 162.020541 136.697607 
L 161.110155 140.262144 
L 160.528882 146.89592 
L 161.487892 152.510846 
L 167.597257 159.640074 
L 168.982378 161.938232 
L 173.063494 166.226761 
L 174.205987 171.856472 
L 175.640649 174.216099 
L 178.325374 181.172548 
L 180.701418 184.027109 
L 183.832477 186.525258 
L 185.743536 190.234533 
L 188.665809 193.786642 
L 189.673162 196.497674 
L 188.989113 197.517068 
L 189.585552 199.268754 
L 190.503655 200.27962 
L 190.306546 201.394629 
L 190.84152 202.305074 
L 191.836737 201.849257 
L 193.814069 202.87375 
L 195.263489 202.95687 
L 197.530392 201.277327 
L 198.624228 201.296057 
L 201.112052 199.8157 
L 205.509518 199.214522 
L 207.475237 199.446913 
L 208.613212 198.640287 
L 209.668774 198.526066 
L 213.584595 196.550022 
L 216.416801 193.975624 
L 221.019509 188.607752 
L 223.453532 183.827444 
L 226.467489 180.718546 
L 227.743351 175.086846 
L 227.785701 173.98481 
L 226.987653 172.704077 
L 227.411036 171.735959 
L 229.88691 170.153684 
L 233.316855 168.789204 
L 234.468096 167.53928 
L 234.871433 161.817352 
L 232.931467 156.514426 
L 232.597839 155.052398 
L 232.966241 154.063591 
L 235.43147 151.600567 
L 237.377853 150.389104 
L 239.736375 147.529657 
L 245.295965 145.202364 
L 247.482473 143.44739 
L 250.153748 139.954472 
L 250.749523 138.087934 
L 249.962875 134.84281 
L 249.879784 124.044844 
L 248.804559 123.267193 
L 247.066675 119.249752 
L 246.780256 117.006453 
L 247.13394 115.448697 
L 246.696242 114.236894 
L 247.040551 112.147581 
L 245.327465 110.135429 
L 245.418109 108.408013 
L 246.670703 105.185192 
L 250.605698 97.11341 
L 252.221221 96.411832 
L 253.971202 94.790838 
L 256.694631 90.839459 
L 262.50439 84.355171 
L 266.046989 81.230412 
L 271.676491 77.501873 
L 278.761443 69.733084 
L 283.043181 63.424238 
L 285.447097 58.204243 
L 291.213607 48.689918 
L 294.544757 40.001835 
L 294.999043 36.113568 
L 292.669518 34.819785 
L 291.597748 35.887421 
L 287.980799 37.389583 
L 279.579374 38.750688 
L 275.9015 41.212545 
L 272.247194 41.327553 
L 267.826097 42.865588 
L 266.177664 41.519157 
L 263.30159 35.947685 
L 263.908028 32.240698 
L 262.410574 30.960725 
L 260.605536 27.354957 
L 256.445279 21.766676 
L 252.211711 18.965423 
L 249.814913 16.363203 
L 246.994799 3.784034 
L 243.067394 -1 
M 258.11633 -1 
L 258.988362 1.955943 
L 261.76018 6.408084 
L 263.446212 12.184539 
L 263.001807 15.374901 
L 264.301188 28.323048 
L 264.785145 30.226779 
L 267.74635 31.930354 
L 270.403982 31.243987 
L 275.011975 27.550759 
L 279.335235 26.473063 
L 283.223997 23.841006 
L 285.893218 23.474217 
L 290.350015 19.475348 
L 298.028068 16.072701 
L 302.540539 12.430147 
L 302.910876 10.023196 
L 304.655157 8.078267 
L 311.984958 3.908893 
L 314.883529 3.892489 
L 319.363317 -1 
M 420.014224 -1 
L 420.696583 3.202872 
L 419.832075 14.31144 
L 422.243922 21.998336 
L 422.904887 32.499008 
L 421.959982 37.016642 
L 424.176991 40.815345 
L 427.723535 41.263408 
L 432.414105 37.882451 
L 433.979567 35.547714 
L 437.758533 33.711322 
L 451.617346 21.278704 
L 454.153839 14.2399 
L 461.8 4.486009 
L 461.8 4.486009 
" clip-path="url(#p9b873b799f)" style="fill: none; stroke: #0000ff; stroke-width: 1.5; stroke-linecap: square"/>
   </g>
   <g id="line2d_34">
    <path d="M 362.703674 133.41126 
L 236.16 41.472003 
L 109.616326 133.41126 
L 157.951738 282.17211 
L 314.368262 282.17211 
L 362.703674 133.41126 
" clip-path="url(#p9b873b799f)" style="fill: none; stroke: #008000; stroke-width: 1.5; stroke-linecap: square"/>
   </g>
   <g id="patch_3">
    <path d="M 103.104 307.584 
L 103.104 41.472 
" style="fill: none; stroke: #000000; stroke-width: 0.8; stroke-linejoin: miter; stroke-linecap: square"/>
   </g>
   <g id="patch_4">
    <path d="M 369.216 307.584 
L 369.216 41.472 
" style="fill: none; stroke: #000000; stroke-width: 0.8; stroke-linejoin: miter; stroke-linecap: square"/>
   </g>
   <g id="patch_5">
    <path d="M 103.104 307.584 
L 369.216 307.584 
" style="fill: none; stroke: #000000; stroke-width: 0.8; stroke-linejoin: miter; stroke-linecap: square"/>
   </g>
   <g id="patch_6">
    <path d="M 103.104 41.472 
L 369.216 41.472 
" style="fill: none; stroke: #000000; stroke-width: 0.8; stroke-linejoin: miter; stroke-linecap: square"/>
   </g>
  </g>
 </g>
 <defs>
  <clipPath id="p9b873b799f">
   <rect x="103.104" y="41.472" width="266.112" height="266.112"/>
  </clipPath>
 </defs>
</svg>
