<?xml version="1.0" encoding="utf-8" standalone="no"?>
<!DOCTYPE svg PUBLIC "-//W3C//DTD SVG 1.1//EN"
  "http://www.w3.org/Graphics/SVG/1.1/DTD/svg11.dtd">
<svg xmlns:xlink="http://www.w3.org/1999/xlink" width="460.8pt" height="345.6pt" viewBox="0 0 460.8 345.6" xmlns="http://www.w3.org/2000/svg" version="1.1">
 <metadata>
  <rdf:RDF xmlns:dc="http://purl.org/dc/elements/1.1/" xmlns:cc="http://creativecommons.org/ns#" xmlns:rdf="http://www.w3.org/1999/02/22-rdf-syntax-ns#">
   <cc:Work>
    <dc:type rdf:resource="http://purl.org/dc/dcmitype/StillImage"/>
    <dc:date>2025-06-01T22:06:20.263411</dc:date>
    <dc:format>image/svg+xml</dc:format>
    <dc:creator>
     <cc:Agent>
      <dc:title>Matplotlib v3.6.3, https://matplotlib.org/</dc:title>
     </cc:Agent>
    </dc:creator>
   </cc:Work>
  </rdf:RDF>
 </metadata>
 <defs>
  <style type="text/css">*{stroke-linejoin: round; stroke-linecap: butt}</style>
 </defs>
 <g id="figure_1">
  <g id="patch_1">
   <path d="M 0 345.6 
L 460.8 345.6 
L 460.8 0 
L 0 0 
z
" style="fill: #ffffff"/>
  </g>
  <g id="axes_1">
   <g id="patch_2">
    <path d="M 103.104 307.584 
L 369.216 307.584 
L 369.216 41.472 
L 103.104 41.472 
z
" style="fill: #ffffff"/>
   </g>
   <g id="matplotlib.axis_1">
    <g id="xtick_1">
     <g id="line2d_1">
      <defs>
       <path id="m1a87f120a7" d="M 0 0 
L 0 3.5 
" style="stroke: #000000; stroke-width: 0.8"/>
      </defs>
      <g>
       <use xlink:href="#m1a87f120a7" x="126.929132" y="307.584" style="stroke: #000000; stroke-width: 0.8"/>
      </g>
     </g>
     <g id="text_1">
      <!-- −4 -->
      <g transform="translate(119.558038 322.182437) scale(0.1 -0.1)">
       <defs>
        <path id="DejaVuSans-2212" d="M 678 2272 
L 4684 2272 
L 4684 1741 
L 678 1741 
L 678 2272 
z
" transform="scale(0.015625)"/>
        <path id="DejaVuSans-34" d="M 2419 4116 
L 825 1625 
L 2419 1625 
L 2419 4116 
z
M 2253 4666 
L 3047 4666 
L 3047 1625 
L 3713 1625 
L 3713 1100 
L 3047 1100 
L 3047 0 
L 2419 0 
L 2419 1100 
L 313 1100 
L 313 1709 
L 2253 4666 
z
" transform="scale(0.015625)"/>
       </defs>
       <use xlink:href="#DejaVuSans-2212"/>
       <use xlink:href="#DejaVuSans-34" x="83.789062"/>
      </g>
     </g>
    </g>
    <g id="xtick_2">
     <g id="line2d_2">
      <g>
       <use xlink:href="#m1a87f120a7" x="181.544566" y="307.584" style="stroke: #000000; stroke-width: 0.8"/>
      </g>
     </g>
     <g id="text_2">
      <!-- −2 -->
      <g transform="translate(174.173472 322.182437) scale(0.1 -0.1)">
       <defs>
        <path id="DejaVuSans-32" d="M 1228 531 
L 3431 531 
L 3431 0 
L 469 0 
L 469 531 
Q 828 903 1448 1529 
Q 2069 2156 2228 2338 
Q 2531 2678 2651 2914 
Q 2772 3150 2772 3378 
Q 2772 3750 2511 3984 
Q 2250 4219 1831 4219 
Q 1534 4219 1204 4116 
Q 875 4013 500 3803 
L 500 4441 
Q 881 4594 1212 4672 
Q 1544 4750 1819 4750 
Q 2544 4750 2975 4387 
Q 3406 4025 3406 3419 
Q 3406 3131 3298 2873 
Q 3191 2616 2906 2266 
Q 2828 2175 2409 1742 
Q 1991 1309 1228 531 
z
" transform="scale(0.015625)"/>
       </defs>
       <use xlink:href="#DejaVuSans-2212"/>
       <use xlink:href="#DejaVuSans-32" x="83.789062"/>
      </g>
     </g>
    </g>
    <g id="xtick_3">
     <g id="line2d_3">
      <g>
       <use xlink:href="#m1a87f120a7" x="236.16" y="307.584" style="stroke: #000000; stroke-width: 0.8"/>
      </g>
     </g>
     <g id="text_3">
      <!-- 0 -->
      <g transform="translate(232.97875 322.182437) scale(0.1 -0.1)">
       <defs>
        <path id="DejaVuSans-30" d="M 2034 4250 
Q 1547 4250 1301 3770 
Q 1056 3291 1056 2328 
Q 1056 1369 1301 889 
Q 1547 409 2034 409 
Q 2525 409 2770 889 
Q 3016 1369 3016 2328 
Q 3016 3291 2770 3770 
Q 2525 4250 2034 4250 
z
M 2034 4750 
Q 2819 4750 3233 4129 
Q 3647 3509 3647 2328 
Q 3647 1150 3233 529 
Q 2819 -91 2034 -91 
Q 1250 -91 836 529 
Q 422 1150 422 2328 
Q 422 3509 836 4129 
Q 1250 4750 2034 4750 
z
" transform="scale(0.015625)"/>
       </defs>
       <use xlink:href="#DejaVuSans-30"/>
      </g>
     </g>
    </g>
    <g id="xtick_4">
     <g id="line2d_4">
      <g>
       <use xlink:href="#m1a87f120a7" x="290.775434" y="307.584" style="stroke: #000000; stroke-width: 0.8"/>
      </g>
     </g>
     <g id="text_4">
      <!-- 2 -->
      <g transform="translate(287.594184 322.182437) scale(0.1 -0.1)">
       <use xlink:href="#DejaVuSans-32"/>
      </g>
     </g>
    </g>
    <g id="xtick_5">
     <g id="line2d_5">
      <g>
       <use xlink:href="#m1a87f120a7" x="345.390868" y="307.584" style="stroke: #000000; stroke-width: 0.8"/>
      </g>
     </g>
     <g id="text_5">
      <!-- 4 -->
      <g transform="translate(342.209618 322.182437) scale(0.1 -0.1)">
       <use xlink:href="#DejaVuSans-34"/>
      </g>
     </g>
    </g>
    <g id="text_6">
     <!-- 1e6 -->
     <g transform="translate(350.337875 334.860562) scale(0.1 -0.1)">
      <defs>
       <path id="DejaVuSans-31" d="M 794 531 
L 1825 531 
L 1825 4091 
L 703 3866 
L 703 4441 
L 1819 4666 
L 2450 4666 
L 2450 531 
L 3481 531 
L 3481 0 
L 794 0 
L 794 531 
z
" transform="scale(0.015625)"/>
       <path id="DejaVuSans-65" d="M 3597 1894 
L 3597 1613 
L 953 1613 
Q 991 1019 1311 708 
Q 1631 397 2203 397 
Q 2534 397 2845 478 
Q 3156 559 3463 722 
L 3463 178 
Q 3153 47 2828 -22 
Q 2503 -91 2169 -91 
Q 1331 -91 842 396 
Q 353 884 353 1716 
Q 353 2575 817 3079 
Q 1281 3584 2069 3584 
Q 2775 3584 3186 3129 
Q 3597 2675 3597 1894 
z
M 3022 2063 
Q 3016 2534 2758 2815 
Q 2500 3097 2075 3097 
Q 1594 3097 1305 2825 
Q 1016 2553 972 2059 
L 3022 2063 
z
" transform="scale(0.015625)"/>
       <path id="DejaVuSans-36" d="M 2113 2584 
Q 1688 2584 1439 2293 
Q 1191 2003 1191 1497 
Q 1191 994 1439 701 
Q 1688 409 2113 409 
Q 2538 409 2786 701 
Q 3034 994 3034 1497 
Q 3034 2003 2786 2293 
Q 2538 2584 2113 2584 
z
M 3366 4563 
L 3366 3988 
Q 3128 4100 2886 4159 
Q 2644 4219 2406 4219 
Q 1781 4219 1451 3797 
Q 1122 3375 1075 2522 
Q 1259 2794 1537 2939 
Q 1816 3084 2150 3084 
Q 2853 3084 3261 2657 
Q 3669 2231 3669 1497 
Q 3669 778 3244 343 
Q 2819 -91 2113 -91 
Q 1303 -91 875 529 
Q 447 1150 447 2328 
Q 447 3434 972 4092 
Q 1497 4750 2381 4750 
Q 2619 4750 2861 4703 
Q 3103 4656 3366 4563 
z
" transform="scale(0.015625)"/>
      </defs>
      <use xlink:href="#DejaVuSans-31"/>
      <use xlink:href="#DejaVuSans-65" x="63.623047"/>
      <use xlink:href="#DejaVuSans-36" x="125.146484"/>
     </g>
    </g>
   </g>
   <g id="matplotlib.axis_2">
    <g id="ytick_1">
     <g id="line2d_6">
      <defs>
       <path id="m64c94367d2" d="M 0 0 
L -3.5 0 
" style="stroke: #000000; stroke-width: 0.8"/>
      </defs>
      <g>
       <use xlink:href="#m64c94367d2" x="103.104" y="283.758868" style="stroke: #000000; stroke-width: 0.8"/>
      </g>
     </g>
     <g id="text_7">
      <!-- −4 -->
      <g transform="translate(81.361813 287.558087) scale(0.1 -0.1)">
       <use xlink:href="#DejaVuSans-2212"/>
       <use xlink:href="#DejaVuSans-34" x="83.789062"/>
      </g>
     </g>
    </g>
    <g id="ytick_2">
     <g id="line2d_7">
      <g>
       <use xlink:href="#m64c94367d2" x="103.104" y="229.143434" style="stroke: #000000; stroke-width: 0.8"/>
      </g>
     </g>
     <g id="text_8">
      <!-- −2 -->
      <g transform="translate(81.361813 232.942653) scale(0.1 -0.1)">
       <use xlink:href="#DejaVuSans-2212"/>
       <use xlink:href="#DejaVuSans-32" x="83.789062"/>
      </g>
     </g>
    </g>
    <g id="ytick_3">
     <g id="line2d_8">
      <g>
       <use xlink:href="#m64c94367d2" x="103.104" y="174.528" style="stroke: #000000; stroke-width: 0.8"/>
      </g>
     </g>
     <g id="text_9">
      <!-- 0 -->
      <g transform="translate(89.7415 178.327219) scale(0.1 -0.1)">
       <use xlink:href="#DejaVuSans-30"/>
      </g>
     </g>
    </g>
    <g id="ytick_4">
     <g id="line2d_9">
      <g>
       <use xlink:href="#m64c94367d2" x="103.104" y="119.912566" style="stroke: #000000; stroke-width: 0.8"/>
      </g>
     </g>
     <g id="text_10">
      <!-- 2 -->
      <g transform="translate(89.7415 123.711785) scale(0.1 -0.1)">
       <use xlink:href="#DejaVuSans-32"/>
      </g>
     </g>
    </g>
    <g id="ytick_5">
     <g id="line2d_10">
      <g>
       <use xlink:href="#m64c94367d2" x="103.104" y="65.297132" style="stroke: #000000; stroke-width: 0.8"/>
      </g>
     </g>
     <g id="text_11">
      <!-- 4 -->
      <g transform="translate(89.7415 69.09635) scale(0.1 -0.1)">
       <use xlink:href="#DejaVuSans-34"/>
      </g>
     </g>
    </g>
    <g id="text_12">
     <!-- 1e6 -->
     <g transform="translate(103.104 38.472) scale(0.1 -0.1)">
      <use xlink:href="#DejaVuSans-31"/>
      <use xlink:href="#DejaVuSans-65" x="63.623047"/>
      <use xlink:href="#DejaVuSans-36" x="125.146484"/>
     </g>
    </g>
   </g>
   <g id="line2d_11">
    <path d="M 127.657941 346.6 
L 125.210301 342.623574 
L 122.654493 338.47142 
L 120.126856 334.365032 
L 117.625411 330.301195 
L 115.148253 326.276814 
L 112.69354 322.288897 
L 110.259493 318.334555 
L 107.844387 314.410985 
L 105.446547 310.515464 
L 103.064343 306.645345 
L 100.696183 302.798043 
L 98.340514 298.971033 
L 95.995812 295.161841 
L 93.660582 291.368035 
L 91.333351 287.587226 
L 89.012667 283.817053 
L 86.697094 280.055184 
L 84.385209 276.299304 
L 82.075596 272.547117 
L 79.766847 268.796333 
L 77.457554 265.044666 
L 75.14631 261.289829 
L 72.831701 257.529525 
L 70.512305 253.761445 
L 68.186691 249.983262 
L 65.85341 246.192623 
L 63.510993 242.387143 
L 61.157952 238.564403 
L 58.79277 234.721938 
L 56.413899 230.857235 
L 54.019759 226.967724 
L 51.608727 223.050772 
L 49.179139 219.103675 
L 46.729283 215.123648 
L 44.25739 211.107823 
L 41.761636 207.053231 
L 39.24013 202.956803 
L 36.690909 198.81535 
L 34.111936 194.625561 
L 31.501086 190.383985 
L 28.856142 186.087021 
L 26.17479 181.730908 
L 23.454603 177.311704 
L 20.693037 172.825276 
L 17.887419 168.26728 
L 15.034933 163.633144 
L 12.132614 158.918049 
L 9.177327 154.116902 
L 6.165757 149.224319 
L 3.094393 144.234594 
L -0.040493 139.141672 
L -1 137.58286 
" clip-path="url(#p8c8d044d2f)" style="fill: none; stroke: #000000; stroke-width: 1.5; stroke-linecap: square"/>
   </g>
   <g id="line2d_12">
    <path d="M 160.03344 346.6 
L 158.618134 343.322841 
L 156.618919 338.693634 
L 154.656775 334.150266 
L 152.729519 329.68768 
L 150.835083 325.30109 
L 148.97151 320.985966 
L 147.136945 316.738008 
L 145.329623 312.55313 
L 143.547863 308.427444 
L 141.790064 304.357239 
L 140.054696 300.338973 
L 138.340295 296.369256 
L 136.645456 292.444835 
L 134.968831 288.56259 
L 133.309122 284.719514 
L 131.665078 280.912711 
L 130.035491 277.139382 
L 128.41919 273.396817 
L 126.81504 269.682388 
L 125.221938 265.993541 
L 123.638809 262.327786 
L 122.064603 258.682694 
L 120.498295 255.055887 
L 118.938876 251.445034 
L 117.385358 247.847844 
L 115.836765 244.262059 
L 114.292135 240.685449 
L 112.750515 237.115807 
L 111.210958 233.550944 
L 109.672524 229.988682 
L 108.134275 226.426848 
L 106.595274 222.863272 
L 105.054581 219.295779 
L 103.511253 215.722184 
L 101.96434 212.140287 
L 100.412883 208.54787 
L 98.855912 204.942685 
L 97.292444 201.322456 
L 95.721479 197.684867 
L 94.141998 194.02756 
L 92.552962 190.348128 
L 90.953306 186.644104 
L 89.341938 182.912962 
L 87.717736 179.152102 
L 86.079545 175.35885 
L 84.42617 171.530441 
L 82.756379 167.664019 
L 81.068892 163.756622 
L 79.362381 159.805176 
L 77.635466 155.806483 
L 75.886706 151.757207 
L 74.114597 147.653867 
L 72.317567 143.492822 
L 70.493967 139.270256 
L 68.642069 134.982161 
L 66.760051 130.624326 
L 64.845998 126.192312 
L 62.897887 121.681439 
L 60.913583 117.086759 
L 58.890823 112.403033 
L 56.827209 107.62471 
L 54.720194 102.745891 
L 52.567069 97.760303 
L 50.364947 92.661262 
L 48.110747 87.441634 
L 45.801176 82.093794 
L 43.432707 76.609577 
L 41.00156 70.980225 
L 38.503669 65.196328 
L 35.934662 59.247761 
L 33.289823 53.123605 
L 30.564059 46.812065 
L 27.751859 40.30038 
L 24.847246 33.574714 
L 21.84373 26.620035 
L 18.734244 19.419982 
L 15.51108 11.956707 
L 12.165813 4.2107 
L 9.915468 -1 
" clip-path="url(#p8c8d044d2f)" style="fill: none; stroke: #000000; stroke-width: 1.5; stroke-linecap: square"/>
   </g>
   <g id="line2d_13">
    <path d="M 182.987576 346.6 
L 181.902971 343.004424 
L 180.376818 337.945071 
L 178.887392 333.007473 
L 177.432508 328.184386 
L 176.010121 323.46903 
L 174.618317 318.855057 
L 173.255297 314.336508 
L 171.919373 309.907784 
L 170.608954 305.563611 
L 169.32254 301.299019 
L 168.058715 297.109311 
L 166.816139 292.990044 
L 165.593541 288.937009 
L 164.389717 284.946209 
L 163.203519 281.013844 
L 162.033857 277.136295 
L 160.879689 273.31011 
L 159.740018 269.531987 
L 158.613893 265.798768 
L 157.500399 262.107421 
L 156.398656 258.455032 
L 155.307819 254.838798 
L 154.227072 251.256011 
L 153.155626 247.704057 
L 152.092715 244.180402 
L 151.037599 240.682586 
L 149.989557 237.208217 
L 148.947883 233.754965 
L 147.911893 230.320551 
L 146.880912 226.902745 
L 145.854281 223.499359 
L 144.83135 220.10824 
L 143.81148 216.727266 
L 142.794037 213.35434 
L 141.778396 209.987385 
L 140.763933 206.624338 
L 139.75003 203.263146 
L 138.736068 199.90176 
L 137.72143 196.538132 
L 136.705495 193.170205 
L 135.687641 189.795917 
L 134.667241 186.413185 
L 133.643659 183.019908 
L 132.616255 179.61396 
L 131.584377 176.19318 
L 130.547363 172.755374 
L 129.504538 169.298303 
L 128.455211 165.819678 
L 127.398677 162.317158 
L 126.334209 158.788339 
L 125.261062 155.230747 
L 124.178467 151.641835 
L 123.08563 148.01897 
L 121.981729 144.359428 
L 120.865913 140.660385 
L 119.737296 136.918905 
L 118.594957 133.131935 
L 117.437935 129.296288 
L 116.265225 125.408637 
L 115.075778 121.465497 
L 113.86849 117.463218 
L 112.642207 113.397964 
L 111.395709 109.265698 
L 110.127715 105.062169 
L 108.83687 100.782887 
L 107.521743 96.423105 
L 106.180816 91.977799 
L 104.812483 87.441634 
L 103.415033 82.808946 
L 101.986648 78.073705 
L 100.525389 73.229483 
L 99.029186 68.269418 
L 97.495825 63.18617 
L 95.922933 57.971876 
L 94.307967 52.618098 
L 92.648189 47.115767 
L 90.940654 41.455116 
L 89.182184 35.625608 
L 87.369344 29.615858 
L 85.498414 23.413538 
L 83.565362 17.005272 
L 81.565801 10.376526 
L 79.494956 3.511465 
L 78.134073 -1 
" clip-path="url(#p8c8d044d2f)" style="fill: none; stroke: #000000; stroke-width: 1.5; stroke-linecap: square"/>
   </g>
   <g id="line2d_14">
    <path d="M 201.062017 346.6 
L 200.419568 343.37344 
L 199.339571 337.94939 
L 198.290007 332.678181 
L 197.268993 327.550361 
L 196.274783 322.557158 
L 195.305752 317.690413 
L 194.360388 312.942525 
L 193.437277 308.306404 
L 192.535101 303.775421 
L 191.652624 299.343369 
L 190.788686 295.004429 
L 189.942199 290.753134 
L 189.11214 286.584341 
L 188.297542 282.493203 
L 187.497496 278.475146 
L 186.71114 274.525844 
L 185.937658 270.6412 
L 185.176277 266.81733 
L 184.426262 263.050541 
L 183.686913 259.33732 
L 182.957562 255.674316 
L 182.237574 252.05833 
L 181.526337 248.486299 
L 180.823269 244.95529 
L 180.127807 241.462484 
L 179.439411 238.005169 
L 178.757563 234.580732 
L 178.081758 231.186649 
L 177.41151 227.820476 
L 176.746348 224.479842 
L 176.085812 221.162447 
L 175.429457 217.866047 
L 174.776847 214.588452 
L 174.127554 211.327522 
L 173.481162 208.081157 
L 172.837259 204.847295 
L 172.195441 201.623902 
L 171.555308 198.408975 
L 170.916465 195.200526 
L 170.27852 191.996587 
L 169.641083 188.795199 
L 169.003766 185.594411 
L 168.366179 182.392271 
L 167.727935 179.186826 
L 167.088641 175.976114 
L 166.447906 172.758159 
L 165.805331 169.53097 
L 165.160517 166.29253 
L 164.513056 163.040797 
L 163.862534 159.773694 
L 163.208531 156.489106 
L 162.550617 153.184875 
L 161.888351 149.85879 
L 161.221284 146.508588 
L 160.548951 143.131941 
L 159.870874 139.72645 
L 159.186563 136.289644 
L 158.495506 132.818963 
L 157.797177 129.311757 
L 157.091027 125.765275 
L 156.376488 122.176654 
L 155.652964 118.542914 
L 154.919836 114.860939 
L 154.176456 111.127474 
L 153.422144 107.339108 
L 152.656188 103.492258 
L 151.877837 99.583161 
L 151.086303 95.607853 
L 150.280752 91.56215 
L 149.460305 87.441634 
L 148.624031 83.241628 
L 147.770942 78.957174 
L 146.89999 74.583008 
L 146.01006 70.113529 
L 145.099965 65.542775 
L 144.168438 60.86438 
L 143.214123 56.071543 
L 142.235572 51.15698 
L 141.231228 46.112884 
L 140.199423 40.930866 
L 139.138358 35.601898 
L 138.046096 30.116251 
L 136.920545 24.463417 
L 135.759441 18.632027 
L 134.560331 12.609758 
L 133.32055 6.383225 
L 132.037197 -0.062137 
L 131.850456 -1 
" clip-path="url(#p8c8d044d2f)" style="fill: none; stroke: #000000; stroke-width: 1.5; stroke-linecap: square"/>
   </g>
   <g id="line2d_15">
    <path d="M 216.505134 346.6 
L 216.062359 342.629032 
L 215.432823 336.983118 
L 214.822592 331.51035 
L 214.230438 326.199695 
L 213.655223 321.040961 
L 213.095895 316.024706 
L 212.551478 311.142175 
L 212.021064 306.385231 
L 211.50381 301.7463 
L 210.998926 297.21832 
L 210.505678 292.794695 
L 210.023378 288.469253 
L 209.551381 284.236211 
L 209.089081 280.09014 
L 208.63591 276.025937 
L 208.191332 272.038796 
L 207.75484 268.124183 
L 207.325959 264.277814 
L 206.904234 260.495637 
L 206.489239 256.77381 
L 206.080566 253.108684 
L 205.677829 249.49679 
L 205.280659 245.934823 
L 204.888704 242.419627 
L 204.501628 238.948187 
L 204.119108 235.517613 
L 203.740836 232.125134 
L 203.366515 228.768085 
L 202.995858 225.443899 
L 202.628589 222.1501 
L 202.264442 218.884293 
L 201.903157 215.644155 
L 201.544483 212.427435 
L 201.188175 209.23194 
L 200.833996 206.055531 
L 200.481712 202.896119 
L 200.131095 199.751658 
L 199.781921 196.620139 
L 199.433969 193.499585 
L 199.087023 190.388046 
L 198.740867 187.283595 
L 198.395289 184.184322 
L 198.050076 181.08833 
L 197.705019 177.993728 
L 197.359906 174.898632 
L 197.014528 171.801154 
L 196.668673 168.699401 
L 196.322129 165.591469 
L 195.974682 162.475441 
L 195.626116 159.349377 
L 195.276213 156.211314 
L 194.924749 153.059259 
L 194.571499 149.891185 
L 194.216232 146.705023 
L 193.858713 143.498658 
L 193.498699 140.269925 
L 193.135943 137.0166 
L 192.770191 133.736396 
L 192.401178 130.426953 
L 192.028633 127.085835 
L 191.652274 123.710518 
L 191.271811 120.298385 
L 190.88694 116.846716 
L 190.497344 113.35268 
L 190.102695 109.813322 
L 189.702648 106.225555 
L 189.296842 102.586146 
L 188.884901 98.891706 
L 188.466426 95.138673 
L 188.041 91.323299 
L 187.608183 87.441634 
L 187.167509 83.489506 
L 186.718485 79.462503 
L 186.260592 75.355952 
L 185.793276 71.164893 
L 185.31595 66.884057 
L 184.827988 62.507831 
L 184.328722 58.030234 
L 183.81744 53.444876 
L 183.293381 48.744922 
L 182.755727 43.923046 
L 182.203602 38.971387 
L 181.636063 33.88149 
L 181.052094 28.644248 
L 180.450601 23.249835 
L 179.830398 17.687628 
L 179.190202 11.946123 
L 178.528622 6.012833 
L 177.844144 -0.125817 
L 177.74667 -1 
" clip-path="url(#p8c8d044d2f)" style="fill: none; stroke: #000000; stroke-width: 1.5; stroke-linecap: square"/>
   </g>
   <g id="line2d_16">
    <path d="M 230.647574 346.6 
L 230.614881 345.554545 
L 230.431625 339.694559 
L 230.254318 334.024749 
L 230.082569 328.532714 
L 229.916023 323.207025 
L 229.754349 318.037137 
L 229.597242 313.013295 
L 229.444419 308.126461 
L 229.295619 303.368246 
L 229.150597 298.73085 
L 229.009126 294.207008 
L 228.870995 289.789941 
L 228.736004 285.473314 
L 228.603969 281.251197 
L 228.474715 277.118029 
L 228.34808 273.068587 
L 228.223909 269.097958 
L 228.102058 265.201512 
L 227.982391 261.374881 
L 227.864778 257.613934 
L 227.749096 253.914761 
L 227.63523 250.27365 
L 227.52307 246.687079 
L 227.41251 243.151693 
L 227.303452 239.664294 
L 227.195798 236.221831 
L 227.089458 232.82138 
L 226.984345 229.460144 
L 226.880373 226.135433 
L 226.777463 222.844662 
L 226.675537 219.585338 
L 226.574519 216.355054 
L 226.474336 213.151481 
L 226.374917 209.972361 
L 226.276195 206.815498 
L 226.178102 203.678755 
L 226.080573 200.560047 
L 225.983544 197.457335 
L 225.886953 194.368619 
L 225.790738 191.291933 
L 225.694839 188.225344 
L 225.599195 185.166943 
L 225.503749 182.114838 
L 225.408441 179.067157 
L 225.313213 176.022036 
L 225.218008 172.977618 
L 225.122766 169.932048 
L 225.02743 166.883468 
L 224.931941 163.830011 
L 224.836241 160.769802 
L 224.740271 157.700945 
L 224.643971 154.621526 
L 224.547279 151.529603 
L 224.450135 148.423203 
L 224.352475 145.300318 
L 224.254236 142.158898 
L 224.155352 138.996846 
L 224.055754 135.812009 
L 223.955376 132.60218 
L 223.854144 129.365083 
L 223.751987 126.09837 
L 223.648827 122.799615 
L 223.544587 119.466304 
L 223.439185 116.095825 
L 223.332535 112.685466 
L 223.22455 109.232398 
L 223.115136 105.733668 
L 223.004199 102.18619 
L 222.891635 98.58673 
L 222.77734 94.931894 
L 222.661202 91.218115 
L 222.543103 87.441634 
L 222.422919 83.598491 
L 222.30052 79.684498 
L 222.175766 75.695225 
L 222.048511 71.625977 
L 221.9186 67.471768 
L 221.785865 63.227296 
L 221.650132 58.886914 
L 221.51121 54.444597 
L 221.3689 49.893906 
L 221.222985 45.227949 
L 221.073234 40.439336 
L 220.919399 35.520129 
L 220.761213 30.461788 
L 220.598389 25.255108 
L 220.430614 19.890151 
L 220.257554 14.356164 
L 220.078843 8.641495 
L 219.894086 2.733489 
L 219.777332 -1 
" clip-path="url(#p8c8d044d2f)" style="fill: none; stroke: #000000; stroke-width: 1.5; stroke-linecap: square"/>
   </g>
   <g id="line2d_17">
    <path d="M 244.44551 346.6 
L 244.479565 345.875484 
L 244.754863 340.018591 
L 245.021249 334.351315 
L 245.279302 328.861304 
L 245.529558 323.537175 
L 245.77251 318.368421 
L 246.008617 313.345321 
L 246.2383 308.45887 
L 246.461954 303.700705 
L 246.679942 299.063053 
L 246.892607 294.53867 
L 247.100265 290.120798 
L 247.303214 285.803119 
L 247.501731 281.579721 
L 247.696077 277.445056 
L 247.886498 273.393915 
L 248.073222 269.421396 
L 248.256469 265.522882 
L 248.436441 261.694011 
L 248.613334 257.930663 
L 248.787331 254.228933 
L 248.958605 250.585119 
L 249.127322 246.995703 
L 249.29364 243.457335 
L 249.457709 239.966824 
L 249.619671 236.52112 
L 249.779664 233.117306 
L 249.93782 229.752585 
L 250.094265 226.42427 
L 250.249119 223.12978 
L 250.402501 219.866622 
L 250.554523 216.632391 
L 250.705295 213.424759 
L 250.854923 210.241467 
L 251.00351 207.080322 
L 251.151156 203.939186 
L 251.29796 200.815973 
L 251.444018 197.708642 
L 251.589422 194.615194 
L 251.734267 191.533662 
L 251.878643 188.46211 
L 252.022639 185.398626 
L 252.166345 182.341319 
L 252.309849 179.288313 
L 252.453238 176.23774 
L 252.596601 173.187741 
L 252.740024 170.136458 
L 252.883595 167.082028 
L 253.027401 164.022581 
L 253.171532 160.956236 
L 253.316076 157.881095 
L 253.461125 154.795236 
L 253.606768 151.696713 
L 253.7531 148.583547 
L 253.900214 145.453724 
L 254.048208 142.305185 
L 254.197181 139.135826 
L 254.347234 135.943489 
L 254.498472 132.725956 
L 254.651001 129.480942 
L 254.804932 126.206091 
L 254.960381 122.898965 
L 255.117465 119.557039 
L 255.276308 116.177691 
L 255.437039 112.758195 
L 255.59979 109.295708 
L 255.764701 105.787264 
L 255.931919 102.229761 
L 256.101595 98.619947 
L 256.27389 94.954411 
L 256.448973 91.229566 
L 256.627022 87.441634 
L 256.808223 83.586631 
L 256.992774 79.660345 
L 257.180886 75.658322 
L 257.372779 71.575836 
L 257.568691 67.407872 
L 257.768871 63.149094 
L 257.973587 58.793821 
L 258.183123 54.335988 
L 258.397785 49.769114 
L 258.617899 45.086261 
L 258.843813 40.279987 
L 259.075905 35.342302 
L 259.314578 30.264604 
L 259.560267 25.037623 
L 259.813445 19.651347 
L 260.074618 14.094944 
L 260.344341 8.356673 
L 260.623211 2.423782 
L 260.784143 -1 
" clip-path="url(#p8c8d044d2f)" style="fill: none; stroke: #000000; stroke-width: 1.5; stroke-linecap: square"/>
   </g>
   <g id="line2d_18">
    <path d="M 258.764529 346.6 
L 259.147143 343.616341 
L 259.870064 337.978947 
L 260.570982 332.513131 
L 261.251294 327.207996 
L 261.912294 322.053464 
L 262.555179 317.040201 
L 263.181058 312.159544 
L 263.790964 307.403441 
L 264.38586 302.764394 
L 264.966642 298.235409 
L 265.534148 293.809951 
L 266.089162 289.481903 
L 266.63242 285.245532 
L 267.164613 281.095453 
L 267.686388 277.026603 
L 268.198359 273.034211 
L 268.701103 269.113778 
L 269.195164 265.261047 
L 269.681059 261.471994 
L 270.159279 257.742798 
L 270.630288 254.069832 
L 271.094529 250.449645 
L 271.552423 246.878949 
L 272.004373 243.354602 
L 272.450765 239.873602 
L 272.891967 236.43307 
L 273.328334 233.030244 
L 273.760207 229.662466 
L 274.187913 226.327178 
L 274.61177 223.021907 
L 275.032084 219.744262 
L 275.449153 216.491926 
L 275.863265 213.262646 
L 276.274701 210.05423 
L 276.683736 206.864541 
L 277.090638 203.691488 
L 277.495669 200.533021 
L 277.899088 197.387128 
L 278.301148 194.251829 
L 278.702101 191.125168 
L 279.102194 188.005212 
L 279.501672 184.890043 
L 279.900782 181.777756 
L 280.299765 178.666453 
L 280.698865 175.554238 
L 281.098325 172.439212 
L 281.498391 169.31947 
L 281.899307 166.193095 
L 282.301321 163.058155 
L 282.704684 159.912696 
L 283.10965 156.754737 
L 283.516477 153.582268 
L 283.925427 150.393241 
L 284.336768 147.185567 
L 284.750775 143.957109 
L 285.167728 140.705678 
L 285.587915 137.429024 
L 286.011633 134.124833 
L 286.439189 130.790715 
L 286.870899 127.424203 
L 287.307092 124.02274 
L 287.748106 120.583672 
L 288.194297 117.104242 
L 288.646032 113.581576 
L 289.103696 110.012675 
L 289.567691 106.394404 
L 290.038437 102.723481 
L 290.516378 98.996459 
L 291.001977 95.20972 
L 291.495723 91.359451 
L 291.99813 87.441634 
L 292.509745 83.452023 
L 293.031142 79.386127 
L 293.562931 75.239187 
L 294.105762 71.006149 
L 294.660322 66.681643 
L 295.227345 62.259949 
L 295.807614 57.734965 
L 296.401964 53.100173 
L 297.011291 48.348596 
L 297.636552 43.472755 
L 298.278779 38.464621 
L 298.939078 33.315556 
L 299.618643 28.01625 
L 300.318763 22.556657 
L 301.040831 16.92591 
L 301.786357 11.112233 
L 302.556981 5.102845 
L 303.33959 -1 
" clip-path="url(#p8c8d044d2f)" style="fill: none; stroke: #000000; stroke-width: 1.5; stroke-linecap: square"/>
   </g>
   <g id="line2d_19">
    <path d="M 274.608623 346.6 
L 274.938321 345.088465 
L 276.118207 339.679144 
L 277.265305 334.420149 
L 278.381632 329.302224 
L 279.469064 324.316771 
L 280.529346 319.45579 
L 281.564105 314.711822 
L 282.57486 310.077902 
L 283.563032 305.547519 
L 284.529952 301.114568 
L 285.476868 296.773325 
L 286.404956 292.518406 
L 287.315319 288.344745 
L 288.209 284.247565 
L 289.086984 280.222351 
L 289.950201 276.264835 
L 290.799535 272.370971 
L 291.635822 268.536918 
L 292.45986 264.759026 
L 293.272407 261.033815 
L 294.074186 257.357969 
L 294.86589 253.728315 
L 295.64818 250.141818 
L 296.421692 246.595565 
L 297.187037 243.086757 
L 297.944802 239.612698 
L 298.695555 236.170788 
L 299.439844 232.758514 
L 300.178199 229.373443 
L 300.911137 226.01321 
L 301.639157 222.675518 
L 302.36275 219.358127 
L 303.082392 216.058847 
L 303.798551 212.775538 
L 304.511685 209.506095 
L 305.222246 206.248452 
L 305.930677 203.000569 
L 306.637419 199.760432 
L 307.342907 196.526045 
L 308.047573 193.295427 
L 308.751847 190.066604 
L 309.456158 186.837611 
L 310.160936 183.606477 
L 310.866612 180.371229 
L 311.573617 177.129884 
L 312.282389 173.880443 
L 312.993366 170.620888 
L 313.706996 167.349174 
L 314.423729 164.06323 
L 315.144027 160.760944 
L 315.868358 157.440168 
L 316.597202 154.098704 
L 317.331048 150.734303 
L 318.070402 147.344655 
L 318.81578 143.927386 
L 319.567717 140.480047 
L 320.326764 137.000112 
L 321.093492 133.484964 
L 321.868492 129.93189 
L 322.652379 126.338073 
L 323.445793 122.700578 
L 324.249401 119.016347 
L 325.063901 115.282184 
L 325.890021 111.494743 
L 326.728527 107.650517 
L 327.580223 103.745824 
L 328.445953 99.776788 
L 329.326608 95.739326 
L 330.223129 91.629127 
L 331.13651 87.441634 
L 332.067802 83.17202 
L 333.018124 78.815165 
L 333.988661 74.365628 
L 334.980677 69.817622 
L 335.995517 65.164974 
L 337.03462 60.401094 
L 338.099521 55.518937 
L 339.191867 50.510952 
L 340.313427 45.369038 
L 341.466098 40.084488 
L 342.651927 34.647924 
L 343.87312 29.049231 
L 345.132061 23.277477 
L 346.431331 17.320827 
L 347.773732 11.166442 
L 349.162307 4.800365 
L 350.427489 -1 
" clip-path="url(#p8c8d044d2f)" style="fill: none; stroke: #000000; stroke-width: 1.5; stroke-linecap: square"/>
   </g>
   <g id="line2d_20">
    <path d="M 293.434336 346.6 
L 293.76592 345.579489 
L 295.403063 340.540892 
L 297.001702 335.620795 
L 298.564121 330.812171 
L 300.092458 326.108442 
L 301.588717 321.503437 
L 303.054782 316.991361 
L 304.492425 312.566759 
L 305.903315 308.224493 
L 307.289029 303.959711 
L 308.651057 299.767828 
L 309.99081 295.644499 
L 311.309627 291.585603 
L 312.608781 287.587226 
L 313.889482 283.64564 
L 315.152885 279.757293 
L 316.400092 275.918789 
L 317.63216 272.126882 
L 318.850099 268.378458 
L 320.05488 264.670528 
L 321.247439 261.000216 
L 322.428676 257.364748 
L 323.599462 253.761445 
L 324.760639 250.187717 
L 325.913024 246.641047 
L 327.05741 243.118993 
L 328.194572 239.619174 
L 329.325264 236.139268 
L 330.450225 232.677001 
L 331.570178 229.230146 
L 332.685835 225.796514 
L 333.797896 222.373946 
L 334.907055 218.960313 
L 336.013994 215.553509 
L 337.119395 212.151441 
L 338.223932 208.752032 
L 339.328279 205.353207 
L 340.433109 201.952896 
L 341.539096 198.549024 
L 342.646917 195.139507 
L 343.757254 191.722247 
L 344.870794 188.295128 
L 345.988233 184.85601 
L 347.110277 181.402721 
L 348.237641 177.933057 
L 349.371056 174.44477 
L 350.511268 170.935566 
L 351.659038 167.403099 
L 352.815149 163.844961 
L 353.980404 160.258679 
L 355.155632 156.641707 
L 356.341686 152.991414 
L 357.53945 149.305082 
L 358.749838 145.579895 
L 359.973802 141.812928 
L 361.21233 138.001139 
L 362.466451 134.141357 
L 363.737241 130.230274 
L 365.025825 126.264427 
L 366.333381 122.24019 
L 367.661147 118.153755 
L 369.010422 114.00112 
L 370.382577 109.778069 
L 371.779056 105.480156 
L 373.201386 101.102682 
L 374.651183 96.640673 
L 376.13016 92.088856 
L 377.640137 87.441634 
L 379.183047 82.693051 
L 380.760953 77.836765 
L 382.376054 72.866004 
L 384.0307 67.773536 
L 385.727408 62.551613 
L 387.468878 57.19193 
L 389.258009 51.685561 
L 391.09792 46.022906 
L 392.991976 40.193612 
L 394.943809 34.186499 
L 396.957348 27.989471 
L 399.036855 21.589417 
L 401.186958 14.972095 
L 403.412691 8.122004 
L 405.719547 1.022242 
L 406.376615 -1 
" clip-path="url(#p8c8d044d2f)" style="fill: none; stroke: #000000; stroke-width: 1.5; stroke-linecap: square"/>
   </g>
   <g id="line2d_21">
    <path d="M 317.792263 346.6 
L 319.740197 342.393744 
L 321.833102 337.874446 
L 323.890277 333.432302 
L 325.913851 329.062714 
L 327.905844 324.761319 
L 329.868177 320.523972 
L 331.802676 316.346727 
L 333.711083 312.225822 
L 335.595064 308.157664 
L 337.45621 304.138813 
L 339.296048 300.165972 
L 341.116045 296.235976 
L 342.917612 292.345778 
L 344.702107 288.492441 
L 346.470847 284.673128 
L 348.225101 280.885094 
L 349.966103 277.125673 
L 351.695053 273.392279 
L 353.413119 269.682388 
L 355.121439 265.993541 
L 356.821129 262.323328 
L 358.513283 258.66939 
L 360.198975 255.029404 
L 361.879263 251.401086 
L 363.555194 247.782179 
L 365.227801 244.170448 
L 366.898111 240.563677 
L 368.567145 236.959663 
L 370.23592 233.356207 
L 371.905453 229.751113 
L 373.576763 226.142182 
L 375.250874 222.527205 
L 376.928815 218.903956 
L 378.611626 215.270191 
L 380.300359 211.62364 
L 381.996079 207.962001 
L 383.699869 204.282933 
L 385.412835 200.584055 
L 387.136102 196.862931 
L 388.870824 193.117073 
L 390.618184 189.343926 
L 392.379396 185.540867 
L 394.155712 181.705192 
L 395.948425 177.834111 
L 397.758871 173.92474 
L 399.588434 169.974088 
L 401.438551 165.979053 
L 403.310717 161.936404 
L 405.206492 157.842778 
L 407.127502 153.694661 
L 409.075448 149.488378 
L 411.052115 145.220079 
L 413.059373 140.885721 
L 415.099192 136.481056 
L 417.173642 132.001607 
L 419.284912 127.442653 
L 421.435312 122.799205 
L 423.627288 118.065979 
L 425.863432 113.237379 
L 428.146499 108.307457 
L 430.479416 103.26989 
L 432.865305 98.117939 
L 435.307495 92.844416 
L 437.809545 87.441634 
L 440.375266 81.901366 
L 443.008743 76.214787 
L 445.714368 70.372418 
L 448.496865 64.364056 
L 451.361327 58.178703 
L 454.313255 51.80448 
L 457.358601 45.228535 
L 460.503819 38.436934 
L 461.8 35.638036 
" clip-path="url(#p8c8d044d2f)" style="fill: none; stroke: #000000; stroke-width: 1.5; stroke-linecap: square"/>
   </g>
   <g id="line2d_22">
    <path clip-path="url(#p8c8d044d2f)" style="fill: none; stroke: #000000; stroke-width: 1.5; stroke-linecap: square"/>
   </g>
   <g id="line2d_23">
    <path d="M 206.105561 346.6 
L 207.370843 346.004761 
L 208.82451 345.355253 
L 210.275991 344.740873 
L 211.725402 344.161327 
L 213.172857 343.616341 
L 214.618471 343.105657 
L 216.062359 342.629032 
L 217.504637 342.186242 
L 218.945418 341.777079 
L 220.384819 341.40135 
L 221.822954 341.058878 
L 223.259938 340.749503 
L 224.695886 340.473081 
L 226.130914 340.229481 
L 227.565137 340.018591 
L 228.998669 339.840311 
L 230.431625 339.694559 
L 231.864122 339.581267 
L 233.296273 339.500381 
L 234.728194 339.451865 
L 236.16 339.435695 
L 237.591806 339.451865 
L 239.023727 339.500381 
L 240.455878 339.581267 
L 241.888375 339.694559 
L 243.321331 339.840311 
L 244.754863 340.018591 
L 246.189086 340.229481 
L 247.624114 340.473081 
L 249.060062 340.749503 
L 250.497046 341.058878 
L 251.935181 341.40135 
L 253.374582 341.777079 
L 254.815363 342.186242 
L 256.257641 342.629032 
L 257.701529 343.105657 
L 259.147143 343.616341 
L 260.594598 344.161327 
L 262.044009 344.740873 
L 263.49549 345.355253 
L 264.949157 346.004761 
L 266.214439 346.6 
" clip-path="url(#p8c8d044d2f)" style="fill: none; stroke: #000000; stroke-width: 1.5; stroke-linecap: square"/>
   </g>
   <g id="line2d_24">
    <path d="M 128.015171 346.6 
L 130.209343 344.345629 
L 132.595813 341.944849 
L 134.956658 339.620147 
L 137.292752 337.369279 
L 139.604943 335.190103 
L 141.89405 333.080571 
L 144.160863 331.038731 
L 146.406149 329.062714 
L 148.630649 327.150735 
L 150.835083 325.30109 
L 153.020146 323.512149 
L 155.186514 321.782355 
L 157.334843 320.110219 
L 159.465769 318.494318 
L 161.579913 316.933292 
L 163.677874 315.425842 
L 165.760238 313.970727 
L 167.827575 312.566759 
L 169.88044 311.212805 
L 171.919373 309.907784 
L 173.944902 308.65066 
L 175.957541 307.440449 
L 177.957793 306.276208 
L 179.946148 305.157039 
L 181.923087 304.082087 
L 183.889078 303.050535 
L 185.844582 302.061609 
L 187.790048 301.114568 
L 189.725918 300.208711 
L 191.652624 299.343369 
L 193.570591 298.517911 
L 195.480236 297.731735 
L 197.381969 296.984275 
L 199.276193 296.274992 
L 201.163306 295.603381 
L 203.043697 294.968965 
L 204.917753 294.371295 
L 206.785852 293.809951 
L 208.64837 293.28454 
L 210.505678 292.794695 
L 212.358141 292.340077 
L 214.206122 291.920371 
L 216.049979 291.535288 
L 217.890067 291.184563 
L 219.726738 290.867956 
L 221.560343 290.585251 
L 223.391226 290.336254 
L 225.219735 290.120798 
L 227.04621 289.938734 
L 228.870995 289.789941 
L 230.694427 289.674317 
L 232.516847 289.591784 
L 234.338592 289.542287 
L 236.16 289.525791 
L 237.981408 289.542287 
L 239.803153 289.591784 
L 241.625573 289.674317 
L 243.449005 289.789941 
L 245.27379 289.938734 
L 247.100265 290.120798 
L 248.928774 290.336254 
L 250.759657 290.585251 
L 252.593262 290.867956 
L 254.429933 291.184563 
L 256.270021 291.535288 
L 258.113878 291.920371 
L 259.961859 292.340077 
L 261.814322 292.794695 
L 263.67163 293.28454 
L 265.534148 293.809951 
L 267.402247 294.371295 
L 269.276303 294.968965 
L 271.156694 295.603381 
L 273.043807 296.274992 
L 274.938031 296.984275 
L 276.839764 297.731735 
L 278.749409 298.517911 
L 280.667376 299.343369 
L 282.594082 300.208711 
L 284.529952 301.114568 
L 286.475418 302.061609 
L 288.430922 303.050535 
L 290.396913 304.082087 
L 292.373852 305.157039 
L 294.362207 306.276208 
L 296.362459 307.440449 
L 298.375098 308.65066 
L 300.400627 309.907784 
L 302.43956 311.212805 
L 304.492425 312.566759 
L 306.559762 313.970727 
L 308.642126 315.425842 
L 310.740087 316.933292 
L 312.854231 318.494318 
L 314.985157 320.110219 
L 317.133486 321.782355 
L 319.299854 323.512149 
L 321.484917 325.30109 
L 323.689351 327.150735 
L 325.913851 329.062714 
" clip-path="url(#p8c8d044d2f)" style="fill: none; stroke: #000000; stroke-width: 1.5; stroke-linecap: square"/>
   </g>
   <g id="line2d_25">
    <path d="M 103.064343 306.645345 
L 106.311331 304.077594 
L 109.503063 301.601703 
L 112.641905 299.214176 
L 115.730109 296.911709 
L 118.769815 294.691178 
L 121.763066 292.549629 
L 124.711806 290.484265 
L 127.617893 288.492441 
L 130.483099 286.571649 
L 133.309122 284.719514 
L 136.097582 282.933784 
L 138.850033 281.212326 
L 141.567964 279.553114 
L 144.252801 277.95423 
L 146.905916 276.413849 
L 149.528625 274.930245 
L 152.122193 273.501775 
L 154.68784 272.126882 
L 157.226738 270.804087 
L 159.740018 269.531987 
L 162.228772 268.309251 
L 164.694053 267.134612 
L 167.136879 266.006872 
L 169.558235 264.924893 
L 171.959075 263.887595 
L 174.340321 262.893954 
L 176.702871 261.943 
L 179.047593 261.033815 
L 181.375334 260.165529 
L 183.686913 259.33732 
L 185.983131 258.54841 
L 188.264767 257.798064 
L 190.532582 257.085592 
L 192.787316 256.41034 
L 195.029694 255.771696 
L 197.260426 255.169084 
L 199.480205 254.601964 
L 201.689712 254.069832 
L 203.889614 253.572218 
L 206.080566 253.108684 
L 208.263214 252.678826 
L 210.43819 252.28227 
L 212.60612 251.918673 
L 214.76762 251.587721 
L 216.923299 251.289131 
L 219.073759 251.022647 
L 221.219594 250.788043 
L 223.361395 250.585119 
L 225.499747 250.413703 
L 227.63523 250.27365 
L 229.768423 250.164842 
L 231.899901 250.087188 
L 234.030236 250.040621 
L 236.16 250.025103 
L 238.289764 250.040621 
L 240.420099 250.087188 
L 242.551577 250.164842 
L 244.68477 250.27365 
L 246.820253 250.413703 
L 248.958605 250.585119 
L 251.100406 250.788043 
L 253.246241 251.022647 
L 255.396701 251.289131 
L 257.55238 251.587721 
L 259.71388 251.918673 
L 261.88181 252.28227 
L 264.056786 252.678826 
L 266.239434 253.108684 
L 268.430386 253.572218 
L 270.630288 254.069832 
L 272.839795 254.601964 
L 275.059574 255.169084 
L 277.290306 255.771696 
L 279.532684 256.41034 
L 281.787418 257.085592 
L 284.055233 257.798064 
L 286.336869 258.54841 
L 288.633087 259.33732 
L 290.944666 260.165529 
L 293.272407 261.033815 
L 295.617129 261.943 
L 297.979679 262.893954 
L 300.360925 263.887595 
L 302.761765 264.924893 
L 305.183121 266.006872 
L 307.625947 267.134612 
L 310.091228 268.309251 
L 312.579982 269.531987 
L 315.093262 270.804087 
L 317.63216 272.126882 
L 320.197807 273.501775 
L 322.791375 274.930245 
L 325.414084 276.413849 
L 328.067199 277.95423 
L 330.752036 279.553114 
L 333.469967 281.212326 
L 336.222418 282.933784 
L 339.010878 284.719514 
L 341.836901 286.571649 
L 344.702107 288.492441 
" clip-path="url(#p8c8d044d2f)" style="fill: none; stroke: #000000; stroke-width: 1.5; stroke-linecap: square"/>
   </g>
   <g id="line2d_26">
    <path d="M 79.766847 268.796333 
L 83.894412 266.305193 
L 87.929628 263.912809 
L 91.877086 261.614714 
L 95.741105 259.406729 
L 99.525753 257.284937 
L 103.234862 255.245662 
L 106.872051 253.285458 
L 110.440737 251.401086 
L 113.944152 249.589502 
L 117.385358 247.847844 
L 120.767255 246.173418 
L 124.092594 244.563688 
L 127.363989 243.016264 
L 130.583925 241.528896 
L 133.754767 240.099459 
L 136.878767 238.72595 
L 139.958073 237.406481 
L 142.994736 236.139268 
L 145.990714 234.922626 
L 148.947883 233.754965 
L 151.868037 232.634784 
L 154.752894 231.560664 
L 157.604105 230.531266 
L 160.423254 229.545325 
L 163.211865 228.601645 
L 165.971404 227.699099 
L 168.703283 226.836622 
L 171.408863 226.01321 
L 174.089461 225.227914 
L 176.746348 224.479842 
L 179.380752 223.768153 
L 181.993866 223.092055 
L 184.586844 222.450803 
L 187.16081 221.843699 
L 189.716852 221.270087 
L 192.256032 220.729353 
L 194.779383 220.220923 
L 197.287916 219.744262 
L 199.782614 219.298873 
L 202.264442 218.884293 
L 204.734343 218.500094 
L 207.193241 218.145885 
L 209.642047 217.821303 
L 212.081652 217.526022 
L 214.512936 217.259742 
L 216.936766 217.022197 
L 219.353998 216.813149 
L 221.765477 216.632391 
L 224.17204 216.479743 
L 226.574519 216.355054 
L 228.973736 216.258201 
L 231.370512 216.189088 
L 233.765662 216.147648 
L 236.16 216.133839 
L 238.554338 216.147648 
L 240.949488 216.189088 
L 243.346264 216.258201 
L 245.745481 216.355054 
L 248.14796 216.479743 
L 250.554523 216.632391 
L 252.966002 216.813149 
L 255.383234 217.022197 
L 257.807064 217.259742 
L 260.238348 217.526022 
L 262.677953 217.821303 
L 265.126759 218.145885 
L 267.585657 218.500094 
L 270.055558 218.884293 
L 272.537386 219.298873 
L 275.032084 219.744262 
L 277.540617 220.220923 
L 280.063968 220.729353 
L 282.603148 221.270087 
L 285.15919 221.843699 
L 287.733156 222.450803 
L 290.326134 223.092055 
L 292.939248 223.768153 
L 295.573652 224.479842 
L 298.230539 225.227914 
L 300.911137 226.01321 
L 303.616717 226.836622 
L 306.348596 227.699099 
L 309.108135 228.601645 
L 311.896746 229.545325 
L 314.715895 230.531266 
L 317.567106 231.560664 
L 320.451963 232.634784 
L 323.372117 233.754965 
L 326.329286 234.922626 
L 329.325264 236.139268 
L 332.361927 237.406481 
L 335.441233 238.72595 
L 338.565233 240.099459 
L 341.736075 241.528896 
L 344.956011 243.016264 
L 348.227406 244.563688 
L 351.552745 246.173418 
L 354.934642 247.847844 
L 358.375848 249.589502 
L 361.879263 251.401086 
" clip-path="url(#p8c8d044d2f)" style="fill: none; stroke: #000000; stroke-width: 1.5; stroke-linecap: square"/>
   </g>
   <g id="line2d_27">
    <path d="M 56.413899 230.857235 
L 61.516019 228.597708 
L 66.477847 226.436445 
L 71.30726 224.368333 
L 76.011594 222.388629 
L 80.597688 220.492924 
L 85.07193 218.677119 
L 89.440294 216.937394 
L 93.708374 215.270191 
L 97.881414 213.672189 
L 101.96434 212.140287 
L 105.961779 210.671587 
L 109.87809 209.263378 
L 113.717378 207.91312 
L 117.483517 206.618438 
L 121.180168 205.377101 
L 124.81079 204.18702 
L 128.378662 203.046232 
L 131.886891 201.952896 
L 135.338426 200.905281 
L 138.736068 199.90176 
L 142.082483 198.940806 
L 145.380211 198.020982 
L 148.631672 197.140935 
L 151.839177 196.299394 
L 155.004935 195.495165 
L 158.13106 194.727121 
L 161.219577 193.994207 
L 164.272427 193.295427 
L 167.291477 192.629846 
L 170.27852 191.996587 
L 173.235283 191.394824 
L 176.163431 190.823785 
L 179.06457 190.282744 
L 181.940253 189.77102 
L 184.791983 189.287979 
L 187.621216 188.833027 
L 190.429366 188.40561 
L 193.217806 188.005212 
L 195.987873 187.631355 
L 198.740867 187.283595 
L 201.478062 186.961525 
L 204.200698 186.664767 
L 206.909993 186.392977 
L 209.607138 186.145843 
L 212.293304 185.92308 
L 214.969643 185.724436 
L 217.637289 185.549683 
L 220.297361 185.398626 
L 222.950965 185.271094 
L 225.599195 185.166943 
L 228.243139 185.086057 
L 230.883872 185.028346 
L 233.52247 184.993744 
L 236.16 184.982215 
L 238.79753 184.993744 
L 241.436128 185.028346 
L 244.076861 185.086057 
L 246.720805 185.166943 
L 249.369035 185.271094 
L 252.022639 185.398626 
L 254.682711 185.549683 
L 257.350357 185.724436 
L 260.026696 185.92308 
L 262.712862 186.145843 
L 265.410007 186.392977 
L 268.119302 186.664767 
L 270.841938 186.961525 
L 273.579133 187.283595 
L 276.332127 187.631355 
L 279.102194 188.005212 
L 281.890634 188.40561 
L 284.698784 188.833027 
L 287.528017 189.287979 
L 290.379747 189.77102 
L 293.25543 190.282744 
L 296.156569 190.823785 
L 299.084717 191.394824 
L 302.04148 191.996587 
L 305.028523 192.629846 
L 308.047573 193.295427 
L 311.100423 193.994207 
L 314.18894 194.727121 
L 317.315065 195.495165 
L 320.480823 196.299394 
L 323.688328 197.140935 
L 326.939789 198.020982 
L 330.237517 198.940806 
L 333.583932 199.90176 
L 336.981574 200.905281 
L 340.433109 201.952896 
L 343.941338 203.046232 
L 347.50921 204.18702 
L 351.139832 205.377101 
L 354.836483 206.618438 
L 358.602622 207.91312 
L 362.44191 209.263378 
L 366.358221 210.671587 
L 370.35566 212.140287 
L 374.438586 213.672189 
L 378.611626 215.270191 
" clip-path="url(#p8c8d044d2f)" style="fill: none; stroke: #000000; stroke-width: 1.5; stroke-linecap: square"/>
   </g>
   <g id="line2d_28">
    <path d="M 31.501086 190.383985 
L 37.743632 188.541351 
L 43.781804 186.786348 
L 49.62841 185.113809 
L 55.295263 183.518979 
L 60.793273 181.997482 
L 66.132536 180.545278 
L 71.322408 179.158638 
L 76.371575 177.834111 
L 81.288113 176.568503 
L 86.079545 175.35885 
L 90.752884 174.202402 
L 95.314685 173.096605 
L 99.771075 172.039079 
L 104.127797 171.027613 
L 108.390235 170.060143 
L 112.56345 169.134744 
L 116.652198 168.249622 
L 120.660962 167.403099 
L 124.59397 166.593606 
L 128.455211 165.819678 
L 132.248462 165.079943 
L 135.977297 164.373116 
L 139.645103 163.697995 
L 143.255098 163.053453 
L 146.810339 162.438435 
L 150.313737 161.851953 
L 153.768066 161.293079 
L 157.175973 160.760944 
L 160.539989 160.254737 
L 163.862534 159.773694 
L 167.14593 159.317103 
L 170.392402 158.884296 
L 173.60409 158.474649 
L 176.783053 158.087579 
L 179.931276 157.722543 
L 183.050676 157.379032 
L 186.143102 157.056577 
L 189.21035 156.754737 
L 192.254157 156.473108 
L 195.276213 156.211314 
L 198.27816 155.969009 
L 201.2616 155.745875 
L 204.228095 155.541623 
L 207.179175 155.355989 
L 210.116335 155.188734 
L 213.041047 155.039646 
L 215.954752 154.908535 
L 218.858875 154.795236 
L 221.754819 154.699606 
L 224.643971 154.621526 
L 227.527705 154.560897 
L 230.407385 154.517645 
L 233.284366 154.491715 
L 236.16 154.483075 
L 239.035634 154.491715 
L 241.912615 154.517645 
L 244.792295 154.560897 
L 247.676029 154.621526 
L 250.565181 154.699606 
L 253.461125 154.795236 
L 256.365248 154.908535 
L 259.278953 155.039646 
L 262.203665 155.188734 
L 265.140825 155.355989 
L 268.091905 155.541623 
L 271.0584 155.745875 
L 274.04184 155.969009 
L 277.043787 156.211314 
L 280.065843 156.473108 
L 283.10965 156.754737 
L 286.176898 157.056577 
L 289.269324 157.379032 
L 292.388724 157.722543 
L 295.536947 158.087579 
L 298.71591 158.474649 
L 301.927598 158.884296 
L 305.17407 159.317103 
L 308.457466 159.773694 
L 311.780011 160.254737 
L 315.144027 160.760944 
L 318.551934 161.293079 
L 322.006263 161.851953 
L 325.509661 162.438435 
L 329.064902 163.053453 
L 332.674897 163.697995 
L 336.342703 164.373116 
L 340.071538 165.079943 
L 343.864789 165.819678 
L 347.72603 166.593606 
L 351.659038 167.403099 
L 355.667802 168.249622 
L 359.75655 169.134744 
L 363.929765 170.060143 
L 368.192203 171.027613 
L 372.548925 172.039079 
L 377.005315 173.096605 
L 381.567116 174.202402 
L 386.240455 175.35885 
L 391.031887 176.568503 
L 395.948425 177.834111 
" clip-path="url(#p8c8d044d2f)" style="fill: none; stroke: #000000; stroke-width: 1.5; stroke-linecap: square"/>
   </g>
   <g id="line2d_29">
    <path d="M 3.094393 144.234594 
L 10.763399 143.079787 
L 18.137261 141.98521 
L 25.236601 140.946851 
L 32.080228 139.961058 
L 38.685339 139.024501 
L 45.067691 138.134134 
L 51.241745 137.287172 
L 57.220808 136.481056 
L 63.017142 135.713439 
L 68.642069 134.982161 
L 74.106061 134.28523 
L 79.418823 133.620809 
L 84.589364 132.987202 
L 89.626059 132.382837 
L 94.536706 131.806263 
L 99.32858 131.25613 
L 104.008478 130.731187 
L 108.582759 130.230274 
L 113.05738 129.752309 
L 117.437935 129.296288 
L 121.729677 128.861274 
L 125.937555 128.446396 
L 130.066231 128.05084 
L 134.120108 127.67385 
L 138.103345 127.314716 
L 142.019885 126.972779 
L 145.873461 126.647424 
L 149.667621 126.338073 
L 153.405739 126.04419 
L 157.091027 125.765275 
L 160.72655 125.500857 
L 164.315235 125.250502 
L 167.859882 125.013802 
L 171.363177 124.790377 
L 174.827695 124.579875 
L 178.255913 124.381968 
L 181.650217 124.19635 
L 185.012908 124.02274 
L 188.34621 123.860876 
L 191.652274 123.710518 
L 194.93319 123.571443 
L 198.190984 123.443449 
L 201.427632 123.32635 
L 204.645059 123.219978 
L 207.845146 123.124182 
L 211.029735 123.038825 
L 214.200634 122.963788 
L 217.359619 122.898965 
L 220.508441 122.844266 
L 223.648827 122.799615 
L 226.782487 122.764951 
L 229.911115 122.740224 
L 233.036394 122.725402 
L 236.16 122.720464 
L 239.283606 122.725402 
L 242.408885 122.740224 
L 245.537513 122.764951 
L 248.671173 122.799615 
L 251.811559 122.844266 
L 254.960381 122.898965 
L 258.119366 122.963788 
L 261.290265 123.038825 
L 264.474854 123.124182 
L 267.674941 123.219978 
L 270.892368 123.32635 
L 274.129016 123.443449 
L 277.38681 123.571443 
L 280.667726 123.710518 
L 283.97379 123.860876 
L 287.307092 124.02274 
L 290.669783 124.19635 
L 294.064087 124.381968 
L 297.492305 124.579875 
L 300.956823 124.790377 
L 304.460118 125.013802 
L 308.004765 125.250502 
L 311.59345 125.500857 
L 315.228973 125.765275 
L 318.914261 126.04419 
L 322.652379 126.338073 
L 326.446539 126.647424 
L 330.300115 126.972779 
L 334.216655 127.314716 
L 338.199892 127.67385 
L 342.253769 128.05084 
L 346.382445 128.446396 
L 350.590323 128.861274 
L 354.882065 129.296288 
L 359.26262 129.752309 
L 363.737241 130.230274 
L 368.311522 130.731187 
L 372.99142 131.25613 
L 377.783294 131.806263 
L 382.693941 132.382837 
L 387.730636 132.987202 
L 392.901177 133.620809 
L 398.213939 134.28523 
L 403.677931 134.982161 
L 409.302858 135.713439 
L 415.099192 136.481056 
" clip-path="url(#p8c8d044d2f)" style="fill: none; stroke: #000000; stroke-width: 1.5; stroke-linecap: square"/>
   </g>
   <g id="line2d_30">
    <path d="M -1 87.441634 
L 4.088986 87.441634 
L 12.147952 87.441634 
L 19.889645 87.441634 
L 27.336888 87.441634 
L 34.510455 87.441634 
L 41.429298 87.441634 
L 48.110747 87.441634 
L 54.570682 87.441634 
L 60.823688 87.441634 
L 66.883183 87.441634 
L 72.76154 87.441634 
L 78.470186 87.441634 
L 84.019701 87.441634 
L 89.419891 87.441634 
L 94.679863 87.441634 
L 99.808094 87.441634 
L 104.812483 87.441634 
L 109.700403 87.441634 
L 114.478752 87.441634 
L 119.15399 87.441634 
L 123.732177 87.441634 
L 128.219009 87.441634 
L 132.619849 87.441634 
L 136.939751 87.441634 
L 141.18349 87.441634 
L 145.355582 87.441634 
L 149.460305 87.441634 
L 153.501721 87.441634 
L 157.483689 87.441634 
L 161.409887 87.441634 
L 165.283821 87.441634 
L 169.108842 87.441634 
L 172.888159 87.441634 
L 176.62485 87.441634 
L 180.32187 87.441634 
L 183.982066 87.441634 
L 187.608183 87.441634 
L 191.202875 87.441634 
L 194.768711 87.441634 
L 198.308186 87.441634 
L 201.823723 87.441634 
L 205.317687 87.441634 
L 208.792385 87.441634 
L 212.250076 87.441634 
L 215.692978 87.441634 
L 219.123271 87.441634 
L 222.543103 87.441634 
L 225.954596 87.441634 
L 229.359854 87.441634 
L 232.760963 87.441634 
L 236.16 87.441634 
L 239.559037 87.441634 
L 242.960146 87.441634 
L 246.365404 87.441634 
L 249.776897 87.441634 
L 253.196729 87.441634 
L 256.627022 87.441634 
L 260.069924 87.441634 
L 263.527615 87.441634 
L 267.002313 87.441634 
L 270.496277 87.441634 
L 274.011814 87.441634 
L 277.551289 87.441634 
L 281.117125 87.441634 
L 284.711817 87.441634 
L 288.337934 87.441634 
L 291.99813 87.441634 
L 295.69515 87.441634 
L 299.431841 87.441634 
L 303.211158 87.441634 
L 307.036179 87.441634 
L 310.910113 87.441634 
L 314.836311 87.441634 
L 318.818279 87.441634 
L 322.859695 87.441634 
L 326.964418 87.441634 
L 331.13651 87.441634 
L 335.380249 87.441634 
L 339.700151 87.441634 
L 344.100991 87.441634 
L 348.587823 87.441634 
L 353.16601 87.441634 
L 357.841248 87.441634 
L 362.619597 87.441634 
L 367.507517 87.441634 
L 372.511906 87.441634 
L 377.640137 87.441634 
L 382.900109 87.441634 
L 388.300299 87.441634 
L 393.849814 87.441634 
L 399.55846 87.441634 
L 405.436817 87.441634 
L 411.496312 87.441634 
L 417.749318 87.441634 
L 424.209253 87.441634 
L 430.890702 87.441634 
L 437.809545 87.441634 
" clip-path="url(#p8c8d044d2f)" style="fill: none; stroke: #000000; stroke-width: 1.5; stroke-linecap: square"/>
   </g>
   <g id="line2d_31">
    <path d="M -1 23.201351 
L 5.197477 24.144887 
L 13.691409 25.417935 
L 21.84373 26.620035 
L 29.679777 27.756099 
L 37.22256 28.830572 
L 44.493027 29.84749 
L 51.510296 30.810523 
L 58.291853 31.723016 
L 64.853731 32.588021 
L 71.210657 33.40833 
L 77.376191 34.186499 
L 83.362846 34.924874 
L 89.182184 35.625608 
L 94.844919 36.290683 
L 100.360992 36.921923 
L 105.739644 37.52101 
L 110.989487 38.089494 
L 116.118555 38.628809 
L 121.134362 39.140278 
L 126.043943 39.625127 
L 130.853902 40.084488 
L 135.570446 40.51941 
L 140.199423 40.930866 
L 144.746347 41.319753 
L 149.216435 41.686905 
L 153.614625 42.033093 
L 157.945603 42.359032 
L 162.213825 42.66538 
L 166.423535 42.952748 
L 170.578784 43.2217 
L 174.683448 43.472755 
L 178.74124 43.706391 
L 182.755727 43.923046 
L 186.730344 44.123123 
L 190.668403 44.306989 
L 194.573109 44.474976 
L 198.447565 44.627387 
L 202.294788 44.764493 
L 206.117717 44.886536 
L 209.919219 44.99373 
L 213.702101 45.086261 
L 217.46912 45.164289 
L 221.222985 45.227949 
L 224.96637 45.27735 
L 228.701922 45.312577 
L 232.432262 45.333689 
L 236.16 45.340722 
L 239.887738 45.333689 
L 243.618078 45.312577 
L 247.35363 45.27735 
L 251.097015 45.227949 
L 254.85088 45.164289 
L 258.617899 45.086261 
L 262.400781 44.99373 
L 266.202283 44.886536 
L 270.025212 44.764493 
L 273.872435 44.627387 
L 277.746891 44.474976 
L 281.651597 44.306989 
L 285.589656 44.123123 
L 289.564273 43.923046 
L 293.57876 43.706391 
L 297.636552 43.472755 
L 301.741216 43.2217 
L 305.896465 42.952748 
L 310.106175 42.66538 
L 314.374397 42.359032 
L 318.705375 42.033093 
L 323.103565 41.686905 
L 327.573653 41.319753 
L 332.120577 40.930866 
L 336.749554 40.51941 
L 341.466098 40.084488 
L 346.276057 39.625127 
L 351.185638 39.140278 
L 356.201445 38.628809 
L 361.330513 38.089494 
L 366.580356 37.52101 
L 371.959008 36.921923 
L 377.475081 36.290683 
L 383.137816 35.625608 
L 388.957154 34.924874 
L 394.943809 34.186499 
L 401.109343 33.40833 
L 407.466269 32.588021 
L 414.028147 31.723016 
L 420.809704 30.810523 
L 427.826973 29.84749 
L 435.09744 28.830572 
L 442.640223 27.756099 
L 450.47627 26.620035 
L 458.628591 25.417935 
L 461.8 24.942613 
" clip-path="url(#p8c8d044d2f)" style="fill: none; stroke: #000000; stroke-width: 1.5; stroke-linecap: square"/>
   </g>
   <g id="line2d_32">
    <path clip-path="url(#p8c8d044d2f)" style="fill: none; stroke: #000000; stroke-width: 1.5; stroke-linecap: square"/>
   </g>
   <g id="line2d_33">
    <path d="M 195.458292 346.6 
L 194.16032 344.789653 
L 193.206762 345.072603 
L 192.489204 346.466087 
L 191.614829 346.180457 
L 189.951989 340.872758 
L 190.762944 338.428848 
L 190.668491 336.442768 
L 191.215398 335.104888 
L 191.442021 332.748187 
L 193.357626 331.702553 
L 193.626644 329.490205 
L 193.07923 328.490559 
L 193.396435 327.648463 
L 193.210463 326.532031 
L 193.40773 325.15881 
L 195.811968 319.761155 
L 197.01276 319.13045 
L 198.474638 314.526038 
L 199.987495 313.403313 
L 200.156094 312.341152 
L 199.249286 311.953959 
L 197.286227 314.132758 
L 196.236244 316.254178 
L 194.110146 318.298544 
L 193.838 319.987647 
L 192.670239 322.405683 
L 189.540146 327.202074 
L 189.860929 328.366682 
L 189.678792 331.187449 
L 188.25844 333.266949 
L 187.389065 337.733845 
L 186.173608 341.008278 
L 186.509377 342.185134 
L 187.336084 342.169413 
L 188.158233 343.22307 
L 188.961767 346.6 
M -1 33.327178 
L 4.229495 35.513114 
L 8.396445 35.962831 
L 19.34313 41.29786 
L 22.806561 43.936996 
L 27.455519 43.841282 
L 25.551644 40.578327 
L 28.469063 34.812218 
L 33.457562 35.235289 
L 37.696999 38.370408 
L 41.262602 43.504836 
L 49.409652 50.321299 
L 53.073919 55.967608 
L 53.68749 59.595657 
L 57.491854 67.107108 
L 57.59214 70.248429 
L 56.550614 72.33011 
L 51.745645 75.793737 
L 52.073595 79.26534 
L 50.557243 81.738122 
L 48.077544 82.139635 
L 45.554327 92.349889 
L 47.469403 98.802875 
L 50.068883 100.450833 
L 52.554426 100.944059 
L 54.543948 104.429818 
L 50.818119 107.574912 
L 49.900367 110.766506 
L 53.767595 114.762085 
L 54.143869 116.808513 
L 56.052768 118.591579 
L 62.558824 120.615596 
L 68.130099 125.171231 
L 70.922018 126.575285 
L 79.601159 135.020168 
L 92.587733 145.388283 
L 96.738876 150.573799 
L 103.024215 153.426429 
L 120.087138 157.645606 
L 125.645096 161.282575 
L 127.648871 165.229855 
L 128.498236 168.774552 
L 129.568226 170.398477 
L 130.182368 178.196313 
L 132.199996 185.10212 
L 132.857876 190.692645 
L 132.917192 195.973255 
L 132.473033 197.439141 
L 134.122712 201.100178 
L 133.495211 203.349504 
L 136.208427 209.188733 
L 136.677997 211.279773 
L 136.663982 219.870679 
L 136.113946 221.473108 
L 135.99833 227.423285 
L 134.972455 229.974496 
L 138.005715 234.590355 
L 138.533967 236.37684 
L 137.934842 238.974318 
L 138.465626 242.785165 
L 139.467533 243.92018 
L 142.709226 243.607636 
L 143.896 247.945408 
L 144.188778 252.034385 
L 145.626778 252.726569 
L 145.91753 254.527789 
L 144.950376 255.87175 
L 145.157124 258.353392 
L 144.115527 259.984648 
L 142.205922 260.861497 
L 141.821411 264.121557 
L 143.668416 264.223904 
L 144.987791 265.377248 
L 146.36397 267.70123 
L 147.365067 272.355341 
L 148.202084 273.518365 
L 148.134186 276.180599 
L 149.728585 277.563485 
L 151.621434 280.299975 
L 153.6117 280.827618 
L 154.373875 282.073721 
L 153.730388 283.227706 
L 154.318725 284.400193 
L 155.170009 285.243811 
L 156.351168 285.186346 
L 158.484842 286.325412 
L 161.251516 286.169215 
L 161.745504 284.713871 
L 161.319761 283.813184 
L 161.267096 282.031892 
L 161.671539 280.496657 
L 164.89437 276.947674 
L 165.203455 275.609673 
L 163.176478 272.837721 
L 162.625245 270.666055 
L 163.315835 268.882951 
L 165.081007 266.635241 
L 164.789961 263.611241 
L 165.157658 262.135619 
L 167.58462 257.997802 
L 167.751768 256.539203 
L 167.471011 254.41505 
L 164.886766 254.832857 
L 162.569443 253.777833 
L 162.043599 253.202127 
L 161.748059 251.741061 
L 162.397568 249.463994 
L 165.72271 245.933707 
L 166.120719 244.051938 
L 165.79697 240.569968 
L 166.393328 236.170875 
L 165.39142 235.944064 
L 163.553675 232.130123 
L 165.239356 231.179601 
L 168.084016 231.243275 
L 170.545984 229.813712 
L 171.022157 228.123711 
L 170.442179 227.138089 
L 170.597359 224.237293 
L 171.680872 222.406192 
L 176.834076 220.28138 
L 181.41322 217.369792 
L 183.428028 212.805937 
L 183.554448 211.097266 
L 181.793403 210.132276 
L 181.039372 206.951991 
L 179.54209 206.279537 
L 179.672788 204.854582 
L 181.195577 204.545072 
L 183.610795 205.523999 
L 184.92841 204.880616 
L 187.909212 204.566478 
L 189.472652 203.351612 
L 192.770777 198.013919 
L 193.357012 194.264989 
L 195.437907 189.314612 
L 198.31095 187.729622 
L 199.488228 184.748107 
L 201.472303 182.641608 
L 202.010006 180.236025 
L 201.373971 174.43329 
L 202.193145 172.361494 
L 203.490518 170.637813 
L 207.265195 167.536316 
L 209.716281 166.723712 
L 212.958694 164.479161 
L 218.068946 163.893636 
L 219.324895 163.208336 
L 219.871654 161.992096 
L 220.880942 161.463298 
L 221.905156 159.859723 
L 222.089458 158.367973 
L 224.978183 153.604448 
L 225.428139 152.133775 
L 225.56409 148.985156 
L 226.564548 147.973697 
L 227.608403 141.706023 
L 227.025182 137.481797 
L 227.473457 133.104733 
L 229.090477 132.334524 
L 231.34043 128.806893 
L 232.367963 126.343509 
L 235.161985 123.994208 
L 238.394533 119.95021 
L 239.872449 116.067652 
L 239.73978 112.312226 
L 238.669536 107.735806 
L 237.749065 106.21781 
L 235.227872 106.081414 
L 230.782907 104.241701 
L 228.466816 101.849012 
L 222.878362 98.029484 
L 218.205871 98.275804 
L 215.024068 97.784454 
L 212.172187 96.440617 
L 210.375708 96.863981 
L 208.945621 96.562743 
L 206.759105 94.231483 
L 203.16122 92.091204 
L 196.659609 89.931507 
L 194.829509 90.175693 
L 193.822236 92.482442 
L 192.497479 93.758735 
L 187.476156 94.704074 
L 185.319949 93.047659 
L 182.388684 89.522804 
L 187.198348 83.143909 
L 186.639423 80.353563 
L 184.922724 79.908035 
L 180.641411 70.077784 
L 178.964354 69.220657 
L 173.962487 64.726614 
L 169.204479 62.789385 
L 164.969605 61.799995 
L 160.097685 62.11084 
L 157.101444 61.4888 
L 149.786314 55.804018 
L 148.632906 53.662557 
L 144.934165 50.48761 
L 142.311862 49.082126 
L 137.5566 47.929191 
L 137.083621 44.44612 
L 134.134088 42.050624 
L 130.421169 40.953681 
L 127.31794 38.260997 
L 125.802195 35.826877 
L 120.436092 35.673815 
L 116.892231 38.265183 
L 114.552603 37.839345 
L 111.621567 36.909889 
L 109.6009 35.041341 
L 107.386607 34.227355 
L 100.680038 34.202637 
L 97.766705 32.992636 
L 96.800659 30.57811 
L 93.230152 27.77873 
L 85.18368 25.746368 
L 84.343631 27.483895 
L 78.889879 28.973701 
L 79.746158 31.788686 
L 82.582059 35.113928 
L 83.747034 39.130306 
L 80.380442 39.041541 
L 78.908226 37.314552 
L 77.668581 33.494095 
L 77.595705 29.288201 
L 75.715433 26.656164 
L 76.755979 23.927773 
L 72.181739 20.760565 
L 66.70276 24.886184 
L 56.799978 24.669589 
L 53.839808 28.082564 
L 54.125079 34.603379 
L 50.100992 38.73504 
L 47.304369 39.876425 
L 37.420609 33.389285 
L 27.360098 30.236749 
L 16.756453 33.805962 
L 8.887827 31.827963 
L -1 24.864309 
M 321.082348 -1 
L 316.285337 12.105245 
L 313.637382 16.024653 
L 313.421828 18.577511 
L 314.404424 21.137955 
L 314.631621 24.612392 
L 313.166888 29.096723 
L 314.222324 31.171167 
L 316.276333 32.555905 
L 320.965813 38.443914 
L 321.350299 40.332404 
L 323.314295 41.950958 
L 325.531394 46.792832 
L 326.049363 52.314396 
L 336.004406 60.195492 
L 340.361205 64.984431 
L 345.290042 67.455334 
L 347.718765 67.216683 
L 355.485404 64.04183 
L 362.970019 62.864238 
L 373.274127 63.893503 
L 376.093206 63.551933 
L 389.703926 58.284518 
L 392.974785 57.579303 
L 395.924809 55.6759 
L 411.527187 52.975754 
L 416.554964 54.004506 
L 419.200963 58.229392 
L 418.637647 60.895883 
L 420.154949 63.826208 
L 423.574104 64.012285 
L 432.047731 62.287246 
L 440.266428 61.90027 
L 445.398091 68.078214 
L 444.362885 71.315035 
L 437.129702 82.190414 
L 430.924329 90.199198 
L 428.812124 91.464585 
L 428.08959 94.40361 
L 429.440377 99.35544 
L 437.752859 110.660694 
L 439.561105 115.876442 
L 438.507322 120.631836 
L 439.540347 132.655493 
L 436.808051 134.224946 
L 436.082737 135.861234 
L 436.680824 143.721392 
L 432.729034 149.619327 
L 424.795248 153.179802 
L 419.918668 156.999236 
L 412.856478 164.380809 
L 409.203005 171.18897 
L 411.920658 182.634225 
L 411.918762 186.069768 
L 414.26882 193.59222 
L 410.729486 200.665731 
L 410.74192 204.342181 
L 408.354469 214.067361 
L 409.361535 219.182836 
L 411.948045 224.711194 
L 411.417527 230.533375 
L 412.693568 237.279226 
L 411.660266 241.232863 
L 409.538388 241.592509 
L 408.785347 244.074815 
L 409.278827 246.130813 
L 407.866481 247.085511 
L 407.836499 248.62476 
L 409.901492 249.253036 
L 412.148494 252.577834 
L 414.511187 254.355589 
L 420.208763 255.259734 
L 422.151975 256.612258 
L 428.370845 258.089138 
L 437.687339 263.161771 
L 441.466596 266.12034 
L 444.851336 266.789925 
L 447.272871 268.161187 
L 458.66684 271.616281 
L 461.8 271.997914 
L 461.8 271.997914 
" clip-path="url(#p8c8d044d2f)" style="fill: none; stroke: #0000ff; stroke-width: 1.5; stroke-linecap: square"/>
   </g>
   <g id="line2d_34">
    <path d="M 314.368262 282.17211 
L 157.951738 282.17211 
L 109.616326 133.41126 
L 236.16 41.472003 
L 362.703674 133.41126 
L 314.368262 282.17211 
" clip-path="url(#p8c8d044d2f)" style="fill: none; stroke: #008000; stroke-width: 1.5; stroke-linecap: square"/>
   </g>
   <g id="patch_3">
    <path d="M 103.104 307.584 
L 103.104 41.472 
" style="fill: none; stroke: #000000; stroke-width: 0.8; stroke-linejoin: miter; stroke-linecap: square"/>
   </g>
   <g id="patch_4">
    <path d="M 369.216 307.584 
L 369.216 41.472 
" style="fill: none; stroke: #000000; stroke-width: 0.8; stroke-linejoin: miter; stroke-linecap: square"/>
   </g>
   <g id="patch_5">
    <path d="M 103.104 307.584 
L 369.216 307.584 
" style="fill: none; stroke: #000000; stroke-width: 0.8; stroke-linejoin: miter; stroke-linecap: square"/>
   </g>
   <g id="patch_6">
    <path d="M 103.104 41.472 
L 369.216 41.472 
" style="fill: none; stroke: #000000; stroke-width: 0.8; stroke-linejoin: miter; stroke-linecap: square"/>
   </g>
  </g>
 </g>
 <defs>
  <clipPath id="p8c8d044d2f">
   <rect x="103.104" y="41.472" width="266.112" height="266.112"/>
  </clipPath>
 </defs>
</svg>
