<?xml version="1.0" encoding="utf-8" standalone="no"?>
<!DOCTYPE svg PUBLIC "-//W3C//DTD SVG 1.1//EN"
  "http://www.w3.org/Graphics/SVG/1.1/DTD/svg11.dtd">
<svg xmlns:xlink="http://www.w3.org/1999/xlink" width="460.8pt" height="345.6pt" viewBox="0 0 460.8 345.6" xmlns="http://www.w3.org/2000/svg" version="1.1">
 <metadata>
  <rdf:RDF xmlns:dc="http://purl.org/dc/elements/1.1/" xmlns:cc="http://creativecommons.org/ns#" xmlns:rdf="http://www.w3.org/1999/02/22-rdf-syntax-ns#">
   <cc:Work>
    <dc:type rdf:resource="http://purl.org/dc/dcmitype/StillImage"/>
    <dc:date>2025-06-01T22:06:02.989197</dc:date>
    <dc:format>image/svg+xml</dc:format>
    <dc:creator>
     <cc:Agent>
      <dc:title>Matplotlib v3.6.3, https://matplotlib.org/</dc:title>
     </cc:Agent>
    </dc:creator>
   </cc:Work>
  </rdf:RDF>
 </metadata>
 <defs>
  <style type="text/css">*{stroke-linejoin: round; stroke-linecap: butt}</style>
 </defs>
 <g id="figure_1">
  <g id="patch_1">
   <path d="M 0 345.6 
L 460.8 345.6 
L 460.8 0 
L 0 0 
z
" style="fill: #ffffff"/>
  </g>
  <g id="axes_1">
   <g id="patch_2">
    <path d="M 103.104 307.584 
L 369.216 307.584 
L 369.216 41.472 
L 103.104 41.472 
z
" style="fill: #ffffff"/>
   </g>
   <g id="matplotlib.axis_1">
    <g id="xtick_1">
     <g id="line2d_1">
      <defs>
       <path id="m011475a3a4" d="M 0 0 
L 0 3.5 
" style="stroke: #000000; stroke-width: 0.8"/>
      </defs>
      <g>
       <use xlink:href="#m011475a3a4" x="126.929132" y="307.584" style="stroke: #000000; stroke-width: 0.8"/>
      </g>
     </g>
     <g id="text_1">
      <!-- −4 -->
      <g transform="translate(119.558038 322.182437) scale(0.1 -0.1)">
       <defs>
        <path id="DejaVuSans-2212" d="M 678 2272 
L 4684 2272 
L 4684 1741 
L 678 1741 
L 678 2272 
z
" transform="scale(0.015625)"/>
        <path id="DejaVuSans-34" d="M 2419 4116 
L 825 1625 
L 2419 1625 
L 2419 4116 
z
M 2253 4666 
L 3047 4666 
L 3047 1625 
L 3713 1625 
L 3713 1100 
L 3047 1100 
L 3047 0 
L 2419 0 
L 2419 1100 
L 313 1100 
L 313 1709 
L 2253 4666 
z
" transform="scale(0.015625)"/>
       </defs>
       <use xlink:href="#DejaVuSans-2212"/>
       <use xlink:href="#DejaVuSans-34" x="83.789062"/>
      </g>
     </g>
    </g>
    <g id="xtick_2">
     <g id="line2d_2">
      <g>
       <use xlink:href="#m011475a3a4" x="181.544566" y="307.584" style="stroke: #000000; stroke-width: 0.8"/>
      </g>
     </g>
     <g id="text_2">
      <!-- −2 -->
      <g transform="translate(174.173472 322.182437) scale(0.1 -0.1)">
       <defs>
        <path id="DejaVuSans-32" d="M 1228 531 
L 3431 531 
L 3431 0 
L 469 0 
L 469 531 
Q 828 903 1448 1529 
Q 2069 2156 2228 2338 
Q 2531 2678 2651 2914 
Q 2772 3150 2772 3378 
Q 2772 3750 2511 3984 
Q 2250 4219 1831 4219 
Q 1534 4219 1204 4116 
Q 875 4013 500 3803 
L 500 4441 
Q 881 4594 1212 4672 
Q 1544 4750 1819 4750 
Q 2544 4750 2975 4387 
Q 3406 4025 3406 3419 
Q 3406 3131 3298 2873 
Q 3191 2616 2906 2266 
Q 2828 2175 2409 1742 
Q 1991 1309 1228 531 
z
" transform="scale(0.015625)"/>
       </defs>
       <use xlink:href="#DejaVuSans-2212"/>
       <use xlink:href="#DejaVuSans-32" x="83.789062"/>
      </g>
     </g>
    </g>
    <g id="xtick_3">
     <g id="line2d_3">
      <g>
       <use xlink:href="#m011475a3a4" x="236.16" y="307.584" style="stroke: #000000; stroke-width: 0.8"/>
      </g>
     </g>
     <g id="text_3">
      <!-- 0 -->
      <g transform="translate(232.97875 322.182437) scale(0.1 -0.1)">
       <defs>
        <path id="DejaVuSans-30" d="M 2034 4250 
Q 1547 4250 1301 3770 
Q 1056 3291 1056 2328 
Q 1056 1369 1301 889 
Q 1547 409 2034 409 
Q 2525 409 2770 889 
Q 3016 1369 3016 2328 
Q 3016 3291 2770 3770 
Q 2525 4250 2034 4250 
z
M 2034 4750 
Q 2819 4750 3233 4129 
Q 3647 3509 3647 2328 
Q 3647 1150 3233 529 
Q 2819 -91 2034 -91 
Q 1250 -91 836 529 
Q 422 1150 422 2328 
Q 422 3509 836 4129 
Q 1250 4750 2034 4750 
z
" transform="scale(0.015625)"/>
       </defs>
       <use xlink:href="#DejaVuSans-30"/>
      </g>
     </g>
    </g>
    <g id="xtick_4">
     <g id="line2d_4">
      <g>
       <use xlink:href="#m011475a3a4" x="290.775434" y="307.584" style="stroke: #000000; stroke-width: 0.8"/>
      </g>
     </g>
     <g id="text_4">
      <!-- 2 -->
      <g transform="translate(287.594184 322.182437) scale(0.1 -0.1)">
       <use xlink:href="#DejaVuSans-32"/>
      </g>
     </g>
    </g>
    <g id="xtick_5">
     <g id="line2d_5">
      <g>
       <use xlink:href="#m011475a3a4" x="345.390868" y="307.584" style="stroke: #000000; stroke-width: 0.8"/>
      </g>
     </g>
     <g id="text_5">
      <!-- 4 -->
      <g transform="translate(342.209618 322.182437) scale(0.1 -0.1)">
       <use xlink:href="#DejaVuSans-34"/>
      </g>
     </g>
    </g>
    <g id="text_6">
     <!-- 1e6 -->
     <g transform="translate(350.337875 334.860562) scale(0.1 -0.1)">
      <defs>
       <path id="DejaVuSans-31" d="M 794 531 
L 1825 531 
L 1825 4091 
L 703 3866 
L 703 4441 
L 1819 4666 
L 2450 4666 
L 2450 531 
L 3481 531 
L 3481 0 
L 794 0 
L 794 531 
z
" transform="scale(0.015625)"/>
       <path id="DejaVuSans-65" d="M 3597 1894 
L 3597 1613 
L 953 1613 
Q 991 1019 1311 708 
Q 1631 397 2203 397 
Q 2534 397 2845 478 
Q 3156 559 3463 722 
L 3463 178 
Q 3153 47 2828 -22 
Q 2503 -91 2169 -91 
Q 1331 -91 842 396 
Q 353 884 353 1716 
Q 353 2575 817 3079 
Q 1281 3584 2069 3584 
Q 2775 3584 3186 3129 
Q 3597 2675 3597 1894 
z
M 3022 2063 
Q 3016 2534 2758 2815 
Q 2500 3097 2075 3097 
Q 1594 3097 1305 2825 
Q 1016 2553 972 2059 
L 3022 2063 
z
" transform="scale(0.015625)"/>
       <path id="DejaVuSans-36" d="M 2113 2584 
Q 1688 2584 1439 2293 
Q 1191 2003 1191 1497 
Q 1191 994 1439 701 
Q 1688 409 2113 409 
Q 2538 409 2786 701 
Q 3034 994 3034 1497 
Q 3034 2003 2786 2293 
Q 2538 2584 2113 2584 
z
M 3366 4563 
L 3366 3988 
Q 3128 4100 2886 4159 
Q 2644 4219 2406 4219 
Q 1781 4219 1451 3797 
Q 1122 3375 1075 2522 
Q 1259 2794 1537 2939 
Q 1816 3084 2150 3084 
Q 2853 3084 3261 2657 
Q 3669 2231 3669 1497 
Q 3669 778 3244 343 
Q 2819 -91 2113 -91 
Q 1303 -91 875 529 
Q 447 1150 447 2328 
Q 447 3434 972 4092 
Q 1497 4750 2381 4750 
Q 2619 4750 2861 4703 
Q 3103 4656 3366 4563 
z
" transform="scale(0.015625)"/>
      </defs>
      <use xlink:href="#DejaVuSans-31"/>
      <use xlink:href="#DejaVuSans-65" x="63.623047"/>
      <use xlink:href="#DejaVuSans-36" x="125.146484"/>
     </g>
    </g>
   </g>
   <g id="matplotlib.axis_2">
    <g id="ytick_1">
     <g id="line2d_6">
      <defs>
       <path id="mf44e900ff7" d="M 0 0 
L -3.5 0 
" style="stroke: #000000; stroke-width: 0.8"/>
      </defs>
      <g>
       <use xlink:href="#mf44e900ff7" x="103.104" y="283.758868" style="stroke: #000000; stroke-width: 0.8"/>
      </g>
     </g>
     <g id="text_7">
      <!-- −4 -->
      <g transform="translate(81.361813 287.558087) scale(0.1 -0.1)">
       <use xlink:href="#DejaVuSans-2212"/>
       <use xlink:href="#DejaVuSans-34" x="83.789062"/>
      </g>
     </g>
    </g>
    <g id="ytick_2">
     <g id="line2d_7">
      <g>
       <use xlink:href="#mf44e900ff7" x="103.104" y="229.143434" style="stroke: #000000; stroke-width: 0.8"/>
      </g>
     </g>
     <g id="text_8">
      <!-- −2 -->
      <g transform="translate(81.361813 232.942653) scale(0.1 -0.1)">
       <use xlink:href="#DejaVuSans-2212"/>
       <use xlink:href="#DejaVuSans-32" x="83.789062"/>
      </g>
     </g>
    </g>
    <g id="ytick_3">
     <g id="line2d_8">
      <g>
       <use xlink:href="#mf44e900ff7" x="103.104" y="174.528" style="stroke: #000000; stroke-width: 0.8"/>
      </g>
     </g>
     <g id="text_9">
      <!-- 0 -->
      <g transform="translate(89.7415 178.327219) scale(0.1 -0.1)">
       <use xlink:href="#DejaVuSans-30"/>
      </g>
     </g>
    </g>
    <g id="ytick_4">
     <g id="line2d_9">
      <g>
       <use xlink:href="#mf44e900ff7" x="103.104" y="119.912566" style="stroke: #000000; stroke-width: 0.8"/>
      </g>
     </g>
     <g id="text_10">
      <!-- 2 -->
      <g transform="translate(89.7415 123.711785) scale(0.1 -0.1)">
       <use xlink:href="#DejaVuSans-32"/>
      </g>
     </g>
    </g>
    <g id="ytick_5">
     <g id="line2d_10">
      <g>
       <use xlink:href="#mf44e900ff7" x="103.104" y="65.297132" style="stroke: #000000; stroke-width: 0.8"/>
      </g>
     </g>
     <g id="text_11">
      <!-- 4 -->
      <g transform="translate(89.7415 69.09635) scale(0.1 -0.1)">
       <use xlink:href="#DejaVuSans-34"/>
      </g>
     </g>
    </g>
    <g id="text_12">
     <!-- 1e6 -->
     <g transform="translate(103.104 38.472) scale(0.1 -0.1)">
      <use xlink:href="#DejaVuSans-31"/>
      <use xlink:href="#DejaVuSans-65" x="63.623047"/>
      <use xlink:href="#DejaVuSans-36" x="125.146484"/>
     </g>
    </g>
   </g>
   <g id="line2d_11">
    <path d="M -1 211.47314 
L -0.040493 209.914328 
L 3.094393 204.821406 
L 6.165757 199.831681 
L 9.177327 194.939098 
L 12.132614 190.137951 
L 15.034933 185.422856 
L 17.887419 180.78872 
L 20.693037 176.230724 
L 23.454603 171.744296 
L 26.17479 167.325092 
L 28.856142 162.968979 
L 31.501086 158.672015 
L 34.111936 154.430439 
L 36.690909 150.24065 
L 39.24013 146.099197 
L 41.761636 142.002769 
L 44.25739 137.948177 
L 46.729283 133.932352 
L 49.179139 129.952325 
L 51.608727 126.005228 
L 54.019759 122.088276 
L 56.413899 118.198765 
L 58.79277 114.334062 
L 61.157952 110.491597 
L 63.510993 106.668857 
L 65.85341 102.863377 
L 68.186691 99.072738 
L 70.512305 95.294555 
L 72.831701 91.526475 
L 75.14631 87.766171 
L 77.457554 84.011334 
L 79.766847 80.259667 
L 82.075596 76.508883 
L 84.385209 72.756696 
L 86.697094 69.000816 
L 89.012667 65.238947 
L 91.333351 61.468774 
L 93.660582 57.687965 
L 95.995812 53.894159 
L 98.340514 50.084967 
L 100.696183 46.257957 
L 103.064343 42.410655 
L 105.446547 38.540536 
L 107.844387 34.645015 
L 110.259493 30.721445 
L 112.69354 26.767103 
L 115.148253 22.779186 
L 117.625411 18.754805 
L 120.126856 14.690968 
L 122.654493 10.58458 
L 125.210301 6.432426 
L 127.796337 2.231162 
L 129.78524 -1 
" clip-path="url(#p728add7a8d)" style="fill: none; stroke: #000000; stroke-width: 1.5; stroke-linecap: square"/>
   </g>
   <g id="line2d_12">
    <path d="M 11.408011 346.6 
L 12.165813 344.8453 
L 15.51108 337.099293 
L 18.734244 329.636018 
L 21.84373 322.435965 
L 24.847246 315.481286 
L 27.751859 308.75562 
L 30.564059 302.243935 
L 33.289823 295.932395 
L 35.934662 289.808239 
L 38.503669 283.859672 
L 41.00156 278.075775 
L 43.432707 272.446423 
L 45.801176 266.962206 
L 48.110747 261.614366 
L 50.364947 256.394738 
L 52.567069 251.295697 
L 54.720194 246.310109 
L 56.827209 241.43129 
L 58.890823 236.652967 
L 60.913583 231.969241 
L 62.897887 227.374561 
L 64.845998 222.863688 
L 66.760051 218.431674 
L 68.642069 214.073839 
L 70.493967 209.785744 
L 72.317567 205.563178 
L 74.114597 201.402133 
L 75.886706 197.298793 
L 77.635466 193.249517 
L 79.362381 189.250824 
L 81.068892 185.299378 
L 82.756379 181.391981 
L 84.42617 177.525559 
L 86.079545 173.69715 
L 87.717736 169.903898 
L 89.341938 166.143038 
L 90.953306 162.411896 
L 92.552962 158.707872 
L 94.141998 155.02844 
L 95.721479 151.371133 
L 97.292444 147.733544 
L 98.855912 144.113315 
L 100.412883 140.50813 
L 101.96434 136.915713 
L 103.511253 133.333816 
L 105.054581 129.760221 
L 106.595274 126.192728 
L 108.134275 122.629152 
L 109.672524 119.067318 
L 111.210958 115.505056 
L 112.750515 111.940193 
L 114.292135 108.370551 
L 115.836765 104.793941 
L 117.385358 101.208156 
L 118.938876 97.610966 
L 120.498295 94.000113 
L 122.064603 90.373306 
L 123.638809 86.728214 
L 125.221938 83.062459 
L 126.81504 79.373612 
L 128.41919 75.659183 
L 130.035491 71.916618 
L 131.665078 68.143289 
L 133.309122 64.336486 
L 134.968831 60.49341 
L 136.645456 56.611165 
L 138.340295 52.686744 
L 140.054696 48.717027 
L 141.790064 44.698761 
L 143.547863 40.628556 
L 145.329623 36.50287 
L 147.136945 32.317992 
L 148.97151 28.070034 
L 150.835083 23.75491 
L 152.729519 19.36832 
L 154.656775 14.905734 
L 156.618919 10.362366 
L 158.618134 5.733159 
L 160.656735 1.012753 
L 161.525983 -1 
" clip-path="url(#p728add7a8d)" style="fill: none; stroke: #000000; stroke-width: 1.5; stroke-linecap: square"/>
   </g>
   <g id="line2d_13">
    <path d="M 79.176575 346.6 
L 79.494956 345.544535 
L 81.565801 338.679474 
L 83.565362 332.050728 
L 85.498414 325.642462 
L 87.369344 319.440142 
L 89.182184 313.430392 
L 90.940654 307.600884 
L 92.648189 301.940233 
L 94.307967 296.437902 
L 95.922933 291.084124 
L 97.495825 285.86983 
L 99.029186 280.786582 
L 100.525389 275.826517 
L 101.986648 270.982295 
L 103.415033 266.247054 
L 104.812483 261.614366 
L 106.180816 257.078201 
L 107.521743 252.632895 
L 108.83687 248.273113 
L 110.127715 243.993831 
L 111.395709 239.790302 
L 112.642207 235.658036 
L 113.86849 231.592782 
L 115.075778 227.590503 
L 116.265225 223.647363 
L 117.437935 219.759712 
L 118.594957 215.924065 
L 119.737296 212.137095 
L 120.865913 208.395615 
L 121.981729 204.696572 
L 123.08563 201.03703 
L 124.178467 197.414165 
L 125.261062 193.825253 
L 126.334209 190.267661 
L 127.398677 186.738842 
L 128.455211 183.236322 
L 129.504538 179.757697 
L 130.547363 176.300626 
L 131.584377 172.86282 
L 132.616255 169.44204 
L 133.643659 166.036092 
L 134.667241 162.642815 
L 135.687641 159.260083 
L 136.705495 155.885795 
L 137.72143 152.517868 
L 138.736068 149.15424 
L 139.75003 145.792854 
L 140.763933 142.431662 
L 141.778396 139.068615 
L 142.794037 135.70166 
L 143.81148 132.328734 
L 144.83135 128.94776 
L 145.854281 125.556641 
L 146.880912 122.153255 
L 147.911893 118.735449 
L 148.947883 115.301035 
L 149.989557 111.847783 
L 151.037599 108.373414 
L 152.092715 104.875598 
L 153.155626 101.351943 
L 154.227072 97.799989 
L 155.307819 94.217202 
L 156.398656 90.600968 
L 157.500399 86.948579 
L 158.613893 83.257232 
L 159.740018 79.524013 
L 160.879689 75.74589 
L 162.033857 71.919705 
L 163.203519 68.042156 
L 164.389717 64.109791 
L 165.593541 60.118991 
L 166.816139 56.065956 
L 168.058715 51.946689 
L 169.32254 47.756981 
L 170.608954 43.492389 
L 171.919373 39.148216 
L 173.255297 34.719492 
L 174.618317 30.200943 
L 176.010121 25.58697 
L 177.432508 20.871614 
L 178.887392 16.048527 
L 180.376818 11.110929 
L 181.902971 6.051576 
L 183.468193 0.862708 
L 184.030078 -1 
" clip-path="url(#p728add7a8d)" style="fill: none; stroke: #000000; stroke-width: 1.5; stroke-linecap: square"/>
   </g>
   <g id="line2d_14">
    <path d="M 132.53859 346.6 
L 133.32055 342.672775 
L 134.560331 336.446242 
L 135.759441 330.423973 
L 136.920545 324.592583 
L 138.046096 318.939749 
L 139.138358 313.454102 
L 140.199423 308.125134 
L 141.231228 302.943116 
L 142.235572 297.89902 
L 143.214123 292.984457 
L 144.168438 288.19162 
L 145.099965 283.513225 
L 146.01006 278.942471 
L 146.89999 274.472992 
L 147.770942 270.098826 
L 148.624031 265.814372 
L 149.460305 261.614366 
L 150.280752 257.49385 
L 151.086303 253.448147 
L 151.877837 249.472839 
L 152.656188 245.563742 
L 153.422144 241.716892 
L 154.176456 237.928526 
L 154.919836 234.195061 
L 155.652964 230.513086 
L 156.376488 226.879346 
L 157.091027 223.290725 
L 157.797177 219.744243 
L 158.495506 216.237037 
L 159.186563 212.766356 
L 159.870874 209.32955 
L 160.548951 205.924059 
L 161.221284 202.547412 
L 161.888351 199.19721 
L 162.550617 195.871125 
L 163.208531 192.566894 
L 163.862534 189.282306 
L 164.513056 186.015203 
L 165.160517 182.76347 
L 165.805331 179.52503 
L 166.447906 176.297841 
L 167.088641 173.079886 
L 167.727935 169.869174 
L 168.366179 166.663729 
L 169.003766 163.461589 
L 169.641083 160.260801 
L 170.27852 157.059413 
L 170.916465 153.855474 
L 171.555308 150.647025 
L 172.195441 147.432098 
L 172.837259 144.208705 
L 173.481162 140.974843 
L 174.127554 137.728478 
L 174.776847 134.467548 
L 175.429457 131.189953 
L 176.085812 127.893553 
L 176.746348 124.576158 
L 177.41151 121.235524 
L 178.081758 117.869351 
L 178.757563 114.475268 
L 179.439411 111.050831 
L 180.127807 107.593516 
L 180.823269 104.10071 
L 181.526337 100.569701 
L 182.237574 96.99767 
L 182.957562 93.381684 
L 183.686913 89.71868 
L 184.426262 86.005459 
L 185.176277 82.23867 
L 185.937658 78.4148 
L 186.71114 74.530156 
L 187.497496 70.580854 
L 188.297542 66.562797 
L 189.11214 62.471659 
L 189.942199 58.302866 
L 190.788686 54.051571 
L 191.652624 49.712631 
L 192.535101 45.280579 
L 193.437277 40.749596 
L 194.360388 36.113475 
L 195.305752 31.365587 
L 196.274783 26.498842 
L 197.268993 21.505639 
L 198.290007 16.377819 
L 199.339571 11.10661 
L 200.419568 5.68256 
L 201.532029 0.09547 
" clip-path="url(#p728add7a8d)" style="fill: none; stroke: #000000; stroke-width: 1.5; stroke-linecap: square"/>
   </g>
   <g id="line2d_15">
    <path d="M 178.132024 346.6 
L 178.528622 343.043167 
L 179.190202 337.109877 
L 179.830398 331.368372 
L 180.450601 325.806165 
L 181.052094 320.411752 
L 181.636063 315.17451 
L 182.203602 310.084613 
L 182.755727 305.132954 
L 183.293381 300.311078 
L 183.81744 295.611124 
L 184.328722 291.025766 
L 184.827988 286.548169 
L 185.31595 282.171943 
L 185.793276 277.891107 
L 186.260592 273.700048 
L 186.718485 269.593497 
L 187.167509 265.566494 
L 187.608183 261.614366 
L 188.041 257.732701 
L 188.466426 253.917327 
L 188.884901 250.164294 
L 189.296842 246.469854 
L 189.702648 242.830445 
L 190.102695 239.242678 
L 190.497344 235.70332 
L 190.88694 232.209284 
L 191.271811 228.757615 
L 191.652274 225.345482 
L 192.028633 221.970165 
L 192.401178 218.629047 
L 192.770191 215.319604 
L 193.135943 212.0394 
L 193.498699 208.786075 
L 193.858713 205.557342 
L 194.216232 202.350977 
L 194.571499 199.164815 
L 194.924749 195.996741 
L 195.276213 192.844686 
L 195.626116 189.706623 
L 195.974682 186.580559 
L 196.322129 183.464531 
L 196.668673 180.356599 
L 197.014528 177.254846 
L 197.359906 174.157368 
L 197.705019 171.062272 
L 198.050076 167.96767 
L 198.395289 164.871678 
L 198.740867 161.772405 
L 199.087023 158.667954 
L 199.433969 155.556415 
L 199.781921 152.435861 
L 200.131095 149.304342 
L 200.481712 146.159881 
L 200.833996 143.000469 
L 201.188175 139.82406 
L 201.544483 136.628565 
L 201.903157 133.411845 
L 202.264442 130.171707 
L 202.628589 126.9059 
L 202.995858 123.612101 
L 203.366515 120.287915 
L 203.740836 116.930866 
L 204.119108 113.538387 
L 204.501628 110.107813 
L 204.888704 106.636373 
L 205.280659 103.121177 
L 205.677829 99.55921 
L 206.080566 95.947316 
L 206.489239 92.28219 
L 206.904234 88.560363 
L 207.325959 84.778186 
L 207.75484 80.931817 
L 208.191332 77.017204 
L 208.63591 73.030063 
L 209.089081 68.96586 
L 209.551381 64.819789 
L 210.023378 60.586747 
L 210.505678 56.261305 
L 210.998926 51.83768 
L 211.50381 47.3097 
L 212.021064 42.670769 
L 212.551478 37.913825 
L 213.095895 33.031294 
L 213.655223 28.015039 
L 214.230438 22.856305 
L 214.822592 17.54565 
L 215.432823 12.072882 
L 216.062359 6.426968 
" clip-path="url(#p728add7a8d)" style="fill: none; stroke: #000000; stroke-width: 1.5; stroke-linecap: square"/>
   </g>
   <g id="line2d_16">
    <path d="M 219.885409 346.6 
L 219.894086 346.322511 
L 220.078843 340.414505 
L 220.257554 334.699836 
L 220.430614 329.165849 
L 220.598389 323.800892 
L 220.761213 318.594212 
L 220.919399 313.535871 
L 221.073234 308.616664 
L 221.222985 303.828051 
L 221.3689 299.162094 
L 221.51121 294.611403 
L 221.650132 290.169086 
L 221.785865 285.828704 
L 221.9186 281.584232 
L 222.048511 277.430023 
L 222.175766 273.360775 
L 222.30052 269.371502 
L 222.422919 265.457509 
L 222.543103 261.614366 
L 222.661202 257.837885 
L 222.77734 254.124106 
L 222.891635 250.46927 
L 223.004199 246.86981 
L 223.115136 243.322332 
L 223.22455 239.823602 
L 223.332535 236.370534 
L 223.439185 232.960175 
L 223.544587 229.589696 
L 223.648827 226.256385 
L 223.751987 222.95763 
L 223.854144 219.690917 
L 223.955376 216.45382 
L 224.055754 213.243991 
L 224.155352 210.059154 
L 224.254236 206.897102 
L 224.352475 203.755682 
L 224.450135 200.632797 
L 224.547279 197.526397 
L 224.643971 194.434474 
L 224.740271 191.355055 
L 224.836241 188.286198 
L 224.931941 185.225989 
L 225.02743 182.172532 
L 225.122766 179.123952 
L 225.218008 176.078382 
L 225.313213 173.033964 
L 225.408441 169.988843 
L 225.503749 166.941162 
L 225.599195 163.889057 
L 225.694839 160.830656 
L 225.790738 157.764067 
L 225.886953 154.687381 
L 225.983544 151.598665 
L 226.080573 148.495953 
L 226.178102 145.377245 
L 226.276195 142.240502 
L 226.374917 139.083639 
L 226.474336 135.904519 
L 226.574519 132.700946 
L 226.675537 129.470662 
L 226.777463 126.211338 
L 226.880373 122.920567 
L 226.984345 119.595856 
L 227.089458 116.23462 
L 227.195798 112.834169 
L 227.303452 109.391706 
L 227.41251 105.904307 
L 227.52307 102.368921 
L 227.63523 98.78235 
L 227.749096 95.141239 
L 227.864778 91.442066 
L 227.982391 87.681119 
L 228.102058 83.854488 
L 228.223909 79.958042 
L 228.34808 75.987413 
L 228.474715 71.937971 
L 228.603969 67.804803 
L 228.736004 63.582686 
L 228.870995 59.266059 
L 229.009126 54.848992 
L 229.150597 50.32515 
L 229.295619 45.687754 
L 229.444419 40.929539 
L 229.597242 36.042705 
L 229.754349 31.018863 
L 229.916023 25.848975 
L 230.082569 20.523286 
L 230.254318 15.031251 
L 230.431625 9.361441 
" clip-path="url(#p728add7a8d)" style="fill: none; stroke: #000000; stroke-width: 1.5; stroke-linecap: square"/>
   </g>
   <g id="line2d_17">
    <path d="M 260.621697 346.6 
L 260.344341 340.699327 
L 260.074618 334.961056 
L 259.813445 329.404653 
L 259.560267 324.018377 
L 259.314578 318.791396 
L 259.075905 313.713698 
L 258.843813 308.776013 
L 258.617899 303.969739 
L 258.397785 299.286886 
L 258.183123 294.720012 
L 257.973587 290.262179 
L 257.768871 285.906906 
L 257.568691 281.648128 
L 257.372779 277.480164 
L 257.180886 273.397678 
L 256.992774 269.395655 
L 256.808223 265.469369 
L 256.627022 261.614366 
L 256.448973 257.826434 
L 256.27389 254.101589 
L 256.101595 250.436053 
L 255.931919 246.826239 
L 255.764701 243.268736 
L 255.59979 239.760292 
L 255.437039 236.297805 
L 255.276308 232.878309 
L 255.117465 229.498961 
L 254.960381 226.157035 
L 254.804932 222.849909 
L 254.651001 219.575058 
L 254.498472 216.330044 
L 254.347234 213.112511 
L 254.197181 209.920174 
L 254.048208 206.750815 
L 253.900214 203.602276 
L 253.7531 200.472453 
L 253.606768 197.359287 
L 253.461125 194.260764 
L 253.316076 191.174905 
L 253.171532 188.099764 
L 253.027401 185.033419 
L 252.883595 181.973972 
L 252.740024 178.919542 
L 252.596601 175.868259 
L 252.453238 172.81826 
L 252.309849 169.767687 
L 252.166345 166.714681 
L 252.022639 163.657374 
L 251.878643 160.59389 
L 251.734267 157.522338 
L 251.589422 154.440806 
L 251.444018 151.347358 
L 251.29796 148.240027 
L 251.151156 145.116814 
L 251.00351 141.975678 
L 250.854923 138.814533 
L 250.705295 135.631241 
L 250.554523 132.423609 
L 250.402501 129.189378 
L 250.249119 125.92622 
L 250.094265 122.63173 
L 249.93782 119.303415 
L 249.779664 115.938694 
L 249.619671 112.53488 
L 249.457709 109.089176 
L 249.29364 105.598665 
L 249.127322 102.060297 
L 248.958605 98.470881 
L 248.787331 94.827067 
L 248.613334 91.125337 
L 248.436441 87.361989 
L 248.256469 83.533118 
L 248.073222 79.634604 
L 247.886498 75.662085 
L 247.696077 71.610944 
L 247.501731 67.476279 
L 247.303214 63.252881 
L 247.100265 58.935202 
L 246.892607 54.51733 
L 246.679942 49.992947 
L 246.461954 45.355295 
L 246.2383 40.59713 
L 246.008617 35.710679 
L 245.77251 30.687579 
L 245.529558 25.518825 
L 245.279302 20.194696 
L 245.021249 14.704685 
L 244.754863 9.037409 
" clip-path="url(#p728add7a8d)" style="fill: none; stroke: #000000; stroke-width: 1.5; stroke-linecap: square"/>
   </g>
   <g id="line2d_18">
    <path d="M 302.896404 346.6 
L 302.556981 343.953155 
L 301.786357 337.943767 
L 301.040831 332.13009 
L 300.318763 326.499343 
L 299.618643 321.03975 
L 298.939078 315.740444 
L 298.278779 310.591379 
L 297.636552 305.583245 
L 297.011291 300.707404 
L 296.401964 295.955827 
L 295.807614 291.321035 
L 295.227345 286.796051 
L 294.660322 282.374357 
L 294.105762 278.049851 
L 293.562931 273.816813 
L 293.031142 269.669873 
L 292.509745 265.603977 
L 291.99813 261.614366 
L 291.495723 257.696549 
L 291.001977 253.84628 
L 290.516378 250.059541 
L 290.038437 246.332519 
L 289.567691 242.661596 
L 289.103696 239.043325 
L 288.646032 235.474424 
L 288.194297 231.951758 
L 287.748106 228.472328 
L 287.307092 225.03326 
L 286.870899 221.631797 
L 286.439189 218.265285 
L 286.011633 214.931167 
L 285.587915 211.626976 
L 285.167728 208.350322 
L 284.750775 205.098891 
L 284.336768 201.870433 
L 283.925427 198.662759 
L 283.516477 195.473732 
L 283.10965 192.301263 
L 282.704684 189.143304 
L 282.301321 185.997845 
L 281.899307 182.862905 
L 281.498391 179.73653 
L 281.098325 176.616788 
L 280.698865 173.501762 
L 280.299765 170.389547 
L 279.900782 167.278244 
L 279.501672 164.165957 
L 279.102194 161.050788 
L 278.702101 157.930832 
L 278.301148 154.804171 
L 277.899088 151.668872 
L 277.495669 148.522979 
L 277.090638 145.364512 
L 276.683736 142.191459 
L 276.274701 139.00177 
L 275.863265 135.793354 
L 275.449153 132.564074 
L 275.032084 129.311738 
L 274.61177 126.034093 
L 274.187913 122.728822 
L 273.760207 119.393534 
L 273.328334 116.025756 
L 272.891967 112.62293 
L 272.450765 109.182398 
L 272.004373 105.701398 
L 271.552423 102.177051 
L 271.094529 98.606355 
L 270.630288 94.986168 
L 270.159279 91.313202 
L 269.681059 87.584006 
L 269.195164 83.794953 
L 268.701103 79.942222 
L 268.198359 76.021789 
L 267.686388 72.029397 
L 267.164613 67.960547 
L 266.63242 63.810468 
L 266.089162 59.574097 
L 265.534148 55.246049 
L 264.966642 50.820591 
L 264.38586 46.291606 
L 263.790964 41.652559 
L 263.181058 36.896456 
L 262.555179 32.015799 
L 261.912294 27.002536 
L 261.251294 21.848004 
L 260.570982 16.542869 
L 259.870064 11.077053 
L 259.147143 5.439659 
" clip-path="url(#p728add7a8d)" style="fill: none; stroke: #000000; stroke-width: 1.5; stroke-linecap: square"/>
   </g>
   <g id="line2d_19">
    <path d="M 349.673662 346.6 
L 349.162307 344.255635 
L 347.773732 337.889558 
L 346.431331 331.735173 
L 345.132061 325.778523 
L 343.87312 320.006769 
L 342.651927 314.408076 
L 341.466098 308.971512 
L 340.313427 303.686962 
L 339.191867 298.545048 
L 338.099521 293.537063 
L 337.03462 288.654906 
L 335.995517 283.891026 
L 334.980677 279.238378 
L 333.988661 274.690372 
L 333.018124 270.240835 
L 332.067802 265.88398 
L 331.13651 261.614366 
L 330.223129 257.426873 
L 329.326608 253.316674 
L 328.445953 249.279212 
L 327.580223 245.310176 
L 326.728527 241.405483 
L 325.890021 237.561257 
L 325.063901 233.773816 
L 324.249401 230.039653 
L 323.445793 226.355422 
L 322.652379 222.717927 
L 321.868492 219.12411 
L 321.093492 215.571036 
L 320.326764 212.055888 
L 319.567717 208.575953 
L 318.81578 205.128614 
L 318.070402 201.711345 
L 317.331048 198.321697 
L 316.597202 194.957296 
L 315.868358 191.615832 
L 315.144027 188.295056 
L 314.423729 184.99277 
L 313.706996 181.706826 
L 312.993366 178.435112 
L 312.282389 175.175557 
L 311.573617 171.926116 
L 310.866612 168.684771 
L 310.160936 165.449523 
L 309.456158 162.218389 
L 308.751847 158.989396 
L 308.047573 155.760573 
L 307.342907 152.529955 
L 306.637419 149.295568 
L 305.930677 146.055431 
L 305.222246 142.807548 
L 304.511685 139.549905 
L 303.798551 136.280462 
L 303.082392 132.997153 
L 302.36275 129.697873 
L 301.639157 126.380482 
L 300.911137 123.04279 
L 300.178199 119.682557 
L 299.439844 116.297486 
L 298.695555 112.885212 
L 297.944802 109.443302 
L 297.187037 105.969243 
L 296.421692 102.460435 
L 295.64818 98.914182 
L 294.86589 95.327685 
L 294.074186 91.698031 
L 293.272407 88.022185 
L 292.45986 84.296974 
L 291.635822 80.519082 
L 290.799535 76.685029 
L 289.950201 72.791165 
L 289.086984 68.833649 
L 288.209 64.808435 
L 287.315319 60.711255 
L 286.404956 56.537594 
L 285.476868 52.282675 
L 284.529952 47.941432 
L 283.563032 43.508481 
L 282.57486 38.978098 
L 281.564105 34.344178 
L 280.529346 29.60021 
L 279.469064 24.739229 
L 278.381632 19.753776 
L 277.265305 14.635851 
L 276.118207 9.376856 
L 274.938321 3.967535 
L 273.854797 -1 
" clip-path="url(#p728add7a8d)" style="fill: none; stroke: #000000; stroke-width: 1.5; stroke-linecap: square"/>
   </g>
   <g id="line2d_20">
    <path d="M 405.25369 346.6 
L 403.412691 340.933996 
L 401.186958 334.083905 
L 399.036855 327.466583 
L 396.957348 321.066529 
L 394.943809 314.869501 
L 392.991976 308.862388 
L 391.09792 303.033094 
L 389.258009 297.370439 
L 387.468878 291.86407 
L 385.727408 286.504387 
L 384.0307 281.282464 
L 382.376054 276.189996 
L 380.760953 271.219235 
L 379.183047 266.362949 
L 377.640137 261.614366 
L 376.13016 256.967144 
L 374.651183 252.415327 
L 373.201386 247.953318 
L 371.779056 243.575844 
L 370.382577 239.277931 
L 369.010422 235.05488 
L 367.661147 230.902245 
L 366.333381 226.81581 
L 365.025825 222.791573 
L 363.737241 218.825726 
L 362.466451 214.914643 
L 361.21233 211.054861 
L 359.973802 207.243072 
L 358.749838 203.476105 
L 357.53945 199.750918 
L 356.341686 196.064586 
L 355.155632 192.414293 
L 353.980404 188.797321 
L 352.815149 185.211039 
L 351.659038 181.652901 
L 350.511268 178.120434 
L 349.371056 174.61123 
L 348.237641 171.122943 
L 347.110277 167.653279 
L 345.988233 164.19999 
L 344.870794 160.760872 
L 343.757254 157.333753 
L 342.646917 153.916493 
L 341.539096 150.506976 
L 340.433109 147.103104 
L 339.328279 143.702793 
L 338.223932 140.303968 
L 337.119395 136.904559 
L 336.013994 133.502491 
L 334.907055 130.095687 
L 333.797896 126.682054 
L 332.685835 123.259486 
L 331.570178 119.825854 
L 330.450225 116.378999 
L 329.325264 112.916732 
L 328.194572 109.436826 
L 327.05741 105.937007 
L 325.913024 102.414953 
L 324.760639 98.868283 
L 323.599462 95.294555 
L 322.428676 91.691252 
L 321.247439 88.055784 
L 320.05488 84.385472 
L 318.850099 80.677542 
L 317.63216 76.929118 
L 316.400092 73.137211 
L 315.152885 69.298707 
L 313.889482 65.41036 
L 312.608781 61.468774 
L 311.309627 57.470397 
L 309.99081 53.411501 
L 308.651057 49.288172 
L 307.289029 45.096289 
L 305.903315 40.831507 
L 304.492425 36.489241 
L 303.054782 32.064639 
L 301.588717 27.552563 
L 300.092458 22.947558 
L 298.564121 18.243829 
L 297.001702 13.435205 
L 295.403063 8.515108 
L 293.76592 3.476511 
L 292.311411 -1 
" clip-path="url(#p728add7a8d)" style="fill: none; stroke: #000000; stroke-width: 1.5; stroke-linecap: square"/>
   </g>
   <g id="line2d_21">
    <path d="M 461.8 313.417964 
L 460.503819 310.619066 
L 457.358601 303.827465 
L 454.313255 297.25152 
L 451.361327 290.877297 
L 448.496865 284.691944 
L 445.714368 278.683582 
L 443.008743 272.841213 
L 440.375266 267.154634 
L 437.809545 261.614366 
L 435.307495 256.211584 
L 432.865305 250.938061 
L 430.479416 245.78611 
L 428.146499 240.748543 
L 425.863432 235.818621 
L 423.627288 230.990021 
L 421.435312 226.256795 
L 419.284912 221.613347 
L 417.173642 217.054393 
L 415.099192 212.574944 
L 413.059373 208.170279 
L 411.052115 203.835921 
L 409.075448 199.567622 
L 407.127502 195.361339 
L 405.206492 191.213222 
L 403.310717 187.119596 
L 401.438551 183.076947 
L 399.588434 179.081912 
L 397.758871 175.13126 
L 395.948425 171.221889 
L 394.155712 167.350808 
L 392.379396 163.515133 
L 390.618184 159.712074 
L 388.870824 155.938927 
L 387.136102 152.193069 
L 385.412835 148.471945 
L 383.699869 144.773067 
L 381.996079 141.093999 
L 380.300359 137.43236 
L 378.611626 133.785809 
L 376.928815 130.152044 
L 375.250874 126.528795 
L 373.576763 122.913818 
L 371.905453 119.304887 
L 370.23592 115.699793 
L 368.567145 112.096337 
L 366.898111 108.492323 
L 365.227801 104.885552 
L 363.555194 101.273821 
L 361.879263 97.654914 
L 360.198975 94.026596 
L 358.513283 90.38661 
L 356.821129 86.732672 
L 355.121439 83.062459 
L 353.413119 79.373612 
L 351.695053 75.663721 
L 349.966103 71.930327 
L 348.225101 68.170906 
L 346.470847 64.382872 
L 344.702107 60.563559 
L 342.917612 56.710222 
L 341.116045 52.820024 
L 339.296048 48.890028 
L 337.45621 44.917187 
L 335.595064 40.898336 
L 333.711083 36.830178 
L 331.802676 32.709273 
L 329.868177 28.532028 
L 327.905844 24.294681 
L 325.913851 19.993286 
L 323.890277 15.623698 
L 321.833102 11.181554 
L 319.740197 6.662256 
L 317.609313 2.060948 
L 316.191776 -1 
" clip-path="url(#p728add7a8d)" style="fill: none; stroke: #000000; stroke-width: 1.5; stroke-linecap: square"/>
   </g>
   <g id="line2d_22">
    <path clip-path="url(#p728add7a8d)" style="fill: none; stroke: #000000; stroke-width: 1.5; stroke-linecap: square"/>
   </g>
   <g id="line2d_23">
    <path clip-path="url(#p728add7a8d)" style="fill: none; stroke: #000000; stroke-width: 1.5; stroke-linecap: square"/>
   </g>
   <g id="line2d_24">
    <path d="M -1 325.854649 
L 5.197477 324.911113 
L 13.691409 323.638065 
L 21.84373 322.435965 
L 29.679777 321.299901 
L 37.22256 320.225428 
L 44.493027 319.20851 
L 51.510296 318.245477 
L 58.291853 317.332984 
L 64.853731 316.467979 
L 71.210657 315.64767 
L 77.376191 314.869501 
L 83.362846 314.131126 
L 89.182184 313.430392 
L 94.844919 312.765317 
L 100.360992 312.134077 
L 105.739644 311.53499 
L 110.989487 310.966506 
L 116.118555 310.427191 
L 121.134362 309.915722 
L 126.043943 309.430873 
L 130.853902 308.971512 
L 135.570446 308.53659 
L 140.199423 308.125134 
L 144.746347 307.736247 
L 149.216435 307.369095 
L 153.614625 307.022907 
L 157.945603 306.696968 
L 162.213825 306.39062 
L 166.423535 306.103252 
L 170.578784 305.8343 
L 174.683448 305.583245 
L 178.74124 305.349609 
L 182.755727 305.132954 
L 186.730344 304.932877 
L 190.668403 304.749011 
L 194.573109 304.581024 
L 198.447565 304.428613 
L 202.294788 304.291507 
L 206.117717 304.169464 
L 209.919219 304.06227 
L 213.702101 303.969739 
L 217.46912 303.891711 
L 221.222985 303.828051 
L 224.96637 303.77865 
L 228.701922 303.743423 
L 232.432262 303.722311 
L 236.16 303.715278 
L 239.887738 303.722311 
L 243.618078 303.743423 
L 247.35363 303.77865 
L 251.097015 303.828051 
L 254.85088 303.891711 
L 258.617899 303.969739 
L 262.400781 304.06227 
L 266.202283 304.169464 
L 270.025212 304.291507 
L 273.872435 304.428613 
L 277.746891 304.581024 
L 281.651597 304.749011 
L 285.589656 304.932877 
L 289.564273 305.132954 
L 293.57876 305.349609 
L 297.636552 305.583245 
L 301.741216 305.8343 
L 305.896465 306.103252 
L 310.106175 306.39062 
L 314.374397 306.696968 
L 318.705375 307.022907 
L 323.103565 307.369095 
L 327.573653 307.736247 
L 332.120577 308.125134 
L 336.749554 308.53659 
L 341.466098 308.971512 
L 346.276057 309.430873 
L 351.185638 309.915722 
L 356.201445 310.427191 
L 361.330513 310.966506 
L 366.580356 311.53499 
L 371.959008 312.134077 
L 377.475081 312.765317 
L 383.137816 313.430392 
L 388.957154 314.131126 
L 394.943809 314.869501 
L 401.109343 315.64767 
L 407.466269 316.467979 
L 414.028147 317.332984 
L 420.809704 318.245477 
L 427.826973 319.20851 
L 435.09744 320.225428 
L 442.640223 321.299901 
L 450.47627 322.435965 
L 458.628591 323.638065 
L 461.8 324.113387 
" clip-path="url(#p728add7a8d)" style="fill: none; stroke: #000000; stroke-width: 1.5; stroke-linecap: square"/>
   </g>
   <g id="line2d_25">
    <path d="M -1 261.614366 
L 4.088986 261.614366 
L 12.147952 261.614366 
L 19.889645 261.614366 
L 27.336888 261.614366 
L 34.510455 261.614366 
L 41.429298 261.614366 
L 48.110747 261.614366 
L 54.570682 261.614366 
L 60.823688 261.614366 
L 66.883183 261.614366 
L 72.76154 261.614366 
L 78.470186 261.614366 
L 84.019701 261.614366 
L 89.419891 261.614366 
L 94.679863 261.614366 
L 99.808094 261.614366 
L 104.812483 261.614366 
L 109.700403 261.614366 
L 114.478752 261.614366 
L 119.15399 261.614366 
L 123.732177 261.614366 
L 128.219009 261.614366 
L 132.619849 261.614366 
L 136.939751 261.614366 
L 141.18349 261.614366 
L 145.355582 261.614366 
L 149.460305 261.614366 
L 153.501721 261.614366 
L 157.483689 261.614366 
L 161.409887 261.614366 
L 165.283821 261.614366 
L 169.108842 261.614366 
L 172.888159 261.614366 
L 176.62485 261.614366 
L 180.32187 261.614366 
L 183.982066 261.614366 
L 187.608183 261.614366 
L 191.202875 261.614366 
L 194.768711 261.614366 
L 198.308186 261.614366 
L 201.823723 261.614366 
L 205.317687 261.614366 
L 208.792385 261.614366 
L 212.250076 261.614366 
L 215.692978 261.614366 
L 219.123271 261.614366 
L 222.543103 261.614366 
L 225.954596 261.614366 
L 229.359854 261.614366 
L 232.760963 261.614366 
L 236.16 261.614366 
L 239.559037 261.614366 
L 242.960146 261.614366 
L 246.365404 261.614366 
L 249.776897 261.614366 
L 253.196729 261.614366 
L 256.627022 261.614366 
L 260.069924 261.614366 
L 263.527615 261.614366 
L 267.002313 261.614366 
L 270.496277 261.614366 
L 274.011814 261.614366 
L 277.551289 261.614366 
L 281.117125 261.614366 
L 284.711817 261.614366 
L 288.337934 261.614366 
L 291.99813 261.614366 
L 295.69515 261.614366 
L 299.431841 261.614366 
L 303.211158 261.614366 
L 307.036179 261.614366 
L 310.910113 261.614366 
L 314.836311 261.614366 
L 318.818279 261.614366 
L 322.859695 261.614366 
L 326.964418 261.614366 
L 331.13651 261.614366 
L 335.380249 261.614366 
L 339.700151 261.614366 
L 344.100991 261.614366 
L 348.587823 261.614366 
L 353.16601 261.614366 
L 357.841248 261.614366 
L 362.619597 261.614366 
L 367.507517 261.614366 
L 372.511906 261.614366 
L 377.640137 261.614366 
L 382.900109 261.614366 
L 388.300299 261.614366 
L 393.849814 261.614366 
L 399.55846 261.614366 
L 405.436817 261.614366 
L 411.496312 261.614366 
L 417.749318 261.614366 
L 424.209253 261.614366 
L 430.890702 261.614366 
L 437.809545 261.614366 
" clip-path="url(#p728add7a8d)" style="fill: none; stroke: #000000; stroke-width: 1.5; stroke-linecap: square"/>
   </g>
   <g id="line2d_26">
    <path d="M 3.094393 204.821406 
L 10.763399 205.976213 
L 18.137261 207.07079 
L 25.236601 208.109149 
L 32.080228 209.094942 
L 38.685339 210.031499 
L 45.067691 210.921866 
L 51.241745 211.768828 
L 57.220808 212.574944 
L 63.017142 213.342561 
L 68.642069 214.073839 
L 74.106061 214.77077 
L 79.418823 215.435191 
L 84.589364 216.068798 
L 89.626059 216.673163 
L 94.536706 217.249737 
L 99.32858 217.79987 
L 104.008478 218.324813 
L 108.582759 218.825726 
L 113.05738 219.303691 
L 117.437935 219.759712 
L 121.729677 220.194726 
L 125.937555 220.609604 
L 130.066231 221.00516 
L 134.120108 221.38215 
L 138.103345 221.741284 
L 142.019885 222.083221 
L 145.873461 222.408576 
L 149.667621 222.717927 
L 153.405739 223.01181 
L 157.091027 223.290725 
L 160.72655 223.555143 
L 164.315235 223.805498 
L 167.859882 224.042198 
L 171.363177 224.265623 
L 174.827695 224.476125 
L 178.255913 224.674032 
L 181.650217 224.85965 
L 185.012908 225.03326 
L 188.34621 225.195124 
L 191.652274 225.345482 
L 194.93319 225.484557 
L 198.190984 225.612551 
L 201.427632 225.72965 
L 204.645059 225.836022 
L 207.845146 225.931818 
L 211.029735 226.017175 
L 214.200634 226.092212 
L 217.359619 226.157035 
L 220.508441 226.211734 
L 223.648827 226.256385 
L 226.782487 226.291049 
L 229.911115 226.315776 
L 233.036394 226.330598 
L 236.16 226.335536 
L 239.283606 226.330598 
L 242.408885 226.315776 
L 245.537513 226.291049 
L 248.671173 226.256385 
L 251.811559 226.211734 
L 254.960381 226.157035 
L 258.119366 226.092212 
L 261.290265 226.017175 
L 264.474854 225.931818 
L 267.674941 225.836022 
L 270.892368 225.72965 
L 274.129016 225.612551 
L 277.38681 225.484557 
L 280.667726 225.345482 
L 283.97379 225.195124 
L 287.307092 225.03326 
L 290.669783 224.85965 
L 294.064087 224.674032 
L 297.492305 224.476125 
L 300.956823 224.265623 
L 304.460118 224.042198 
L 308.004765 223.805498 
L 311.59345 223.555143 
L 315.228973 223.290725 
L 318.914261 223.01181 
L 322.652379 222.717927 
L 326.446539 222.408576 
L 330.300115 222.083221 
L 334.216655 221.741284 
L 338.199892 221.38215 
L 342.253769 221.00516 
L 346.382445 220.609604 
L 350.590323 220.194726 
L 354.882065 219.759712 
L 359.26262 219.303691 
L 363.737241 218.825726 
L 368.311522 218.324813 
L 372.99142 217.79987 
L 377.783294 217.249737 
L 382.693941 216.673163 
L 387.730636 216.068798 
L 392.901177 215.435191 
L 398.213939 214.77077 
L 403.677931 214.073839 
L 409.302858 213.342561 
L 415.099192 212.574944 
" clip-path="url(#p728add7a8d)" style="fill: none; stroke: #000000; stroke-width: 1.5; stroke-linecap: square"/>
   </g>
   <g id="line2d_27">
    <path d="M 31.501086 158.672015 
L 37.743632 160.514649 
L 43.781804 162.269652 
L 49.62841 163.942191 
L 55.295263 165.537021 
L 60.793273 167.058518 
L 66.132536 168.510722 
L 71.322408 169.897362 
L 76.371575 171.221889 
L 81.288113 172.487497 
L 86.079545 173.69715 
L 90.752884 174.853598 
L 95.314685 175.959395 
L 99.771075 177.016921 
L 104.127797 178.028387 
L 108.390235 178.995857 
L 112.56345 179.921256 
L 116.652198 180.806378 
L 120.660962 181.652901 
L 124.59397 182.462394 
L 128.455211 183.236322 
L 132.248462 183.976057 
L 135.977297 184.682884 
L 139.645103 185.358005 
L 143.255098 186.002547 
L 146.810339 186.617565 
L 150.313737 187.204047 
L 153.768066 187.762921 
L 157.175973 188.295056 
L 160.539989 188.801263 
L 163.862534 189.282306 
L 167.14593 189.738897 
L 170.392402 190.171704 
L 173.60409 190.581351 
L 176.783053 190.968421 
L 179.931276 191.333457 
L 183.050676 191.676968 
L 186.143102 191.999423 
L 189.21035 192.301263 
L 192.254157 192.582892 
L 195.276213 192.844686 
L 198.27816 193.086991 
L 201.2616 193.310125 
L 204.228095 193.514377 
L 207.179175 193.700011 
L 210.116335 193.867266 
L 213.041047 194.016354 
L 215.954752 194.147465 
L 218.858875 194.260764 
L 221.754819 194.356394 
L 224.643971 194.434474 
L 227.527705 194.495103 
L 230.407385 194.538355 
L 233.284366 194.564285 
L 236.16 194.572925 
L 239.035634 194.564285 
L 241.912615 194.538355 
L 244.792295 194.495103 
L 247.676029 194.434474 
L 250.565181 194.356394 
L 253.461125 194.260764 
L 256.365248 194.147465 
L 259.278953 194.016354 
L 262.203665 193.867266 
L 265.140825 193.700011 
L 268.091905 193.514377 
L 271.0584 193.310125 
L 274.04184 193.086991 
L 277.043787 192.844686 
L 280.065843 192.582892 
L 283.10965 192.301263 
L 286.176898 191.999423 
L 289.269324 191.676968 
L 292.388724 191.333457 
L 295.536947 190.968421 
L 298.71591 190.581351 
L 301.927598 190.171704 
L 305.17407 189.738897 
L 308.457466 189.282306 
L 311.780011 188.801263 
L 315.144027 188.295056 
L 318.551934 187.762921 
L 322.006263 187.204047 
L 325.509661 186.617565 
L 329.064902 186.002547 
L 332.674897 185.358005 
L 336.342703 184.682884 
L 340.071538 183.976057 
L 343.864789 183.236322 
L 347.72603 182.462394 
L 351.659038 181.652901 
L 355.667802 180.806378 
L 359.75655 179.921256 
L 363.929765 178.995857 
L 368.192203 178.028387 
L 372.548925 177.016921 
L 377.005315 175.959395 
L 381.567116 174.853598 
L 386.240455 173.69715 
L 391.031887 172.487497 
L 395.948425 171.221889 
" clip-path="url(#p728add7a8d)" style="fill: none; stroke: #000000; stroke-width: 1.5; stroke-linecap: square"/>
   </g>
   <g id="line2d_28">
    <path d="M 56.413899 118.198765 
L 61.516019 120.458292 
L 66.477847 122.619555 
L 71.30726 124.687667 
L 76.011594 126.667371 
L 80.597688 128.563076 
L 85.07193 130.378881 
L 89.440294 132.118606 
L 93.708374 133.785809 
L 97.881414 135.383811 
L 101.96434 136.915713 
L 105.961779 138.384413 
L 109.87809 139.792622 
L 113.717378 141.14288 
L 117.483517 142.437562 
L 121.180168 143.678899 
L 124.81079 144.86898 
L 128.378662 146.009768 
L 131.886891 147.103104 
L 135.338426 148.150719 
L 138.736068 149.15424 
L 142.082483 150.115194 
L 145.380211 151.035018 
L 148.631672 151.915065 
L 151.839177 152.756606 
L 155.004935 153.560835 
L 158.13106 154.328879 
L 161.219577 155.061793 
L 164.272427 155.760573 
L 167.291477 156.426154 
L 170.27852 157.059413 
L 173.235283 157.661176 
L 176.163431 158.232215 
L 179.06457 158.773256 
L 181.940253 159.28498 
L 184.791983 159.768021 
L 187.621216 160.222973 
L 190.429366 160.65039 
L 193.217806 161.050788 
L 195.987873 161.424645 
L 198.740867 161.772405 
L 201.478062 162.094475 
L 204.200698 162.391233 
L 206.909993 162.663023 
L 209.607138 162.910157 
L 212.293304 163.13292 
L 214.969643 163.331564 
L 217.637289 163.506317 
L 220.297361 163.657374 
L 222.950965 163.784906 
L 225.599195 163.889057 
L 228.243139 163.969943 
L 230.883872 164.027654 
L 233.52247 164.062256 
L 236.16 164.073785 
L 238.79753 164.062256 
L 241.436128 164.027654 
L 244.076861 163.969943 
L 246.720805 163.889057 
L 249.369035 163.784906 
L 252.022639 163.657374 
L 254.682711 163.506317 
L 257.350357 163.331564 
L 260.026696 163.13292 
L 262.712862 162.910157 
L 265.410007 162.663023 
L 268.119302 162.391233 
L 270.841938 162.094475 
L 273.579133 161.772405 
L 276.332127 161.424645 
L 279.102194 161.050788 
L 281.890634 160.65039 
L 284.698784 160.222973 
L 287.528017 159.768021 
L 290.379747 159.28498 
L 293.25543 158.773256 
L 296.156569 158.232215 
L 299.084717 157.661176 
L 302.04148 157.059413 
L 305.028523 156.426154 
L 308.047573 155.760573 
L 311.100423 155.061793 
L 314.18894 154.328879 
L 317.315065 153.560835 
L 320.480823 152.756606 
L 323.688328 151.915065 
L 326.939789 151.035018 
L 330.237517 150.115194 
L 333.583932 149.15424 
L 336.981574 148.150719 
L 340.433109 147.103104 
L 343.941338 146.009768 
L 347.50921 144.86898 
L 351.139832 143.678899 
L 354.836483 142.437562 
L 358.602622 141.14288 
L 362.44191 139.792622 
L 366.358221 138.384413 
L 370.35566 136.915713 
L 374.438586 135.383811 
L 378.611626 133.785809 
" clip-path="url(#p728add7a8d)" style="fill: none; stroke: #000000; stroke-width: 1.5; stroke-linecap: square"/>
   </g>
   <g id="line2d_29">
    <path d="M 79.766847 80.259667 
L 83.894412 82.750807 
L 87.929628 85.143191 
L 91.877086 87.441286 
L 95.741105 89.649271 
L 99.525753 91.771063 
L 103.234862 93.810338 
L 106.872051 95.770542 
L 110.440737 97.654914 
L 113.944152 99.466498 
L 117.385358 101.208156 
L 120.767255 102.882582 
L 124.092594 104.492312 
L 127.363989 106.039736 
L 130.583925 107.527104 
L 133.754767 108.956541 
L 136.878767 110.33005 
L 139.958073 111.649519 
L 142.994736 112.916732 
L 145.990714 114.133374 
L 148.947883 115.301035 
L 151.868037 116.421216 
L 154.752894 117.495336 
L 157.604105 118.524734 
L 160.423254 119.510675 
L 163.211865 120.454355 
L 165.971404 121.356901 
L 168.703283 122.219378 
L 171.408863 123.04279 
L 174.089461 123.828086 
L 176.746348 124.576158 
L 179.380752 125.287847 
L 181.993866 125.963945 
L 184.586844 126.605197 
L 187.16081 127.212301 
L 189.716852 127.785913 
L 192.256032 128.326647 
L 194.779383 128.835077 
L 197.287916 129.311738 
L 199.782614 129.757127 
L 202.264442 130.171707 
L 204.734343 130.555906 
L 207.193241 130.910115 
L 209.642047 131.234697 
L 212.081652 131.529978 
L 214.512936 131.796258 
L 216.936766 132.033803 
L 219.353998 132.242851 
L 221.765477 132.423609 
L 224.17204 132.576257 
L 226.574519 132.700946 
L 228.973736 132.797799 
L 231.370512 132.866912 
L 233.765662 132.908352 
L 236.16 132.922161 
L 238.554338 132.908352 
L 240.949488 132.866912 
L 243.346264 132.797799 
L 245.745481 132.700946 
L 248.14796 132.576257 
L 250.554523 132.423609 
L 252.966002 132.242851 
L 255.383234 132.033803 
L 257.807064 131.796258 
L 260.238348 131.529978 
L 262.677953 131.234697 
L 265.126759 130.910115 
L 267.585657 130.555906 
L 270.055558 130.171707 
L 272.537386 129.757127 
L 275.032084 129.311738 
L 277.540617 128.835077 
L 280.063968 128.326647 
L 282.603148 127.785913 
L 285.15919 127.212301 
L 287.733156 126.605197 
L 290.326134 125.963945 
L 292.939248 125.287847 
L 295.573652 124.576158 
L 298.230539 123.828086 
L 300.911137 123.04279 
L 303.616717 122.219378 
L 306.348596 121.356901 
L 309.108135 120.454355 
L 311.896746 119.510675 
L 314.715895 118.524734 
L 317.567106 117.495336 
L 320.451963 116.421216 
L 323.372117 115.301035 
L 326.329286 114.133374 
L 329.325264 112.916732 
L 332.361927 111.649519 
L 335.441233 110.33005 
L 338.565233 108.956541 
L 341.736075 107.527104 
L 344.956011 106.039736 
L 348.227406 104.492312 
L 351.552745 102.882582 
L 354.934642 101.208156 
L 358.375848 99.466498 
L 361.879263 97.654914 
" clip-path="url(#p728add7a8d)" style="fill: none; stroke: #000000; stroke-width: 1.5; stroke-linecap: square"/>
   </g>
   <g id="line2d_30">
    <path d="M 103.064343 42.410655 
L 106.311331 44.978406 
L 109.503063 47.454297 
L 112.641905 49.841824 
L 115.730109 52.144291 
L 118.769815 54.364822 
L 121.763066 56.506371 
L 124.711806 58.571735 
L 127.617893 60.563559 
L 130.483099 62.484351 
L 133.309122 64.336486 
L 136.097582 66.122216 
L 138.850033 67.843674 
L 141.567964 69.502886 
L 144.252801 71.10177 
L 146.905916 72.642151 
L 149.528625 74.125755 
L 152.122193 75.554225 
L 154.68784 76.929118 
L 157.226738 78.251913 
L 159.740018 79.524013 
L 162.228772 80.746749 
L 164.694053 81.921388 
L 167.136879 83.049128 
L 169.558235 84.131107 
L 171.959075 85.168405 
L 174.340321 86.162046 
L 176.702871 87.113 
L 179.047593 88.022185 
L 181.375334 88.890471 
L 183.686913 89.71868 
L 185.983131 90.50759 
L 188.264767 91.257936 
L 190.532582 91.970408 
L 192.787316 92.64566 
L 195.029694 93.284304 
L 197.260426 93.886916 
L 199.480205 94.454036 
L 201.689712 94.986168 
L 203.889614 95.483782 
L 206.080566 95.947316 
L 208.263214 96.377174 
L 210.43819 96.77373 
L 212.60612 97.137327 
L 214.76762 97.468279 
L 216.923299 97.766869 
L 219.073759 98.033353 
L 221.219594 98.267957 
L 223.361395 98.470881 
L 225.499747 98.642297 
L 227.63523 98.78235 
L 229.768423 98.891158 
L 231.899901 98.968812 
L 234.030236 99.015379 
L 236.16 99.030897 
L 238.289764 99.015379 
L 240.420099 98.968812 
L 242.551577 98.891158 
L 244.68477 98.78235 
L 246.820253 98.642297 
L 248.958605 98.470881 
L 251.100406 98.267957 
L 253.246241 98.033353 
L 255.396701 97.766869 
L 257.55238 97.468279 
L 259.71388 97.137327 
L 261.88181 96.77373 
L 264.056786 96.377174 
L 266.239434 95.947316 
L 268.430386 95.483782 
L 270.630288 94.986168 
L 272.839795 94.454036 
L 275.059574 93.886916 
L 277.290306 93.284304 
L 279.532684 92.64566 
L 281.787418 91.970408 
L 284.055233 91.257936 
L 286.336869 90.50759 
L 288.633087 89.71868 
L 290.944666 88.890471 
L 293.272407 88.022185 
L 295.617129 87.113 
L 297.979679 86.162046 
L 300.360925 85.168405 
L 302.761765 84.131107 
L 305.183121 83.049128 
L 307.625947 81.921388 
L 310.091228 80.746749 
L 312.579982 79.524013 
L 315.093262 78.251913 
L 317.63216 76.929118 
L 320.197807 75.554225 
L 322.791375 74.125755 
L 325.414084 72.642151 
L 328.067199 71.10177 
L 330.752036 69.502886 
L 333.469967 67.843674 
L 336.222418 66.122216 
L 339.010878 64.336486 
L 341.836901 62.484351 
L 344.702107 60.563559 
" clip-path="url(#p728add7a8d)" style="fill: none; stroke: #000000; stroke-width: 1.5; stroke-linecap: square"/>
   </g>
   <g id="line2d_31">
    <path d="M 127.796337 2.231162 
L 130.209343 4.710371 
L 132.595813 7.111151 
L 134.956658 9.435853 
L 137.292752 11.686721 
L 139.604943 13.865897 
L 141.89405 15.975429 
L 144.160863 18.017269 
L 146.406149 19.993286 
L 148.630649 21.905265 
L 150.835083 23.75491 
L 153.020146 25.543851 
L 155.186514 27.273645 
L 157.334843 28.945781 
L 159.465769 30.561682 
L 161.579913 32.122708 
L 163.677874 33.630158 
L 165.760238 35.085273 
L 167.827575 36.489241 
L 169.88044 37.843195 
L 171.919373 39.148216 
L 173.944902 40.40534 
L 175.957541 41.615551 
L 177.957793 42.779792 
L 179.946148 43.898961 
L 181.923087 44.973913 
L 183.889078 46.005465 
L 185.844582 46.994391 
L 187.790048 47.941432 
L 189.725918 48.847289 
L 191.652624 49.712631 
L 193.570591 50.538089 
L 195.480236 51.324265 
L 197.381969 52.071725 
L 199.276193 52.781008 
L 201.163306 53.452619 
L 203.043697 54.087035 
L 204.917753 54.684705 
L 206.785852 55.246049 
L 208.64837 55.77146 
L 210.505678 56.261305 
L 212.358141 56.715923 
L 214.206122 57.135629 
L 216.049979 57.520712 
L 217.890067 57.871437 
L 219.726738 58.188044 
L 221.560343 58.470749 
L 223.391226 58.719746 
L 225.219735 58.935202 
L 227.04621 59.117266 
L 228.870995 59.266059 
L 230.694427 59.381683 
L 232.516847 59.464216 
L 234.338592 59.513713 
L 236.16 59.530209 
L 237.981408 59.513713 
L 239.803153 59.464216 
L 241.625573 59.381683 
L 243.449005 59.266059 
L 245.27379 59.117266 
L 247.100265 58.935202 
L 248.928774 58.719746 
L 250.759657 58.470749 
L 252.593262 58.188044 
L 254.429933 57.871437 
L 256.270021 57.520712 
L 258.113878 57.135629 
L 259.961859 56.715923 
L 261.814322 56.261305 
L 263.67163 55.77146 
L 265.534148 55.246049 
L 267.402247 54.684705 
L 269.276303 54.087035 
L 271.156694 53.452619 
L 273.043807 52.781008 
L 274.938031 52.071725 
L 276.839764 51.324265 
L 278.749409 50.538089 
L 280.667376 49.712631 
L 282.594082 48.847289 
L 284.529952 47.941432 
L 286.475418 46.994391 
L 288.430922 46.005465 
L 290.396913 44.973913 
L 292.373852 43.898961 
L 294.362207 42.779792 
L 296.362459 41.615551 
L 298.375098 40.40534 
L 300.400627 39.148216 
L 302.43956 37.843195 
L 304.492425 36.489241 
L 306.559762 35.085273 
L 308.642126 33.630158 
L 310.740087 32.122708 
L 312.854231 30.561682 
L 314.985157 28.945781 
L 317.133486 27.273645 
L 319.299854 25.543851 
L 321.484917 23.75491 
L 323.689351 21.905265 
L 325.913851 19.993286 
" clip-path="url(#p728add7a8d)" style="fill: none; stroke: #000000; stroke-width: 1.5; stroke-linecap: square"/>
   </g>
   <g id="line2d_32">
    <path d="M 199.616332 -1 
L 200.065716 -0.734682 
L 201.532029 0.09547 
L 202.995583 0.888765 
L 204.456494 1.645585 
L 205.914876 2.366294 
L 207.370843 3.051239 
L 208.82451 3.700747 
L 210.275991 4.315127 
L 211.725402 4.894673 
L 213.172857 5.439659 
L 214.618471 5.950343 
L 216.062359 6.426968 
L 217.504637 6.869758 
L 218.945418 7.278921 
L 220.384819 7.65465 
L 221.822954 7.997122 
L 223.259938 8.306497 
L 224.695886 8.582919 
L 226.130914 8.826519 
L 227.565137 9.037409 
L 228.998669 9.215689 
L 230.431625 9.361441 
L 231.864122 9.474733 
L 233.296273 9.555619 
L 234.728194 9.604135 
L 236.16 9.620305 
L 237.591806 9.604135 
L 239.023727 9.555619 
L 240.455878 9.474733 
L 241.888375 9.361441 
L 243.321331 9.215689 
L 244.754863 9.037409 
L 246.189086 8.826519 
L 247.624114 8.582919 
L 249.060062 8.306497 
L 250.497046 7.997122 
L 251.935181 7.65465 
L 253.374582 7.278921 
L 254.815363 6.869758 
L 256.257641 6.426968 
L 257.701529 5.950343 
L 259.147143 5.439659 
L 260.594598 4.894673 
L 262.044009 4.315127 
L 263.49549 3.700747 
L 264.949157 3.051239 
L 266.405124 2.366294 
L 267.863506 1.645585 
L 269.324417 0.888765 
L 270.787971 0.09547 
L 272.254284 -0.734682 
L 272.703668 -1 
" clip-path="url(#p728add7a8d)" style="fill: none; stroke: #000000; stroke-width: 1.5; stroke-linecap: square"/>
   </g>
   <g id="line2d_33">
    <path d="M 230.580972 307.822541 
L 229.215741 309.241599 
L 227.805017 313.694193 
L 225.932872 334.995776 
L 223.599138 342.424641 
L 222.489524 343.748559 
L 220.484469 344.627344 
L 217.106931 342.575568 
L 216.180262 340.043261 
L 212.551216 338.677081 
L 205.676069 333.071765 
L 203.852107 330.749803 
L 202.641763 328.028156 
L 204.564229 324.135424 
L 204.482602 321.656954 
L 206.584914 319.916308 
L 208.239378 316.616238 
L 206.844305 315.122537 
L 201.832268 315.455188 
L 200.315319 314.177858 
L 194.275656 312.492898 
L 192.30648 313.586741 
L 191.429766 315.363999 
L 185.425939 316.761982 
L 183.662994 317.989499 
L 180.372731 323.159137 
L 177.84362 328.769885 
L 175.272918 330.865821 
L 173.113888 331.421174 
L 169.884902 327.160598 
L 168.138465 326.013558 
L 160.9047 330.658054 
L 158.566995 334.310587 
L 156.189869 335.691562 
L 154.836601 339.348343 
L 150.40461 345.057988 
L 147.80201 346.430381 
L 144.655372 346.337667 
L 144.472524 346.6 
M 244.450318 346.6 
L 244.584381 343.482601 
L 241.917688 336.138419 
L 240.373845 327.92373 
L 236.758781 325.641235 
L 234.613148 323.293325 
L 233.717804 316.235842 
L 230.580972 307.822541 
M 330.79188 -1 
L 330.758996 1.808724 
L 331.300957 2.685083 
L 330.870628 4.134675 
L 331.470416 4.926842 
L 333.154889 5.831604 
L 334.83422 5.180052 
L 336.062435 7.70072 
L 339.454658 7.942086 
L 341.038979 7.173744 
L 342.797848 4.300131 
L 344.572727 2.927503 
L 345.617856 3.279266 
L 346.238408 4.727161 
L 347.881365 6.322222 
L 349.939575 4.681171 
L 350.601484 3.26271 
L 354.667648 0.552156 
L 355.90829 -1 
M 361.619675 -1 
L 361.720359 -0.777108 
L 361.950855 1.56974 
L 361.065508 7.393967 
L 359.309563 10.787543 
L 357.452124 16.574617 
L 355.181473 19.679895 
L 353.683678 24.762682 
L 354.90596 25.256968 
L 356.364198 23.41523 
L 357.013078 20.392542 
L 358.771499 18.724966 
L 360.768405 14.524131 
L 363.547933 10.497352 
L 365.241939 3.638031 
L 367.256723 -1 
M 296.892707 13.099831 
L 292.311388 -1 
M 274.620321 -1 
L 274.580757 -0.455309 
L 274.780526 0.289121 
L 275.517989 0.839733 
L 276.392505 2.686207 
L 274.873117 5.387578 
L 274.246818 5.213344 
L 273.973557 4.2367 
L 271.943648 3.947955 
L 271.383633 2.252734 
L 270.492346 1.863044 
L 269.225549 3.893237 
L 265.042887 4.638764 
L 260.899642 8.008323 
L 260.398631 6.992211 
L 259.007813 6.676373 
L 259.087164 3.758102 
L 258.198053 1.730019 
L 256.253784 0.557784 
L 252.400792 1.075387 
L 247.719259 3.439429 
L 246.796183 1.347302 
L 243.671188 -0.663332 
L 243.827139 -1 
M 230.391804 -1 
L 230.456247 -0.164504 
L 229.837329 0.764386 
L 228.80746 -0.249491 
L 227.18461 1.026976 
L 225.523906 -0.820103 
L 224.524841 -0.954334 
L 222.832836 0.046236 
L 222.087074 -1 
M 219.737313 -1 
L 218.717542 2.083945 
L 217.856721 1.951274 
L 216.419966 -1 
M -1 150.433043 
L 0.265698 150.172419 
L 3.782949 151.106953 
L 8.776862 150.622366 
L 12.208468 149.736803 
L 14.453297 146.653673 
L 20.949199 146.866642 
L 36.914538 151.251952 
L 43.379634 149.035037 
L 46.359408 149.901581 
L 47.867252 152.905902 
L 47.33669 159.640508 
L 53.786066 168.1049 
L 53.385112 175.167991 
L 52.126977 177.960495 
L 48.593534 181.024803 
L 49.136185 182.503384 
L 53.254506 184.55284 
L 63.077231 183.100627 
L 66.577058 184.244785 
L 66.988894 186.933939 
L 65.58018 195.859269 
L 66.426787 201.51312 
L 64.010515 207.136996 
L 61.002554 211.033769 
L 60.390657 213.423652 
L 55.347494 219.33361 
L 59.033721 222.752881 
L 62.93572 232.300041 
L 61.551748 236.248295 
L 61.324263 240.910243 
L 62.658283 246.849962 
L 68.630825 252.315607 
L 72.000597 254.068251 
L 75.197359 254.683849 
L 76.99143 252.087549 
L 75.233546 248.320031 
L 75.305751 246.505518 
L 78.020353 238.108905 
L 77.200169 235.62054 
L 74.66405 232.326546 
L 73.022657 231.581846 
L 70.418413 228.628015 
L 68.001919 228.229542 
L 65.567504 226.640987 
L 66.249524 218.500621 
L 63.68616 214.128711 
L 65.396751 211.248633 
L 71.561361 205.522963 
L 74.764767 200.853233 
L 77.425054 199.793862 
L 79.960378 203.846194 
L 82.920329 204.210748 
L 86.892178 208.850316 
L 89.204279 213.44479 
L 94.023921 216.617494 
L 92.129168 221.192185 
L 94.218389 222.428716 
L 105.566796 216.701489 
L 114.240338 214.158965 
L 116.467607 211.342807 
L 118.087798 207.488577 
L 118.949466 203.344787 
L 118.339289 198.725779 
L 116.249411 194.820205 
L 112.60143 190.461878 
L 111.420158 186.685624 
L 110.243148 185.382937 
L 109.837721 183.794486 
L 111.941046 180.589159 
L 119.510993 176.922566 
L 124.749635 176.201615 
L 128.405168 179.052842 
L 131.143137 179.497431 
L 132.380732 178.927477 
L 139.423832 178.863689 
L 148.089085 177.384064 
L 152.054338 177.84116 
L 155.498158 176.941725 
L 159.624828 174.975184 
L 160.22959 173.687695 
L 164.477752 172.219711 
L 166.437788 170.048059 
L 166.969796 168.089638 
L 168.554925 167.38369 
L 170.934991 164.751431 
L 173.429526 163.297751 
L 175.572582 160.026166 
L 174.430519 156.977192 
L 175.372942 155.297953 
L 175.961 152.392317 
L 174.587316 148.646207 
L 173.927356 144.598947 
L 173.077073 142.809879 
L 171.912806 141.928701 
L 171.709856 140.221128 
L 175.231616 137.332235 
L 178.352845 136.296776 
L 180.628538 136.082157 
L 180.949385 134.551443 
L 179.666201 134.111992 
L 177.87074 132.651325 
L 176.007311 132.709176 
L 173.734231 133.729605 
L 172.499844 133.228613 
L 172.26298 131.94262 
L 172.600233 130.299161 
L 169.468073 128.406991 
L 169.159016 127.378603 
L 169.942803 126.07796 
L 170.865552 125.666173 
L 173.090057 126.439715 
L 174.363877 125.997983 
L 174.797091 125.045503 
L 178.242899 124.078422 
L 180.213979 122.462514 
L 181.857267 123.005298 
L 182.74053 123.794354 
L 182.712517 124.917872 
L 181.685699 125.875175 
L 180.709367 126.116954 
L 180.266465 127.377912 
L 180.473581 128.279686 
L 181.827013 128.883739 
L 182.550451 128.224486 
L 186.487379 127.667085 
L 189.801775 129.2997 
L 190.001449 130.837562 
L 188.528819 133.158724 
L 189.670231 134.854549 
L 192.557636 136.011781 
L 192.7588 137.080921 
L 191.638107 139.069626 
L 191.943558 142.40326 
L 190.629446 144.211779 
L 191.129143 145.597275 
L 193.030152 145.948489 
L 198.574825 145.212065 
L 199.389152 143.807171 
L 199.629444 139.128356 
L 197.684372 134.098317 
L 196.026443 131.99555 
L 195.893033 130.238879 
L 200.579522 127.630348 
L 201.969602 126.420469 
L 202.831164 123.975463 
L 207.616879 120.229831 
L 210.491247 122.266152 
L 211.793071 122.173374 
L 214.439833 121.02026 
L 216.577667 119.278954 
L 216.980373 118.282981 
L 222.182613 112.720008 
L 225.776521 106.54287 
L 227.459523 104.767278 
L 228.774057 100.442309 
L 228.627043 96.886435 
L 228.848464 95.695973 
L 229.710174 93.122185 
L 230.679335 91.642018 
L 230.509588 87.686084 
L 230.134522 86.260996 
L 228.115451 83.385282 
L 226.243273 82.876299 
L 224.471263 85.274024 
L 223.780662 85.155712 
L 221.410899 83.227795 
L 221.624904 81.605254 
L 220.906054 80.845805 
L 219.183899 80.303984 
L 218.853259 79.065657 
L 224.172838 74.623382 
L 225.798174 71.941232 
L 229.572044 68.111602 
L 230.130358 66.605741 
L 231.908819 64.993054 
L 233.020103 63.209761 
L 234.282458 62.493118 
L 238.460394 62.006995 
L 239.505393 62.743013 
L 245.309127 61.810964 
L 245.95426 60.181362 
L 250.174353 60.862592 
L 250.48468 61.586678 
L 249.677742 62.485137 
L 250.208301 63.508773 
L 252.749175 62.674648 
L 253.409573 61.806933 
L 256.103835 61.245043 
L 255.877854 59.731275 
L 254.981213 59.113838 
L 255.526949 57.061007 
L 259.910929 48.551634 
L 263.359492 47.26564 
L 264.099341 47.70973 
L 264.756378 49.058676 
L 264.764059 50.117937 
L 265.464069 51.182411 
L 266.662652 50.840794 
L 269.357067 46.241352 
L 269.87535 44.770236 
L 269.755627 42.336944 
L 271.482907 40.495069 
L 272.330627 41.203597 
L 271.756319 42.137714 
L 271.625828 43.312889 
L 271.876594 44.761077 
L 271.531742 46.494967 
L 271.898419 47.495821 
L 271.626517 48.746332 
L 269.233673 51.827052 
L 267.735261 55.663696 
L 265.644381 59.327699 
L 265.602841 60.369086 
L 264.803796 61.94795 
L 263.409502 64.211259 
L 261.497085 66.10781 
L 260.976952 67.107851 
L 260.751291 68.777171 
L 259.356728 71.452956 
L 259.037717 74.383019 
L 259.302329 78.305018 
L 261.035198 85.83149 
L 262.074794 88.705123 
L 262.534244 91.74434 
L 263.826033 92.089148 
L 266.031091 88.65318 
L 266.387998 85.066509 
L 268.695292 82.271639 
L 268.502219 80.070331 
L 269.266909 78.515616 
L 269.936969 77.479306 
L 272.280494 76.453254 
L 272.222013 74.80059 
L 271.51069 73.598441 
L 271.424395 72.535212 
L 271.778697 71.039678 
L 272.907515 69.710058 
L 273.908947 69.840271 
L 273.970888 68.121704 
L 272.677725 65.881585 
L 272.607009 64.454228 
L 273.05491 63.623934 
L 272.778013 62.656248 
L 270.377877 62.512059 
L 270.521537 60.659468 
L 271.534006 58.272841 
L 272.00798 54.364164 
L 272.478346 53.300388 
L 275.298802 52.020983 
L 275.774817 50.741384 
L 278.221722 49.862965 
L 280.75514 46.814603 
L 285.229761 46.426043 
L 289.386868 37.643328 
L 293.525251 31.429635 
L 294.710903 28.399959 
L 295.383627 27.670782 
L 299.051652 27.31704 
L 299.808332 25.316525 
L 298.231111 22.898115 
L 297.106715 22.843859 
L 296.309246 20.475707 
L 295.580718 19.669808 
L 293.243379 19.517776 
L 292.96865 18.450521 
L 295.583862 16.063853 
L 296.892707 13.099831 
L 296.892707 13.099831 
" clip-path="url(#p728add7a8d)" style="fill: none; stroke: #0000ff; stroke-width: 1.5; stroke-linecap: square"/>
   </g>
   <g id="line2d_34">
    <path d="M 362.703674 215.64474 
L 236.16 307.583997 
L 109.616326 215.64474 
L 157.951738 66.88389 
L 314.368262 66.88389 
L 362.703674 215.64474 
" clip-path="url(#p728add7a8d)" style="fill: none; stroke: #008000; stroke-width: 1.5; stroke-linecap: square"/>
   </g>
   <g id="patch_3">
    <path d="M 103.104 307.584 
L 103.104 41.472 
" style="fill: none; stroke: #000000; stroke-width: 0.8; stroke-linejoin: miter; stroke-linecap: square"/>
   </g>
   <g id="patch_4">
    <path d="M 369.216 307.584 
L 369.216 41.472 
" style="fill: none; stroke: #000000; stroke-width: 0.8; stroke-linejoin: miter; stroke-linecap: square"/>
   </g>
   <g id="patch_5">
    <path d="M 103.104 307.584 
L 369.216 307.584 
" style="fill: none; stroke: #000000; stroke-width: 0.8; stroke-linejoin: miter; stroke-linecap: square"/>
   </g>
   <g id="patch_6">
    <path d="M 103.104 41.472 
L 369.216 41.472 
" style="fill: none; stroke: #000000; stroke-width: 0.8; stroke-linejoin: miter; stroke-linecap: square"/>
   </g>
  </g>
 </g>
 <defs>
  <clipPath id="p728add7a8d">
   <rect x="103.104" y="41.472" width="266.112" height="266.112"/>
  </clipPath>
 </defs>
</svg>
